<svg xmlns="http://www.w3.org/2000/svg" xmlns:xlink="http://www.w3.org/1999/xlink" contentStyleType="text/css" height="607px" preserveAspectRatio="none" style="width:1072px;height:607px;background:#FFFFFF;" version="1.1" viewBox="0 0 1072 607" width="1072px" zoomAndPan="magnify"><defs/><g><!--class Milepel--><g id="elem_Milepel"><rect codeLine="2" fill="#F1F1F1" height="245.8594" id="Milepel" rx="2.5" ry="2.5" style="stroke:#181818;stroke-width:0.5;" width="325" x="387" y="7"/><ellipse cx="520.75" cy="23" fill="#ADD1B2" rx="11" ry="11" style="stroke:#181818;stroke-width:1.0;"/><path d="M523.2231,29.1431 Q522.6421,29.4419 522.0029,29.5913 Q521.3638,29.7407 520.6582,29.7407 Q518.1514,29.7407 516.8315,28.0889 Q515.5117,26.437 515.5117,23.3159 Q515.5117,20.1865 516.8315,18.5347 Q518.1514,16.8828 520.6582,16.8828 Q521.3638,16.8828 522.0112,17.0322 Q522.6587,17.1816 523.2231,17.4805 L523.2231,20.2031 Q522.5923,19.6221 521.9988,19.3523 Q521.4053,19.0825 520.7744,19.0825 Q519.4297,19.0825 518.7449,20.1492 Q518.0601,21.2158 518.0601,23.3159 Q518.0601,25.4077 518.7449,26.4744 Q519.4297,27.541 520.7744,27.541 Q521.4053,27.541 521.9988,27.2712 Q522.5923,27.0015 523.2231,26.4204 Z " fill="#000000"/><text fill="#000000" font-family="sans-serif" font-size="14" lengthAdjust="spacing" textLength="49" x="541.25" y="28.291">Milepel</text><line style="stroke:#181818;stroke-width:0.5;" x1="388" x2="711" y1="39" y2="39"/><ellipse cx="398" cy="52.7441" fill="none" rx="3" ry="3" style="stroke:#038048;stroke-width:1.0;"/><text fill="#000000" font-family="sans-serif" font-size="14" lengthAdjust="spacing" textLength="108" x="407" y="56.5352">systemId: string</text><ellipse cx="398" cy="69.2324" fill="none" rx="3" ry="3" style="stroke:#038048;stroke-width:1.0;"/><text fill="#000000" font-family="sans-serif" font-size="14" lengthAdjust="spacing" textLength="124" x="407" y="73.0234">beskrivelse: string</text><ellipse cx="398" cy="85.7207" fill="none" rx="3" ry="3" style="stroke:#038048;stroke-width:1.0;"/><text fill="#000000" font-family="sans-serif" font-size="14" lengthAdjust="spacing" textLength="143" x="407" y="89.5117">kategori: Milepeltype</text><ellipse cx="398" cy="102.209" fill="none" rx="3" ry="3" style="stroke:#038048;stroke-width:1.0;"/><text fill="#000000" font-family="sans-serif" font-size="14" lengthAdjust="spacing" textLength="65" x="407" y="106">frist: date</text><ellipse cx="398" cy="118.6973" fill="none" rx="3" ry="3" style="stroke:#038048;stroke-width:1.0;"/><text fill="#000000" font-family="sans-serif" font-size="14" lengthAdjust="spacing" textLength="85" x="407" y="122.4883">utfoert: date</text><ellipse cx="398" cy="135.1855" fill="none" rx="3" ry="3" style="stroke:#038048;stroke-width:1.0;"/><text fill="#000000" font-family="sans-serif" font-size="14" lengthAdjust="spacing" textLength="111" x="407" y="138.9766">planlagtTil: date</text><ellipse cx="398" cy="151.6738" fill="none" rx="3" ry="3" style="stroke:#038048;stroke-width:1.0;"/><text fill="#000000" font-family="sans-serif" font-size="14" lengthAdjust="spacing" textLength="105" x="407" y="155.4648">intern: boolean</text><ellipse cx="398" cy="168.1621" fill="none" rx="3" ry="3" style="stroke:#038048;stroke-width:1.0;"/><text fill="#000000" font-family="sans-serif" font-size="14" lengthAdjust="spacing" textLength="299" x="407" y="171.9531">referanseJournalpost: ReferanseJournalpost</text><ellipse cx="398" cy="184.6504" fill="none" rx="3" ry="3" style="stroke:#038048;stroke-width:1.0;"/><text fill="#000000" font-family="sans-serif" font-size="14" lengthAdjust="spacing" textLength="296" x="407" y="188.4414">referanseDokument: ReferanseDokumentfil</text><ellipse cx="398" cy="201.1387" fill="none" rx="3" ry="3" style="stroke:#038048;stroke-width:1.0;"/><text fill="#000000" font-family="sans-serif" font-size="14" lengthAdjust="spacing" textLength="110" x="407" y="204.9297">erStart: boolean</text><ellipse cx="398" cy="217.627" fill="none" rx="3" ry="3" style="stroke:#038048;stroke-width:1.0;"/><text fill="#000000" font-family="sans-serif" font-size="14" lengthAdjust="spacing" textLength="109" x="407" y="221.418">erSlutt: boolean</text><ellipse cx="398" cy="234.1152" fill="none" rx="3" ry="3" style="stroke:#038048;stroke-width:1.0;"/><text fill="#000000" font-family="sans-serif" font-size="14" lengthAdjust="spacing" textLength="179" x="407" y="237.9063">status: MilepelStatusEnum</text><line style="stroke:#181818;stroke-width:0.5;" x1="388" x2="711" y1="244.8594" y2="244.8594"/></g><!--class Milepeltype--><g id="elem_Milepeltype"><rect codeLine="24" fill="#F1F1F1" height="80.9766" id="Milepeltype" rx="2.5" ry="2.5" style="stroke:#181818;stroke-width:0.5;" width="184" x="28.5" y="337.6"/><ellipse cx="77.25" cy="353.6" fill="#ADD1B2" rx="11" ry="11" style="stroke:#181818;stroke-width:1.0;"/><path d="M79.7231,359.7431 Q79.1421,360.0419 78.5029,360.1913 Q77.8638,360.3407 77.1582,360.3407 Q74.6514,360.3407 73.3315,358.6889 Q72.0117,357.037 72.0117,353.9159 Q72.0117,350.7865 73.3315,349.1347 Q74.6514,347.4828 77.1582,347.4828 Q77.8638,347.4828 78.5112,347.6322 Q79.1587,347.7816 79.7231,348.0805 L79.7231,350.8031 Q79.0923,350.2221 78.4988,349.9523 Q77.9053,349.6825 77.2744,349.6825 Q75.9297,349.6825 75.2449,350.7492 Q74.5601,351.8158 74.5601,353.9159 Q74.5601,356.0077 75.2449,357.0744 Q75.9297,358.141 77.2744,358.141 Q77.9053,358.141 78.4988,357.8712 Q79.0923,357.6015 79.7231,357.0204 Z " fill="#000000"/><text fill="#000000" font-family="sans-serif" font-size="14" lengthAdjust="spacing" textLength="78" x="97.75" y="358.891">Milepeltype</text><line style="stroke:#181818;stroke-width:0.5;" x1="29.5" x2="211.5" y1="369.6" y2="369.6"/><ellipse cx="39.5" cy="383.3441" fill="none" rx="3" ry="3" style="stroke:#038048;stroke-width:1.0;"/><text fill="#000000" font-family="sans-serif" font-size="14" lengthAdjust="spacing" textLength="116" x="48.5" y="387.1352">kodeverdi: string</text><ellipse cx="39.5" cy="399.8324" fill="none" rx="3" ry="3" style="stroke:#038048;stroke-width:1.0;"/><text fill="#000000" font-family="sans-serif" font-size="14" lengthAdjust="spacing" textLength="158" x="48.5" y="403.6234">kodebeskrivelse: string</text><line style="stroke:#181818;stroke-width:0.5;" x1="29.5" x2="211.5" y1="410.5766" y2="410.5766"/></g><g id="elem_GMN5"><path d="M6,94.31 L6,165.5522 A0,0 0 0 0 6,165.5522 L116.5,165.5522 L120.5,337.31 L124.5,165.5522 L235,165.5522 A0,0 0 0 0 235,165.5522 L235,104.31 L225,94.31 L6,94.31 A0,0 0 0 0 6,94.31 " fill="#FEFFDD" style="stroke:#181818;stroke-width:0.5;"/><path d="M225,94.31 L225,104.31 L235,104.31 L225,94.31 " fill="#FEFFDD" style="stroke:#181818;stroke-width:0.5;"/><text fill="#000000" font-family="sans-serif" font-size="13" lengthAdjust="spacing" textLength="69" x="12" y="111.8784">Eksempler:</text><text fill="#000000" font-family="sans-serif" font-size="13" lengthAdjust="spacing" textLength="201" x="12" y="127.1889">Bestilling av oppstartsm&#248;te (BO)</text><text fill="#000000" font-family="sans-serif" font-size="13" lengthAdjust="spacing" textLength="208" x="12" y="142.4995">Gjennomf&#248;rt oppstartsm&#248;te (OM)</text><text fill="#000000" font-family="sans-serif" font-size="13" lengthAdjust="spacing" textLength="137" x="12" y="157.81">Mottak av planforslag</text></g><g id="elem_GMN8"><path d="M248,365.43 L248,390.7405 A0,0 0 0 0 248,390.7405 L447,390.7405 A0,0 0 0 0 447,390.7405 L447,375.43 L437,365.43 L361.32,365.43 L449.09,253.29 L353.32,365.43 L248,365.43 A0,0 0 0 0 248,365.43 " fill="#FEFFDD" style="stroke:#181818;stroke-width:0.5;"/><path d="M437,365.43 L437,375.43 L447,375.43 L437,365.43 " fill="#FEFFDD" style="stroke:#181818;stroke-width:0.5;"/><text fill="#000000" font-family="sans-serif" font-size="13" lengthAdjust="spacing" textLength="178" x="254" y="382.9984">frist og utfoert ikke p&#229;krevd</text></g><!--class ReferanseJournalpost--><g id="elem_ReferanseJournalpost"><rect codeLine="31" fill="#F1F1F1" height="130.4414" id="ReferanseJournalpost" rx="2.5" ry="2.5" style="stroke:#181818;stroke-width:0.5;" width="369" x="482" y="312.86"/><ellipse cx="588.75" cy="328.86" fill="#ADD1B2" rx="11" ry="11" style="stroke:#181818;stroke-width:1.0;"/><path d="M591.2231,335.0031 Q590.6421,335.3019 590.0029,335.4513 Q589.3638,335.6007 588.6582,335.6007 Q586.1514,335.6007 584.8315,333.9489 Q583.5117,332.297 583.5117,329.1759 Q583.5117,326.0465 584.8315,324.3947 Q586.1514,322.7428 588.6582,322.7428 Q589.3638,322.7428 590.0112,322.8922 Q590.6587,323.0416 591.2231,323.3405 L591.2231,326.0631 Q590.5923,325.4821 589.9988,325.2123 Q589.4053,324.9425 588.7744,324.9425 Q587.4297,324.9425 586.7449,326.0092 Q586.0601,327.0758 586.0601,329.1759 Q586.0601,331.2677 586.7449,332.3344 Q587.4297,333.401 588.7744,333.401 Q589.4053,333.401 589.9988,333.1312 Q590.5923,332.8615 591.2231,332.2804 Z " fill="#000000"/><text fill="#000000" font-family="sans-serif" font-size="14" lengthAdjust="spacing" textLength="147" x="609.25" y="334.151">ReferanseJournalpost</text><line style="stroke:#181818;stroke-width:0.5;" x1="483" x2="850" y1="344.86" y2="344.86"/><ellipse cx="493" cy="358.6041" fill="none" rx="3" ry="3" style="stroke:#038048;stroke-width:1.0;"/><text fill="#000000" font-family="sans-serif" font-size="14" lengthAdjust="spacing" textLength="108" x="502" y="362.3952">systemId: string</text><ellipse cx="493" cy="375.0924" fill="none" rx="3" ry="3" style="stroke:#038048;stroke-width:1.0;"/><text fill="#000000" font-family="sans-serif" font-size="14" lengthAdjust="spacing" textLength="150" x="502" y="378.8834">registreringsID: string</text><ellipse cx="493" cy="391.5807" fill="none" rx="3" ry="3" style="stroke:#038048;stroke-width:1.0;"/><text fill="#000000" font-family="sans-serif" font-size="14" lengthAdjust="spacing" textLength="222" x="502" y="395.3717">journalnummer: Journalnummer</text><ellipse cx="493" cy="408.069" fill="none" rx="3" ry="3" style="stroke:#038048;stroke-width:1.0;"/><text fill="#000000" font-family="sans-serif" font-size="14" lengthAdjust="spacing" textLength="343" x="502" y="411.86">saksJournalpostnummer: SaksJournalpostnummer</text><ellipse cx="493" cy="424.5573" fill="none" rx="3" ry="3" style="stroke:#038048;stroke-width:1.0;"/><text fill="#000000" font-family="sans-serif" font-size="14" lengthAdjust="spacing" textLength="285" x="502" y="428.3483">referanseEksternNoekkel: EksternNoekkel</text><line style="stroke:#181818;stroke-width:0.5;" x1="483" x2="850" y1="435.3014" y2="435.3014"/></g><!--class MilepelStatusEnum--><g id="elem_MilepelStatusEnum"><rect codeLine="60" fill="#F1F1F1" height="80.9766" id="MilepelStatusEnum" rx="2.5" ry="2.5" style="stroke:#181818;stroke-width:0.5;" width="162" x="886.5" y="337.6"/><ellipse cx="901.5" cy="353.6" fill="#EB937F" rx="11" ry="11" style="stroke:#181818;stroke-width:1.0;"/><path d="M905.1143,360.1 L897.3945,360.1 L897.3945,347.7069 L905.1143,347.7069 L905.1143,349.8651 L899.8433,349.8651 L899.8433,352.538 L904.6162,352.538 L904.6162,354.6962 L899.8433,354.6962 L899.8433,357.9418 L905.1143,357.9418 Z " fill="#000000"/><text fill="#000000" font-family="sans-serif" font-size="14" lengthAdjust="spacing" textLength="130" x="915.5" y="358.891">MilepelStatusEnum</text><line style="stroke:#181818;stroke-width:0.5;" x1="887.5" x2="1047.5" y1="369.6" y2="369.6"/><ellipse cx="897.5" cy="383.3441" fill="none" rx="3" ry="3" style="stroke:#038048;stroke-width:1.0;"/><text fill="#000000" font-family="sans-serif" font-size="14" lengthAdjust="spacing" textLength="36" x="906.5" y="387.1352">N&#229;dd</text><ellipse cx="897.5" cy="399.8324" fill="none" rx="3" ry="3" style="stroke:#038048;stroke-width:1.0;"/><text fill="#000000" font-family="sans-serif" font-size="14" lengthAdjust="spacing" textLength="55" x="906.5" y="403.6234">Planlagt</text><line style="stroke:#181818;stroke-width:0.5;" x1="887.5" x2="1047.5" y1="410.5766" y2="410.5766"/></g><!--class EksternNoekkel--><g id="elem_EksternNoekkel"><rect codeLine="55" fill="#F1F1F1" height="80.9766" id="EksternNoekkel" rx="2.5" ry="2.5" style="stroke:#181818;stroke-width:0.5;" width="143" x="374" y="511.55"/><ellipse cx="391.25" cy="527.55" fill="#ADD1B2" rx="11" ry="11" style="stroke:#181818;stroke-width:1.0;"/><path d="M393.7231,533.6931 Q393.1421,533.9919 392.5029,534.1413 Q391.8638,534.2907 391.1582,534.2907 Q388.6514,534.2907 387.3315,532.6389 Q386.0117,530.987 386.0117,527.8659 Q386.0117,524.7365 387.3315,523.0847 Q388.6514,521.4328 391.1582,521.4328 Q391.8638,521.4328 392.5112,521.5822 Q393.1587,521.7316 393.7231,522.0305 L393.7231,524.7531 Q393.0923,524.1721 392.4988,523.9023 Q391.9053,523.6325 391.2744,523.6325 Q389.9297,523.6325 389.2449,524.6992 Q388.5601,525.7658 388.5601,527.8659 Q388.5601,529.9577 389.2449,531.0244 Q389.9297,532.091 391.2744,532.091 Q391.9053,532.091 392.4988,531.8212 Q393.0923,531.5515 393.7231,530.9704 Z " fill="#000000"/><text fill="#000000" font-family="sans-serif" font-size="14" lengthAdjust="spacing" textLength="106" x="405.75" y="532.841">EksternNoekkel</text><line style="stroke:#181818;stroke-width:0.5;" x1="375" x2="516" y1="543.55" y2="543.55"/><ellipse cx="385" cy="557.2941" fill="none" rx="3" ry="3" style="stroke:#038048;stroke-width:1.0;"/><text fill="#000000" font-family="sans-serif" font-size="14" lengthAdjust="spacing" textLength="117" x="394" y="561.0852">fagsystem: string</text><ellipse cx="385" cy="573.7824" fill="none" rx="3" ry="3" style="stroke:#038048;stroke-width:1.0;"/><text fill="#000000" font-family="sans-serif" font-size="14" lengthAdjust="spacing" textLength="102" x="394" y="577.5734">noekkel: string</text><line style="stroke:#181818;stroke-width:0.5;" x1="375" x2="516" y1="584.5266" y2="584.5266"/></g><!--class SaksJournalpostnummer--><g id="elem_SaksJournalpostnummer"><rect codeLine="44" fill="#F1F1F1" height="97.4648" id="SaksJournalpostnummer" rx="2.5" ry="2.5" style="stroke:#181818;stroke-width:0.5;" width="230" x="551.5" y="503.31"/><ellipse cx="580" cy="519.31" fill="#ADD1B2" rx="11" ry="11" style="stroke:#181818;stroke-width:1.0;"/><path d="M582.4731,525.4531 Q581.8921,525.7519 581.2529,525.9013 Q580.6138,526.0507 579.9082,526.0507 Q577.4014,526.0507 576.0815,524.3989 Q574.7617,522.747 574.7617,519.6259 Q574.7617,516.4965 576.0815,514.8447 Q577.4014,513.1928 579.9082,513.1928 Q580.6138,513.1928 581.2612,513.3422 Q581.9087,513.4916 582.4731,513.7905 L582.4731,516.5131 Q581.8423,515.9321 581.2488,515.6623 Q580.6553,515.3925 580.0244,515.3925 Q578.6797,515.3925 577.9949,516.4592 Q577.3101,517.5258 577.3101,519.6259 Q577.3101,521.7177 577.9949,522.7844 Q578.6797,523.851 580.0244,523.851 Q580.6553,523.851 581.2488,523.5812 Q581.8423,523.3115 582.4731,522.7304 Z " fill="#000000"/><text fill="#000000" font-family="sans-serif" font-size="14" lengthAdjust="spacing" textLength="168" x="597" y="524.601">SaksJournalpostnummer</text><line style="stroke:#181818;stroke-width:0.5;" x1="552.5" x2="780.5" y1="535.31" y2="535.31"/><ellipse cx="562.5" cy="549.0541" fill="none" rx="3" ry="3" style="stroke:#038048;stroke-width:1.0;"/><text fill="#000000" font-family="sans-serif" font-size="14" lengthAdjust="spacing" textLength="114" x="571.5" y="552.8452">saksaar: number</text><ellipse cx="562.5" cy="565.5424" fill="none" rx="3" ry="3" style="stroke:#038048;stroke-width:1.0;"/><text fill="#000000" font-family="sans-serif" font-size="14" lengthAdjust="spacing" textLength="204" x="571.5" y="569.3334">sakssekvensnummer: number</text><ellipse cx="562.5" cy="582.0307" fill="none" rx="3" ry="3" style="stroke:#038048;stroke-width:1.0;"/><text fill="#000000" font-family="sans-serif" font-size="14" lengthAdjust="spacing" textLength="199" x="571.5" y="585.8217">journalpostnummer: number</text><line style="stroke:#181818;stroke-width:0.5;" x1="552.5" x2="780.5" y1="592.7748" y2="592.7748"/></g><!--class Journalnummer--><g id="elem_Journalnummer"><rect codeLine="50" fill="#F1F1F1" height="80.9766" id="Journalnummer" rx="2.5" ry="2.5" style="stroke:#181818;stroke-width:0.5;" width="249" x="816" y="511.55"/><ellipse cx="882.75" cy="527.55" fill="#ADD1B2" rx="11" ry="11" style="stroke:#181818;stroke-width:1.0;"/><path d="M885.2231,533.6931 Q884.6421,533.9919 884.0029,534.1413 Q883.3638,534.2907 882.6582,534.2907 Q880.1514,534.2907 878.8315,532.6389 Q877.5117,530.987 877.5117,527.8659 Q877.5117,524.7365 878.8315,523.0847 Q880.1514,521.4328 882.6582,521.4328 Q883.3638,521.4328 884.0112,521.5822 Q884.6587,521.7316 885.2231,522.0305 L885.2231,524.7531 Q884.5923,524.1721 883.9988,523.9023 Q883.4053,523.6325 882.7744,523.6325 Q881.4297,523.6325 880.7449,524.6992 Q880.0601,525.7658 880.0601,527.8659 Q880.0601,529.9577 880.7449,531.0244 Q881.4297,532.091 882.7744,532.091 Q883.4053,532.091 883.9988,531.8212 Q884.5923,531.5515 885.2231,530.9704 Z " fill="#000000"/><text fill="#000000" font-family="sans-serif" font-size="14" lengthAdjust="spacing" textLength="107" x="903.25" y="532.841">Journalnummer</text><line style="stroke:#181818;stroke-width:0.5;" x1="817" x2="1064" y1="543.55" y2="543.55"/><ellipse cx="827" cy="557.2941" fill="none" rx="3" ry="3" style="stroke:#038048;stroke-width:1.0;"/><text fill="#000000" font-family="sans-serif" font-size="14" lengthAdjust="spacing" textLength="133" x="836" y="561.0852">journalaar: number</text><ellipse cx="827" cy="573.7824" fill="none" rx="3" ry="3" style="stroke:#038048;stroke-width:1.0;"/><text fill="#000000" font-family="sans-serif" font-size="14" lengthAdjust="spacing" textLength="223" x="836" y="577.5734">journalsekvensnummer: number</text><line style="stroke:#181818;stroke-width:0.5;" x1="817" x2="1064" y1="584.5266" y2="584.5266"/></g><!--link Milepel to Milepeltype--><g id="link_Milepel_Milepeltype"><path codeLine="17" d="M386.62,223.4 C336.49,251.98 281.17,283.63 230.5,312.86 C216.9,320.71 202.38,329.15 188.5,337.24 " fill="none" id="Milepel-Milepeltype" style="stroke:#181818;stroke-width:1.0;"/></g><!--link Milepel to ReferanseJournalpost--><g id="link_Milepel_ReferanseJournalpost"><path codeLine="29" d="M607.66,253.29 C617.41,273.8 627.17,294.34 635.86,312.62 " fill="none" id="Milepel-ReferanseJournalpost" style="stroke:#181818;stroke-width:1.0;"/></g><!--link Milepel to MilepelStatusEnum--><g id="link_Milepel_MilepelStatusEnum"><path codeLine="39" d="M712.42,221.48 C762.81,250.11 818.26,282.28 868.5,312.86 C881.1,320.53 894.44,328.97 907.11,337.13 " fill="none" id="Milepel-MilepelStatusEnum" style="stroke:#181818;stroke-width:1.0;"/></g><!--link ReferanseJournalpost to EksternNoekkel--><g id="link_ReferanseJournalpost_EksternNoekkel"><path codeLine="40" d="M583.58,443.6 C554.43,466.28 522.54,491.09 496.76,511.15 " fill="none" id="ReferanseJournalpost-EksternNoekkel" style="stroke:#181818;stroke-width:1.0;"/></g><!--link ReferanseJournalpost to SaksJournalpostnummer--><g id="link_ReferanseJournalpost_SaksJournalpostnummer"><path codeLine="41" d="M666.5,443.6 C666.5,463.23 666.5,484.46 666.5,502.82 " fill="none" id="ReferanseJournalpost-SaksJournalpostnummer" style="stroke:#181818;stroke-width:1.0;"/></g><!--link ReferanseJournalpost to Journalnummer--><g id="link_ReferanseJournalpost_Journalnummer"><path codeLine="42" d="M769.31,443.6 C805.45,466.28 844.98,491.09 876.94,511.15 " fill="none" id="ReferanseJournalpost-Journalnummer" style="stroke:#181818;stroke-width:1.0;"/></g><!--SRC=[VLJ1Jkim4BpdAtnyJuWVo16144W5zCgHYqisaMl7ZhoRI0ZnEVm3z_uOcyOkTcfUJ_7iU7OzE-ghaOXYemmCOCHx9VXtWMz8qDyrjK3oodOBkWFKNarW4FA2bWITywgEElGsm59glKAgHSEC1HYfTU0pQ33I6jdHip8fh2o1jxNOEMT0sWNqq8AN5k7UZTvACxXP_by1NV6ldHvxi2avGgqo2ndybkGyMzQIKJFI6aMIDEBfnTlZySQEVVLHLT7EoylCaSew0a5k4AvD2w8MDngX7mpuMhpOAq1Inh2_Gax23GFEOs5_-EBhVwuU_xxOsprOw_hsyENfZF6uOSR64Kaz2yp-jiuZUnn6s77DzSaKjJWkIhXEX0K9fJM8uV2fFKnDLLMlQL2EKuUmQDV01BvHgr0mN4fCRaznSw5NgVR_X7he-1KUPWJlhlFYVb7X5VMppVVfCOXAZKcloDoMu5MyU7zpMXySi6tckC_aNCv4afdYKvcvalcDLfxmDtR-yc1sKUBaDXUbP2iOtgLk8UW9B4QdqlB-tCXG_eWziq5Yht3lh5t0onrFahbXKRELtHAOF14sRkidci22v_k9EW-7pwPPFf_2dnPV-WO0]--></g></svg>