<svg xmlns="http://www.w3.org/2000/svg" xmlns:xlink="http://www.w3.org/1999/xlink" contentStyleType="text/css" data-diagram-type="CLASS" height="641px" preserveAspectRatio="none" style="width:845px;height:641px;background:#FFFFFF;" version="1.1" viewBox="0 0 845 641" width="845px" zoomAndPan="magnify"><defs/><g><!--class EksternNoekkel--><g id="elem_EksternNoekkel"><rect codeLine="2" fill="#F1F1F1" height="80.9766" id="EksternNoekkel" rx="2.5" ry="2.5" style="stroke:#181818;stroke-width:0.5;" width="143.7285" x="129.55" y="545.21"/><ellipse cx="147.4363" cy="561.21" fill="#ADD1B2" rx="11" ry="11" style="stroke:#181818;stroke-width:1;"/><path d="M149.9095,567.3531 Q149.3284,567.6519 148.6893,567.8013 Q148.0501,567.9507 147.3445,567.9507 Q144.8377,567.9507 143.5179,566.2989 Q142.198,564.647 142.198,561.5259 Q142.198,558.3965 143.5179,556.7447 Q144.8377,555.0928 147.3445,555.0928 Q148.0501,555.0928 148.6976,555.2422 Q149.345,555.3916 149.9095,555.6905 L149.9095,558.4131 Q149.2786,557.8321 148.6851,557.5623 Q148.0916,557.2925 147.4607,557.2925 Q146.116,557.2925 145.4312,558.3592 Q144.7464,559.4258 144.7464,561.5259 Q144.7464,563.6177 145.4312,564.6844 Q146.116,565.751 147.4607,565.751 Q148.0916,565.751 148.6851,565.4812 Q149.2786,565.2115 149.9095,564.6304 Z " fill="#000000"/><text fill="#000000" font-family="sans-serif" font-size="14" lengthAdjust="spacing" textLength="105.3145" x="162.0777" y="566.501">EksternNoekkel</text><line style="stroke:#181818;stroke-width:0.5;" x1="130.55" x2="272.2785" y1="577.21" y2="577.21"/><ellipse cx="140.55" cy="590.9541" fill="#000000" rx="3" ry="3" style="stroke:#000000;stroke-width:1;"/><text fill="#000000" font-family="sans-serif" font-size="14" lengthAdjust="spacing" textLength="117.7285" x="149.55" y="594.7452">fagsystem: string</text><ellipse cx="140.55" cy="607.4424" fill="#000000" rx="3" ry="3" style="stroke:#000000;stroke-width:1;"/><text fill="#000000" font-family="sans-serif" font-size="14" lengthAdjust="spacing" textLength="101.7256" x="149.55" y="611.2334">noekkel: string</text><line style="stroke:#181818;stroke-width:0.5;" x1="130.55" x2="272.2785" y1="618.1866" y2="618.1866"/></g><!--class Journalnummer--><g id="elem_Journalnummer"><rect codeLine="2" fill="#F1F1F1" height="80.9766" id="Journalnummer" rx="2.5" ry="2.5" style="stroke:#181818;stroke-width:0.5;" width="241.667" x="308.58" y="545.21"/><ellipse cx="372.7216" cy="561.21" fill="#ADD1B2" rx="11" ry="11" style="stroke:#181818;stroke-width:1;"/><path d="M375.1947,567.3531 Q374.6137,567.6519 373.9745,567.8013 Q373.3354,567.9507 372.6298,567.9507 Q370.123,567.9507 368.8031,566.2989 Q367.4833,564.647 367.4833,561.5259 Q367.4833,558.3965 368.8031,556.7447 Q370.123,555.0928 372.6298,555.0928 Q373.3354,555.0928 373.9828,555.2422 Q374.6303,555.3916 375.1947,555.6905 L375.1947,558.4131 Q374.5639,557.8321 373.9704,557.5623 Q373.3769,557.2925 372.746,557.2925 Q371.4013,557.2925 370.7165,558.3592 Q370.0317,559.4258 370.0317,561.5259 Q370.0317,563.6177 370.7165,564.6844 Q371.4013,565.751 372.746,565.751 Q373.3769,565.751 373.9704,565.4812 Q374.5639,565.2115 375.1947,564.6304 Z " fill="#000000"/><text fill="#000000" font-family="sans-serif" font-size="14" lengthAdjust="spacing" textLength="104.8838" x="393.2216" y="566.501">Journalnummer</text><line style="stroke:#181818;stroke-width:0.5;" x1="309.58" x2="549.247" y1="577.21" y2="577.21"/><ellipse cx="319.58" cy="590.9541" fill="#000000" rx="3" ry="3" style="stroke:#000000;stroke-width:1;"/><text fill="#000000" font-family="sans-serif" font-size="14" lengthAdjust="spacing" textLength="125.8223" x="328.58" y="594.7452">journalaar: integer</text><ellipse cx="319.58" cy="607.4424" fill="#000000" rx="3" ry="3" style="stroke:#000000;stroke-width:1;"/><text fill="#000000" font-family="sans-serif" font-size="14" lengthAdjust="spacing" textLength="215.667" x="328.58" y="611.2334">journalsekvensnummer: integer</text><line style="stroke:#181818;stroke-width:0.5;" x1="309.58" x2="549.247" y1="618.1866" y2="618.1866"/></g><!--class ReferanseJournalpost--><g id="elem_ReferanseJournalpost"><rect codeLine="2" fill="#F1F1F1" height="130.4414" id="ReferanseJournalpost" rx="2.5" ry="2.5" style="stroke:#181818;stroke-width:0.5;" width="350.9736" x="253.93" y="346.52"/><ellipse cx="353.0135" cy="362.52" fill="#ADD1B2" rx="11" ry="11" style="stroke:#181818;stroke-width:1;"/><path d="M355.4866,368.6631 Q354.9056,368.9619 354.2664,369.1113 Q353.6273,369.2607 352.9217,369.2607 Q350.4149,369.2607 349.095,367.6089 Q347.7752,365.957 347.7752,362.8359 Q347.7752,359.7065 349.095,358.0547 Q350.4149,356.4028 352.9217,356.4028 Q353.6273,356.4028 354.2747,356.5522 Q354.9222,356.7016 355.4866,357.0005 L355.4866,359.7231 Q354.8558,359.1421 354.2623,358.8723 Q353.6688,358.6025 353.0379,358.6025 Q351.6932,358.6025 351.0084,359.6692 Q350.3236,360.7358 350.3236,362.8359 Q350.3236,364.9277 351.0084,365.9944 Q351.6932,367.061 353.0379,367.061 Q353.6688,367.061 354.2623,366.7912 Q354.8558,366.5215 355.4866,365.9404 Z " fill="#000000"/><text fill="#000000" font-family="sans-serif" font-size="14" lengthAdjust="spacing" textLength="144.3066" x="373.5135" y="367.811">ReferanseJournalpost</text><line style="stroke:#181818;stroke-width:0.5;" x1="254.93" x2="603.9036" y1="378.52" y2="378.52"/><text fill="#000000" font-family="sans-serif" font-size="14" lengthAdjust="spacing" textLength="108.9648" x="259.93" y="396.0552">systemId: string</text><text fill="#000000" font-family="sans-serif" font-size="14" lengthAdjust="spacing" textLength="149.4814" x="259.93" y="412.5434">registreringsID: string</text><text fill="#000000" font-family="sans-serif" font-size="14" lengthAdjust="spacing" textLength="218.5313" x="259.93" y="429.0317">journalnummer: Journalnummer</text><text fill="#000000" font-family="sans-serif" font-size="14" lengthAdjust="spacing" textLength="338.9736" x="259.93" y="445.52">saksJournalpostnummer: SaksJournalpostnummer</text><text fill="#000000" font-family="sans-serif" font-size="14" lengthAdjust="spacing" textLength="283.0488" x="259.93" y="462.0083">referanseEksternNoekkel: EksternNoekkel</text><line style="stroke:#181818;stroke-width:0.5;" x1="254.93" x2="603.9036" y1="468.9614" y2="468.9614"/></g><!--class SaksJournalpostnummer--><g id="elem_SaksJournalpostnummer"><rect codeLine="2" fill="#F1F1F1" height="97.4648" id="SaksJournalpostnummer" rx="2.5" ry="2.5" style="stroke:#181818;stroke-width:0.5;" width="224.1123" x="585.36" y="536.97"/><ellipse cx="612.4441" cy="552.97" fill="#ADD1B2" rx="11" ry="11" style="stroke:#181818;stroke-width:1;"/><path d="M614.9172,559.1131 Q614.3362,559.4119 613.697,559.5613 Q613.0579,559.7107 612.3523,559.7107 Q609.8454,559.7107 608.5256,558.0589 Q607.2058,556.407 607.2058,553.2859 Q607.2058,550.1565 608.5256,548.5047 Q609.8454,546.8528 612.3523,546.8528 Q613.0579,546.8528 613.7053,547.0022 Q614.3528,547.1516 614.9172,547.4505 L614.9172,550.1731 Q614.2864,549.5921 613.6929,549.3223 Q613.0994,549.0525 612.4685,549.0525 Q611.1238,549.0525 610.439,550.1192 Q609.7541,551.1858 609.7541,553.2859 Q609.7541,555.3777 610.439,556.4444 Q611.1238,557.511 612.4685,557.511 Q613.0994,557.511 613.6929,557.2412 Q614.2864,556.9715 614.9172,556.3904 Z " fill="#000000"/><text fill="#000000" font-family="sans-serif" font-size="14" lengthAdjust="spacing" textLength="165.2588" x="629.1294" y="558.261">SaksJournalpostnummer</text><line style="stroke:#181818;stroke-width:0.5;" x1="586.36" x2="808.4723" y1="568.97" y2="568.97"/><ellipse cx="596.36" cy="582.7141" fill="#000000" rx="3" ry="3" style="stroke:#000000;stroke-width:1;"/><text fill="#000000" font-family="sans-serif" font-size="14" lengthAdjust="spacing" textLength="108.2676" x="605.36" y="586.5052">saksaar: integer</text><ellipse cx="596.36" cy="599.2024" fill="#000000" rx="3" ry="3" style="stroke:#000000;stroke-width:1;"/><text fill="#000000" font-family="sans-serif" font-size="14" lengthAdjust="spacing" textLength="198.1123" x="605.36" y="602.9934">sakssekvensnummer: integer</text><ellipse cx="596.36" cy="615.6907" fill="#000000" rx="3" ry="3" style="stroke:#000000;stroke-width:1;"/><text fill="#000000" font-family="sans-serif" font-size="14" lengthAdjust="spacing" textLength="191.4609" x="605.36" y="619.4817">journalpostnummer: integer</text><line style="stroke:#181818;stroke-width:0.5;" x1="586.36" x2="808.4723" y1="626.4348" y2="626.4348"/></g><!--class Milepel--><g id="elem_Milepel"><rect codeLine="7" fill="#F1F1F1" height="179.9063" id="Milepel" rx="2.5" ry="2.5" style="stroke:#181818;stroke-width:0.5;" width="320.3486" x="272.24" y="106.62"/><ellipse cx="403.8591" cy="122.62" fill="#ADD1B2" rx="11" ry="11" style="stroke:#181818;stroke-width:1;"/><path d="M406.3323,128.7631 Q405.7512,129.0619 405.1121,129.2113 Q404.4729,129.3607 403.7673,129.3607 Q401.2605,129.3607 399.9407,127.7089 Q398.6209,126.057 398.6209,122.9359 Q398.6209,119.8065 399.9407,118.1547 Q401.2605,116.5028 403.7673,116.5028 Q404.4729,116.5028 405.1204,116.6522 Q405.7678,116.8016 406.3323,117.1005 L406.3323,119.8231 Q405.7014,119.2421 405.1079,118.9723 Q404.5144,118.7025 403.8836,118.7025 Q402.5388,118.7025 401.854,119.7692 Q401.1692,120.8358 401.1692,122.9359 Q401.1692,125.0277 401.854,126.0944 Q402.5388,127.161 403.8836,127.161 Q404.5144,127.161 405.1079,126.8912 Q405.7014,126.6215 406.3323,126.0404 Z " fill="#000000"/><text fill="#000000" font-family="sans-serif" font-size="14" lengthAdjust="spacing" textLength="48.6104" x="424.3591" y="127.911">Milepel</text><line style="stroke:#181818;stroke-width:0.5;" x1="273.24" x2="591.5886" y1="138.62" y2="138.62"/><ellipse cx="283.24" cy="152.3641" fill="#000000" rx="3" ry="3" style="stroke:#000000;stroke-width:1;"/><text fill="#000000" font-family="sans-serif" font-size="14" lengthAdjust="spacing" textLength="110.8926" x="292.24" y="156.1552">milepelId: string</text><ellipse cx="283.24" cy="168.8524" fill="#000000" rx="3" ry="3" style="stroke:#000000;stroke-width:1;"/><text fill="#000000" font-family="sans-serif" font-size="14" lengthAdjust="spacing" textLength="124.1611" x="292.24" y="172.6434">beskrivelse: string</text><text fill="#000000" font-family="sans-serif" font-size="14" lengthAdjust="spacing" textLength="165.416" x="292.24" y="189.1317">milepeltype: Milepeltype</text><text fill="#000000" font-family="sans-serif" font-size="14" lengthAdjust="spacing" textLength="65.7344" x="292.24" y="205.62">frist: date</text><text fill="#000000" font-family="sans-serif" font-size="14" lengthAdjust="spacing" textLength="84.875" x="292.24" y="222.1083">utfoert: date</text><text fill="#000000" font-family="sans-serif" font-size="14" lengthAdjust="spacing" textLength="140.9092" x="292.24" y="238.5966">planlagtUtfoert: date</text><ellipse cx="283.24" cy="251.2938" fill="#000000" rx="3" ry="3" style="stroke:#000000;stroke-width:1;"/><text fill="#000000" font-family="sans-serif" font-size="14" lengthAdjust="spacing" textLength="103.3252" x="292.24" y="255.0848">intern: boolean</text><text fill="#000000" font-family="sans-serif" font-size="14" lengthAdjust="spacing" textLength="294.3486" x="292.24" y="271.5731">referanseJournalpost: ReferanseJournalpost</text><line style="stroke:#181818;stroke-width:0.5;" x1="273.24" x2="591.5886" y1="278.5263" y2="278.5263"/></g><g id="elem_GMN7"><path d="M207.82,6 L207.82,46.6211 A0,0 0 0 0 207.82,46.6211 L428.41,46.6211 L432.41,106.49 L436.41,46.6211 L657.0012,46.6211 A0,0 0 0 0 657.0012,46.6211 L657.0012,16 L647.0012,6 L207.82,6 A0,0 0 0 0 207.82,6 " fill="#FEFFDD" style="stroke:#181818;stroke-width:0.5;"/><path d="M647.0012,6 L647.0012,16 L657.0012,16 L647.0012,6 " fill="#FEFFDD" style="stroke:#181818;stroke-width:0.5;"/><text fill="#000000" font-family="sans-serif" font-size="13" lengthAdjust="spacing" textLength="333.4741" x="213.82" y="23.5684">planlagtUtfoert er hvis man har laget en milepel plan</text><text fill="#000000" font-family="sans-serif" font-size="13" lengthAdjust="spacing" textLength="428.1812" x="213.82" y="38.8789">s&#229; kan man sette denne datoen for n&#229;r det er planlagt &#229; v&#230;re ferdig</text></g><!--class Milepeltype--><g id="elem_Milepeltype"><rect codeLine="27" fill="#F1F1F1" height="80.9766" id="Milepeltype" rx="2.5" ry="2.5" style="stroke:#181818;stroke-width:0.5;" width="183.5547" x="33.64" y="371.26"/><ellipse cx="82.2811" cy="387.26" fill="#ADD1B2" rx="11" ry="11" style="stroke:#181818;stroke-width:1;"/><path d="M84.7543,393.4031 Q84.1732,393.7019 83.534,393.8513 Q82.8949,394.0007 82.1893,394.0007 Q79.6825,394.0007 78.3627,392.3489 Q77.0428,390.697 77.0428,387.5759 Q77.0428,384.4465 78.3627,382.7947 Q79.6825,381.1428 82.1893,381.1428 Q82.8949,381.1428 83.5423,381.2922 Q84.1898,381.4416 84.7543,381.7405 L84.7543,384.4631 Q84.1234,383.8821 83.5299,383.6123 Q82.9364,383.3425 82.3055,383.3425 Q80.9608,383.3425 80.276,384.4092 Q79.5912,385.4758 79.5912,387.5759 Q79.5912,389.6677 80.276,390.7344 Q80.9608,391.801 82.3055,391.801 Q82.9364,391.801 83.5299,391.5312 Q84.1234,391.2615 84.7543,390.6804 Z " fill="#000000"/><text fill="#000000" font-family="sans-serif" font-size="14" lengthAdjust="spacing" textLength="77.7725" x="102.7811" y="392.551">Milepeltype</text><line style="stroke:#181818;stroke-width:0.5;" x1="34.64" x2="216.1947" y1="403.26" y2="403.26"/><ellipse cx="44.64" cy="417.0041" fill="#FFFFFF" fill-opacity="0.00000" rx="3" ry="3" style="stroke:#038048;stroke-width:1;"/><text fill="#000000" font-family="sans-serif" font-size="14" lengthAdjust="spacing" textLength="115.4521" x="53.64" y="420.7952">kodeverdi: string</text><ellipse cx="44.64" cy="433.4924" fill="#FFFFFF" fill-opacity="0.00000" rx="3" ry="3" style="stroke:#038048;stroke-width:1;"/><text fill="#000000" font-family="sans-serif" font-size="14" lengthAdjust="spacing" textLength="157.5547" x="53.64" y="437.2834">kodebeskrivelse: string</text><line style="stroke:#181818;stroke-width:0.5;" x1="34.64" x2="216.1947" y1="444.2366" y2="444.2366"/></g><g id="elem_GMN12"><path d="M6,160.95 L6,232.1922 A0,0 0 0 0 6,232.1922 L118.07,232.1922 L124.67,370.95 L126.07,232.1922 L236.8281,232.1922 A0,0 0 0 0 236.8281,232.1922 L236.8281,170.95 L226.8281,160.95 L6,160.95 A0,0 0 0 0 6,160.95 " fill="#FEFFDD" style="stroke:#181818;stroke-width:0.5;"/><path d="M226.8281,160.95 L226.8281,170.95 L236.8281,170.95 L226.8281,160.95 " fill="#FEFFDD" style="stroke:#181818;stroke-width:0.5;"/><text fill="#000000" font-family="sans-serif" font-size="13" lengthAdjust="spacing" textLength="69.2656" x="12" y="178.5184">Eksempler:</text><text fill="#000000" font-family="sans-serif" font-size="13" lengthAdjust="spacing" textLength="201.7476" x="12" y="193.8289">Bestilling av oppstartsm&#248;te (BO)</text><text fill="#000000" font-family="sans-serif" font-size="13" lengthAdjust="spacing" textLength="209.8281" x="12" y="209.1395">Gjennomf&#248;rt oppstartsm&#248;te (OM)</text><text fill="#000000" font-family="sans-serif" font-size="13" lengthAdjust="spacing" textLength="136.7603" x="12" y="224.45">Mottak av planforslag</text></g><g id="elem_GMN15"><path d="M640.09,399.09 L640.09,424.4005 A0,0 0 0 0 640.09,424.4005 L838.7292,424.4005 A0,0 0 0 0 838.7292,424.4005 L838.7292,409.09 L828.7292,399.09 L726.37,399.09 L560.83,286.74 L718.37,399.09 L640.09,399.09 A0,0 0 0 0 640.09,399.09 " fill="#FEFFDD" style="stroke:#181818;stroke-width:0.5;"/><path d="M828.7292,399.09 L828.7292,409.09 L838.7292,409.09 L828.7292,399.09 " fill="#FEFFDD" style="stroke:#181818;stroke-width:0.5;"/><text fill="#000000" font-family="sans-serif" font-size="13" lengthAdjust="spacing" textLength="177.6392" x="646.09" y="416.6584">frist og utfoert ikke p&#229;krevd</text></g><!--link Milepel to Milepeltype--><g id="link_Milepel_Milepeltype"><path codeLine="20" d="M304,286.74 C261.77,316.06 216.94,347.19 182.76,370.93 " fill="#FFFFFF" fill-opacity="0.00000" id="Milepel-Milepeltype" style="stroke:#181818;stroke-width:1;"/></g><!--link Milepel to ReferanseJournalpost--><g id="link_Milepel_ReferanseJournalpost"><path codeLine="32" d="M431.16,286.74 C430.88,306.71 430.59,327.51 430.32,346.25 " fill="#FFFFFF" fill-opacity="0.00000" id="Milepel-ReferanseJournalpost" style="stroke:#181818;stroke-width:1;"/></g><!--link ReferanseJournalpost to EksternNoekkel--><g id="link_ReferanseJournalpost_EksternNoekkel"><path codeLine="34" d="M343.87,477.26 C313.79,499.94 280.9,524.75 254.3,544.81 " fill="#FFFFFF" fill-opacity="0.00000" id="ReferanseJournalpost-EksternNoekkel" style="stroke:#181818;stroke-width:1;"/></g><!--link ReferanseJournalpost to SaksJournalpostnummer--><g id="link_ReferanseJournalpost_SaksJournalpostnummer"><path codeLine="35" d="M529.97,477.26 C560.57,496.89 593.65,518.12 622.26,536.48 " fill="#FFFFFF" fill-opacity="0.00000" id="ReferanseJournalpost-SaksJournalpostnummer" style="stroke:#181818;stroke-width:1;"/></g><!--link ReferanseJournalpost to Journalnummer--><g id="link_ReferanseJournalpost_Journalnummer"><path codeLine="36" d="M429.41,477.26 C429.41,499.94 429.41,524.75 429.41,544.81 " fill="#FFFFFF" fill-opacity="0.00000" id="ReferanseJournalpost-Journalnummer" style="stroke:#181818;stroke-width:1;"/></g><!--SRC=[fLF1Rjim3BthAzXRrw4ETlMnG34iG5QWmswzA3Njgf8fWPGD34C_9_k6tlrZe-saJRBaCDG7mNfyUdeKoGj7Zw6h48f5KIme5bwAskaYrajj1RdelnGrXe1Ie9UCJ1JHUmoBns15AcSRjcsHEdFnFrhFiMEoWRgsHVwO56EDR4bmgvcYv8yfZjYUs1cJnam8h5p0X05-6z3lgfsttweI9BEZPeRNA9vTZq7m8B2bvrz9yTNxPWhMx2INKDayxxjSH-Hz90LBmJRvvp-HAqTZjKfOnnZGqWI-lTNoFRqIxa-WviKOYXaXnmInVikoFBuIaE6fTmAj9NYo31f3HMcNsdG07aY63NZz6tc2MQKh9CBHSLHs7HbesB2Ya-Rk6j1Z_V274THavHfZTbQkhmyUx9JTCQ2MRxrWcm9ogJvkKB8BGGi0jeUOacJBMThXLOzVtjnzUg2lp-eijlNmglaTC-vMobZ5dAqV1KQVwbtKwzR2McEntNDHpeM4sEmg24v72DAmyOnzTTnAa-kvdJxxM64_9dxGDHDyggLU3fxdP67DANHatyxp_NsUxxEq7peTo-FfECjUxW-w9leN]--></g></svg>