<svg xmlns="http://www.w3.org/2000/svg" xmlns:xlink="http://www.w3.org/1999/xlink" contentStyleType="text/css" height="400px" preserveAspectRatio="none" style="width:296px;height:400px;background:#FFFFFF;" version="1.1" viewBox="0 0 296 400" width="296px" zoomAndPan="magnify"><defs/><g><!--class Milepel--><g id="elem_Milepel"><rect codeLine="2" fill="#F1F1F1" height="245.8594" id="Milepel" rx="2.5" ry="2.5" style="stroke:#181818;stroke-width:0.5;" width="218" x="69" y="7"/><ellipse cx="149.25" cy="23" fill="#ADD1B2" rx="11" ry="11" style="stroke:#181818;stroke-width:1.0;"/><path d="M151.7231,29.1431 Q151.1421,29.4419 150.5029,29.5913 Q149.8638,29.7407 149.1582,29.7407 Q146.6514,29.7407 145.3315,28.0889 Q144.0117,26.437 144.0117,23.3159 Q144.0117,20.1865 145.3315,18.5347 Q146.6514,16.8828 149.1582,16.8828 Q149.8638,16.8828 150.5112,17.0322 Q151.1587,17.1816 151.7231,17.4805 L151.7231,20.2031 Q151.0923,19.6221 150.4988,19.3523 Q149.9053,19.0825 149.2744,19.0825 Q147.9297,19.0825 147.2449,20.1492 Q146.5601,21.2158 146.5601,23.3159 Q146.5601,25.4077 147.2449,26.4744 Q147.9297,27.541 149.2744,27.541 Q149.9053,27.541 150.4988,27.2712 Q151.0923,27.0015 151.7231,26.4204 Z " fill="#000000"/><text fill="#000000" font-family="sans-serif" font-size="14" lengthAdjust="spacing" textLength="49" x="169.75" y="28.291">Milepel</text><line style="stroke:#181818;stroke-width:0.5;" x1="70" x2="286" y1="39" y2="39"/><ellipse cx="80" cy="52.7441" fill="none" rx="3" ry="3" style="stroke:#038048;stroke-width:1.0;"/><text fill="#000000" font-family="sans-serif" font-size="14" lengthAdjust="spacing" textLength="108" x="89" y="56.5352">systemId: string</text><ellipse cx="80" cy="69.2324" fill="none" rx="3" ry="3" style="stroke:#038048;stroke-width:1.0;"/><text fill="#000000" font-family="sans-serif" font-size="14" lengthAdjust="spacing" textLength="124" x="89" y="73.0234">beskrivelse: string</text><ellipse cx="80" cy="85.7207" fill="none" rx="3" ry="3" style="stroke:#038048;stroke-width:1.0;"/><text fill="#000000" font-family="sans-serif" font-size="14" lengthAdjust="spacing" textLength="100" x="89" y="89.5117">kategori: Kode</text><ellipse cx="80" cy="102.209" fill="none" rx="3" ry="3" style="stroke:#038048;stroke-width:1.0;"/><text fill="#000000" font-family="sans-serif" font-size="14" lengthAdjust="spacing" textLength="69" x="89" y="106">frist: date,</text><ellipse cx="80" cy="118.6973" fill="none" rx="3" ry="3" style="stroke:#038048;stroke-width:1.0;"/><text fill="#000000" font-family="sans-serif" font-size="14" lengthAdjust="spacing" textLength="85" x="89" y="122.4883">utfoert: date</text><ellipse cx="80" cy="135.1855" fill="none" rx="3" ry="3" style="stroke:#038048;stroke-width:1.0;"/><text fill="#000000" font-family="sans-serif" font-size="14" lengthAdjust="spacing" textLength="118" x="89" y="138.9766">journaldato: date</text><ellipse cx="80" cy="151.6738" fill="none" rx="3" ry="3" style="stroke:#038048;stroke-width:1.0;"/><text fill="#000000" font-family="sans-serif" font-size="14" lengthAdjust="spacing" textLength="105" x="89" y="155.4648">intern: boolean</text><ellipse cx="80" cy="168.1621" fill="none" rx="3" ry="3" style="stroke:#038048;stroke-width:1.0;"/><text fill="#000000" font-family="sans-serif" font-size="14" lengthAdjust="spacing" textLength="192" x="89" y="171.9531">referanseJournalpost: string</text><ellipse cx="80" cy="184.6504" fill="none" rx="3" ry="3" style="stroke:#038048;stroke-width:1.0;"/><text fill="#000000" font-family="sans-serif" font-size="14" lengthAdjust="spacing" textLength="184" x="89" y="188.4414">referanseDokument: string</text><ellipse cx="80" cy="201.1387" fill="none" rx="3" ry="3" style="stroke:#038048;stroke-width:1.0;"/><text fill="#000000" font-family="sans-serif" font-size="14" lengthAdjust="spacing" textLength="67" x="89" y="204.9297">fase: Fase</text><ellipse cx="80" cy="217.627" fill="none" rx="3" ry="3" style="stroke:#038048;stroke-width:1.0;"/><text fill="#000000" font-family="sans-serif" font-size="14" lengthAdjust="spacing" textLength="147" x="89" y="221.418">faseFoerMilepel: Fase</text><ellipse cx="80" cy="234.1152" fill="none" rx="3" ry="3" style="stroke:#038048;stroke-width:1.0;"/><text fill="#000000" font-family="sans-serif" font-size="14" lengthAdjust="spacing" textLength="148" x="89" y="237.9063">faseEtterMilepel: Fase</text><line style="stroke:#181818;stroke-width:0.5;" x1="70" x2="286" y1="244.8594" y2="244.8594"/></g><!--class Kode--><g id="elem_Kode"><rect codeLine="20" fill="#F1F1F1" height="80.9766" id="Kode" rx="2.5" ry="2.5" style="stroke:#181818;stroke-width:0.5;" width="184" x="7" y="312.86"/><ellipse cx="77.25" cy="328.86" fill="#ADD1B2" rx="11" ry="11" style="stroke:#181818;stroke-width:1.0;"/><path d="M79.7231,335.0031 Q79.1421,335.3019 78.5029,335.4513 Q77.8638,335.6007 77.1582,335.6007 Q74.6514,335.6007 73.3315,333.9489 Q72.0117,332.297 72.0117,329.1759 Q72.0117,326.0465 73.3315,324.3947 Q74.6514,322.7428 77.1582,322.7428 Q77.8638,322.7428 78.5112,322.8922 Q79.1587,323.0416 79.7231,323.3405 L79.7231,326.0631 Q79.0923,325.4821 78.4988,325.2123 Q77.9053,324.9425 77.2744,324.9425 Q75.9297,324.9425 75.2449,326.0092 Q74.5601,327.0758 74.5601,329.1759 Q74.5601,331.2677 75.2449,332.3344 Q75.9297,333.401 77.2744,333.401 Q77.9053,333.401 78.4988,333.1312 Q79.0923,332.8615 79.7231,332.2804 Z " fill="#000000"/><text fill="#000000" font-family="sans-serif" font-size="14" lengthAdjust="spacing" textLength="35" x="97.75" y="334.151">Kode</text><line style="stroke:#181818;stroke-width:0.5;" x1="8" x2="190" y1="344.86" y2="344.86"/><ellipse cx="18" cy="358.6041" fill="none" rx="3" ry="3" style="stroke:#038048;stroke-width:1.0;"/><text fill="#000000" font-family="sans-serif" font-size="14" lengthAdjust="spacing" textLength="116" x="27" y="362.3952">kodeverdi: string</text><ellipse cx="18" cy="375.0924" fill="none" rx="3" ry="3" style="stroke:#038048;stroke-width:1.0;"/><text fill="#000000" font-family="sans-serif" font-size="14" lengthAdjust="spacing" textLength="158" x="27" y="378.8834">kodebeskrivelse: string</text><line style="stroke:#181818;stroke-width:0.5;" x1="8" x2="190" y1="385.8366" y2="385.8366"/></g><!--class Fase--><g id="elem_Fase"><rect fill="#F1F1F1" height="48" id="Fase" rx="2.5" ry="2.5" style="stroke:#181818;stroke-width:0.5;" width="63" x="226.5" y="329.35"/><ellipse cx="241.5" cy="345.35" fill="#ADD1B2" rx="11" ry="11" style="stroke:#181818;stroke-width:1.0;"/><path d="M243.9731,351.4931 Q243.3921,351.7919 242.7529,351.9413 Q242.1138,352.0907 241.4082,352.0907 Q238.9014,352.0907 237.5815,350.4389 Q236.2617,348.787 236.2617,345.6659 Q236.2617,342.5365 237.5815,340.8847 Q238.9014,339.2328 241.4082,339.2328 Q242.1138,339.2328 242.7612,339.3822 Q243.4087,339.5316 243.9731,339.8305 L243.9731,342.5531 Q243.3423,341.9721 242.7488,341.7023 Q242.1553,341.4325 241.5244,341.4325 Q240.1797,341.4325 239.4949,342.4992 Q238.8101,343.5658 238.8101,345.6659 Q238.8101,347.7577 239.4949,348.8244 Q240.1797,349.891 241.5244,349.891 Q242.1553,349.891 242.7488,349.6212 Q243.3423,349.3515 243.9731,348.7704 Z " fill="#000000"/><text fill="#000000" font-family="sans-serif" font-size="14" lengthAdjust="spacing" textLength="31" x="255.5" y="350.641">Fase</text><line style="stroke:#181818;stroke-width:0.5;" x1="227.5" x2="288.5" y1="361.35" y2="361.35"/><line style="stroke:#181818;stroke-width:0.5;" x1="227.5" x2="288.5" y1="369.35" y2="369.35"/></g><!--link Milepel to Kode--><g id="link_Milepel_Kode"><path codeLine="17" d="M134.34,253.3 C126.7,274.7 119.28,295.52 113.22,312.5 " fill="none" id="Milepel-Kode" style="stroke:#181818;stroke-width:1.0;"/></g><!--link Milepel to Fase--><g id="link_Milepel_Fase"><path codeLine="18" d="M222.21,253.3 C232.69,282.3 242.78,310.23 249.56,328.99 " fill="none" id="Milepel-Fase" style="stroke:#181818;stroke-width:1.0;"/></g><!--SRC=[RP113e8m44NtFKNtoWLOAuaQ3r5W8BMbGsOAYJ7StK91iR6BflF-JFFdLrOnoxksq8ELBo73EV2JFNINEfViIRisqXBOa1x1ClmAHdbeaNGkRrX3P0rfzhciWtICPF0D0gqieWSEv9GD0FTOEm_aSbaYMb0kGe86I3c6QnpgSVv_R-FJSK8pTE0IkL6pxoBStxe8ZjRTK-diVQfDGcn1PLdSTLSlBQ9QyforBKmJtYDGhPFG0lwNw2JU]--></g></svg>