<svg xmlns="http://www.w3.org/2000/svg" xmlns:xlink="http://www.w3.org/1999/xlink" contentStyleType="text/css" height="607px" preserveAspectRatio="none" style="width:1394px;height:607px;background:#FFFFFF;" version="1.1" viewBox="0 0 1394 607" width="1394px" zoomAndPan="magnify"><defs/><g><!--class EksternNoekkel--><g id="elem_EksternNoekkel"><rect codeLine="2" fill="#F1F1F1" height="80.9766" id="EksternNoekkel" rx="2.5" ry="2.5" style="stroke:#181818;stroke-width:0.5;" width="143" x="7" y="511.55"/><ellipse cx="24.25" cy="527.55" fill="#ADD1B2" rx="11" ry="11" style="stroke:#181818;stroke-width:1.0;"/><path d="M26.7231,533.6931 Q26.1421,533.9919 25.5029,534.1413 Q24.8638,534.2907 24.1582,534.2907 Q21.6514,534.2907 20.3315,532.6389 Q19.0117,530.987 19.0117,527.8659 Q19.0117,524.7365 20.3315,523.0847 Q21.6514,521.4328 24.1582,521.4328 Q24.8638,521.4328 25.5112,521.5822 Q26.1587,521.7316 26.7231,522.0305 L26.7231,524.7531 Q26.0923,524.1721 25.4988,523.9023 Q24.9053,523.6325 24.2744,523.6325 Q22.9297,523.6325 22.2449,524.6992 Q21.5601,525.7658 21.5601,527.8659 Q21.5601,529.9577 22.2449,531.0244 Q22.9297,532.091 24.2744,532.091 Q24.9053,532.091 25.4988,531.8212 Q26.0923,531.5515 26.7231,530.9704 Z " fill="#000000"/><text fill="#000000" font-family="sans-serif" font-size="14" lengthAdjust="spacing" textLength="106" x="38.75" y="532.841">EksternNoekkel</text><line style="stroke:#181818;stroke-width:0.5;" x1="8" x2="149" y1="543.55" y2="543.55"/><ellipse cx="18" cy="557.2941" fill="none" rx="3" ry="3" style="stroke:#038048;stroke-width:1.0;"/><text fill="#000000" font-family="sans-serif" font-size="14" lengthAdjust="spacing" textLength="117" x="27" y="561.0852">fagsystem: string</text><ellipse cx="18" cy="573.7824" fill="none" rx="3" ry="3" style="stroke:#038048;stroke-width:1.0;"/><text fill="#000000" font-family="sans-serif" font-size="14" lengthAdjust="spacing" textLength="102" x="27" y="577.5734">noekkel: string</text><line style="stroke:#181818;stroke-width:0.5;" x1="8" x2="149" y1="584.5266" y2="584.5266"/></g><!--class Journalnummer--><g id="elem_Journalnummer"><rect codeLine="2" fill="#F1F1F1" height="80.9766" id="Journalnummer" rx="2.5" ry="2.5" style="stroke:#181818;stroke-width:0.5;" width="249" x="185" y="511.55"/><ellipse cx="251.75" cy="527.55" fill="#ADD1B2" rx="11" ry="11" style="stroke:#181818;stroke-width:1.0;"/><path d="M254.2231,533.6931 Q253.6421,533.9919 253.0029,534.1413 Q252.3638,534.2907 251.6582,534.2907 Q249.1514,534.2907 247.8315,532.6389 Q246.5117,530.987 246.5117,527.8659 Q246.5117,524.7365 247.8315,523.0847 Q249.1514,521.4328 251.6582,521.4328 Q252.3638,521.4328 253.0112,521.5822 Q253.6587,521.7316 254.2231,522.0305 L254.2231,524.7531 Q253.5923,524.1721 252.9988,523.9023 Q252.4053,523.6325 251.7744,523.6325 Q250.4297,523.6325 249.7449,524.6992 Q249.0601,525.7658 249.0601,527.8659 Q249.0601,529.9577 249.7449,531.0244 Q250.4297,532.091 251.7744,532.091 Q252.4053,532.091 252.9988,531.8212 Q253.5923,531.5515 254.2231,530.9704 Z " fill="#000000"/><text fill="#000000" font-family="sans-serif" font-size="14" lengthAdjust="spacing" textLength="107" x="272.25" y="532.841">Journalnummer</text><line style="stroke:#181818;stroke-width:0.5;" x1="186" x2="433" y1="543.55" y2="543.55"/><ellipse cx="196" cy="557.2941" fill="none" rx="3" ry="3" style="stroke:#038048;stroke-width:1.0;"/><text fill="#000000" font-family="sans-serif" font-size="14" lengthAdjust="spacing" textLength="169" x="205" y="561.0852">journalnummer: number</text><ellipse cx="196" cy="573.7824" fill="none" rx="3" ry="3" style="stroke:#038048;stroke-width:1.0;"/><text fill="#000000" font-family="sans-serif" font-size="14" lengthAdjust="spacing" textLength="223" x="205" y="577.5734">journalsekvensnummer: number</text><line style="stroke:#181818;stroke-width:0.5;" x1="186" x2="433" y1="584.5266" y2="584.5266"/></g><!--class ReferanseJournalpost--><g id="elem_ReferanseJournalpost"><rect codeLine="2" fill="#F1F1F1" height="130.4414" id="ReferanseJournalpost" rx="2.5" ry="2.5" style="stroke:#181818;stroke-width:0.5;" width="369" x="125" y="312.86"/><ellipse cx="231.75" cy="328.86" fill="#ADD1B2" rx="11" ry="11" style="stroke:#181818;stroke-width:1.0;"/><path d="M234.2231,335.0031 Q233.6421,335.3019 233.0029,335.4513 Q232.3638,335.6007 231.6582,335.6007 Q229.1514,335.6007 227.8315,333.9489 Q226.5117,332.297 226.5117,329.1759 Q226.5117,326.0465 227.8315,324.3947 Q229.1514,322.7428 231.6582,322.7428 Q232.3638,322.7428 233.0112,322.8922 Q233.6587,323.0416 234.2231,323.3405 L234.2231,326.0631 Q233.5923,325.4821 232.9988,325.2123 Q232.4053,324.9425 231.7744,324.9425 Q230.4297,324.9425 229.7449,326.0092 Q229.0601,327.0758 229.0601,329.1759 Q229.0601,331.2677 229.7449,332.3344 Q230.4297,333.401 231.7744,333.401 Q232.4053,333.401 232.9988,333.1312 Q233.5923,332.8615 234.2231,332.2804 Z " fill="#000000"/><text fill="#000000" font-family="sans-serif" font-size="14" lengthAdjust="spacing" textLength="147" x="252.25" y="334.151">ReferanseJournalpost</text><line style="stroke:#181818;stroke-width:0.5;" x1="126" x2="493" y1="344.86" y2="344.86"/><ellipse cx="136" cy="358.6041" fill="none" rx="3" ry="3" style="stroke:#038048;stroke-width:1.0;"/><text fill="#000000" font-family="sans-serif" font-size="14" lengthAdjust="spacing" textLength="108" x="145" y="362.3952">systemId: string</text><ellipse cx="136" cy="375.0924" fill="none" rx="3" ry="3" style="stroke:#038048;stroke-width:1.0;"/><text fill="#000000" font-family="sans-serif" font-size="14" lengthAdjust="spacing" textLength="150" x="145" y="378.8834">registreringsID: string</text><ellipse cx="136" cy="391.5807" fill="none" rx="3" ry="3" style="stroke:#038048;stroke-width:1.0;"/><text fill="#000000" font-family="sans-serif" font-size="14" lengthAdjust="spacing" textLength="222" x="145" y="395.3717">journalnummer: Journalnummer</text><ellipse cx="136" cy="408.069" fill="none" rx="3" ry="3" style="stroke:#038048;stroke-width:1.0;"/><text fill="#000000" font-family="sans-serif" font-size="14" lengthAdjust="spacing" textLength="343" x="145" y="411.86">saksJournalpostnummer: SaksJournalpostnummer</text><ellipse cx="136" cy="424.5573" fill="none" rx="3" ry="3" style="stroke:#038048;stroke-width:1.0;"/><text fill="#000000" font-family="sans-serif" font-size="14" lengthAdjust="spacing" textLength="285" x="145" y="428.3483">referanseEksternNoekkel: EksternNoekkel</text><line style="stroke:#181818;stroke-width:0.5;" x1="126" x2="493" y1="435.3014" y2="435.3014"/></g><!--class SaksJournalpostnummer--><g id="elem_SaksJournalpostnummer"><rect codeLine="2" fill="#F1F1F1" height="97.4648" id="SaksJournalpostnummer" rx="2.5" ry="2.5" style="stroke:#181818;stroke-width:0.5;" width="230" x="468.5" y="503.31"/><ellipse cx="497" cy="519.31" fill="#ADD1B2" rx="11" ry="11" style="stroke:#181818;stroke-width:1.0;"/><path d="M499.4731,525.4531 Q498.8921,525.7519 498.2529,525.9013 Q497.6138,526.0507 496.9082,526.0507 Q494.4014,526.0507 493.0815,524.3989 Q491.7617,522.747 491.7617,519.6259 Q491.7617,516.4965 493.0815,514.8447 Q494.4014,513.1928 496.9082,513.1928 Q497.6138,513.1928 498.2612,513.3422 Q498.9087,513.4916 499.4731,513.7905 L499.4731,516.5131 Q498.8423,515.9321 498.2488,515.6623 Q497.6553,515.3925 497.0244,515.3925 Q495.6797,515.3925 494.9949,516.4592 Q494.3101,517.5258 494.3101,519.6259 Q494.3101,521.7177 494.9949,522.7844 Q495.6797,523.851 497.0244,523.851 Q497.6553,523.851 498.2488,523.5812 Q498.8423,523.3115 499.4731,522.7304 Z " fill="#000000"/><text fill="#000000" font-family="sans-serif" font-size="14" lengthAdjust="spacing" textLength="168" x="514" y="524.601">SaksJournalpostnummer</text><line style="stroke:#181818;stroke-width:0.5;" x1="469.5" x2="697.5" y1="535.31" y2="535.31"/><ellipse cx="479.5" cy="549.0541" fill="none" rx="3" ry="3" style="stroke:#038048;stroke-width:1.0;"/><text fill="#000000" font-family="sans-serif" font-size="14" lengthAdjust="spacing" textLength="114" x="488.5" y="552.8452">saksaar: number</text><ellipse cx="479.5" cy="565.5424" fill="none" rx="3" ry="3" style="stroke:#038048;stroke-width:1.0;"/><text fill="#000000" font-family="sans-serif" font-size="14" lengthAdjust="spacing" textLength="204" x="488.5" y="569.3334">sakssekvensnummer: number</text><ellipse cx="479.5" cy="582.0307" fill="none" rx="3" ry="3" style="stroke:#038048;stroke-width:1.0;"/><text fill="#000000" font-family="sans-serif" font-size="14" lengthAdjust="spacing" textLength="199" x="488.5" y="585.8217">journalpostnummer: number</text><line style="stroke:#181818;stroke-width:0.5;" x1="469.5" x2="697.5" y1="592.7748" y2="592.7748"/></g><!--class ReferanseDokumentfil--><g id="elem_ReferanseDokumentfil"><rect codeLine="38" fill="#F1F1F1" height="80.9766" id="ReferanseDokumentfil" rx="2.5" ry="2.5" style="stroke:#181818;stroke-width:0.5;" width="184" x="529.5" y="337.6"/><ellipse cx="544.5" cy="353.6" fill="#ADD1B2" rx="11" ry="11" style="stroke:#181818;stroke-width:1.0;"/><path d="M546.9731,359.7431 Q546.3921,360.0419 545.7529,360.1913 Q545.1138,360.3407 544.4082,360.3407 Q541.9014,360.3407 540.5815,358.6889 Q539.2617,357.037 539.2617,353.9159 Q539.2617,350.7865 540.5815,349.1347 Q541.9014,347.4828 544.4082,347.4828 Q545.1138,347.4828 545.7612,347.6322 Q546.4087,347.7816 546.9731,348.0805 L546.9731,350.8031 Q546.3423,350.2221 545.7488,349.9523 Q545.1553,349.6825 544.5244,349.6825 Q543.1797,349.6825 542.4949,350.7492 Q541.8101,351.8158 541.8101,353.9159 Q541.8101,356.0077 542.4949,357.0744 Q543.1797,358.141 544.5244,358.141 Q545.1553,358.141 545.7488,357.8712 Q546.3423,357.6015 546.9731,357.0204 Z " fill="#000000"/><text fill="#000000" font-family="sans-serif" font-size="14" lengthAdjust="spacing" textLength="152" x="558.5" y="358.891">ReferanseDokumentfil</text><line style="stroke:#181818;stroke-width:0.5;" x1="530.5" x2="712.5" y1="369.6" y2="369.6"/><ellipse cx="540.5" cy="383.3441" fill="none" rx="3" ry="3" style="stroke:#038048;stroke-width:1.0;"/><text fill="#000000" font-family="sans-serif" font-size="14" lengthAdjust="spacing" textLength="61" x="549.5" y="387.1352">id: string</text><ellipse cx="540.5" cy="399.8324" fill="none" rx="3" ry="3" style="stroke:#038048;stroke-width:1.0;"/><text fill="#000000" font-family="sans-serif" font-size="14" lengthAdjust="spacing" textLength="67" x="549.5" y="403.6234">url: string</text><line style="stroke:#181818;stroke-width:0.5;" x1="530.5" x2="712.5" y1="410.5766" y2="410.5766"/></g><!--class Milepel--><g id="elem_Milepel"><rect codeLine="8" fill="#F1F1F1" height="245.8594" id="Milepel" rx="2.5" ry="2.5" style="stroke:#181818;stroke-width:0.5;" width="325" x="686" y="7"/><ellipse cx="819.75" cy="23" fill="#ADD1B2" rx="11" ry="11" style="stroke:#181818;stroke-width:1.0;"/><path d="M822.2231,29.1431 Q821.6421,29.4419 821.0029,29.5913 Q820.3638,29.7407 819.6582,29.7407 Q817.1514,29.7407 815.8315,28.0889 Q814.5117,26.437 814.5117,23.3159 Q814.5117,20.1865 815.8315,18.5347 Q817.1514,16.8828 819.6582,16.8828 Q820.3638,16.8828 821.0112,17.0322 Q821.6587,17.1816 822.2231,17.4805 L822.2231,20.2031 Q821.5923,19.6221 820.9988,19.3523 Q820.4053,19.0825 819.7744,19.0825 Q818.4297,19.0825 817.7449,20.1492 Q817.0601,21.2158 817.0601,23.3159 Q817.0601,25.4077 817.7449,26.4744 Q818.4297,27.541 819.7744,27.541 Q820.4053,27.541 820.9988,27.2712 Q821.5923,27.0015 822.2231,26.4204 Z " fill="#000000"/><text fill="#000000" font-family="sans-serif" font-size="14" lengthAdjust="spacing" textLength="49" x="840.25" y="28.291">Milepel</text><line style="stroke:#181818;stroke-width:0.5;" x1="687" x2="1010" y1="39" y2="39"/><ellipse cx="697" cy="52.7441" fill="none" rx="3" ry="3" style="stroke:#038048;stroke-width:1.0;"/><text fill="#000000" font-family="sans-serif" font-size="14" lengthAdjust="spacing" textLength="108" x="706" y="56.5352">systemId: string</text><ellipse cx="697" cy="69.2324" fill="none" rx="3" ry="3" style="stroke:#038048;stroke-width:1.0;"/><text fill="#000000" font-family="sans-serif" font-size="14" lengthAdjust="spacing" textLength="124" x="706" y="73.0234">beskrivelse: string</text><ellipse cx="697" cy="85.7207" fill="none" rx="3" ry="3" style="stroke:#038048;stroke-width:1.0;"/><text fill="#000000" font-family="sans-serif" font-size="14" lengthAdjust="spacing" textLength="143" x="706" y="89.5117">kategori: Milepeltype</text><ellipse cx="697" cy="102.209" fill="none" rx="3" ry="3" style="stroke:#038048;stroke-width:1.0;"/><text fill="#000000" font-family="sans-serif" font-size="14" lengthAdjust="spacing" textLength="65" x="706" y="106">frist: date</text><ellipse cx="697" cy="118.6973" fill="none" rx="3" ry="3" style="stroke:#038048;stroke-width:1.0;"/><text fill="#000000" font-family="sans-serif" font-size="14" lengthAdjust="spacing" textLength="85" x="706" y="122.4883">utfoert: date</text><ellipse cx="697" cy="135.1855" fill="none" rx="3" ry="3" style="stroke:#038048;stroke-width:1.0;"/><text fill="#000000" font-family="sans-serif" font-size="14" lengthAdjust="spacing" textLength="111" x="706" y="138.9766">planlagtTil: date</text><ellipse cx="697" cy="151.6738" fill="none" rx="3" ry="3" style="stroke:#038048;stroke-width:1.0;"/><text fill="#000000" font-family="sans-serif" font-size="14" lengthAdjust="spacing" textLength="105" x="706" y="155.4648">intern: boolean</text><ellipse cx="697" cy="168.1621" fill="none" rx="3" ry="3" style="stroke:#038048;stroke-width:1.0;"/><text fill="#000000" font-family="sans-serif" font-size="14" lengthAdjust="spacing" textLength="299" x="706" y="171.9531">referanseJournalpost: ReferanseJournalpost</text><ellipse cx="697" cy="184.6504" fill="none" rx="3" ry="3" style="stroke:#038048;stroke-width:1.0;"/><text fill="#000000" font-family="sans-serif" font-size="14" lengthAdjust="spacing" textLength="296" x="706" y="188.4414">referanseDokument: ReferanseDokumentfil</text><ellipse cx="697" cy="201.1387" fill="none" rx="3" ry="3" style="stroke:#038048;stroke-width:1.0;"/><text fill="#000000" font-family="sans-serif" font-size="14" lengthAdjust="spacing" textLength="110" x="706" y="204.9297">erStart: boolean</text><ellipse cx="697" cy="217.627" fill="none" rx="3" ry="3" style="stroke:#038048;stroke-width:1.0;"/><text fill="#000000" font-family="sans-serif" font-size="14" lengthAdjust="spacing" textLength="109" x="706" y="221.418">erSlutt: boolean</text><ellipse cx="697" cy="234.1152" fill="none" rx="3" ry="3" style="stroke:#038048;stroke-width:1.0;"/><text fill="#000000" font-family="sans-serif" font-size="14" lengthAdjust="spacing" textLength="179" x="706" y="237.9063">status: MilepelStatusEnum</text><line style="stroke:#181818;stroke-width:0.5;" x1="687" x2="1010" y1="244.8594" y2="244.8594"/></g><!--class Milepeltype--><g id="elem_Milepeltype"><rect codeLine="30" fill="#F1F1F1" height="80.9766" id="Milepeltype" rx="2.5" ry="2.5" style="stroke:#181818;stroke-width:0.5;" width="184" x="1180.5" y="337.6"/><ellipse cx="1229.25" cy="353.6" fill="#ADD1B2" rx="11" ry="11" style="stroke:#181818;stroke-width:1.0;"/><path d="M1231.7231,359.7431 Q1231.1421,360.0419 1230.5029,360.1913 Q1229.8638,360.3407 1229.1582,360.3407 Q1226.6514,360.3407 1225.3315,358.6889 Q1224.0117,357.037 1224.0117,353.9159 Q1224.0117,350.7865 1225.3315,349.1347 Q1226.6514,347.4828 1229.1582,347.4828 Q1229.8638,347.4828 1230.5112,347.6322 Q1231.1587,347.7816 1231.7231,348.0805 L1231.7231,350.8031 Q1231.0923,350.2221 1230.4988,349.9523 Q1229.9053,349.6825 1229.2744,349.6825 Q1227.9297,349.6825 1227.2449,350.7492 Q1226.5601,351.8158 1226.5601,353.9159 Q1226.5601,356.0077 1227.2449,357.0744 Q1227.9297,358.141 1229.2744,358.141 Q1229.9053,358.141 1230.4988,357.8712 Q1231.0923,357.6015 1231.7231,357.0204 Z " fill="#000000"/><text fill="#000000" font-family="sans-serif" font-size="14" lengthAdjust="spacing" textLength="78" x="1249.75" y="358.891">Milepeltype</text><line style="stroke:#181818;stroke-width:0.5;" x1="1181.5" x2="1363.5" y1="369.6" y2="369.6"/><ellipse cx="1191.5" cy="383.3441" fill="none" rx="3" ry="3" style="stroke:#038048;stroke-width:1.0;"/><text fill="#000000" font-family="sans-serif" font-size="14" lengthAdjust="spacing" textLength="116" x="1200.5" y="387.1352">kodeverdi: string</text><ellipse cx="1191.5" cy="399.8324" fill="none" rx="3" ry="3" style="stroke:#038048;stroke-width:1.0;"/><text fill="#000000" font-family="sans-serif" font-size="14" lengthAdjust="spacing" textLength="158" x="1200.5" y="403.6234">kodebeskrivelse: string</text><line style="stroke:#181818;stroke-width:0.5;" x1="1181.5" x2="1363.5" y1="410.5766" y2="410.5766"/></g><g id="elem_GMN10"><path d="M1158,94.31 L1158,165.5522 A0,0 0 0 0 1158,165.5522 L1268.5,165.5522 L1272.5,337.31 L1276.5,165.5522 L1387,165.5522 A0,0 0 0 0 1387,165.5522 L1387,104.31 L1377,94.31 L1158,94.31 A0,0 0 0 0 1158,94.31 " fill="#FEFFDD" style="stroke:#181818;stroke-width:0.5;"/><path d="M1377,94.31 L1377,104.31 L1387,104.31 L1377,94.31 " fill="#FEFFDD" style="stroke:#181818;stroke-width:0.5;"/><text fill="#000000" font-family="sans-serif" font-size="13" lengthAdjust="spacing" textLength="69" x="1164" y="111.8784">Eksempler:</text><text fill="#000000" font-family="sans-serif" font-size="13" lengthAdjust="spacing" textLength="201" x="1164" y="127.1889">Bestilling av oppstartsm&#248;te (BO)</text><text fill="#000000" font-family="sans-serif" font-size="13" lengthAdjust="spacing" textLength="208" x="1164" y="142.4995">Gjennomf&#248;rt oppstartsm&#248;te (OM)</text><text fill="#000000" font-family="sans-serif" font-size="13" lengthAdjust="spacing" textLength="137" x="1164" y="157.81">Mottak av planforslag</text></g><g id="elem_GMN13"><path d="M749,365.43 L749,390.7405 A0,0 0 0 0 749,390.7405 L948,390.7405 A0,0 0 0 0 948,390.7405 L948,375.43 L938,365.43 L852.5,365.43 L848.5,253.29 L844.5,365.43 L749,365.43 A0,0 0 0 0 749,365.43 " fill="#FEFFDD" style="stroke:#181818;stroke-width:0.5;"/><path d="M938,365.43 L938,375.43 L948,375.43 L938,365.43 " fill="#FEFFDD" style="stroke:#181818;stroke-width:0.5;"/><text fill="#000000" font-family="sans-serif" font-size="13" lengthAdjust="spacing" textLength="178" x="755" y="382.9984">frist og utfoert ikke p&#229;krevd</text></g><!--class MilepelStatusEnum--><g id="elem_MilepelStatusEnum"><rect codeLine="46" fill="#F1F1F1" height="80.9766" id="MilepelStatusEnum" rx="2.5" ry="2.5" style="stroke:#181818;stroke-width:0.5;" width="162" x="983.5" y="337.6"/><ellipse cx="998.5" cy="353.6" fill="#EB937F" rx="11" ry="11" style="stroke:#181818;stroke-width:1.0;"/><path d="M1002.1143,360.1 L994.3945,360.1 L994.3945,347.7069 L1002.1143,347.7069 L1002.1143,349.8651 L996.8433,349.8651 L996.8433,352.538 L1001.6162,352.538 L1001.6162,354.6962 L996.8433,354.6962 L996.8433,357.9418 L1002.1143,357.9418 Z " fill="#000000"/><text fill="#000000" font-family="sans-serif" font-size="14" lengthAdjust="spacing" textLength="130" x="1012.5" y="358.891">MilepelStatusEnum</text><line style="stroke:#181818;stroke-width:0.5;" x1="984.5" x2="1144.5" y1="369.6" y2="369.6"/><ellipse cx="994.5" cy="383.3441" fill="none" rx="3" ry="3" style="stroke:#038048;stroke-width:1.0;"/><text fill="#000000" font-family="sans-serif" font-size="14" lengthAdjust="spacing" textLength="36" x="1003.5" y="387.1352">N&#229;dd</text><ellipse cx="994.5" cy="399.8324" fill="none" rx="3" ry="3" style="stroke:#038048;stroke-width:1.0;"/><text fill="#000000" font-family="sans-serif" font-size="14" lengthAdjust="spacing" textLength="55" x="1003.5" y="403.6234">Planlagt</text><line style="stroke:#181818;stroke-width:0.5;" x1="984.5" x2="1144.5" y1="410.5766" y2="410.5766"/></g><!--link Milepel to Milepeltype--><g id="link_Milepel_Milepeltype"><path codeLine="23" d="M1011.34,224.62 C1060.3,252.89 1114.13,284.06 1163.5,312.86 C1176.97,320.72 1191.35,329.16 1205.11,337.25 " fill="none" id="Milepel-Milepeltype" style="stroke:#181818;stroke-width:1.0;"/></g><!--link Milepel to ReferanseJournalpost--><g id="link_Milepel_ReferanseJournalpost"><path codeLine="35" d="M685.69,205.29 C610.84,239.47 522.91,279.62 450.89,312.52 " fill="none" id="Milepel-ReferanseJournalpost" style="stroke:#181818;stroke-width:1.0;"/></g><!--link Milepel to ReferanseDokumentfil--><g id="link_Milepel_ReferanseDokumentfil"><path codeLine="36" d="M735.67,253.29 C707.62,283.69 679.53,314.16 658.23,337.26 " fill="none" id="Milepel-ReferanseDokumentfil" style="stroke:#181818;stroke-width:1.0;"/></g><!--link Milepel to MilepelStatusEnum--><g id="link_Milepel_MilepelStatusEnum"><path codeLine="41" d="M955.87,253.29 C982.55,283.69 1009.28,314.16 1029.55,337.26 " fill="none" id="Milepel-MilepelStatusEnum" style="stroke:#181818;stroke-width:1.0;"/></g><!--link ReferanseJournalpost to EksternNoekkel--><g id="link_ReferanseJournalpost_EksternNoekkel"><path codeLine="42" d="M222.83,443.6 C192.36,466.28 159.03,491.09 132.08,511.15 " fill="none" id="ReferanseJournalpost-EksternNoekkel" style="stroke:#181818;stroke-width:1.0;"/></g><!--link ReferanseJournalpost to SaksJournalpostnummer--><g id="link_ReferanseJournalpost_SaksJournalpostnummer"><path codeLine="43" d="M412.31,443.6 C443.59,463.23 477.41,484.46 506.67,502.82 " fill="none" id="ReferanseJournalpost-SaksJournalpostnummer" style="stroke:#181818;stroke-width:1.0;"/></g><!--link ReferanseJournalpost to Journalnummer--><g id="link_ReferanseJournalpost_Journalnummer"><path codeLine="44" d="M309.5,443.6 C309.5,466.28 309.5,491.09 309.5,511.15 " fill="none" id="ReferanseJournalpost-Journalnummer" style="stroke:#181818;stroke-width:1.0;"/></g><!--SRC=[hLInRjim4Dtv5PUjHH4PMJK6COeQS1BK7RFGuL5WI944xoGWAFev-OVi_h5Ibfn8iZ8KgGQ1UlTqV7ntnmlZ7rsZ48fLKQnyA2mLskGNIKjQ4gQYlIeqEeTKe2N6v7r0Qz6j7fqaKaPMITP5RCJ5l-Hw2atoqlcchZ5zBbL2ZKbwmY5d3CIVozXXesJ_LQGAjgdHipRd3WfnH61h74Pqy5j0VhxHS_Qz_g5A84x6LpswHxB9jEW8fm4h6QkGJ7dAmyyH-v1EXhW4bHazqB0Ec2PGTD8xMV4luyQmyLtjIzY7u53w7dmxrURThH9-Bg0p_itWmeXyysvCJyQqOzbfcsoPKTVm72MMtD3RYNV7ptKkdFWZnCdEoyk98y87Hk0G8UXn04fOMy8wEambFFXh93REPNz1jX1Yf4uMrOVN_FkNwxkl3_xx4-QngFNXDV4PuswR6Tl0B6sNeFDNXqJPuq72FiT2FL9Hmh5G42eO2WGcZnp4mujDsAfvennL3yrYWy8MapApfiZmKiTCxLcit59yNAn1or8iYrhqVrIVfIqxvhg_R6xxo-P3sYxFscO-gX-oD-DRHmZCYtD99oTl3ozAzSlxOIRoQVu2]--></g></svg>