<svg xmlns="http://www.w3.org/2000/svg" xmlns:xlink="http://www.w3.org/1999/xlink" contentStyleType="text/css" height="707px" preserveAspectRatio="none" style="width:1275px;height:707px;background:#FFFFFF;" version="1.1" viewBox="0 0 1275 707" width="1275px" zoomAndPan="magnify"><defs/><g><!--class EksternNoekkel--><g id="elem_EksternNoekkel"><rect codeLine="2" fill="#F1F1F1" height="80.9766" id="EksternNoekkel" rx="2.5" ry="2.5" style="stroke:#181818;stroke-width:0.5;" width="143" x="130" y="611.17"/><ellipse cx="147.25" cy="627.17" fill="#ADD1B2" rx="11" ry="11" style="stroke:#181818;stroke-width:1.0;"/><path d="M149.7231,633.3131 Q149.1421,633.6119 148.5029,633.7613 Q147.8638,633.9107 147.1582,633.9107 Q144.6514,633.9107 143.3315,632.2589 Q142.0117,630.607 142.0117,627.4859 Q142.0117,624.3565 143.3315,622.7047 Q144.6514,621.0528 147.1582,621.0528 Q147.8638,621.0528 148.5112,621.2022 Q149.1587,621.3516 149.7231,621.6505 L149.7231,624.3731 Q149.0923,623.7921 148.4988,623.5223 Q147.9053,623.2525 147.2744,623.2525 Q145.9297,623.2525 145.2449,624.3192 Q144.5601,625.3858 144.5601,627.4859 Q144.5601,629.5777 145.2449,630.6444 Q145.9297,631.711 147.2744,631.711 Q147.9053,631.711 148.4988,631.4412 Q149.0923,631.1715 149.7231,630.5904 Z " fill="#000000"/><text fill="#000000" font-family="sans-serif" font-size="14" lengthAdjust="spacing" textLength="106" x="161.75" y="632.461">EksternNoekkel</text><line style="stroke:#181818;stroke-width:0.5;" x1="131" x2="272" y1="643.17" y2="643.17"/><ellipse cx="141" cy="656.9141" fill="none" rx="3" ry="3" style="stroke:#038048;stroke-width:1.0;"/><text fill="#000000" font-family="sans-serif" font-size="14" lengthAdjust="spacing" textLength="117" x="150" y="660.7052">fagsystem: string</text><ellipse cx="141" cy="673.4024" fill="none" rx="3" ry="3" style="stroke:#038048;stroke-width:1.0;"/><text fill="#000000" font-family="sans-serif" font-size="14" lengthAdjust="spacing" textLength="102" x="150" y="677.1934">noekkel: string</text><line style="stroke:#181818;stroke-width:0.5;" x1="131" x2="272" y1="684.1466" y2="684.1466"/></g><!--class Journalnummer--><g id="elem_Journalnummer"><rect codeLine="2" fill="#F1F1F1" height="80.9766" id="Journalnummer" rx="2.5" ry="2.5" style="stroke:#181818;stroke-width:0.5;" width="249" x="308" y="611.17"/><ellipse cx="374.75" cy="627.17" fill="#ADD1B2" rx="11" ry="11" style="stroke:#181818;stroke-width:1.0;"/><path d="M377.2231,633.3131 Q376.6421,633.6119 376.0029,633.7613 Q375.3638,633.9107 374.6582,633.9107 Q372.1514,633.9107 370.8315,632.2589 Q369.5117,630.607 369.5117,627.4859 Q369.5117,624.3565 370.8315,622.7047 Q372.1514,621.0528 374.6582,621.0528 Q375.3638,621.0528 376.0112,621.2022 Q376.6587,621.3516 377.2231,621.6505 L377.2231,624.3731 Q376.5923,623.7921 375.9988,623.5223 Q375.4053,623.2525 374.7744,623.2525 Q373.4297,623.2525 372.7449,624.3192 Q372.0601,625.3858 372.0601,627.4859 Q372.0601,629.5777 372.7449,630.6444 Q373.4297,631.711 374.7744,631.711 Q375.4053,631.711 375.9988,631.4412 Q376.5923,631.1715 377.2231,630.5904 Z " fill="#000000"/><text fill="#000000" font-family="sans-serif" font-size="14" lengthAdjust="spacing" textLength="107" x="395.25" y="632.461">Journalnummer</text><line style="stroke:#181818;stroke-width:0.5;" x1="309" x2="556" y1="643.17" y2="643.17"/><ellipse cx="319" cy="656.9141" fill="none" rx="3" ry="3" style="stroke:#038048;stroke-width:1.0;"/><text fill="#000000" font-family="sans-serif" font-size="14" lengthAdjust="spacing" textLength="169" x="328" y="660.7052">journalnummer: number</text><ellipse cx="319" cy="673.4024" fill="none" rx="3" ry="3" style="stroke:#038048;stroke-width:1.0;"/><text fill="#000000" font-family="sans-serif" font-size="14" lengthAdjust="spacing" textLength="223" x="328" y="677.1934">journalsekvensnummer: number</text><line style="stroke:#181818;stroke-width:0.5;" x1="309" x2="556" y1="684.1466" y2="684.1466"/></g><!--class ReferanseJournalpost--><g id="elem_ReferanseJournalpost"><rect codeLine="2" fill="#F1F1F1" height="130.4414" id="ReferanseJournalpost" rx="2.5" ry="2.5" style="stroke:#181818;stroke-width:0.5;" width="369" x="248" y="412.48"/><ellipse cx="354.75" cy="428.48" fill="#ADD1B2" rx="11" ry="11" style="stroke:#181818;stroke-width:1.0;"/><path d="M357.2231,434.6231 Q356.6421,434.9219 356.0029,435.0713 Q355.3638,435.2207 354.6582,435.2207 Q352.1514,435.2207 350.8315,433.5689 Q349.5117,431.917 349.5117,428.7959 Q349.5117,425.6665 350.8315,424.0147 Q352.1514,422.3628 354.6582,422.3628 Q355.3638,422.3628 356.0112,422.5122 Q356.6587,422.6616 357.2231,422.9605 L357.2231,425.6831 Q356.5923,425.1021 355.9988,424.8323 Q355.4053,424.5625 354.7744,424.5625 Q353.4297,424.5625 352.7449,425.6292 Q352.0601,426.6958 352.0601,428.7959 Q352.0601,430.8877 352.7449,431.9544 Q353.4297,433.021 354.7744,433.021 Q355.4053,433.021 355.9988,432.7512 Q356.5923,432.4815 357.2231,431.9004 Z " fill="#000000"/><text fill="#000000" font-family="sans-serif" font-size="14" lengthAdjust="spacing" textLength="147" x="375.25" y="433.771">ReferanseJournalpost</text><line style="stroke:#181818;stroke-width:0.5;" x1="249" x2="616" y1="444.48" y2="444.48"/><ellipse cx="259" cy="458.2241" fill="none" rx="3" ry="3" style="stroke:#038048;stroke-width:1.0;"/><text fill="#000000" font-family="sans-serif" font-size="14" lengthAdjust="spacing" textLength="108" x="268" y="462.0152">systemId: string</text><ellipse cx="259" cy="474.7124" fill="none" rx="3" ry="3" style="stroke:#038048;stroke-width:1.0;"/><text fill="#000000" font-family="sans-serif" font-size="14" lengthAdjust="spacing" textLength="150" x="268" y="478.5034">registreringsID: string</text><ellipse cx="259" cy="491.2007" fill="none" rx="3" ry="3" style="stroke:#038048;stroke-width:1.0;"/><text fill="#000000" font-family="sans-serif" font-size="14" lengthAdjust="spacing" textLength="222" x="268" y="494.9917">journalnummer: Journalnummer</text><ellipse cx="259" cy="507.689" fill="none" rx="3" ry="3" style="stroke:#038048;stroke-width:1.0;"/><text fill="#000000" font-family="sans-serif" font-size="14" lengthAdjust="spacing" textLength="343" x="268" y="511.48">saksJournalpostnummer: SaksJournalpostnummer</text><ellipse cx="259" cy="524.1773" fill="none" rx="3" ry="3" style="stroke:#038048;stroke-width:1.0;"/><text fill="#000000" font-family="sans-serif" font-size="14" lengthAdjust="spacing" textLength="285" x="268" y="527.9683">referanseEksternNoekkel: EksternNoekkel</text><line style="stroke:#181818;stroke-width:0.5;" x1="249" x2="616" y1="534.9214" y2="534.9214"/></g><!--class SaksJournalpostnummer--><g id="elem_SaksJournalpostnummer"><rect codeLine="2" fill="#F1F1F1" height="97.4648" id="SaksJournalpostnummer" rx="2.5" ry="2.5" style="stroke:#181818;stroke-width:0.5;" width="230" x="591.5" y="602.93"/><ellipse cx="620" cy="618.93" fill="#ADD1B2" rx="11" ry="11" style="stroke:#181818;stroke-width:1.0;"/><path d="M622.4731,625.0731 Q621.8921,625.3719 621.2529,625.5213 Q620.6138,625.6707 619.9082,625.6707 Q617.4014,625.6707 616.0815,624.0189 Q614.7617,622.367 614.7617,619.2459 Q614.7617,616.1165 616.0815,614.4647 Q617.4014,612.8128 619.9082,612.8128 Q620.6138,612.8128 621.2612,612.9622 Q621.9087,613.1116 622.4731,613.4105 L622.4731,616.1331 Q621.8423,615.5521 621.2488,615.2823 Q620.6553,615.0125 620.0244,615.0125 Q618.6797,615.0125 617.9949,616.0792 Q617.3101,617.1458 617.3101,619.2459 Q617.3101,621.3377 617.9949,622.4044 Q618.6797,623.471 620.0244,623.471 Q620.6553,623.471 621.2488,623.2012 Q621.8423,622.9315 622.4731,622.3504 Z " fill="#000000"/><text fill="#000000" font-family="sans-serif" font-size="14" lengthAdjust="spacing" textLength="168" x="637" y="624.221">SaksJournalpostnummer</text><line style="stroke:#181818;stroke-width:0.5;" x1="592.5" x2="820.5" y1="634.93" y2="634.93"/><ellipse cx="602.5" cy="648.6741" fill="none" rx="3" ry="3" style="stroke:#038048;stroke-width:1.0;"/><text fill="#000000" font-family="sans-serif" font-size="14" lengthAdjust="spacing" textLength="114" x="611.5" y="652.4652">saksaar: number</text><ellipse cx="602.5" cy="665.1624" fill="none" rx="3" ry="3" style="stroke:#038048;stroke-width:1.0;"/><text fill="#000000" font-family="sans-serif" font-size="14" lengthAdjust="spacing" textLength="204" x="611.5" y="668.9534">sakssekvensnummer: number</text><ellipse cx="602.5" cy="681.6507" fill="none" rx="3" ry="3" style="stroke:#038048;stroke-width:1.0;"/><text fill="#000000" font-family="sans-serif" font-size="14" lengthAdjust="spacing" textLength="199" x="611.5" y="685.4417">journalpostnummer: number</text><line style="stroke:#181818;stroke-width:0.5;" x1="592.5" x2="820.5" y1="692.3948" y2="692.3948"/></g><!--class ReferanseDokumentfil--><g id="elem_ReferanseDokumentfil"><rect codeLine="40" fill="#F1F1F1" height="80.9766" id="ReferanseDokumentfil" rx="2.5" ry="2.5" style="stroke:#181818;stroke-width:0.5;" width="184" x="652.5" y="437.22"/><ellipse cx="667.5" cy="453.22" fill="#ADD1B2" rx="11" ry="11" style="stroke:#181818;stroke-width:1.0;"/><path d="M669.9731,459.3631 Q669.3921,459.6619 668.7529,459.8113 Q668.1138,459.9607 667.4082,459.9607 Q664.9014,459.9607 663.5815,458.3089 Q662.2617,456.657 662.2617,453.5359 Q662.2617,450.4065 663.5815,448.7547 Q664.9014,447.1028 667.4082,447.1028 Q668.1138,447.1028 668.7612,447.2522 Q669.4087,447.4016 669.9731,447.7005 L669.9731,450.4231 Q669.3423,449.8421 668.7488,449.5723 Q668.1553,449.3025 667.5244,449.3025 Q666.1797,449.3025 665.4949,450.3692 Q664.8101,451.4358 664.8101,453.5359 Q664.8101,455.6277 665.4949,456.6944 Q666.1797,457.761 667.5244,457.761 Q668.1553,457.761 668.7488,457.4912 Q669.3423,457.2215 669.9731,456.6404 Z " fill="#000000"/><text fill="#000000" font-family="sans-serif" font-size="14" lengthAdjust="spacing" textLength="152" x="681.5" y="458.511">ReferanseDokumentfil</text><line style="stroke:#181818;stroke-width:0.5;" x1="653.5" x2="835.5" y1="469.22" y2="469.22"/><ellipse cx="663.5" cy="482.9641" fill="none" rx="3" ry="3" style="stroke:#038048;stroke-width:1.0;"/><text fill="#000000" font-family="sans-serif" font-size="14" lengthAdjust="spacing" textLength="61" x="672.5" y="486.7552">id: string</text><ellipse cx="663.5" cy="499.4524" fill="none" rx="3" ry="3" style="stroke:#038048;stroke-width:1.0;"/><text fill="#000000" font-family="sans-serif" font-size="14" lengthAdjust="spacing" textLength="67" x="672.5" y="503.2434">url: string</text><line style="stroke:#181818;stroke-width:0.5;" x1="653.5" x2="835.5" y1="510.1966" y2="510.1966"/></g><!--class Milepel--><g id="elem_Milepel"><rect codeLine="8" fill="#F1F1F1" height="245.8594" id="Milepel" rx="2.5" ry="2.5" style="stroke:#181818;stroke-width:0.5;" width="325" x="582" y="106.62"/><ellipse cx="715.75" cy="122.62" fill="#ADD1B2" rx="11" ry="11" style="stroke:#181818;stroke-width:1.0;"/><path d="M718.2231,128.7631 Q717.6421,129.0619 717.0029,129.2113 Q716.3638,129.3607 715.6582,129.3607 Q713.1514,129.3607 711.8315,127.7089 Q710.5117,126.057 710.5117,122.9359 Q710.5117,119.8065 711.8315,118.1547 Q713.1514,116.5028 715.6582,116.5028 Q716.3638,116.5028 717.0112,116.6522 Q717.6587,116.8016 718.2231,117.1005 L718.2231,119.8231 Q717.5923,119.2421 716.9988,118.9723 Q716.4053,118.7025 715.7744,118.7025 Q714.4297,118.7025 713.7449,119.7692 Q713.0601,120.8358 713.0601,122.9359 Q713.0601,125.0277 713.7449,126.0944 Q714.4297,127.161 715.7744,127.161 Q716.4053,127.161 716.9988,126.8912 Q717.5923,126.6215 718.2231,126.0404 Z " fill="#000000"/><text fill="#000000" font-family="sans-serif" font-size="14" lengthAdjust="spacing" textLength="49" x="736.25" y="127.911">Milepel</text><line style="stroke:#181818;stroke-width:0.5;" x1="583" x2="906" y1="138.62" y2="138.62"/><ellipse cx="593" cy="152.3641" fill="none" rx="3" ry="3" style="stroke:#038048;stroke-width:1.0;"/><text fill="#000000" font-family="sans-serif" font-size="14" lengthAdjust="spacing" textLength="108" x="602" y="156.1552">systemId: string</text><ellipse cx="593" cy="168.8524" fill="none" rx="3" ry="3" style="stroke:#038048;stroke-width:1.0;"/><text fill="#000000" font-family="sans-serif" font-size="14" lengthAdjust="spacing" textLength="124" x="602" y="172.6434">beskrivelse: string</text><ellipse cx="593" cy="185.3407" fill="none" rx="3" ry="3" style="stroke:#038048;stroke-width:1.0;"/><text fill="#000000" font-family="sans-serif" font-size="14" lengthAdjust="spacing" textLength="143" x="602" y="189.1317">kategori: Milepeltype</text><ellipse cx="593" cy="201.829" fill="none" rx="3" ry="3" style="stroke:#038048;stroke-width:1.0;"/><text fill="#000000" font-family="sans-serif" font-size="14" lengthAdjust="spacing" textLength="65" x="602" y="205.62">frist: date</text><ellipse cx="593" cy="218.3173" fill="none" rx="3" ry="3" style="stroke:#038048;stroke-width:1.0;"/><text fill="#000000" font-family="sans-serif" font-size="14" lengthAdjust="spacing" textLength="85" x="602" y="222.1083">utfoert: date</text><ellipse cx="593" cy="234.8055" fill="none" rx="3" ry="3" style="stroke:#038048;stroke-width:1.0;"/><text fill="#000000" font-family="sans-serif" font-size="14" lengthAdjust="spacing" textLength="142" x="602" y="238.5966">planlagtUtfoert: date</text><ellipse cx="593" cy="251.2938" fill="none" rx="3" ry="3" style="stroke:#038048;stroke-width:1.0;"/><text fill="#000000" font-family="sans-serif" font-size="14" lengthAdjust="spacing" textLength="105" x="602" y="255.0848">intern: boolean</text><ellipse cx="593" cy="267.7821" fill="none" rx="3" ry="3" style="stroke:#038048;stroke-width:1.0;"/><text fill="#000000" font-family="sans-serif" font-size="14" lengthAdjust="spacing" textLength="299" x="602" y="271.5731">referanseJournalpost: ReferanseJournalpost</text><ellipse cx="593" cy="284.2704" fill="none" rx="3" ry="3" style="stroke:#038048;stroke-width:1.0;"/><text fill="#000000" font-family="sans-serif" font-size="14" lengthAdjust="spacing" textLength="296" x="602" y="288.0614">referanseDokument: ReferanseDokumentfil</text><ellipse cx="593" cy="300.7587" fill="none" rx="3" ry="3" style="stroke:#038048;stroke-width:1.0;"/><text fill="#000000" font-family="sans-serif" font-size="14" lengthAdjust="spacing" textLength="110" x="602" y="304.5497">erStart: boolean</text><ellipse cx="593" cy="317.247" fill="none" rx="3" ry="3" style="stroke:#038048;stroke-width:1.0;"/><text fill="#000000" font-family="sans-serif" font-size="14" lengthAdjust="spacing" textLength="109" x="602" y="321.038">erSlutt: boolean</text><ellipse cx="593" cy="333.7352" fill="none" rx="3" ry="3" style="stroke:#038048;stroke-width:1.0;"/><text fill="#000000" font-family="sans-serif" font-size="14" lengthAdjust="spacing" textLength="179" x="602" y="337.5263">status: MilepelStatusEnum</text><line style="stroke:#181818;stroke-width:0.5;" x1="583" x2="906" y1="344.4794" y2="344.4794"/></g><g id="elem_GMN8"><path d="M522.5,6 L522.5,46.6211 A0,0 0 0 0 522.5,46.6211 L740.5,46.6211 L744.5,106.38 L748.5,46.6211 L966.5,46.6211 A0,0 0 0 0 966.5,46.6211 L966.5,16 L956.5,6 L522.5,6 A0,0 0 0 0 522.5,6 " fill="#FEFFDD" style="stroke:#181818;stroke-width:0.5;"/><path d="M956.5,6 L956.5,16 L966.5,16 L956.5,6 " fill="#FEFFDD" style="stroke:#181818;stroke-width:0.5;"/><text fill="#000000" font-family="sans-serif" font-size="13" lengthAdjust="spacing" textLength="331" x="528.5" y="23.5684">planlagtUtfoert er hvis man har laget en milepel plan</text><text fill="#000000" font-family="sans-serif" font-size="13" lengthAdjust="spacing" textLength="423" x="528.5" y="38.8789">s&#229; kan man sette denne datoen for n&#229;r det er planlagt &#229; v&#230;re ferdig</text></g><!--class Milepeltype--><g id="elem_Milepeltype"><rect codeLine="32" fill="#F1F1F1" height="80.9766" id="Milepeltype" rx="2.5" ry="2.5" style="stroke:#181818;stroke-width:0.5;" width="184" x="28.5" y="437.22"/><ellipse cx="77.25" cy="453.22" fill="#ADD1B2" rx="11" ry="11" style="stroke:#181818;stroke-width:1.0;"/><path d="M79.7231,459.3631 Q79.1421,459.6619 78.5029,459.8113 Q77.8638,459.9607 77.1582,459.9607 Q74.6514,459.9607 73.3315,458.3089 Q72.0117,456.657 72.0117,453.5359 Q72.0117,450.4065 73.3315,448.7547 Q74.6514,447.1028 77.1582,447.1028 Q77.8638,447.1028 78.5112,447.2522 Q79.1587,447.4016 79.7231,447.7005 L79.7231,450.4231 Q79.0923,449.8421 78.4988,449.5723 Q77.9053,449.3025 77.2744,449.3025 Q75.9297,449.3025 75.2449,450.3692 Q74.5601,451.4358 74.5601,453.5359 Q74.5601,455.6277 75.2449,456.6944 Q75.9297,457.761 77.2744,457.761 Q77.9053,457.761 78.4988,457.4912 Q79.0923,457.2215 79.7231,456.6404 Z " fill="#000000"/><text fill="#000000" font-family="sans-serif" font-size="14" lengthAdjust="spacing" textLength="78" x="97.75" y="458.511">Milepeltype</text><line style="stroke:#181818;stroke-width:0.5;" x1="29.5" x2="211.5" y1="469.22" y2="469.22"/><ellipse cx="39.5" cy="482.9641" fill="none" rx="3" ry="3" style="stroke:#038048;stroke-width:1.0;"/><text fill="#000000" font-family="sans-serif" font-size="14" lengthAdjust="spacing" textLength="116" x="48.5" y="486.7552">kodeverdi: string</text><ellipse cx="39.5" cy="499.4524" fill="none" rx="3" ry="3" style="stroke:#038048;stroke-width:1.0;"/><text fill="#000000" font-family="sans-serif" font-size="14" lengthAdjust="spacing" textLength="158" x="48.5" y="503.2434">kodebeskrivelse: string</text><line style="stroke:#181818;stroke-width:0.5;" x1="29.5" x2="211.5" y1="510.1966" y2="510.1966"/></g><g id="elem_GMN13"><path d="M6,193.93 L6,265.1722 A0,0 0 0 0 6,265.1722 L116.5,265.1722 L120.5,436.93 L124.5,265.1722 L235,265.1722 A0,0 0 0 0 235,265.1722 L235,203.93 L225,193.93 L6,193.93 A0,0 0 0 0 6,193.93 " fill="#FEFFDD" style="stroke:#181818;stroke-width:0.5;"/><path d="M225,193.93 L225,203.93 L235,203.93 L225,193.93 " fill="#FEFFDD" style="stroke:#181818;stroke-width:0.5;"/><text fill="#000000" font-family="sans-serif" font-size="13" lengthAdjust="spacing" textLength="69" x="12" y="211.4984">Eksempler:</text><text fill="#000000" font-family="sans-serif" font-size="13" lengthAdjust="spacing" textLength="201" x="12" y="226.8089">Bestilling av oppstartsm&#248;te (BO)</text><text fill="#000000" font-family="sans-serif" font-size="13" lengthAdjust="spacing" textLength="208" x="12" y="242.1195">Gjennomf&#248;rt oppstartsm&#248;te (OM)</text><text fill="#000000" font-family="sans-serif" font-size="13" lengthAdjust="spacing" textLength="137" x="12" y="257.43">Mottak av planforslag</text></g><g id="elem_GMN16"><path d="M872,465.05 L872,490.3605 A0,0 0 0 0 872,490.3605 L1071,490.3605 A0,0 0 0 0 1071,490.3605 L1071,475.05 L1061,465.05 L964.47,465.05 L857.33,352.91 L956.47,465.05 L872,465.05 A0,0 0 0 0 872,465.05 " fill="#FEFFDD" style="stroke:#181818;stroke-width:0.5;"/><path d="M1061,465.05 L1061,475.05 L1071,475.05 L1061,465.05 " fill="#FEFFDD" style="stroke:#181818;stroke-width:0.5;"/><text fill="#000000" font-family="sans-serif" font-size="13" lengthAdjust="spacing" textLength="178" x="878" y="482.6184">frist og utfoert ikke p&#229;krevd</text></g><!--class MilepelStatusEnum--><g id="elem_MilepelStatusEnum"><rect codeLine="48" fill="#F1F1F1" height="80.9766" id="MilepelStatusEnum" rx="2.5" ry="2.5" style="stroke:#181818;stroke-width:0.5;" width="162" x="1106.5" y="437.22"/><ellipse cx="1121.5" cy="453.22" fill="#EB937F" rx="11" ry="11" style="stroke:#181818;stroke-width:1.0;"/><path d="M1125.1143,459.72 L1117.3945,459.72 L1117.3945,447.3269 L1125.1143,447.3269 L1125.1143,449.4851 L1119.8433,449.4851 L1119.8433,452.158 L1124.6162,452.158 L1124.6162,454.3162 L1119.8433,454.3162 L1119.8433,457.5618 L1125.1143,457.5618 Z " fill="#000000"/><text fill="#000000" font-family="sans-serif" font-size="14" lengthAdjust="spacing" textLength="130" x="1135.5" y="458.511">MilepelStatusEnum</text><line style="stroke:#181818;stroke-width:0.5;" x1="1107.5" x2="1267.5" y1="469.22" y2="469.22"/><ellipse cx="1117.5" cy="482.9641" fill="none" rx="3" ry="3" style="stroke:#038048;stroke-width:1.0;"/><text fill="#000000" font-family="sans-serif" font-size="14" lengthAdjust="spacing" textLength="36" x="1126.5" y="486.7552">N&#229;dd</text><ellipse cx="1117.5" cy="499.4524" fill="none" rx="3" ry="3" style="stroke:#038048;stroke-width:1.0;"/><text fill="#000000" font-family="sans-serif" font-size="14" lengthAdjust="spacing" textLength="55" x="1126.5" y="503.2434">Planlagt</text><line style="stroke:#181818;stroke-width:0.5;" x1="1107.5" x2="1267.5" y1="510.1966" y2="510.1966"/></g><!--link Milepel to Milepeltype--><g id="link_Milepel_Milepeltype"><path codeLine="25" d="M581.65,279.5 C478.98,312.47 344.71,359.51 230.5,412.48 C215.15,419.6 199.16,428.2 184.27,436.76 " fill="none" id="Milepel-Milepeltype" style="stroke:#181818;stroke-width:1.0;"/></g><!--link Milepel to ReferanseJournalpost--><g id="link_Milepel_ReferanseJournalpost"><path codeLine="37" d="M589.41,352.91 C563.41,373.42 537.38,393.96 514.2,412.24 " fill="none" id="Milepel-ReferanseJournalpost" style="stroke:#181818;stroke-width:1.0;"/></g><!--link Milepel to ReferanseDokumentfil--><g id="link_Milepel_ReferanseDokumentfil"><path codeLine="38" d="M744.5,352.91 C744.5,383.31 744.5,413.78 744.5,436.88 " fill="none" id="Milepel-ReferanseDokumentfil" style="stroke:#181818;stroke-width:1.0;"/></g><!--link Milepel to MilepelStatusEnum--><g id="link_Milepel_MilepelStatusEnum"><path codeLine="43" d="M907.14,312.78 C965.01,343.03 1030.24,378.27 1088.5,412.48 C1101.4,420.06 1114.99,428.53 1127.83,436.78 " fill="none" id="Milepel-MilepelStatusEnum" style="stroke:#181818;stroke-width:1.0;"/></g><!--link ReferanseJournalpost to EksternNoekkel--><g id="link_ReferanseJournalpost_EksternNoekkel"><path codeLine="44" d="M345.83,543.22 C315.36,565.9 282.03,590.71 255.08,610.77 " fill="none" id="ReferanseJournalpost-EksternNoekkel" style="stroke:#181818;stroke-width:1.0;"/></g><!--link ReferanseJournalpost to SaksJournalpostnummer--><g id="link_ReferanseJournalpost_SaksJournalpostnummer"><path codeLine="45" d="M535.31,543.22 C566.59,562.85 600.41,584.08 629.67,602.44 " fill="none" id="ReferanseJournalpost-SaksJournalpostnummer" style="stroke:#181818;stroke-width:1.0;"/></g><!--link ReferanseJournalpost to Journalnummer--><g id="link_ReferanseJournalpost_Journalnummer"><path codeLine="46" d="M432.5,543.22 C432.5,565.9 432.5,590.71 432.5,610.77 " fill="none" id="ReferanseJournalpost-Journalnummer" style="stroke:#181818;stroke-width:1.0;"/></g><!--SRC=[hLHDRzim3BtxLx2t3KCTxEfZqM1OWBJ3WjrwKIhQLVLbYBA1OiZFoNv3x_vZes8dTHptC7Gv1FBZ8_NuHF1AkKVJI8HyaUSBvtDDUQduZuIcKX26lFsQbsWCKewQ8WRdF6gDPl5e195KeWh2vdMJNVrBhMVV12UCQwp5yB5I0KiCmX4EDMjFyMCL4pOgzbz5IgyRYowMwjB1B3iWi5O6QpJmEmF-VQ4Nzjr-bmLG3CfLFRf5qa6rQ0ZF0rf4h7nGnR5EVAcn3vL1KIn0CgC7cbXw36TGROGpeeg_BaFAfVSlOEkzGU5wyDJPwisn0dxEe1F-xU34Y7pxPavFnh298eaukv9HqyGfIb74XavTRmwVItwyR9TbpaU4w6lmvSdU0YQz0WPuQXM15GwUH02E8QCEx92I4k31KRS7pQV48unSMg9pcApop2vz0DVj0wE7ciThWDFQxaz0u7wbghBiAENw-konvkIc04jUQa9R6mm5wxX1YieOVdeGBVYwfkGMsUwLqp_Tt7z-SD-UMPctPVVA_KqPzsjch7sCGgS2IITh9zOwIDXopDkHYW8ECmI-Wc5sGF4sWBhRwu2jdCxmGVKmnzfBR5FZatbbU6wOTsVsp0xKN7myGuEMkHYBsitvFngRkIiJSzdlmRj-3xvBs_0QM4stoBlirNWXPXdouLBIqScxRYzbV_mnp1PtynS0]--></g></svg>