<svg xmlns="http://www.w3.org/2000/svg" xmlns:xlink="http://www.w3.org/1999/xlink" contentStyleType="text/css" data-diagram-type="CLASS" height="707px" preserveAspectRatio="none" style="width:1656px;height:707px;background:#FFFFFF;" version="1.1" viewBox="0 0 1656 707" width="1656px" zoomAndPan="magnify"><defs/><g><!--class EksternNoekkel--><g id="elem_EksternNoekkel"><rect codeLine="2" fill="#F1F1F1" height="80.9766" id="EksternNoekkel" rx="2.5" ry="2.5" style="stroke:#181818;stroke-width:0.5;" width="143.7285" x="956.55" y="611.17"/><ellipse cx="974.4363" cy="627.17" fill="#ADD1B2" rx="11" ry="11" style="stroke:#181818;stroke-width:1;"/><path d="M976.9095,633.3131 Q976.3284,633.6119 975.6893,633.7613 Q975.0501,633.9107 974.3445,633.9107 Q971.8377,633.9107 970.5179,632.2589 Q969.198,630.607 969.198,627.4859 Q969.198,624.3565 970.5179,622.7047 Q971.8377,621.0528 974.3445,621.0528 Q975.0501,621.0528 975.6976,621.2022 Q976.345,621.3516 976.9095,621.6505 L976.9095,624.3731 Q976.2786,623.7921 975.6851,623.5223 Q975.0916,623.2525 974.4607,623.2525 Q973.116,623.2525 972.4312,624.3192 Q971.7464,625.3858 971.7464,627.4859 Q971.7464,629.5777 972.4312,630.6444 Q973.116,631.711 974.4607,631.711 Q975.0916,631.711 975.6851,631.4412 Q976.2786,631.1715 976.9095,630.5904 Z " fill="#000000"/><text fill="#000000" font-family="sans-serif" font-size="14" lengthAdjust="spacing" textLength="105.3145" x="989.0777" y="632.461">EksternNoekkel</text><line style="stroke:#181818;stroke-width:0.5;" x1="957.55" x2="1099.2785" y1="643.17" y2="643.17"/><ellipse cx="967.55" cy="656.9141" fill="#000000" rx="3" ry="3" style="stroke:#000000;stroke-width:1;"/><text fill="#000000" font-family="sans-serif" font-size="14" lengthAdjust="spacing" textLength="117.7285" x="976.55" y="660.7052">fagsystem: string</text><ellipse cx="967.55" cy="673.4024" fill="#000000" rx="3" ry="3" style="stroke:#000000;stroke-width:1;"/><text fill="#000000" font-family="sans-serif" font-size="14" lengthAdjust="spacing" textLength="101.7256" x="976.55" y="677.1934">noekkel: string</text><line style="stroke:#181818;stroke-width:0.5;" x1="957.55" x2="1099.2785" y1="684.1466" y2="684.1466"/></g><!--class Journalnummer--><g id="elem_Journalnummer"><rect codeLine="2" fill="#F1F1F1" height="80.9766" id="Journalnummer" rx="2.5" ry="2.5" style="stroke:#181818;stroke-width:0.5;" width="241.667" x="1135.58" y="611.17"/><ellipse cx="1199.7216" cy="627.17" fill="#ADD1B2" rx="11" ry="11" style="stroke:#181818;stroke-width:1;"/><path d="M1202.1947,633.3131 Q1201.6137,633.6119 1200.9745,633.7613 Q1200.3354,633.9107 1199.6298,633.9107 Q1197.123,633.9107 1195.8031,632.2589 Q1194.4833,630.607 1194.4833,627.4859 Q1194.4833,624.3565 1195.8031,622.7047 Q1197.123,621.0528 1199.6298,621.0528 Q1200.3354,621.0528 1200.9828,621.2022 Q1201.6303,621.3516 1202.1947,621.6505 L1202.1947,624.3731 Q1201.5639,623.7921 1200.9704,623.5223 Q1200.3769,623.2525 1199.746,623.2525 Q1198.4013,623.2525 1197.7165,624.3192 Q1197.0317,625.3858 1197.0317,627.4859 Q1197.0317,629.5777 1197.7165,630.6444 Q1198.4013,631.711 1199.746,631.711 Q1200.3769,631.711 1200.9704,631.4412 Q1201.5639,631.1715 1202.1947,630.5904 Z " fill="#000000"/><text fill="#000000" font-family="sans-serif" font-size="14" lengthAdjust="spacing" textLength="104.8838" x="1220.2216" y="632.461">Journalnummer</text><line style="stroke:#181818;stroke-width:0.5;" x1="1136.58" x2="1376.247" y1="643.17" y2="643.17"/><ellipse cx="1146.58" cy="656.9141" fill="#000000" rx="3" ry="3" style="stroke:#000000;stroke-width:1;"/><text fill="#000000" font-family="sans-serif" font-size="14" lengthAdjust="spacing" textLength="161.6768" x="1155.58" y="660.7052">journalnummer: integer</text><ellipse cx="1146.58" cy="673.4024" fill="#000000" rx="3" ry="3" style="stroke:#000000;stroke-width:1;"/><text fill="#000000" font-family="sans-serif" font-size="14" lengthAdjust="spacing" textLength="215.667" x="1155.58" y="677.1934">journalsekvensnummer: integer</text><line style="stroke:#181818;stroke-width:0.5;" x1="1136.58" x2="1376.247" y1="684.1466" y2="684.1466"/></g><!--class ReferanseJournalpost--><g id="elem_ReferanseJournalpost"><rect codeLine="2" fill="#F1F1F1" height="130.4414" id="ReferanseJournalpost" rx="2.5" ry="2.5" style="stroke:#181818;stroke-width:0.5;" width="350.9736" x="1080.93" y="412.48"/><ellipse cx="1180.0135" cy="428.48" fill="#ADD1B2" rx="11" ry="11" style="stroke:#181818;stroke-width:1;"/><path d="M1182.4866,434.6231 Q1181.9056,434.9219 1181.2664,435.0713 Q1180.6273,435.2207 1179.9217,435.2207 Q1177.4149,435.2207 1176.095,433.5689 Q1174.7752,431.917 1174.7752,428.7959 Q1174.7752,425.6665 1176.095,424.0147 Q1177.4149,422.3628 1179.9217,422.3628 Q1180.6273,422.3628 1181.2747,422.5122 Q1181.9222,422.6616 1182.4866,422.9605 L1182.4866,425.6831 Q1181.8558,425.1021 1181.2623,424.8323 Q1180.6688,424.5625 1180.0379,424.5625 Q1178.6932,424.5625 1178.0084,425.6292 Q1177.3236,426.6958 1177.3236,428.7959 Q1177.3236,430.8877 1178.0084,431.9544 Q1178.6932,433.021 1180.0379,433.021 Q1180.6688,433.021 1181.2623,432.7512 Q1181.8558,432.4815 1182.4866,431.9004 Z " fill="#000000"/><text fill="#000000" font-family="sans-serif" font-size="14" lengthAdjust="spacing" textLength="144.3066" x="1200.5135" y="433.771">ReferanseJournalpost</text><line style="stroke:#181818;stroke-width:0.5;" x1="1081.93" x2="1430.9036" y1="444.48" y2="444.48"/><text fill="#000000" font-family="sans-serif" font-size="14" lengthAdjust="spacing" textLength="108.9648" x="1086.93" y="462.0152">systemId: string</text><text fill="#000000" font-family="sans-serif" font-size="14" lengthAdjust="spacing" textLength="149.4814" x="1086.93" y="478.5034">registreringsID: string</text><text fill="#000000" font-family="sans-serif" font-size="14" lengthAdjust="spacing" textLength="218.5313" x="1086.93" y="494.9917">journalnummer: Journalnummer</text><text fill="#000000" font-family="sans-serif" font-size="14" lengthAdjust="spacing" textLength="338.9736" x="1086.93" y="511.48">saksJournalpostnummer: SaksJournalpostnummer</text><text fill="#000000" font-family="sans-serif" font-size="14" lengthAdjust="spacing" textLength="283.0488" x="1086.93" y="527.9683">referanseEksternNoekkel: EksternNoekkel</text><line style="stroke:#181818;stroke-width:0.5;" x1="1081.93" x2="1430.9036" y1="534.9214" y2="534.9214"/></g><g id="elem_GMN5"><path d="M247.72,457.39 L247.72,498.0111 L617.1048,498.0111 L617.1048,467.39 L607.1048,457.39 L247.72,457.39 " fill="#FEFFDD" style="stroke:#181818;stroke-width:0.5;"/><path d="M607.1048,457.39 L607.1048,467.39 L617.1048,467.39 L607.1048,457.39 " fill="#FEFFDD" style="stroke:#181818;stroke-width:1;"/><text fill="#000000" font-family="sans-serif" font-size="13" lengthAdjust="spacing" textLength="175.8936" x="253.72" y="474.9584">Ingen av feltene er p&#229;krevd,</text><text fill="#000000" font-family="sans-serif" font-size="13" lengthAdjust="spacing" textLength="344.2715" x="257.8333" y="490.2689">men man kan velge hvilken identifikator man vil bruke</text></g><!--class SaksJournalpostnummer--><g id="elem_SaksJournalpostnummer"><rect codeLine="2" fill="#F1F1F1" height="97.4648" id="SaksJournalpostnummer" rx="2.5" ry="2.5" style="stroke:#181818;stroke-width:0.5;" width="224.1123" x="1412.36" y="602.93"/><ellipse cx="1439.4441" cy="618.93" fill="#ADD1B2" rx="11" ry="11" style="stroke:#181818;stroke-width:1;"/><path d="M1441.9172,625.0731 Q1441.3362,625.3719 1440.697,625.5213 Q1440.0579,625.6707 1439.3523,625.6707 Q1436.8454,625.6707 1435.5256,624.0189 Q1434.2058,622.367 1434.2058,619.2459 Q1434.2058,616.1165 1435.5256,614.4647 Q1436.8454,612.8128 1439.3523,612.8128 Q1440.0579,612.8128 1440.7053,612.9622 Q1441.3528,613.1116 1441.9172,613.4105 L1441.9172,616.1331 Q1441.2864,615.5521 1440.6929,615.2823 Q1440.0994,615.0125 1439.4685,615.0125 Q1438.1238,615.0125 1437.439,616.0792 Q1436.7541,617.1458 1436.7541,619.2459 Q1436.7541,621.3377 1437.439,622.4044 Q1438.1238,623.471 1439.4685,623.471 Q1440.0994,623.471 1440.6929,623.2012 Q1441.2864,622.9315 1441.9172,622.3504 Z " fill="#000000"/><text fill="#000000" font-family="sans-serif" font-size="14" lengthAdjust="spacing" textLength="165.2588" x="1456.1294" y="624.221">SaksJournalpostnummer</text><line style="stroke:#181818;stroke-width:0.5;" x1="1413.36" x2="1635.4723" y1="634.93" y2="634.93"/><ellipse cx="1423.36" cy="648.6741" fill="#000000" rx="3" ry="3" style="stroke:#000000;stroke-width:1;"/><text fill="#000000" font-family="sans-serif" font-size="14" lengthAdjust="spacing" textLength="108.2676" x="1432.36" y="652.4652">saksaar: integer</text><ellipse cx="1423.36" cy="665.1624" fill="#000000" rx="3" ry="3" style="stroke:#000000;stroke-width:1;"/><text fill="#000000" font-family="sans-serif" font-size="14" lengthAdjust="spacing" textLength="198.1123" x="1432.36" y="668.9534">sakssekvensnummer: integer</text><ellipse cx="1423.36" cy="681.6507" fill="#000000" rx="3" ry="3" style="stroke:#000000;stroke-width:1;"/><text fill="#000000" font-family="sans-serif" font-size="14" lengthAdjust="spacing" textLength="191.4609" x="1432.36" y="685.4417">journalpostnummer: integer</text><line style="stroke:#181818;stroke-width:0.5;" x1="1413.36" x2="1635.4723" y1="692.3948" y2="692.3948"/></g><!--class ReferanseDokumentfil--><g id="elem_ReferanseDokumentfil"><rect codeLine="40" fill="#F1F1F1" height="80.9766" id="ReferanseDokumentfil" rx="2.5" ry="2.5" style="stroke:#181818;stroke-width:0.5;" width="182.6777" x="1467.08" y="437.22"/><ellipse cx="1482.08" cy="453.22" fill="#ADD1B2" rx="11" ry="11" style="stroke:#181818;stroke-width:1;"/><path d="M1484.5531,459.3631 Q1483.9721,459.6619 1483.3329,459.8113 Q1482.6938,459.9607 1481.9882,459.9607 Q1479.4814,459.9607 1478.1615,458.3089 Q1476.8417,456.657 1476.8417,453.5359 Q1476.8417,450.4065 1478.1615,448.7547 Q1479.4814,447.1028 1481.9882,447.1028 Q1482.6938,447.1028 1483.3412,447.2522 Q1483.9887,447.4016 1484.5531,447.7005 L1484.5531,450.4231 Q1483.9223,449.8421 1483.3288,449.5723 Q1482.7353,449.3025 1482.1044,449.3025 Q1480.7597,449.3025 1480.0749,450.3692 Q1479.3901,451.4358 1479.3901,453.5359 Q1479.3901,455.6277 1480.0749,456.6944 Q1480.7597,457.761 1482.1044,457.761 Q1482.7353,457.761 1483.3288,457.4912 Q1483.9223,457.2215 1484.5531,456.6404 Z " fill="#000000"/><text fill="#000000" font-family="sans-serif" font-size="14" lengthAdjust="spacing" textLength="150.6777" x="1496.08" y="458.511">ReferanseDokumentfil</text><line style="stroke:#181818;stroke-width:0.5;" x1="1468.08" x2="1648.7577" y1="469.22" y2="469.22"/><ellipse cx="1478.08" cy="482.9641" fill="#000000" rx="3" ry="3" style="stroke:#000000;stroke-width:1;"/><text fill="#000000" font-family="sans-serif" font-size="14" lengthAdjust="spacing" textLength="61.2842" x="1487.08" y="486.7552">id: string</text><ellipse cx="1478.08" cy="499.4524" fill="#000000" rx="3" ry="3" style="stroke:#000000;stroke-width:1;"/><text fill="#000000" font-family="sans-serif" font-size="14" lengthAdjust="spacing" textLength="66.8896" x="1487.08" y="503.2434">url: string</text><line style="stroke:#181818;stroke-width:0.5;" x1="1468.08" x2="1648.7577" y1="510.1966" y2="510.1966"/></g><!--class Milepel--><g id="elem_Milepel"><rect codeLine="8" fill="#F1F1F1" height="245.8594" id="Milepel" rx="2.5" ry="2.5" style="stroke:#181818;stroke-width:0.5;" width="320.3486" x="805.24" y="106.62"/><ellipse cx="936.8591" cy="122.62" fill="#ADD1B2" rx="11" ry="11" style="stroke:#181818;stroke-width:1;"/><path d="M939.3323,128.7631 Q938.7512,129.0619 938.1121,129.2113 Q937.4729,129.3607 936.7673,129.3607 Q934.2605,129.3607 932.9407,127.7089 Q931.6209,126.057 931.6209,122.9359 Q931.6209,119.8065 932.9407,118.1547 Q934.2605,116.5028 936.7673,116.5028 Q937.4729,116.5028 938.1204,116.6522 Q938.7678,116.8016 939.3323,117.1005 L939.3323,119.8231 Q938.7014,119.2421 938.1079,118.9723 Q937.5144,118.7025 936.8836,118.7025 Q935.5388,118.7025 934.854,119.7692 Q934.1692,120.8358 934.1692,122.9359 Q934.1692,125.0277 934.854,126.0944 Q935.5388,127.161 936.8836,127.161 Q937.5144,127.161 938.1079,126.8912 Q938.7014,126.6215 939.3323,126.0404 Z " fill="#000000"/><text fill="#000000" font-family="sans-serif" font-size="14" lengthAdjust="spacing" textLength="48.6104" x="957.3591" y="127.911">Milepel</text><line style="stroke:#181818;stroke-width:0.5;" x1="806.24" x2="1124.5886" y1="138.62" y2="138.62"/><ellipse cx="816.24" cy="152.3641" fill="#000000" rx="3" ry="3" style="stroke:#000000;stroke-width:1;"/><text fill="#000000" font-family="sans-serif" font-size="14" lengthAdjust="spacing" textLength="110.8926" x="825.24" y="156.1552">milepelId: string</text><ellipse cx="816.24" cy="168.8524" fill="#000000" rx="3" ry="3" style="stroke:#000000;stroke-width:1;"/><text fill="#000000" font-family="sans-serif" font-size="14" lengthAdjust="spacing" textLength="124.1611" x="825.24" y="172.6434">beskrivelse: string</text><text fill="#000000" font-family="sans-serif" font-size="14" lengthAdjust="spacing" textLength="165.416" x="825.24" y="189.1317">milepeltype: Milepeltype</text><text fill="#000000" font-family="sans-serif" font-size="14" lengthAdjust="spacing" textLength="65.7344" x="825.24" y="205.62">frist: date</text><text fill="#000000" font-family="sans-serif" font-size="14" lengthAdjust="spacing" textLength="84.875" x="825.24" y="222.1083">utfoert: date</text><text fill="#000000" font-family="sans-serif" font-size="14" lengthAdjust="spacing" textLength="140.9092" x="825.24" y="238.5966">planlagtUtfoert: date</text><ellipse cx="816.24" cy="251.2938" fill="#000000" rx="3" ry="3" style="stroke:#000000;stroke-width:1;"/><text fill="#000000" font-family="sans-serif" font-size="14" lengthAdjust="spacing" textLength="103.3252" x="825.24" y="255.0848">intern: boolean</text><text fill="#000000" font-family="sans-serif" font-size="14" lengthAdjust="spacing" textLength="294.3486" x="825.24" y="271.5731">referanseJournalpost: ReferanseJournalpost</text><text fill="#000000" font-family="sans-serif" font-size="14" lengthAdjust="spacing" textLength="293.8496" x="825.24" y="288.0614">referanseDokument: ReferanseDokumentfil</text><text fill="#000000" font-family="sans-serif" font-size="14" lengthAdjust="spacing" textLength="108.1377" x="825.24" y="304.5497">erStart: boolean</text><text fill="#000000" font-family="sans-serif" font-size="14" lengthAdjust="spacing" textLength="107.4131" x="825.24" y="321.038">erSlutt: boolean</text><ellipse cx="816.24" cy="333.7352" fill="#000000" rx="3" ry="3" style="stroke:#000000;stroke-width:1;"/><text fill="#000000" font-family="sans-serif" font-size="14" lengthAdjust="spacing" textLength="178.2402" x="825.24" y="337.5263">status: MilepelStatusEnum</text><line style="stroke:#181818;stroke-width:0.5;" x1="806.24" x2="1124.5886" y1="344.4794" y2="344.4794"/></g><g id="elem_GMN11"><path d="M740.82,6 L740.82,46.6211 A0,0 0 0 0 740.82,46.6211 L961.41,46.6211 L965.41,106.38 L969.41,46.6211 L1190.0012,46.6211 A0,0 0 0 0 1190.0012,46.6211 L1190.0012,16 L1180.0012,6 L740.82,6 A0,0 0 0 0 740.82,6 " fill="#FEFFDD" style="stroke:#181818;stroke-width:0.5;"/><path d="M1180.0012,6 L1180.0012,16 L1190.0012,16 L1180.0012,6 " fill="#FEFFDD" style="stroke:#181818;stroke-width:0.5;"/><text fill="#000000" font-family="sans-serif" font-size="13" lengthAdjust="spacing" textLength="333.4741" x="746.82" y="23.5684">planlagtUtfoert er hvis man har laget en milepel plan</text><text fill="#000000" font-family="sans-serif" font-size="13" lengthAdjust="spacing" textLength="428.1812" x="746.82" y="38.8789">s&#229; kan man sette denne datoen for n&#229;r det er planlagt &#229; v&#230;re ferdig</text></g><!--class Milepeltype--><g id="elem_Milepeltype"><rect codeLine="32" fill="#F1F1F1" height="80.9766" id="Milepeltype" rx="2.5" ry="2.5" style="stroke:#181818;stroke-width:0.5;" width="183.5547" x="29.64" y="437.22"/><ellipse cx="78.2811" cy="453.22" fill="#ADD1B2" rx="11" ry="11" style="stroke:#181818;stroke-width:1;"/><path d="M80.7543,459.3631 Q80.1732,459.6619 79.534,459.8113 Q78.8949,459.9607 78.1893,459.9607 Q75.6825,459.9607 74.3627,458.3089 Q73.0428,456.657 73.0428,453.5359 Q73.0428,450.4065 74.3627,448.7547 Q75.6825,447.1028 78.1893,447.1028 Q78.8949,447.1028 79.5423,447.2522 Q80.1898,447.4016 80.7543,447.7005 L80.7543,450.4231 Q80.1234,449.8421 79.5299,449.5723 Q78.9364,449.3025 78.3055,449.3025 Q76.9608,449.3025 76.276,450.3692 Q75.5912,451.4358 75.5912,453.5359 Q75.5912,455.6277 76.276,456.6944 Q76.9608,457.761 78.3055,457.761 Q78.9364,457.761 79.5299,457.4912 Q80.1234,457.2215 80.7543,456.6404 Z " fill="#000000"/><text fill="#000000" font-family="sans-serif" font-size="14" lengthAdjust="spacing" textLength="77.7725" x="98.7811" y="458.511">Milepeltype</text><line style="stroke:#181818;stroke-width:0.5;" x1="30.64" x2="212.1947" y1="469.22" y2="469.22"/><ellipse cx="40.64" cy="482.9641" fill="#FFFFFF" fill-opacity="0.00000" rx="3" ry="3" style="stroke:#038048;stroke-width:1;"/><text fill="#000000" font-family="sans-serif" font-size="14" lengthAdjust="spacing" textLength="115.4521" x="49.64" y="486.7552">kodeverdi: string</text><ellipse cx="40.64" cy="499.4524" fill="#FFFFFF" fill-opacity="0.00000" rx="3" ry="3" style="stroke:#038048;stroke-width:1;"/><text fill="#000000" font-family="sans-serif" font-size="14" lengthAdjust="spacing" textLength="157.5547" x="49.64" y="503.2434">kodebeskrivelse: string</text><line style="stroke:#181818;stroke-width:0.5;" x1="30.64" x2="212.1947" y1="510.1966" y2="510.1966"/></g><g id="elem_GMN16"><path d="M6,193.93 L6,265.1722 A0,0 0 0 0 6,265.1722 L117.41,265.1722 L121.41,436.93 L125.41,265.1722 L236.8281,265.1722 A0,0 0 0 0 236.8281,265.1722 L236.8281,203.93 L226.8281,193.93 L6,193.93 A0,0 0 0 0 6,193.93 " fill="#FEFFDD" style="stroke:#181818;stroke-width:0.5;"/><path d="M226.8281,193.93 L226.8281,203.93 L236.8281,203.93 L226.8281,193.93 " fill="#FEFFDD" style="stroke:#181818;stroke-width:0.5;"/><text fill="#000000" font-family="sans-serif" font-size="13" lengthAdjust="spacing" textLength="69.2656" x="12" y="211.4984">Eksempler:</text><text fill="#000000" font-family="sans-serif" font-size="13" lengthAdjust="spacing" textLength="201.7476" x="12" y="226.8089">Bestilling av oppstartsm&#248;te (BO)</text><text fill="#000000" font-family="sans-serif" font-size="13" lengthAdjust="spacing" textLength="209.8281" x="12" y="242.1195">Gjennomf&#248;rt oppstartsm&#248;te (OM)</text><text fill="#000000" font-family="sans-serif" font-size="13" lengthAdjust="spacing" textLength="136.7603" x="12" y="257.43">Mottak av planforslag</text></g><g id="elem_GMN19"><path d="M652.09,465.05 L652.09,490.3605 A0,0 0 0 0 652.09,490.3605 L850.7292,490.3605 A0,0 0 0 0 850.7292,490.3605 L850.7292,475.05 L840.7292,465.05 L765.81,465.05 L859.04,352.91 L757.81,465.05 L652.09,465.05 A0,0 0 0 0 652.09,465.05 " fill="#FEFFDD" style="stroke:#181818;stroke-width:0.5;"/><path d="M840.7292,465.05 L840.7292,475.05 L850.7292,475.05 L840.7292,465.05 " fill="#FEFFDD" style="stroke:#181818;stroke-width:0.5;"/><text fill="#000000" font-family="sans-serif" font-size="13" lengthAdjust="spacing" textLength="177.6392" x="658.09" y="482.6184">frist og utfoert ikke p&#229;krevd</text></g><!--class MilepelStatusEnum--><g id="elem_MilepelStatusEnum"><rect codeLine="48" fill="#F1F1F1" height="80.9766" id="MilepelStatusEnum" rx="2.5" ry="2.5" style="stroke:#181818;stroke-width:0.5;" width="160.2148" x="885.31" y="437.22"/><ellipse cx="900.31" cy="453.22" fill="#EB937F" rx="11" ry="11" style="stroke:#181818;stroke-width:1;"/><path d="M903.9243,459.72 L896.2045,459.72 L896.2045,447.3269 L903.9243,447.3269 L903.9243,449.4851 L898.6533,449.4851 L898.6533,452.158 L903.4262,452.158 L903.4262,454.3162 L898.6533,454.3162 L898.6533,457.5618 L903.9243,457.5618 Z " fill="#000000"/><text fill="#000000" font-family="sans-serif" font-size="14" lengthAdjust="spacing" textLength="128.2148" x="914.31" y="458.511">MilepelStatusEnum</text><line style="stroke:#181818;stroke-width:0.5;" x1="886.31" x2="1044.5248" y1="469.22" y2="469.22"/><ellipse cx="896.31" cy="482.9641" fill="#FFFFFF" fill-opacity="0.00000" rx="3" ry="3" style="stroke:#038048;stroke-width:1;"/><text fill="#000000" font-family="sans-serif" font-size="14" lengthAdjust="spacing" textLength="35.6973" x="905.31" y="486.7552">N&#229;dd</text><ellipse cx="896.31" cy="499.4524" fill="#FFFFFF" fill-opacity="0.00000" rx="3" ry="3" style="stroke:#038048;stroke-width:1;"/><text fill="#000000" font-family="sans-serif" font-size="14" lengthAdjust="spacing" textLength="53.9492" x="905.31" y="503.2434">Planlagt</text><line style="stroke:#181818;stroke-width:0.5;" x1="886.31" x2="1044.5248" y1="510.1966" y2="510.1966"/></g><!--link GMN5 to ReferanseJournalpost--><g id="link_GMN5_ReferanseJournalpost"><path d="M467.8,456.92 C509.97,433.46 583.38,396.71 651.91,382.48 C823.37,346.9 874.74,345.57 1045.91,382.48 C1075.61,388.89 1106.17,399.84 1134.47,412.09 " fill="#FFFFFF" fill-opacity="0.00000" id="GMN5-ReferanseJournalpost" style="stroke:#181818;stroke-width:1;stroke-dasharray:7.0,7.0;"/></g><!--link Milepel to Milepeltype--><g id="link_Milepel_Milepeltype"><path codeLine="25" d="M804.95,256.41 C653.16,284.06 420.89,334.74 230.41,412.48 C214.15,419.12 197.4,427.89 182.07,436.79 " fill="#FFFFFF" fill-opacity="0.00000" id="Milepel-Milepeltype" style="stroke:#181818;stroke-width:1;"/></g><!--link Milepel to ReferanseJournalpost--><g id="link_Milepel_ReferanseJournalpost"><path codeLine="37" d="M1110.06,352.91 C1134.31,373.42 1158.59,393.96 1180.21,412.24 " fill="#FFFFFF" fill-opacity="0.00000" id="Milepel-ReferanseJournalpost" style="stroke:#181818;stroke-width:1;"/></g><!--link Milepel to ReferanseDokumentfil--><g id="link_Milepel_ReferanseDokumentfil"><path codeLine="38" d="M1126.06,283.09 C1221.68,316.28 1344.43,362.29 1449.41,412.48 C1464.47,419.68 1480.2,428.27 1494.87,436.78 " fill="#FFFFFF" fill-opacity="0.00000" id="Milepel-ReferanseDokumentfil" style="stroke:#181818;stroke-width:1;"/></g><!--link Milepel to MilepelStatusEnum--><g id="link_Milepel_MilepelStatusEnum"><path codeLine="43" d="M965.41,352.91 C965.41,383.31 965.41,413.78 965.41,436.88 " fill="#FFFFFF" fill-opacity="0.00000" id="Milepel-MilepelStatusEnum" style="stroke:#181818;stroke-width:1;"/></g><!--link ReferanseJournalpost to EksternNoekkel--><g id="link_ReferanseJournalpost_EksternNoekkel"><path codeLine="44" d="M1170.87,543.22 C1140.79,565.9 1107.9,590.71 1081.3,610.77 " fill="#FFFFFF" fill-opacity="0.00000" id="ReferanseJournalpost-EksternNoekkel" style="stroke:#181818;stroke-width:1;"/></g><!--link ReferanseJournalpost to SaksJournalpostnummer--><g id="link_ReferanseJournalpost_SaksJournalpostnummer"><path codeLine="45" d="M1356.97,543.22 C1387.57,562.85 1420.65,584.08 1449.26,602.44 " fill="#FFFFFF" fill-opacity="0.00000" id="ReferanseJournalpost-SaksJournalpostnummer" style="stroke:#181818;stroke-width:1;"/></g><!--link ReferanseJournalpost to Journalnummer--><g id="link_ReferanseJournalpost_Journalnummer"><path codeLine="46" d="M1256.41,543.22 C1256.41,565.9 1256.41,590.71 1256.41,610.77 " fill="#FFFFFF" fill-opacity="0.00000" id="ReferanseJournalpost-Journalnummer" style="stroke:#181818;stroke-width:1;"/></g><!--SRC=[hLInRjim4Dtv5PUjTH4PNJK62O8QS5BKw9Q53ayEGueKU9I0el3dkD-GNJ_MeoJRigqCHQf18Dyz7jyz7kvAksTRAuHidcLpvpD3MQ7vHz9G8Gb3rdpD2hGMAKD34ODp7er1Et-saaXfkGcopAfQNFrBhbTV1oUjgyiImyTI1ImmI4SuvAmynOzbJDWesNyLgRofItInq9SE2j4XiDGMAxJmMm1_ixBVVbCvK0pQRNfuZMI2Rj0IdWG6UlnLCRuyRhfW4JJ579IC_RwEXSSmHYehdPMR-FCYCjCklNyEQ-yjIjU1Xy8MHyDo-361dj9l1nz6tDkZDHqNmohAf61y7uEsZcVWZAACDHtANNNREtuuiHN2-OWGVGM-E5YRdzV9YU6bqGIbTF0Y0t0C6NLxFxi3yEIetO7XLU8HHawjq3bCDdbc5pw0QtU1qIxd_XhWOqtx9o1mjKflXDXBkRu-UQKfkId0akyCOLbP33dhk46Asbf-TP0D-AgYP1QLxHiV_tJp-Fd9tR-oCbyMxHlNTyvuN39ZwMEK9YL8EbaxiTP1mffZlXofoFlk0R_PjmredWHGjJiJi57d_TkfxdluY_4AcrJuIQjsy5GVRq_icUocgVYuWmOjKp4MjPtoVzGsKrScvbq_0n_w6VWkRSKZO74-GTvbByR3K0ZanQMalPCFxKwfVlbzw2skvYy0]--></g></svg>