<svg xmlns="http://www.w3.org/2000/svg" xmlns:xlink="http://www.w3.org/1999/xlink" contentStyleType="text/css" data-diagram-type="CLASS" height="641px" preserveAspectRatio="none" style="width:1243px;height:641px;background:#FFFFFF;" version="1.1" viewBox="0 0 1243 641" width="1243px" zoomAndPan="magnify"><defs/><g><!--class EksternNoekkel--><g class="entity" data-entity="EksternNoekkel" data-source-line="2" data-uid="ent0002" id="entity_EksternNoekkel"><rect fill="#F1F1F1" height="80.9766" rx="2.5" ry="2.5" style="stroke:#181818;stroke-width:0.5;" width="143.7285" x="527.55" y="545.21"/><ellipse cx="545.4363" cy="561.21" fill="#ADD1B2" rx="11" ry="11" style="stroke:#181818;stroke-width:1;"/><path d="M547.9095,567.3531 Q547.3284,567.6519 546.6893,567.8013 Q546.0501,567.9507 545.3445,567.9507 Q542.8377,567.9507 541.5179,566.2989 Q540.198,564.647 540.198,561.5259 Q540.198,558.3965 541.5179,556.7447 Q542.8377,555.0928 545.3445,555.0928 Q546.0501,555.0928 546.6976,555.2422 Q547.345,555.3916 547.9095,555.6905 L547.9095,558.4131 Q547.2786,557.8321 546.6851,557.5623 Q546.0916,557.2925 545.4607,557.2925 Q544.116,557.2925 543.4312,558.3592 Q542.7464,559.4258 542.7464,561.5259 Q542.7464,563.6177 543.4312,564.6844 Q544.116,565.751 545.4607,565.751 Q546.0916,565.751 546.6851,565.4812 Q547.2786,565.2115 547.9095,564.6304 Z " fill="#000000"/><text fill="#000000" font-family="sans-serif" font-size="14" lengthAdjust="spacing" textLength="105.3145" x="560.0777" y="566.501">EksternNoekkel</text><line style="stroke:#181818;stroke-width:0.5;" x1="528.55" x2="670.2785" y1="577.21" y2="577.21"/><ellipse cx="538.55" cy="590.9541" fill="#000000" rx="3" ry="3" style="stroke:#000000;stroke-width:1;"/><text fill="#000000" font-family="sans-serif" font-size="14" lengthAdjust="spacing" textLength="117.7285" x="547.55" y="594.7452">fagsystem: string</text><ellipse cx="538.55" cy="607.4424" fill="#000000" rx="3" ry="3" style="stroke:#000000;stroke-width:1;"/><text fill="#000000" font-family="sans-serif" font-size="14" lengthAdjust="spacing" textLength="101.7256" x="547.55" y="611.2334">noekkel: string</text><line style="stroke:#181818;stroke-width:0.5;" x1="528.55" x2="670.2785" y1="618.1866" y2="618.1866"/></g><!--class Journalnummer--><g class="entity" data-entity="Journalnummer" data-source-line="2" data-uid="ent0003" id="entity_Journalnummer"><rect fill="#F1F1F1" height="80.9766" rx="2.5" ry="2.5" style="stroke:#181818;stroke-width:0.5;" width="241.667" x="706.58" y="545.21"/><ellipse cx="770.7216" cy="561.21" fill="#ADD1B2" rx="11" ry="11" style="stroke:#181818;stroke-width:1;"/><path d="M773.1947,567.3531 Q772.6137,567.6519 771.9745,567.8013 Q771.3354,567.9507 770.6298,567.9507 Q768.123,567.9507 766.8031,566.2989 Q765.4833,564.647 765.4833,561.5259 Q765.4833,558.3965 766.8031,556.7447 Q768.123,555.0928 770.6298,555.0928 Q771.3354,555.0928 771.9828,555.2422 Q772.6303,555.3916 773.1947,555.6905 L773.1947,558.4131 Q772.5639,557.8321 771.9704,557.5623 Q771.3769,557.2925 770.746,557.2925 Q769.4013,557.2925 768.7165,558.3592 Q768.0317,559.4258 768.0317,561.5259 Q768.0317,563.6177 768.7165,564.6844 Q769.4013,565.751 770.746,565.751 Q771.3769,565.751 771.9704,565.4812 Q772.5639,565.2115 773.1947,564.6304 Z " fill="#000000"/><text fill="#000000" font-family="sans-serif" font-size="14" lengthAdjust="spacing" textLength="104.8838" x="791.2216" y="566.501">Journalnummer</text><line style="stroke:#181818;stroke-width:0.5;" x1="707.58" x2="947.247" y1="577.21" y2="577.21"/><ellipse cx="717.58" cy="590.9541" fill="#000000" rx="3" ry="3" style="stroke:#000000;stroke-width:1;"/><text fill="#000000" font-family="sans-serif" font-size="14" lengthAdjust="spacing" textLength="125.8223" x="726.58" y="594.7452">journalaar: integer</text><ellipse cx="717.58" cy="607.4424" fill="#000000" rx="3" ry="3" style="stroke:#000000;stroke-width:1;"/><text fill="#000000" font-family="sans-serif" font-size="14" lengthAdjust="spacing" textLength="215.667" x="726.58" y="611.2334">journalsekvensnummer: integer</text><line style="stroke:#181818;stroke-width:0.5;" x1="707.58" x2="947.247" y1="618.1866" y2="618.1866"/></g><!--class ReferanseJournalpost--><g class="entity" data-entity="ReferanseJournalpost" data-source-line="2" data-uid="ent0004" id="entity_ReferanseJournalpost"><rect fill="#F1F1F1" height="130.4414" rx="2.5" ry="2.5" style="stroke:#181818;stroke-width:0.5;" width="350.9736" x="651.93" y="346.52"/><ellipse cx="751.0135" cy="362.52" fill="#ADD1B2" rx="11" ry="11" style="stroke:#181818;stroke-width:1;"/><path d="M753.4866,368.6631 Q752.9056,368.9619 752.2664,369.1113 Q751.6273,369.2607 750.9217,369.2607 Q748.4149,369.2607 747.095,367.6089 Q745.7752,365.957 745.7752,362.8359 Q745.7752,359.7065 747.095,358.0547 Q748.4149,356.4028 750.9217,356.4028 Q751.6273,356.4028 752.2747,356.5522 Q752.9222,356.7016 753.4866,357.0005 L753.4866,359.7231 Q752.8558,359.1421 752.2623,358.8723 Q751.6688,358.6025 751.0379,358.6025 Q749.6932,358.6025 749.0084,359.6692 Q748.3236,360.7358 748.3236,362.8359 Q748.3236,364.9277 749.0084,365.9944 Q749.6932,367.061 751.0379,367.061 Q751.6688,367.061 752.2623,366.7912 Q752.8558,366.5215 753.4866,365.9404 Z " fill="#000000"/><text fill="#000000" font-family="sans-serif" font-size="14" lengthAdjust="spacing" textLength="144.3066" x="771.5135" y="367.811">ReferanseJournalpost</text><line style="stroke:#181818;stroke-width:0.5;" x1="652.93" x2="1001.9036" y1="378.52" y2="378.52"/><text fill="#000000" font-family="sans-serif" font-size="14" lengthAdjust="spacing" textLength="108.9648" x="657.93" y="396.0552">systemId: string</text><text fill="#000000" font-family="sans-serif" font-size="14" lengthAdjust="spacing" textLength="147.8066" x="657.93" y="412.5434">registreringsId: string</text><text fill="#000000" font-family="sans-serif" font-size="14" lengthAdjust="spacing" textLength="218.5313" x="657.93" y="429.0317">journalnummer: Journalnummer</text><text fill="#000000" font-family="sans-serif" font-size="14" lengthAdjust="spacing" textLength="338.9736" x="657.93" y="445.52">saksJournalpostnummer: SaksJournalpostnummer</text><text fill="#000000" font-family="sans-serif" font-size="14" lengthAdjust="spacing" textLength="283.0488" x="657.93" y="462.0083">referanseEksternNoekkel: EksternNoekkel</text><line style="stroke:#181818;stroke-width:0.5;" x1="652.93" x2="1001.9036" y1="468.9614" y2="468.9614"/></g><g class="entity" data-entity="GMN5" data-source-line="11" data-uid="ent0006" id="entity_GMN5"><path d="M247.72,391.43 L247.72,432.0511 A0,0 0 0 0 247.72,432.0511 L617.1048,432.0511 A0,0 0 0 0 617.1048,432.0511 L617.1048,415.74 L651.59,411.74 L617.1048,407.74 L617.1048,401.43 L607.1048,391.43 L247.72,391.43 A0,0 0 0 0 247.72,391.43" fill="#FEFFDD" style="stroke:#181818;stroke-width:0.5;"/><path d="M607.1048,391.43 L607.1048,401.43 L617.1048,401.43 L607.1048,391.43" fill="#FEFFDD" style="stroke:#181818;stroke-width:0.5;"/><text fill="#000000" font-family="sans-serif" font-size="13" lengthAdjust="spacing" textLength="175.8936" x="253.72" y="408.9984">Ingen av feltene er p&#229;krevd,</text><text fill="#000000" font-family="sans-serif" font-size="13" lengthAdjust="spacing" textLength="344.2715" x="257.8333" y="424.3089">men man kan velge hvilken identifikator man vil bruke</text></g><!--class SaksJournalpostnummer--><g class="entity" data-entity="SaksJournalpostnummer" data-source-line="2" data-uid="ent0008" id="entity_SaksJournalpostnummer"><rect fill="#F1F1F1" height="97.4648" rx="2.5" ry="2.5" style="stroke:#181818;stroke-width:0.5;" width="224.1123" x="983.36" y="536.97"/><ellipse cx="1010.4441" cy="552.97" fill="#ADD1B2" rx="11" ry="11" style="stroke:#181818;stroke-width:1;"/><path d="M1012.9172,559.1131 Q1012.3362,559.4119 1011.697,559.5613 Q1011.0579,559.7107 1010.3523,559.7107 Q1007.8454,559.7107 1006.5256,558.0589 Q1005.2058,556.407 1005.2058,553.2859 Q1005.2058,550.1565 1006.5256,548.5047 Q1007.8454,546.8528 1010.3523,546.8528 Q1011.0579,546.8528 1011.7053,547.0022 Q1012.3528,547.1516 1012.9172,547.4505 L1012.9172,550.1731 Q1012.2864,549.5921 1011.6929,549.3223 Q1011.0994,549.0525 1010.4685,549.0525 Q1009.1238,549.0525 1008.439,550.1192 Q1007.7541,551.1858 1007.7541,553.2859 Q1007.7541,555.3777 1008.439,556.4444 Q1009.1238,557.511 1010.4685,557.511 Q1011.0994,557.511 1011.6929,557.2412 Q1012.2864,556.9715 1012.9172,556.3904 Z " fill="#000000"/><text fill="#000000" font-family="sans-serif" font-size="14" lengthAdjust="spacing" textLength="165.2588" x="1027.1294" y="558.261">SaksJournalpostnummer</text><line style="stroke:#181818;stroke-width:0.5;" x1="984.36" x2="1206.4723" y1="568.97" y2="568.97"/><ellipse cx="994.36" cy="582.7141" fill="#000000" rx="3" ry="3" style="stroke:#000000;stroke-width:1;"/><text fill="#000000" font-family="sans-serif" font-size="14" lengthAdjust="spacing" textLength="108.2676" x="1003.36" y="586.5052">saksaar: integer</text><ellipse cx="994.36" cy="599.2024" fill="#000000" rx="3" ry="3" style="stroke:#000000;stroke-width:1;"/><text fill="#000000" font-family="sans-serif" font-size="14" lengthAdjust="spacing" textLength="198.1123" x="1003.36" y="602.9934">sakssekvensnummer: integer</text><ellipse cx="994.36" cy="615.6907" fill="#000000" rx="3" ry="3" style="stroke:#000000;stroke-width:1;"/><text fill="#000000" font-family="sans-serif" font-size="14" lengthAdjust="spacing" textLength="191.4609" x="1003.36" y="619.4817">journalpostnummer: integer</text><line style="stroke:#181818;stroke-width:0.5;" x1="984.36" x2="1206.4723" y1="626.4348" y2="626.4348"/></g><!--class Milepel--><g class="entity" data-entity="Milepel" data-source-line="7" data-uid="ent0009" id="entity_Milepel"><rect fill="#F1F1F1" height="179.9063" rx="2.5" ry="2.5" style="stroke:#181818;stroke-width:0.5;" width="320.3486" x="667.24" y="106.62"/><ellipse cx="798.8591" cy="122.62" fill="#ADD1B2" rx="11" ry="11" style="stroke:#181818;stroke-width:1;"/><path d="M801.3323,128.7631 Q800.7512,129.0619 800.1121,129.2113 Q799.4729,129.3607 798.7673,129.3607 Q796.2605,129.3607 794.9407,127.7089 Q793.6209,126.057 793.6209,122.9359 Q793.6209,119.8065 794.9407,118.1547 Q796.2605,116.5028 798.7673,116.5028 Q799.4729,116.5028 800.1204,116.6522 Q800.7678,116.8016 801.3323,117.1005 L801.3323,119.8231 Q800.7014,119.2421 800.1079,118.9723 Q799.5144,118.7025 798.8836,118.7025 Q797.5388,118.7025 796.854,119.7692 Q796.1692,120.8358 796.1692,122.9359 Q796.1692,125.0277 796.854,126.0944 Q797.5388,127.161 798.8836,127.161 Q799.5144,127.161 800.1079,126.8912 Q800.7014,126.6215 801.3323,126.0404 Z " fill="#000000"/><text fill="#000000" font-family="sans-serif" font-size="14" lengthAdjust="spacing" textLength="48.6104" x="819.3591" y="127.911">Milepel</text><line style="stroke:#181818;stroke-width:0.5;" x1="668.24" x2="986.5886" y1="138.62" y2="138.62"/><ellipse cx="678.24" cy="152.3641" fill="#000000" rx="3" ry="3" style="stroke:#000000;stroke-width:1;"/><text fill="#000000" font-family="sans-serif" font-size="14" lengthAdjust="spacing" textLength="110.8926" x="687.24" y="156.1552">milepelId: string</text><ellipse cx="678.24" cy="168.8524" fill="#000000" rx="3" ry="3" style="stroke:#000000;stroke-width:1;"/><text fill="#000000" font-family="sans-serif" font-size="14" lengthAdjust="spacing" textLength="124.1611" x="687.24" y="172.6434">beskrivelse: string</text><text fill="#000000" font-family="sans-serif" font-size="14" lengthAdjust="spacing" textLength="165.416" x="687.24" y="189.1317">milepeltype: Milepeltype</text><text fill="#000000" font-family="sans-serif" font-size="14" lengthAdjust="spacing" textLength="65.7344" x="687.24" y="205.62">frist: date</text><text fill="#000000" font-family="sans-serif" font-size="14" lengthAdjust="spacing" textLength="84.875" x="687.24" y="222.1083">utfoert: date</text><text fill="#000000" font-family="sans-serif" font-size="14" lengthAdjust="spacing" textLength="140.9092" x="687.24" y="238.5966">planlagtUtfoert: date</text><ellipse cx="678.24" cy="251.2938" fill="#000000" rx="3" ry="3" style="stroke:#000000;stroke-width:1;"/><text fill="#000000" font-family="sans-serif" font-size="14" lengthAdjust="spacing" textLength="103.3252" x="687.24" y="255.0848">intern: boolean</text><text fill="#000000" font-family="sans-serif" font-size="14" lengthAdjust="spacing" textLength="294.3486" x="687.24" y="271.5731">referanseJournalpost: ReferanseJournalpost</text><line style="stroke:#181818;stroke-width:0.5;" x1="668.24" x2="986.5886" y1="278.5263" y2="278.5263"/></g><g class="entity" data-entity="GMN10" data-source-line="18" data-uid="ent0011" id="entity_GMN10"><path d="M602.82,6 L602.82,46.6211 A0,0 0 0 0 602.82,46.6211 L823.41,46.6211 L827.41,106.49 L831.41,46.6211 L1052.0012,46.6211 A0,0 0 0 0 1052.0012,46.6211 L1052.0012,16 L1042.0012,6 L602.82,6 A0,0 0 0 0 602.82,6" fill="#FEFFDD" style="stroke:#181818;stroke-width:0.5;"/><path d="M1042.0012,6 L1042.0012,16 L1052.0012,16 L1042.0012,6" fill="#FEFFDD" style="stroke:#181818;stroke-width:0.5;"/><text fill="#000000" font-family="sans-serif" font-size="13" lengthAdjust="spacing" textLength="333.4741" x="608.82" y="23.5684">planlagtUtfoert er hvis man har laget en milepel plan</text><text fill="#000000" font-family="sans-serif" font-size="13" lengthAdjust="spacing" textLength="428.1812" x="608.82" y="38.8789">s&#229; kan man sette denne datoen for n&#229;r det er planlagt &#229; v&#230;re ferdig</text></g><!--class Milepeltype--><g class="entity" data-entity="Milepeltype" data-source-line="20" data-uid="ent0013" id="entity_Milepeltype"><rect fill="#F1F1F1" height="80.9766" rx="2.5" ry="2.5" style="stroke:#181818;stroke-width:0.5;" width="183.5547" x="29.64" y="371.26"/><ellipse cx="78.2811" cy="387.26" fill="#ADD1B2" rx="11" ry="11" style="stroke:#181818;stroke-width:1;"/><path d="M80.7543,393.4031 Q80.1732,393.7019 79.534,393.8513 Q78.8949,394.0007 78.1893,394.0007 Q75.6825,394.0007 74.3627,392.3489 Q73.0428,390.697 73.0428,387.5759 Q73.0428,384.4465 74.3627,382.7947 Q75.6825,381.1428 78.1893,381.1428 Q78.8949,381.1428 79.5423,381.2922 Q80.1898,381.4416 80.7543,381.7405 L80.7543,384.4631 Q80.1234,383.8821 79.5299,383.6123 Q78.9364,383.3425 78.3055,383.3425 Q76.9608,383.3425 76.276,384.4092 Q75.5912,385.4758 75.5912,387.5759 Q75.5912,389.6677 76.276,390.7344 Q76.9608,391.801 78.3055,391.801 Q78.9364,391.801 79.5299,391.5312 Q80.1234,391.2615 80.7543,390.6804 Z " fill="#000000"/><text fill="#000000" font-family="sans-serif" font-size="14" lengthAdjust="spacing" textLength="77.7725" x="98.7811" y="392.551">Milepeltype</text><line style="stroke:#181818;stroke-width:0.5;" x1="30.64" x2="212.1947" y1="403.26" y2="403.26"/><ellipse cx="40.64" cy="417.0041" fill="none" rx="3" ry="3" style="stroke:#038048;stroke-width:1;"/><text fill="#000000" font-family="sans-serif" font-size="14" lengthAdjust="spacing" textLength="115.4521" x="49.64" y="420.7952">kodeverdi: string</text><ellipse cx="40.64" cy="433.4924" fill="none" rx="3" ry="3" style="stroke:#038048;stroke-width:1;"/><text fill="#000000" font-family="sans-serif" font-size="14" lengthAdjust="spacing" textLength="157.5547" x="49.64" y="437.2834">kodebeskrivelse: string</text><line style="stroke:#181818;stroke-width:0.5;" x1="30.64" x2="212.1947" y1="444.2366" y2="444.2366"/></g><g class="entity" data-entity="GMN15" data-source-line="22" data-uid="ent0016" id="entity_GMN15"><path d="M6,160.95 L6,232.1922 A0,0 0 0 0 6,232.1922 L117.41,232.1922 L121.41,370.95 L125.41,232.1922 L236.8281,232.1922 A0,0 0 0 0 236.8281,232.1922 L236.8281,170.95 L226.8281,160.95 L6,160.95 A0,0 0 0 0 6,160.95" fill="#FEFFDD" style="stroke:#181818;stroke-width:0.5;"/><path d="M226.8281,160.95 L226.8281,170.95 L236.8281,170.95 L226.8281,160.95" fill="#FEFFDD" style="stroke:#181818;stroke-width:0.5;"/><text fill="#000000" font-family="sans-serif" font-size="13" lengthAdjust="spacing" textLength="69.2656" x="12" y="178.5184">Eksempler:</text><text fill="#000000" font-family="sans-serif" font-size="13" lengthAdjust="spacing" textLength="201.7476" x="12" y="193.8289">Bestilling av oppstartsm&#248;te (BO)</text><text fill="#000000" font-family="sans-serif" font-size="13" lengthAdjust="spacing" textLength="209.8281" x="12" y="209.1395">Gjennomf&#248;rt oppstartsm&#248;te (OM)</text><text fill="#000000" font-family="sans-serif" font-size="13" lengthAdjust="spacing" textLength="136.7603" x="12" y="224.45">Mottak av planforslag</text></g><g class="entity" data-entity="GMN18" data-source-line="24" data-uid="ent0019" id="entity_GMN18"><path d="M1038.09,399.09 L1038.09,424.4005 A0,0 0 0 0 1038.09,424.4005 L1236.7292,424.4005 A0,0 0 0 0 1236.7292,424.4005 L1236.7292,409.09 L1226.7292,399.09 L1124.21,399.09 L957.09,286.74 L1116.21,399.09 L1038.09,399.09 A0,0 0 0 0 1038.09,399.09" fill="#FEFFDD" style="stroke:#181818;stroke-width:0.5;"/><path d="M1226.7292,399.09 L1226.7292,409.09 L1236.7292,409.09 L1226.7292,399.09" fill="#FEFFDD" style="stroke:#181818;stroke-width:0.5;"/><text fill="#000000" font-family="sans-serif" font-size="13" lengthAdjust="spacing" textLength="177.6392" x="1044.09" y="416.6584">frist og utfoert ikke p&#229;krevd</text></g><!--link Milepel to Milepeltype--><g class="link" data-entity-1="Milepel" data-entity-2="Milepeltype" data-source-line="20" data-uid="lnk14" id="link_Milepel_Milepeltype"><path codeLine="20" d="M666.98,224.58 C544.47,248.27 373.03,288.16 230.41,346.52 C214.15,353.18 197.41,361.95 182.07,370.86" fill="none" id="Milepel-Milepeltype" style="stroke:#181818;stroke-width:1;stroke-dasharray:7.0,7.0;"/></g><!--link Milepel to ReferanseJournalpost--><g class="link" data-entity-1="Milepel" data-entity-2="ReferanseJournalpost" data-source-line="32" data-uid="lnk21" id="link_Milepel_ReferanseJournalpost"><path codeLine="32" d="M827.41,286.74 C827.41,306.71 827.41,327.51 827.41,346.25" fill="none" id="Milepel-ReferanseJournalpost" style="stroke:#181818;stroke-width:1;stroke-dasharray:7.0,7.0;"/></g><!--link ReferanseJournalpost to EksternNoekkel--><g class="link" data-entity-1="ReferanseJournalpost" data-entity-2="EksternNoekkel" data-source-line="34" data-uid="lnk22" id="link_ReferanseJournalpost_EksternNoekkel"><path codeLine="34" d="M741.87,477.26 C711.79,499.94 678.9,524.75 652.3,544.81" fill="none" id="ReferanseJournalpost-EksternNoekkel" style="stroke:#181818;stroke-width:1;stroke-dasharray:7.0,7.0;"/></g><!--link ReferanseJournalpost to SaksJournalpostnummer--><g class="link" data-entity-1="ReferanseJournalpost" data-entity-2="SaksJournalpostnummer" data-source-line="35" data-uid="lnk23" id="link_ReferanseJournalpost_SaksJournalpostnummer"><path codeLine="35" d="M927.97,477.26 C958.57,496.89 991.65,518.12 1020.26,536.48" fill="none" id="ReferanseJournalpost-SaksJournalpostnummer" style="stroke:#181818;stroke-width:1;stroke-dasharray:7.0,7.0;"/></g><!--link ReferanseJournalpost to Journalnummer--><g class="link" data-entity-1="ReferanseJournalpost" data-entity-2="Journalnummer" data-source-line="36" data-uid="lnk24" id="link_ReferanseJournalpost_Journalnummer"><path codeLine="36" d="M827.41,477.26 C827.41,499.94 827.41,524.75 827.41,544.81" fill="none" id="ReferanseJournalpost-Journalnummer" style="stroke:#181818;stroke-width:1;stroke-dasharray:7.0,7.0;"/></g><!--SRC=[fLF1Rjim3BthAzZRrW4ATlMnG34iG5PWmswzA3Njgf8eGPGD34C_9_k6tlrZe-saJJBdCDG7mNfyUdeKoIjB3xwh4VHAwnL5xLWtLXOsZXl3c7N_MJVeFR96nmKpKKJdqAyUl66khMcp2Jfrwkf_j9vYbybuwaB0_3wfZ0rcGunxpHIvl4znn8x4BfXKQa9WOpqczF1RWNpNOTv-hIlWaYsrCxn5Tjdsw1bF0djw-PK4txnjfc2JBPSAQbFcVLUQYFaOITwGDstv-K_asj9OhGgsCNeqD86lRxL-Iw-2xmkeUbQAOa4eCK5iNhEipgy4pF3OMuPW21vD1ecXe7H8RJe0zyJ33fpyZJp68j8r4k7eE0gxYHbes6L19yt3DI37-k5FHX2JjMsLEbZH-kJ1bkoE0R5ywnX3yfWhyN63NAptKW0mFSIKk9XSE0mlSlp3pTt7U_ho9CvYQ8ONoU-SSRSHnYQMOjmeCFeKxonUznQs4elXo4Kr5n9YUwWWM1aXICFEPUphyrQQNC_jzCd56linyPEkcU2bbde-UPx5mgebT6JVplFzRPxlYxGVCXthy-cuo5uV3xea-XS0]--></g></svg>