<svg xmlns="http://www.w3.org/2000/svg" xmlns:xlink="http://www.w3.org/1999/xlink" contentStyleType="text/css" height="526px" preserveAspectRatio="none" style="width:885px;height:526px;background:#FFFFFF;" version="1.1" viewBox="0 0 885 526" width="885px" zoomAndPan="magnify"><defs/><g><!--class Milepel--><g id="elem_Milepel"><rect codeLine="2" fill="#F1F1F1" height="278.8359" id="Milepel" rx="2.5" ry="2.5" style="stroke:#181818;stroke-width:0.5;" width="218" x="172" y="91.31"/><ellipse cx="252.25" cy="107.31" fill="#ADD1B2" rx="11" ry="11" style="stroke:#181818;stroke-width:1.0;"/><path d="M254.7231,113.4531 Q254.1421,113.7519 253.5029,113.9013 Q252.8638,114.0507 252.1582,114.0507 Q249.6514,114.0507 248.3315,112.3989 Q247.0117,110.747 247.0117,107.6259 Q247.0117,104.4965 248.3315,102.8447 Q249.6514,101.1928 252.1582,101.1928 Q252.8638,101.1928 253.5112,101.3422 Q254.1587,101.4916 254.7231,101.7905 L254.7231,104.5131 Q254.0923,103.9321 253.4988,103.6623 Q252.9053,103.3925 252.2744,103.3925 Q250.9297,103.3925 250.2449,104.4592 Q249.5601,105.5258 249.5601,107.6259 Q249.5601,109.7177 250.2449,110.7844 Q250.9297,111.851 252.2744,111.851 Q252.9053,111.851 253.4988,111.5812 Q254.0923,111.3115 254.7231,110.7304 Z " fill="#000000"/><text fill="#000000" font-family="sans-serif" font-size="14" lengthAdjust="spacing" textLength="49" x="272.75" y="112.601">Milepel</text><line style="stroke:#181818;stroke-width:0.5;" x1="173" x2="389" y1="123.31" y2="123.31"/><ellipse cx="183" cy="137.0541" fill="none" rx="3" ry="3" style="stroke:#038048;stroke-width:1.0;"/><text fill="#000000" font-family="sans-serif" font-size="14" lengthAdjust="spacing" textLength="108" x="192" y="140.8452">systemId: string</text><ellipse cx="183" cy="153.5424" fill="none" rx="3" ry="3" style="stroke:#038048;stroke-width:1.0;"/><text fill="#000000" font-family="sans-serif" font-size="14" lengthAdjust="spacing" textLength="124" x="192" y="157.3334">beskrivelse: string</text><ellipse cx="183" cy="170.0307" fill="none" rx="3" ry="3" style="stroke:#038048;stroke-width:1.0;"/><text fill="#000000" font-family="sans-serif" font-size="14" lengthAdjust="spacing" textLength="143" x="192" y="173.8217">kategori: Milepeltype</text><ellipse cx="183" cy="186.519" fill="none" rx="3" ry="3" style="stroke:#038048;stroke-width:1.0;"/><text fill="#000000" font-family="sans-serif" font-size="14" lengthAdjust="spacing" textLength="65" x="192" y="190.31">frist: date</text><ellipse cx="183" cy="203.0073" fill="none" rx="3" ry="3" style="stroke:#038048;stroke-width:1.0;"/><text fill="#000000" font-family="sans-serif" font-size="14" lengthAdjust="spacing" textLength="85" x="192" y="206.7983">utfoert: date</text><ellipse cx="183" cy="219.4955" fill="none" rx="3" ry="3" style="stroke:#038048;stroke-width:1.0;"/><text fill="#000000" font-family="sans-serif" font-size="14" lengthAdjust="spacing" textLength="118" x="192" y="223.2866">journaldato: date</text><ellipse cx="183" cy="235.9838" fill="none" rx="3" ry="3" style="stroke:#038048;stroke-width:1.0;"/><text fill="#000000" font-family="sans-serif" font-size="14" lengthAdjust="spacing" textLength="105" x="192" y="239.7748">intern: boolean</text><ellipse cx="183" cy="252.4721" fill="none" rx="3" ry="3" style="stroke:#038048;stroke-width:1.0;"/><text fill="#000000" font-family="sans-serif" font-size="14" lengthAdjust="spacing" textLength="192" x="192" y="256.2631">referanseJournalpost: string</text><ellipse cx="183" cy="268.9604" fill="none" rx="3" ry="3" style="stroke:#038048;stroke-width:1.0;"/><text fill="#000000" font-family="sans-serif" font-size="14" lengthAdjust="spacing" textLength="184" x="192" y="272.7514">referanseDokument: string</text><ellipse cx="183" cy="285.4487" fill="none" rx="3" ry="3" style="stroke:#038048;stroke-width:1.0;"/><text fill="#000000" font-family="sans-serif" font-size="14" lengthAdjust="spacing" textLength="110" x="192" y="289.2397">erStart: boolean</text><ellipse cx="183" cy="301.937" fill="none" rx="3" ry="3" style="stroke:#038048;stroke-width:1.0;"/><text fill="#000000" font-family="sans-serif" font-size="14" lengthAdjust="spacing" textLength="109" x="192" y="305.728">erSlutt: boolean</text><ellipse cx="183" cy="318.4252" fill="none" rx="3" ry="3" style="stroke:#038048;stroke-width:1.0;"/><text fill="#000000" font-family="sans-serif" font-size="14" lengthAdjust="spacing" textLength="179" x="192" y="322.2163">status: MilepelStatusEnum</text><ellipse cx="183" cy="334.9135" fill="none" rx="3" ry="3" style="stroke:#038048;stroke-width:1.0;"/><text fill="#000000" font-family="sans-serif" font-size="14" lengthAdjust="spacing" textLength="122" x="192" y="338.7045">erGlobal: boolean</text><ellipse cx="183" cy="351.4018" fill="none" rx="3" ry="3" style="stroke:#038048;stroke-width:1.0;"/><text fill="#000000" font-family="sans-serif" font-size="14" lengthAdjust="spacing" textLength="173" x="192" y="355.1928">dokumenter: Dokument[]</text><line style="stroke:#181818;stroke-width:0.5;" x1="173" x2="389" y1="362.1459" y2="362.1459"/></g><!--class Milepeltype--><g id="elem_Milepeltype"><rect codeLine="21" fill="#F1F1F1" height="80.9766" id="Milepeltype" rx="2.5" ry="2.5" style="stroke:#181818;stroke-width:0.5;" width="184" x="7" y="434.45"/><ellipse cx="55.75" cy="450.45" fill="#ADD1B2" rx="11" ry="11" style="stroke:#181818;stroke-width:1.0;"/><path d="M58.2231,456.5931 Q57.6421,456.8919 57.0029,457.0413 Q56.3638,457.1907 55.6582,457.1907 Q53.1514,457.1907 51.8315,455.5389 Q50.5117,453.887 50.5117,450.7659 Q50.5117,447.6365 51.8315,445.9847 Q53.1514,444.3328 55.6582,444.3328 Q56.3638,444.3328 57.0112,444.4822 Q57.6587,444.6316 58.2231,444.9305 L58.2231,447.6531 Q57.5923,447.0721 56.9988,446.8023 Q56.4053,446.5325 55.7744,446.5325 Q54.4297,446.5325 53.7449,447.5992 Q53.0601,448.6658 53.0601,450.7659 Q53.0601,452.8577 53.7449,453.9244 Q54.4297,454.991 55.7744,454.991 Q56.4053,454.991 56.9988,454.7212 Q57.5923,454.4515 58.2231,453.8704 Z " fill="#000000"/><text fill="#000000" font-family="sans-serif" font-size="14" lengthAdjust="spacing" textLength="78" x="76.25" y="455.741">Milepeltype</text><line style="stroke:#181818;stroke-width:0.5;" x1="8" x2="190" y1="466.45" y2="466.45"/><ellipse cx="18" cy="480.1941" fill="none" rx="3" ry="3" style="stroke:#038048;stroke-width:1.0;"/><text fill="#000000" font-family="sans-serif" font-size="14" lengthAdjust="spacing" textLength="116" x="27" y="483.9852">kodeverdi: string</text><ellipse cx="18" cy="496.6824" fill="none" rx="3" ry="3" style="stroke:#038048;stroke-width:1.0;"/><text fill="#000000" font-family="sans-serif" font-size="14" lengthAdjust="spacing" textLength="158" x="27" y="500.4734">kodebeskrivelse: string</text><line style="stroke:#181818;stroke-width:0.5;" x1="8" x2="190" y1="507.4266" y2="507.4266"/></g><!--class MilepelStatusEnum--><g id="elem_MilepelStatusEnum"><rect codeLine="29" fill="#F1F1F1" height="80.9766" id="MilepelStatusEnum" rx="2.5" ry="2.5" style="stroke:#181818;stroke-width:0.5;" width="162" x="226" y="434.45"/><ellipse cx="241" cy="450.45" fill="#EB937F" rx="11" ry="11" style="stroke:#181818;stroke-width:1.0;"/><path d="M244.6143,456.95 L236.8945,456.95 L236.8945,444.5569 L244.6143,444.5569 L244.6143,446.7151 L239.3433,446.7151 L239.3433,449.388 L244.1162,449.388 L244.1162,451.5462 L239.3433,451.5462 L239.3433,454.7918 L244.6143,454.7918 Z " fill="#000000"/><text fill="#000000" font-family="sans-serif" font-size="14" lengthAdjust="spacing" textLength="130" x="255" y="455.741">MilepelStatusEnum</text><line style="stroke:#181818;stroke-width:0.5;" x1="227" x2="387" y1="466.45" y2="466.45"/><ellipse cx="237" cy="480.1941" fill="none" rx="3" ry="3" style="stroke:#038048;stroke-width:1.0;"/><text fill="#000000" font-family="sans-serif" font-size="14" lengthAdjust="spacing" textLength="36" x="246" y="483.9852">N&#229;dd</text><ellipse cx="237" cy="496.6824" fill="none" rx="3" ry="3" style="stroke:#038048;stroke-width:1.0;"/><text fill="#000000" font-family="sans-serif" font-size="14" lengthAdjust="spacing" textLength="55" x="246" y="500.4734">Planlagt</text><line style="stroke:#181818;stroke-width:0.5;" x1="227" x2="387" y1="507.4266" y2="507.4266"/></g><!--class Dokument--><g id="elem_Dokument"><rect codeLine="35" fill="#F1F1F1" height="179.9063" id="Dokument" rx="2.5" ry="2.5" style="stroke:#181818;stroke-width:0.5;" width="335" x="425.5" y="140.77"/><ellipse cx="553.25" cy="156.77" fill="#ADD1B2" rx="11" ry="11" style="stroke:#181818;stroke-width:1.0;"/><path d="M555.7231,162.9131 Q555.1421,163.2119 554.5029,163.3613 Q553.8638,163.5107 553.1582,163.5107 Q550.6514,163.5107 549.3315,161.8589 Q548.0117,160.207 548.0117,157.0859 Q548.0117,153.9565 549.3315,152.3047 Q550.6514,150.6528 553.1582,150.6528 Q553.8638,150.6528 554.5112,150.8022 Q555.1587,150.9516 555.7231,151.2505 L555.7231,153.9731 Q555.0923,153.3921 554.4988,153.1223 Q553.9053,152.8525 553.2744,152.8525 Q551.9297,152.8525 551.2449,153.9192 Q550.5601,154.9858 550.5601,157.0859 Q550.5601,159.1777 551.2449,160.2444 Q551.9297,161.311 553.2744,161.311 Q553.9053,161.311 554.4988,161.0412 Q555.0923,160.7715 555.7231,160.1904 Z " fill="#000000"/><text fill="#000000" font-family="sans-serif" font-size="14" lengthAdjust="spacing" textLength="71" x="573.75" y="162.061">Dokument</text><line style="stroke:#181818;stroke-width:0.5;" x1="426.5" x2="759.5" y1="172.77" y2="172.77"/><ellipse cx="436.5" cy="186.5141" fill="none" rx="3" ry="3" style="stroke:#038048;stroke-width:1.0;"/><text fill="#000000" font-family="sans-serif" font-size="14" lengthAdjust="spacing" textLength="61" x="445.5" y="190.3052">id: string</text><ellipse cx="436.5" cy="203.0024" fill="none" rx="3" ry="3" style="stroke:#038048;stroke-width:1.0;"/><text fill="#000000" font-family="sans-serif" font-size="14" lengthAdjust="spacing" textLength="79" x="445.5" y="206.7934">tittel: string</text><ellipse cx="436.5" cy="219.4907" fill="none" rx="3" ry="3" style="stroke:#038048;stroke-width:1.0;"/><text fill="#000000" font-family="sans-serif" font-size="14" lengthAdjust="spacing" textLength="94" x="445.5" y="223.2817">filnavn: string</text><ellipse cx="436.5" cy="235.979" fill="none" rx="3" ry="3" style="stroke:#038048;stroke-width:1.0;"/><text fill="#000000" font-family="sans-serif" font-size="14" lengthAdjust="spacing" textLength="207" x="445.5" y="239.77">dokumenttype: Dokumenttype</text><ellipse cx="436.5" cy="252.4673" fill="none" rx="3" ry="3" style="stroke:#038048;stroke-width:1.0;"/><text fill="#000000" font-family="sans-serif" font-size="14" lengthAdjust="spacing" textLength="309" x="445.5" y="256.2583">referanseDokumentfil: ReferanseDokumentfil</text><ellipse cx="436.5" cy="268.9555" fill="none" rx="3" ry="3" style="stroke:#038048;stroke-width:1.0;"/><text fill="#000000" font-family="sans-serif" font-size="14" lengthAdjust="spacing" textLength="115" x="445.5" y="272.7466">mimetype: string</text><ellipse cx="436.5" cy="285.4438" fill="none" rx="3" ry="3" style="stroke:#038048;stroke-width:1.0;"/><text fill="#000000" font-family="sans-serif" font-size="14" lengthAdjust="spacing" textLength="146" x="445.5" y="289.2348">dokumentsdato: date</text><ellipse cx="436.5" cy="301.9321" fill="none" rx="3" ry="3" style="stroke:#038048;stroke-width:1.0;"/><text fill="#000000" font-family="sans-serif" font-size="14" lengthAdjust="spacing" textLength="114" x="445.5" y="305.7231">arkivnavn: string</text><line style="stroke:#181818;stroke-width:0.5;" x1="426.5" x2="759.5" y1="312.6763" y2="312.6763"/></g><g id="elem_GMN9"><path d="M487.5,6 L487.5,31.3105 A0,0 0 0 0 487.5,31.3105 L589,31.3105 L593,140.3 L597,31.3105 L698.5,31.3105 A0,0 0 0 0 698.5,31.3105 L698.5,16 L688.5,6 L487.5,6 A0,0 0 0 0 487.5,6 " fill="#FEFFDD" style="stroke:#181818;stroke-width:0.5;"/><path d="M688.5,6 L688.5,16 L698.5,16 L688.5,6 " fill="#FEFFDD" style="stroke:#181818;stroke-width:0.5;"/><text fill="#000000" font-family="sans-serif" font-size="13" lengthAdjust="spacing" textLength="190" x="493.5" y="23.5684">Hentet definisjon fra Fiks Plan</text></g><!--class Dokumenttype--><g id="elem_Dokumenttype"><rect codeLine="51" fill="#F1F1F1" height="89.5977" id="Dokumenttype" rx="2.5" ry="2.5" style="stroke:#181818;stroke-width:0.5;" width="184" x="475" y="430.14"/><ellipse cx="513.4" cy="450.4505" fill="#ADD1B2" rx="11" ry="11" style="stroke:#181818;stroke-width:1.0;"/><path d="M515.8731,456.5936 Q515.2921,456.8924 514.6529,457.0419 Q514.0138,457.1913 513.3082,457.1913 Q510.8014,457.1913 509.4815,455.5394 Q508.1617,453.8876 508.1617,450.7665 Q508.1617,447.6371 509.4815,445.9852 Q510.8014,444.3334 513.3082,444.3334 Q514.0138,444.3334 514.6612,444.4828 Q515.3087,444.6322 515.8731,444.931 L515.8731,447.6537 Q515.2423,447.0726 514.6488,446.8028 Q514.0553,446.5331 513.4244,446.5331 Q512.0797,446.5331 511.3949,447.5997 Q510.7101,448.6664 510.7101,450.7665 Q510.7101,452.8583 511.3949,453.9249 Q512.0797,454.9916 513.4244,454.9916 Q514.0553,454.9916 514.6488,454.7218 Q515.2423,454.452 515.8731,453.871 Z " fill="#000000"/><text fill="#000000" font-family="sans-serif" font-size="12" font-style="italic" lengthAdjust="spacing" textLength="42" x="561.6" y="446.7416">&#171;Kode&#187;</text><text fill="#000000" font-family="sans-serif" font-size="14" lengthAdjust="spacing" textLength="100" x="532.6" y="462.808">Dokumenttype</text><line style="stroke:#181818;stroke-width:0.5;" x1="476" x2="658" y1="470.7611" y2="470.7611"/><ellipse cx="486" cy="484.5052" fill="none" rx="3" ry="3" style="stroke:#038048;stroke-width:1.0;"/><text fill="#000000" font-family="sans-serif" font-size="14" lengthAdjust="spacing" textLength="116" x="495" y="488.2963">kodeverdi: string</text><ellipse cx="486" cy="500.9935" fill="none" rx="3" ry="3" style="stroke:#038048;stroke-width:1.0;"/><text fill="#000000" font-family="sans-serif" font-size="14" lengthAdjust="spacing" textLength="158" x="495" y="504.7845">kodebeskrivelse: string</text><line style="stroke:#181818;stroke-width:0.5;" x1="476" x2="658" y1="511.7377" y2="511.7377"/></g><!--class ReferanseDokumentfil--><g id="elem_ReferanseDokumentfil"><rect codeLine="56" fill="#F1F1F1" height="80.9766" id="ReferanseDokumentfil" rx="2.5" ry="2.5" style="stroke:#181818;stroke-width:0.5;" width="184" x="694" y="434.45"/><ellipse cx="709" cy="450.45" fill="#ADD1B2" rx="11" ry="11" style="stroke:#181818;stroke-width:1.0;"/><path d="M711.4731,456.5931 Q710.8921,456.8919 710.2529,457.0413 Q709.6138,457.1907 708.9082,457.1907 Q706.4014,457.1907 705.0815,455.5389 Q703.7617,453.887 703.7617,450.7659 Q703.7617,447.6365 705.0815,445.9847 Q706.4014,444.3328 708.9082,444.3328 Q709.6138,444.3328 710.2612,444.4822 Q710.9087,444.6316 711.4731,444.9305 L711.4731,447.6531 Q710.8423,447.0721 710.2488,446.8023 Q709.6553,446.5325 709.0244,446.5325 Q707.6797,446.5325 706.9949,447.5992 Q706.3101,448.6658 706.3101,450.7659 Q706.3101,452.8577 706.9949,453.9244 Q707.6797,454.991 709.0244,454.991 Q709.6553,454.991 710.2488,454.7212 Q710.8423,454.4515 711.4731,453.8704 Z " fill="#000000"/><text fill="#000000" font-family="sans-serif" font-size="14" lengthAdjust="spacing" textLength="152" x="723" y="455.741">ReferanseDokumentfil</text><line style="stroke:#181818;stroke-width:0.5;" x1="695" x2="877" y1="466.45" y2="466.45"/><ellipse cx="705" cy="480.1941" fill="none" rx="3" ry="3" style="stroke:#038048;stroke-width:1.0;"/><text fill="#000000" font-family="sans-serif" font-size="14" lengthAdjust="spacing" textLength="61" x="714" y="483.9852">id: string</text><ellipse cx="705" cy="496.6824" fill="none" rx="3" ry="3" style="stroke:#038048;stroke-width:1.0;"/><text fill="#000000" font-family="sans-serif" font-size="14" lengthAdjust="spacing" textLength="67" x="714" y="500.4734">url: string</text><line style="stroke:#181818;stroke-width:0.5;" x1="695" x2="877" y1="507.4266" y2="507.4266"/></g><!--link Milepel to Milepeltype--><g id="link_Milepel_Milepeltype"><path codeLine="19" d="M176.71,370.52 C159.24,393.77 142.43,416.14 128.95,434.08 " fill="none" id="Milepel-Milepeltype" style="stroke:#181818;stroke-width:1.0;"/></g><!--link Milepel to MilepelStatusEnum--><g id="link_Milepel_MilepelStatusEnum"><path codeLine="26" d="M295.9,370.52 C298.39,393.77 300.8,416.14 302.72,434.08 " fill="none" id="Milepel-MilepelStatusEnum" style="stroke:#181818;stroke-width:1.0;"/></g><!--link Milepel to Dokument--><g id="link_Milepel_Dokument"><path codeLine="27" d="M390.38,230.72 C401.99,230.72 401.6,230.72 413.21,230.72 " fill="none" id="Milepel-to-Dokument" style="stroke:#181818;stroke-width:1.0;"/><polygon fill="#181818" points="425.21,230.72,419.21,226.72,413.21,230.72,419.21,234.72,425.21,230.72" style="stroke:#181818;stroke-width:1.0;"/></g><!--link Dokument to Dokumenttype--><g id="link_Dokument_Dokumenttype"><path codeLine="48" d="M583.43,320.89 C579.45,357.98 575,399.38 571.74,429.76 " fill="none" id="Dokument-Dokumenttype" style="stroke:#181818;stroke-width:1.0;"/></g><!--link Dokument to ReferanseDokumentfil--><g id="link_Dokument_ReferanseDokumentfil"><path codeLine="49" d="M664.04,320.89 C695,359.73 729.72,403.31 754.17,433.99 " fill="none" id="Dokument-ReferanseDokumentfil" style="stroke:#181818;stroke-width:1.0;"/></g><!--SRC=[dLBBJiCm4BpxA_OCwWz4g2VU28Je4N5mwqtbnh6ZzIPIXVWSleGVmwdhD4x3XPxIsVNixCnkZFGUdhN11Wry2WY_Ix_tZFM3Ai0pQRkDw1fzHRf3up4lL99nwqWNYOVt3SPIITfp0IfqHA3bqY5bqCwrPAK9W1l3sZAIBM3jd45f8qXO8adhyJ4-QbnFFnOpT5oxggtHJif8AvRz_8mseARbAUfPSkk7hLQ7lpUshTEZE-FMqanUgUDSf0AIXlSFyIL4Sdcno8mIct46FPHog9p23adfYTy1dWjZTiH8zL2y68G9WQ5otfiKlFnyAnK_NusqHcwv7tEKd5XIjvvS36jcD3bMQcDbPtCmUTOlVtBjT4PdeGQM0jvcqDXVwneZrzmKFpqrIPNkCbLXH-iOWLq3hZmjMi1z7os3mb9RxNVEGaaIRdNbeNT8YA4tP91jCYxCIf-uUhY4gwkdaFPo-V-JYAHp0_-AhIKp9lW5]--></g></svg>