<svg xmlns="http://www.w3.org/2000/svg" xmlns:xlink="http://www.w3.org/1999/xlink" contentStyleType="text/css" height="707px" preserveAspectRatio="none" style="width:1261px;height:707px;background:#FFFFFF;" version="1.1" viewBox="0 0 1261 707" width="1261px" zoomAndPan="magnify"><defs/><g><!--class EksternNoekkel--><g id="elem_EksternNoekkel"><rect codeLine="2" fill="#F1F1F1" height="80.9766" id="EksternNoekkel" rx="2.5" ry="2.5" style="stroke:#181818;stroke-width:0.5;" width="143" x="123" y="611.17"/><ellipse cx="140.25" cy="627.17" fill="#ADD1B2" rx="11" ry="11" style="stroke:#181818;stroke-width:1.0;"/><path d="M142.7231,633.3131 Q142.1421,633.6119 141.5029,633.7613 Q140.8638,633.9107 140.1582,633.9107 Q137.6514,633.9107 136.3315,632.2589 Q135.0117,630.607 135.0117,627.4859 Q135.0117,624.3565 136.3315,622.7047 Q137.6514,621.0528 140.1582,621.0528 Q140.8638,621.0528 141.5112,621.2022 Q142.1587,621.3516 142.7231,621.6505 L142.7231,624.3731 Q142.0923,623.7921 141.4988,623.5223 Q140.9053,623.2525 140.2744,623.2525 Q138.9297,623.2525 138.2449,624.3192 Q137.5601,625.3858 137.5601,627.4859 Q137.5601,629.5777 138.2449,630.6444 Q138.9297,631.711 140.2744,631.711 Q140.9053,631.711 141.4988,631.4412 Q142.0923,631.1715 142.7231,630.5904 Z " fill="#000000"/><text fill="#000000" font-family="sans-serif" font-size="14" lengthAdjust="spacing" textLength="106" x="154.75" y="632.461">EksternNoekkel</text><line style="stroke:#181818;stroke-width:0.5;" x1="124" x2="265" y1="643.17" y2="643.17"/><ellipse cx="134" cy="656.9141" fill="#000000" rx="3" ry="3" style="stroke:#000000;stroke-width:1.0;"/><text fill="#000000" font-family="sans-serif" font-size="14" lengthAdjust="spacing" textLength="117" x="143" y="660.7052">fagsystem: string</text><ellipse cx="134" cy="673.4024" fill="#000000" rx="3" ry="3" style="stroke:#000000;stroke-width:1.0;"/><text fill="#000000" font-family="sans-serif" font-size="14" lengthAdjust="spacing" textLength="102" x="143" y="677.1934">noekkel: string</text><line style="stroke:#181818;stroke-width:0.5;" x1="124" x2="265" y1="684.1466" y2="684.1466"/></g><!--class Journalnummer--><g id="elem_Journalnummer"><rect codeLine="2" fill="#F1F1F1" height="80.9766" id="Journalnummer" rx="2.5" ry="2.5" style="stroke:#181818;stroke-width:0.5;" width="249" x="301" y="611.17"/><ellipse cx="367.75" cy="627.17" fill="#ADD1B2" rx="11" ry="11" style="stroke:#181818;stroke-width:1.0;"/><path d="M370.2231,633.3131 Q369.6421,633.6119 369.0029,633.7613 Q368.3638,633.9107 367.6582,633.9107 Q365.1514,633.9107 363.8315,632.2589 Q362.5117,630.607 362.5117,627.4859 Q362.5117,624.3565 363.8315,622.7047 Q365.1514,621.0528 367.6582,621.0528 Q368.3638,621.0528 369.0112,621.2022 Q369.6587,621.3516 370.2231,621.6505 L370.2231,624.3731 Q369.5923,623.7921 368.9988,623.5223 Q368.4053,623.2525 367.7744,623.2525 Q366.4297,623.2525 365.7449,624.3192 Q365.0601,625.3858 365.0601,627.4859 Q365.0601,629.5777 365.7449,630.6444 Q366.4297,631.711 367.7744,631.711 Q368.4053,631.711 368.9988,631.4412 Q369.5923,631.1715 370.2231,630.5904 Z " fill="#000000"/><text fill="#000000" font-family="sans-serif" font-size="14" lengthAdjust="spacing" textLength="107" x="388.25" y="632.461">Journalnummer</text><line style="stroke:#181818;stroke-width:0.5;" x1="302" x2="549" y1="643.17" y2="643.17"/><ellipse cx="312" cy="656.9141" fill="#000000" rx="3" ry="3" style="stroke:#000000;stroke-width:1.0;"/><text fill="#000000" font-family="sans-serif" font-size="14" lengthAdjust="spacing" textLength="169" x="321" y="660.7052">journalnummer: number</text><ellipse cx="312" cy="673.4024" fill="#000000" rx="3" ry="3" style="stroke:#000000;stroke-width:1.0;"/><text fill="#000000" font-family="sans-serif" font-size="14" lengthAdjust="spacing" textLength="223" x="321" y="677.1934">journalsekvensnummer: number</text><line style="stroke:#181818;stroke-width:0.5;" x1="302" x2="549" y1="684.1466" y2="684.1466"/></g><!--class ReferanseJournalpost--><g id="elem_ReferanseJournalpost"><rect codeLine="2" fill="#F1F1F1" height="130.4414" id="ReferanseJournalpost" rx="2.5" ry="2.5" style="stroke:#181818;stroke-width:0.5;" width="355" x="248" y="412.48"/><ellipse cx="347.75" cy="428.48" fill="#ADD1B2" rx="11" ry="11" style="stroke:#181818;stroke-width:1.0;"/><path d="M350.2231,434.6231 Q349.6421,434.9219 349.0029,435.0713 Q348.3638,435.2207 347.6582,435.2207 Q345.1514,435.2207 343.8315,433.5689 Q342.5117,431.917 342.5117,428.7959 Q342.5117,425.6665 343.8315,424.0147 Q345.1514,422.3628 347.6582,422.3628 Q348.3638,422.3628 349.0112,422.5122 Q349.6587,422.6616 350.2231,422.9605 L350.2231,425.6831 Q349.5923,425.1021 348.9988,424.8323 Q348.4053,424.5625 347.7744,424.5625 Q346.4297,424.5625 345.7449,425.6292 Q345.0601,426.6958 345.0601,428.7959 Q345.0601,430.8877 345.7449,431.9544 Q346.4297,433.021 347.7744,433.021 Q348.4053,433.021 348.9988,432.7512 Q349.5923,432.4815 350.2231,431.9004 Z " fill="#000000"/><text fill="#000000" font-family="sans-serif" font-size="14" lengthAdjust="spacing" textLength="147" x="368.25" y="433.771">ReferanseJournalpost</text><line style="stroke:#181818;stroke-width:0.5;" x1="249" x2="602" y1="444.48" y2="444.48"/><text fill="#000000" font-family="sans-serif" font-size="14" lengthAdjust="spacing" textLength="108" x="254" y="462.0152">systemId: string</text><text fill="#000000" font-family="sans-serif" font-size="14" lengthAdjust="spacing" textLength="150" x="254" y="478.5034">registreringsID: string</text><text fill="#000000" font-family="sans-serif" font-size="14" lengthAdjust="spacing" textLength="222" x="254" y="494.9917">journalnummer: Journalnummer</text><text fill="#000000" font-family="sans-serif" font-size="14" lengthAdjust="spacing" textLength="343" x="254" y="511.48">saksJournalpostnummer: SaksJournalpostnummer</text><text fill="#000000" font-family="sans-serif" font-size="14" lengthAdjust="spacing" textLength="285" x="254" y="527.9683">referanseEksternNoekkel: EksternNoekkel</text><line style="stroke:#181818;stroke-width:0.5;" x1="249" x2="602" y1="534.9214" y2="534.9214"/></g><!--class SaksJournalpostnummer--><g id="elem_SaksJournalpostnummer"><rect codeLine="2" fill="#F1F1F1" height="97.4648" id="SaksJournalpostnummer" rx="2.5" ry="2.5" style="stroke:#181818;stroke-width:0.5;" width="230" x="584.5" y="602.93"/><ellipse cx="613" cy="618.93" fill="#ADD1B2" rx="11" ry="11" style="stroke:#181818;stroke-width:1.0;"/><path d="M615.4731,625.0731 Q614.8921,625.3719 614.2529,625.5213 Q613.6138,625.6707 612.9082,625.6707 Q610.4014,625.6707 609.0815,624.0189 Q607.7617,622.367 607.7617,619.2459 Q607.7617,616.1165 609.0815,614.4647 Q610.4014,612.8128 612.9082,612.8128 Q613.6138,612.8128 614.2612,612.9622 Q614.9087,613.1116 615.4731,613.4105 L615.4731,616.1331 Q614.8423,615.5521 614.2488,615.2823 Q613.6553,615.0125 613.0244,615.0125 Q611.6797,615.0125 610.9949,616.0792 Q610.3101,617.1458 610.3101,619.2459 Q610.3101,621.3377 610.9949,622.4044 Q611.6797,623.471 613.0244,623.471 Q613.6553,623.471 614.2488,623.2012 Q614.8423,622.9315 615.4731,622.3504 Z " fill="#000000"/><text fill="#000000" font-family="sans-serif" font-size="14" lengthAdjust="spacing" textLength="168" x="630" y="624.221">SaksJournalpostnummer</text><line style="stroke:#181818;stroke-width:0.5;" x1="585.5" x2="813.5" y1="634.93" y2="634.93"/><ellipse cx="595.5" cy="648.6741" fill="#000000" rx="3" ry="3" style="stroke:#000000;stroke-width:1.0;"/><text fill="#000000" font-family="sans-serif" font-size="14" lengthAdjust="spacing" textLength="114" x="604.5" y="652.4652">saksaar: number</text><ellipse cx="595.5" cy="665.1624" fill="#000000" rx="3" ry="3" style="stroke:#000000;stroke-width:1.0;"/><text fill="#000000" font-family="sans-serif" font-size="14" lengthAdjust="spacing" textLength="204" x="604.5" y="668.9534">sakssekvensnummer: number</text><ellipse cx="595.5" cy="681.6507" fill="#000000" rx="3" ry="3" style="stroke:#000000;stroke-width:1.0;"/><text fill="#000000" font-family="sans-serif" font-size="14" lengthAdjust="spacing" textLength="199" x="604.5" y="685.4417">journalpostnummer: number</text><line style="stroke:#181818;stroke-width:0.5;" x1="585.5" x2="813.5" y1="692.3948" y2="692.3948"/></g><!--class ReferanseDokumentfil--><g id="elem_ReferanseDokumentfil"><rect codeLine="40" fill="#F1F1F1" height="80.9766" id="ReferanseDokumentfil" rx="2.5" ry="2.5" style="stroke:#181818;stroke-width:0.5;" width="184" x="638.5" y="437.22"/><ellipse cx="653.5" cy="453.22" fill="#ADD1B2" rx="11" ry="11" style="stroke:#181818;stroke-width:1.0;"/><path d="M655.9731,459.3631 Q655.3921,459.6619 654.7529,459.8113 Q654.1138,459.9607 653.4082,459.9607 Q650.9014,459.9607 649.5815,458.3089 Q648.2617,456.657 648.2617,453.5359 Q648.2617,450.4065 649.5815,448.7547 Q650.9014,447.1028 653.4082,447.1028 Q654.1138,447.1028 654.7612,447.2522 Q655.4087,447.4016 655.9731,447.7005 L655.9731,450.4231 Q655.3423,449.8421 654.7488,449.5723 Q654.1553,449.3025 653.5244,449.3025 Q652.1797,449.3025 651.4949,450.3692 Q650.8101,451.4358 650.8101,453.5359 Q650.8101,455.6277 651.4949,456.6944 Q652.1797,457.761 653.5244,457.761 Q654.1553,457.761 654.7488,457.4912 Q655.3423,457.2215 655.9731,456.6404 Z " fill="#000000"/><text fill="#000000" font-family="sans-serif" font-size="14" lengthAdjust="spacing" textLength="152" x="667.5" y="458.511">ReferanseDokumentfil</text><line style="stroke:#181818;stroke-width:0.5;" x1="639.5" x2="821.5" y1="469.22" y2="469.22"/><ellipse cx="649.5" cy="482.9641" fill="#000000" rx="3" ry="3" style="stroke:#000000;stroke-width:1.0;"/><text fill="#000000" font-family="sans-serif" font-size="14" lengthAdjust="spacing" textLength="61" x="658.5" y="486.7552">id: string</text><ellipse cx="649.5" cy="499.4524" fill="#000000" rx="3" ry="3" style="stroke:#000000;stroke-width:1.0;"/><text fill="#000000" font-family="sans-serif" font-size="14" lengthAdjust="spacing" textLength="67" x="658.5" y="503.2434">url: string</text><line style="stroke:#181818;stroke-width:0.5;" x1="639.5" x2="821.5" y1="510.1966" y2="510.1966"/></g><!--class Milepel--><g id="elem_Milepel"><rect codeLine="8" fill="#F1F1F1" height="245.8594" id="Milepel" rx="2.5" ry="2.5" style="stroke:#181818;stroke-width:0.5;" width="325" x="568" y="106.62"/><ellipse cx="701.75" cy="122.62" fill="#ADD1B2" rx="11" ry="11" style="stroke:#181818;stroke-width:1.0;"/><path d="M704.2231,128.7631 Q703.6421,129.0619 703.0029,129.2113 Q702.3638,129.3607 701.6582,129.3607 Q699.1514,129.3607 697.8315,127.7089 Q696.5117,126.057 696.5117,122.9359 Q696.5117,119.8065 697.8315,118.1547 Q699.1514,116.5028 701.6582,116.5028 Q702.3638,116.5028 703.0112,116.6522 Q703.6587,116.8016 704.2231,117.1005 L704.2231,119.8231 Q703.5923,119.2421 702.9988,118.9723 Q702.4053,118.7025 701.7744,118.7025 Q700.4297,118.7025 699.7449,119.7692 Q699.0601,120.8358 699.0601,122.9359 Q699.0601,125.0277 699.7449,126.0944 Q700.4297,127.161 701.7744,127.161 Q702.4053,127.161 702.9988,126.8912 Q703.5923,126.6215 704.2231,126.0404 Z " fill="#000000"/><text fill="#000000" font-family="sans-serif" font-size="14" lengthAdjust="spacing" textLength="49" x="722.25" y="127.911">Milepel</text><line style="stroke:#181818;stroke-width:0.5;" x1="569" x2="892" y1="138.62" y2="138.62"/><ellipse cx="579" cy="152.3641" fill="#000000" rx="3" ry="3" style="stroke:#000000;stroke-width:1.0;"/><text fill="#000000" font-family="sans-serif" font-size="14" lengthAdjust="spacing" textLength="111" x="588" y="156.1552">milepelId: string</text><ellipse cx="579" cy="168.8524" fill="#000000" rx="3" ry="3" style="stroke:#000000;stroke-width:1.0;"/><text fill="#000000" font-family="sans-serif" font-size="14" lengthAdjust="spacing" textLength="124" x="588" y="172.6434">beskrivelse: string</text><text fill="#000000" font-family="sans-serif" font-size="14" lengthAdjust="spacing" textLength="165" x="588" y="189.1317">milepeltype: Milepeltype</text><text fill="#000000" font-family="sans-serif" font-size="14" lengthAdjust="spacing" textLength="65" x="588" y="205.62">frist: date</text><text fill="#000000" font-family="sans-serif" font-size="14" lengthAdjust="spacing" textLength="85" x="588" y="222.1083">utfoert: date</text><text fill="#000000" font-family="sans-serif" font-size="14" lengthAdjust="spacing" textLength="142" x="588" y="238.5966">planlagtUtfoert: date</text><ellipse cx="579" cy="251.2938" fill="#000000" rx="3" ry="3" style="stroke:#000000;stroke-width:1.0;"/><text fill="#000000" font-family="sans-serif" font-size="14" lengthAdjust="spacing" textLength="105" x="588" y="255.0848">intern: boolean</text><text fill="#000000" font-family="sans-serif" font-size="14" lengthAdjust="spacing" textLength="299" x="588" y="271.5731">referanseJournalpost: ReferanseJournalpost</text><text fill="#000000" font-family="sans-serif" font-size="14" lengthAdjust="spacing" textLength="296" x="588" y="288.0614">referanseDokument: ReferanseDokumentfil</text><text fill="#000000" font-family="sans-serif" font-size="14" lengthAdjust="spacing" textLength="110" x="588" y="304.5497">erStart: boolean</text><text fill="#000000" font-family="sans-serif" font-size="14" lengthAdjust="spacing" textLength="109" x="588" y="321.038">erSlutt: boolean</text><ellipse cx="579" cy="333.7352" fill="#000000" rx="3" ry="3" style="stroke:#000000;stroke-width:1.0;"/><text fill="#000000" font-family="sans-serif" font-size="14" lengthAdjust="spacing" textLength="179" x="588" y="337.5263">status: MilepelStatusEnum</text><line style="stroke:#181818;stroke-width:0.5;" x1="569" x2="892" y1="344.4794" y2="344.4794"/></g><g id="elem_GMN8"><path d="M508.5,6 L508.5,46.6211 A0,0 0 0 0 508.5,46.6211 L726.5,46.6211 L730.5,106.38 L734.5,46.6211 L952.5,46.6211 A0,0 0 0 0 952.5,46.6211 L952.5,16 L942.5,6 L508.5,6 A0,0 0 0 0 508.5,6 " fill="#FEFFDD" style="stroke:#181818;stroke-width:0.5;"/><path d="M942.5,6 L942.5,16 L952.5,16 L942.5,6 " fill="#FEFFDD" style="stroke:#181818;stroke-width:0.5;"/><text fill="#000000" font-family="sans-serif" font-size="13" lengthAdjust="spacing" textLength="331" x="514.5" y="23.5684">planlagtUtfoert er hvis man har laget en milepel plan</text><text fill="#000000" font-family="sans-serif" font-size="13" lengthAdjust="spacing" textLength="423" x="514.5" y="38.8789">s&#229; kan man sette denne datoen for n&#229;r det er planlagt &#229; v&#230;re ferdig</text></g><!--class Milepeltype--><g id="elem_Milepeltype"><rect codeLine="32" fill="#F1F1F1" height="80.9766" id="Milepeltype" rx="2.5" ry="2.5" style="stroke:#181818;stroke-width:0.5;" width="184" x="28.5" y="437.22"/><ellipse cx="77.25" cy="453.22" fill="#ADD1B2" rx="11" ry="11" style="stroke:#181818;stroke-width:1.0;"/><path d="M79.7231,459.3631 Q79.1421,459.6619 78.5029,459.8113 Q77.8638,459.9607 77.1582,459.9607 Q74.6514,459.9607 73.3315,458.3089 Q72.0117,456.657 72.0117,453.5359 Q72.0117,450.4065 73.3315,448.7547 Q74.6514,447.1028 77.1582,447.1028 Q77.8638,447.1028 78.5112,447.2522 Q79.1587,447.4016 79.7231,447.7005 L79.7231,450.4231 Q79.0923,449.8421 78.4988,449.5723 Q77.9053,449.3025 77.2744,449.3025 Q75.9297,449.3025 75.2449,450.3692 Q74.5601,451.4358 74.5601,453.5359 Q74.5601,455.6277 75.2449,456.6944 Q75.9297,457.761 77.2744,457.761 Q77.9053,457.761 78.4988,457.4912 Q79.0923,457.2215 79.7231,456.6404 Z " fill="#000000"/><text fill="#000000" font-family="sans-serif" font-size="14" lengthAdjust="spacing" textLength="78" x="97.75" y="458.511">Milepeltype</text><line style="stroke:#181818;stroke-width:0.5;" x1="29.5" x2="211.5" y1="469.22" y2="469.22"/><ellipse cx="39.5" cy="482.9641" fill="none" rx="3" ry="3" style="stroke:#038048;stroke-width:1.0;"/><text fill="#000000" font-family="sans-serif" font-size="14" lengthAdjust="spacing" textLength="116" x="48.5" y="486.7552">kodeverdi: string</text><ellipse cx="39.5" cy="499.4524" fill="none" rx="3" ry="3" style="stroke:#038048;stroke-width:1.0;"/><text fill="#000000" font-family="sans-serif" font-size="14" lengthAdjust="spacing" textLength="158" x="48.5" y="503.2434">kodebeskrivelse: string</text><line style="stroke:#181818;stroke-width:0.5;" x1="29.5" x2="211.5" y1="510.1966" y2="510.1966"/></g><g id="elem_GMN13"><path d="M6,193.93 L6,265.1722 A0,0 0 0 0 6,265.1722 L116.5,265.1722 L120.5,436.93 L124.5,265.1722 L235,265.1722 A0,0 0 0 0 235,265.1722 L235,203.93 L225,193.93 L6,193.93 A0,0 0 0 0 6,193.93 " fill="#FEFFDD" style="stroke:#181818;stroke-width:0.5;"/><path d="M225,193.93 L225,203.93 L235,203.93 L225,193.93 " fill="#FEFFDD" style="stroke:#181818;stroke-width:0.5;"/><text fill="#000000" font-family="sans-serif" font-size="13" lengthAdjust="spacing" textLength="69" x="12" y="211.4984">Eksempler:</text><text fill="#000000" font-family="sans-serif" font-size="13" lengthAdjust="spacing" textLength="201" x="12" y="226.8089">Bestilling av oppstartsm&#248;te (BO)</text><text fill="#000000" font-family="sans-serif" font-size="13" lengthAdjust="spacing" textLength="208" x="12" y="242.1195">Gjennomf&#248;rt oppstartsm&#248;te (OM)</text><text fill="#000000" font-family="sans-serif" font-size="13" lengthAdjust="spacing" textLength="137" x="12" y="257.43">Mottak av planforslag</text></g><g id="elem_GMN16"><path d="M858,465.05 L858,490.3605 A0,0 0 0 0 858,490.3605 L1057,490.3605 A0,0 0 0 0 1057,490.3605 L1057,475.05 L1047,465.05 L950.47,465.05 L843.33,352.91 L942.47,465.05 L858,465.05 A0,0 0 0 0 858,465.05 " fill="#FEFFDD" style="stroke:#181818;stroke-width:0.5;"/><path d="M1047,465.05 L1047,475.05 L1057,475.05 L1047,465.05 " fill="#FEFFDD" style="stroke:#181818;stroke-width:0.5;"/><text fill="#000000" font-family="sans-serif" font-size="13" lengthAdjust="spacing" textLength="178" x="864" y="482.6184">frist og utfoert ikke p&#229;krevd</text></g><!--class MilepelStatusEnum--><g id="elem_MilepelStatusEnum"><rect codeLine="48" fill="#F1F1F1" height="80.9766" id="MilepelStatusEnum" rx="2.5" ry="2.5" style="stroke:#181818;stroke-width:0.5;" width="162" x="1092.5" y="437.22"/><ellipse cx="1107.5" cy="453.22" fill="#EB937F" rx="11" ry="11" style="stroke:#181818;stroke-width:1.0;"/><path d="M1111.1143,459.72 L1103.3945,459.72 L1103.3945,447.3269 L1111.1143,447.3269 L1111.1143,449.4851 L1105.8433,449.4851 L1105.8433,452.158 L1110.6162,452.158 L1110.6162,454.3162 L1105.8433,454.3162 L1105.8433,457.5618 L1111.1143,457.5618 Z " fill="#000000"/><text fill="#000000" font-family="sans-serif" font-size="14" lengthAdjust="spacing" textLength="130" x="1121.5" y="458.511">MilepelStatusEnum</text><line style="stroke:#181818;stroke-width:0.5;" x1="1093.5" x2="1253.5" y1="469.22" y2="469.22"/><ellipse cx="1103.5" cy="482.9641" fill="none" rx="3" ry="3" style="stroke:#038048;stroke-width:1.0;"/><text fill="#000000" font-family="sans-serif" font-size="14" lengthAdjust="spacing" textLength="36" x="1112.5" y="486.7552">N&#229;dd</text><ellipse cx="1103.5" cy="499.4524" fill="none" rx="3" ry="3" style="stroke:#038048;stroke-width:1.0;"/><text fill="#000000" font-family="sans-serif" font-size="14" lengthAdjust="spacing" textLength="55" x="1112.5" y="503.2434">Planlagt</text><line style="stroke:#181818;stroke-width:0.5;" x1="1093.5" x2="1253.5" y1="510.1966" y2="510.1966"/></g><!--link Milepel to Milepeltype--><g id="link_Milepel_Milepeltype"><path codeLine="25" d="M567.64,281.56 C468.41,314.65 340.05,361.08 230.5,412.48 C215.19,419.67 199.2,428.3 184.31,436.86 " fill="none" id="Milepel-Milepeltype" style="stroke:#181818;stroke-width:1.0;"/></g><!--link Milepel to ReferanseJournalpost--><g id="link_Milepel_ReferanseJournalpost"><path codeLine="37" d="M578.89,352.91 C553.48,373.42 528.03,393.96 505.37,412.24 " fill="none" id="Milepel-ReferanseJournalpost" style="stroke:#181818;stroke-width:1.0;"/></g><!--link Milepel to ReferanseDokumentfil--><g id="link_Milepel_ReferanseDokumentfil"><path codeLine="38" d="M730.5,352.91 C730.5,383.31 730.5,413.78 730.5,436.88 " fill="none" id="Milepel-ReferanseDokumentfil" style="stroke:#181818;stroke-width:1.0;"/></g><!--link Milepel to MilepelStatusEnum--><g id="link_Milepel_MilepelStatusEnum"><path codeLine="43" d="M893.14,312.78 C951.01,343.03 1016.24,378.27 1074.5,412.48 C1087.4,420.06 1100.99,428.53 1113.83,436.78 " fill="none" id="Milepel-MilepelStatusEnum" style="stroke:#181818;stroke-width:1.0;"/></g><!--link ReferanseJournalpost to EksternNoekkel--><g id="link_ReferanseJournalpost_EksternNoekkel"><path codeLine="44" d="M338.83,543.22 C308.36,565.9 275.03,590.71 248.08,610.77 " fill="none" id="ReferanseJournalpost-EksternNoekkel" style="stroke:#181818;stroke-width:1.0;"/></g><!--link ReferanseJournalpost to SaksJournalpostnummer--><g id="link_ReferanseJournalpost_SaksJournalpostnummer"><path codeLine="45" d="M528.31,543.22 C559.59,562.85 593.41,584.08 622.67,602.44 " fill="none" id="ReferanseJournalpost-SaksJournalpostnummer" style="stroke:#181818;stroke-width:1.0;"/></g><!--link ReferanseJournalpost to Journalnummer--><g id="link_ReferanseJournalpost_Journalnummer"><path codeLine="46" d="M425.5,543.22 C425.5,565.9 425.5,590.71 425.5,610.77 " fill="none" id="ReferanseJournalpost-Journalnummer" style="stroke:#181818;stroke-width:1.0;"/></g><!--SRC=[hLInRjim4Dtv5PUjTH4PNJK62O8QS5BKw9Q53ayEGueKU9I0el3dkD-GNJ_MeoJRigqCHQf18Dyz7jyz7kvAksTRAuHidcLpvpD3MQ7vHz9G8Gb3rdpD2hGMAKD34ODp7er1Et-saaXfkGcopAfQNFrBhbTV1oUjgyiImyTI1ImmI4SuvAmynOzbJDWesNyLgRofItInq9SE2j4XiDGMAxJmMm1_ixBVVbCvK0pQRNfuZMI2Rj0IdWG6UlnLCRuyRhfW4JJ579IC_RwEXSSmHYehdPMR-FCYCjCklNyEQ-yjIjU1Xy8MHyDo-361dj9l1nz6tDkZDHqNmohAf61y7uEsZcVWZAACDHtANNNREtuuiHN2-OWGVGM-E5YRdzV9YU6bqGIbTF0Y0t0C6NLxFxi3yEIetO7XLU8HHawjq3bCDdbc5pw0QtU1qIxd_XhWOqtx9o1mjKflXDXBkRu-UQKfkId0akyCOLbP33dhk46Asbf-TP0D-AgYP1QLxHiV_tJp-Fd9tR-oCbyMxHlNTyvuN39ZwMEK9YL8EbaxiTP1mffZlXofoFlk0R_PjmredWHGjJiJi57d_TkfxdluY_4AcrJuIQjsy5GVRq_icUocgVYuWmOjKp4MjPtoVzGsKrScvbq_0n_w6VWkRSKZO74-GTvbByR3K0ZanQMalPCFxKwfVlbzw2skvYy0]--></g></svg>