<svg xmlns="http://www.w3.org/2000/svg" xmlns:xlink="http://www.w3.org/1999/xlink" contentStyleType="text/css" height="433px" preserveAspectRatio="none" style="width:457px;height:433px;background:#FFFFFF;" version="1.1" viewBox="0 0 457 433" width="457px" zoomAndPan="magnify"><defs/><g><!--class Milepel--><g id="elem_Milepel"><rect codeLine="2" fill="#F1F1F1" height="278.8359" id="Milepel" rx="2.5" ry="2.5" style="stroke:#181818;stroke-width:0.5;" width="218" x="94" y="7"/><ellipse cx="174.25" cy="23" fill="#ADD1B2" rx="11" ry="11" style="stroke:#181818;stroke-width:1.0;"/><path d="M176.7231,29.1431 Q176.1421,29.4419 175.5029,29.5913 Q174.8638,29.7407 174.1582,29.7407 Q171.6514,29.7407 170.3315,28.0889 Q169.0117,26.437 169.0117,23.3159 Q169.0117,20.1865 170.3315,18.5347 Q171.6514,16.8828 174.1582,16.8828 Q174.8638,16.8828 175.5112,17.0322 Q176.1587,17.1816 176.7231,17.4805 L176.7231,20.2031 Q176.0923,19.6221 175.4988,19.3523 Q174.9053,19.0825 174.2744,19.0825 Q172.9297,19.0825 172.2449,20.1492 Q171.5601,21.2158 171.5601,23.3159 Q171.5601,25.4077 172.2449,26.4744 Q172.9297,27.541 174.2744,27.541 Q174.9053,27.541 175.4988,27.2712 Q176.0923,27.0015 176.7231,26.4204 Z " fill="#000000"/><text fill="#000000" font-family="sans-serif" font-size="14" lengthAdjust="spacing" textLength="49" x="194.75" y="28.291">Milepel</text><line style="stroke:#181818;stroke-width:0.5;" x1="95" x2="311" y1="39" y2="39"/><ellipse cx="105" cy="52.7441" fill="none" rx="3" ry="3" style="stroke:#038048;stroke-width:1.0;"/><text fill="#000000" font-family="sans-serif" font-size="14" lengthAdjust="spacing" textLength="108" x="114" y="56.5352">systemId: string</text><ellipse cx="105" cy="69.2324" fill="none" rx="3" ry="3" style="stroke:#038048;stroke-width:1.0;"/><text fill="#000000" font-family="sans-serif" font-size="14" lengthAdjust="spacing" textLength="124" x="114" y="73.0234">beskrivelse: string</text><ellipse cx="105" cy="85.7207" fill="none" rx="3" ry="3" style="stroke:#038048;stroke-width:1.0;"/><text fill="#000000" font-family="sans-serif" font-size="14" lengthAdjust="spacing" textLength="143" x="114" y="89.5117">kategori: Milepeltype</text><ellipse cx="105" cy="102.209" fill="none" rx="3" ry="3" style="stroke:#038048;stroke-width:1.0;"/><text fill="#000000" font-family="sans-serif" font-size="14" lengthAdjust="spacing" textLength="65" x="114" y="106">frist: date</text><ellipse cx="105" cy="118.6973" fill="none" rx="3" ry="3" style="stroke:#038048;stroke-width:1.0;"/><text fill="#000000" font-family="sans-serif" font-size="14" lengthAdjust="spacing" textLength="85" x="114" y="122.4883">utfoert: date</text><ellipse cx="105" cy="135.1855" fill="none" rx="3" ry="3" style="stroke:#038048;stroke-width:1.0;"/><text fill="#000000" font-family="sans-serif" font-size="14" lengthAdjust="spacing" textLength="118" x="114" y="138.9766">journaldato: date</text><ellipse cx="105" cy="151.6738" fill="none" rx="3" ry="3" style="stroke:#038048;stroke-width:1.0;"/><text fill="#000000" font-family="sans-serif" font-size="14" lengthAdjust="spacing" textLength="105" x="114" y="155.4648">intern: boolean</text><ellipse cx="105" cy="168.1621" fill="none" rx="3" ry="3" style="stroke:#038048;stroke-width:1.0;"/><text fill="#000000" font-family="sans-serif" font-size="14" lengthAdjust="spacing" textLength="192" x="114" y="171.9531">referanseJournalpost: string</text><ellipse cx="105" cy="184.6504" fill="none" rx="3" ry="3" style="stroke:#038048;stroke-width:1.0;"/><text fill="#000000" font-family="sans-serif" font-size="14" lengthAdjust="spacing" textLength="184" x="114" y="188.4414">referanseDokument: string</text><ellipse cx="105" cy="201.1387" fill="none" rx="3" ry="3" style="stroke:#038048;stroke-width:1.0;"/><text fill="#000000" font-family="sans-serif" font-size="14" lengthAdjust="spacing" textLength="110" x="114" y="204.9297">erStart: boolean</text><ellipse cx="105" cy="217.627" fill="none" rx="3" ry="3" style="stroke:#038048;stroke-width:1.0;"/><text fill="#000000" font-family="sans-serif" font-size="14" lengthAdjust="spacing" textLength="109" x="114" y="221.418">erSlutt: boolean</text><ellipse cx="105" cy="234.1152" fill="none" rx="3" ry="3" style="stroke:#038048;stroke-width:1.0;"/><text fill="#000000" font-family="sans-serif" font-size="14" lengthAdjust="spacing" textLength="179" x="114" y="237.9063">status: MilepelStatusEnum</text><ellipse cx="105" cy="250.6035" fill="none" rx="3" ry="3" style="stroke:#038048;stroke-width:1.0;"/><text fill="#000000" font-family="sans-serif" font-size="14" lengthAdjust="spacing" textLength="122" x="114" y="254.3945">erGlobal: boolean</text><ellipse cx="105" cy="267.0918" fill="none" rx="3" ry="3" style="stroke:#038048;stroke-width:1.0;"/><text fill="#000000" font-family="sans-serif" font-size="14" lengthAdjust="spacing" textLength="173" x="114" y="270.8828">dokumenter: Dokument[]</text><line style="stroke:#181818;stroke-width:0.5;" x1="95" x2="311" y1="277.8359" y2="277.8359"/></g><!--class Milepeltype--><g id="elem_Milepeltype"><rect codeLine="21" fill="#F1F1F1" height="80.9766" id="Milepeltype" rx="2.5" ry="2.5" style="stroke:#181818;stroke-width:0.5;" width="184" x="7" y="345.83"/><ellipse cx="55.75" cy="361.83" fill="#ADD1B2" rx="11" ry="11" style="stroke:#181818;stroke-width:1.0;"/><path d="M58.2231,367.9731 Q57.6421,368.2719 57.0029,368.4213 Q56.3638,368.5707 55.6582,368.5707 Q53.1514,368.5707 51.8315,366.9189 Q50.5117,365.267 50.5117,362.1459 Q50.5117,359.0165 51.8315,357.3647 Q53.1514,355.7128 55.6582,355.7128 Q56.3638,355.7128 57.0112,355.8622 Q57.6587,356.0116 58.2231,356.3105 L58.2231,359.0331 Q57.5923,358.4521 56.9988,358.1823 Q56.4053,357.9125 55.7744,357.9125 Q54.4297,357.9125 53.7449,358.9792 Q53.0601,360.0458 53.0601,362.1459 Q53.0601,364.2377 53.7449,365.3044 Q54.4297,366.371 55.7744,366.371 Q56.4053,366.371 56.9988,366.1012 Q57.5923,365.8315 58.2231,365.2504 Z " fill="#000000"/><text fill="#000000" font-family="sans-serif" font-size="14" lengthAdjust="spacing" textLength="78" x="76.25" y="367.121">Milepeltype</text><line style="stroke:#181818;stroke-width:0.5;" x1="8" x2="190" y1="377.83" y2="377.83"/><ellipse cx="18" cy="391.5741" fill="none" rx="3" ry="3" style="stroke:#038048;stroke-width:1.0;"/><text fill="#000000" font-family="sans-serif" font-size="14" lengthAdjust="spacing" textLength="116" x="27" y="395.3652">kodeverdi: string</text><ellipse cx="18" cy="408.0624" fill="none" rx="3" ry="3" style="stroke:#038048;stroke-width:1.0;"/><text fill="#000000" font-family="sans-serif" font-size="14" lengthAdjust="spacing" textLength="158" x="27" y="411.8534">kodebeskrivelse: string</text><line style="stroke:#181818;stroke-width:0.5;" x1="8" x2="190" y1="418.8066" y2="418.8066"/></g><!--class MilepelStatusEnum--><g id="elem_MilepelStatusEnum"><rect codeLine="29" fill="#F1F1F1" height="80.9766" id="MilepelStatusEnum" rx="2.5" ry="2.5" style="stroke:#181818;stroke-width:0.5;" width="162" x="226" y="345.83"/><ellipse cx="241" cy="361.83" fill="#EB937F" rx="11" ry="11" style="stroke:#181818;stroke-width:1.0;"/><path d="M244.6143,368.33 L236.8945,368.33 L236.8945,355.9369 L244.6143,355.9369 L244.6143,358.0951 L239.3433,358.0951 L239.3433,360.768 L244.1162,360.768 L244.1162,362.9262 L239.3433,362.9262 L239.3433,366.1718 L244.6143,366.1718 Z " fill="#000000"/><text fill="#000000" font-family="sans-serif" font-size="14" lengthAdjust="spacing" textLength="130" x="255" y="367.121">MilepelStatusEnum</text><line style="stroke:#181818;stroke-width:0.5;" x1="227" x2="387" y1="377.83" y2="377.83"/><ellipse cx="237" cy="391.5741" fill="none" rx="3" ry="3" style="stroke:#038048;stroke-width:1.0;"/><text fill="#000000" font-family="sans-serif" font-size="14" lengthAdjust="spacing" textLength="36" x="246" y="395.3652">N&#229;dd</text><ellipse cx="237" cy="408.0624" fill="none" rx="3" ry="3" style="stroke:#038048;stroke-width:1.0;"/><text fill="#000000" font-family="sans-serif" font-size="14" lengthAdjust="spacing" textLength="55" x="246" y="411.8534">Planlagt</text><line style="stroke:#181818;stroke-width:0.5;" x1="227" x2="387" y1="418.8066" y2="418.8066"/></g><!--class Dokument--><g id="elem_Dokument"><rect fill="#F1F1F1" height="48" id="Dokument" rx="2.5" ry="2.5" style="stroke:#181818;stroke-width:0.5;" width="103" x="347.5" y="122.42"/><ellipse cx="362.5" cy="138.42" fill="#ADD1B2" rx="11" ry="11" style="stroke:#181818;stroke-width:1.0;"/><path d="M364.9731,144.5631 Q364.3921,144.8619 363.7529,145.0113 Q363.1138,145.1607 362.4082,145.1607 Q359.9014,145.1607 358.5815,143.5089 Q357.2617,141.857 357.2617,138.7359 Q357.2617,135.6065 358.5815,133.9547 Q359.9014,132.3028 362.4082,132.3028 Q363.1138,132.3028 363.7612,132.4522 Q364.4087,132.6016 364.9731,132.9005 L364.9731,135.6231 Q364.3423,135.0421 363.7488,134.7723 Q363.1553,134.5025 362.5244,134.5025 Q361.1797,134.5025 360.4949,135.5692 Q359.8101,136.6358 359.8101,138.7359 Q359.8101,140.8277 360.4949,141.8944 Q361.1797,142.961 362.5244,142.961 Q363.1553,142.961 363.7488,142.6912 Q364.3423,142.4215 364.9731,141.8404 Z " fill="#000000"/><text fill="#000000" font-family="sans-serif" font-size="14" lengthAdjust="spacing" textLength="71" x="376.5" y="143.711">Dokument</text><line style="stroke:#181818;stroke-width:0.5;" x1="348.5" x2="449.5" y1="154.42" y2="154.42"/><line style="stroke:#181818;stroke-width:0.5;" x1="348.5" x2="449.5" y1="162.42" y2="162.42"/></g><!--link Milepel to Milepeltype--><g id="link_Milepel_Milepeltype"><path codeLine="19" d="M142.35,286.15 C132.9,307.76 123.85,328.48 116.48,345.34 " fill="none" id="Milepel-Milepeltype" style="stroke:#181818;stroke-width:1.0;"/></g><!--link Milepel to MilepelStatusEnum--><g id="link_Milepel_MilepelStatusEnum"><path codeLine="26" d="M263.65,286.15 C273.1,307.76 282.15,328.48 289.52,345.34 " fill="none" id="Milepel-MilepelStatusEnum" style="stroke:#181818;stroke-width:1.0;"/></g><!--link Milepel to Dokument--><g id="link_Milepel_Dokument"><path codeLine="27" d="M312.48,146.42 C324.09,146.42 323.69,146.42 335.29,146.42 " fill="none" id="Milepel-to-Dokument" style="stroke:#181818;stroke-width:1.0;"/><polygon fill="#181818" points="347.29,146.42,341.29,142.42,335.29,146.42,341.29,150.42,347.29,146.42" style="stroke:#181818;stroke-width:1.0;"/></g><!--SRC=[RP5DJiCm48NtFeNNLBs0ro044WYfoug5KqyYauaTpOmhLQZ7uIHS30VZA0drolxU_3pFdD0ownUFC0BgJwNpsV651OOdPpGB-T0LsW3tvC-036kXjm9T96zg7RcCKAIMF8lHBaSKaAIDG2lq4HC5Ynd49VP1W8BHJOm8DXH8q0BPmF1SaiOubL-QcIFkOvy621iPw21swhygcoacsL8MAuddNnr-dmyX3JNf4MDZSPFb_le26Lqz7D_LLQawvVr-DIXrMkvWGdKFVNHm1d9-C- -CRotZPek5wrcycuqf1Ldv7riTl7v_ELUkRsW3savocny0]--></g></svg>