<svg xmlns="http://www.w3.org/2000/svg" xmlns:xlink="http://www.w3.org/1999/xlink" contentStyleType="text/css" height="725px" preserveAspectRatio="none" style="width:1238px;height:725px;background:#FFFFFF;" version="1.1" viewBox="0 0 1238 725" width="1238px" zoomAndPan="magnify"><defs/><g><!--class Milepel--><g id="elem_Milepel"><rect codeLine="2" fill="#F1F1F1" height="278.8359" id="Milepel" rx="2.5" ry="2.5" style="stroke:#181818;stroke-width:0.5;" width="325" x="320.5" y="91.31"/><ellipse cx="454.25" cy="107.31" fill="#ADD1B2" rx="11" ry="11" style="stroke:#181818;stroke-width:1.0;"/><path d="M456.7231,113.4531 Q456.1421,113.7519 455.5029,113.9013 Q454.8638,114.0507 454.1582,114.0507 Q451.6514,114.0507 450.3315,112.3989 Q449.0117,110.747 449.0117,107.6259 Q449.0117,104.4965 450.3315,102.8447 Q451.6514,101.1928 454.1582,101.1928 Q454.8638,101.1928 455.5112,101.3422 Q456.1587,101.4916 456.7231,101.7905 L456.7231,104.5131 Q456.0923,103.9321 455.4988,103.6623 Q454.9053,103.3925 454.2744,103.3925 Q452.9297,103.3925 452.2449,104.4592 Q451.5601,105.5258 451.5601,107.6259 Q451.5601,109.7177 452.2449,110.7844 Q452.9297,111.851 454.2744,111.851 Q454.9053,111.851 455.4988,111.5812 Q456.0923,111.3115 456.7231,110.7304 Z " fill="#000000"/><text fill="#000000" font-family="sans-serif" font-size="14" lengthAdjust="spacing" textLength="49" x="474.75" y="112.601">Milepel</text><line style="stroke:#181818;stroke-width:0.5;" x1="321.5" x2="644.5" y1="123.31" y2="123.31"/><ellipse cx="331.5" cy="137.0541" fill="none" rx="3" ry="3" style="stroke:#038048;stroke-width:1.0;"/><text fill="#000000" font-family="sans-serif" font-size="14" lengthAdjust="spacing" textLength="108" x="340.5" y="140.8452">systemId: string</text><ellipse cx="331.5" cy="153.5424" fill="none" rx="3" ry="3" style="stroke:#038048;stroke-width:1.0;"/><text fill="#000000" font-family="sans-serif" font-size="14" lengthAdjust="spacing" textLength="124" x="340.5" y="157.3334">beskrivelse: string</text><ellipse cx="331.5" cy="170.0307" fill="none" rx="3" ry="3" style="stroke:#038048;stroke-width:1.0;"/><text fill="#000000" font-family="sans-serif" font-size="14" lengthAdjust="spacing" textLength="143" x="340.5" y="173.8217">kategori: Milepeltype</text><ellipse cx="331.5" cy="186.519" fill="none" rx="3" ry="3" style="stroke:#038048;stroke-width:1.0;"/><text fill="#000000" font-family="sans-serif" font-size="14" lengthAdjust="spacing" textLength="96" x="340.5" y="190.31">fristdato: date</text><ellipse cx="331.5" cy="203.0073" fill="none" rx="3" ry="3" style="stroke:#038048;stroke-width:1.0;"/><text fill="#000000" font-family="sans-serif" font-size="14" lengthAdjust="spacing" textLength="116" x="340.5" y="206.7983">utfoertdato: date</text><ellipse cx="331.5" cy="219.4955" fill="none" rx="3" ry="3" style="stroke:#038048;stroke-width:1.0;"/><text fill="#000000" font-family="sans-serif" font-size="14" lengthAdjust="spacing" textLength="118" x="340.5" y="223.2866">journaldato: date</text><ellipse cx="331.5" cy="235.9838" fill="none" rx="3" ry="3" style="stroke:#038048;stroke-width:1.0;"/><text fill="#000000" font-family="sans-serif" font-size="14" lengthAdjust="spacing" textLength="105" x="340.5" y="239.7748">intern: boolean</text><ellipse cx="331.5" cy="252.4721" fill="none" rx="3" ry="3" style="stroke:#038048;stroke-width:1.0;"/><text fill="#000000" font-family="sans-serif" font-size="14" lengthAdjust="spacing" textLength="299" x="340.5" y="256.2631">referanseJournalpost: ReferanseJournalpost</text><ellipse cx="331.5" cy="268.9604" fill="none" rx="3" ry="3" style="stroke:#038048;stroke-width:1.0;"/><text fill="#000000" font-family="sans-serif" font-size="14" lengthAdjust="spacing" textLength="184" x="340.5" y="272.7514">referanseDokument: string</text><ellipse cx="331.5" cy="285.4487" fill="none" rx="3" ry="3" style="stroke:#038048;stroke-width:1.0;"/><text fill="#000000" font-family="sans-serif" font-size="14" lengthAdjust="spacing" textLength="110" x="340.5" y="289.2397">erStart: boolean</text><ellipse cx="331.5" cy="301.937" fill="none" rx="3" ry="3" style="stroke:#038048;stroke-width:1.0;"/><text fill="#000000" font-family="sans-serif" font-size="14" lengthAdjust="spacing" textLength="109" x="340.5" y="305.728">erSlutt: boolean</text><ellipse cx="331.5" cy="318.4252" fill="none" rx="3" ry="3" style="stroke:#038048;stroke-width:1.0;"/><text fill="#000000" font-family="sans-serif" font-size="14" lengthAdjust="spacing" textLength="179" x="340.5" y="322.2162">status: MilepelStatusEnum</text><ellipse cx="331.5" cy="334.9135" fill="none" rx="3" ry="3" style="stroke:#038048;stroke-width:1.0;"/><text fill="#000000" font-family="sans-serif" font-size="14" lengthAdjust="spacing" textLength="122" x="340.5" y="338.7045">erGlobal: boolean</text><ellipse cx="331.5" cy="351.4018" fill="none" rx="3" ry="3" style="stroke:#038048;stroke-width:1.0;"/><text fill="#000000" font-family="sans-serif" font-size="14" lengthAdjust="spacing" textLength="173" x="340.5" y="355.1928">dokumenter: Dokument[]</text><line style="stroke:#181818;stroke-width:0.5;" x1="321.5" x2="644.5" y1="362.1459" y2="362.1459"/></g><!--class Milepeltype--><g id="elem_Milepeltype"><rect codeLine="21" fill="#F1F1F1" height="80.9766" id="Milepeltype" rx="2.5" ry="2.5" style="stroke:#181818;stroke-width:0.5;" width="184" x="7" y="454.88"/><ellipse cx="55.75" cy="470.88" fill="#ADD1B2" rx="11" ry="11" style="stroke:#181818;stroke-width:1.0;"/><path d="M58.2231,477.0231 Q57.6421,477.3219 57.0029,477.4713 Q56.3638,477.6207 55.6582,477.6207 Q53.1514,477.6207 51.8315,475.9689 Q50.5117,474.317 50.5117,471.1959 Q50.5117,468.0665 51.8315,466.4147 Q53.1514,464.7628 55.6582,464.7628 Q56.3638,464.7628 57.0112,464.9122 Q57.6587,465.0616 58.2231,465.3605 L58.2231,468.0831 Q57.5923,467.5021 56.9988,467.2323 Q56.4053,466.9625 55.7744,466.9625 Q54.4297,466.9625 53.7449,468.0292 Q53.0601,469.0958 53.0601,471.1959 Q53.0601,473.2877 53.7449,474.3544 Q54.4297,475.421 55.7744,475.421 Q56.4053,475.421 56.9988,475.1512 Q57.5923,474.8815 58.2231,474.3004 Z " fill="#000000"/><text fill="#000000" font-family="sans-serif" font-size="14" lengthAdjust="spacing" textLength="78" x="76.25" y="476.171">Milepeltype</text><line style="stroke:#181818;stroke-width:0.5;" x1="8" x2="190" y1="486.88" y2="486.88"/><ellipse cx="18" cy="500.6241" fill="none" rx="3" ry="3" style="stroke:#038048;stroke-width:1.0;"/><text fill="#000000" font-family="sans-serif" font-size="14" lengthAdjust="spacing" textLength="116" x="27" y="504.4152">kodeverdi: string</text><ellipse cx="18" cy="517.1124" fill="none" rx="3" ry="3" style="stroke:#038048;stroke-width:1.0;"/><text fill="#000000" font-family="sans-serif" font-size="14" lengthAdjust="spacing" textLength="158" x="27" y="520.9034">kodebeskrivelse: string</text><line style="stroke:#181818;stroke-width:0.5;" x1="8" x2="190" y1="527.8566" y2="527.8566"/></g><!--class ReferanseJournalpost--><g id="elem_ReferanseJournalpost"><rect codeLine="28" fill="#F1F1F1" height="130.4414" id="ReferanseJournalpost" rx="2.5" ry="2.5" style="stroke:#181818;stroke-width:0.5;" width="369" x="226.5" y="430.14"/><ellipse cx="333.25" cy="446.14" fill="#ADD1B2" rx="11" ry="11" style="stroke:#181818;stroke-width:1.0;"/><path d="M335.7231,452.2831 Q335.1421,452.5819 334.5029,452.7313 Q333.8638,452.8807 333.1582,452.8807 Q330.6514,452.8807 329.3315,451.2289 Q328.0117,449.577 328.0117,446.4559 Q328.0117,443.3265 329.3315,441.6747 Q330.6514,440.0228 333.1582,440.0228 Q333.8638,440.0228 334.5112,440.1722 Q335.1587,440.3216 335.7231,440.6205 L335.7231,443.3431 Q335.0923,442.7621 334.4988,442.4923 Q333.9053,442.2225 333.2744,442.2225 Q331.9297,442.2225 331.2449,443.2892 Q330.5601,444.3558 330.5601,446.4559 Q330.5601,448.5477 331.2449,449.6144 Q331.9297,450.681 333.2744,450.681 Q333.9053,450.681 334.4988,450.4112 Q335.0923,450.1415 335.7231,449.5604 Z " fill="#000000"/><text fill="#000000" font-family="sans-serif" font-size="14" lengthAdjust="spacing" textLength="147" x="353.75" y="451.431">ReferanseJournalpost</text><line style="stroke:#181818;stroke-width:0.5;" x1="227.5" x2="594.5" y1="462.14" y2="462.14"/><ellipse cx="237.5" cy="475.8841" fill="none" rx="3" ry="3" style="stroke:#038048;stroke-width:1.0;"/><text fill="#000000" font-family="sans-serif" font-size="14" lengthAdjust="spacing" textLength="108" x="246.5" y="479.6752">systemId: string</text><ellipse cx="237.5" cy="492.3724" fill="none" rx="3" ry="3" style="stroke:#038048;stroke-width:1.0;"/><text fill="#000000" font-family="sans-serif" font-size="14" lengthAdjust="spacing" textLength="150" x="246.5" y="496.1634">registreringsID: string</text><ellipse cx="237.5" cy="508.8607" fill="none" rx="3" ry="3" style="stroke:#038048;stroke-width:1.0;"/><text fill="#000000" font-family="sans-serif" font-size="14" lengthAdjust="spacing" textLength="222" x="246.5" y="512.6517">journalnummer: Journalnummer</text><ellipse cx="237.5" cy="525.349" fill="none" rx="3" ry="3" style="stroke:#038048;stroke-width:1.0;"/><text fill="#000000" font-family="sans-serif" font-size="14" lengthAdjust="spacing" textLength="343" x="246.5" y="529.14">saksJournalpostnummer: SaksJournalpostnummer</text><ellipse cx="237.5" cy="541.8373" fill="none" rx="3" ry="3" style="stroke:#038048;stroke-width:1.0;"/><text fill="#000000" font-family="sans-serif" font-size="14" lengthAdjust="spacing" textLength="285" x="246.5" y="545.6283">referanseEksternNoekkel: EksternNoekkel</text><line style="stroke:#181818;stroke-width:0.5;" x1="227.5" x2="594.5" y1="552.5814" y2="552.5814"/></g><!--class MilepelStatusEnum--><g id="elem_MilepelStatusEnum"><rect codeLine="58" fill="#F1F1F1" height="80.9766" id="MilepelStatusEnum" rx="2.5" ry="2.5" style="stroke:#181818;stroke-width:0.5;" width="162" x="631" y="454.88"/><ellipse cx="646" cy="470.88" fill="#EB937F" rx="11" ry="11" style="stroke:#181818;stroke-width:1.0;"/><path d="M649.6143,477.38 L641.8945,477.38 L641.8945,464.9869 L649.6143,464.9869 L649.6143,467.1451 L644.3433,467.1451 L644.3433,469.818 L649.1162,469.818 L649.1162,471.9762 L644.3433,471.9762 L644.3433,475.2218 L649.6143,475.2218 Z " fill="#000000"/><text fill="#000000" font-family="sans-serif" font-size="14" lengthAdjust="spacing" textLength="130" x="660" y="476.171">MilepelStatusEnum</text><line style="stroke:#181818;stroke-width:0.5;" x1="632" x2="792" y1="486.88" y2="486.88"/><ellipse cx="642" cy="500.6241" fill="none" rx="3" ry="3" style="stroke:#038048;stroke-width:1.0;"/><text fill="#000000" font-family="sans-serif" font-size="14" lengthAdjust="spacing" textLength="36" x="651" y="504.4152">N&#229;dd</text><ellipse cx="642" cy="517.1124" fill="none" rx="3" ry="3" style="stroke:#038048;stroke-width:1.0;"/><text fill="#000000" font-family="sans-serif" font-size="14" lengthAdjust="spacing" textLength="55" x="651" y="520.9034">Planlagt</text><line style="stroke:#181818;stroke-width:0.5;" x1="632" x2="792" y1="527.8566" y2="527.8566"/></g><!--class Dokument--><g id="elem_Dokument"><rect codeLine="64" fill="#F1F1F1" height="179.9063" id="Dokument" rx="2.5" ry="2.5" style="stroke:#181818;stroke-width:0.5;" width="335" x="752.5" y="140.77"/><ellipse cx="880.25" cy="156.77" fill="#ADD1B2" rx="11" ry="11" style="stroke:#181818;stroke-width:1.0;"/><path d="M882.7231,162.9131 Q882.1421,163.2119 881.5029,163.3613 Q880.8638,163.5107 880.1582,163.5107 Q877.6514,163.5107 876.3315,161.8589 Q875.0117,160.207 875.0117,157.0859 Q875.0117,153.9565 876.3315,152.3047 Q877.6514,150.6528 880.1582,150.6528 Q880.8638,150.6528 881.5112,150.8022 Q882.1587,150.9516 882.7231,151.2505 L882.7231,153.9731 Q882.0923,153.3921 881.4988,153.1223 Q880.9053,152.8525 880.2744,152.8525 Q878.9297,152.8525 878.2449,153.9192 Q877.5601,154.9858 877.5601,157.0859 Q877.5601,159.1777 878.2449,160.2444 Q878.9297,161.311 880.2744,161.311 Q880.9053,161.311 881.4988,161.0412 Q882.0923,160.7715 882.7231,160.1904 Z " fill="#000000"/><text fill="#000000" font-family="sans-serif" font-size="14" lengthAdjust="spacing" textLength="71" x="900.75" y="162.061">Dokument</text><line style="stroke:#181818;stroke-width:0.5;" x1="753.5" x2="1086.5" y1="172.77" y2="172.77"/><ellipse cx="763.5" cy="186.5141" fill="none" rx="3" ry="3" style="stroke:#038048;stroke-width:1.0;"/><text fill="#000000" font-family="sans-serif" font-size="14" lengthAdjust="spacing" textLength="61" x="772.5" y="190.3052">id: string</text><ellipse cx="763.5" cy="203.0024" fill="none" rx="3" ry="3" style="stroke:#038048;stroke-width:1.0;"/><text fill="#000000" font-family="sans-serif" font-size="14" lengthAdjust="spacing" textLength="79" x="772.5" y="206.7934">tittel: string</text><ellipse cx="763.5" cy="219.4907" fill="none" rx="3" ry="3" style="stroke:#038048;stroke-width:1.0;"/><text fill="#000000" font-family="sans-serif" font-size="14" lengthAdjust="spacing" textLength="94" x="772.5" y="223.2817">filnavn: string</text><ellipse cx="763.5" cy="235.979" fill="none" rx="3" ry="3" style="stroke:#038048;stroke-width:1.0;"/><text fill="#000000" font-family="sans-serif" font-size="14" lengthAdjust="spacing" textLength="207" x="772.5" y="239.77">dokumenttype: Dokumenttype</text><ellipse cx="763.5" cy="252.4673" fill="none" rx="3" ry="3" style="stroke:#038048;stroke-width:1.0;"/><text fill="#000000" font-family="sans-serif" font-size="14" lengthAdjust="spacing" textLength="309" x="772.5" y="256.2583">referanseDokumentfil: ReferanseDokumentfil</text><ellipse cx="763.5" cy="268.9555" fill="none" rx="3" ry="3" style="stroke:#038048;stroke-width:1.0;"/><text fill="#000000" font-family="sans-serif" font-size="14" lengthAdjust="spacing" textLength="115" x="772.5" y="272.7466">mimetype: string</text><ellipse cx="763.5" cy="285.4438" fill="none" rx="3" ry="3" style="stroke:#038048;stroke-width:1.0;"/><text fill="#000000" font-family="sans-serif" font-size="14" lengthAdjust="spacing" textLength="146" x="772.5" y="289.2348">dokumentsdato: date</text><ellipse cx="763.5" cy="301.9321" fill="none" rx="3" ry="3" style="stroke:#038048;stroke-width:1.0;"/><text fill="#000000" font-family="sans-serif" font-size="14" lengthAdjust="spacing" textLength="114" x="772.5" y="305.7231">arkivnavn: string</text><line style="stroke:#181818;stroke-width:0.5;" x1="753.5" x2="1086.5" y1="312.6763" y2="312.6763"/></g><!--class EksternNoekkel--><g id="elem_EksternNoekkel"><rect codeLine="53" fill="#F1F1F1" height="80.9766" id="EksternNoekkel" rx="2.5" ry="2.5" style="stroke:#181818;stroke-width:0.5;" width="143" x="118.5" y="628.83"/><ellipse cx="135.75" cy="644.83" fill="#ADD1B2" rx="11" ry="11" style="stroke:#181818;stroke-width:1.0;"/><path d="M138.2231,650.9731 Q137.6421,651.2719 137.0029,651.4213 Q136.3638,651.5707 135.6582,651.5707 Q133.1514,651.5707 131.8315,649.9189 Q130.5117,648.267 130.5117,645.1459 Q130.5117,642.0165 131.8315,640.3647 Q133.1514,638.7128 135.6582,638.7128 Q136.3638,638.7128 137.0112,638.8622 Q137.6587,639.0116 138.2231,639.3105 L138.2231,642.0331 Q137.5923,641.4521 136.9988,641.1823 Q136.4053,640.9125 135.7744,640.9125 Q134.4297,640.9125 133.7449,641.9792 Q133.0601,643.0458 133.0601,645.1459 Q133.0601,647.2377 133.7449,648.3044 Q134.4297,649.371 135.7744,649.371 Q136.4053,649.371 136.9988,649.1012 Q137.5923,648.8315 138.2231,648.2504 Z " fill="#000000"/><text fill="#000000" font-family="sans-serif" font-size="14" lengthAdjust="spacing" textLength="106" x="150.25" y="650.121">EksternNoekkel</text><line style="stroke:#181818;stroke-width:0.5;" x1="119.5" x2="260.5" y1="660.83" y2="660.83"/><ellipse cx="129.5" cy="674.5741" fill="none" rx="3" ry="3" style="stroke:#038048;stroke-width:1.0;"/><text fill="#000000" font-family="sans-serif" font-size="14" lengthAdjust="spacing" textLength="117" x="138.5" y="678.3652">fagsystem: string</text><ellipse cx="129.5" cy="691.0624" fill="none" rx="3" ry="3" style="stroke:#038048;stroke-width:1.0;"/><text fill="#000000" font-family="sans-serif" font-size="14" lengthAdjust="spacing" textLength="102" x="138.5" y="694.8534">noekkel: string</text><line style="stroke:#181818;stroke-width:0.5;" x1="119.5" x2="260.5" y1="701.8066" y2="701.8066"/></g><!--class SaksJournalpostnummer--><g id="elem_SaksJournalpostnummer"><rect codeLine="42" fill="#F1F1F1" height="97.4648" id="SaksJournalpostnummer" rx="2.5" ry="2.5" style="stroke:#181818;stroke-width:0.5;" width="230" x="296" y="620.59"/><ellipse cx="324.5" cy="636.59" fill="#ADD1B2" rx="11" ry="11" style="stroke:#181818;stroke-width:1.0;"/><path d="M326.9731,642.7331 Q326.3921,643.0319 325.7529,643.1813 Q325.1138,643.3307 324.4082,643.3307 Q321.9014,643.3307 320.5815,641.6789 Q319.2617,640.027 319.2617,636.9059 Q319.2617,633.7765 320.5815,632.1247 Q321.9014,630.4728 324.4082,630.4728 Q325.1138,630.4728 325.7612,630.6222 Q326.4087,630.7716 326.9731,631.0705 L326.9731,633.7931 Q326.3423,633.2121 325.7488,632.9423 Q325.1553,632.6725 324.5244,632.6725 Q323.1797,632.6725 322.4949,633.7392 Q321.8101,634.8058 321.8101,636.9059 Q321.8101,638.9977 322.4949,640.0644 Q323.1797,641.131 324.5244,641.131 Q325.1553,641.131 325.7488,640.8612 Q326.3423,640.5915 326.9731,640.0104 Z " fill="#000000"/><text fill="#000000" font-family="sans-serif" font-size="14" lengthAdjust="spacing" textLength="168" x="341.5" y="641.881">SaksJournalpostnummer</text><line style="stroke:#181818;stroke-width:0.5;" x1="297" x2="525" y1="652.59" y2="652.59"/><ellipse cx="307" cy="666.3341" fill="none" rx="3" ry="3" style="stroke:#038048;stroke-width:1.0;"/><text fill="#000000" font-family="sans-serif" font-size="14" lengthAdjust="spacing" textLength="114" x="316" y="670.1252">saksaar: number</text><ellipse cx="307" cy="682.8224" fill="none" rx="3" ry="3" style="stroke:#038048;stroke-width:1.0;"/><text fill="#000000" font-family="sans-serif" font-size="14" lengthAdjust="spacing" textLength="204" x="316" y="686.6134">sakssekvensnummer: number</text><ellipse cx="307" cy="699.3107" fill="none" rx="3" ry="3" style="stroke:#038048;stroke-width:1.0;"/><text fill="#000000" font-family="sans-serif" font-size="14" lengthAdjust="spacing" textLength="199" x="316" y="703.1017">journalpostnummer: number</text><line style="stroke:#181818;stroke-width:0.5;" x1="297" x2="525" y1="710.0548" y2="710.0548"/></g><!--class Journalnummer--><g id="elem_Journalnummer"><rect codeLine="48" fill="#F1F1F1" height="80.9766" id="Journalnummer" rx="2.5" ry="2.5" style="stroke:#181818;stroke-width:0.5;" width="249" x="560.5" y="628.83"/><ellipse cx="627.25" cy="644.83" fill="#ADD1B2" rx="11" ry="11" style="stroke:#181818;stroke-width:1.0;"/><path d="M629.7231,650.9731 Q629.1421,651.2719 628.5029,651.4213 Q627.8638,651.5707 627.1582,651.5707 Q624.6514,651.5707 623.3315,649.9189 Q622.0117,648.267 622.0117,645.1459 Q622.0117,642.0165 623.3315,640.3647 Q624.6514,638.7128 627.1582,638.7128 Q627.8638,638.7128 628.5112,638.8622 Q629.1587,639.0116 629.7231,639.3105 L629.7231,642.0331 Q629.0923,641.4521 628.4988,641.1823 Q627.9053,640.9125 627.2744,640.9125 Q625.9297,640.9125 625.2449,641.9792 Q624.5601,643.0458 624.5601,645.1459 Q624.5601,647.2377 625.2449,648.3044 Q625.9297,649.371 627.2744,649.371 Q627.9053,649.371 628.4988,649.1012 Q629.0923,648.8315 629.7231,648.2504 Z " fill="#000000"/><text fill="#000000" font-family="sans-serif" font-size="14" lengthAdjust="spacing" textLength="107" x="647.75" y="650.121">Journalnummer</text><line style="stroke:#181818;stroke-width:0.5;" x1="561.5" x2="808.5" y1="660.83" y2="660.83"/><ellipse cx="571.5" cy="674.5741" fill="none" rx="3" ry="3" style="stroke:#038048;stroke-width:1.0;"/><text fill="#000000" font-family="sans-serif" font-size="14" lengthAdjust="spacing" textLength="133" x="580.5" y="678.3652">journalaar: number</text><ellipse cx="571.5" cy="691.0624" fill="none" rx="3" ry="3" style="stroke:#038048;stroke-width:1.0;"/><text fill="#000000" font-family="sans-serif" font-size="14" lengthAdjust="spacing" textLength="223" x="580.5" y="694.8534">journalsekvensnummer: number</text><line style="stroke:#181818;stroke-width:0.5;" x1="561.5" x2="808.5" y1="701.8066" y2="701.8066"/></g><g id="elem_GMN17"><path d="M814.5,6 L814.5,31.3105 A0,0 0 0 0 814.5,31.3105 L916,31.3105 L920,140.3 L924,31.3105 L1025.5,31.3105 A0,0 0 0 0 1025.5,31.3105 L1025.5,16 L1015.5,6 L814.5,6 A0,0 0 0 0 814.5,6 " fill="#FEFFDD" style="stroke:#181818;stroke-width:0.5;"/><path d="M1015.5,6 L1015.5,16 L1025.5,16 L1015.5,6 " fill="#FEFFDD" style="stroke:#181818;stroke-width:0.5;"/><text fill="#000000" font-family="sans-serif" font-size="13" lengthAdjust="spacing" textLength="190" x="820.5" y="23.5684">Hentet definisjon fra Fiks Plan</text></g><!--class Dokumenttype--><g id="elem_Dokumenttype"><rect codeLine="80" fill="#F1F1F1" height="89.5977" id="Dokumenttype" rx="2.5" ry="2.5" style="stroke:#181818;stroke-width:0.5;" width="184" x="828" y="450.57"/><ellipse cx="866.4" cy="470.8805" fill="#ADD1B2" rx="11" ry="11" style="stroke:#181818;stroke-width:1.0;"/><path d="M868.8731,477.0236 Q868.2921,477.3224 867.6529,477.4719 Q867.0138,477.6213 866.3082,477.6213 Q863.8014,477.6213 862.4815,475.9694 Q861.1617,474.3176 861.1617,471.1965 Q861.1617,468.0671 862.4815,466.4152 Q863.8014,464.7634 866.3082,464.7634 Q867.0138,464.7634 867.6612,464.9128 Q868.3087,465.0622 868.8731,465.361 L868.8731,468.0837 Q868.2423,467.5026 867.6488,467.2328 Q867.0553,466.9631 866.4244,466.9631 Q865.0797,466.9631 864.3949,468.0297 Q863.7101,469.0964 863.7101,471.1965 Q863.7101,473.2883 864.3949,474.3549 Q865.0797,475.4216 866.4244,475.4216 Q867.0553,475.4216 867.6488,475.1518 Q868.2423,474.882 868.8731,474.301 Z " fill="#000000"/><text fill="#000000" font-family="sans-serif" font-size="12" font-style="italic" lengthAdjust="spacing" textLength="42" x="914.6" y="467.1716">&#171;Kode&#187;</text><text fill="#000000" font-family="sans-serif" font-size="14" lengthAdjust="spacing" textLength="100" x="885.6" y="483.238">Dokumenttype</text><line style="stroke:#181818;stroke-width:0.5;" x1="829" x2="1011" y1="491.1911" y2="491.1911"/><ellipse cx="839" cy="504.9352" fill="none" rx="3" ry="3" style="stroke:#038048;stroke-width:1.0;"/><text fill="#000000" font-family="sans-serif" font-size="14" lengthAdjust="spacing" textLength="116" x="848" y="508.7262">kodeverdi: string</text><ellipse cx="839" cy="521.4235" fill="none" rx="3" ry="3" style="stroke:#038048;stroke-width:1.0;"/><text fill="#000000" font-family="sans-serif" font-size="14" lengthAdjust="spacing" textLength="158" x="848" y="525.2145">kodebeskrivelse: string</text><line style="stroke:#181818;stroke-width:0.5;" x1="829" x2="1011" y1="532.1677" y2="532.1677"/></g><!--class ReferanseDokumentfil--><g id="elem_ReferanseDokumentfil"><rect codeLine="85" fill="#F1F1F1" height="80.9766" id="ReferanseDokumentfil" rx="2.5" ry="2.5" style="stroke:#181818;stroke-width:0.5;" width="184" x="1047" y="454.88"/><ellipse cx="1062" cy="470.88" fill="#ADD1B2" rx="11" ry="11" style="stroke:#181818;stroke-width:1.0;"/><path d="M1064.4731,477.0231 Q1063.8921,477.3219 1063.2529,477.4713 Q1062.6138,477.6207 1061.9082,477.6207 Q1059.4014,477.6207 1058.0815,475.9689 Q1056.7617,474.317 1056.7617,471.1959 Q1056.7617,468.0665 1058.0815,466.4147 Q1059.4014,464.7628 1061.9082,464.7628 Q1062.6138,464.7628 1063.2612,464.9122 Q1063.9087,465.0616 1064.4731,465.3605 L1064.4731,468.0831 Q1063.8423,467.5021 1063.2488,467.2323 Q1062.6553,466.9625 1062.0244,466.9625 Q1060.6797,466.9625 1059.9949,468.0292 Q1059.3101,469.0958 1059.3101,471.1959 Q1059.3101,473.2877 1059.9949,474.3544 Q1060.6797,475.421 1062.0244,475.421 Q1062.6553,475.421 1063.2488,475.1512 Q1063.8423,474.8815 1064.4731,474.3004 Z " fill="#000000"/><text fill="#000000" font-family="sans-serif" font-size="14" lengthAdjust="spacing" textLength="152" x="1076" y="476.171">ReferanseDokumentfil</text><line style="stroke:#181818;stroke-width:0.5;" x1="1048" x2="1230" y1="486.88" y2="486.88"/><ellipse cx="1058" cy="500.6241" fill="none" rx="3" ry="3" style="stroke:#038048;stroke-width:1.0;"/><text fill="#000000" font-family="sans-serif" font-size="14" lengthAdjust="spacing" textLength="61" x="1067" y="504.4152">id: string</text><ellipse cx="1058" cy="517.1124" fill="none" rx="3" ry="3" style="stroke:#038048;stroke-width:1.0;"/><text fill="#000000" font-family="sans-serif" font-size="14" lengthAdjust="spacing" textLength="67" x="1067" y="520.9034">url: string</text><line style="stroke:#181818;stroke-width:0.5;" x1="1048" x2="1230" y1="527.8566" y2="527.8566"/></g><!--link Milepel to Milepeltype--><g id="link_Milepel_Milepeltype"><path codeLine="19" d="M320.15,343.11 C262.3,382.67 200.84,424.71 157.43,454.4 " fill="none" id="Milepel-Milepeltype" style="stroke:#181818;stroke-width:1.0;"/></g><!--link Milepel to ReferanseJournalpost--><g id="link_Milepel_ReferanseJournalpost"><path codeLine="26" d="M445,370.35 C439.32,391.07 433.71,411.54 428.73,429.7 " fill="none" id="Milepel-ReferanseJournalpost" style="stroke:#181818;stroke-width:1.0;"/></g><!--link Milepel to MilepelStatusEnum--><g id="link_Milepel_MilepelStatusEnum"><path codeLine="36" d="M603.87,370.35 C630.75,401.18 657.16,431.47 677.15,454.4 " fill="none" id="Milepel-MilepelStatusEnum" style="stroke:#181818;stroke-width:1.0;"/></g><!--link Milepel to Dokument--><g id="link_Milepel_Dokument"><path codeLine="37" d="M645.59,230.73 C681.15,230.73 704.7,230.73 740.25,230.73 " fill="none" id="Milepel-to-Dokument" style="stroke:#181818;stroke-width:1.0;"/><polygon fill="#181818" points="752.25,230.73,746.25,226.73,740.25,230.73,746.25,234.73,752.25,230.73" style="stroke:#181818;stroke-width:1.0;"/></g><!--link ReferanseJournalpost to EksternNoekkel--><g id="link_ReferanseJournalpost_EksternNoekkel"><path codeLine="38" d="M328.08,560.88 C298.93,583.56 267.04,608.37 241.26,628.43 " fill="none" id="ReferanseJournalpost-EksternNoekkel" style="stroke:#181818;stroke-width:1.0;"/></g><!--link ReferanseJournalpost to SaksJournalpostnummer--><g id="link_ReferanseJournalpost_SaksJournalpostnummer"><path codeLine="39" d="M411,560.88 C411,580.51 411,601.74 411,620.1 " fill="none" id="ReferanseJournalpost-SaksJournalpostnummer" style="stroke:#181818;stroke-width:1.0;"/></g><!--link ReferanseJournalpost to Journalnummer--><g id="link_ReferanseJournalpost_Journalnummer"><path codeLine="40" d="M513.81,560.88 C549.95,583.56 589.48,608.37 621.44,628.43 " fill="none" id="ReferanseJournalpost-Journalnummer" style="stroke:#181818;stroke-width:1.0;"/></g><!--link Dokument to Dokumenttype--><g id="link_Dokument_Dokumenttype"><path codeLine="77" d="M920,321.01 C920,364.58 920,415.06 920,450.26 " fill="none" id="Dokument-Dokumenttype" style="stroke:#181818;stroke-width:1.0;"/></g><!--link Dokument to ReferanseDokumentfil--><g id="link_Dokument_ReferanseDokumentfil"><path codeLine="78" d="M994.45,321.01 C1032.27,366.37 1076.33,419.2 1105.77,454.51 " fill="none" id="Dokument-ReferanseDokumentfil" style="stroke:#181818;stroke-width:1.0;"/></g><!--SRC=[dLJ1Jjmm4BtdAtnknGz4Y1FG0W9LxB7Yu2MJo6l7NdacaH3YS_eb_R4wsCxQZhS7zX1jtepdUTwRpAlYYEnHA3Y2OkyDSx_l-8O4urtNCYGhzE3HFQ2qOWQ5a0Sa9nYC5MsiGsz7yA7U2gIEascPUmPmejw0tS07CrdDLGaBJM1ro_R6AE3QWnPwi5mZtFj3HuFKikSAMkHV6pcDe2dl0EoEkAM2nA5geX95uZJXsklky_L6JsCyz4EPFLV5gIxmWcrPlCFlb-QZQQBs5nUPVCrhwim2HNUawM06sud21GVNBCefgX85hbhi_oDXON3-MbWGlBlEWy5FfyouT7sVleQYN6B25JDtDRZmyKRYCXPF1gG49tR-NjSriMeDVblTQAhjkzD5wNDfzLkVoyxL20PKIwmEk23dJXu7xrC54UGC6gDwQVYm5JU4Fo9dTf785Svjw09UPrnBveB5cZqV_13bKwAZWwTn1LTmwrciy_JtJzVvlxyKrueFj1mAtD7Dc2sAYIL1bB3vcmcb-QnpC7wmovTt-cHFcsspKLoLP0CbgCyVnGY-Leq5owt7hHHpTYlNepO4ZCoHcVxKQCj-Bdk5M0Uzq08FHhFUSdOh9B95eQPPSztWPPsaWUhL2rK_rz3bvODRDLTNNzz7nRf92C_PDjbiGlu1]--></g></svg>