<svg xmlns="http://www.w3.org/2000/svg" xmlns:xlink="http://www.w3.org/1999/xlink" contentStyleType="text/css" data-diagram-type="CLASS" height="492px" preserveAspectRatio="none" style="width:572px;height:492px;background:#FFFFFF;" version="1.1" viewBox="0 0 572 492" width="572px" zoomAndPan="magnify"><defs/><g><!--class ReferanseDokumentfil--><g id="elem_ReferanseDokumentfil"><rect codeLine="2" fill="#F1F1F1" height="80.9766" id="ReferanseDokumentfil" rx="2.5" ry="2.5" style="stroke:#181818;stroke-width:0.5;" width="182.6777" x="82.21" y="404.37"/><ellipse cx="97.21" cy="420.37" fill="#ADD1B2" rx="11" ry="11" style="stroke:#181818;stroke-width:1;"/><path d="M99.6831,426.5131 Q99.1021,426.8119 98.4629,426.9613 Q97.8238,427.1107 97.1182,427.1107 Q94.6114,427.1107 93.2915,425.4589 Q91.9717,423.807 91.9717,420.6859 Q91.9717,417.5565 93.2915,415.9047 Q94.6114,414.2528 97.1182,414.2528 Q97.8238,414.2528 98.4712,414.4022 Q99.1187,414.5516 99.6831,414.8505 L99.6831,417.5731 Q99.0523,416.9921 98.4588,416.7223 Q97.8653,416.4525 97.2344,416.4525 Q95.8897,416.4525 95.2049,417.5192 Q94.5201,418.5858 94.5201,420.6859 Q94.5201,422.7777 95.2049,423.8444 Q95.8897,424.911 97.2344,424.911 Q97.8653,424.911 98.4588,424.6412 Q99.0523,424.3715 99.6831,423.7904 Z " fill="#000000"/><text fill="#000000" font-family="sans-serif" font-size="14" lengthAdjust="spacing" textLength="150.6777" x="111.21" y="425.661">ReferanseDokumentfil</text><line style="stroke:#181818;stroke-width:0.5;" x1="83.21" x2="263.8877" y1="436.37" y2="436.37"/><ellipse cx="93.21" cy="450.1141" fill="#000000" rx="3" ry="3" style="stroke:#000000;stroke-width:1;"/><text fill="#000000" font-family="sans-serif" font-size="14" lengthAdjust="spacing" textLength="61.2842" x="102.21" y="453.9052">id: string</text><ellipse cx="93.21" cy="466.6024" fill="#000000" rx="3" ry="3" style="stroke:#000000;stroke-width:1;"/><text fill="#000000" font-family="sans-serif" font-size="14" lengthAdjust="spacing" textLength="66.8896" x="102.21" y="470.3934">url: string</text><line style="stroke:#181818;stroke-width:0.5;" x1="83.21" x2="263.8877" y1="477.3466" y2="477.3466"/></g><!--class Dokument--><g id="elem_Dokument"><rect codeLine="3" fill="#F1F1F1" height="163.418" id="Dokument" rx="2.5" ry="2.5" style="stroke:#181818;stroke-width:0.5;" width="333.0908" x="7" y="180.96"/><ellipse cx="133.9194" cy="196.96" fill="#ADD1B2" rx="11" ry="11" style="stroke:#181818;stroke-width:1;"/><path d="M136.3926,203.1031 Q135.8115,203.4019 135.1724,203.5513 Q134.5332,203.7007 133.8276,203.7007 Q131.3208,203.7007 130.001,202.0489 Q128.6812,200.397 128.6812,197.2759 Q128.6812,194.1465 130.001,192.4947 Q131.3208,190.8428 133.8276,190.8428 Q134.5332,190.8428 135.1807,190.9922 Q135.8281,191.1416 136.3926,191.4405 L136.3926,194.1631 Q135.7617,193.5821 135.1682,193.3123 Q134.5747,193.0425 133.9438,193.0425 Q132.5991,193.0425 131.9143,194.1092 Q131.2295,195.1758 131.2295,197.2759 Q131.2295,199.3677 131.9143,200.4344 Q132.5991,201.501 133.9438,201.501 Q134.5747,201.501 135.1682,201.2312 Q135.7617,200.9615 136.3926,200.3804 Z " fill="#000000"/><text fill="#000000" font-family="sans-serif" font-size="14" lengthAdjust="spacing" textLength="70.752" x="154.4194" y="202.251">Dokument</text><line style="stroke:#181818;stroke-width:0.5;" x1="8" x2="339.0908" y1="212.96" y2="212.96"/><ellipse cx="18" cy="226.7041" fill="#000000" rx="3" ry="3" style="stroke:#000000;stroke-width:1;"/><text fill="#000000" font-family="sans-serif" font-size="14" lengthAdjust="spacing" textLength="61.2842" x="27" y="230.4952">id: string</text><ellipse cx="18" cy="243.1924" fill="#000000" rx="3" ry="3" style="stroke:#000000;stroke-width:1;"/><text fill="#000000" font-family="sans-serif" font-size="14" lengthAdjust="spacing" textLength="94.0215" x="27" y="246.9834">filnavn: string</text><ellipse cx="18" cy="259.6807" fill="#000000" rx="3" ry="3" style="stroke:#000000;stroke-width:1;"/><text fill="#000000" font-family="sans-serif" font-size="14" lengthAdjust="spacing" textLength="307.0908" x="27" y="263.4717">referanseDokumentfil: ReferanseDokumentfil</text><text fill="#000000" font-family="sans-serif" font-size="14" lengthAdjust="spacing" textLength="115.5752" x="27" y="279.96">mimetype: string</text><text fill="#000000" font-family="sans-serif" font-size="14" lengthAdjust="spacing" textLength="145.0313" x="27" y="296.4483">dokumentsdato: date</text><text fill="#000000" font-family="sans-serif" font-size="14" lengthAdjust="spacing" textLength="113.7158" x="27" y="312.9366">arkivnavn: string</text><text fill="#000000" font-family="sans-serif" font-size="14" lengthAdjust="spacing" textLength="137.1426" x="27" y="329.4248">filstoerrelse: integer</text><line style="stroke:#181818;stroke-width:0.5;" x1="8" x2="339.0908" y1="336.378" y2="336.378"/></g><g id="elem_GMN4"><path d="M68.48,51.32 L68.48,76.6305 A0,0 0 0 0 68.48,76.6305 L169.55,76.6305 L173.55,180.53 L177.55,76.6305 L278.6084,76.6305 A0,0 0 0 0 278.6084,76.6305 L278.6084,61.32 L268.6084,51.32 L68.48,51.32 A0,0 0 0 0 68.48,51.32 " fill="#FEFFDD" style="stroke:#181818;stroke-width:0.5;"/><path d="M268.6084,51.32 L268.6084,61.32 L278.6084,61.32 L268.6084,51.32 " fill="#FEFFDD" style="stroke:#181818;stroke-width:0.5;"/><text fill="#000000" font-family="sans-serif" font-size="13" lengthAdjust="spacing" textLength="189.1284" x="74.48" y="68.8884">Hentet definisjon fra Fiks Plan</text></g><!--class Dokumentbeskrivelse--><g id="elem_Dokumentbeskrivelse"><rect codeLine="3" fill="#F1F1F1" height="113.9531" id="Dokumentbeskrivelse" rx="2.5" ry="2.5" style="stroke:#181818;stroke-width:0.5;" width="233.0127" x="332.04" y="7"/><ellipse cx="371.5764" cy="23" fill="#ADD1B2" rx="11" ry="11" style="stroke:#181818;stroke-width:1;"/><path d="M374.0496,29.1431 Q373.4685,29.4419 372.8294,29.5913 Q372.1902,29.7407 371.4846,29.7407 Q368.9778,29.7407 367.658,28.0889 Q366.3381,26.437 366.3381,23.3159 Q366.3381,20.1865 367.658,18.5347 Q368.9778,16.8828 371.4846,16.8828 Q372.1902,16.8828 372.8377,17.0322 Q373.4851,17.1816 374.0496,17.4805 L374.0496,20.2031 Q373.4187,19.6221 372.8252,19.3523 Q372.2317,19.0825 371.6008,19.0825 Q370.2561,19.0825 369.5713,20.1492 Q368.8865,21.2158 368.8865,23.3159 Q368.8865,25.4077 369.5713,26.4744 Q370.2561,27.541 371.6008,27.541 Q372.2317,27.541 372.8252,27.2712 Q373.4187,27.0015 374.0496,26.4204 Z " fill="#000000"/><text fill="#000000" font-family="sans-serif" font-size="14" lengthAdjust="spacing" textLength="146.4873" x="391.029" y="28.291">Dokumentbeskrivelse</text><line style="stroke:#181818;stroke-width:0.5;" x1="333.04" x2="564.0527" y1="39" y2="39"/><ellipse cx="343.04" cy="52.7441" fill="#000000" rx="3" ry="3" style="stroke:#000000;stroke-width:1;"/><text fill="#000000" font-family="sans-serif" font-size="14" lengthAdjust="spacing" textLength="108.9648" x="352.04" y="56.5352">systemId: string</text><ellipse cx="343.04" cy="69.2324" fill="#000000" rx="3" ry="3" style="stroke:#000000;stroke-width:1;"/><text fill="#000000" font-family="sans-serif" font-size="14" lengthAdjust="spacing" textLength="80.0283" x="352.04" y="73.0234">tittel: string</text><ellipse cx="343.04" cy="85.7207" fill="#000000" rx="3" ry="3" style="stroke:#000000;stroke-width:1;"/><text fill="#000000" font-family="sans-serif" font-size="14" lengthAdjust="spacing" textLength="207.0127" x="352.04" y="89.5117">dokumenttype: Dokumenttype</text><ellipse cx="343.04" cy="102.209" fill="#000000" rx="3" ry="3" style="stroke:#000000;stroke-width:1;"/><text fill="#000000" font-family="sans-serif" font-size="14" lengthAdjust="spacing" textLength="191.5771" x="352.04" y="106">dokumentobjekt: Dokument</text><line style="stroke:#181818;stroke-width:0.5;" x1="333.04" x2="564.0527" y1="112.9531" y2="112.9531"/></g><!--class Dokumenttype--><g id="elem_Dokumenttype"><rect codeLine="13" fill="#F1F1F1" height="89.5977" id="Dokumenttype" rx="2.5" ry="2.5" style="stroke:#181818;stroke-width:0.5;" width="183.5547" x="374.77" y="217.87"/><ellipse cx="413.0083" cy="238.1805" fill="#ADD1B2" rx="11" ry="11" style="stroke:#181818;stroke-width:1;"/><path d="M415.4814,244.3236 Q414.9004,244.6224 414.2612,244.7719 Q413.6221,244.9213 412.9165,244.9213 Q410.4096,244.9213 409.0898,243.2694 Q407.77,241.6176 407.77,238.4965 Q407.77,235.3671 409.0898,233.7152 Q410.4096,232.0634 412.9165,232.0634 Q413.6221,232.0634 414.2695,232.2128 Q414.917,232.3622 415.4814,232.661 L415.4814,235.3837 Q414.8506,234.8026 414.2571,234.5328 Q413.6636,234.2631 413.0327,234.2631 Q411.688,234.2631 411.0032,235.3297 Q410.3183,236.3964 410.3183,238.4965 Q410.3183,240.5883 411.0032,241.6549 Q411.688,242.7216 413.0327,242.7216 Q413.6636,242.7216 414.2571,242.4518 Q414.8506,242.182 415.4814,241.601 Z " fill="#000000"/><text fill="#000000" font-family="sans-serif" font-size="12" font-style="italic" lengthAdjust="spacing" textLength="42.0176" x="461.1206" y="234.4716">&#171;Kode&#187;</text><text fill="#000000" font-family="sans-serif" font-size="14" lengthAdjust="spacing" textLength="99.9141" x="432.1723" y="250.538">Dokumenttype</text><line style="stroke:#181818;stroke-width:0.5;" x1="375.77" x2="557.3247" y1="258.4911" y2="258.4911"/><ellipse cx="385.77" cy="272.2352" fill="#000000" rx="3" ry="3" style="stroke:#000000;stroke-width:1;"/><text fill="#000000" font-family="sans-serif" font-size="14" lengthAdjust="spacing" textLength="115.4521" x="394.77" y="276.0263">kodeverdi: string</text><text fill="#000000" font-family="sans-serif" font-size="14" lengthAdjust="spacing" textLength="157.5547" x="394.77" y="292.5145">kodebeskrivelse: string</text><line style="stroke:#181818;stroke-width:0.5;" x1="375.77" x2="557.3247" y1="299.4677" y2="299.4677"/></g><!--link Dokument to ReferanseDokumentfil--><g id="link_Dokument_ReferanseDokumentfil"><path codeLine="15" d="M173.55,344.8 C173.55,365.35 173.55,386.53 173.55,404.01 " fill="#FFFFFF" fill-opacity="0.00000" id="Dokument-ReferanseDokumentfil" style="stroke:#181818;stroke-width:1;"/></g><!--link Dokumentbeskrivelse to Dokumenttype--><g id="link_Dokumentbeskrivelse_Dokumenttype"><path codeLine="10" d="M453.7,121.34 C456.5,151.88 459.9,189.06 462.5,217.48 " fill="#FFFFFF" fill-opacity="0.00000" id="Dokumentbeskrivelse-Dokumenttype" style="stroke:#181818;stroke-width:1;stroke-dasharray:7.0,7.0;"/></g><!--link Dokumentbeskrivelse to Dokument--><g id="link_Dokumentbeskrivelse_Dokument"><path codeLine="11" d="M369.74,121.34 C343.95,139.79 314.77,160.66 286.94,180.56 " fill="#FFFFFF" fill-opacity="0.00000" id="Dokumentbeskrivelse-Dokument" style="stroke:#181818;stroke-width:1;stroke-dasharray:7.0,7.0;"/></g><!--SRC=[XK_13e8m3BtlA-RLGubNGZXvCNx5P8NCZOsiXOGO_brGGMTCxA59tsjVtziPNxbUeuGC8FC1B45jvaRAKgq88mm7gD4v9D31zYrwpYgdYBHHJLGjTBqG3q0UN_m5oKOpe2EKDo7dsjD8ZEr9vv8u6jyyKJRCw59iVS9ZX_ackKmf7ovNjFpU49CGlmm0f29_ThwpB3UoACv1OrckQUmy3HYrIQmlw8VgnatY3W00]--></g></svg>