<svg xmlns="http://www.w3.org/2000/svg" xmlns:xlink="http://www.w3.org/1999/xlink" contentStyleType="text/css" data-diagram-type="CLASS" height="508px" preserveAspectRatio="none" style="width:565px;height:508px;background:#FFFFFF;" version="1.1" viewBox="0 0 565 508" width="565px" zoomAndPan="magnify"><defs/><g><!--class ReferanseDokumentfil--><g id="elem_ReferanseDokumentfil"><rect codeLine="2" fill="#F1F1F1" height="80.9766" id="ReferanseDokumentfil" rx="2.5" ry="2.5" style="stroke:#181818;stroke-width:0.5;" width="182.6777" x="82.21" y="420.86"/><ellipse cx="97.21" cy="436.86" fill="#ADD1B2" rx="11" ry="11" style="stroke:#181818;stroke-width:1;"/><path d="M99.6831,443.0031 Q99.1021,443.3019 98.4629,443.4513 Q97.8238,443.6007 97.1182,443.6007 Q94.6114,443.6007 93.2915,441.9489 Q91.9717,440.297 91.9717,437.1759 Q91.9717,434.0465 93.2915,432.3947 Q94.6114,430.7428 97.1182,430.7428 Q97.8238,430.7428 98.4712,430.8922 Q99.1187,431.0416 99.6831,431.3405 L99.6831,434.0631 Q99.0523,433.4821 98.4588,433.2123 Q97.8653,432.9425 97.2344,432.9425 Q95.8897,432.9425 95.2049,434.0092 Q94.5201,435.0758 94.5201,437.1759 Q94.5201,439.2677 95.2049,440.3344 Q95.8897,441.401 97.2344,441.401 Q97.8653,441.401 98.4588,441.1312 Q99.0523,440.8615 99.6831,440.2804 Z " fill="#000000"/><text fill="#000000" font-family="sans-serif" font-size="14" lengthAdjust="spacing" textLength="150.6777" x="111.21" y="442.151">ReferanseDokumentfil</text><line style="stroke:#181818;stroke-width:0.5;" x1="83.21" x2="263.8877" y1="452.86" y2="452.86"/><ellipse cx="93.21" cy="466.6041" fill="#000000" rx="3" ry="3" style="stroke:#000000;stroke-width:1;"/><text fill="#000000" font-family="sans-serif" font-size="14" lengthAdjust="spacing" textLength="61.2842" x="102.21" y="470.3952">id: string</text><ellipse cx="93.21" cy="483.0924" fill="#000000" rx="3" ry="3" style="stroke:#000000;stroke-width:1;"/><text fill="#000000" font-family="sans-serif" font-size="14" lengthAdjust="spacing" textLength="66.8896" x="102.21" y="486.8834">url: string</text><line style="stroke:#181818;stroke-width:0.5;" x1="83.21" x2="263.8877" y1="493.8366" y2="493.8366"/></g><!--class Dokument--><g id="elem_Dokument"><rect codeLine="3" fill="#F1F1F1" height="179.9063" id="Dokument" rx="2.5" ry="2.5" style="stroke:#181818;stroke-width:0.5;" width="333.0908" x="7" y="180.96"/><ellipse cx="133.9194" cy="196.96" fill="#ADD1B2" rx="11" ry="11" style="stroke:#181818;stroke-width:1;"/><path d="M136.3926,203.1031 Q135.8115,203.4019 135.1724,203.5513 Q134.5332,203.7007 133.8276,203.7007 Q131.3208,203.7007 130.001,202.0489 Q128.6812,200.397 128.6812,197.2759 Q128.6812,194.1465 130.001,192.4947 Q131.3208,190.8428 133.8276,190.8428 Q134.5332,190.8428 135.1807,190.9922 Q135.8281,191.1416 136.3926,191.4405 L136.3926,194.1631 Q135.7617,193.5821 135.1682,193.3123 Q134.5747,193.0425 133.9438,193.0425 Q132.5991,193.0425 131.9143,194.1092 Q131.2295,195.1758 131.2295,197.2759 Q131.2295,199.3677 131.9143,200.4344 Q132.5991,201.501 133.9438,201.501 Q134.5747,201.501 135.1682,201.2312 Q135.7617,200.9615 136.3926,200.3804 Z " fill="#000000"/><text fill="#000000" font-family="sans-serif" font-size="14" lengthAdjust="spacing" textLength="70.752" x="154.4194" y="202.251">Dokument</text><line style="stroke:#181818;stroke-width:0.5;" x1="8" x2="339.0908" y1="212.96" y2="212.96"/><ellipse cx="18" cy="226.7041" fill="#000000" rx="3" ry="3" style="stroke:#000000;stroke-width:1;"/><text fill="#000000" font-family="sans-serif" font-size="14" lengthAdjust="spacing" textLength="61.2842" x="27" y="230.4952">id: string</text><text fill="#000000" font-family="sans-serif" font-size="14" lengthAdjust="spacing" textLength="94.0215" x="27" y="246.9834">filnavn: string</text><text fill="#000000" font-family="sans-serif" font-size="14" lengthAdjust="spacing" textLength="207.0127" x="27" y="263.4717">dokumenttype: Dokumenttype</text><text fill="#000000" font-family="sans-serif" font-size="14" lengthAdjust="spacing" textLength="307.0908" x="27" y="279.96">referanseDokumentfil: ReferanseDokumentfil</text><text fill="#000000" font-family="sans-serif" font-size="14" lengthAdjust="spacing" textLength="115.5752" x="27" y="296.4483">mimetype: string</text><text fill="#000000" font-family="sans-serif" font-size="14" lengthAdjust="spacing" textLength="145.0313" x="27" y="312.9366">dokumentsdato: date</text><text fill="#000000" font-family="sans-serif" font-size="14" lengthAdjust="spacing" textLength="113.7158" x="27" y="329.4248">arkivnavn: string</text><text fill="#000000" font-family="sans-serif" font-size="14" lengthAdjust="spacing" textLength="137.1426" x="27" y="345.9131">filstoerrelse: integer</text><line style="stroke:#181818;stroke-width:0.5;" x1="8" x2="339.0908" y1="352.8663" y2="352.8663"/></g><g id="elem_GMN4"><path d="M68.48,51.33 L68.48,76.6405 A0,0 0 0 0 68.48,76.6405 L169.55,76.6405 L173.55,180.7 L177.55,76.6405 L278.6084,76.6405 A0,0 0 0 0 278.6084,76.6405 L278.6084,61.33 L268.6084,51.33 L68.48,51.33 A0,0 0 0 0 68.48,51.33 " fill="#FEFFDD" style="stroke:#181818;stroke-width:0.5;"/><path d="M268.6084,51.33 L268.6084,61.33 L278.6084,61.33 L268.6084,51.33 " fill="#FEFFDD" style="stroke:#181818;stroke-width:0.5;"/><text fill="#000000" font-family="sans-serif" font-size="13" lengthAdjust="spacing" textLength="189.1284" x="74.48" y="68.8984">Hentet definisjon fra Fiks Plan</text></g><!--class Dokumentbeskrivelse--><g id="elem_Dokumentbeskrivelse"><rect codeLine="3" fill="#F1F1F1" height="113.9531" id="Dokumentbeskrivelse" rx="2.5" ry="2.5" style="stroke:#181818;stroke-width:0.5;" width="219.0127" x="335.04" y="7"/><ellipse cx="368.2764" cy="23" fill="#ADD1B2" rx="11" ry="11" style="stroke:#181818;stroke-width:1;"/><path d="M370.7496,29.1431 Q370.1685,29.4419 369.5294,29.5913 Q368.8902,29.7407 368.1846,29.7407 Q365.6778,29.7407 364.358,28.0889 Q363.0381,26.437 363.0381,23.3159 Q363.0381,20.1865 364.358,18.5347 Q365.6778,16.8828 368.1846,16.8828 Q368.8902,16.8828 369.5377,17.0322 Q370.1851,17.1816 370.7496,17.4805 L370.7496,20.2031 Q370.1187,19.6221 369.5252,19.3523 Q368.9317,19.0825 368.3008,19.0825 Q366.9561,19.0825 366.2713,20.1492 Q365.5865,21.2158 365.5865,23.3159 Q365.5865,25.4077 366.2713,26.4744 Q366.9561,27.541 368.3008,27.541 Q368.9317,27.541 369.5252,27.2712 Q370.1187,27.0015 370.7496,26.4204 Z " fill="#000000"/><text fill="#000000" font-family="sans-serif" font-size="14" lengthAdjust="spacing" textLength="146.4873" x="386.329" y="28.291">Dokumentbeskrivelse</text><line style="stroke:#181818;stroke-width:0.5;" x1="336.04" x2="553.0527" y1="39" y2="39"/><text fill="#000000" font-family="sans-serif" font-size="14" lengthAdjust="spacing" textLength="108.9648" x="341.04" y="56.5352">systemId: string</text><text fill="#000000" font-family="sans-serif" font-size="14" lengthAdjust="spacing" textLength="80.0283" x="341.04" y="73.0234">tittel: string</text><text fill="#000000" font-family="sans-serif" font-size="14" lengthAdjust="spacing" textLength="207.0127" x="341.04" y="89.5117">dokumenttype: Dokumenttype</text><text fill="#000000" font-family="sans-serif" font-size="14" lengthAdjust="spacing" textLength="191.5771" x="341.04" y="106">dokumentobjekt: Dokument</text><line style="stroke:#181818;stroke-width:0.5;" x1="336.04" x2="553.0527" y1="112.9531" y2="112.9531"/></g><!--class Dokumenttype--><g id="elem_Dokumenttype"><rect codeLine="13" fill="#F1F1F1" height="89.5977" id="Dokumenttype" rx="2.5" ry="2.5" style="stroke:#181818;stroke-width:0.5;" width="183.5547" x="374.77" y="226.11"/><ellipse cx="413.0083" cy="246.4205" fill="#ADD1B2" rx="11" ry="11" style="stroke:#181818;stroke-width:1;"/><path d="M415.4814,252.5636 Q414.9004,252.8624 414.2612,253.0119 Q413.6221,253.1613 412.9165,253.1613 Q410.4096,253.1613 409.0898,251.5094 Q407.77,249.8576 407.77,246.7365 Q407.77,243.6071 409.0898,241.9552 Q410.4096,240.3034 412.9165,240.3034 Q413.6221,240.3034 414.2695,240.4528 Q414.917,240.6022 415.4814,240.901 L415.4814,243.6237 Q414.8506,243.0426 414.2571,242.7728 Q413.6636,242.5031 413.0327,242.5031 Q411.688,242.5031 411.0032,243.5697 Q410.3183,244.6364 410.3183,246.7365 Q410.3183,248.8283 411.0032,249.8949 Q411.688,250.9616 413.0327,250.9616 Q413.6636,250.9616 414.2571,250.6918 Q414.8506,250.422 415.4814,249.841 Z " fill="#000000"/><text fill="#000000" font-family="sans-serif" font-size="12" font-style="italic" lengthAdjust="spacing" textLength="42.0176" x="461.1206" y="242.7116">&#171;Kode&#187;</text><text fill="#000000" font-family="sans-serif" font-size="14" lengthAdjust="spacing" textLength="99.9141" x="432.1723" y="258.778">Dokumenttype</text><line style="stroke:#181818;stroke-width:0.5;" x1="375.77" x2="557.3247" y1="266.7311" y2="266.7311"/><ellipse cx="385.77" cy="280.4752" fill="#000000" rx="3" ry="3" style="stroke:#000000;stroke-width:1;"/><text fill="#000000" font-family="sans-serif" font-size="14" lengthAdjust="spacing" textLength="115.4521" x="394.77" y="284.2662">kodeverdi: string</text><text fill="#000000" font-family="sans-serif" font-size="14" lengthAdjust="spacing" textLength="157.5547" x="394.77" y="300.7545">kodebeskrivelse: string</text><line style="stroke:#181818;stroke-width:0.5;" x1="375.77" x2="557.3247" y1="307.7077" y2="307.7077"/></g><!--link Dokument to ReferanseDokumentfil--><g id="link_Dokument_ReferanseDokumentfil"><path codeLine="16" d="M173.55,361.16 C173.55,382.09 173.55,403.35 173.55,420.79 " fill="#FFFFFF" fill-opacity="0.00000" id="Dokument-ReferanseDokumentfil" style="stroke:#181818;stroke-width:1;"/></g><!--link Dokumentbeskrivelse to Dokumenttype--><g id="link_Dokumentbeskrivelse_Dokumenttype"><path codeLine="10" d="M450.59,121.25 C454.12,154.19 458.52,195.19 461.81,225.78 " fill="#FFFFFF" fill-opacity="0.00000" id="Dokumentbeskrivelse-Dokumenttype" style="stroke:#181818;stroke-width:1;stroke-dasharray:7.0,7.0;"/></g><!--link Dokumentbeskrivelse to Dokument--><g id="link_Dokumentbeskrivelse_Dokument"><path codeLine="11" d="M370.14,121.25 C345.93,139.56 318.43,160.35 291.83,180.47 " fill="#FFFFFF" fill-opacity="0.00000" id="Dokumentbeskrivelse-Dokument" style="stroke:#181818;stroke-width:1;stroke-dasharray:7.0,7.0;"/></g><!--SRC=[XK_12eCm3BttAxhh3f5THJpjClOLdOtIjRRIH466_puLvzOnM0w1lFVoNd8mldAzHWaPGEO3M8BQp8sKfLeHHXXEKADpIA23xLlqd5LE4McZcgXQw7eXLa2UD_w6PACPq17AXv1pqKYCxKNdaZWQtwmW6sPq2VHAuB73VFTRfeGEjpjQVWl49CIlS83Kuu_c-uzbHnR5DMWio-sJevsd0QCsoU4B-k6wSvDu0W00]--></g></svg>