<svg xmlns="http://www.w3.org/2000/svg" xmlns:xlink="http://www.w3.org/1999/xlink" contentStyleType="text/css" data-diagram-type="CLASS" height="118px" preserveAspectRatio="none" style="width:245px;height:118px;background:#FFFFFF;" version="1.1" viewBox="0 0 245 118" width="245px" zoomAndPan="magnify"><defs/><g><!--class SaksJournalpostnummer--><g id="elem_SaksJournalpostnummer"><rect codeLine="2" fill="#F1F1F1" height="97.4648" id="SaksJournalpostnummer" rx="2.5" ry="2.5" style="stroke:#181818;stroke-width:0.5;" width="224.1123" x="7" y="7"/><ellipse cx="34.0841" cy="23" fill="#ADD1B2" rx="11" ry="11" style="stroke:#181818;stroke-width:1;"/><path d="M36.5572,29.1431 Q35.9762,29.4419 35.337,29.5913 Q34.6979,29.7407 33.9923,29.7407 Q31.4854,29.7407 30.1656,28.0889 Q28.8458,26.437 28.8458,23.3159 Q28.8458,20.1865 30.1656,18.5347 Q31.4854,16.8828 33.9923,16.8828 Q34.6979,16.8828 35.3453,17.0322 Q35.9928,17.1816 36.5572,17.4805 L36.5572,20.2031 Q35.9264,19.6221 35.3329,19.3523 Q34.7394,19.0825 34.1085,19.0825 Q32.7638,19.0825 32.079,20.1492 Q31.3941,21.2158 31.3941,23.3159 Q31.3941,25.4077 32.079,26.4744 Q32.7638,27.541 34.1085,27.541 Q34.7394,27.541 35.3329,27.2712 Q35.9264,27.0015 36.5572,26.4204 Z " fill="#000000"/><text fill="#000000" font-family="sans-serif" font-size="14" lengthAdjust="spacing" textLength="165.2588" x="50.7694" y="28.291">SaksJournalpostnummer</text><line style="stroke:#181818;stroke-width:0.5;" x1="8" x2="230.1123" y1="39" y2="39"/><ellipse cx="18" cy="52.7441" fill="#000000" rx="3" ry="3" style="stroke:#000000;stroke-width:1;"/><text fill="#000000" font-family="sans-serif" font-size="14" lengthAdjust="spacing" textLength="108.2676" x="27" y="56.5352">saksaar: integer</text><ellipse cx="18" cy="69.2324" fill="#000000" rx="3" ry="3" style="stroke:#000000;stroke-width:1;"/><text fill="#000000" font-family="sans-serif" font-size="14" lengthAdjust="spacing" textLength="198.1123" x="27" y="73.0234">sakssekvensnummer: integer</text><ellipse cx="18" cy="85.7207" fill="#000000" rx="3" ry="3" style="stroke:#000000;stroke-width:1;"/><text fill="#000000" font-family="sans-serif" font-size="14" lengthAdjust="spacing" textLength="191.4609" x="27" y="89.5117">journalpostnummer: integer</text><line style="stroke:#181818;stroke-width:0.5;" x1="8" x2="230.1123" y1="96.4648" y2="96.4648"/></g><!--SRC=[Iyv9B2vM24xCBlRABotAIymfo2ykoIlDpKqjKgZcKW02hMAWP69YaPL2Pbv9Qdfg4KAqE3MxB3Ml6A8SJJuBtJY4V2qN0000]--></g></svg>