<svg xmlns="http://www.w3.org/2000/svg" xmlns:xlink="http://www.w3.org/1999/xlink" contentStyleType="text/css" height="118px" preserveAspectRatio="none" style="width:251px;height:118px;background:#FFFFFF;" version="1.1" viewBox="0 0 251 118" width="251px" zoomAndPan="magnify"><defs/><g><!--class SaksJournalpostnummer--><g id="elem_SaksJournalpostnummer"><rect codeLine="2" fill="#F1F1F1" height="97.4648" id="SaksJournalpostnummer" rx="2.5" ry="2.5" style="stroke:#181818;stroke-width:0.5;" width="230" x="7" y="7"/><ellipse cx="35.5" cy="23" fill="#ADD1B2" rx="11" ry="11" style="stroke:#181818;stroke-width:1.0;"/><path d="M37.9731,29.1431 Q37.3921,29.4419 36.7529,29.5913 Q36.1138,29.7407 35.4082,29.7407 Q32.9014,29.7407 31.5815,28.0889 Q30.2617,26.437 30.2617,23.3159 Q30.2617,20.1865 31.5815,18.5347 Q32.9014,16.8828 35.4082,16.8828 Q36.1138,16.8828 36.7612,17.0322 Q37.4087,17.1816 37.9731,17.4805 L37.9731,20.2031 Q37.3423,19.6221 36.7488,19.3523 Q36.1553,19.0825 35.5244,19.0825 Q34.1797,19.0825 33.4949,20.1492 Q32.8101,21.2158 32.8101,23.3159 Q32.8101,25.4077 33.4949,26.4744 Q34.1797,27.541 35.5244,27.541 Q36.1553,27.541 36.7488,27.2712 Q37.3423,27.0015 37.9731,26.4204 Z " fill="#000000"/><text fill="#000000" font-family="sans-serif" font-size="14" lengthAdjust="spacing" textLength="168" x="52.5" y="28.291">SaksJournalpostnummer</text><line style="stroke:#181818;stroke-width:0.5;" x1="8" x2="236" y1="39" y2="39"/><ellipse cx="18" cy="52.7441" fill="none" rx="3" ry="3" style="stroke:#038048;stroke-width:1.0;"/><text fill="#000000" font-family="sans-serif" font-size="14" lengthAdjust="spacing" textLength="114" x="27" y="56.5352">saksaar: number</text><ellipse cx="18" cy="69.2324" fill="none" rx="3" ry="3" style="stroke:#038048;stroke-width:1.0;"/><text fill="#000000" font-family="sans-serif" font-size="14" lengthAdjust="spacing" textLength="204" x="27" y="73.0234">sakssekvensnummer: number</text><ellipse cx="18" cy="85.7207" fill="none" rx="3" ry="3" style="stroke:#038048;stroke-width:1.0;"/><text fill="#000000" font-family="sans-serif" font-size="14" lengthAdjust="spacing" textLength="199" x="27" y="89.5117">journalpostnummer: number</text><line style="stroke:#181818;stroke-width:0.5;" x1="8" x2="236" y1="96.4648" y2="96.4648"/></g><!--SRC=[Iyv9B2vM24xCBlRABotAIymfo2ykoIlDpKqjKgZcKW02xMAWP69YaPK2K3WfjGWXM9oQNPQQLmnHZIgTXMuONBgM2m00]--></g></svg>