<svg xmlns="http://www.w3.org/2000/svg" xmlns:xlink="http://www.w3.org/1999/xlink" contentStyleType="text/css" height="739px" preserveAspectRatio="none" style="width:855px;height:739px;background:#FFFFFF;" version="1.1" viewBox="0 0 855 739" width="855px" zoomAndPan="magnify"><defs/><g><!--class SaksfaserHentResultat--><g id="elem_SaksfaserHentResultat"><rect codeLine="1" fill="#F1F1F1" height="113.9531" id="SaksfaserHentResultat" rx="2.5" ry="2.5" style="stroke:#181818;stroke-width:0.5;" width="211" x="99" y="138.42"/><ellipse cx="126.15" cy="154.42" fill="#ADD1B2" rx="11" ry="11" style="stroke:#181818;stroke-width:1.0;"/><path d="M128.6231,160.5631 Q128.0421,160.8619 127.4029,161.0113 Q126.7638,161.1607 126.0582,161.1607 Q123.5514,161.1607 122.2315,159.5089 Q120.9117,157.857 120.9117,154.7359 Q120.9117,151.6065 122.2315,149.9547 Q123.5514,148.3028 126.0582,148.3028 Q126.7638,148.3028 127.4112,148.4522 Q128.0587,148.6016 128.6231,148.9005 L128.6231,151.6231 Q127.9923,151.0421 127.3988,150.7723 Q126.8053,150.5025 126.1744,150.5025 Q124.8297,150.5025 124.1449,151.5692 Q123.4601,152.6358 123.4601,154.7359 Q123.4601,156.8277 124.1449,157.8944 Q124.8297,158.961 126.1744,158.961 Q126.8053,158.961 127.3988,158.6912 Q127.9923,158.4215 128.6231,157.8404 Z " fill="#000000"/><text fill="#000000" font-family="sans-serif" font-size="14" lengthAdjust="spacing" textLength="152" x="142.85" y="159.711">SaksfaserHentResultat</text><line style="stroke:#181818;stroke-width:0.5;" x1="100" x2="309" y1="170.42" y2="170.42"/><ellipse cx="110" cy="184.1641" fill="none" rx="3" ry="3" style="stroke:#038048;stroke-width:1.0;"/><text fill="#000000" font-family="sans-serif" font-size="14" lengthAdjust="spacing" textLength="185" x="119" y="187.9552">saksnummer: Saksnummer</text><ellipse cx="110" cy="200.6524" fill="none" rx="3" ry="3" style="stroke:#038048;stroke-width:1.0;"/><text fill="#000000" font-family="sans-serif" font-size="14" lengthAdjust="spacing" textLength="109" x="119" y="204.4434">sakstittel: string</text><ellipse cx="110" cy="217.1407" fill="none" rx="3" ry="3" style="stroke:#038048;stroke-width:1.0;"/><text fill="#000000" font-family="sans-serif" font-size="14" lengthAdjust="spacing" textLength="140" x="119" y="220.9317">saksansvarlig: string</text><ellipse cx="110" cy="233.629" fill="none" rx="3" ry="3" style="stroke:#038048;stroke-width:1.0;"/><text fill="#000000" font-family="sans-serif" font-size="14" lengthAdjust="spacing" textLength="83" x="119" y="237.42">faser: Fase[]</text><line style="stroke:#181818;stroke-width:0.5;" x1="100" x2="309" y1="244.3731" y2="244.3731"/></g><!--class Fase--><g id="elem_Fase"><rect codeLine="13" fill="#F1F1F1" height="146.9297" id="Fase" rx="2.5" ry="2.5" style="stroke:#181818;stroke-width:0.5;" width="187" x="387" y="121.94"/><ellipse cx="460.75" cy="137.94" fill="#ADD1B2" rx="11" ry="11" style="stroke:#181818;stroke-width:1.0;"/><path d="M463.2231,144.0831 Q462.6421,144.3819 462.0029,144.5313 Q461.3638,144.6807 460.6582,144.6807 Q458.1514,144.6807 456.8315,143.0289 Q455.5117,141.377 455.5117,138.2559 Q455.5117,135.1265 456.8315,133.4747 Q458.1514,131.8228 460.6582,131.8228 Q461.3638,131.8228 462.0112,131.9722 Q462.6587,132.1216 463.2231,132.4205 L463.2231,135.1431 Q462.5923,134.5621 461.9988,134.2923 Q461.4053,134.0225 460.7744,134.0225 Q459.4297,134.0225 458.7449,135.0892 Q458.0601,136.1558 458.0601,138.2559 Q458.0601,140.3477 458.7449,141.4144 Q459.4297,142.481 460.7744,142.481 Q461.4053,142.481 461.9988,142.2112 Q462.5923,141.9415 463.2231,141.3604 Z " fill="#000000"/><text fill="#000000" font-family="sans-serif" font-size="14" lengthAdjust="spacing" textLength="31" x="481.25" y="143.231">Fase</text><line style="stroke:#181818;stroke-width:0.5;" x1="388" x2="573" y1="153.94" y2="153.94"/><ellipse cx="398" cy="167.6841" fill="none" rx="3" ry="3" style="stroke:#038048;stroke-width:1.0;"/><text fill="#000000" font-family="sans-serif" font-size="14" lengthAdjust="spacing" textLength="109" x="407" y="171.4752">fasenavn: string</text><ellipse cx="398" cy="184.1724" fill="none" rx="3" ry="3" style="stroke:#038048;stroke-width:1.0;"/><text fill="#000000" font-family="sans-serif" font-size="14" lengthAdjust="spacing" textLength="89" x="407" y="187.9634">faseid: string</text><ellipse cx="398" cy="200.6607" fill="none" rx="3" ry="3" style="stroke:#038048;stroke-width:1.0;"/><text fill="#000000" font-family="sans-serif" font-size="14" lengthAdjust="spacing" textLength="131" x="407" y="204.4517">milepeler: Milepel[]</text><ellipse cx="398" cy="217.149" fill="none" rx="3" ry="3" style="stroke:#038048;stroke-width:1.0;"/><text fill="#000000" font-family="sans-serif" font-size="14" lengthAdjust="spacing" textLength="107" x="407" y="220.94">global: boolean</text><ellipse cx="398" cy="233.6373" fill="none" rx="3" ry="3" style="stroke:#038048;stroke-width:1.0;"/><text fill="#000000" font-family="sans-serif" font-size="14" lengthAdjust="spacing" textLength="161" x="407" y="237.4283">status: FaseStatusEnum</text><ellipse cx="398" cy="250.1255" fill="none" rx="3" ry="3" style="stroke:#038048;stroke-width:1.0;"/><text fill="#000000" font-family="sans-serif" font-size="14" lengthAdjust="spacing" textLength="88" x="407" y="253.9166">vedtak: Kode</text><line style="stroke:#181818;stroke-width:0.5;" x1="388" x2="573" y1="260.8697" y2="260.8697"/></g><!--class Saksnummer--><g id="elem_Saksnummer"><rect codeLine="62" fill="#F1F1F1" height="80.9766" id="Saksnummer" rx="2.5" ry="2.5" style="stroke:#181818;stroke-width:0.5;" width="225" x="7" y="419.55"/><ellipse cx="70.75" cy="435.55" fill="#ADD1B2" rx="11" ry="11" style="stroke:#181818;stroke-width:1.0;"/><path d="M73.2231,441.6931 Q72.6421,441.9919 72.0029,442.1413 Q71.3638,442.2907 70.6582,442.2907 Q68.1514,442.2907 66.8315,440.6389 Q65.5117,438.987 65.5117,435.8659 Q65.5117,432.7365 66.8315,431.0847 Q68.1514,429.4328 70.6582,429.4328 Q71.3638,429.4328 72.0112,429.5822 Q72.6587,429.7316 73.2231,430.0305 L73.2231,432.7531 Q72.5923,432.1721 71.9988,431.9023 Q71.4053,431.6325 70.7744,431.6325 Q69.4297,431.6325 68.7449,432.6992 Q68.0601,433.7658 68.0601,435.8659 Q68.0601,437.9577 68.7449,439.0244 Q69.4297,440.091 70.7744,440.091 Q71.4053,440.091 71.9988,439.8212 Q72.5923,439.5515 73.2231,438.9704 Z " fill="#000000"/><text fill="#000000" font-family="sans-serif" font-size="14" lengthAdjust="spacing" textLength="89" x="91.25" y="440.841">Saksnummer</text><line style="stroke:#181818;stroke-width:0.5;" x1="8" x2="231" y1="451.55" y2="451.55"/><ellipse cx="18" cy="465.2941" fill="none" rx="3" ry="3" style="stroke:#038048;stroke-width:1.0;"/><text fill="#000000" font-family="sans-serif" font-size="14" lengthAdjust="spacing" textLength="109" x="27" y="469.0852">saksaar: integer</text><ellipse cx="18" cy="481.7824" fill="none" rx="3" ry="3" style="stroke:#038048;stroke-width:1.0;"/><text fill="#000000" font-family="sans-serif" font-size="14" lengthAdjust="spacing" textLength="199" x="27" y="485.5734">sakssekvensnummer: integer</text><line style="stroke:#181818;stroke-width:0.5;" x1="8" x2="231" y1="492.5266" y2="492.5266"/></g><g id="elem_GMN7"><path d="M285.5,6 L285.5,61.9316 A0,0 0 0 0 285.5,61.9316 L476.5,61.9316 L480.5,121.44 L484.5,61.9316 L675.5,61.9316 A0,0 0 0 0 675.5,61.9316 L675.5,16 L665.5,6 L285.5,6 A0,0 0 0 0 285.5,6 " fill="#FEFFDD" style="stroke:#181818;stroke-width:0.5;"/><path d="M665.5,6 L665.5,16 L675.5,16 L665.5,6 " fill="#FEFFDD" style="stroke:#181818;stroke-width:0.5;"/><text fill="#000000" font-family="sans-serif" font-size="13" lengthAdjust="spacing" textLength="369" x="291.5" y="23.5684">En fase er i hovedsak det som hender mellom to milepeler.</text><text fill="#000000" font-family="sans-serif" font-size="13" lengthAdjust="spacing" textLength="208" x="291.5" y="38.8789">Skal vi ha med vedtak som kode?</text><text fill="#000000" font-family="sans-serif" font-size="13" lengthAdjust="spacing" textLength="368" x="291.5" y="54.1895">Vedtak som: godkjent, delvis godkjent, avsl&#229;tt, avvist osv.</text></g><!--class Kode--><g id="elem_Kode"><rect codeLine="24" fill="#F1F1F1" height="80.9766" id="Kode" rx="2.5" ry="2.5" style="stroke:#181818;stroke-width:0.5;" width="150" x="266.5" y="419.55"/><ellipse cx="319.75" cy="435.55" fill="#ADD1B2" rx="11" ry="11" style="stroke:#181818;stroke-width:1.0;"/><path d="M322.2231,441.6931 Q321.6421,441.9919 321.0029,442.1413 Q320.3638,442.2907 319.6582,442.2907 Q317.1514,442.2907 315.8315,440.6389 Q314.5117,438.987 314.5117,435.8659 Q314.5117,432.7365 315.8315,431.0847 Q317.1514,429.4328 319.6582,429.4328 Q320.3638,429.4328 321.0112,429.5822 Q321.6587,429.7316 322.2231,430.0305 L322.2231,432.7531 Q321.5923,432.1721 320.9988,431.9023 Q320.4053,431.6325 319.7744,431.6325 Q318.4297,431.6325 317.7449,432.6992 Q317.0601,433.7658 317.0601,435.8659 Q317.0601,437.9577 317.7449,439.0244 Q318.4297,440.091 319.7744,440.091 Q320.4053,440.091 320.9988,439.8212 Q321.5923,439.5515 322.2231,438.9704 Z " fill="#000000"/><text fill="#000000" font-family="sans-serif" font-size="14" lengthAdjust="spacing" textLength="35" x="340.25" y="440.841">Kode</text><line style="stroke:#181818;stroke-width:0.5;" x1="267.5" x2="415.5" y1="451.55" y2="451.55"/><ellipse cx="277.5" cy="465.2941" fill="none" rx="3" ry="3" style="stroke:#038048;stroke-width:1.0;"/><text fill="#000000" font-family="sans-serif" font-size="14" lengthAdjust="spacing" textLength="124" x="286.5" y="469.0852">beskrivelse: string</text><ellipse cx="277.5" cy="481.7824" fill="none" rx="3" ry="3" style="stroke:#038048;stroke-width:1.0;"/><text fill="#000000" font-family="sans-serif" font-size="14" lengthAdjust="spacing" textLength="82" x="286.5" y="485.5734">verdi: string</text><line style="stroke:#181818;stroke-width:0.5;" x1="267.5" x2="415.5" y1="492.5266" y2="492.5266"/></g><!--class FaseStatusEnum--><g id="elem_FaseStatusEnum"><rect codeLine="31" fill="#F1F1F1" height="97.4648" id="FaseStatusEnum" rx="2.5" ry="2.5" style="stroke:#181818;stroke-width:0.5;" width="144" x="451.5" y="411.31"/><ellipse cx="466.5" cy="427.31" fill="#EB937F" rx="11" ry="11" style="stroke:#181818;stroke-width:1.0;"/><path d="M470.1143,433.81 L462.3945,433.81 L462.3945,421.4169 L470.1143,421.4169 L470.1143,423.5751 L464.8433,423.5751 L464.8433,426.248 L469.6162,426.248 L469.6162,428.4062 L464.8433,428.4062 L464.8433,431.6518 L470.1143,431.6518 Z " fill="#000000"/><text fill="#000000" font-family="sans-serif" font-size="14" lengthAdjust="spacing" textLength="112" x="480.5" y="432.601">FaseStatusEnum</text><line style="stroke:#181818;stroke-width:0.5;" x1="452.5" x2="594.5" y1="443.31" y2="443.31"/><ellipse cx="462.5" cy="457.0541" fill="none" rx="3" ry="3" style="stroke:#038048;stroke-width:1.0;"/><text fill="#000000" font-family="sans-serif" font-size="14" lengthAdjust="spacing" textLength="55" x="471.5" y="460.8452">Planlagt</text><ellipse cx="462.5" cy="473.5424" fill="none" rx="3" ry="3" style="stroke:#038048;stroke-width:1.0;"/><text fill="#000000" font-family="sans-serif" font-size="14" lengthAdjust="spacing" textLength="88" x="471.5" y="477.3334">UnderArbeid</text><ellipse cx="462.5" cy="490.0307" fill="none" rx="3" ry="3" style="stroke:#038048;stroke-width:1.0;"/><text fill="#000000" font-family="sans-serif" font-size="14" lengthAdjust="spacing" textLength="48" x="471.5" y="493.8217">Utfoert</text><line style="stroke:#181818;stroke-width:0.5;" x1="452.5" x2="594.5" y1="500.7748" y2="500.7748"/></g><!--class Milepel--><g id="elem_Milepel"><rect codeLine="39" fill="#F1F1F1" height="262.3477" id="Milepel" rx="2.5" ry="2.5" style="stroke:#181818;stroke-width:0.5;" width="218" x="630.5" y="328.87"/><ellipse cx="710.75" cy="344.87" fill="#ADD1B2" rx="11" ry="11" style="stroke:#181818;stroke-width:1.0;"/><path d="M713.2231,351.0131 Q712.6421,351.3119 712.0029,351.4613 Q711.3638,351.6107 710.6582,351.6107 Q708.1514,351.6107 706.8315,349.9589 Q705.5117,348.307 705.5117,345.1859 Q705.5117,342.0565 706.8315,340.4047 Q708.1514,338.7528 710.6582,338.7528 Q711.3638,338.7528 712.0112,338.9022 Q712.6587,339.0516 713.2231,339.3505 L713.2231,342.0731 Q712.5923,341.4921 711.9988,341.2223 Q711.4053,340.9525 710.7744,340.9525 Q709.4297,340.9525 708.7449,342.0192 Q708.0601,343.0858 708.0601,345.1859 Q708.0601,347.2777 708.7449,348.3444 Q709.4297,349.411 710.7744,349.411 Q711.4053,349.411 711.9988,349.1412 Q712.5923,348.8715 713.2231,348.2904 Z " fill="#000000"/><text fill="#000000" font-family="sans-serif" font-size="14" lengthAdjust="spacing" textLength="49" x="731.25" y="350.161">Milepel</text><line style="stroke:#181818;stroke-width:0.5;" x1="631.5" x2="847.5" y1="360.87" y2="360.87"/><ellipse cx="641.5" cy="374.6141" fill="none" rx="3" ry="3" style="stroke:#038048;stroke-width:1.0;"/><text fill="#000000" font-family="sans-serif" font-size="14" lengthAdjust="spacing" textLength="108" x="650.5" y="378.4052">systemId: string</text><ellipse cx="641.5" cy="391.1024" fill="none" rx="3" ry="3" style="stroke:#038048;stroke-width:1.0;"/><text fill="#000000" font-family="sans-serif" font-size="14" lengthAdjust="spacing" textLength="124" x="650.5" y="394.8934">beskrivelse: string</text><ellipse cx="641.5" cy="407.5907" fill="none" rx="3" ry="3" style="stroke:#038048;stroke-width:1.0;"/><text fill="#000000" font-family="sans-serif" font-size="14" lengthAdjust="spacing" textLength="100" x="650.5" y="411.3817">kategori: Kode</text><ellipse cx="641.5" cy="424.079" fill="none" rx="3" ry="3" style="stroke:#038048;stroke-width:1.0;"/><text fill="#000000" font-family="sans-serif" font-size="14" lengthAdjust="spacing" textLength="65" x="650.5" y="427.87">frist: date</text><ellipse cx="641.5" cy="440.5673" fill="none" rx="3" ry="3" style="stroke:#038048;stroke-width:1.0;"/><text fill="#000000" font-family="sans-serif" font-size="14" lengthAdjust="spacing" textLength="85" x="650.5" y="444.3583">utfoert: date</text><ellipse cx="641.5" cy="457.0555" fill="none" rx="3" ry="3" style="stroke:#038048;stroke-width:1.0;"/><text fill="#000000" font-family="sans-serif" font-size="14" lengthAdjust="spacing" textLength="118" x="650.5" y="460.8466">journaldato: date</text><ellipse cx="641.5" cy="473.5438" fill="none" rx="3" ry="3" style="stroke:#038048;stroke-width:1.0;"/><text fill="#000000" font-family="sans-serif" font-size="14" lengthAdjust="spacing" textLength="105" x="650.5" y="477.3348">intern: boolean</text><ellipse cx="641.5" cy="490.0321" fill="none" rx="3" ry="3" style="stroke:#038048;stroke-width:1.0;"/><text fill="#000000" font-family="sans-serif" font-size="14" lengthAdjust="spacing" textLength="192" x="650.5" y="493.8231">referanseJournalpost: string</text><ellipse cx="641.5" cy="506.5204" fill="none" rx="3" ry="3" style="stroke:#038048;stroke-width:1.0;"/><text fill="#000000" font-family="sans-serif" font-size="14" lengthAdjust="spacing" textLength="184" x="650.5" y="510.3114">referanseDokument: string</text><ellipse cx="641.5" cy="523.0087" fill="none" rx="3" ry="3" style="stroke:#038048;stroke-width:1.0;"/><text fill="#000000" font-family="sans-serif" font-size="14" lengthAdjust="spacing" textLength="110" x="650.5" y="526.7997">erStart: boolean</text><ellipse cx="641.5" cy="539.497" fill="none" rx="3" ry="3" style="stroke:#038048;stroke-width:1.0;"/><text fill="#000000" font-family="sans-serif" font-size="14" lengthAdjust="spacing" textLength="109" x="650.5" y="543.288">erSlutt: boolean</text><ellipse cx="641.5" cy="555.9852" fill="none" rx="3" ry="3" style="stroke:#038048;stroke-width:1.0;"/><text fill="#000000" font-family="sans-serif" font-size="14" lengthAdjust="spacing" textLength="179" x="650.5" y="559.7763">status: MilepelStatusEnum</text><ellipse cx="641.5" cy="572.4735" fill="none" rx="3" ry="3" style="stroke:#038048;stroke-width:1.0;"/><text fill="#000000" font-family="sans-serif" font-size="14" lengthAdjust="spacing" textLength="122" x="650.5" y="576.2645">erGlobal: boolean</text><line style="stroke:#181818;stroke-width:0.5;" x1="631.5" x2="847.5" y1="583.2177" y2="583.2177"/></g><!--class MilepelStatusEnum--><g id="elem_MilepelStatusEnum"><rect codeLine="57" fill="#F1F1F1" height="80.9766" id="MilepelStatusEnum" rx="2.5" ry="2.5" style="stroke:#181818;stroke-width:0.5;" width="162" x="658.5" y="651.21"/><ellipse cx="673.5" cy="667.21" fill="#EB937F" rx="11" ry="11" style="stroke:#181818;stroke-width:1.0;"/><path d="M677.1143,673.71 L669.3945,673.71 L669.3945,661.3169 L677.1143,661.3169 L677.1143,663.4751 L671.8433,663.4751 L671.8433,666.148 L676.6162,666.148 L676.6162,668.3062 L671.8433,668.3062 L671.8433,671.5518 L677.1143,671.5518 Z " fill="#000000"/><text fill="#000000" font-family="sans-serif" font-size="14" lengthAdjust="spacing" textLength="130" x="687.5" y="672.501">MilepelStatusEnum</text><line style="stroke:#181818;stroke-width:0.5;" x1="659.5" x2="819.5" y1="683.21" y2="683.21"/><ellipse cx="669.5" cy="696.9541" fill="none" rx="3" ry="3" style="stroke:#038048;stroke-width:1.0;"/><text fill="#000000" font-family="sans-serif" font-size="14" lengthAdjust="spacing" textLength="36" x="678.5" y="700.7452">N&#229;dd</text><ellipse cx="669.5" cy="713.4424" fill="none" rx="3" ry="3" style="stroke:#038048;stroke-width:1.0;"/><text fill="#000000" font-family="sans-serif" font-size="14" lengthAdjust="spacing" textLength="55" x="678.5" y="717.2334">Planlagt</text><line style="stroke:#181818;stroke-width:0.5;" x1="659.5" x2="819.5" y1="724.1866" y2="724.1866"/></g><!--link SaksfaserHentResultat to Fase--><g id="link_SaksfaserHentResultat_Fase"><path codeLine="8" d="M310.43,195.4 C335.89,195.4 349.36,195.4 374.83,195.4 " fill="none" id="SaksfaserHentResultat-to-Fase" style="stroke:#181818;stroke-width:1.0;"/><polygon fill="#181818" points="386.83,195.4,380.83,191.4,374.83,195.4,380.83,199.4,386.83,195.4" style="stroke:#181818;stroke-width:1.0;"/></g><!--link SaksfaserHentResultat to Saksnummer--><g id="link_SaksfaserHentResultat_Saksnummer"><path codeLine="9" d="M186.27,252.74 C170.02,302.94 146.66,375.1 132.32,419.43 " fill="none" id="SaksfaserHentResultat-Saksnummer" style="stroke:#181818;stroke-width:1.0;"/></g><!--link Fase to Kode--><g id="link_Fase_Kode"><path codeLine="22" d="M441.97,269.21 C416.34,317.64 383.64,379.41 362.64,419.1 " fill="none" id="Fase-Kode" style="stroke:#181818;stroke-width:1.0;"/></g><!--link Fase to FaseStatusEnum--><g id="link_Fase_FaseStatusEnum"><path codeLine="29" d="M492.42,269.21 C499.83,314.45 509.14,371.34 515.63,410.98 " fill="none" id="Fase-FaseStatusEnum" style="stroke:#181818;stroke-width:1.0;"/></g><!--link Fase to Milepel--><g id="link_Fase_Milepel"><path codeLine="37" d="M553.91,269.04 C573.36,288.41 594.28,309.37 613.5,328.87 C618.91,334.35 624.44,339.98 630.01,345.68 " fill="none" id="Fase-Milepel" style="stroke:#181818;stroke-width:1.0;"/></g><!--link Milepel to MilepelStatusEnum--><g id="link_Milepel_MilepelStatusEnum"><path codeLine="55" d="M739.5,591.64 C739.5,613.25 739.5,634.1 739.5,651.05 " fill="none" id="Milepel-MilepelStatusEnum" style="stroke:#181818;stroke-width:1.0;"/></g><!--SRC=[TLJRRjGm47tFLympfVs0l5H852W8X5Z12-N1My-cRYRsofvOGbK_fr_I7sDYv-9asNt8skTuniVdEBad5GBiL1iEAg3_X9P_OEY95SDJ1VAx24BQlklGrsbX7YyS6sQa6W9xOvi5LpP4vSaqQohjKyC7-VlzftgkglzlVlacBJd7NfPIAkiOWTqHt25LGGqt5eOoG0y67bn4BPf08qDm7JoWrS9qI2GpTj0PmYCI-gixksiLGPGg9GiqI2bBwL3MEetNT_RNZDJGEDq-YhItqfkY2GMWOg3N5quZOHXSY5TGLVV9ywJpQV74gcXFdJ9wZSqwQ_YQXs9YOXfoUoKnx9qZL7RCGSpgGtPxbyOtubdcyhbg-2A76d98WiJOD1z53kD9v1v3wqr42hZM5D5hCqD5fysk5Sfp0qxDlvEof1hEivz3Ek_yNeu_0dnmwBbiFXv_KZfEvqlxDp1sjnltpXwXLOoDysPq8zll9RCQj50PwBE84dfqlRUA170bR2oZjviiF1xGoqk1dtFHqGtjInNpYlUkxJkvGsiQlVWsxBzgAoZrp6U27stPPe_-u-QwYBEJXOkv9-6Tu9FVtrvVjDv4-JnbixogvJT5ARd4WrDD-JK9s4QqymTdv46Q_GC0]--></g></svg>