<svg xmlns="http://www.w3.org/2000/svg" xmlns:xlink="http://www.w3.org/1999/xlink" contentStyleType="text/css" height="947px" preserveAspectRatio="none" style="width:2387px;height:947px;background:#FFFFFF;" version="1.1" viewBox="0 0 2387 947" width="2387px" zoomAndPan="magnify"><defs/><g><!--class ReferanseDokumentfil--><g id="elem_ReferanseDokumentfil"><rect codeLine="38" fill="#F1F1F1" height="80.9766" id="ReferanseDokumentfil" rx="2.5" ry="2.5" style="stroke:#181818;stroke-width:0.5;" width="184" x="2196.5" y="677.12"/><ellipse cx="2211.5" cy="693.12" fill="#ADD1B2" rx="11" ry="11" style="stroke:#181818;stroke-width:1.0;"/><path d="M2213.9731,699.2631 Q2213.3921,699.5619 2212.7529,699.7113 Q2212.1138,699.8607 2211.4082,699.8607 Q2208.9014,699.8607 2207.5815,698.2089 Q2206.2617,696.557 2206.2617,693.4359 Q2206.2617,690.3065 2207.5815,688.6547 Q2208.9014,687.0028 2211.4082,687.0028 Q2212.1138,687.0028 2212.7612,687.1522 Q2213.4087,687.3016 2213.9731,687.6005 L2213.9731,690.3231 Q2213.3423,689.7421 2212.7488,689.4723 Q2212.1553,689.2025 2211.5244,689.2025 Q2210.1797,689.2025 2209.4949,690.2692 Q2208.8101,691.3358 2208.8101,693.4359 Q2208.8101,695.5277 2209.4949,696.5944 Q2210.1797,697.661 2211.5244,697.661 Q2212.1553,697.661 2212.7488,697.3912 Q2213.3423,697.1215 2213.9731,696.5404 Z " fill="#000000"/><text fill="#000000" font-family="sans-serif" font-size="14" lengthAdjust="spacing" textLength="152" x="2225.5" y="698.411">ReferanseDokumentfil</text><line style="stroke:#181818;stroke-width:0.5;" x1="2197.5" x2="2379.5" y1="709.12" y2="709.12"/><ellipse cx="2207.5" cy="722.8641" fill="none" rx="3" ry="3" style="stroke:#038048;stroke-width:1.0;"/><text fill="#000000" font-family="sans-serif" font-size="14" lengthAdjust="spacing" textLength="61" x="2216.5" y="726.6552">id: string</text><ellipse cx="2207.5" cy="739.3524" fill="none" rx="3" ry="3" style="stroke:#038048;stroke-width:1.0;"/><text fill="#000000" font-family="sans-serif" font-size="14" lengthAdjust="spacing" textLength="67" x="2216.5" y="743.1434">url: string</text><line style="stroke:#181818;stroke-width:0.5;" x1="2197.5" x2="2379.5" y1="750.0966" y2="750.0966"/></g><!--class Dokument--><g id="elem_Dokument"><rect codeLine="3" fill="#F1F1F1" height="179.9063" id="Dokument" rx="2.5" ry="2.5" style="stroke:#181818;stroke-width:0.5;" width="335" x="1802" y="106.62"/><ellipse cx="1929.75" cy="122.62" fill="#ADD1B2" rx="11" ry="11" style="stroke:#181818;stroke-width:1.0;"/><path d="M1932.2231,128.7631 Q1931.6421,129.0619 1931.0029,129.2113 Q1930.3638,129.3607 1929.6582,129.3607 Q1927.1514,129.3607 1925.8315,127.7089 Q1924.5117,126.057 1924.5117,122.9359 Q1924.5117,119.8065 1925.8315,118.1547 Q1927.1514,116.5028 1929.6582,116.5028 Q1930.3638,116.5028 1931.0112,116.6522 Q1931.6587,116.8016 1932.2231,117.1005 L1932.2231,119.8231 Q1931.5923,119.2421 1930.9988,118.9723 Q1930.4053,118.7025 1929.7744,118.7025 Q1928.4297,118.7025 1927.7449,119.7692 Q1927.0601,120.8358 1927.0601,122.9359 Q1927.0601,125.0277 1927.7449,126.0944 Q1928.4297,127.161 1929.7744,127.161 Q1930.4053,127.161 1930.9988,126.8912 Q1931.5923,126.6215 1932.2231,126.0404 Z " fill="#000000"/><text fill="#000000" font-family="sans-serif" font-size="14" lengthAdjust="spacing" textLength="71" x="1950.25" y="127.911">Dokument</text><line style="stroke:#181818;stroke-width:0.5;" x1="1803" x2="2136" y1="138.62" y2="138.62"/><ellipse cx="1813" cy="152.3641" fill="none" rx="3" ry="3" style="stroke:#038048;stroke-width:1.0;"/><text fill="#000000" font-family="sans-serif" font-size="14" lengthAdjust="spacing" textLength="61" x="1822" y="156.1552">id: string</text><ellipse cx="1813" cy="168.8524" fill="none" rx="3" ry="3" style="stroke:#038048;stroke-width:1.0;"/><text fill="#000000" font-family="sans-serif" font-size="14" lengthAdjust="spacing" textLength="79" x="1822" y="172.6434">tittel: string</text><ellipse cx="1813" cy="185.3407" fill="none" rx="3" ry="3" style="stroke:#038048;stroke-width:1.0;"/><text fill="#000000" font-family="sans-serif" font-size="14" lengthAdjust="spacing" textLength="94" x="1822" y="189.1317">filnavn: string</text><ellipse cx="1813" cy="201.829" fill="none" rx="3" ry="3" style="stroke:#038048;stroke-width:1.0;"/><text fill="#000000" font-family="sans-serif" font-size="14" lengthAdjust="spacing" textLength="207" x="1822" y="205.62">dokumenttype: Dokumenttype</text><ellipse cx="1813" cy="218.3173" fill="none" rx="3" ry="3" style="stroke:#038048;stroke-width:1.0;"/><text fill="#000000" font-family="sans-serif" font-size="14" lengthAdjust="spacing" textLength="309" x="1822" y="222.1083">referanseDokumentfil: ReferanseDokumentfil</text><ellipse cx="1813" cy="234.8055" fill="none" rx="3" ry="3" style="stroke:#038048;stroke-width:1.0;"/><text fill="#000000" font-family="sans-serif" font-size="14" lengthAdjust="spacing" textLength="115" x="1822" y="238.5966">mimetype: string</text><ellipse cx="1813" cy="251.2938" fill="none" rx="3" ry="3" style="stroke:#038048;stroke-width:1.0;"/><text fill="#000000" font-family="sans-serif" font-size="14" lengthAdjust="spacing" textLength="146" x="1822" y="255.0848">dokumentsdato: date</text><ellipse cx="1813" cy="267.7821" fill="none" rx="3" ry="3" style="stroke:#038048;stroke-width:1.0;"/><text fill="#000000" font-family="sans-serif" font-size="14" lengthAdjust="spacing" textLength="114" x="1822" y="271.5731">arkivnavn: string</text><line style="stroke:#181818;stroke-width:0.5;" x1="1803" x2="2136" y1="278.5263" y2="278.5263"/></g><g id="elem_GMN4"><path d="M1864,13.65 L1864,38.9605 A0,0 0 0 0 1864,38.9605 L1965.5,38.9605 L1969.5,106.19 L1973.5,38.9605 L2075,38.9605 A0,0 0 0 0 2075,38.9605 L2075,23.65 L2065,13.65 L1864,13.65 A0,0 0 0 0 1864,13.65 " fill="#FEFFDD" style="stroke:#181818;stroke-width:0.5;"/><path d="M2065,13.65 L2065,23.65 L2075,23.65 L2065,13.65 " fill="#FEFFDD" style="stroke:#181818;stroke-width:0.5;"/><text fill="#000000" font-family="sans-serif" font-size="13" lengthAdjust="spacing" textLength="190" x="1870" y="31.2184">Hentet definisjon fra Fiks Plan</text></g><!--class Dokumenttype--><g id="elem_Dokumenttype"><rect codeLine="19" fill="#F1F1F1" height="89.5977" id="Dokumenttype" rx="2.5" ry="2.5" style="stroke:#181818;stroke-width:0.5;" width="184" x="2022.5" y="424.66"/><ellipse cx="2060.9" cy="444.9705" fill="#ADD1B2" rx="11" ry="11" style="stroke:#181818;stroke-width:1.0;"/><path d="M2063.3731,451.1136 Q2062.7921,451.4124 2062.1529,451.5619 Q2061.5138,451.7113 2060.8082,451.7113 Q2058.3014,451.7113 2056.9815,450.0594 Q2055.6617,448.4076 2055.6617,445.2865 Q2055.6617,442.1571 2056.9815,440.5052 Q2058.3014,438.8534 2060.8082,438.8534 Q2061.5138,438.8534 2062.1612,439.0028 Q2062.8087,439.1522 2063.3731,439.451 L2063.3731,442.1737 Q2062.7423,441.5926 2062.1488,441.3228 Q2061.5553,441.0531 2060.9244,441.0531 Q2059.5797,441.0531 2058.8949,442.1197 Q2058.2101,443.1864 2058.2101,445.2865 Q2058.2101,447.3783 2058.8949,448.4449 Q2059.5797,449.5116 2060.9244,449.5116 Q2061.5553,449.5116 2062.1488,449.2418 Q2062.7423,448.972 2063.3731,448.391 Z " fill="#000000"/><text fill="#000000" font-family="sans-serif" font-size="12" font-style="italic" lengthAdjust="spacing" textLength="42" x="2109.1" y="441.2616">&#171;Kode&#187;</text><text fill="#000000" font-family="sans-serif" font-size="14" lengthAdjust="spacing" textLength="100" x="2080.1" y="457.328">Dokumenttype</text><line style="stroke:#181818;stroke-width:0.5;" x1="2023.5" x2="2205.5" y1="465.2811" y2="465.2811"/><ellipse cx="2033.5" cy="479.0252" fill="none" rx="3" ry="3" style="stroke:#038048;stroke-width:1.0;"/><text fill="#000000" font-family="sans-serif" font-size="14" lengthAdjust="spacing" textLength="116" x="2042.5" y="482.8162">kodeverdi: string</text><ellipse cx="2033.5" cy="495.5135" fill="none" rx="3" ry="3" style="stroke:#038048;stroke-width:1.0;"/><text fill="#000000" font-family="sans-serif" font-size="14" lengthAdjust="spacing" textLength="158" x="2042.5" y="499.3045">kodebeskrivelse: string</text><line style="stroke:#181818;stroke-width:0.5;" x1="2023.5" x2="2205.5" y1="506.2577" y2="506.2577"/></g><!--class Fase--><g id="elem_Fase"><rect codeLine="2" fill="#F1F1F1" height="163.418" id="Fase" rx="2.5" ry="2.5" style="stroke:#181818;stroke-width:0.5;" width="199" x="891" y="114.86"/><ellipse cx="970.75" cy="130.86" fill="#ADD1B2" rx="11" ry="11" style="stroke:#181818;stroke-width:1.0;"/><path d="M973.2231,137.0031 Q972.6421,137.3019 972.0029,137.4513 Q971.3638,137.6007 970.6582,137.6007 Q968.1514,137.6007 966.8315,135.9489 Q965.5117,134.297 965.5117,131.1759 Q965.5117,128.0465 966.8315,126.3947 Q968.1514,124.7428 970.6582,124.7428 Q971.3638,124.7428 972.0112,124.8922 Q972.6587,125.0416 973.2231,125.3405 L973.2231,128.0631 Q972.5923,127.4821 971.9988,127.2123 Q971.4053,126.9425 970.7744,126.9425 Q969.4297,126.9425 968.7449,128.0092 Q968.0601,129.0758 968.0601,131.1759 Q968.0601,133.2677 968.7449,134.3344 Q969.4297,135.401 970.7744,135.401 Q971.4053,135.401 971.9988,135.1312 Q972.5923,134.8615 973.2231,134.2804 Z " fill="#000000"/><text fill="#000000" font-family="sans-serif" font-size="14" lengthAdjust="spacing" textLength="31" x="991.25" y="136.151">Fase</text><line style="stroke:#181818;stroke-width:0.5;" x1="892" x2="1089" y1="146.86" y2="146.86"/><ellipse cx="902" cy="160.6041" fill="none" rx="3" ry="3" style="stroke:#038048;stroke-width:1.0;"/><text fill="#000000" font-family="sans-serif" font-size="14" lengthAdjust="spacing" textLength="109" x="911" y="164.3952">fasenavn: string</text><ellipse cx="902" cy="177.0924" fill="none" rx="3" ry="3" style="stroke:#038048;stroke-width:1.0;"/><text fill="#000000" font-family="sans-serif" font-size="14" lengthAdjust="spacing" textLength="89" x="911" y="180.8834">faseid: string</text><ellipse cx="902" cy="193.5807" fill="none" rx="3" ry="3" style="stroke:#038048;stroke-width:1.0;"/><text fill="#000000" font-family="sans-serif" font-size="14" lengthAdjust="spacing" textLength="153" x="911" y="197.3717">kategori: Fasekategori</text><ellipse cx="902" cy="210.069" fill="none" rx="3" ry="3" style="stroke:#038048;stroke-width:1.0;"/><text fill="#000000" font-family="sans-serif" font-size="14" lengthAdjust="spacing" textLength="131" x="911" y="213.86">milepeler: Milepel[]</text><ellipse cx="902" cy="226.5573" fill="none" rx="3" ry="3" style="stroke:#038048;stroke-width:1.0;"/><text fill="#000000" font-family="sans-serif" font-size="14" lengthAdjust="spacing" textLength="161" x="911" y="230.3483">status: FaseStatusEnum</text><ellipse cx="902" cy="243.0455" fill="none" rx="3" ry="3" style="stroke:#038048;stroke-width:1.0;"/><text fill="#000000" font-family="sans-serif" font-size="14" lengthAdjust="spacing" textLength="100" x="911" y="246.8366">vedtak: Vedtak</text><ellipse cx="902" cy="259.5338" fill="none" rx="3" ry="3" style="stroke:#038048;stroke-width:1.0;"/><text fill="#000000" font-family="sans-serif" font-size="14" lengthAdjust="spacing" textLength="173" x="911" y="263.3248">dokumenter: Dokument[]</text><line style="stroke:#181818;stroke-width:0.5;" x1="892" x2="1089" y1="270.278" y2="270.278"/></g><g id="elem_GMN11"><path d="M717.5,6 L717.5,46.6211 A0,0 0 0 0 717.5,46.6211 L986.5,46.6211 L990.5,114.64 L994.5,46.6211 L1263.5,46.6211 A0,0 0 0 0 1263.5,46.6211 L1263.5,16 L1253.5,6 L717.5,6 A0,0 0 0 0 717.5,6 " fill="#FEFFDD" style="stroke:#181818;stroke-width:0.5;"/><path d="M1253.5,6 L1253.5,16 L1263.5,16 L1253.5,6 " fill="#FEFFDD" style="stroke:#181818;stroke-width:0.5;"/><text fill="#000000" font-family="sans-serif" font-size="13" lengthAdjust="spacing" textLength="369" x="723.5" y="23.5684">En fase er i hovedsak det som hender mellom to milepeler.</text><text fill="#000000" font-family="sans-serif" font-size="13" lengthAdjust="spacing" textLength="525" x="723.5" y="38.8789">Interne faser sendes ikke ut ved denne protokollen. Vi kutter derfor ut Global flagg.</text></g><path d="M1125,171.26 L1125,187.5705 L1000,175.5924 L1125,195.5705 L1125,211.8811 A0,0 0 0 0 1125,211.8811 L1646,211.8811 A0,0 0 0 0 1646,211.8811 L1646,181.26 L1636,171.26 L1125,171.26 A0,0 0 0 0 1125,171.26 " fill="#FEFFDD" style="stroke:#181818;stroke-width:0.5;"/><path d="M1636,171.26 L1636,181.26 L1646,181.26 L1636,171.26 " fill="#FEFFDD" style="stroke:#181818;stroke-width:0.5;"/><text fill="#000000" font-family="sans-serif" font-size="13" lengthAdjust="spacing" textLength="500" x="1131" y="188.8284">Faseid brukes alene (ikke sammen med saksnummer) for &#229; hente en enkelt fase</text><text fill="#000000" font-family="sans-serif" font-size="13" lengthAdjust="spacing" textLength="165" x="1131" y="204.1389">Den m&#229; dermed v&#230;re unik</text><!--class Vedtak--><g id="elem_Vedtak"><rect codeLine="31" fill="#F1F1F1" height="89.5977" id="Vedtak" rx="2.5" ry="2.5" style="stroke:#181818;stroke-width:0.5;" width="184" x="551.5" y="424.66"/><ellipse cx="615.75" cy="444.9705" fill="#ADD1B2" rx="11" ry="11" style="stroke:#181818;stroke-width:1.0;"/><path d="M618.2231,451.1136 Q617.6421,451.4124 617.0029,451.5619 Q616.3638,451.7113 615.6582,451.7113 Q613.1514,451.7113 611.8315,450.0594 Q610.5117,448.4076 610.5117,445.2865 Q610.5117,442.1571 611.8315,440.5052 Q613.1514,438.8534 615.6582,438.8534 Q616.3638,438.8534 617.0112,439.0028 Q617.6587,439.1522 618.2231,439.451 L618.2231,442.1737 Q617.5923,441.5926 616.9988,441.3228 Q616.4053,441.0531 615.7744,441.0531 Q614.4297,441.0531 613.7449,442.1197 Q613.0601,443.1864 613.0601,445.2865 Q613.0601,447.3783 613.7449,448.4449 Q614.4297,449.5116 615.7744,449.5116 Q616.4053,449.5116 616.9988,449.2418 Q617.5923,448.972 618.2231,448.391 Z " fill="#000000"/><text fill="#000000" font-family="sans-serif" font-size="12" font-style="italic" lengthAdjust="spacing" textLength="42" x="638.75" y="441.2616">&#171;Kode&#187;</text><text fill="#000000" font-family="sans-serif" font-size="14" lengthAdjust="spacing" textLength="47" x="636.25" y="457.328">Vedtak</text><line style="stroke:#181818;stroke-width:0.5;" x1="552.5" x2="734.5" y1="465.2811" y2="465.2811"/><ellipse cx="562.5" cy="479.0252" fill="none" rx="3" ry="3" style="stroke:#038048;stroke-width:1.0;"/><text fill="#000000" font-family="sans-serif" font-size="14" lengthAdjust="spacing" textLength="116" x="571.5" y="482.8162">kodeverdi: string</text><ellipse cx="562.5" cy="495.5135" fill="none" rx="3" ry="3" style="stroke:#038048;stroke-width:1.0;"/><text fill="#000000" font-family="sans-serif" font-size="14" lengthAdjust="spacing" textLength="158" x="571.5" y="499.3045">kodebeskrivelse: string</text><line style="stroke:#181818;stroke-width:0.5;" x1="552.5" x2="734.5" y1="506.2577" y2="506.2577"/></g><!--class FaseStatusEnum--><g id="elem_FaseStatusEnum"><rect codeLine="23" fill="#F1F1F1" height="97.4648" id="FaseStatusEnum" rx="2.5" ry="2.5" style="stroke:#181818;stroke-width:0.5;" width="144" x="770.5" y="420.72"/><ellipse cx="785.5" cy="436.72" fill="#EB937F" rx="11" ry="11" style="stroke:#181818;stroke-width:1.0;"/><path d="M789.1143,443.22 L781.3945,443.22 L781.3945,430.8269 L789.1143,430.8269 L789.1143,432.9851 L783.8433,432.9851 L783.8433,435.658 L788.6162,435.658 L788.6162,437.8162 L783.8433,437.8162 L783.8433,441.0618 L789.1143,441.0618 Z " fill="#000000"/><text fill="#000000" font-family="sans-serif" font-size="14" lengthAdjust="spacing" textLength="112" x="799.5" y="442.011">FaseStatusEnum</text><line style="stroke:#181818;stroke-width:0.5;" x1="771.5" x2="913.5" y1="452.72" y2="452.72"/><ellipse cx="781.5" cy="466.4641" fill="none" rx="3" ry="3" style="stroke:#038048;stroke-width:1.0;"/><text fill="#000000" font-family="sans-serif" font-size="14" lengthAdjust="spacing" textLength="55" x="790.5" y="470.2552">Planlagt</text><ellipse cx="781.5" cy="482.9524" fill="none" rx="3" ry="3" style="stroke:#038048;stroke-width:1.0;"/><text fill="#000000" font-family="sans-serif" font-size="14" lengthAdjust="spacing" textLength="88" x="790.5" y="486.7434">UnderArbeid</text><ellipse cx="781.5" cy="499.4407" fill="none" rx="3" ry="3" style="stroke:#038048;stroke-width:1.0;"/><text fill="#000000" font-family="sans-serif" font-size="14" lengthAdjust="spacing" textLength="48" x="790.5" y="503.2317">Utfoert</text><line style="stroke:#181818;stroke-width:0.5;" x1="771.5" x2="913.5" y1="510.1848" y2="510.1848"/></g><!--class Fasekategori--><g id="elem_Fasekategori"><rect codeLine="36" fill="#F1F1F1" height="89.5977" id="Fasekategori" rx="2.5" ry="2.5" style="stroke:#181818;stroke-width:0.5;" width="184" x="949.5" y="424.66"/><ellipse cx="993.3" cy="444.9705" fill="#ADD1B2" rx="11" ry="11" style="stroke:#181818;stroke-width:1.0;"/><path d="M995.7731,451.1136 Q995.1921,451.4124 994.5529,451.5619 Q993.9138,451.7113 993.2082,451.7113 Q990.7014,451.7113 989.3815,450.0594 Q988.0617,448.4076 988.0617,445.2865 Q988.0617,442.1571 989.3815,440.5052 Q990.7014,438.8534 993.2082,438.8534 Q993.9138,438.8534 994.5612,439.0028 Q995.2087,439.1522 995.7731,439.451 L995.7731,442.1737 Q995.1423,441.5926 994.5488,441.3228 Q993.9553,441.0531 993.3244,441.0531 Q991.9797,441.0531 991.2949,442.1197 Q990.6101,443.1864 990.6101,445.2865 Q990.6101,447.3783 991.2949,448.4449 Q991.9797,449.5116 993.3244,449.5116 Q993.9553,449.5116 994.5488,449.2418 Q995.1423,448.972 995.7731,448.391 Z " fill="#000000"/><text fill="#000000" font-family="sans-serif" font-size="12" font-style="italic" lengthAdjust="spacing" textLength="42" x="1036.7" y="441.2616">&#171;Kode&#187;</text><text fill="#000000" font-family="sans-serif" font-size="14" lengthAdjust="spacing" textLength="88" x="1013.7" y="457.328">Fasekategori</text><line style="stroke:#181818;stroke-width:0.5;" x1="950.5" x2="1132.5" y1="465.2811" y2="465.2811"/><ellipse cx="960.5" cy="479.0252" fill="none" rx="3" ry="3" style="stroke:#038048;stroke-width:1.0;"/><text fill="#000000" font-family="sans-serif" font-size="14" lengthAdjust="spacing" textLength="116" x="969.5" y="482.8162">kodeverdi: string</text><ellipse cx="960.5" cy="495.5135" fill="none" rx="3" ry="3" style="stroke:#038048;stroke-width:1.0;"/><text fill="#000000" font-family="sans-serif" font-size="14" lengthAdjust="spacing" textLength="158" x="969.5" y="499.3045">kodebeskrivelse: string</text><line style="stroke:#181818;stroke-width:0.5;" x1="950.5" x2="1132.5" y1="506.2577" y2="506.2577"/></g><g id="elem_GMN22"><path d="M635.5,153.29 L635.5,239.8427 A0,0 0 0 0 635.5,239.8427 L682.48,239.8427 L651.82,424.28 L690.48,239.8427 L753.5,239.8427 A0,0 0 0 0 753.5,239.8427 L753.5,163.29 L743.5,153.29 L635.5,153.29 A0,0 0 0 0 635.5,153.29 " fill="#FEFFDD" style="stroke:#181818;stroke-width:0.5;"/><path d="M743.5,153.29 L743.5,163.29 L753.5,163.29 L743.5,153.29 " fill="#FEFFDD" style="stroke:#181818;stroke-width:0.5;"/><text fill="#000000" font-family="sans-serif" font-size="13" lengthAdjust="spacing" textLength="69" x="641.5" y="170.8584">Eksempler:</text><text fill="#000000" font-family="sans-serif" font-size="13" lengthAdjust="spacing" textLength="56" x="641.5" y="186.1689">godkjent</text><text fill="#000000" font-family="sans-serif" font-size="13" lengthAdjust="spacing" textLength="97" x="641.5" y="201.4795">delvis godkjent</text><text fill="#000000" font-family="sans-serif" font-size="13" lengthAdjust="spacing" textLength="42" x="641.5" y="216.79">avsl&#229;tt</text><text fill="#000000" font-family="sans-serif" font-size="13" lengthAdjust="spacing" textLength="37" x="641.5" y="232.1005">avvist</text></g><g id="elem_GMN25"><path d="M780.5,666.67 L780.5,768.5333 A0,0 0 0 0 780.5,768.5333 L1106.5,768.5333 A0,0 0 0 0 1106.5,768.5333 L1106.5,676.67 L1096.5,666.67 L967.52,666.67 L1023.87,514.75 L959.52,666.67 L780.5,666.67 A0,0 0 0 0 780.5,666.67 " fill="#FEFFDD" style="stroke:#181818;stroke-width:0.5;"/><path d="M1096.5,666.67 L1096.5,676.67 L1106.5,676.67 L1096.5,666.67 " fill="#FEFFDD" style="stroke:#181818;stroke-width:0.5;"/><text fill="#000000" font-family="sans-serif" font-size="13" lengthAdjust="spacing" textLength="305" x="786.5" y="684.2384">Se gjerne Byggesaksbehandling::Prosesskategori</text><text fill="#000000" font-family="sans-serif" font-size="13" lengthAdjust="spacing" textLength="45" x="790.5" y="699.5489">fra NPS</text><text fill="#000000" font-family="sans-serif" font-size="13" lengthAdjust="spacing" textLength="210" x="786.5" y="714.8595">Vi m&#229; f&#229; avklart denne kodelisten</text><text fill="#000000" font-family="sans-serif" font-size="13" lengthAdjust="spacing" textLength="69" x="786.5" y="730.17">Eksempler:</text><text fill="#000000" font-family="sans-serif" font-size="13" lengthAdjust="spacing" textLength="34" x="786.5" y="745.4805">Klage</text><text fill="#000000" font-family="sans-serif" font-size="13" lengthAdjust="spacing" textLength="43" x="786.5" y="760.7911">H&#248;ring</text></g><!--class EksternNoekkel--><g id="elem_EksternNoekkel"><rect codeLine="2" fill="#F1F1F1" height="80.9766" id="EksternNoekkel" rx="2.5" ry="2.5" style="stroke:#181818;stroke-width:0.5;" width="143" x="1440" y="851.07"/><ellipse cx="1457.25" cy="867.07" fill="#ADD1B2" rx="11" ry="11" style="stroke:#181818;stroke-width:1.0;"/><path d="M1459.7231,873.2131 Q1459.1421,873.5119 1458.5029,873.6613 Q1457.8638,873.8107 1457.1582,873.8107 Q1454.6514,873.8107 1453.3315,872.1589 Q1452.0117,870.507 1452.0117,867.3859 Q1452.0117,864.2565 1453.3315,862.6047 Q1454.6514,860.9528 1457.1582,860.9528 Q1457.8638,860.9528 1458.5112,861.1022 Q1459.1587,861.2516 1459.7231,861.5505 L1459.7231,864.2731 Q1459.0923,863.6921 1458.4988,863.4223 Q1457.9053,863.1525 1457.2744,863.1525 Q1455.9297,863.1525 1455.2449,864.2192 Q1454.5601,865.2858 1454.5601,867.3859 Q1454.5601,869.4777 1455.2449,870.5444 Q1455.9297,871.611 1457.2744,871.611 Q1457.9053,871.611 1458.4988,871.3412 Q1459.0923,871.0715 1459.7231,870.4904 Z " fill="#000000"/><text fill="#000000" font-family="sans-serif" font-size="14" lengthAdjust="spacing" textLength="106" x="1471.75" y="872.361">EksternNoekkel</text><line style="stroke:#181818;stroke-width:0.5;" x1="1441" x2="1582" y1="883.07" y2="883.07"/><ellipse cx="1451" cy="896.8141" fill="none" rx="3" ry="3" style="stroke:#038048;stroke-width:1.0;"/><text fill="#000000" font-family="sans-serif" font-size="14" lengthAdjust="spacing" textLength="117" x="1460" y="900.6052">fagsystem: string</text><ellipse cx="1451" cy="913.3024" fill="none" rx="3" ry="3" style="stroke:#038048;stroke-width:1.0;"/><text fill="#000000" font-family="sans-serif" font-size="14" lengthAdjust="spacing" textLength="102" x="1460" y="917.0934">noekkel: string</text><line style="stroke:#181818;stroke-width:0.5;" x1="1441" x2="1582" y1="924.0466" y2="924.0466"/></g><!--class Journalnummer--><g id="elem_Journalnummer"><rect codeLine="2" fill="#F1F1F1" height="80.9766" id="Journalnummer" rx="2.5" ry="2.5" style="stroke:#181818;stroke-width:0.5;" width="249" x="1618" y="851.07"/><ellipse cx="1684.75" cy="867.07" fill="#ADD1B2" rx="11" ry="11" style="stroke:#181818;stroke-width:1.0;"/><path d="M1687.2231,873.2131 Q1686.6421,873.5119 1686.0029,873.6613 Q1685.3638,873.8107 1684.6582,873.8107 Q1682.1514,873.8107 1680.8315,872.1589 Q1679.5117,870.507 1679.5117,867.3859 Q1679.5117,864.2565 1680.8315,862.6047 Q1682.1514,860.9528 1684.6582,860.9528 Q1685.3638,860.9528 1686.0112,861.1022 Q1686.6587,861.2516 1687.2231,861.5505 L1687.2231,864.2731 Q1686.5923,863.6921 1685.9988,863.4223 Q1685.4053,863.1525 1684.7744,863.1525 Q1683.4297,863.1525 1682.7449,864.2192 Q1682.0601,865.2858 1682.0601,867.3859 Q1682.0601,869.4777 1682.7449,870.5444 Q1683.4297,871.611 1684.7744,871.611 Q1685.4053,871.611 1685.9988,871.3412 Q1686.5923,871.0715 1687.2231,870.4904 Z " fill="#000000"/><text fill="#000000" font-family="sans-serif" font-size="14" lengthAdjust="spacing" textLength="107" x="1705.25" y="872.361">Journalnummer</text><line style="stroke:#181818;stroke-width:0.5;" x1="1619" x2="1866" y1="883.07" y2="883.07"/><ellipse cx="1629" cy="896.8141" fill="none" rx="3" ry="3" style="stroke:#038048;stroke-width:1.0;"/><text fill="#000000" font-family="sans-serif" font-size="14" lengthAdjust="spacing" textLength="169" x="1638" y="900.6052">journalnummer: number</text><ellipse cx="1629" cy="913.3024" fill="none" rx="3" ry="3" style="stroke:#038048;stroke-width:1.0;"/><text fill="#000000" font-family="sans-serif" font-size="14" lengthAdjust="spacing" textLength="223" x="1638" y="917.0934">journalsekvensnummer: number</text><line style="stroke:#181818;stroke-width:0.5;" x1="1619" x2="1866" y1="924.0466" y2="924.0466"/></g><!--class ReferanseJournalpost--><g id="elem_ReferanseJournalpost"><rect codeLine="2" fill="#F1F1F1" height="130.4414" id="ReferanseJournalpost" rx="2.5" ry="2.5" style="stroke:#181818;stroke-width:0.5;" width="369" x="1558" y="652.38"/><ellipse cx="1664.75" cy="668.38" fill="#ADD1B2" rx="11" ry="11" style="stroke:#181818;stroke-width:1.0;"/><path d="M1667.2231,674.5231 Q1666.6421,674.8219 1666.0029,674.9713 Q1665.3638,675.1207 1664.6582,675.1207 Q1662.1514,675.1207 1660.8315,673.4689 Q1659.5117,671.817 1659.5117,668.6959 Q1659.5117,665.5665 1660.8315,663.9147 Q1662.1514,662.2628 1664.6582,662.2628 Q1665.3638,662.2628 1666.0112,662.4122 Q1666.6587,662.5616 1667.2231,662.8605 L1667.2231,665.5831 Q1666.5923,665.0021 1665.9988,664.7323 Q1665.4053,664.4625 1664.7744,664.4625 Q1663.4297,664.4625 1662.7449,665.5292 Q1662.0601,666.5958 1662.0601,668.6959 Q1662.0601,670.7877 1662.7449,671.8544 Q1663.4297,672.921 1664.7744,672.921 Q1665.4053,672.921 1665.9988,672.6512 Q1666.5923,672.3815 1667.2231,671.8004 Z " fill="#000000"/><text fill="#000000" font-family="sans-serif" font-size="14" lengthAdjust="spacing" textLength="147" x="1685.25" y="673.671">ReferanseJournalpost</text><line style="stroke:#181818;stroke-width:0.5;" x1="1559" x2="1926" y1="684.38" y2="684.38"/><ellipse cx="1569" cy="698.1241" fill="none" rx="3" ry="3" style="stroke:#038048;stroke-width:1.0;"/><text fill="#000000" font-family="sans-serif" font-size="14" lengthAdjust="spacing" textLength="108" x="1578" y="701.9152">systemId: string</text><ellipse cx="1569" cy="714.6124" fill="none" rx="3" ry="3" style="stroke:#038048;stroke-width:1.0;"/><text fill="#000000" font-family="sans-serif" font-size="14" lengthAdjust="spacing" textLength="150" x="1578" y="718.4034">registreringsID: string</text><ellipse cx="1569" cy="731.1007" fill="none" rx="3" ry="3" style="stroke:#038048;stroke-width:1.0;"/><text fill="#000000" font-family="sans-serif" font-size="14" lengthAdjust="spacing" textLength="222" x="1578" y="734.8917">journalnummer: Journalnummer</text><ellipse cx="1569" cy="747.589" fill="none" rx="3" ry="3" style="stroke:#038048;stroke-width:1.0;"/><text fill="#000000" font-family="sans-serif" font-size="14" lengthAdjust="spacing" textLength="343" x="1578" y="751.38">saksJournalpostnummer: SaksJournalpostnummer</text><ellipse cx="1569" cy="764.0773" fill="none" rx="3" ry="3" style="stroke:#038048;stroke-width:1.0;"/><text fill="#000000" font-family="sans-serif" font-size="14" lengthAdjust="spacing" textLength="285" x="1578" y="767.8683">referanseEksternNoekkel: EksternNoekkel</text><line style="stroke:#181818;stroke-width:0.5;" x1="1559" x2="1926" y1="774.8214" y2="774.8214"/></g><!--class SaksJournalpostnummer--><g id="elem_SaksJournalpostnummer"><rect codeLine="2" fill="#F1F1F1" height="97.4648" id="SaksJournalpostnummer" rx="2.5" ry="2.5" style="stroke:#181818;stroke-width:0.5;" width="230" x="1901.5" y="842.83"/><ellipse cx="1930" cy="858.83" fill="#ADD1B2" rx="11" ry="11" style="stroke:#181818;stroke-width:1.0;"/><path d="M1932.4731,864.9731 Q1931.8921,865.2719 1931.2529,865.4213 Q1930.6138,865.5707 1929.9082,865.5707 Q1927.4014,865.5707 1926.0815,863.9189 Q1924.7617,862.267 1924.7617,859.1459 Q1924.7617,856.0165 1926.0815,854.3647 Q1927.4014,852.7128 1929.9082,852.7128 Q1930.6138,852.7128 1931.2612,852.8622 Q1931.9087,853.0116 1932.4731,853.3105 L1932.4731,856.0331 Q1931.8423,855.4521 1931.2488,855.1823 Q1930.6553,854.9125 1930.0244,854.9125 Q1928.6797,854.9125 1927.9949,855.9792 Q1927.3101,857.0458 1927.3101,859.1459 Q1927.3101,861.2377 1927.9949,862.3044 Q1928.6797,863.371 1930.0244,863.371 Q1930.6553,863.371 1931.2488,863.1012 Q1931.8423,862.8315 1932.4731,862.2504 Z " fill="#000000"/><text fill="#000000" font-family="sans-serif" font-size="14" lengthAdjust="spacing" textLength="168" x="1947" y="864.121">SaksJournalpostnummer</text><line style="stroke:#181818;stroke-width:0.5;" x1="1902.5" x2="2130.5" y1="874.83" y2="874.83"/><ellipse cx="1912.5" cy="888.5741" fill="none" rx="3" ry="3" style="stroke:#038048;stroke-width:1.0;"/><text fill="#000000" font-family="sans-serif" font-size="14" lengthAdjust="spacing" textLength="114" x="1921.5" y="892.3652">saksaar: number</text><ellipse cx="1912.5" cy="905.0624" fill="none" rx="3" ry="3" style="stroke:#038048;stroke-width:1.0;"/><text fill="#000000" font-family="sans-serif" font-size="14" lengthAdjust="spacing" textLength="204" x="1921.5" y="908.8534">sakssekvensnummer: number</text><ellipse cx="1912.5" cy="921.5507" fill="none" rx="3" ry="3" style="stroke:#038048;stroke-width:1.0;"/><text fill="#000000" font-family="sans-serif" font-size="14" lengthAdjust="spacing" textLength="199" x="1921.5" y="925.3417">journalpostnummer: number</text><line style="stroke:#181818;stroke-width:0.5;" x1="1902.5" x2="2130.5" y1="932.2948" y2="932.2948"/></g><!--class Milepel--><g id="elem_Milepel"><rect codeLine="8" fill="#F1F1F1" height="245.8594" id="Milepel" rx="2.5" ry="2.5" style="stroke:#181818;stroke-width:0.5;" width="325" x="1531" y="346.52"/><ellipse cx="1664.75" cy="362.52" fill="#ADD1B2" rx="11" ry="11" style="stroke:#181818;stroke-width:1.0;"/><path d="M1667.2231,368.6631 Q1666.6421,368.9619 1666.0029,369.1113 Q1665.3638,369.2607 1664.6582,369.2607 Q1662.1514,369.2607 1660.8315,367.6089 Q1659.5117,365.957 1659.5117,362.8359 Q1659.5117,359.7065 1660.8315,358.0547 Q1662.1514,356.4028 1664.6582,356.4028 Q1665.3638,356.4028 1666.0112,356.5522 Q1666.6587,356.7016 1667.2231,357.0005 L1667.2231,359.7231 Q1666.5923,359.1421 1665.9988,358.8723 Q1665.4053,358.6025 1664.7744,358.6025 Q1663.4297,358.6025 1662.7449,359.6692 Q1662.0601,360.7358 1662.0601,362.8359 Q1662.0601,364.9277 1662.7449,365.9944 Q1663.4297,367.061 1664.7744,367.061 Q1665.4053,367.061 1665.9988,366.7912 Q1666.5923,366.5215 1667.2231,365.9404 Z " fill="#000000"/><text fill="#000000" font-family="sans-serif" font-size="14" lengthAdjust="spacing" textLength="49" x="1685.25" y="367.811">Milepel</text><line style="stroke:#181818;stroke-width:0.5;" x1="1532" x2="1855" y1="378.52" y2="378.52"/><ellipse cx="1542" cy="392.2641" fill="none" rx="3" ry="3" style="stroke:#038048;stroke-width:1.0;"/><text fill="#000000" font-family="sans-serif" font-size="14" lengthAdjust="spacing" textLength="108" x="1551" y="396.0552">systemId: string</text><ellipse cx="1542" cy="408.7524" fill="none" rx="3" ry="3" style="stroke:#038048;stroke-width:1.0;"/><text fill="#000000" font-family="sans-serif" font-size="14" lengthAdjust="spacing" textLength="124" x="1551" y="412.5434">beskrivelse: string</text><ellipse cx="1542" cy="425.2407" fill="none" rx="3" ry="3" style="stroke:#038048;stroke-width:1.0;"/><text fill="#000000" font-family="sans-serif" font-size="14" lengthAdjust="spacing" textLength="143" x="1551" y="429.0317">kategori: Milepeltype</text><ellipse cx="1542" cy="441.729" fill="none" rx="3" ry="3" style="stroke:#038048;stroke-width:1.0;"/><text fill="#000000" font-family="sans-serif" font-size="14" lengthAdjust="spacing" textLength="65" x="1551" y="445.52">frist: date</text><ellipse cx="1542" cy="458.2173" fill="none" rx="3" ry="3" style="stroke:#038048;stroke-width:1.0;"/><text fill="#000000" font-family="sans-serif" font-size="14" lengthAdjust="spacing" textLength="85" x="1551" y="462.0083">utfoert: date</text><ellipse cx="1542" cy="474.7055" fill="none" rx="3" ry="3" style="stroke:#038048;stroke-width:1.0;"/><text fill="#000000" font-family="sans-serif" font-size="14" lengthAdjust="spacing" textLength="111" x="1551" y="478.4966">planlagtTil: date</text><ellipse cx="1542" cy="491.1938" fill="none" rx="3" ry="3" style="stroke:#038048;stroke-width:1.0;"/><text fill="#000000" font-family="sans-serif" font-size="14" lengthAdjust="spacing" textLength="105" x="1551" y="494.9848">intern: boolean</text><ellipse cx="1542" cy="507.6821" fill="none" rx="3" ry="3" style="stroke:#038048;stroke-width:1.0;"/><text fill="#000000" font-family="sans-serif" font-size="14" lengthAdjust="spacing" textLength="299" x="1551" y="511.4731">referanseJournalpost: ReferanseJournalpost</text><ellipse cx="1542" cy="524.1704" fill="none" rx="3" ry="3" style="stroke:#038048;stroke-width:1.0;"/><text fill="#000000" font-family="sans-serif" font-size="14" lengthAdjust="spacing" textLength="296" x="1551" y="527.9614">referanseDokument: ReferanseDokumentfil</text><ellipse cx="1542" cy="540.6587" fill="none" rx="3" ry="3" style="stroke:#038048;stroke-width:1.0;"/><text fill="#000000" font-family="sans-serif" font-size="14" lengthAdjust="spacing" textLength="110" x="1551" y="544.4497">erStart: boolean</text><ellipse cx="1542" cy="557.147" fill="none" rx="3" ry="3" style="stroke:#038048;stroke-width:1.0;"/><text fill="#000000" font-family="sans-serif" font-size="14" lengthAdjust="spacing" textLength="109" x="1551" y="560.938">erSlutt: boolean</text><ellipse cx="1542" cy="573.6352" fill="none" rx="3" ry="3" style="stroke:#038048;stroke-width:1.0;"/><text fill="#000000" font-family="sans-serif" font-size="14" lengthAdjust="spacing" textLength="179" x="1551" y="577.4263">status: MilepelStatusEnum</text><line style="stroke:#181818;stroke-width:0.5;" x1="1532" x2="1855" y1="584.3794" y2="584.3794"/></g><!--class Milepeltype--><g id="elem_Milepeltype"><rect codeLine="30" fill="#F1F1F1" height="80.9766" id="Milepeltype" rx="2.5" ry="2.5" style="stroke:#181818;stroke-width:0.5;" width="184" x="1141.5" y="677.12"/><ellipse cx="1190.25" cy="693.12" fill="#ADD1B2" rx="11" ry="11" style="stroke:#181818;stroke-width:1.0;"/><path d="M1192.7231,699.2631 Q1192.1421,699.5619 1191.5029,699.7113 Q1190.8638,699.8607 1190.1582,699.8607 Q1187.6514,699.8607 1186.3315,698.2089 Q1185.0117,696.557 1185.0117,693.4359 Q1185.0117,690.3065 1186.3315,688.6547 Q1187.6514,687.0028 1190.1582,687.0028 Q1190.8638,687.0028 1191.5112,687.1522 Q1192.1587,687.3016 1192.7231,687.6005 L1192.7231,690.3231 Q1192.0923,689.7421 1191.4988,689.4723 Q1190.9053,689.2025 1190.2744,689.2025 Q1188.9297,689.2025 1188.2449,690.2692 Q1187.5601,691.3358 1187.5601,693.4359 Q1187.5601,695.5277 1188.2449,696.5944 Q1188.9297,697.661 1190.2744,697.661 Q1190.9053,697.661 1191.4988,697.3912 Q1192.0923,697.1215 1192.7231,696.5404 Z " fill="#000000"/><text fill="#000000" font-family="sans-serif" font-size="14" lengthAdjust="spacing" textLength="78" x="1210.75" y="698.411">Milepeltype</text><line style="stroke:#181818;stroke-width:0.5;" x1="1142.5" x2="1324.5" y1="709.12" y2="709.12"/><ellipse cx="1152.5" cy="722.8641" fill="none" rx="3" ry="3" style="stroke:#038048;stroke-width:1.0;"/><text fill="#000000" font-family="sans-serif" font-size="14" lengthAdjust="spacing" textLength="116" x="1161.5" y="726.6552">kodeverdi: string</text><ellipse cx="1152.5" cy="739.3524" fill="none" rx="3" ry="3" style="stroke:#038048;stroke-width:1.0;"/><text fill="#000000" font-family="sans-serif" font-size="14" lengthAdjust="spacing" textLength="158" x="1161.5" y="743.1434">kodebeskrivelse: string</text><line style="stroke:#181818;stroke-width:0.5;" x1="1142.5" x2="1324.5" y1="750.0966" y2="750.0966"/></g><g id="elem_GMN35"><path d="M1169,433.83 L1169,505.0722 A0,0 0 0 0 1169,505.0722 L1272.39,505.0722 L1241.58,676.83 L1280.39,505.0722 L1398,505.0722 A0,0 0 0 0 1398,505.0722 L1398,443.83 L1388,433.83 L1169,433.83 A0,0 0 0 0 1169,433.83 " fill="#FEFFDD" style="stroke:#181818;stroke-width:0.5;"/><path d="M1388,433.83 L1388,443.83 L1398,443.83 L1388,433.83 " fill="#FEFFDD" style="stroke:#181818;stroke-width:0.5;"/><text fill="#000000" font-family="sans-serif" font-size="13" lengthAdjust="spacing" textLength="69" x="1175" y="451.3984">Eksempler:</text><text fill="#000000" font-family="sans-serif" font-size="13" lengthAdjust="spacing" textLength="201" x="1175" y="466.7089">Bestilling av oppstartsm&#248;te (BO)</text><text fill="#000000" font-family="sans-serif" font-size="13" lengthAdjust="spacing" textLength="208" x="1175" y="482.0195">Gjennomf&#248;rt oppstartsm&#248;te (OM)</text><text fill="#000000" font-family="sans-serif" font-size="13" lengthAdjust="spacing" textLength="137" x="1175" y="497.33">Mottak av planforslag</text></g><g id="elem_GMN38"><path d="M1962,704.95 L1962,730.2605 A0,0 0 0 0 1962,730.2605 L2161,730.2605 A0,0 0 0 0 2161,730.2605 L2161,714.95 L2151,704.95 L2047.55,704.95 L1856.25,579.31 L2039.55,704.95 L1962,704.95 A0,0 0 0 0 1962,704.95 " fill="#FEFFDD" style="stroke:#181818;stroke-width:0.5;"/><path d="M2151,704.95 L2151,714.95 L2161,714.95 L2151,704.95 " fill="#FEFFDD" style="stroke:#181818;stroke-width:0.5;"/><text fill="#000000" font-family="sans-serif" font-size="13" lengthAdjust="spacing" textLength="178" x="1968" y="722.5184">frist og utfoert ikke p&#229;krevd</text></g><!--class MilepelStatusEnum--><g id="elem_MilepelStatusEnum"><rect codeLine="46" fill="#F1F1F1" height="80.9766" id="MilepelStatusEnum" rx="2.5" ry="2.5" style="stroke:#181818;stroke-width:0.5;" width="162" x="1360.5" y="677.12"/><ellipse cx="1375.5" cy="693.12" fill="#EB937F" rx="11" ry="11" style="stroke:#181818;stroke-width:1.0;"/><path d="M1379.1143,699.62 L1371.3945,699.62 L1371.3945,687.2269 L1379.1143,687.2269 L1379.1143,689.3851 L1373.8433,689.3851 L1373.8433,692.058 L1378.6162,692.058 L1378.6162,694.2162 L1373.8433,694.2162 L1373.8433,697.4618 L1379.1143,697.4618 Z " fill="#000000"/><text fill="#000000" font-family="sans-serif" font-size="14" lengthAdjust="spacing" textLength="130" x="1389.5" y="698.411">MilepelStatusEnum</text><line style="stroke:#181818;stroke-width:0.5;" x1="1361.5" x2="1521.5" y1="709.12" y2="709.12"/><ellipse cx="1371.5" cy="722.8641" fill="none" rx="3" ry="3" style="stroke:#038048;stroke-width:1.0;"/><text fill="#000000" font-family="sans-serif" font-size="14" lengthAdjust="spacing" textLength="36" x="1380.5" y="726.6552">N&#229;dd</text><ellipse cx="1371.5" cy="739.3524" fill="none" rx="3" ry="3" style="stroke:#038048;stroke-width:1.0;"/><text fill="#000000" font-family="sans-serif" font-size="14" lengthAdjust="spacing" textLength="55" x="1380.5" y="743.1434">Planlagt</text><line style="stroke:#181818;stroke-width:0.5;" x1="1361.5" x2="1521.5" y1="750.0966" y2="750.0966"/></g><!--class Saksnummer--><g id="elem_Saksnummer"><rect codeLine="2" fill="#F1F1F1" height="80.9766" id="Saksnummer" rx="2.5" ry="2.5" style="stroke:#181818;stroke-width:0.5;" width="225" x="7" y="428.97"/><ellipse cx="70.75" cy="444.97" fill="#ADD1B2" rx="11" ry="11" style="stroke:#181818;stroke-width:1.0;"/><path d="M73.2231,451.1131 Q72.6421,451.4119 72.0029,451.5613 Q71.3638,451.7107 70.6582,451.7107 Q68.1514,451.7107 66.8315,450.0589 Q65.5117,448.407 65.5117,445.2859 Q65.5117,442.1565 66.8315,440.5047 Q68.1514,438.8528 70.6582,438.8528 Q71.3638,438.8528 72.0112,439.0022 Q72.6587,439.1516 73.2231,439.4505 L73.2231,442.1731 Q72.5923,441.5921 71.9988,441.3223 Q71.4053,441.0525 70.7744,441.0525 Q69.4297,441.0525 68.7449,442.1192 Q68.0601,443.1858 68.0601,445.2859 Q68.0601,447.3777 68.7449,448.4444 Q69.4297,449.511 70.7744,449.511 Q71.4053,449.511 71.9988,449.2412 Q72.5923,448.9715 73.2231,448.3904 Z " fill="#000000"/><text fill="#000000" font-family="sans-serif" font-size="14" lengthAdjust="spacing" textLength="89" x="91.25" y="450.261">Saksnummer</text><line style="stroke:#181818;stroke-width:0.5;" x1="8" x2="231" y1="460.97" y2="460.97"/><ellipse cx="18" cy="474.7141" fill="none" rx="3" ry="3" style="stroke:#038048;stroke-width:1.0;"/><text fill="#000000" font-family="sans-serif" font-size="14" lengthAdjust="spacing" textLength="109" x="27" y="478.5052">saksaar: integer</text><ellipse cx="18" cy="491.2024" fill="none" rx="3" ry="3" style="stroke:#038048;stroke-width:1.0;"/><text fill="#000000" font-family="sans-serif" font-size="14" lengthAdjust="spacing" textLength="199" x="27" y="494.9934">sakssekvensnummer: integer</text><line style="stroke:#181818;stroke-width:0.5;" x1="8" x2="231" y1="501.9466" y2="501.9466"/></g><!--class SaksfaserHentResultat--><g id="elem_SaksfaserHentResultat"><rect codeLine="6" fill="#F1F1F1" height="113.9531" id="SaksfaserHentResultat" rx="2.5" ry="2.5" style="stroke:#181818;stroke-width:0.5;" width="211" x="14" y="139.59"/><ellipse cx="41.15" cy="155.59" fill="#ADD1B2" rx="11" ry="11" style="stroke:#181818;stroke-width:1.0;"/><path d="M43.6231,161.7331 Q43.0421,162.0319 42.4029,162.1813 Q41.7638,162.3307 41.0582,162.3307 Q38.5514,162.3307 37.2315,160.6789 Q35.9117,159.027 35.9117,155.9059 Q35.9117,152.7765 37.2315,151.1247 Q38.5514,149.4728 41.0582,149.4728 Q41.7638,149.4728 42.4112,149.6222 Q43.0587,149.7716 43.6231,150.0705 L43.6231,152.7931 Q42.9923,152.2121 42.3988,151.9423 Q41.8053,151.6725 41.1744,151.6725 Q39.8297,151.6725 39.1449,152.7392 Q38.4601,153.8058 38.4601,155.9059 Q38.4601,157.9977 39.1449,159.0644 Q39.8297,160.131 41.1744,160.131 Q41.8053,160.131 42.3988,159.8612 Q42.9923,159.5915 43.6231,159.0104 Z " fill="#000000"/><text fill="#000000" font-family="sans-serif" font-size="14" lengthAdjust="spacing" textLength="152" x="57.85" y="160.881">SaksfaserHentResultat</text><line style="stroke:#181818;stroke-width:0.5;" x1="15" x2="224" y1="171.59" y2="171.59"/><ellipse cx="25" cy="185.3341" fill="none" rx="3" ry="3" style="stroke:#038048;stroke-width:1.0;"/><text fill="#000000" font-family="sans-serif" font-size="14" lengthAdjust="spacing" textLength="185" x="34" y="189.1252">saksnummer: Saksnummer</text><ellipse cx="25" cy="201.8224" fill="none" rx="3" ry="3" style="stroke:#038048;stroke-width:1.0;"/><text fill="#000000" font-family="sans-serif" font-size="14" lengthAdjust="spacing" textLength="109" x="34" y="205.6134">sakstittel: string</text><ellipse cx="25" cy="218.3107" fill="none" rx="3" ry="3" style="stroke:#038048;stroke-width:1.0;"/><text fill="#000000" font-family="sans-serif" font-size="14" lengthAdjust="spacing" textLength="140" x="34" y="222.1017">saksansvarlig: string</text><ellipse cx="25" cy="234.799" fill="none" rx="3" ry="3" style="stroke:#038048;stroke-width:1.0;"/><text fill="#000000" font-family="sans-serif" font-size="14" lengthAdjust="spacing" textLength="83" x="34" y="238.59">faser: Fase[]</text><line style="stroke:#181818;stroke-width:0.5;" x1="15" x2="224" y1="245.5431" y2="245.5431"/></g><path d="M260.5,171.26 L260.5,187.5705 L117,233.299 L260.5,195.5705 L260.5,211.8811 A0,0 0 0 0 260.5,211.8811 L600.5,211.8811 A0,0 0 0 0 600.5,211.8811 L600.5,181.26 L590.5,171.26 L260.5,171.26 A0,0 0 0 0 260.5,171.26 " fill="#FEFFDD" style="stroke:#181818;stroke-width:0.5;"/><path d="M590.5,171.26 L590.5,181.26 L600.5,181.26 L590.5,171.26 " fill="#FEFFDD" style="stroke:#181818;stroke-width:0.5;"/><text fill="#000000" font-family="sans-serif" font-size="13" lengthAdjust="spacing" textLength="319" x="266.5" y="188.8284">Rekkef&#248;lgen av Fase objekter i faser er signifikant.</text><text fill="#000000" font-family="sans-serif" font-size="13" lengthAdjust="spacing" textLength="217" x="266.5" y="204.1389">Det er den rekkef&#248;lgen fasene har.</text><!--link Dokument to Dokumenttype--><g id="link_Dokument_Dokumenttype"><path codeLine="16" d="M2017.38,287.02 C2042.05,333.1 2071.02,387.23 2090.87,424.3 " fill="none" id="Dokument-Dokumenttype" style="stroke:#181818;stroke-width:1.0;"/></g><!--link Dokument to ReferanseDokumentfil--><g id="link_Dokument_ReferanseDokumentfil"><path codeLine="17" d="M1951.85,286.72 C1939.95,373.94 1936.9,505.92 2004.5,592.38 C2054.89,656.83 2104.15,618.26 2178.5,652.38 C2193.98,659.49 2210.09,668.13 2225.07,676.74 " fill="none" id="Dokument-ReferanseDokumentfil" style="stroke:#181818;stroke-width:1.0;"/></g><!--link Fase to Vedtak--><g id="link_Fase_Vedtak"><path codeLine="19" d="M890.62,252 C846.64,278.03 795.54,311.19 753.5,346.52 C725.89,369.73 698.71,399.77 678.27,424.23 " fill="none" id="Fase-Vedtak" style="stroke:#181818;stroke-width:1.0;"/></g><!--link Fase to FaseStatusEnum--><g id="link_Fase_FaseStatusEnum"><path codeLine="20" d="M946.3,278.48 C921,324.78 890.12,381.29 868.65,420.58 " fill="none" id="Fase-FaseStatusEnum" style="stroke:#181818;stroke-width:1.0;"/></g><!--link Fase to Fasekategori--><g id="link_Fase_Fasekategori"><path codeLine="21" d="M1005.73,278.48 C1014.74,326.34 1025.81,385.11 1033.22,424.49 " fill="none" id="Fase-Fasekategori" style="stroke:#181818;stroke-width:1.0;"/></g><!--link Milepel to Milepeltype--><g id="link_Milepel_Milepeltype"><path codeLine="23" d="M1530.56,553.04 C1471.33,583.62 1404.07,618.99 1343.5,652.38 C1329.56,660.07 1314.76,668.51 1300.68,676.68 " fill="none" id="Milepel-Milepeltype" style="stroke:#181818;stroke-width:1.0;"/></g><!--link Milepel to ReferanseJournalpost--><g id="link_Milepel_ReferanseJournalpost"><path codeLine="35" d="M1717.86,592.81 C1721.94,613.32 1726.03,633.86 1729.67,652.14 " fill="none" id="Milepel-ReferanseJournalpost" style="stroke:#181818;stroke-width:1.0;"/></g><!--link Milepel to ReferanseDokumentfil--><g id="link_Milepel_ReferanseDokumentfil"><path codeLine="36" d="M1856.5,555.83 C1885.06,569.09 1914.83,581.86 1943.5,592.38 C2044.69,629.54 2078.77,611.48 2178.5,652.38 C2194.77,659.05 2211.54,667.78 2226.93,676.63 " fill="none" id="Milepel-ReferanseDokumentfil" style="stroke:#181818;stroke-width:1.0;"/></g><!--link Milepel to MilepelStatusEnum--><g id="link_Milepel_MilepelStatusEnum"><path codeLine="41" d="M1568.24,592.81 C1537.11,623.21 1505.92,653.68 1482.27,676.78 " fill="none" id="Milepel-MilepelStatusEnum" style="stroke:#181818;stroke-width:1.0;"/></g><!--link ReferanseJournalpost to EksternNoekkel--><g id="link_ReferanseJournalpost_EksternNoekkel"><path codeLine="42" d="M1655.83,783.12 C1625.36,805.8 1592.03,830.61 1565.08,850.67 " fill="none" id="ReferanseJournalpost-EksternNoekkel" style="stroke:#181818;stroke-width:1.0;"/></g><!--link ReferanseJournalpost to SaksJournalpostnummer--><g id="link_ReferanseJournalpost_SaksJournalpostnummer"><path codeLine="43" d="M1845.31,783.12 C1876.59,802.75 1910.41,823.98 1939.67,842.34 " fill="none" id="ReferanseJournalpost-SaksJournalpostnummer" style="stroke:#181818;stroke-width:1.0;"/></g><!--link ReferanseJournalpost to Journalnummer--><g id="link_ReferanseJournalpost_Journalnummer"><path codeLine="44" d="M1742.5,783.12 C1742.5,805.8 1742.5,830.61 1742.5,850.67 " fill="none" id="ReferanseJournalpost-Journalnummer" style="stroke:#181818;stroke-width:1.0;"/></g><!--link SaksfaserHentResultat to Fase--><g id="link_SaksfaserHentResultat_Fase"><path codeLine="18" d="M169.35,139.1 C194.14,114.87 226.23,89.37 261,76.62 C363.85,38.89 647.45,51.14 754,76.62 C801.35,87.94 839.4291,104.5902 880.1491,127.0202 " fill="none" id="SaksfaserHentResultat-to-Fase" style="stroke:#181818;stroke-width:1.0;"/><polygon fill="#181818" points="890.66,132.81,887.3345,126.4115,880.1491,127.0202,883.4746,133.4187,890.66,132.81" style="stroke:#181818;stroke-width:1.0;"/></g><!--link SaksfaserHentResultat to Saksnummer--><g id="link_SaksfaserHentResultat_Saksnummer"><path codeLine="19" d="M119.5,254.03 C119.5,306.28 119.5,382.64 119.5,428.74 " fill="none" id="SaksfaserHentResultat-Saksnummer" style="stroke:#181818;stroke-width:1.0;"/></g><!--link Fase to Milepel--><g id="link_Fase_Milepel"><path codeLine="27" d="M1090.49,277.97 C1096.11,281.09 1101.79,283.97 1107.5,286.52 C1234.77,343.55 1282.39,304.93 1415.5,346.52 C1453.6,358.43 1493.5,373.97 1530.79,389.94 " fill="none" id="Fase-Milepel" style="stroke:#181818;stroke-width:1.0;"/></g><!--link Fase to Dokument--><g id="link_Fase_Dokument"><path codeLine="28" d="M1063.52,114.62 C1081.9,99.1 1102.78,85.09 1125,76.62 C1233.19,35.38 1532.04,56.17 1646,76.62 C1698.03,85.95 1741.395,98.894 1790.615,117.364 " fill="none" id="Fase-to-Dokument" style="stroke:#181818;stroke-width:1.0;"/><polygon fill="#181818" points="1801.85,121.58,1797.6378,115.727,1790.615,117.364,1794.8272,123.217,1801.85,121.58" style="stroke:#181818;stroke-width:1.0;"/></g><!--SRC=[fLAxJWCn4Epz5PiEWkA8zkeeeg499Q9mulN5sBSN-N4DudFW6-ZpOzYRGnT4A13MoMVlxipEh3opjFDP8yYbb4lgfOlIsB95vQ9H4OCSRgL1xp5AtRlS8QNbpgiOjLLjK9qyP37x2qkz_u-XinuFwFz7KcEKkmx33nx10NZuGjqLpnkCsIULu4L0MJSJlE72qtdA9PiI-WPY2fRQAQue3YfustvFSPy6rkNt-2HUXQ0-8NWq2NfpMKdJS8Zn6tGEpV73jqYW1kQ1VlkCBc402rm9vOks9LjceYX9HgumrRWkk71EKX64i5T12YGDLOyGbqUoc7F3txABym6Dpe9jzsoj0azEh6P1Qpx2DcI74PIlAgviKGPH5GQ23ZLCqxy6qmSuli6-z4GeUII7Fh61qM71b0ADeKA7utj0o6GTd1dZWHMbzwUdDTxdi1gVlFW4]--></g></svg>