<svg xmlns="http://www.w3.org/2000/svg" xmlns:xlink="http://www.w3.org/1999/xlink" contentStyleType="text/css" height="930px" preserveAspectRatio="none" style="width:1903px;height:930px;background:#FFFFFF;" version="1.1" viewBox="0 0 1903 930" width="1903px" zoomAndPan="magnify"><defs/><g><!--class SaksfaserHentResultat--><g id="elem_SaksfaserHentResultat"><rect codeLine="1" fill="#F1F1F1" height="113.9531" id="SaksfaserHentResultat" rx="2.5" ry="2.5" style="stroke:#181818;stroke-width:0.5;" width="211" x="118.5" y="131.35"/><ellipse cx="145.65" cy="147.35" fill="#ADD1B2" rx="11" ry="11" style="stroke:#181818;stroke-width:1.0;"/><path d="M148.1231,153.4931 Q147.5421,153.7919 146.9029,153.9413 Q146.2638,154.0907 145.5582,154.0907 Q143.0514,154.0907 141.7315,152.4389 Q140.4117,150.787 140.4117,147.6659 Q140.4117,144.5365 141.7315,142.8847 Q143.0514,141.2328 145.5582,141.2328 Q146.2638,141.2328 146.9112,141.3822 Q147.5587,141.5316 148.1231,141.8305 L148.1231,144.5531 Q147.4923,143.9721 146.8988,143.7023 Q146.3053,143.4325 145.6744,143.4325 Q144.3297,143.4325 143.6449,144.4992 Q142.9601,145.5658 142.9601,147.6659 Q142.9601,149.7577 143.6449,150.8244 Q144.3297,151.891 145.6744,151.891 Q146.3053,151.891 146.8988,151.6212 Q147.4923,151.3515 148.1231,150.7704 Z " fill="#000000"/><text fill="#000000" font-family="sans-serif" font-size="14" lengthAdjust="spacing" textLength="152" x="162.35" y="152.641">SaksfaserHentResultat</text><line style="stroke:#181818;stroke-width:0.5;" x1="119.5" x2="328.5" y1="163.35" y2="163.35"/><ellipse cx="129.5" cy="177.0941" fill="none" rx="3" ry="3" style="stroke:#038048;stroke-width:1.0;"/><text fill="#000000" font-family="sans-serif" font-size="14" lengthAdjust="spacing" textLength="185" x="138.5" y="180.8852">saksnummer: Saksnummer</text><ellipse cx="129.5" cy="193.5824" fill="none" rx="3" ry="3" style="stroke:#038048;stroke-width:1.0;"/><text fill="#000000" font-family="sans-serif" font-size="14" lengthAdjust="spacing" textLength="109" x="138.5" y="197.3734">sakstittel: string</text><ellipse cx="129.5" cy="210.0707" fill="none" rx="3" ry="3" style="stroke:#038048;stroke-width:1.0;"/><text fill="#000000" font-family="sans-serif" font-size="14" lengthAdjust="spacing" textLength="140" x="138.5" y="213.8617">saksansvarlig: string</text><ellipse cx="129.5" cy="226.559" fill="none" rx="3" ry="3" style="stroke:#038048;stroke-width:1.0;"/><text fill="#000000" font-family="sans-serif" font-size="14" lengthAdjust="spacing" textLength="83" x="138.5" y="230.35">faser: Fase[]</text><line style="stroke:#181818;stroke-width:0.5;" x1="119.5" x2="328.5" y1="237.3031" y2="237.3031"/></g><!--class Fase--><g id="elem_Fase"><rect codeLine="14" fill="#F1F1F1" height="163.418" id="Fase" rx="2.5" ry="2.5" style="stroke:#181818;stroke-width:0.5;" width="199" x="584.5" y="106.62"/><ellipse cx="664.25" cy="122.62" fill="#ADD1B2" rx="11" ry="11" style="stroke:#181818;stroke-width:1.0;"/><path d="M666.7231,128.7631 Q666.1421,129.0619 665.5029,129.2113 Q664.8638,129.3607 664.1582,129.3607 Q661.6514,129.3607 660.3315,127.7089 Q659.0117,126.057 659.0117,122.9359 Q659.0117,119.8065 660.3315,118.1547 Q661.6514,116.5028 664.1582,116.5028 Q664.8638,116.5028 665.5112,116.6522 Q666.1587,116.8016 666.7231,117.1005 L666.7231,119.8231 Q666.0923,119.2421 665.4988,118.9723 Q664.9053,118.7025 664.2744,118.7025 Q662.9297,118.7025 662.2449,119.7692 Q661.5601,120.8358 661.5601,122.9359 Q661.5601,125.0277 662.2449,126.0944 Q662.9297,127.161 664.2744,127.161 Q664.9053,127.161 665.4988,126.8912 Q666.0923,126.6215 666.7231,126.0404 Z " fill="#000000"/><text fill="#000000" font-family="sans-serif" font-size="14" lengthAdjust="spacing" textLength="31" x="684.75" y="127.911">Fase</text><line style="stroke:#181818;stroke-width:0.5;" x1="585.5" x2="782.5" y1="138.62" y2="138.62"/><ellipse cx="595.5" cy="152.3641" fill="none" rx="3" ry="3" style="stroke:#038048;stroke-width:1.0;"/><text fill="#000000" font-family="sans-serif" font-size="14" lengthAdjust="spacing" textLength="109" x="604.5" y="156.1552">fasenavn: string</text><ellipse cx="595.5" cy="168.8524" fill="none" rx="3" ry="3" style="stroke:#038048;stroke-width:1.0;"/><text fill="#000000" font-family="sans-serif" font-size="14" lengthAdjust="spacing" textLength="89" x="604.5" y="172.6434">faseid: string</text><ellipse cx="595.5" cy="185.3407" fill="none" rx="3" ry="3" style="stroke:#038048;stroke-width:1.0;"/><text fill="#000000" font-family="sans-serif" font-size="14" lengthAdjust="spacing" textLength="153" x="604.5" y="189.1317">kategori: Fasekategori</text><ellipse cx="595.5" cy="201.829" fill="none" rx="3" ry="3" style="stroke:#038048;stroke-width:1.0;"/><text fill="#000000" font-family="sans-serif" font-size="14" lengthAdjust="spacing" textLength="131" x="604.5" y="205.62">milepeler: Milepel[]</text><ellipse cx="595.5" cy="218.3173" fill="none" rx="3" ry="3" style="stroke:#038048;stroke-width:1.0;"/><text fill="#000000" font-family="sans-serif" font-size="14" lengthAdjust="spacing" textLength="161" x="604.5" y="222.1083">status: FaseStatusEnum</text><ellipse cx="595.5" cy="234.8055" fill="none" rx="3" ry="3" style="stroke:#038048;stroke-width:1.0;"/><text fill="#000000" font-family="sans-serif" font-size="14" lengthAdjust="spacing" textLength="100" x="604.5" y="238.5966">vedtak: Vedtak</text><ellipse cx="595.5" cy="251.2938" fill="none" rx="3" ry="3" style="stroke:#038048;stroke-width:1.0;"/><text fill="#000000" font-family="sans-serif" font-size="14" lengthAdjust="spacing" textLength="173" x="604.5" y="255.0848">dokumenter: Dokument[]</text><line style="stroke:#181818;stroke-width:0.5;" x1="585.5" x2="782.5" y1="262.038" y2="262.038"/></g><!--class Saksnummer--><g id="elem_Saksnummer"><rect codeLine="122" fill="#F1F1F1" height="80.9766" id="Saksnummer" rx="2.5" ry="2.5" style="stroke:#181818;stroke-width:0.5;" width="225" x="111.5" y="412.48"/><ellipse cx="175.25" cy="428.48" fill="#ADD1B2" rx="11" ry="11" style="stroke:#181818;stroke-width:1.0;"/><path d="M177.7231,434.6231 Q177.1421,434.9219 176.5029,435.0713 Q175.8638,435.2207 175.1582,435.2207 Q172.6514,435.2207 171.3315,433.5689 Q170.0117,431.917 170.0117,428.7959 Q170.0117,425.6665 171.3315,424.0147 Q172.6514,422.3628 175.1582,422.3628 Q175.8638,422.3628 176.5112,422.5122 Q177.1587,422.6616 177.7231,422.9605 L177.7231,425.6831 Q177.0923,425.1021 176.4988,424.8323 Q175.9053,424.5625 175.2744,424.5625 Q173.9297,424.5625 173.2449,425.6292 Q172.5601,426.6958 172.5601,428.7959 Q172.5601,430.8877 173.2449,431.9544 Q173.9297,433.021 175.2744,433.021 Q175.9053,433.021 176.4988,432.7512 Q177.0923,432.4815 177.7231,431.9004 Z " fill="#000000"/><text fill="#000000" font-family="sans-serif" font-size="14" lengthAdjust="spacing" textLength="89" x="195.75" y="433.771">Saksnummer</text><line style="stroke:#181818;stroke-width:0.5;" x1="112.5" x2="335.5" y1="444.48" y2="444.48"/><ellipse cx="122.5" cy="458.2241" fill="none" rx="3" ry="3" style="stroke:#038048;stroke-width:1.0;"/><text fill="#000000" font-family="sans-serif" font-size="14" lengthAdjust="spacing" textLength="109" x="131.5" y="462.0152">saksaar: integer</text><ellipse cx="122.5" cy="474.7124" fill="none" rx="3" ry="3" style="stroke:#038048;stroke-width:1.0;"/><text fill="#000000" font-family="sans-serif" font-size="14" lengthAdjust="spacing" textLength="199" x="131.5" y="478.5034">sakssekvensnummer: integer</text><line style="stroke:#181818;stroke-width:0.5;" x1="112.5" x2="335.5" y1="485.4566" y2="485.4566"/></g><g id="elem_GMN7"><path d="M6,13.65 L6,38.9605 A0,0 0 0 0 6,38.9605 L193.18,38.9605 L213.8,131.05 L201.18,38.9605 L384,38.9605 A0,0 0 0 0 384,38.9605 L384,23.65 L374,13.65 L6,13.65 A0,0 0 0 0 6,13.65 " fill="#FEFFDD" style="stroke:#181818;stroke-width:0.5;"/><path d="M374,13.65 L374,23.65 L384,23.65 L374,13.65 " fill="#FEFFDD" style="stroke:#181818;stroke-width:0.5;"/><text fill="#000000" font-family="sans-serif" font-size="13" lengthAdjust="spacing" textLength="357" x="12" y="31.2184">Rekkef&#248;lgen av faser er den rekkef&#248;lgen som fasene har.</text></g><g id="elem_GMN10"><path d="M419,6 L419,46.6211 A0,0 0 0 0 419,46.6211 L687.02,46.6211 L688.04,106.47 L695.02,46.6211 L965,46.6211 A0,0 0 0 0 965,46.6211 L965,16 L955,6 L419,6 A0,0 0 0 0 419,6 " fill="#FEFFDD" style="stroke:#181818;stroke-width:0.5;"/><path d="M955,6 L955,16 L965,16 L955,6 " fill="#FEFFDD" style="stroke:#181818;stroke-width:0.5;"/><text fill="#000000" font-family="sans-serif" font-size="13" lengthAdjust="spacing" textLength="369" x="425" y="23.5684">En fase er i hovedsak det som hender mellom to milepeler.</text><text fill="#000000" font-family="sans-serif" font-size="13" lengthAdjust="spacing" textLength="525" x="425" y="38.8789">Interne faser sendes ikke ut ved denne protokollen. Vi kutter derfor ut Global flagg.</text></g><path d="M818.5,163.01 L818.5,179.3205 L693.5,167.3524 L818.5,187.3205 L818.5,203.6311 A0,0 0 0 0 818.5,203.6311 L1339.5,203.6311 A0,0 0 0 0 1339.5,203.6311 L1339.5,173.01 L1329.5,163.01 L818.5,163.01 A0,0 0 0 0 818.5,163.01 " fill="#FEFFDD" style="stroke:#181818;stroke-width:0.5;"/><path d="M1329.5,163.01 L1329.5,173.01 L1339.5,173.01 L1329.5,163.01 " fill="#FEFFDD" style="stroke:#181818;stroke-width:0.5;"/><text fill="#000000" font-family="sans-serif" font-size="13" lengthAdjust="spacing" textLength="500" x="824.5" y="180.5784">Faseid brukes alene (ikke sammen med saksnummer) for &#229; hente en enkelt fase</text><text fill="#000000" font-family="sans-serif" font-size="13" lengthAdjust="spacing" textLength="165" x="824.5" y="195.8889">Den m&#229; dermed v&#230;re unik</text><!--class Fasekategori--><g id="elem_Fasekategori"><rect codeLine="29" fill="#F1F1F1" height="89.5977" id="Fasekategori" rx="2.5" ry="2.5" style="stroke:#181818;stroke-width:0.5;" width="184" x="386" y="408.17"/><ellipse cx="429.8" cy="428.4805" fill="#ADD1B2" rx="11" ry="11" style="stroke:#181818;stroke-width:1.0;"/><path d="M432.2731,434.6236 Q431.6921,434.9224 431.0529,435.0719 Q430.4138,435.2213 429.7082,435.2213 Q427.2014,435.2213 425.8815,433.5694 Q424.5617,431.9176 424.5617,428.7965 Q424.5617,425.6671 425.8815,424.0152 Q427.2014,422.3634 429.7082,422.3634 Q430.4138,422.3634 431.0612,422.5128 Q431.7087,422.6622 432.2731,422.961 L432.2731,425.6837 Q431.6423,425.1026 431.0488,424.8328 Q430.4553,424.5631 429.8244,424.5631 Q428.4797,424.5631 427.7949,425.6297 Q427.1101,426.6964 427.1101,428.7965 Q427.1101,430.8883 427.7949,431.9549 Q428.4797,433.0216 429.8244,433.0216 Q430.4553,433.0216 431.0488,432.7518 Q431.6423,432.482 432.2731,431.901 Z " fill="#000000"/><text fill="#000000" font-family="sans-serif" font-size="12" font-style="italic" lengthAdjust="spacing" textLength="42" x="473.2" y="424.7716">&#171;Kode&#187;</text><text fill="#000000" font-family="sans-serif" font-size="14" lengthAdjust="spacing" textLength="88" x="450.2" y="440.838">Fasekategori</text><line style="stroke:#181818;stroke-width:0.5;" x1="387" x2="569" y1="448.7911" y2="448.7911"/><ellipse cx="397" cy="462.5352" fill="none" rx="3" ry="3" style="stroke:#038048;stroke-width:1.0;"/><text fill="#000000" font-family="sans-serif" font-size="14" lengthAdjust="spacing" textLength="116" x="406" y="466.3262">kodeverdi: string</text><ellipse cx="397" cy="479.0235" fill="none" rx="3" ry="3" style="stroke:#038048;stroke-width:1.0;"/><text fill="#000000" font-family="sans-serif" font-size="14" lengthAdjust="spacing" textLength="158" x="406" y="482.8145">kodebeskrivelse: string</text><line style="stroke:#181818;stroke-width:0.5;" x1="387" x2="569" y1="489.7677" y2="489.7677"/></g><g id="elem_GMN16"><path d="M310,650.18 L310,752.0433 A0,0 0 0 0 310,752.0433 L636,752.0433 A0,0 0 0 0 636,752.0433 L636,660.18 L626,650.18 L478.02,650.18 L477.1,498.26 L470.02,650.18 L310,650.18 A0,0 0 0 0 310,650.18 " fill="#FEFFDD" style="stroke:#181818;stroke-width:0.5;"/><path d="M626,650.18 L626,660.18 L636,660.18 L626,650.18 " fill="#FEFFDD" style="stroke:#181818;stroke-width:0.5;"/><text fill="#000000" font-family="sans-serif" font-size="13" lengthAdjust="spacing" textLength="305" x="316" y="667.7484">Se gjerne Byggesaksbehandling::Prosesskategori</text><text fill="#000000" font-family="sans-serif" font-size="13" lengthAdjust="spacing" textLength="45" x="320" y="683.0589">fra NPS</text><text fill="#000000" font-family="sans-serif" font-size="13" lengthAdjust="spacing" textLength="210" x="316" y="698.3695">Vi m&#229; f&#229; avklart denne kodelisten</text><text fill="#000000" font-family="sans-serif" font-size="13" lengthAdjust="spacing" textLength="69" x="316" y="713.68">Eksempler:</text><text fill="#000000" font-family="sans-serif" font-size="13" lengthAdjust="spacing" textLength="34" x="316" y="728.9905">Klage</text><text fill="#000000" font-family="sans-serif" font-size="13" lengthAdjust="spacing" textLength="43" x="316" y="744.3011">H&#248;ring</text></g><!--class Vedtak--><g id="elem_Vedtak"><rect codeLine="42" fill="#F1F1F1" height="89.5977" id="Vedtak" rx="2.5" ry="2.5" style="stroke:#181818;stroke-width:0.5;" width="184" x="1322" y="408.17"/><ellipse cx="1386.25" cy="428.4805" fill="#ADD1B2" rx="11" ry="11" style="stroke:#181818;stroke-width:1.0;"/><path d="M1388.7231,434.6236 Q1388.1421,434.9224 1387.5029,435.0719 Q1386.8638,435.2213 1386.1582,435.2213 Q1383.6514,435.2213 1382.3315,433.5694 Q1381.0117,431.9176 1381.0117,428.7965 Q1381.0117,425.6671 1382.3315,424.0152 Q1383.6514,422.3634 1386.1582,422.3634 Q1386.8638,422.3634 1387.5112,422.5128 Q1388.1587,422.6622 1388.7231,422.961 L1388.7231,425.6837 Q1388.0923,425.1026 1387.4988,424.8328 Q1386.9053,424.5631 1386.2744,424.5631 Q1384.9297,424.5631 1384.2449,425.6297 Q1383.5601,426.6964 1383.5601,428.7965 Q1383.5601,430.8883 1384.2449,431.9549 Q1384.9297,433.0216 1386.2744,433.0216 Q1386.9053,433.0216 1387.4988,432.7518 Q1388.0923,432.482 1388.7231,431.901 Z " fill="#000000"/><text fill="#000000" font-family="sans-serif" font-size="12" font-style="italic" lengthAdjust="spacing" textLength="42" x="1409.25" y="424.7716">&#171;Kode&#187;</text><text fill="#000000" font-family="sans-serif" font-size="14" lengthAdjust="spacing" textLength="47" x="1406.75" y="440.838">Vedtak</text><line style="stroke:#181818;stroke-width:0.5;" x1="1323" x2="1505" y1="448.7911" y2="448.7911"/><ellipse cx="1333" cy="462.5352" fill="none" rx="3" ry="3" style="stroke:#038048;stroke-width:1.0;"/><text fill="#000000" font-family="sans-serif" font-size="14" lengthAdjust="spacing" textLength="116" x="1342" y="466.3262">kodeverdi: string</text><ellipse cx="1333" cy="479.0235" fill="none" rx="3" ry="3" style="stroke:#038048;stroke-width:1.0;"/><text fill="#000000" font-family="sans-serif" font-size="14" lengthAdjust="spacing" textLength="158" x="1342" y="482.8145">kodebeskrivelse: string</text><line style="stroke:#181818;stroke-width:0.5;" x1="1323" x2="1505" y1="489.7677" y2="489.7677"/></g><g id="elem_GMN22"><path d="M1375,145.05 L1375,231.6027 A0,0 0 0 0 1375,231.6027 L1426.76,231.6027 L1417.36,407.78 L1434.76,231.6027 L1493,231.6027 A0,0 0 0 0 1493,231.6027 L1493,155.05 L1483,145.05 L1375,145.05 A0,0 0 0 0 1375,145.05 " fill="#FEFFDD" style="stroke:#181818;stroke-width:0.5;"/><path d="M1483,145.05 L1483,155.05 L1493,155.05 L1483,145.05 " fill="#FEFFDD" style="stroke:#181818;stroke-width:0.5;"/><text fill="#000000" font-family="sans-serif" font-size="13" lengthAdjust="spacing" textLength="69" x="1381" y="162.6184">Eksempler:</text><text fill="#000000" font-family="sans-serif" font-size="13" lengthAdjust="spacing" textLength="56" x="1381" y="177.9289">godkjent</text><text fill="#000000" font-family="sans-serif" font-size="13" lengthAdjust="spacing" textLength="97" x="1381" y="193.2395">delvis godkjent</text><text fill="#000000" font-family="sans-serif" font-size="13" lengthAdjust="spacing" textLength="42" x="1381" y="208.55">avsl&#229;tt</text><text fill="#000000" font-family="sans-serif" font-size="13" lengthAdjust="spacing" textLength="37" x="1381" y="223.8605">avvist</text></g><!--class FaseStatusEnum--><g id="elem_FaseStatusEnum"><rect codeLine="49" fill="#F1F1F1" height="97.4648" id="FaseStatusEnum" rx="2.5" ry="2.5" style="stroke:#181818;stroke-width:0.5;" width="144" x="612" y="404.23"/><ellipse cx="627" cy="420.23" fill="#EB937F" rx="11" ry="11" style="stroke:#181818;stroke-width:1.0;"/><path d="M630.6143,426.73 L622.8945,426.73 L622.8945,414.3369 L630.6143,414.3369 L630.6143,416.4951 L625.3433,416.4951 L625.3433,419.168 L630.1162,419.168 L630.1162,421.3262 L625.3433,421.3262 L625.3433,424.5718 L630.6143,424.5718 Z " fill="#000000"/><text fill="#000000" font-family="sans-serif" font-size="14" lengthAdjust="spacing" textLength="112" x="641" y="425.521">FaseStatusEnum</text><line style="stroke:#181818;stroke-width:0.5;" x1="613" x2="755" y1="436.23" y2="436.23"/><ellipse cx="623" cy="449.9741" fill="none" rx="3" ry="3" style="stroke:#038048;stroke-width:1.0;"/><text fill="#000000" font-family="sans-serif" font-size="14" lengthAdjust="spacing" textLength="55" x="632" y="453.7652">Planlagt</text><ellipse cx="623" cy="466.4624" fill="none" rx="3" ry="3" style="stroke:#038048;stroke-width:1.0;"/><text fill="#000000" font-family="sans-serif" font-size="14" lengthAdjust="spacing" textLength="88" x="632" y="470.2534">UnderArbeid</text><ellipse cx="623" cy="482.9507" fill="none" rx="3" ry="3" style="stroke:#038048;stroke-width:1.0;"/><text fill="#000000" font-family="sans-serif" font-size="14" lengthAdjust="spacing" textLength="48" x="632" y="486.7417">Utfoert</text><line style="stroke:#181818;stroke-width:0.5;" x1="613" x2="755" y1="493.6948" y2="493.6948"/></g><!--class Milepel--><g id="elem_Milepel"><rect codeLine="59" fill="#F1F1F1" height="245.8594" id="Milepel" rx="2.5" ry="2.5" style="stroke:#181818;stroke-width:0.5;" width="325" x="797.5" y="330.03"/><ellipse cx="931.25" cy="346.03" fill="#ADD1B2" rx="11" ry="11" style="stroke:#181818;stroke-width:1.0;"/><path d="M933.7231,352.1731 Q933.1421,352.4719 932.5029,352.6213 Q931.8638,352.7707 931.1582,352.7707 Q928.6514,352.7707 927.3315,351.1189 Q926.0117,349.467 926.0117,346.3459 Q926.0117,343.2165 927.3315,341.5647 Q928.6514,339.9128 931.1582,339.9128 Q931.8638,339.9128 932.5112,340.0622 Q933.1587,340.2116 933.7231,340.5105 L933.7231,343.2331 Q933.0923,342.6521 932.4988,342.3823 Q931.9053,342.1125 931.2744,342.1125 Q929.9297,342.1125 929.2449,343.1792 Q928.5601,344.2458 928.5601,346.3459 Q928.5601,348.4377 929.2449,349.5044 Q929.9297,350.571 931.2744,350.571 Q931.9053,350.571 932.4988,350.3012 Q933.0923,350.0315 933.7231,349.4504 Z " fill="#000000"/><text fill="#000000" font-family="sans-serif" font-size="14" lengthAdjust="spacing" textLength="49" x="951.75" y="351.321">Milepel</text><line style="stroke:#181818;stroke-width:0.5;" x1="798.5" x2="1121.5" y1="362.03" y2="362.03"/><ellipse cx="808.5" cy="375.7741" fill="none" rx="3" ry="3" style="stroke:#038048;stroke-width:1.0;"/><text fill="#000000" font-family="sans-serif" font-size="14" lengthAdjust="spacing" textLength="108" x="817.5" y="379.5652">systemId: string</text><ellipse cx="808.5" cy="392.2624" fill="none" rx="3" ry="3" style="stroke:#038048;stroke-width:1.0;"/><text fill="#000000" font-family="sans-serif" font-size="14" lengthAdjust="spacing" textLength="124" x="817.5" y="396.0534">beskrivelse: string</text><ellipse cx="808.5" cy="408.7507" fill="none" rx="3" ry="3" style="stroke:#038048;stroke-width:1.0;"/><text fill="#000000" font-family="sans-serif" font-size="14" lengthAdjust="spacing" textLength="143" x="817.5" y="412.5417">kategori: Milepeltype</text><ellipse cx="808.5" cy="425.239" fill="none" rx="3" ry="3" style="stroke:#038048;stroke-width:1.0;"/><text fill="#000000" font-family="sans-serif" font-size="14" lengthAdjust="spacing" textLength="65" x="817.5" y="429.03">frist: date</text><ellipse cx="808.5" cy="441.7273" fill="none" rx="3" ry="3" style="stroke:#038048;stroke-width:1.0;"/><text fill="#000000" font-family="sans-serif" font-size="14" lengthAdjust="spacing" textLength="85" x="817.5" y="445.5183">utfoert: date</text><ellipse cx="808.5" cy="458.2155" fill="none" rx="3" ry="3" style="stroke:#038048;stroke-width:1.0;"/><text fill="#000000" font-family="sans-serif" font-size="14" lengthAdjust="spacing" textLength="111" x="817.5" y="462.0066">planlagtTil: date</text><ellipse cx="808.5" cy="474.7038" fill="none" rx="3" ry="3" style="stroke:#038048;stroke-width:1.0;"/><text fill="#000000" font-family="sans-serif" font-size="14" lengthAdjust="spacing" textLength="105" x="817.5" y="478.4948">intern: boolean</text><ellipse cx="808.5" cy="491.1921" fill="none" rx="3" ry="3" style="stroke:#038048;stroke-width:1.0;"/><text fill="#000000" font-family="sans-serif" font-size="14" lengthAdjust="spacing" textLength="299" x="817.5" y="494.9831">referanseJournalpost: ReferanseJournalpost</text><ellipse cx="808.5" cy="507.6804" fill="none" rx="3" ry="3" style="stroke:#038048;stroke-width:1.0;"/><text fill="#000000" font-family="sans-serif" font-size="14" lengthAdjust="spacing" textLength="283" x="817.5" y="511.4714">referanseDokument: ReferanseDokument</text><ellipse cx="808.5" cy="524.1687" fill="none" rx="3" ry="3" style="stroke:#038048;stroke-width:1.0;"/><text fill="#000000" font-family="sans-serif" font-size="14" lengthAdjust="spacing" textLength="110" x="817.5" y="527.9597">erStart: boolean</text><ellipse cx="808.5" cy="540.657" fill="none" rx="3" ry="3" style="stroke:#038048;stroke-width:1.0;"/><text fill="#000000" font-family="sans-serif" font-size="14" lengthAdjust="spacing" textLength="109" x="817.5" y="544.448">erSlutt: boolean</text><ellipse cx="808.5" cy="557.1452" fill="none" rx="3" ry="3" style="stroke:#038048;stroke-width:1.0;"/><text fill="#000000" font-family="sans-serif" font-size="14" lengthAdjust="spacing" textLength="179" x="817.5" y="560.9363">status: MilepelStatusEnum</text><line style="stroke:#181818;stroke-width:0.5;" x1="798.5" x2="1121.5" y1="567.8894" y2="567.8894"/></g><g id="elem_GMN29"><path d="M1697.5,688.46 L1697.5,713.7705 L1896.5,713.7705 L1896.5,698.46 L1886.5,688.46 L1697.5,688.46 " fill="#FEFFDD" style="stroke:#181818;stroke-width:0.5;"/><path d="M1886.5,688.46 L1886.5,698.46 L1896.5,698.46 L1886.5,688.46 " fill="#FEFFDD" style="stroke:#181818;stroke-width:1.0;"/><text fill="#000000" font-family="sans-serif" font-size="13" lengthAdjust="spacing" textLength="178" x="1703.5" y="706.0284">frist og utfoert ikke p&#229;krevd</text></g><!--class MilepelStatusEnum--><g id="elem_MilepelStatusEnum"><rect codeLine="117" fill="#F1F1F1" height="80.9766" id="MilepelStatusEnum" rx="2.5" ry="2.5" style="stroke:#181818;stroke-width:0.5;" width="162" x="671" y="660.63"/><ellipse cx="686" cy="676.63" fill="#EB937F" rx="11" ry="11" style="stroke:#181818;stroke-width:1.0;"/><path d="M689.6143,683.13 L681.8945,683.13 L681.8945,670.7369 L689.6143,670.7369 L689.6143,672.8951 L684.3433,672.8951 L684.3433,675.568 L689.1162,675.568 L689.1162,677.7262 L684.3433,677.7262 L684.3433,680.9718 L689.6143,680.9718 Z " fill="#000000"/><text fill="#000000" font-family="sans-serif" font-size="14" lengthAdjust="spacing" textLength="130" x="700" y="681.921">MilepelStatusEnum</text><line style="stroke:#181818;stroke-width:0.5;" x1="672" x2="832" y1="692.63" y2="692.63"/><ellipse cx="682" cy="706.3741" fill="none" rx="3" ry="3" style="stroke:#038048;stroke-width:1.0;"/><text fill="#000000" font-family="sans-serif" font-size="14" lengthAdjust="spacing" textLength="36" x="691" y="710.1652">N&#229;dd</text><ellipse cx="682" cy="722.8624" fill="none" rx="3" ry="3" style="stroke:#038048;stroke-width:1.0;"/><text fill="#000000" font-family="sans-serif" font-size="14" lengthAdjust="spacing" textLength="55" x="691" y="726.6534">Planlagt</text><line style="stroke:#181818;stroke-width:0.5;" x1="672" x2="832" y1="733.6066" y2="733.6066"/></g><!--class Milepeltype--><g id="elem_Milepeltype"><rect codeLine="112" fill="#F1F1F1" height="89.5977" id="Milepeltype" rx="2.5" ry="2.5" style="stroke:#181818;stroke-width:0.5;" width="184" x="868" y="656.32"/><ellipse cx="916.75" cy="676.6305" fill="#ADD1B2" rx="11" ry="11" style="stroke:#181818;stroke-width:1.0;"/><path d="M919.2231,682.7736 Q918.6421,683.0724 918.0029,683.2219 Q917.3638,683.3713 916.6582,683.3713 Q914.1514,683.3713 912.8315,681.7194 Q911.5117,680.0676 911.5117,676.9465 Q911.5117,673.8171 912.8315,672.1652 Q914.1514,670.5134 916.6582,670.5134 Q917.3638,670.5134 918.0112,670.6628 Q918.6587,670.8122 919.2231,671.111 L919.2231,673.8337 Q918.5923,673.2526 917.9988,672.9828 Q917.4053,672.7131 916.7744,672.7131 Q915.4297,672.7131 914.7449,673.7797 Q914.0601,674.8464 914.0601,676.9465 Q914.0601,679.0383 914.7449,680.1049 Q915.4297,681.1716 916.7744,681.1716 Q917.4053,681.1716 917.9988,680.9018 Q918.5923,680.632 919.2231,680.051 Z " fill="#000000"/><text fill="#000000" font-family="sans-serif" font-size="12" font-style="italic" lengthAdjust="spacing" textLength="42" x="955.25" y="672.9216">&#171;Kode&#187;</text><text fill="#000000" font-family="sans-serif" font-size="14" lengthAdjust="spacing" textLength="78" x="937.25" y="688.988">Milepeltype</text><line style="stroke:#181818;stroke-width:0.5;" x1="869" x2="1051" y1="696.9411" y2="696.9411"/><ellipse cx="879" cy="710.6852" fill="none" rx="3" ry="3" style="stroke:#038048;stroke-width:1.0;"/><text fill="#000000" font-family="sans-serif" font-size="14" lengthAdjust="spacing" textLength="116" x="888" y="714.4762">kodeverdi: string</text><ellipse cx="879" cy="727.1735" fill="none" rx="3" ry="3" style="stroke:#038048;stroke-width:1.0;"/><text fill="#000000" font-family="sans-serif" font-size="14" lengthAdjust="spacing" textLength="158" x="888" y="730.9645">kodebeskrivelse: string</text><line style="stroke:#181818;stroke-width:0.5;" x1="869" x2="1051" y1="737.9177" y2="737.9177"/></g><!--class ReferanseDokument--><g id="elem_ReferanseDokument"><rect fill="#F1F1F1" height="48" id="ReferanseDokument" rx="2.5" ry="2.5" style="stroke:#181818;stroke-width:0.5;" width="171" x="1087.5" y="677.11"/><ellipse cx="1102.5" cy="693.11" fill="#ADD1B2" rx="11" ry="11" style="stroke:#181818;stroke-width:1.0;"/><path d="M1104.9731,699.2531 Q1104.3921,699.5519 1103.7529,699.7013 Q1103.1138,699.8507 1102.4082,699.8507 Q1099.9014,699.8507 1098.5815,698.1989 Q1097.2617,696.547 1097.2617,693.4259 Q1097.2617,690.2965 1098.5815,688.6447 Q1099.9014,686.9928 1102.4082,686.9928 Q1103.1138,686.9928 1103.7612,687.1422 Q1104.4087,687.2916 1104.9731,687.5905 L1104.9731,690.3131 Q1104.3423,689.7321 1103.7488,689.4623 Q1103.1553,689.1925 1102.5244,689.1925 Q1101.1797,689.1925 1100.4949,690.2592 Q1099.8101,691.3258 1099.8101,693.4259 Q1099.8101,695.5177 1100.4949,696.5844 Q1101.1797,697.651 1102.5244,697.651 Q1103.1553,697.651 1103.7488,697.3812 Q1104.3423,697.1115 1104.9731,696.5304 Z " fill="#000000"/><text fill="#000000" font-family="sans-serif" font-size="14" lengthAdjust="spacing" textLength="139" x="1116.5" y="698.401">ReferanseDokument</text><line style="stroke:#181818;stroke-width:0.5;" x1="1088.5" x2="1257.5" y1="709.11" y2="709.11"/><line style="stroke:#181818;stroke-width:0.5;" x1="1088.5" x2="1257.5" y1="717.11" y2="717.11"/></g><g id="elem_GMN38"><path d="M834.5,839.45 L834.5,910.6922 A0,0 0 0 0 834.5,910.6922 L1063.5,910.6922 A0,0 0 0 0 1063.5,910.6922 L1063.5,849.45 L1053.5,839.45 L955.23,839.45 L957.17,746.4 L947.23,839.45 L834.5,839.45 A0,0 0 0 0 834.5,839.45 " fill="#FEFFDD" style="stroke:#181818;stroke-width:0.5;"/><path d="M1053.5,839.45 L1053.5,849.45 L1063.5,849.45 L1053.5,839.45 " fill="#FEFFDD" style="stroke:#181818;stroke-width:0.5;"/><text fill="#000000" font-family="sans-serif" font-size="13" lengthAdjust="spacing" textLength="69" x="840.5" y="857.0184">Eksempler:</text><text fill="#000000" font-family="sans-serif" font-size="13" lengthAdjust="spacing" textLength="201" x="840.5" y="872.3289">Bestilling av oppstartsm&#248;te (BO)</text><text fill="#000000" font-family="sans-serif" font-size="13" lengthAdjust="spacing" textLength="208" x="840.5" y="887.6395">Gjennomf&#248;rt oppstartsm&#248;te (OM)</text><text fill="#000000" font-family="sans-serif" font-size="13" lengthAdjust="spacing" textLength="137" x="840.5" y="902.95">Mottak av planforslag</text></g><!--class ReferanseJournalpost--><g id="elem_ReferanseJournalpost"><rect codeLine="82" fill="#F1F1F1" height="130.4414" id="ReferanseJournalpost" rx="2.5" ry="2.5" style="stroke:#181818;stroke-width:0.5;" width="369" x="1293.5" y="635.89"/><ellipse cx="1400.25" cy="651.89" fill="#ADD1B2" rx="11" ry="11" style="stroke:#181818;stroke-width:1.0;"/><path d="M1402.7231,658.0331 Q1402.1421,658.3319 1401.5029,658.4813 Q1400.8638,658.6307 1400.1582,658.6307 Q1397.6514,658.6307 1396.3315,656.9789 Q1395.0117,655.327 1395.0117,652.2059 Q1395.0117,649.0765 1396.3315,647.4247 Q1397.6514,645.7728 1400.1582,645.7728 Q1400.8638,645.7728 1401.5112,645.9222 Q1402.1587,646.0716 1402.7231,646.3705 L1402.7231,649.0931 Q1402.0923,648.5121 1401.4988,648.2423 Q1400.9053,647.9725 1400.2744,647.9725 Q1398.9297,647.9725 1398.2449,649.0392 Q1397.5601,650.1058 1397.5601,652.2059 Q1397.5601,654.2977 1398.2449,655.3644 Q1398.9297,656.431 1400.2744,656.431 Q1400.9053,656.431 1401.4988,656.1612 Q1402.0923,655.8915 1402.7231,655.3104 Z " fill="#000000"/><text fill="#000000" font-family="sans-serif" font-size="14" lengthAdjust="spacing" textLength="147" x="1420.75" y="657.181">ReferanseJournalpost</text><line style="stroke:#181818;stroke-width:0.5;" x1="1294.5" x2="1661.5" y1="667.89" y2="667.89"/><ellipse cx="1304.5" cy="681.6341" fill="none" rx="3" ry="3" style="stroke:#038048;stroke-width:1.0;"/><text fill="#000000" font-family="sans-serif" font-size="14" lengthAdjust="spacing" textLength="108" x="1313.5" y="685.4252">systemId: string</text><ellipse cx="1304.5" cy="698.1224" fill="none" rx="3" ry="3" style="stroke:#038048;stroke-width:1.0;"/><text fill="#000000" font-family="sans-serif" font-size="14" lengthAdjust="spacing" textLength="150" x="1313.5" y="701.9134">registreringsID: string</text><ellipse cx="1304.5" cy="714.6107" fill="none" rx="3" ry="3" style="stroke:#038048;stroke-width:1.0;"/><text fill="#000000" font-family="sans-serif" font-size="14" lengthAdjust="spacing" textLength="222" x="1313.5" y="718.4017">journalnummer: Journalnummer</text><ellipse cx="1304.5" cy="731.099" fill="none" rx="3" ry="3" style="stroke:#038048;stroke-width:1.0;"/><text fill="#000000" font-family="sans-serif" font-size="14" lengthAdjust="spacing" textLength="343" x="1313.5" y="734.89">saksJournalpostnummer: SaksJournalpostnummer</text><ellipse cx="1304.5" cy="747.5873" fill="none" rx="3" ry="3" style="stroke:#038048;stroke-width:1.0;"/><text fill="#000000" font-family="sans-serif" font-size="14" lengthAdjust="spacing" textLength="285" x="1313.5" y="751.3783">referanseEksternNoekkel: EksternNoekkel</text><line style="stroke:#181818;stroke-width:0.5;" x1="1294.5" x2="1661.5" y1="758.3314" y2="758.3314"/></g><!--class Dokument--><g id="elem_Dokument"><rect fill="#F1F1F1" height="48" id="Dokument" rx="2.5" ry="2.5" style="stroke:#181818;stroke-width:0.5;" width="103" x="1157.5" y="428.96"/><ellipse cx="1172.5" cy="444.96" fill="#ADD1B2" rx="11" ry="11" style="stroke:#181818;stroke-width:1.0;"/><path d="M1174.9731,451.1031 Q1174.3921,451.4019 1173.7529,451.5513 Q1173.1138,451.7007 1172.4082,451.7007 Q1169.9014,451.7007 1168.5815,450.0489 Q1167.2617,448.397 1167.2617,445.2759 Q1167.2617,442.1465 1168.5815,440.4947 Q1169.9014,438.8428 1172.4082,438.8428 Q1173.1138,438.8428 1173.7612,438.9922 Q1174.4087,439.1416 1174.9731,439.4405 L1174.9731,442.1631 Q1174.3423,441.5821 1173.7488,441.3123 Q1173.1553,441.0425 1172.5244,441.0425 Q1171.1797,441.0425 1170.4949,442.1092 Q1169.8101,443.1758 1169.8101,445.2759 Q1169.8101,447.3677 1170.4949,448.4344 Q1171.1797,449.501 1172.5244,449.501 Q1173.1553,449.501 1173.7488,449.2312 Q1174.3423,448.9615 1174.9731,448.3804 Z " fill="#000000"/><text fill="#000000" font-family="sans-serif" font-size="14" lengthAdjust="spacing" textLength="71" x="1186.5" y="450.251">Dokument</text><line style="stroke:#181818;stroke-width:0.5;" x1="1158.5" x2="1259.5" y1="460.96" y2="460.96"/><line style="stroke:#181818;stroke-width:0.5;" x1="1158.5" x2="1259.5" y1="468.96" y2="468.96"/></g><!--class EksternNoekkel--><g id="elem_EksternNoekkel"><rect codeLine="107" fill="#F1F1F1" height="80.9766" id="EksternNoekkel" rx="2.5" ry="2.5" style="stroke:#181818;stroke-width:0.5;" width="143" x="1647.5" y="834.58"/><ellipse cx="1664.75" cy="850.58" fill="#ADD1B2" rx="11" ry="11" style="stroke:#181818;stroke-width:1.0;"/><path d="M1667.2231,856.7231 Q1666.6421,857.0219 1666.0029,857.1713 Q1665.3638,857.3207 1664.6582,857.3207 Q1662.1514,857.3207 1660.8315,855.6689 Q1659.5117,854.017 1659.5117,850.8959 Q1659.5117,847.7665 1660.8315,846.1147 Q1662.1514,844.4628 1664.6582,844.4628 Q1665.3638,844.4628 1666.0112,844.6122 Q1666.6587,844.7616 1667.2231,845.0605 L1667.2231,847.7831 Q1666.5923,847.2021 1665.9988,846.9323 Q1665.4053,846.6625 1664.7744,846.6625 Q1663.4297,846.6625 1662.7449,847.7292 Q1662.0601,848.7958 1662.0601,850.8959 Q1662.0601,852.9877 1662.7449,854.0544 Q1663.4297,855.121 1664.7744,855.121 Q1665.4053,855.121 1665.9988,854.8512 Q1666.5923,854.5815 1667.2231,854.0004 Z " fill="#000000"/><text fill="#000000" font-family="sans-serif" font-size="14" lengthAdjust="spacing" textLength="106" x="1679.25" y="855.871">EksternNoekkel</text><line style="stroke:#181818;stroke-width:0.5;" x1="1648.5" x2="1789.5" y1="866.58" y2="866.58"/><ellipse cx="1658.5" cy="880.3241" fill="none" rx="3" ry="3" style="stroke:#038048;stroke-width:1.0;"/><text fill="#000000" font-family="sans-serif" font-size="14" lengthAdjust="spacing" textLength="117" x="1667.5" y="884.1152">fagsystem: string</text><ellipse cx="1658.5" cy="896.8124" fill="none" rx="3" ry="3" style="stroke:#038048;stroke-width:1.0;"/><text fill="#000000" font-family="sans-serif" font-size="14" lengthAdjust="spacing" textLength="102" x="1667.5" y="900.6034">noekkel: string</text><line style="stroke:#181818;stroke-width:0.5;" x1="1648.5" x2="1789.5" y1="907.5566" y2="907.5566"/></g><!--class SaksJournalpostnummer--><g id="elem_SaksJournalpostnummer"><rect codeLine="96" fill="#F1F1F1" height="97.4648" id="SaksJournalpostnummer" rx="2.5" ry="2.5" style="stroke:#181818;stroke-width:0.5;" width="230" x="1099" y="826.34"/><ellipse cx="1127.5" cy="842.34" fill="#ADD1B2" rx="11" ry="11" style="stroke:#181818;stroke-width:1.0;"/><path d="M1129.9731,848.4831 Q1129.3921,848.7819 1128.7529,848.9313 Q1128.1138,849.0807 1127.4082,849.0807 Q1124.9014,849.0807 1123.5815,847.4289 Q1122.2617,845.777 1122.2617,842.6559 Q1122.2617,839.5265 1123.5815,837.8747 Q1124.9014,836.2228 1127.4082,836.2228 Q1128.1138,836.2228 1128.7612,836.3722 Q1129.4087,836.5216 1129.9731,836.8205 L1129.9731,839.5431 Q1129.3423,838.9621 1128.7488,838.6923 Q1128.1553,838.4225 1127.5244,838.4225 Q1126.1797,838.4225 1125.4949,839.4892 Q1124.8101,840.5558 1124.8101,842.6559 Q1124.8101,844.7477 1125.4949,845.8144 Q1126.1797,846.881 1127.5244,846.881 Q1128.1553,846.881 1128.7488,846.6112 Q1129.3423,846.3415 1129.9731,845.7604 Z " fill="#000000"/><text fill="#000000" font-family="sans-serif" font-size="14" lengthAdjust="spacing" textLength="168" x="1144.5" y="847.631">SaksJournalpostnummer</text><line style="stroke:#181818;stroke-width:0.5;" x1="1100" x2="1328" y1="858.34" y2="858.34"/><ellipse cx="1110" cy="872.0841" fill="none" rx="3" ry="3" style="stroke:#038048;stroke-width:1.0;"/><text fill="#000000" font-family="sans-serif" font-size="14" lengthAdjust="spacing" textLength="114" x="1119" y="875.8752">saksaar: number</text><ellipse cx="1110" cy="888.5724" fill="none" rx="3" ry="3" style="stroke:#038048;stroke-width:1.0;"/><text fill="#000000" font-family="sans-serif" font-size="14" lengthAdjust="spacing" textLength="204" x="1119" y="892.3634">sakssekvensnummer: number</text><ellipse cx="1110" cy="905.0607" fill="none" rx="3" ry="3" style="stroke:#038048;stroke-width:1.0;"/><text fill="#000000" font-family="sans-serif" font-size="14" lengthAdjust="spacing" textLength="199" x="1119" y="908.8517">journalpostnummer: number</text><line style="stroke:#181818;stroke-width:0.5;" x1="1100" x2="1328" y1="915.8048" y2="915.8048"/></g><!--class Journalnummer--><g id="elem_Journalnummer"><rect codeLine="102" fill="#F1F1F1" height="80.9766" id="Journalnummer" rx="2.5" ry="2.5" style="stroke:#181818;stroke-width:0.5;" width="249" x="1363.5" y="834.58"/><ellipse cx="1430.25" cy="850.58" fill="#ADD1B2" rx="11" ry="11" style="stroke:#181818;stroke-width:1.0;"/><path d="M1432.7231,856.7231 Q1432.1421,857.0219 1431.5029,857.1713 Q1430.8638,857.3207 1430.1582,857.3207 Q1427.6514,857.3207 1426.3315,855.6689 Q1425.0117,854.017 1425.0117,850.8959 Q1425.0117,847.7665 1426.3315,846.1147 Q1427.6514,844.4628 1430.1582,844.4628 Q1430.8638,844.4628 1431.5112,844.6122 Q1432.1587,844.7616 1432.7231,845.0605 L1432.7231,847.7831 Q1432.0923,847.2021 1431.4988,846.9323 Q1430.9053,846.6625 1430.2744,846.6625 Q1428.9297,846.6625 1428.2449,847.7292 Q1427.5601,848.7958 1427.5601,850.8959 Q1427.5601,852.9877 1428.2449,854.0544 Q1428.9297,855.121 1430.2744,855.121 Q1430.9053,855.121 1431.4988,854.8512 Q1432.0923,854.5815 1432.7231,854.0004 Z " fill="#000000"/><text fill="#000000" font-family="sans-serif" font-size="14" lengthAdjust="spacing" textLength="107" x="1450.75" y="855.871">Journalnummer</text><line style="stroke:#181818;stroke-width:0.5;" x1="1364.5" x2="1611.5" y1="866.58" y2="866.58"/><ellipse cx="1374.5" cy="880.3241" fill="none" rx="3" ry="3" style="stroke:#038048;stroke-width:1.0;"/><text fill="#000000" font-family="sans-serif" font-size="14" lengthAdjust="spacing" textLength="133" x="1383.5" y="884.1152">journalaar: number</text><ellipse cx="1374.5" cy="896.8124" fill="none" rx="3" ry="3" style="stroke:#038048;stroke-width:1.0;"/><text fill="#000000" font-family="sans-serif" font-size="14" lengthAdjust="spacing" textLength="223" x="1383.5" y="900.6034">journalsekvensnummer: number</text><line style="stroke:#181818;stroke-width:0.5;" x1="1364.5" x2="1611.5" y1="907.5566" y2="907.5566"/></g><!--link SaksfaserHentResultat to Fase--><g id="link_SaksfaserHentResultat_Fase"><path codeLine="8" d="M329.57,188.33 C414.48,188.33 487.4,188.33 572.32,188.33 " fill="none" id="SaksfaserHentResultat-to-Fase" style="stroke:#181818;stroke-width:1.0;"/><polygon fill="#181818" points="584.32,188.33,578.32,184.33,572.32,188.33,578.32,192.33,584.32,188.33" style="stroke:#181818;stroke-width:1.0;"/></g><!--link SaksfaserHentResultat to Saksnummer--><g id="link_SaksfaserHentResultat_Saksnummer"><path codeLine="9" d="M224,245.67 C224,295.86 224,368.03 224,412.35 " fill="none" id="SaksfaserHentResultat-Saksnummer" style="stroke:#181818;stroke-width:1.0;"/></g><!--link Fase to Fasekategori--><g id="link_Fase_Fasekategori"><path codeLine="37" d="M620.51,270.27 C584.93,315.64 541.93,370.46 512.53,407.94 " fill="none" id="Fase-Fasekategori" style="stroke:#181818;stroke-width:1.0;"/></g><!--link Fase to Vedtak--><g id="link_Fase_Vedtak"><path codeLine="38" d="M783.79,262.5 C789.48,265.3 795.24,267.84 801,270.03 C1000.63,346.2 1083.6,241.35 1278,330.03 C1316.95,347.8 1352.64,380.74 1377.68,407.9 " fill="none" id="Fase-Vedtak" style="stroke:#181818;stroke-width:1.0;"/></g><!--link Fase to FaseStatusEnum--><g id="link_Fase_FaseStatusEnum"><path codeLine="47" d="M684,270.27 C684,313.98 684,366.46 684,403.76 " fill="none" id="Fase-FaseStatusEnum" style="stroke:#181818;stroke-width:1.0;"/></g><!--link Fase to Milepel--><g id="link_Fase_Milepel"><path codeLine="55" d="M769.06,270.27 C788.86,289.11 810.37,309.58 831.58,329.76 " fill="none" id="Fase-Milepel" style="stroke:#181818;stroke-width:1.0;"/></g><!--link Milepel to GMN29--><g id="link_Milepel_GMN29"><path d="M1122.77,568.9 C1128.49,571.43 1134.24,573.77 1140,575.89 C1366.59,659.38 1449.76,563.07 1680,635.89 C1718.22,647.98 1758.21,673.06 1780.13,688.05 " fill="none" id="Milepel-GMN29" style="stroke:#181818;stroke-width:1.0;stroke-dasharray:7.0,7.0;"/></g><!--link Milepel to MilepelStatusEnum--><g id="link_Milepel_MilepelStatusEnum"><path codeLine="74" d="M843.48,576.32 C817.77,606.72 793.08,637.19 775.68,660.29 " fill="none" id="Milepel-MilepelStatusEnum" style="stroke:#181818;stroke-width:1.0;"/></g><!--link Milepel to MilepelStatusEnum--><g id="link_Milepel_MilepelStatusEnum"><path codeLine="90" d="M869.73,576.32 C844.06,606.72 817.26,637.19 795.62,660.29 " fill="none" id="Milepel-MilepelStatusEnum-1" style="stroke:#181818;stroke-width:1.0;"/></g><!--link Milepel to Milepeltype--><g id="link_Milepel_Milepeltype"><path codeLine="75" d="M960,576.32 C960,604.91 960,633.56 960,656.09 " fill="none" id="Milepel-Milepeltype" style="stroke:#181818;stroke-width:1.0;"/></g><!--link Milepel to ReferanseDokument--><g id="link_Milepel_ReferanseDokument"><path codeLine="76" d="M1065.88,576.32 C1099.08,614.69 1132.36,653.15 1152.82,676.79 " fill="none" id="Milepel-ReferanseDokument" style="stroke:#181818;stroke-width:1.0;"/></g><!--link Milepel to ReferanseJournalpost--><g id="link_Milepel_ReferanseJournalpost"><path codeLine="80" d="M1122.79,566.7 C1128.55,569.89 1134.29,572.97 1140,575.89 C1188.26,600.64 1242.63,622.88 1293.42,641.47 " fill="none" id="Milepel-ReferanseJournalpost" style="stroke:#181818;stroke-width:1.0;"/></g><!--link Milepel to Dokument--><g id="link_Milepel_Dokument"><path codeLine="91" d="M1122.92,452.96 C1134.35,452.96 1133.78,452.96 1145.22,452.96 " fill="none" id="Milepel-to-Dokument" style="stroke:#181818;stroke-width:1.0;"/><polygon fill="#181818" points="1157.22,452.96,1151.22,448.96,1145.22,452.96,1151.22,456.96,1157.22,452.96" style="stroke:#181818;stroke-width:1.0;"/></g><!--link ReferanseJournalpost to EksternNoekkel--><g id="link_ReferanseJournalpost_EksternNoekkel"><path codeLine="92" d="M1568.43,766.63 C1600.21,789.31 1634.98,814.12 1663.1,834.18 " fill="none" id="ReferanseJournalpost-EksternNoekkel" style="stroke:#181818;stroke-width:1.0;"/></g><!--link ReferanseJournalpost to SaksJournalpostnummer--><g id="link_ReferanseJournalpost_SaksJournalpostnummer"><path codeLine="93" d="M1378.95,766.63 C1348.81,786.26 1316.22,807.49 1288.03,825.85 " fill="none" id="ReferanseJournalpost-SaksJournalpostnummer" style="stroke:#181818;stroke-width:1.0;"/></g><!--link ReferanseJournalpost to Journalnummer--><g id="link_ReferanseJournalpost_Journalnummer"><path codeLine="94" d="M1481.75,766.63 C1483.07,789.31 1484.51,814.12 1485.68,834.18 " fill="none" id="ReferanseJournalpost-Journalnummer" style="stroke:#181818;stroke-width:1.0;"/></g><!--SRC=[fLRRRjGm47tFL_YHY-W7H0Y9gWKAQgbQu8Nmu2MpsJIE7TdUI1NgvvHlwFl-6CUtNIUxYv2eMZMP6OzdpZbZvwVWnh1RtfabDwG_aBGtPDR2Sij-5Gm_BmsSSjttf4iV69vtFjjQIw9ankfMDZixbsRaMhJDrENtATax_Fl-etWeYiERlthXGuvvN-Mb559PObODJ2sFz5Ao6-ewMcwUH4EIyP7v68RV6kywTnhLUwyajkBwP9BTrOHavz97kEKjMwcHQdICJDOlNf6iuUb92BnPnVfMq422z4abBwGbZTHXV-D23MknFLjRXaIk7hW7hQpgb10aJzYtbdLheEoArKkbNUXxeHPSiANWJNF2YkAdPzBNzsk7jEIZtCU_hQUsZbjgb6u3BUaj-BQrb-moF8AsG3A0NPkmvjO_duEGu4CZbdSb- -R_1rkjkdLFhlsIdSNd806Fi6wRbKqObsMeqwzyvn_PGgyxOCM5O-QPXynm2402wPhjPFgSEOWsZuu7v8MVP4V2UiXzmZEt1W50qoqTDxyru9TjnmhmmLmvEQ094FRwzITLqvit2U4ERoFfkft12VE2JAVRaGHwISxKwK9P2s74LhVPCLx4cZklZjFxfY7Nqe9MNDO2oyloMYj3ngG55KIeERkwlgqa5E8QMkAFZvtWsaOTkLf4Qop9IfvtXlh1KLd9Jz0DLVB3vicL1lqKNZeOh8a4aZ7oE9c5O7FJaELjLDtT0VSAkXPZQzZEm4SZDe_MFy5ZjwADYVuVtRo5J94WTTtFZ6cJQy4beB3XxQiRtBTwaPJtygjTAj8sJnwdO8_BQ2z1YcjEDPXIlpXCzx1vx3IDTMewXczFsNjmr5_C1lDGdxE9ZNdi_K1nmDts9QiH4GonZDmqnAw_j28tj_viAj6K4iHbC6fQaiPXJX_LMaik1kNItnompkBJZ6V1oHGYIOCFLzXaFrW53hkPDHqsiTsCNL2JiDona_dtdHwhpBnVtX5ktSA9tbabJmate703wcuLDGp6zMJwpHCoF3lz_BoIxw5_gNhSBn33FEBp9I8kiHCc00aSCpY-3DWfsC4Y9u17CHro_brPcXh8H9Epc8kpgVCkP4ct_iVyTNV1PtlbtmTxvfaiW9vJsPLoTwxmQ6Rl_qxdY-qbKXni7wjdgO-57QxwMFGKZKZ0mHJv5nJdW0VcHOuW3jgHvFRhAdVVxOCRtGzfpqaXQQ-uRc-xQ3-yupRb5B3TXqGJH3HLYKmCxWxWoT7cf-N_3tL_UE_f8EMxsZpMzUmeVyXPEKA5E-gQlt0H_Gp9_W00]--></g></svg>