<svg xmlns="http://www.w3.org/2000/svg" xmlns:xlink="http://www.w3.org/1999/xlink" contentStyleType="text/css" height="947px" preserveAspectRatio="none" style="width:2549px;height:947px;background:#FFFFFF;" version="1.1" viewBox="0 0 2549 947" width="2549px" zoomAndPan="magnify"><defs/><g><!--class ReferanseDokumentfil--><g id="elem_ReferanseDokumentfil"><rect codeLine="40" fill="#F1F1F1" height="80.9766" id="ReferanseDokumentfil" rx="2.5" ry="2.5" style="stroke:#181818;stroke-width:0.5;" width="184" x="2300" y="677.12"/><ellipse cx="2315" cy="693.12" fill="#ADD1B2" rx="11" ry="11" style="stroke:#181818;stroke-width:1.0;"/><path d="M2317.4731,699.2631 Q2316.8921,699.5619 2316.2529,699.7113 Q2315.6138,699.8607 2314.9082,699.8607 Q2312.4014,699.8607 2311.0815,698.2089 Q2309.7617,696.557 2309.7617,693.4359 Q2309.7617,690.3065 2311.0815,688.6547 Q2312.4014,687.0028 2314.9082,687.0028 Q2315.6138,687.0028 2316.2612,687.1522 Q2316.9087,687.3016 2317.4731,687.6005 L2317.4731,690.3231 Q2316.8423,689.7421 2316.2488,689.4723 Q2315.6553,689.2025 2315.0244,689.2025 Q2313.6797,689.2025 2312.9949,690.2692 Q2312.3101,691.3358 2312.3101,693.4359 Q2312.3101,695.5277 2312.9949,696.5944 Q2313.6797,697.661 2315.0244,697.661 Q2315.6553,697.661 2316.2488,697.3912 Q2316.8423,697.1215 2317.4731,696.5404 Z " fill="#000000"/><text fill="#000000" font-family="sans-serif" font-size="14" lengthAdjust="spacing" textLength="152" x="2329" y="698.411">ReferanseDokumentfil</text><line style="stroke:#181818;stroke-width:0.5;" x1="2301" x2="2483" y1="709.12" y2="709.12"/><ellipse cx="2311" cy="722.8641" fill="#000000" rx="3" ry="3" style="stroke:#000000;stroke-width:1.0;"/><text fill="#000000" font-family="sans-serif" font-size="14" lengthAdjust="spacing" textLength="61" x="2320" y="726.6552">id: string</text><ellipse cx="2311" cy="739.3524" fill="#000000" rx="3" ry="3" style="stroke:#000000;stroke-width:1.0;"/><text fill="#000000" font-family="sans-serif" font-size="14" lengthAdjust="spacing" textLength="67" x="2320" y="743.1434">url: string</text><line style="stroke:#181818;stroke-width:0.5;" x1="2301" x2="2483" y1="750.0966" y2="750.0966"/></g><!--class Dokument--><g id="elem_Dokument"><rect codeLine="3" fill="#F1F1F1" height="179.9063" id="Dokument" rx="2.5" ry="2.5" style="stroke:#181818;stroke-width:0.5;" width="335" x="2207.5" y="106.62"/><ellipse cx="2335.25" cy="122.62" fill="#ADD1B2" rx="11" ry="11" style="stroke:#181818;stroke-width:1.0;"/><path d="M2337.7231,128.7631 Q2337.1421,129.0619 2336.5029,129.2113 Q2335.8638,129.3607 2335.1582,129.3607 Q2332.6514,129.3607 2331.3315,127.7089 Q2330.0117,126.057 2330.0117,122.9359 Q2330.0117,119.8065 2331.3315,118.1547 Q2332.6514,116.5028 2335.1582,116.5028 Q2335.8638,116.5028 2336.5112,116.6522 Q2337.1587,116.8016 2337.7231,117.1005 L2337.7231,119.8231 Q2337.0923,119.2421 2336.4988,118.9723 Q2335.9053,118.7025 2335.2744,118.7025 Q2333.9297,118.7025 2333.2449,119.7692 Q2332.5601,120.8358 2332.5601,122.9359 Q2332.5601,125.0277 2333.2449,126.0944 Q2333.9297,127.161 2335.2744,127.161 Q2335.9053,127.161 2336.4988,126.8912 Q2337.0923,126.6215 2337.7231,126.0404 Z " fill="#000000"/><text fill="#000000" font-family="sans-serif" font-size="14" lengthAdjust="spacing" textLength="71" x="2355.75" y="127.911">Dokument</text><line style="stroke:#181818;stroke-width:0.5;" x1="2208.5" x2="2541.5" y1="138.62" y2="138.62"/><ellipse cx="2218.5" cy="152.3641" fill="#000000" rx="3" ry="3" style="stroke:#000000;stroke-width:1.0;"/><text fill="#000000" font-family="sans-serif" font-size="14" lengthAdjust="spacing" textLength="61" x="2227.5" y="156.1552">id: string</text><text fill="#000000" font-family="sans-serif" font-size="14" lengthAdjust="spacing" textLength="79" x="2227.5" y="172.6434">tittel: string</text><text fill="#000000" font-family="sans-serif" font-size="14" lengthAdjust="spacing" textLength="94" x="2227.5" y="189.1317">filnavn: string</text><text fill="#000000" font-family="sans-serif" font-size="14" lengthAdjust="spacing" textLength="207" x="2227.5" y="205.62">dokumenttype: Dokumenttype</text><text fill="#000000" font-family="sans-serif" font-size="14" lengthAdjust="spacing" textLength="309" x="2227.5" y="222.1083">referanseDokumentfil: ReferanseDokumentfil</text><text fill="#000000" font-family="sans-serif" font-size="14" lengthAdjust="spacing" textLength="115" x="2227.5" y="238.5966">mimetype: string</text><text fill="#000000" font-family="sans-serif" font-size="14" lengthAdjust="spacing" textLength="146" x="2227.5" y="255.0848">dokumentsdato: date</text><text fill="#000000" font-family="sans-serif" font-size="14" lengthAdjust="spacing" textLength="114" x="2227.5" y="271.5731">arkivnavn: string</text><line style="stroke:#181818;stroke-width:0.5;" x1="2208.5" x2="2541.5" y1="278.5263" y2="278.5263"/></g><g id="elem_GMN4"><path d="M2269.5,13.65 L2269.5,38.9605 A0,0 0 0 0 2269.5,38.9605 L2371,38.9605 L2375,106.19 L2379,38.9605 L2480.5,38.9605 A0,0 0 0 0 2480.5,38.9605 L2480.5,23.65 L2470.5,13.65 L2269.5,13.65 A0,0 0 0 0 2269.5,13.65 " fill="#FEFFDD" style="stroke:#181818;stroke-width:0.5;"/><path d="M2470.5,13.65 L2470.5,23.65 L2480.5,23.65 L2470.5,13.65 " fill="#FEFFDD" style="stroke:#181818;stroke-width:0.5;"/><text fill="#000000" font-family="sans-serif" font-size="13" lengthAdjust="spacing" textLength="190" x="2275.5" y="31.2184">Hentet definisjon fra Fiks Plan</text></g><!--class Dokumenttype--><g id="elem_Dokumenttype"><rect codeLine="19" fill="#F1F1F1" height="89.5977" id="Dokumenttype" rx="2.5" ry="2.5" style="stroke:#181818;stroke-width:0.5;" width="184" x="2155" y="424.66"/><ellipse cx="2193.4" cy="444.9705" fill="#ADD1B2" rx="11" ry="11" style="stroke:#181818;stroke-width:1.0;"/><path d="M2195.8731,451.1136 Q2195.2921,451.4124 2194.6529,451.5619 Q2194.0138,451.7113 2193.3082,451.7113 Q2190.8014,451.7113 2189.4815,450.0594 Q2188.1617,448.4076 2188.1617,445.2865 Q2188.1617,442.1571 2189.4815,440.5052 Q2190.8014,438.8534 2193.3082,438.8534 Q2194.0138,438.8534 2194.6612,439.0028 Q2195.3087,439.1522 2195.8731,439.451 L2195.8731,442.1737 Q2195.2423,441.5926 2194.6488,441.3228 Q2194.0553,441.0531 2193.4244,441.0531 Q2192.0797,441.0531 2191.3949,442.1197 Q2190.7101,443.1864 2190.7101,445.2865 Q2190.7101,447.3783 2191.3949,448.4449 Q2192.0797,449.5116 2193.4244,449.5116 Q2194.0553,449.5116 2194.6488,449.2418 Q2195.2423,448.972 2195.8731,448.391 Z " fill="#000000"/><text fill="#000000" font-family="sans-serif" font-size="12" font-style="italic" lengthAdjust="spacing" textLength="42" x="2241.6" y="441.2616">&#171;Kode&#187;</text><text fill="#000000" font-family="sans-serif" font-size="14" lengthAdjust="spacing" textLength="100" x="2212.6" y="457.328">Dokumenttype</text><line style="stroke:#181818;stroke-width:0.5;" x1="2156" x2="2338" y1="465.2811" y2="465.2811"/><ellipse cx="2166" cy="479.0252" fill="none" rx="3" ry="3" style="stroke:#038048;stroke-width:1.0;"/><text fill="#000000" font-family="sans-serif" font-size="14" lengthAdjust="spacing" textLength="116" x="2175" y="482.8162">kodeverdi: string</text><ellipse cx="2166" cy="495.5135" fill="none" rx="3" ry="3" style="stroke:#038048;stroke-width:1.0;"/><text fill="#000000" font-family="sans-serif" font-size="14" lengthAdjust="spacing" textLength="158" x="2175" y="499.3045">kodebeskrivelse: string</text><line style="stroke:#181818;stroke-width:0.5;" x1="2156" x2="2338" y1="506.2577" y2="506.2577"/></g><!--class ReferanseJournalpost--><g id="elem_ReferanseJournalpost"><rect codeLine="2" fill="#F1F1F1" height="130.4414" id="ReferanseJournalpost" rx="2.5" ry="2.5" style="stroke:#181818;stroke-width:0.5;" width="355" x="1477.5" y="652.38"/><ellipse cx="1577.25" cy="668.38" fill="#ADD1B2" rx="11" ry="11" style="stroke:#181818;stroke-width:1.0;"/><path d="M1579.7231,674.5231 Q1579.1421,674.8219 1578.5029,674.9713 Q1577.8638,675.1207 1577.1582,675.1207 Q1574.6514,675.1207 1573.3315,673.4689 Q1572.0117,671.817 1572.0117,668.6959 Q1572.0117,665.5665 1573.3315,663.9147 Q1574.6514,662.2628 1577.1582,662.2628 Q1577.8638,662.2628 1578.5112,662.4122 Q1579.1587,662.5616 1579.7231,662.8605 L1579.7231,665.5831 Q1579.0923,665.0021 1578.4988,664.7323 Q1577.9053,664.4625 1577.2744,664.4625 Q1575.9297,664.4625 1575.2449,665.5292 Q1574.5601,666.5958 1574.5601,668.6959 Q1574.5601,670.7877 1575.2449,671.8544 Q1575.9297,672.921 1577.2744,672.921 Q1577.9053,672.921 1578.4988,672.6512 Q1579.0923,672.3815 1579.7231,671.8004 Z " fill="#000000"/><text fill="#000000" font-family="sans-serif" font-size="14" lengthAdjust="spacing" textLength="147" x="1597.75" y="673.671">ReferanseJournalpost</text><line style="stroke:#181818;stroke-width:0.5;" x1="1478.5" x2="1831.5" y1="684.38" y2="684.38"/><text fill="#000000" font-family="sans-serif" font-size="14" lengthAdjust="spacing" textLength="108" x="1483.5" y="701.9152">systemId: string</text><text fill="#000000" font-family="sans-serif" font-size="14" lengthAdjust="spacing" textLength="150" x="1483.5" y="718.4034">registreringsID: string</text><text fill="#000000" font-family="sans-serif" font-size="14" lengthAdjust="spacing" textLength="222" x="1483.5" y="734.8917">journalnummer: Journalnummer</text><text fill="#000000" font-family="sans-serif" font-size="14" lengthAdjust="spacing" textLength="343" x="1483.5" y="751.38">saksJournalpostnummer: SaksJournalpostnummer</text><text fill="#000000" font-family="sans-serif" font-size="14" lengthAdjust="spacing" textLength="285" x="1483.5" y="767.8683">referanseEksternNoekkel: EksternNoekkel</text><line style="stroke:#181818;stroke-width:0.5;" x1="1478.5" x2="1831.5" y1="774.8214" y2="774.8214"/></g><!--class Fase--><g id="elem_Fase"><rect codeLine="5" fill="#F1F1F1" height="163.418" id="Fase" rx="2.5" ry="2.5" style="stroke:#181818;stroke-width:0.5;" width="335" x="801.5" y="114.86"/><ellipse cx="949.25" cy="130.86" fill="#ADD1B2" rx="11" ry="11" style="stroke:#181818;stroke-width:1.0;"/><path d="M951.7231,137.0031 Q951.1421,137.3019 950.5029,137.4513 Q949.8638,137.6007 949.1582,137.6007 Q946.6514,137.6007 945.3315,135.9489 Q944.0117,134.297 944.0117,131.1759 Q944.0117,128.0465 945.3315,126.3947 Q946.6514,124.7428 949.1582,124.7428 Q949.8638,124.7428 950.5112,124.8922 Q951.1587,125.0416 951.7231,125.3405 L951.7231,128.0631 Q951.0923,127.4821 950.4988,127.2123 Q949.9053,126.9425 949.2744,126.9425 Q947.9297,126.9425 947.2449,128.0092 Q946.5601,129.0758 946.5601,131.1759 Q946.5601,133.2677 947.2449,134.3344 Q947.9297,135.401 949.2744,135.401 Q949.9053,135.401 950.4988,135.1312 Q951.0923,134.8615 951.7231,134.2804 Z " fill="#000000"/><text fill="#000000" font-family="sans-serif" font-size="14" lengthAdjust="spacing" textLength="31" x="969.75" y="136.151">Fase</text><line style="stroke:#181818;stroke-width:0.5;" x1="802.5" x2="1135.5" y1="146.86" y2="146.86"/><ellipse cx="812.5" cy="160.6041" fill="#000000" rx="3" ry="3" style="stroke:#000000;stroke-width:1.0;"/><text fill="#000000" font-family="sans-serif" font-size="14" lengthAdjust="spacing" textLength="89" x="821.5" y="164.3952">faseid: string</text><ellipse cx="812.5" cy="177.0924" fill="#000000" rx="3" ry="3" style="stroke:#000000;stroke-width:1.0;"/><text fill="#000000" font-family="sans-serif" font-size="14" lengthAdjust="spacing" textLength="109" x="821.5" y="180.8834">fasenavn: string</text><ellipse cx="812.5" cy="193.5807" fill="#000000" rx="3" ry="3" style="stroke:#000000;stroke-width:1.0;"/><text fill="#000000" font-family="sans-serif" font-size="14" lengthAdjust="spacing" textLength="153" x="821.5" y="197.3717">kategori: Fasekategori</text><ellipse cx="812.5" cy="210.069" fill="#000000" rx="3" ry="3" style="stroke:#000000;stroke-width:1.0;"/><text fill="#000000" font-family="sans-serif" font-size="14" lengthAdjust="spacing" textLength="161" x="821.5" y="213.86">status: FaseStatusEnum</text><text fill="#000000" font-family="sans-serif" font-size="14" lengthAdjust="spacing" textLength="131" x="821.5" y="230.3483">milepeler: Milepel[]</text><text fill="#000000" font-family="sans-serif" font-size="14" lengthAdjust="spacing" textLength="100" x="821.5" y="246.8366">vedtak: Vedtak</text><text fill="#000000" font-family="sans-serif" font-size="14" lengthAdjust="spacing" textLength="309" x="821.5" y="263.3248">referanseJournalpost: ReferanseJournalpost[]</text><line style="stroke:#181818;stroke-width:0.5;" x1="802.5" x2="1135.5" y1="270.278" y2="270.278"/></g><g id="elem_GMN13"><path d="M696,6 L696,46.6211 A0,0 0 0 0 696,46.6211 L965,46.6211 L969,114.64 L973,46.6211 L1242,46.6211 A0,0 0 0 0 1242,46.6211 L1242,16 L1232,6 L696,6 A0,0 0 0 0 696,6 " fill="#FEFFDD" style="stroke:#181818;stroke-width:0.5;"/><path d="M1232,6 L1232,16 L1242,16 L1232,6 " fill="#FEFFDD" style="stroke:#181818;stroke-width:0.5;"/><text fill="#000000" font-family="sans-serif" font-size="13" lengthAdjust="spacing" textLength="369" x="702" y="23.5684">En fase er i hovedsak det som hender mellom to milepeler.</text><text fill="#000000" font-family="sans-serif" font-size="13" lengthAdjust="spacing" textLength="525" x="702" y="38.8789">Interne faser sendes ikke ut ved denne protokollen. Vi kutter derfor ut Global flagg.</text></g><path d="M1171.5,171.26 L1171.5,187.5705 L910.5,159.1041 L1171.5,195.5705 L1171.5,211.8811 A0,0 0 0 0 1171.5,211.8811 L1692.5,211.8811 A0,0 0 0 0 1692.5,211.8811 L1692.5,181.26 L1682.5,171.26 L1171.5,171.26 A0,0 0 0 0 1171.5,171.26 " fill="#FEFFDD" style="stroke:#181818;stroke-width:0.5;"/><path d="M1682.5,171.26 L1682.5,181.26 L1692.5,181.26 L1682.5,171.26 " fill="#FEFFDD" style="stroke:#181818;stroke-width:0.5;"/><text fill="#000000" font-family="sans-serif" font-size="13" lengthAdjust="spacing" textLength="500" x="1177.5" y="188.8284">Faseid brukes alene (ikke sammen med saksnummer) for &#229; hente en enkelt fase</text><text fill="#000000" font-family="sans-serif" font-size="13" lengthAdjust="spacing" textLength="165" x="1177.5" y="204.1389">Den m&#229; dermed v&#230;re unik</text><!--class Vedtak--><g id="elem_Vedtak"><rect codeLine="36" fill="#F1F1F1" height="89.5977" id="Vedtak" rx="2.5" ry="2.5" style="stroke:#181818;stroke-width:0.5;" width="184" x="616" y="424.66"/><ellipse cx="680.25" cy="444.9705" fill="#ADD1B2" rx="11" ry="11" style="stroke:#181818;stroke-width:1.0;"/><path d="M682.7231,451.1136 Q682.1421,451.4124 681.5029,451.5619 Q680.8638,451.7113 680.1582,451.7113 Q677.6514,451.7113 676.3315,450.0594 Q675.0117,448.4076 675.0117,445.2865 Q675.0117,442.1571 676.3315,440.5052 Q677.6514,438.8534 680.1582,438.8534 Q680.8638,438.8534 681.5112,439.0028 Q682.1587,439.1522 682.7231,439.451 L682.7231,442.1737 Q682.0923,441.5926 681.4988,441.3228 Q680.9053,441.0531 680.2744,441.0531 Q678.9297,441.0531 678.2449,442.1197 Q677.5601,443.1864 677.5601,445.2865 Q677.5601,447.3783 678.2449,448.4449 Q678.9297,449.5116 680.2744,449.5116 Q680.9053,449.5116 681.4988,449.2418 Q682.0923,448.972 682.7231,448.391 Z " fill="#000000"/><text fill="#000000" font-family="sans-serif" font-size="12" font-style="italic" lengthAdjust="spacing" textLength="42" x="703.25" y="441.2616">&#171;Kode&#187;</text><text fill="#000000" font-family="sans-serif" font-size="14" lengthAdjust="spacing" textLength="47" x="700.75" y="457.328">Vedtak</text><line style="stroke:#181818;stroke-width:0.5;" x1="617" x2="799" y1="465.2811" y2="465.2811"/><ellipse cx="627" cy="479.0252" fill="#000000" rx="3" ry="3" style="stroke:#000000;stroke-width:1.0;"/><text fill="#000000" font-family="sans-serif" font-size="14" lengthAdjust="spacing" textLength="116" x="636" y="482.8162">kodeverdi: string</text><text fill="#000000" font-family="sans-serif" font-size="14" lengthAdjust="spacing" textLength="158" x="636" y="499.3045">kodebeskrivelse: string</text><line style="stroke:#181818;stroke-width:0.5;" x1="617" x2="799" y1="506.2577" y2="506.2577"/></g><!--class FaseStatusEnum--><g id="elem_FaseStatusEnum"><rect codeLine="28" fill="#F1F1F1" height="97.4648" id="FaseStatusEnum" rx="2.5" ry="2.5" style="stroke:#181818;stroke-width:0.5;" width="144" x="1054" y="420.72"/><ellipse cx="1069" cy="436.72" fill="#EB937F" rx="11" ry="11" style="stroke:#181818;stroke-width:1.0;"/><path d="M1072.6143,443.22 L1064.8945,443.22 L1064.8945,430.8269 L1072.6143,430.8269 L1072.6143,432.9851 L1067.3433,432.9851 L1067.3433,435.658 L1072.1162,435.658 L1072.1162,437.8162 L1067.3433,437.8162 L1067.3433,441.0618 L1072.6143,441.0618 Z " fill="#000000"/><text fill="#000000" font-family="sans-serif" font-size="14" lengthAdjust="spacing" textLength="112" x="1083" y="442.011">FaseStatusEnum</text><line style="stroke:#181818;stroke-width:0.5;" x1="1055" x2="1197" y1="452.72" y2="452.72"/><ellipse cx="1065" cy="466.4641" fill="none" rx="3" ry="3" style="stroke:#038048;stroke-width:1.0;"/><text fill="#000000" font-family="sans-serif" font-size="14" lengthAdjust="spacing" textLength="55" x="1074" y="470.2552">Planlagt</text><ellipse cx="1065" cy="482.9524" fill="none" rx="3" ry="3" style="stroke:#038048;stroke-width:1.0;"/><text fill="#000000" font-family="sans-serif" font-size="14" lengthAdjust="spacing" textLength="88" x="1074" y="486.7434">UnderArbeid</text><ellipse cx="1065" cy="499.4407" fill="none" rx="3" ry="3" style="stroke:#038048;stroke-width:1.0;"/><text fill="#000000" font-family="sans-serif" font-size="14" lengthAdjust="spacing" textLength="48" x="1074" y="503.2317">Utfoert</text><line style="stroke:#181818;stroke-width:0.5;" x1="1055" x2="1197" y1="510.1848" y2="510.1848"/></g><!--class Fasekategori--><g id="elem_Fasekategori"><rect codeLine="41" fill="#F1F1F1" height="89.5977" id="Fasekategori" rx="2.5" ry="2.5" style="stroke:#181818;stroke-width:0.5;" width="184" x="835" y="424.66"/><ellipse cx="878.8" cy="444.9705" fill="#ADD1B2" rx="11" ry="11" style="stroke:#181818;stroke-width:1.0;"/><path d="M881.2731,451.1136 Q880.6921,451.4124 880.0529,451.5619 Q879.4138,451.7113 878.7082,451.7113 Q876.2014,451.7113 874.8815,450.0594 Q873.5617,448.4076 873.5617,445.2865 Q873.5617,442.1571 874.8815,440.5052 Q876.2014,438.8534 878.7082,438.8534 Q879.4138,438.8534 880.0612,439.0028 Q880.7087,439.1522 881.2731,439.451 L881.2731,442.1737 Q880.6423,441.5926 880.0488,441.3228 Q879.4553,441.0531 878.8244,441.0531 Q877.4797,441.0531 876.7949,442.1197 Q876.1101,443.1864 876.1101,445.2865 Q876.1101,447.3783 876.7949,448.4449 Q877.4797,449.5116 878.8244,449.5116 Q879.4553,449.5116 880.0488,449.2418 Q880.6423,448.972 881.2731,448.391 Z " fill="#000000"/><text fill="#000000" font-family="sans-serif" font-size="12" font-style="italic" lengthAdjust="spacing" textLength="42" x="922.2" y="441.2616">&#171;Kode&#187;</text><text fill="#000000" font-family="sans-serif" font-size="14" lengthAdjust="spacing" textLength="88" x="899.2" y="457.328">Fasekategori</text><line style="stroke:#181818;stroke-width:0.5;" x1="836" x2="1018" y1="465.2811" y2="465.2811"/><ellipse cx="846" cy="479.0252" fill="#000000" rx="3" ry="3" style="stroke:#000000;stroke-width:1.0;"/><text fill="#000000" font-family="sans-serif" font-size="14" lengthAdjust="spacing" textLength="116" x="855" y="482.8162">kodeverdi: string</text><text fill="#000000" font-family="sans-serif" font-size="14" lengthAdjust="spacing" textLength="158" x="855" y="499.3045">kodebeskrivelse: string</text><line style="stroke:#181818;stroke-width:0.5;" x1="836" x2="1018" y1="506.2577" y2="506.2577"/></g><g id="elem_GMN24"><path d="M648,153.29 L648,239.8427 A0,0 0 0 0 648,239.8427 L703.16,239.8427 L707.84,424.28 L711.16,239.8427 L766,239.8427 A0,0 0 0 0 766,239.8427 L766,163.29 L756,153.29 L648,153.29 A0,0 0 0 0 648,153.29 " fill="#FEFFDD" style="stroke:#181818;stroke-width:0.5;"/><path d="M756,153.29 L756,163.29 L766,163.29 L756,153.29 " fill="#FEFFDD" style="stroke:#181818;stroke-width:0.5;"/><text fill="#000000" font-family="sans-serif" font-size="13" lengthAdjust="spacing" textLength="69" x="654" y="170.8584">Eksempler:</text><text fill="#000000" font-family="sans-serif" font-size="13" lengthAdjust="spacing" textLength="56" x="654" y="186.1689">godkjent</text><text fill="#000000" font-family="sans-serif" font-size="13" lengthAdjust="spacing" textLength="97" x="654" y="201.4795">delvis godkjent</text><text fill="#000000" font-family="sans-serif" font-size="13" lengthAdjust="spacing" textLength="42" x="654" y="216.79">avsl&#229;tt</text><text fill="#000000" font-family="sans-serif" font-size="13" lengthAdjust="spacing" textLength="37" x="654" y="232.1005">avvist</text></g><g id="elem_GMN27"><path d="M611.5,659.02 L611.5,776.1938 A0,0 0 0 0 611.5,776.1938 L1222.5,776.1938 A0,0 0 0 0 1222.5,776.1938 L1222.5,669.02 L1212.5,659.02 L923.35,659.02 L925.2,514.75 L915.35,659.02 L611.5,659.02 A0,0 0 0 0 611.5,659.02 " fill="#FEFFDD" style="stroke:#181818;stroke-width:0.5;"/><path d="M1212.5,659.02 L1212.5,669.02 L1222.5,669.02 L1212.5,659.02 " fill="#FEFFDD" style="stroke:#181818;stroke-width:0.5;"/><text fill="#000000" font-family="sans-serif" font-size="13" lengthAdjust="spacing" textLength="305" x="617.5" y="676.5884">Se gjerne Byggesaksbehandling::Prosesskategori</text><text fill="#000000" font-family="sans-serif" font-size="13" lengthAdjust="spacing" textLength="45" x="621.5" y="691.8989">fra NPS</text><text fill="#000000" font-family="sans-serif" font-size="13" lengthAdjust="spacing" textLength="210" x="617.5" y="707.2095">Vi m&#229; f&#229; avklart denne kodelisten</text><text fill="#000000" font-family="sans-serif" font-size="13" lengthAdjust="spacing" textLength="590" x="617.5" y="722.52">Vi m&#229; ha en som er generell som betyr at det ikke er fastsatt hvis kategori skal v&#230;re required.</text><text fill="#000000" font-family="sans-serif" font-size="13" lengthAdjust="spacing" textLength="69" x="617.5" y="737.8305">Eksempler:</text><text fill="#000000" font-family="sans-serif" font-size="13" lengthAdjust="spacing" textLength="34" x="617.5" y="753.1411">Klage</text><text fill="#000000" font-family="sans-serif" font-size="13" lengthAdjust="spacing" textLength="43" x="617.5" y="768.4516">H&#248;ring</text></g><!--class EksternNoekkel--><g id="elem_EksternNoekkel"><rect codeLine="2" fill="#F1F1F1" height="80.9766" id="EksternNoekkel" rx="2.5" ry="2.5" style="stroke:#181818;stroke-width:0.5;" width="143" x="1352.5" y="851.07"/><ellipse cx="1369.75" cy="867.07" fill="#ADD1B2" rx="11" ry="11" style="stroke:#181818;stroke-width:1.0;"/><path d="M1372.2231,873.2131 Q1371.6421,873.5119 1371.0029,873.6613 Q1370.3638,873.8107 1369.6582,873.8107 Q1367.1514,873.8107 1365.8315,872.1589 Q1364.5117,870.507 1364.5117,867.3859 Q1364.5117,864.2565 1365.8315,862.6047 Q1367.1514,860.9528 1369.6582,860.9528 Q1370.3638,860.9528 1371.0112,861.1022 Q1371.6587,861.2516 1372.2231,861.5505 L1372.2231,864.2731 Q1371.5923,863.6921 1370.9988,863.4223 Q1370.4053,863.1525 1369.7744,863.1525 Q1368.4297,863.1525 1367.7449,864.2192 Q1367.0601,865.2858 1367.0601,867.3859 Q1367.0601,869.4777 1367.7449,870.5444 Q1368.4297,871.611 1369.7744,871.611 Q1370.4053,871.611 1370.9988,871.3412 Q1371.5923,871.0715 1372.2231,870.4904 Z " fill="#000000"/><text fill="#000000" font-family="sans-serif" font-size="14" lengthAdjust="spacing" textLength="106" x="1384.25" y="872.361">EksternNoekkel</text><line style="stroke:#181818;stroke-width:0.5;" x1="1353.5" x2="1494.5" y1="883.07" y2="883.07"/><ellipse cx="1363.5" cy="896.8141" fill="#000000" rx="3" ry="3" style="stroke:#000000;stroke-width:1.0;"/><text fill="#000000" font-family="sans-serif" font-size="14" lengthAdjust="spacing" textLength="117" x="1372.5" y="900.6052">fagsystem: string</text><ellipse cx="1363.5" cy="913.3024" fill="#000000" rx="3" ry="3" style="stroke:#000000;stroke-width:1.0;"/><text fill="#000000" font-family="sans-serif" font-size="14" lengthAdjust="spacing" textLength="102" x="1372.5" y="917.0934">noekkel: string</text><line style="stroke:#181818;stroke-width:0.5;" x1="1353.5" x2="1494.5" y1="924.0466" y2="924.0466"/></g><!--class Journalnummer--><g id="elem_Journalnummer"><rect codeLine="2" fill="#F1F1F1" height="80.9766" id="Journalnummer" rx="2.5" ry="2.5" style="stroke:#181818;stroke-width:0.5;" width="249" x="1530.5" y="851.07"/><ellipse cx="1597.25" cy="867.07" fill="#ADD1B2" rx="11" ry="11" style="stroke:#181818;stroke-width:1.0;"/><path d="M1599.7231,873.2131 Q1599.1421,873.5119 1598.5029,873.6613 Q1597.8638,873.8107 1597.1582,873.8107 Q1594.6514,873.8107 1593.3315,872.1589 Q1592.0117,870.507 1592.0117,867.3859 Q1592.0117,864.2565 1593.3315,862.6047 Q1594.6514,860.9528 1597.1582,860.9528 Q1597.8638,860.9528 1598.5112,861.1022 Q1599.1587,861.2516 1599.7231,861.5505 L1599.7231,864.2731 Q1599.0923,863.6921 1598.4988,863.4223 Q1597.9053,863.1525 1597.2744,863.1525 Q1595.9297,863.1525 1595.2449,864.2192 Q1594.5601,865.2858 1594.5601,867.3859 Q1594.5601,869.4777 1595.2449,870.5444 Q1595.9297,871.611 1597.2744,871.611 Q1597.9053,871.611 1598.4988,871.3412 Q1599.0923,871.0715 1599.7231,870.4904 Z " fill="#000000"/><text fill="#000000" font-family="sans-serif" font-size="14" lengthAdjust="spacing" textLength="107" x="1617.75" y="872.361">Journalnummer</text><line style="stroke:#181818;stroke-width:0.5;" x1="1531.5" x2="1778.5" y1="883.07" y2="883.07"/><ellipse cx="1541.5" cy="896.8141" fill="#000000" rx="3" ry="3" style="stroke:#000000;stroke-width:1.0;"/><text fill="#000000" font-family="sans-serif" font-size="14" lengthAdjust="spacing" textLength="169" x="1550.5" y="900.6052">journalnummer: number</text><ellipse cx="1541.5" cy="913.3024" fill="#000000" rx="3" ry="3" style="stroke:#000000;stroke-width:1.0;"/><text fill="#000000" font-family="sans-serif" font-size="14" lengthAdjust="spacing" textLength="223" x="1550.5" y="917.0934">journalsekvensnummer: number</text><line style="stroke:#181818;stroke-width:0.5;" x1="1531.5" x2="1778.5" y1="924.0466" y2="924.0466"/></g><!--class SaksJournalpostnummer--><g id="elem_SaksJournalpostnummer"><rect codeLine="2" fill="#F1F1F1" height="97.4648" id="SaksJournalpostnummer" rx="2.5" ry="2.5" style="stroke:#181818;stroke-width:0.5;" width="230" x="1814" y="842.83"/><ellipse cx="1842.5" cy="858.83" fill="#ADD1B2" rx="11" ry="11" style="stroke:#181818;stroke-width:1.0;"/><path d="M1844.9731,864.9731 Q1844.3921,865.2719 1843.7529,865.4213 Q1843.1138,865.5707 1842.4082,865.5707 Q1839.9014,865.5707 1838.5815,863.9189 Q1837.2617,862.267 1837.2617,859.1459 Q1837.2617,856.0165 1838.5815,854.3647 Q1839.9014,852.7128 1842.4082,852.7128 Q1843.1138,852.7128 1843.7612,852.8622 Q1844.4087,853.0116 1844.9731,853.3105 L1844.9731,856.0331 Q1844.3423,855.4521 1843.7488,855.1823 Q1843.1553,854.9125 1842.5244,854.9125 Q1841.1797,854.9125 1840.4949,855.9792 Q1839.8101,857.0458 1839.8101,859.1459 Q1839.8101,861.2377 1840.4949,862.3044 Q1841.1797,863.371 1842.5244,863.371 Q1843.1553,863.371 1843.7488,863.1012 Q1844.3423,862.8315 1844.9731,862.2504 Z " fill="#000000"/><text fill="#000000" font-family="sans-serif" font-size="14" lengthAdjust="spacing" textLength="168" x="1859.5" y="864.121">SaksJournalpostnummer</text><line style="stroke:#181818;stroke-width:0.5;" x1="1815" x2="2043" y1="874.83" y2="874.83"/><ellipse cx="1825" cy="888.5741" fill="#000000" rx="3" ry="3" style="stroke:#000000;stroke-width:1.0;"/><text fill="#000000" font-family="sans-serif" font-size="14" lengthAdjust="spacing" textLength="114" x="1834" y="892.3652">saksaar: number</text><ellipse cx="1825" cy="905.0624" fill="#000000" rx="3" ry="3" style="stroke:#000000;stroke-width:1.0;"/><text fill="#000000" font-family="sans-serif" font-size="14" lengthAdjust="spacing" textLength="204" x="1834" y="908.8534">sakssekvensnummer: number</text><ellipse cx="1825" cy="921.5507" fill="#000000" rx="3" ry="3" style="stroke:#000000;stroke-width:1.0;"/><text fill="#000000" font-family="sans-serif" font-size="14" lengthAdjust="spacing" textLength="199" x="1834" y="925.3417">journalpostnummer: number</text><line style="stroke:#181818;stroke-width:0.5;" x1="1815" x2="2043" y1="932.2948" y2="932.2948"/></g><!--class Milepel--><g id="elem_Milepel"><rect codeLine="8" fill="#F1F1F1" height="245.8594" id="Milepel" rx="2.5" ry="2.5" style="stroke:#181818;stroke-width:0.5;" width="325" x="1786.5" y="346.52"/><ellipse cx="1920.25" cy="362.52" fill="#ADD1B2" rx="11" ry="11" style="stroke:#181818;stroke-width:1.0;"/><path d="M1922.7231,368.6631 Q1922.1421,368.9619 1921.5029,369.1113 Q1920.8638,369.2607 1920.1582,369.2607 Q1917.6514,369.2607 1916.3315,367.6089 Q1915.0117,365.957 1915.0117,362.8359 Q1915.0117,359.7065 1916.3315,358.0547 Q1917.6514,356.4028 1920.1582,356.4028 Q1920.8638,356.4028 1921.5112,356.5522 Q1922.1587,356.7016 1922.7231,357.0005 L1922.7231,359.7231 Q1922.0923,359.1421 1921.4988,358.8723 Q1920.9053,358.6025 1920.2744,358.6025 Q1918.9297,358.6025 1918.2449,359.6692 Q1917.5601,360.7358 1917.5601,362.8359 Q1917.5601,364.9277 1918.2449,365.9944 Q1918.9297,367.061 1920.2744,367.061 Q1920.9053,367.061 1921.4988,366.7912 Q1922.0923,366.5215 1922.7231,365.9404 Z " fill="#000000"/><text fill="#000000" font-family="sans-serif" font-size="14" lengthAdjust="spacing" textLength="49" x="1940.75" y="367.811">Milepel</text><line style="stroke:#181818;stroke-width:0.5;" x1="1787.5" x2="2110.5" y1="378.52" y2="378.52"/><ellipse cx="1797.5" cy="392.2641" fill="#000000" rx="3" ry="3" style="stroke:#000000;stroke-width:1.0;"/><text fill="#000000" font-family="sans-serif" font-size="14" lengthAdjust="spacing" textLength="111" x="1806.5" y="396.0552">milepelId: string</text><ellipse cx="1797.5" cy="408.7524" fill="#000000" rx="3" ry="3" style="stroke:#000000;stroke-width:1.0;"/><text fill="#000000" font-family="sans-serif" font-size="14" lengthAdjust="spacing" textLength="124" x="1806.5" y="412.5434">beskrivelse: string</text><text fill="#000000" font-family="sans-serif" font-size="14" lengthAdjust="spacing" textLength="165" x="1806.5" y="429.0317">milepeltype: Milepeltype</text><text fill="#000000" font-family="sans-serif" font-size="14" lengthAdjust="spacing" textLength="65" x="1806.5" y="445.52">frist: date</text><text fill="#000000" font-family="sans-serif" font-size="14" lengthAdjust="spacing" textLength="85" x="1806.5" y="462.0083">utfoert: date</text><text fill="#000000" font-family="sans-serif" font-size="14" lengthAdjust="spacing" textLength="142" x="1806.5" y="478.4966">planlagtUtfoert: date</text><ellipse cx="1797.5" cy="491.1938" fill="#000000" rx="3" ry="3" style="stroke:#000000;stroke-width:1.0;"/><text fill="#000000" font-family="sans-serif" font-size="14" lengthAdjust="spacing" textLength="105" x="1806.5" y="494.9848">intern: boolean</text><text fill="#000000" font-family="sans-serif" font-size="14" lengthAdjust="spacing" textLength="299" x="1806.5" y="511.4731">referanseJournalpost: ReferanseJournalpost</text><text fill="#000000" font-family="sans-serif" font-size="14" lengthAdjust="spacing" textLength="296" x="1806.5" y="527.9614">referanseDokument: ReferanseDokumentfil</text><text fill="#000000" font-family="sans-serif" font-size="14" lengthAdjust="spacing" textLength="110" x="1806.5" y="544.4497">erStart: boolean</text><text fill="#000000" font-family="sans-serif" font-size="14" lengthAdjust="spacing" textLength="109" x="1806.5" y="560.938">erSlutt: boolean</text><ellipse cx="1797.5" cy="573.6352" fill="#000000" rx="3" ry="3" style="stroke:#000000;stroke-width:1.0;"/><text fill="#000000" font-family="sans-serif" font-size="14" lengthAdjust="spacing" textLength="179" x="1806.5" y="577.4263">status: MilepelStatusEnum</text><line style="stroke:#181818;stroke-width:0.5;" x1="1787.5" x2="2110.5" y1="584.3794" y2="584.3794"/></g><g id="elem_GMN34"><path d="M1728,176.26 L1728,216.8811 A0,0 0 0 0 1728,216.8811 L1945.93,216.8811 L1949.45,346.09 L1953.93,216.8811 L2172,216.8811 A0,0 0 0 0 2172,216.8811 L2172,186.26 L2162,176.26 L1728,176.26 A0,0 0 0 0 1728,176.26 " fill="#FEFFDD" style="stroke:#181818;stroke-width:0.5;"/><path d="M2162,176.26 L2162,186.26 L2172,186.26 L2162,176.26 " fill="#FEFFDD" style="stroke:#181818;stroke-width:0.5;"/><text fill="#000000" font-family="sans-serif" font-size="13" lengthAdjust="spacing" textLength="331" x="1734" y="193.8284">planlagtUtfoert er hvis man har laget en milepel plan</text><text fill="#000000" font-family="sans-serif" font-size="13" lengthAdjust="spacing" textLength="423" x="1734" y="209.1389">s&#229; kan man sette denne datoen for n&#229;r det er planlagt &#229; v&#230;re ferdig</text></g><!--class Milepeltype--><g id="elem_Milepeltype"><rect codeLine="32" fill="#F1F1F1" height="80.9766" id="Milepeltype" rx="2.5" ry="2.5" style="stroke:#181818;stroke-width:0.5;" width="184" x="1258" y="677.12"/><ellipse cx="1306.75" cy="693.12" fill="#ADD1B2" rx="11" ry="11" style="stroke:#181818;stroke-width:1.0;"/><path d="M1309.2231,699.2631 Q1308.6421,699.5619 1308.0029,699.7113 Q1307.3638,699.8607 1306.6582,699.8607 Q1304.1514,699.8607 1302.8315,698.2089 Q1301.5117,696.557 1301.5117,693.4359 Q1301.5117,690.3065 1302.8315,688.6547 Q1304.1514,687.0028 1306.6582,687.0028 Q1307.3638,687.0028 1308.0112,687.1522 Q1308.6587,687.3016 1309.2231,687.6005 L1309.2231,690.3231 Q1308.5923,689.7421 1307.9988,689.4723 Q1307.4053,689.2025 1306.7744,689.2025 Q1305.4297,689.2025 1304.7449,690.2692 Q1304.0601,691.3358 1304.0601,693.4359 Q1304.0601,695.5277 1304.7449,696.5944 Q1305.4297,697.661 1306.7744,697.661 Q1307.4053,697.661 1307.9988,697.3912 Q1308.5923,697.1215 1309.2231,696.5404 Z " fill="#000000"/><text fill="#000000" font-family="sans-serif" font-size="14" lengthAdjust="spacing" textLength="78" x="1327.25" y="698.411">Milepeltype</text><line style="stroke:#181818;stroke-width:0.5;" x1="1259" x2="1441" y1="709.12" y2="709.12"/><ellipse cx="1269" cy="722.8641" fill="none" rx="3" ry="3" style="stroke:#038048;stroke-width:1.0;"/><text fill="#000000" font-family="sans-serif" font-size="14" lengthAdjust="spacing" textLength="116" x="1278" y="726.6552">kodeverdi: string</text><ellipse cx="1269" cy="739.3524" fill="none" rx="3" ry="3" style="stroke:#038048;stroke-width:1.0;"/><text fill="#000000" font-family="sans-serif" font-size="14" lengthAdjust="spacing" textLength="158" x="1278" y="743.1434">kodebeskrivelse: string</text><line style="stroke:#181818;stroke-width:0.5;" x1="1259" x2="1441" y1="750.0966" y2="750.0966"/></g><g id="elem_GMN39"><path d="M1235.5,433.83 L1235.5,505.0722 A0,0 0 0 0 1235.5,505.0722 L1346,505.0722 L1350,676.83 L1354,505.0722 L1464.5,505.0722 A0,0 0 0 0 1464.5,505.0722 L1464.5,443.83 L1454.5,433.83 L1235.5,433.83 A0,0 0 0 0 1235.5,433.83 " fill="#FEFFDD" style="stroke:#181818;stroke-width:0.5;"/><path d="M1454.5,433.83 L1454.5,443.83 L1464.5,443.83 L1454.5,433.83 " fill="#FEFFDD" style="stroke:#181818;stroke-width:0.5;"/><text fill="#000000" font-family="sans-serif" font-size="13" lengthAdjust="spacing" textLength="69" x="1241.5" y="451.3984">Eksempler:</text><text fill="#000000" font-family="sans-serif" font-size="13" lengthAdjust="spacing" textLength="201" x="1241.5" y="466.7089">Bestilling av oppstartsm&#248;te (BO)</text><text fill="#000000" font-family="sans-serif" font-size="13" lengthAdjust="spacing" textLength="208" x="1241.5" y="482.0195">Gjennomf&#248;rt oppstartsm&#248;te (OM)</text><text fill="#000000" font-family="sans-serif" font-size="13" lengthAdjust="spacing" textLength="137" x="1241.5" y="497.33">Mottak av planforslag</text></g><g id="elem_GMN42"><path d="M2065.5,704.95 L2065.5,730.2605 A0,0 0 0 0 2065.5,730.2605 L2264.5,730.2605 A0,0 0 0 0 2264.5,730.2605 L2264.5,714.95 L2254.5,704.95 L2158.5,704.95 L2056.37,592.81 L2150.5,704.95 L2065.5,704.95 A0,0 0 0 0 2065.5,704.95 " fill="#FEFFDD" style="stroke:#181818;stroke-width:0.5;"/><path d="M2254.5,704.95 L2254.5,714.95 L2264.5,714.95 L2254.5,704.95 " fill="#FEFFDD" style="stroke:#181818;stroke-width:0.5;"/><text fill="#000000" font-family="sans-serif" font-size="13" lengthAdjust="spacing" textLength="178" x="2071.5" y="722.5184">frist og utfoert ikke p&#229;krevd</text></g><!--class MilepelStatusEnum--><g id="elem_MilepelStatusEnum"><rect codeLine="48" fill="#F1F1F1" height="80.9766" id="MilepelStatusEnum" rx="2.5" ry="2.5" style="stroke:#181818;stroke-width:0.5;" width="162" x="1868" y="677.12"/><ellipse cx="1883" cy="693.12" fill="#EB937F" rx="11" ry="11" style="stroke:#181818;stroke-width:1.0;"/><path d="M1886.6143,699.62 L1878.8945,699.62 L1878.8945,687.2269 L1886.6143,687.2269 L1886.6143,689.3851 L1881.3433,689.3851 L1881.3433,692.058 L1886.1162,692.058 L1886.1162,694.2162 L1881.3433,694.2162 L1881.3433,697.4618 L1886.6143,697.4618 Z " fill="#000000"/><text fill="#000000" font-family="sans-serif" font-size="14" lengthAdjust="spacing" textLength="130" x="1897" y="698.411">MilepelStatusEnum</text><line style="stroke:#181818;stroke-width:0.5;" x1="1869" x2="2029" y1="709.12" y2="709.12"/><ellipse cx="1879" cy="722.8641" fill="none" rx="3" ry="3" style="stroke:#038048;stroke-width:1.0;"/><text fill="#000000" font-family="sans-serif" font-size="14" lengthAdjust="spacing" textLength="36" x="1888" y="726.6552">N&#229;dd</text><ellipse cx="1879" cy="739.3524" fill="none" rx="3" ry="3" style="stroke:#038048;stroke-width:1.0;"/><text fill="#000000" font-family="sans-serif" font-size="14" lengthAdjust="spacing" textLength="55" x="1888" y="743.1434">Planlagt</text><line style="stroke:#181818;stroke-width:0.5;" x1="1869" x2="2029" y1="750.0966" y2="750.0966"/></g><!--class Saksnummer--><g id="elem_Saksnummer"><rect codeLine="2" fill="#F1F1F1" height="80.9766" id="Saksnummer" rx="2.5" ry="2.5" style="stroke:#181818;stroke-width:0.5;" width="225" x="355.5" y="428.97"/><ellipse cx="419.25" cy="444.97" fill="#ADD1B2" rx="11" ry="11" style="stroke:#181818;stroke-width:1.0;"/><path d="M421.7231,451.1131 Q421.1421,451.4119 420.5029,451.5613 Q419.8638,451.7107 419.1582,451.7107 Q416.6514,451.7107 415.3315,450.0589 Q414.0117,448.407 414.0117,445.2859 Q414.0117,442.1565 415.3315,440.5047 Q416.6514,438.8528 419.1582,438.8528 Q419.8638,438.8528 420.5112,439.0022 Q421.1587,439.1516 421.7231,439.4505 L421.7231,442.1731 Q421.0923,441.5921 420.4988,441.3223 Q419.9053,441.0525 419.2744,441.0525 Q417.9297,441.0525 417.2449,442.1192 Q416.5601,443.1858 416.5601,445.2859 Q416.5601,447.3777 417.2449,448.4444 Q417.9297,449.511 419.2744,449.511 Q419.9053,449.511 420.4988,449.2412 Q421.0923,448.9715 421.7231,448.3904 Z " fill="#000000"/><text fill="#000000" font-family="sans-serif" font-size="14" lengthAdjust="spacing" textLength="89" x="439.75" y="450.261">Saksnummer</text><line style="stroke:#181818;stroke-width:0.5;" x1="356.5" x2="579.5" y1="460.97" y2="460.97"/><ellipse cx="366.5" cy="474.7141" fill="#000000" rx="3" ry="3" style="stroke:#000000;stroke-width:1.0;"/><text fill="#000000" font-family="sans-serif" font-size="14" lengthAdjust="spacing" textLength="109" x="375.5" y="478.5052">saksaar: integer</text><ellipse cx="366.5" cy="491.2024" fill="#000000" rx="3" ry="3" style="stroke:#000000;stroke-width:1.0;"/><text fill="#000000" font-family="sans-serif" font-size="14" lengthAdjust="spacing" textLength="199" x="375.5" y="494.9934">sakssekvensnummer: integer</text><line style="stroke:#181818;stroke-width:0.5;" x1="356.5" x2="579.5" y1="501.9466" y2="501.9466"/></g><!--class SaksfaserHentResultat--><g id="elem_SaksfaserHentResultat"><rect codeLine="6" fill="#F1F1F1" height="113.9531" id="SaksfaserHentResultat" rx="2.5" ry="2.5" style="stroke:#181818;stroke-width:0.5;" width="211" x="381.5" y="139.59"/><ellipse cx="408.65" cy="155.59" fill="#ADD1B2" rx="11" ry="11" style="stroke:#181818;stroke-width:1.0;"/><path d="M411.1231,161.7331 Q410.5421,162.0319 409.9029,162.1813 Q409.2638,162.3307 408.5582,162.3307 Q406.0514,162.3307 404.7315,160.6789 Q403.4117,159.027 403.4117,155.9059 Q403.4117,152.7765 404.7315,151.1247 Q406.0514,149.4728 408.5582,149.4728 Q409.2638,149.4728 409.9112,149.6222 Q410.5587,149.7716 411.1231,150.0705 L411.1231,152.7931 Q410.4923,152.2121 409.8988,151.9423 Q409.3053,151.6725 408.6744,151.6725 Q407.3297,151.6725 406.6449,152.7392 Q405.9601,153.8058 405.9601,155.9059 Q405.9601,157.9977 406.6449,159.0644 Q407.3297,160.131 408.6744,160.131 Q409.3053,160.131 409.8988,159.8612 Q410.4923,159.5915 411.1231,159.0104 Z " fill="#000000"/><text fill="#000000" font-family="sans-serif" font-size="14" lengthAdjust="spacing" textLength="152" x="425.35" y="160.881">SaksfaserHentResultat</text><line style="stroke:#181818;stroke-width:0.5;" x1="382.5" x2="591.5" y1="171.59" y2="171.59"/><ellipse cx="392.5" cy="185.3341" fill="#000000" rx="3" ry="3" style="stroke:#000000;stroke-width:1.0;"/><text fill="#000000" font-family="sans-serif" font-size="14" lengthAdjust="spacing" textLength="185" x="401.5" y="189.1252">saksnummer: Saksnummer</text><ellipse cx="392.5" cy="201.8224" fill="#000000" rx="3" ry="3" style="stroke:#000000;stroke-width:1.0;"/><text fill="#000000" font-family="sans-serif" font-size="14" lengthAdjust="spacing" textLength="109" x="401.5" y="205.6134">sakstittel: string</text><ellipse cx="392.5" cy="218.3107" fill="#000000" rx="3" ry="3" style="stroke:#000000;stroke-width:1.0;"/><text fill="#000000" font-family="sans-serif" font-size="14" lengthAdjust="spacing" textLength="140" x="401.5" y="222.1017">saksansvarlig: string</text><ellipse cx="392.5" cy="234.799" fill="#000000" rx="3" ry="3" style="stroke:#000000;stroke-width:1.0;"/><text fill="#000000" font-family="sans-serif" font-size="14" lengthAdjust="spacing" textLength="83" x="401.5" y="238.59">faser: Fase[]</text><line style="stroke:#181818;stroke-width:0.5;" x1="382.5" x2="591.5" y1="245.5431" y2="245.5431"/></g><path d="M6,171.26 L6,211.8811 A0,0 0 0 0 6,211.8811 L346,211.8811 A0,0 0 0 0 346,211.8811 L346,195.5705 L385.5,233.299 L346,187.5705 L346,181.26 L336,171.26 L6,171.26 A0,0 0 0 0 6,171.26 " fill="#FEFFDD" style="stroke:#181818;stroke-width:0.5;"/><path d="M336,171.26 L336,181.26 L346,181.26 L336,171.26 " fill="#FEFFDD" style="stroke:#181818;stroke-width:0.5;"/><text fill="#000000" font-family="sans-serif" font-size="13" lengthAdjust="spacing" textLength="319" x="12" y="188.8284">Rekkef&#248;lgen av Fase objekter i faser er signifikant.</text><text fill="#000000" font-family="sans-serif" font-size="13" lengthAdjust="spacing" textLength="217" x="12" y="204.1389">Det er den rekkef&#248;lgen fasene har.</text><!--link Dokument to Dokumenttype--><g id="link_Dokument_Dokumenttype"><path codeLine="16" d="M2332.73,287.02 C2310.96,333.1 2285.38,387.23 2267.86,424.3 " fill="none" id="Dokument-Dokumenttype" style="stroke:#181818;stroke-width:1.0;"/></g><!--link Dokument to ReferanseDokumentfil--><g id="link_Dokument_ReferanseDokumentfil"><path codeLine="17" d="M2377.92,286.8 C2381.66,400.99 2387.98,593.96 2390.7,676.84 " fill="none" id="Dokument-ReferanseDokumentfil" style="stroke:#181818;stroke-width:1.0;"/></g><!--link Fase to ReferanseJournalpost--><g id="link_Fase_ReferanseJournalpost"><path codeLine="15" d="M1131.96,278.78 C1139.35,281.55 1146.71,284.15 1154,286.52 C1294.93,332.38 1364.67,255.99 1482,346.52 C1580.4,422.46 1622.5819,556.138 1641.0219,640.308 " fill="none" id="Fase-to-ReferanseJournalpost" style="stroke:#181818;stroke-width:1.0;"/><polygon fill="#181818" points="1643.59,652.03,1646.2133,645.313,1641.0219,640.308,1638.3986,647.025,1643.59,652.03" style="stroke:#181818;stroke-width:1.0;"/></g><!--link Fase to Vedtak--><g id="link_Fase_Vedtak"><path codeLine="24" d="M884.39,278.54 C862.17,300.33 838.44,324.08 817,346.52 C792.88,371.78 766.77,400.91 746.16,424.37 " fill="none" id="Fase-Vedtak" style="stroke:#181818;stroke-width:1.0;"/></g><!--link Fase to FaseStatusEnum--><g id="link_Fase_FaseStatusEnum"><path codeLine="25" d="M1015.89,278.48 C1042.73,324.78 1075.48,381.29 1098.26,420.58 " fill="none" id="Fase-FaseStatusEnum" style="stroke:#181818;stroke-width:1.0;"/></g><!--link Fase to Fasekategori--><g id="link_Fase_Fasekategori"><path codeLine="26" d="M956.46,278.48 C949.03,326.34 939.92,385.11 933.82,424.49 " fill="none" id="Fase-Fasekategori" style="stroke:#181818;stroke-width:1.0;"/></g><!--link Milepel to Milepeltype--><g id="link_Milepel_Milepeltype"><path codeLine="25" d="M1786.18,523.14 C1689.66,556.3 1565.91,602.22 1460,652.38 C1444.81,659.58 1428.95,668.16 1414.14,676.67 " fill="none" id="Milepel-Milepeltype" style="stroke:#181818;stroke-width:1.0;"/></g><!--link Milepel to ReferanseJournalpost--><g id="link_Milepel_ReferanseJournalpost"><path codeLine="37" d="M1802.86,592.81 C1778.36,613.32 1753.83,633.86 1731.99,652.14 " fill="none" id="Milepel-ReferanseJournalpost" style="stroke:#181818;stroke-width:1.0;"/></g><!--link Milepel to ReferanseDokumentfil--><g id="link_Milepel_ReferanseDokumentfil"><path codeLine="38" d="M2111.99,578.67 C2120.37,583.44 2128.74,588.04 2137,592.38 C2198.74,624.83 2219.52,621.4 2282,652.38 C2296.86,659.75 2312.45,668.32 2327.07,676.74 " fill="none" id="Milepel-ReferanseDokumentfil" style="stroke:#181818;stroke-width:1.0;"/></g><!--link Milepel to MilepelStatusEnum--><g id="link_Milepel_MilepelStatusEnum"><path codeLine="43" d="M1949,592.81 C1949,623.21 1949,653.68 1949,676.78 " fill="none" id="Milepel-MilepelStatusEnum" style="stroke:#181818;stroke-width:1.0;"/></g><!--link ReferanseJournalpost to EksternNoekkel--><g id="link_ReferanseJournalpost_EksternNoekkel"><path codeLine="44" d="M1568.33,783.12 C1537.86,805.8 1504.53,830.61 1477.58,850.67 " fill="none" id="ReferanseJournalpost-EksternNoekkel" style="stroke:#181818;stroke-width:1.0;"/></g><!--link ReferanseJournalpost to SaksJournalpostnummer--><g id="link_ReferanseJournalpost_SaksJournalpostnummer"><path codeLine="45" d="M1757.81,783.12 C1789.09,802.75 1822.91,823.98 1852.17,842.34 " fill="none" id="ReferanseJournalpost-SaksJournalpostnummer" style="stroke:#181818;stroke-width:1.0;"/></g><!--link ReferanseJournalpost to Journalnummer--><g id="link_ReferanseJournalpost_Journalnummer"><path codeLine="46" d="M1655,783.12 C1655,805.8 1655,830.61 1655,850.67 " fill="none" id="ReferanseJournalpost-Journalnummer" style="stroke:#181818;stroke-width:1.0;"/></g><!--link SaksfaserHentResultat to Fase--><g id="link_SaksfaserHentResultat_Fase"><path codeLine="18" d="M544.51,139.29 C572.98,114.95 609.37,89.29 647.5,76.62 C697.69,59.94 715.49,62.64 766.5,76.62 C796.55,84.85 816.2178,92.9073 843.6978,108.4673 " fill="none" id="SaksfaserHentResultat-to-Fase" style="stroke:#181818;stroke-width:1.0;"/><polygon fill="#181818" points="854.14,114.38,850.8898,107.9429,843.6978,108.4673,846.948,114.9044,854.14,114.38" style="stroke:#181818;stroke-width:1.0;"/></g><!--link SaksfaserHentResultat to Saksnummer--><g id="link_SaksfaserHentResultat_Saksnummer"><path codeLine="19" d="M483.04,254.03 C479.37,306.28 474.02,382.64 470.79,428.74 " fill="none" id="SaksfaserHentResultat-Saksnummer" style="stroke:#181818;stroke-width:1.0;"/></g><!--link Fase to Milepel--><g id="link_Fase_Milepel"><path codeLine="27" d="M1130.26,278.69 C1138.21,281.55 1146.14,284.19 1154,286.52 C1351.2,345.17 1413.11,297.81 1613,346.52 C1670.58,360.56 1731.96,381.09 1786.29,401.32 " fill="none" id="Fase-Milepel" style="stroke:#181818;stroke-width:1.0;"/></g><!--link Fase to Dokument--><g id="link_Fase_Dokument"><path codeLine="28" d="M1083.86,114.38 C1111.34,98.82 1141.45,84.85 1171.5,76.62 C1278.77,47.23 2065.23,47.23 2172.5,76.62 C2197.13,83.37 2211.1704,88.4012 2234.4004,100.5712 " fill="none" id="Fase-to-Dokument" style="stroke:#181818;stroke-width:1.0;"/><polygon fill="#181818" points="2245.03,106.14,2241.5714,99.8124,2234.4004,100.5712,2237.8589,106.8988,2245.03,106.14" style="stroke:#181818;stroke-width:1.0;"/></g><!--SRC=[fLAxJWCn4Epz5PiE8iKHxTLHH4CJIaJXnEkBiMylykCQnEV0Dz3dnrWxXow8KA1O9v-zkpCxi_BCqivdZI2NKYwfbovAOtcBoaMZ8WOvt4c3tcEKkdUvGqhBdLSnQglQe3fvo6Bs7vPoluwXinuFwAyZAJ7ANOVX5u-e0NZyHjspvmt6x9DAy2g0rto2DxNmT9vooQQ4le6OWgLsYYkAWmhUjZzJjKy3Q_uzFOit8QXF21vDWjvSLj8qDLJn6tGEpV7JjqYWXie3_VO5NS805ceby1TjIvPdeYZ9YbnXAd7Dk71EKX24i5T12YGDHOyGbqUocDU6VsKNvmCQdGNRxgkr0ZmviReAMjSZR4Ds647vekB6iZA8YXa8EjGmJVyMJ1_W-0vxxed0UII7FbK3eqF6S876KA33yICWPB8EpepLWR7IXzFJ6kzpM8rFNdm1]--></g></svg>