<svg xmlns="http://www.w3.org/2000/svg" xmlns:xlink="http://www.w3.org/1999/xlink" contentStyleType="text/css" height="747px" preserveAspectRatio="none" style="width:942px;height:747px;background:#FFFFFF;" version="1.1" viewBox="0 0 942 747" width="942px" zoomAndPan="magnify"><defs/><g><!--class SaksfaserHentResultat--><g id="elem_SaksfaserHentResultat"><rect codeLine="1" fill="#F1F1F1" height="113.9531" id="SaksfaserHentResultat" rx="2.5" ry="2.5" style="stroke:#181818;stroke-width:0.5;" width="211" x="99" y="138.42"/><ellipse cx="126.15" cy="154.42" fill="#ADD1B2" rx="11" ry="11" style="stroke:#181818;stroke-width:1.0;"/><path d="M128.6231,160.5631 Q128.0421,160.8619 127.4029,161.0113 Q126.7638,161.1607 126.0582,161.1607 Q123.5514,161.1607 122.2315,159.5089 Q120.9117,157.857 120.9117,154.7359 Q120.9117,151.6065 122.2315,149.9547 Q123.5514,148.3028 126.0582,148.3028 Q126.7638,148.3028 127.4112,148.4522 Q128.0587,148.6016 128.6231,148.9005 L128.6231,151.6231 Q127.9923,151.0421 127.3988,150.7723 Q126.8053,150.5025 126.1744,150.5025 Q124.8297,150.5025 124.1449,151.5692 Q123.4601,152.6358 123.4601,154.7359 Q123.4601,156.8277 124.1449,157.8944 Q124.8297,158.961 126.1744,158.961 Q126.8053,158.961 127.3988,158.6912 Q127.9923,158.4215 128.6231,157.8404 Z " fill="#000000"/><text fill="#000000" font-family="sans-serif" font-size="14" lengthAdjust="spacing" textLength="152" x="142.85" y="159.711">SaksfaserHentResultat</text><line style="stroke:#181818;stroke-width:0.5;" x1="100" x2="309" y1="170.42" y2="170.42"/><ellipse cx="110" cy="184.1641" fill="none" rx="3" ry="3" style="stroke:#038048;stroke-width:1.0;"/><text fill="#000000" font-family="sans-serif" font-size="14" lengthAdjust="spacing" textLength="185" x="119" y="187.9552">saksnummer: Saksnummer</text><ellipse cx="110" cy="200.6524" fill="none" rx="3" ry="3" style="stroke:#038048;stroke-width:1.0;"/><text fill="#000000" font-family="sans-serif" font-size="14" lengthAdjust="spacing" textLength="109" x="119" y="204.4434">sakstittel: string</text><ellipse cx="110" cy="217.1407" fill="none" rx="3" ry="3" style="stroke:#038048;stroke-width:1.0;"/><text fill="#000000" font-family="sans-serif" font-size="14" lengthAdjust="spacing" textLength="140" x="119" y="220.9317">saksansvarlig: string</text><ellipse cx="110" cy="233.629" fill="none" rx="3" ry="3" style="stroke:#038048;stroke-width:1.0;"/><text fill="#000000" font-family="sans-serif" font-size="14" lengthAdjust="spacing" textLength="83" x="119" y="237.42">faser: Fase[]</text><line style="stroke:#181818;stroke-width:0.5;" x1="100" x2="309" y1="244.3731" y2="244.3731"/></g><!--class Fase--><g id="elem_Fase"><rect codeLine="13" fill="#F1F1F1" height="146.9297" id="Fase" rx="2.5" ry="2.5" style="stroke:#181818;stroke-width:0.5;" width="187" x="387" y="121.94"/><ellipse cx="460.75" cy="137.94" fill="#ADD1B2" rx="11" ry="11" style="stroke:#181818;stroke-width:1.0;"/><path d="M463.2231,144.0831 Q462.6421,144.3819 462.0029,144.5313 Q461.3638,144.6807 460.6582,144.6807 Q458.1514,144.6807 456.8315,143.0289 Q455.5117,141.377 455.5117,138.2559 Q455.5117,135.1265 456.8315,133.4747 Q458.1514,131.8228 460.6582,131.8228 Q461.3638,131.8228 462.0112,131.9722 Q462.6587,132.1216 463.2231,132.4205 L463.2231,135.1431 Q462.5923,134.5621 461.9988,134.2923 Q461.4053,134.0225 460.7744,134.0225 Q459.4297,134.0225 458.7449,135.0892 Q458.0601,136.1558 458.0601,138.2559 Q458.0601,140.3477 458.7449,141.4144 Q459.4297,142.481 460.7744,142.481 Q461.4053,142.481 461.9988,142.2112 Q462.5923,141.9415 463.2231,141.3604 Z " fill="#000000"/><text fill="#000000" font-family="sans-serif" font-size="14" lengthAdjust="spacing" textLength="31" x="481.25" y="143.231">Fase</text><line style="stroke:#181818;stroke-width:0.5;" x1="388" x2="573" y1="153.94" y2="153.94"/><ellipse cx="398" cy="167.6841" fill="none" rx="3" ry="3" style="stroke:#038048;stroke-width:1.0;"/><text fill="#000000" font-family="sans-serif" font-size="14" lengthAdjust="spacing" textLength="109" x="407" y="171.4752">fasenavn: string</text><ellipse cx="398" cy="184.1724" fill="none" rx="3" ry="3" style="stroke:#038048;stroke-width:1.0;"/><text fill="#000000" font-family="sans-serif" font-size="14" lengthAdjust="spacing" textLength="89" x="407" y="187.9634">faseid: string</text><ellipse cx="398" cy="200.6607" fill="none" rx="3" ry="3" style="stroke:#038048;stroke-width:1.0;"/><text fill="#000000" font-family="sans-serif" font-size="14" lengthAdjust="spacing" textLength="131" x="407" y="204.4517">milepeler: Milepel[]</text><ellipse cx="398" cy="217.149" fill="none" rx="3" ry="3" style="stroke:#038048;stroke-width:1.0;"/><text fill="#000000" font-family="sans-serif" font-size="14" lengthAdjust="spacing" textLength="107" x="407" y="220.94">global: boolean</text><ellipse cx="398" cy="233.6373" fill="none" rx="3" ry="3" style="stroke:#038048;stroke-width:1.0;"/><text fill="#000000" font-family="sans-serif" font-size="14" lengthAdjust="spacing" textLength="161" x="407" y="237.4283">status: FaseStatusEnum</text><ellipse cx="398" cy="250.1255" fill="none" rx="3" ry="3" style="stroke:#038048;stroke-width:1.0;"/><text fill="#000000" font-family="sans-serif" font-size="14" lengthAdjust="spacing" textLength="100" x="407" y="253.9166">vedtak: Vedtak</text><line style="stroke:#181818;stroke-width:0.5;" x1="388" x2="573" y1="260.8697" y2="260.8697"/></g><!--class Saksnummer--><g id="elem_Saksnummer"><rect codeLine="68" fill="#F1F1F1" height="80.9766" id="Saksnummer" rx="2.5" ry="2.5" style="stroke:#181818;stroke-width:0.5;" width="225" x="7" y="419.55"/><ellipse cx="70.75" cy="435.55" fill="#ADD1B2" rx="11" ry="11" style="stroke:#181818;stroke-width:1.0;"/><path d="M73.2231,441.6931 Q72.6421,441.9919 72.0029,442.1413 Q71.3638,442.2907 70.6582,442.2907 Q68.1514,442.2907 66.8315,440.6389 Q65.5117,438.987 65.5117,435.8659 Q65.5117,432.7365 66.8315,431.0847 Q68.1514,429.4328 70.6582,429.4328 Q71.3638,429.4328 72.0112,429.5822 Q72.6587,429.7316 73.2231,430.0305 L73.2231,432.7531 Q72.5923,432.1721 71.9988,431.9023 Q71.4053,431.6325 70.7744,431.6325 Q69.4297,431.6325 68.7449,432.6992 Q68.0601,433.7658 68.0601,435.8659 Q68.0601,437.9577 68.7449,439.0244 Q69.4297,440.091 70.7744,440.091 Q71.4053,440.091 71.9988,439.8212 Q72.5923,439.5515 73.2231,438.9704 Z " fill="#000000"/><text fill="#000000" font-family="sans-serif" font-size="14" lengthAdjust="spacing" textLength="89" x="91.25" y="440.841">Saksnummer</text><line style="stroke:#181818;stroke-width:0.5;" x1="8" x2="231" y1="451.55" y2="451.55"/><ellipse cx="18" cy="465.2941" fill="none" rx="3" ry="3" style="stroke:#038048;stroke-width:1.0;"/><text fill="#000000" font-family="sans-serif" font-size="14" lengthAdjust="spacing" textLength="109" x="27" y="469.0852">saksaar: integer</text><ellipse cx="18" cy="481.7824" fill="none" rx="3" ry="3" style="stroke:#038048;stroke-width:1.0;"/><text fill="#000000" font-family="sans-serif" font-size="14" lengthAdjust="spacing" textLength="199" x="27" y="485.5734">sakssekvensnummer: integer</text><line style="stroke:#181818;stroke-width:0.5;" x1="8" x2="231" y1="492.5266" y2="492.5266"/></g><g id="elem_GMN7"><path d="M285.5,6 L285.5,61.9316 A0,0 0 0 0 285.5,61.9316 L476.5,61.9316 L480.5,121.44 L484.5,61.9316 L675.5,61.9316 A0,0 0 0 0 675.5,61.9316 L675.5,16 L665.5,6 L285.5,6 A0,0 0 0 0 285.5,6 " fill="#FEFFDD" style="stroke:#181818;stroke-width:0.5;"/><path d="M665.5,6 L665.5,16 L675.5,16 L665.5,6 " fill="#FEFFDD" style="stroke:#181818;stroke-width:0.5;"/><text fill="#000000" font-family="sans-serif" font-size="13" lengthAdjust="spacing" textLength="369" x="291.5" y="23.5684">En fase er i hovedsak det som hender mellom to milepeler.</text><text fill="#000000" font-family="sans-serif" font-size="13" lengthAdjust="spacing" textLength="208" x="291.5" y="38.8789">Skal vi ha med vedtak som kode?</text><text fill="#000000" font-family="sans-serif" font-size="13" lengthAdjust="spacing" textLength="368" x="291.5" y="54.1895">Vedtak som: godkjent, delvis godkjent, avsl&#229;tt, avvist osv.</text></g><!--class Vedtak--><g id="elem_Vedtak"><rect codeLine="24" fill="#F1F1F1" height="89.5977" id="Vedtak" rx="2.5" ry="2.5" style="stroke:#181818;stroke-width:0.5;" width="150" x="266.5" y="415.24"/><ellipse cx="313.75" cy="435.5505" fill="#ADD1B2" rx="11" ry="11" style="stroke:#181818;stroke-width:1.0;"/><path d="M316.2231,441.6936 Q315.6421,441.9924 315.0029,442.1419 Q314.3638,442.2913 313.6582,442.2913 Q311.1514,442.2913 309.8315,440.6394 Q308.5117,438.9876 308.5117,435.8665 Q308.5117,432.7371 309.8315,431.0852 Q311.1514,429.4334 313.6582,429.4334 Q314.3638,429.4334 315.0112,429.5828 Q315.6587,429.7322 316.2231,430.031 L316.2231,432.7537 Q315.5923,432.1726 314.9988,431.9028 Q314.4053,431.6331 313.7744,431.6331 Q312.4297,431.6331 311.7449,432.6997 Q311.0601,433.7664 311.0601,435.8665 Q311.0601,437.9583 311.7449,439.0249 Q312.4297,440.0916 313.7744,440.0916 Q314.4053,440.0916 314.9988,439.8218 Q315.5923,439.552 316.2231,438.971 Z " fill="#000000"/><text fill="#000000" font-family="sans-serif" font-size="12" font-style="italic" lengthAdjust="spacing" textLength="42" x="336.75" y="431.8416">&#171;Kode&#187;</text><text fill="#000000" font-family="sans-serif" font-size="14" lengthAdjust="spacing" textLength="47" x="334.25" y="447.908">Vedtak</text><line style="stroke:#181818;stroke-width:0.5;" x1="267.5" x2="415.5" y1="455.8611" y2="455.8611"/><ellipse cx="277.5" cy="469.6052" fill="none" rx="3" ry="3" style="stroke:#038048;stroke-width:1.0;"/><text fill="#000000" font-family="sans-serif" font-size="14" lengthAdjust="spacing" textLength="124" x="286.5" y="473.3962">beskrivelse: string</text><ellipse cx="277.5" cy="486.0935" fill="none" rx="3" ry="3" style="stroke:#038048;stroke-width:1.0;"/><text fill="#000000" font-family="sans-serif" font-size="14" lengthAdjust="spacing" textLength="82" x="286.5" y="489.8845">verdi: string</text><line style="stroke:#181818;stroke-width:0.5;" x1="267.5" x2="415.5" y1="496.8377" y2="496.8377"/></g><!--class FaseStatusEnum--><g id="elem_FaseStatusEnum"><rect codeLine="31" fill="#F1F1F1" height="97.4648" id="FaseStatusEnum" rx="2.5" ry="2.5" style="stroke:#181818;stroke-width:0.5;" width="144" x="451.5" y="411.31"/><ellipse cx="466.5" cy="427.31" fill="#EB937F" rx="11" ry="11" style="stroke:#181818;stroke-width:1.0;"/><path d="M470.1143,433.81 L462.3945,433.81 L462.3945,421.4169 L470.1143,421.4169 L470.1143,423.5751 L464.8433,423.5751 L464.8433,426.248 L469.6162,426.248 L469.6162,428.4062 L464.8433,428.4062 L464.8433,431.6518 L470.1143,431.6518 Z " fill="#000000"/><text fill="#000000" font-family="sans-serif" font-size="14" lengthAdjust="spacing" textLength="112" x="480.5" y="432.601">FaseStatusEnum</text><line style="stroke:#181818;stroke-width:0.5;" x1="452.5" x2="594.5" y1="443.31" y2="443.31"/><ellipse cx="462.5" cy="457.0541" fill="none" rx="3" ry="3" style="stroke:#038048;stroke-width:1.0;"/><text fill="#000000" font-family="sans-serif" font-size="14" lengthAdjust="spacing" textLength="55" x="471.5" y="460.8452">Planlagt</text><ellipse cx="462.5" cy="473.5424" fill="none" rx="3" ry="3" style="stroke:#038048;stroke-width:1.0;"/><text fill="#000000" font-family="sans-serif" font-size="14" lengthAdjust="spacing" textLength="88" x="471.5" y="477.3334">UnderArbeid</text><ellipse cx="462.5" cy="490.0307" fill="none" rx="3" ry="3" style="stroke:#038048;stroke-width:1.0;"/><text fill="#000000" font-family="sans-serif" font-size="14" lengthAdjust="spacing" textLength="48" x="471.5" y="493.8217">Utfoert</text><line style="stroke:#181818;stroke-width:0.5;" x1="452.5" x2="594.5" y1="500.7748" y2="500.7748"/></g><!--class Milepel--><g id="elem_Milepel"><rect codeLine="39" fill="#F1F1F1" height="262.3477" id="Milepel" rx="2.5" ry="2.5" style="stroke:#181818;stroke-width:0.5;" width="218" x="630.5" y="328.86"/><ellipse cx="710.75" cy="344.86" fill="#ADD1B2" rx="11" ry="11" style="stroke:#181818;stroke-width:1.0;"/><path d="M713.2231,351.0031 Q712.6421,351.3019 712.0029,351.4513 Q711.3638,351.6007 710.6582,351.6007 Q708.1514,351.6007 706.8315,349.9489 Q705.5117,348.297 705.5117,345.1759 Q705.5117,342.0465 706.8315,340.3947 Q708.1514,338.7428 710.6582,338.7428 Q711.3638,338.7428 712.0112,338.8922 Q712.6587,339.0416 713.2231,339.3405 L713.2231,342.0631 Q712.5923,341.4821 711.9988,341.2123 Q711.4053,340.9425 710.7744,340.9425 Q709.4297,340.9425 708.7449,342.0092 Q708.0601,343.0758 708.0601,345.1759 Q708.0601,347.2677 708.7449,348.3344 Q709.4297,349.401 710.7744,349.401 Q711.4053,349.401 711.9988,349.1312 Q712.5923,348.8615 713.2231,348.2804 Z " fill="#000000"/><text fill="#000000" font-family="sans-serif" font-size="14" lengthAdjust="spacing" textLength="49" x="731.25" y="350.151">Milepel</text><line style="stroke:#181818;stroke-width:0.5;" x1="631.5" x2="847.5" y1="360.86" y2="360.86"/><ellipse cx="641.5" cy="374.6041" fill="none" rx="3" ry="3" style="stroke:#038048;stroke-width:1.0;"/><text fill="#000000" font-family="sans-serif" font-size="14" lengthAdjust="spacing" textLength="108" x="650.5" y="378.3952">systemId: string</text><ellipse cx="641.5" cy="391.0924" fill="none" rx="3" ry="3" style="stroke:#038048;stroke-width:1.0;"/><text fill="#000000" font-family="sans-serif" font-size="14" lengthAdjust="spacing" textLength="124" x="650.5" y="394.8834">beskrivelse: string</text><ellipse cx="641.5" cy="407.5807" fill="none" rx="3" ry="3" style="stroke:#038048;stroke-width:1.0;"/><text fill="#000000" font-family="sans-serif" font-size="14" lengthAdjust="spacing" textLength="100" x="650.5" y="411.3717">kategori: Kode</text><ellipse cx="641.5" cy="424.069" fill="none" rx="3" ry="3" style="stroke:#038048;stroke-width:1.0;"/><text fill="#000000" font-family="sans-serif" font-size="14" lengthAdjust="spacing" textLength="65" x="650.5" y="427.86">frist: date</text><ellipse cx="641.5" cy="440.5573" fill="none" rx="3" ry="3" style="stroke:#038048;stroke-width:1.0;"/><text fill="#000000" font-family="sans-serif" font-size="14" lengthAdjust="spacing" textLength="85" x="650.5" y="444.3483">utfoert: date</text><ellipse cx="641.5" cy="457.0455" fill="none" rx="3" ry="3" style="stroke:#038048;stroke-width:1.0;"/><text fill="#000000" font-family="sans-serif" font-size="14" lengthAdjust="spacing" textLength="118" x="650.5" y="460.8366">journaldato: date</text><ellipse cx="641.5" cy="473.5338" fill="none" rx="3" ry="3" style="stroke:#038048;stroke-width:1.0;"/><text fill="#000000" font-family="sans-serif" font-size="14" lengthAdjust="spacing" textLength="105" x="650.5" y="477.3248">intern: boolean</text><ellipse cx="641.5" cy="490.0221" fill="none" rx="3" ry="3" style="stroke:#038048;stroke-width:1.0;"/><text fill="#000000" font-family="sans-serif" font-size="14" lengthAdjust="spacing" textLength="192" x="650.5" y="493.8131">referanseJournalpost: string</text><ellipse cx="641.5" cy="506.5104" fill="none" rx="3" ry="3" style="stroke:#038048;stroke-width:1.0;"/><text fill="#000000" font-family="sans-serif" font-size="14" lengthAdjust="spacing" textLength="184" x="650.5" y="510.3014">referanseDokument: string</text><ellipse cx="641.5" cy="522.9987" fill="none" rx="3" ry="3" style="stroke:#038048;stroke-width:1.0;"/><text fill="#000000" font-family="sans-serif" font-size="14" lengthAdjust="spacing" textLength="110" x="650.5" y="526.7897">erStart: boolean</text><ellipse cx="641.5" cy="539.487" fill="none" rx="3" ry="3" style="stroke:#038048;stroke-width:1.0;"/><text fill="#000000" font-family="sans-serif" font-size="14" lengthAdjust="spacing" textLength="109" x="650.5" y="543.278">erSlutt: boolean</text><ellipse cx="641.5" cy="555.9752" fill="none" rx="3" ry="3" style="stroke:#038048;stroke-width:1.0;"/><text fill="#000000" font-family="sans-serif" font-size="14" lengthAdjust="spacing" textLength="179" x="650.5" y="559.7662">status: MilepelStatusEnum</text><ellipse cx="641.5" cy="572.4635" fill="none" rx="3" ry="3" style="stroke:#038048;stroke-width:1.0;"/><text fill="#000000" font-family="sans-serif" font-size="14" lengthAdjust="spacing" textLength="122" x="650.5" y="576.2545">erGlobal: boolean</text><line style="stroke:#181818;stroke-width:0.5;" x1="631.5" x2="847.5" y1="583.2077" y2="583.2077"/></g><!--class MilepelStatusEnum--><g id="elem_MilepelStatusEnum"><rect codeLine="63" fill="#F1F1F1" height="80.9766" id="MilepelStatusEnum" rx="2.5" ry="2.5" style="stroke:#181818;stroke-width:0.5;" width="162" x="554.5" y="655.52"/><ellipse cx="569.5" cy="671.52" fill="#EB937F" rx="11" ry="11" style="stroke:#181818;stroke-width:1.0;"/><path d="M573.1143,678.02 L565.3945,678.02 L565.3945,665.6269 L573.1143,665.6269 L573.1143,667.7851 L567.8433,667.7851 L567.8433,670.458 L572.6162,670.458 L572.6162,672.6162 L567.8433,672.6162 L567.8433,675.8618 L573.1143,675.8618 Z " fill="#000000"/><text fill="#000000" font-family="sans-serif" font-size="14" lengthAdjust="spacing" textLength="130" x="583.5" y="676.811">MilepelStatusEnum</text><line style="stroke:#181818;stroke-width:0.5;" x1="555.5" x2="715.5" y1="687.52" y2="687.52"/><ellipse cx="565.5" cy="701.2641" fill="none" rx="3" ry="3" style="stroke:#038048;stroke-width:1.0;"/><text fill="#000000" font-family="sans-serif" font-size="14" lengthAdjust="spacing" textLength="36" x="574.5" y="705.0552">N&#229;dd</text><ellipse cx="565.5" cy="717.7524" fill="none" rx="3" ry="3" style="stroke:#038048;stroke-width:1.0;"/><text fill="#000000" font-family="sans-serif" font-size="14" lengthAdjust="spacing" textLength="55" x="574.5" y="721.5434">Planlagt</text><line style="stroke:#181818;stroke-width:0.5;" x1="555.5" x2="715.5" y1="728.4966" y2="728.4966"/></g><!--class MilepelKategori--><g id="elem_MilepelKategori"><rect codeLine="58" fill="#F1F1F1" height="89.5977" id="MilepelKategori" rx="2.5" ry="2.5" style="stroke:#181818;stroke-width:0.5;" width="184" x="751.5" y="651.21"/><ellipse cx="786.75" cy="671.5205" fill="#ADD1B2" rx="11" ry="11" style="stroke:#181818;stroke-width:1.0;"/><path d="M789.2231,677.6636 Q788.6421,677.9624 788.0029,678.1119 Q787.3638,678.2613 786.6582,678.2613 Q784.1514,678.2613 782.8315,676.6094 Q781.5117,674.9576 781.5117,671.8365 Q781.5117,668.7071 782.8315,667.0552 Q784.1514,665.4034 786.6582,665.4034 Q787.3638,665.4034 788.0112,665.5528 Q788.6587,665.7022 789.2231,666.001 L789.2231,668.7237 Q788.5923,668.1426 787.9988,667.8728 Q787.4053,667.6031 786.7744,667.6031 Q785.4297,667.6031 784.7449,668.6697 Q784.0601,669.7364 784.0601,671.8365 Q784.0601,673.9283 784.7449,674.9949 Q785.4297,676.0616 786.7744,676.0616 Q787.4053,676.0616 787.9988,675.7918 Q788.5923,675.522 789.2231,674.941 Z " fill="#000000"/><text fill="#000000" font-family="sans-serif" font-size="12" font-style="italic" lengthAdjust="spacing" textLength="42" x="837.75" y="667.8116">&#171;Kode&#187;</text><text fill="#000000" font-family="sans-serif" font-size="14" lengthAdjust="spacing" textLength="107" x="805.25" y="683.878">MilepelKategori</text><line style="stroke:#181818;stroke-width:0.5;" x1="752.5" x2="934.5" y1="691.8311" y2="691.8311"/><ellipse cx="762.5" cy="705.5752" fill="none" rx="3" ry="3" style="stroke:#038048;stroke-width:1.0;"/><text fill="#000000" font-family="sans-serif" font-size="14" lengthAdjust="spacing" textLength="116" x="771.5" y="709.3662">kodeverdi: string</text><ellipse cx="762.5" cy="722.0635" fill="none" rx="3" ry="3" style="stroke:#038048;stroke-width:1.0;"/><text fill="#000000" font-family="sans-serif" font-size="14" lengthAdjust="spacing" textLength="158" x="771.5" y="725.8545">kodebeskrivelse: string</text><line style="stroke:#181818;stroke-width:0.5;" x1="752.5" x2="934.5" y1="732.8077" y2="732.8077"/></g><!--link SaksfaserHentResultat to Fase--><g id="link_SaksfaserHentResultat_Fase"><path codeLine="8" d="M310.43,195.4 C335.89,195.4 349.36,195.4 374.83,195.4 " fill="none" id="SaksfaserHentResultat-to-Fase" style="stroke:#181818;stroke-width:1.0;"/><polygon fill="#181818" points="386.83,195.4,380.83,191.4,374.83,195.4,380.83,199.4,386.83,195.4" style="stroke:#181818;stroke-width:1.0;"/></g><!--link SaksfaserHentResultat to Saksnummer--><g id="link_SaksfaserHentResultat_Saksnummer"><path codeLine="9" d="M186.27,252.74 C170.02,302.93 146.66,375.1 132.32,419.43 " fill="none" id="SaksfaserHentResultat-Saksnummer" style="stroke:#181818;stroke-width:1.0;"/></g><!--link Fase to Vedtak--><g id="link_Fase_Vedtak"><path codeLine="22" d="M441.97,269.21 C417.22,315.97 385.89,375.16 364.85,414.91 " fill="none" id="Fase-Vedtak" style="stroke:#181818;stroke-width:1.0;"/></g><!--link Fase to FaseStatusEnum--><g id="link_Fase_FaseStatusEnum"><path codeLine="29" d="M492.42,269.21 C499.83,314.45 509.14,371.33 515.63,410.98 " fill="none" id="Fase-FaseStatusEnum" style="stroke:#181818;stroke-width:1.0;"/></g><!--link Fase to Milepel--><g id="link_Fase_Milepel"><path codeLine="37" d="M553.91,269.04 C573.36,288.41 594.28,309.37 613.5,328.86 C618.91,334.35 624.44,339.98 630.01,345.68 " fill="none" id="Fase-Milepel" style="stroke:#181818;stroke-width:1.0;"/></g><!--link Milepel to MilepelStatusEnum--><g id="link_Milepel_MilepelStatusEnum"><path codeLine="55" d="M681.42,591.71 C671.09,614.94 661.08,637.45 653.06,655.49 " fill="none" id="Milepel-MilepelStatusEnum" style="stroke:#181818;stroke-width:1.0;"/></g><!--link Milepel to MilepelKategori--><g id="link_Milepel_MilepelKategori"><path codeLine="56" d="M797.58,591.71 C807.03,612.96 816.2,633.59 823.83,650.77 " fill="none" id="Milepel-MilepelKategori" style="stroke:#181818;stroke-width:1.0;"/></g><!--SRC=[TLH1Rjim4Bph5NjkcZn0258KQ9esGOkYHdjfUg33jSA88WroHQ08_9oy91_hYgGaIevzaAaPxcfsTia7BRo7ZMZzJdXqNz3GJ_Iz9a7mN07_pZoJfkywT7NScDOpHue8TGsUd3BDZ0lZWt1QDKigVgU6p_ptvszrgAgtFtx-BcuvnPwNKYfZ2O7i7kmkHa4DrmQ6C4072XvjGCcQG2A1jnqyef7CTAWrlv65JcdSeqPtSMyshT0GE4hm1WaSIXmwXBLMueTxytj2QcYiR9zOsdlEhOFo1I22rwyl55VC45WVBg2g7gBdKUVpx8aHmHmxfUGIctJMy2qjsSJ8DDfk1RTXQwr6ON8VsApU9xStSNtDdYKkrLL3gcReH9J4rcOa2ytLNbxUSVLNLwFcBVhMgO3Qur9YG2VL11LfLo8gvESA79F_qC9eqL1w-pKqwwFRiXiPe9r5HsNoxCOeEhzEC_pF4tPVLsQUBA4LX8rrNCLGS-w6unRM89bAG9z4bD2JxPqHcW5RmieGEhDgZSCTEZuZU9k2zdP8NwgOTdooRT_nI2rfTEpRyFr5MaPrJtHY3h8jwr50TxEQ7dPsj70sjmWx9k-oPwiEZF3H_0ndQJag4_nMNmvvNewaZFc-lxv8kPgUmoXclYpAMqq8FaP3SvhoFlFO1ZJJbPTvu6J_0G00]--></g></svg>