<svg xmlns="http://www.w3.org/2000/svg" xmlns:xlink="http://www.w3.org/1999/xlink" contentStyleType="text/css" height="963px" preserveAspectRatio="none" style="width:2549px;height:963px;background:#FFFFFF;" version="1.1" viewBox="0 0 2549 963" width="2549px" zoomAndPan="magnify"><defs/><g><!--class ReferanseDokumentfil--><g id="elem_ReferanseDokumentfil"><rect codeLine="40" fill="#F1F1F1" height="80.9766" id="ReferanseDokumentfil" rx="2.5" ry="2.5" style="stroke:#181818;stroke-width:0.5;" width="184" x="2300" y="693.61"/><ellipse cx="2315" cy="709.61" fill="#ADD1B2" rx="11" ry="11" style="stroke:#181818;stroke-width:1.0;"/><path d="M2317.4731,715.7531 Q2316.8921,716.0519 2316.2529,716.2013 Q2315.6138,716.3507 2314.9082,716.3507 Q2312.4014,716.3507 2311.0815,714.6989 Q2309.7617,713.047 2309.7617,709.9259 Q2309.7617,706.7965 2311.0815,705.1447 Q2312.4014,703.4928 2314.9082,703.4928 Q2315.6138,703.4928 2316.2612,703.6422 Q2316.9087,703.7916 2317.4731,704.0905 L2317.4731,706.8131 Q2316.8423,706.2321 2316.2488,705.9623 Q2315.6553,705.6925 2315.0244,705.6925 Q2313.6797,705.6925 2312.9949,706.7592 Q2312.3101,707.8258 2312.3101,709.9259 Q2312.3101,712.0177 2312.9949,713.0844 Q2313.6797,714.151 2315.0244,714.151 Q2315.6553,714.151 2316.2488,713.8812 Q2316.8423,713.6115 2317.4731,713.0304 Z " fill="#000000"/><text fill="#000000" font-family="sans-serif" font-size="14" lengthAdjust="spacing" textLength="152" x="2329" y="714.901">ReferanseDokumentfil</text><line style="stroke:#181818;stroke-width:0.5;" x1="2301" x2="2483" y1="725.61" y2="725.61"/><ellipse cx="2311" cy="739.3541" fill="#000000" rx="3" ry="3" style="stroke:#000000;stroke-width:1.0;"/><text fill="#000000" font-family="sans-serif" font-size="14" lengthAdjust="spacing" textLength="61" x="2320" y="743.1452">id: string</text><ellipse cx="2311" cy="755.8424" fill="#000000" rx="3" ry="3" style="stroke:#000000;stroke-width:1.0;"/><text fill="#000000" font-family="sans-serif" font-size="14" lengthAdjust="spacing" textLength="67" x="2320" y="759.6334">url: string</text><line style="stroke:#181818;stroke-width:0.5;" x1="2301" x2="2483" y1="766.5866" y2="766.5866"/></g><!--class Dokument--><g id="elem_Dokument"><rect codeLine="3" fill="#F1F1F1" height="179.9063" id="Dokument" rx="2.5" ry="2.5" style="stroke:#181818;stroke-width:0.5;" width="335" x="2207.5" y="114.86"/><ellipse cx="2335.25" cy="130.86" fill="#ADD1B2" rx="11" ry="11" style="stroke:#181818;stroke-width:1.0;"/><path d="M2337.7231,137.0031 Q2337.1421,137.3019 2336.5029,137.4513 Q2335.8638,137.6007 2335.1582,137.6007 Q2332.6514,137.6007 2331.3315,135.9489 Q2330.0117,134.297 2330.0117,131.1759 Q2330.0117,128.0465 2331.3315,126.3947 Q2332.6514,124.7428 2335.1582,124.7428 Q2335.8638,124.7428 2336.5112,124.8922 Q2337.1587,125.0416 2337.7231,125.3405 L2337.7231,128.0631 Q2337.0923,127.4821 2336.4988,127.2123 Q2335.9053,126.9425 2335.2744,126.9425 Q2333.9297,126.9425 2333.2449,128.0092 Q2332.5601,129.0758 2332.5601,131.1759 Q2332.5601,133.2677 2333.2449,134.3344 Q2333.9297,135.401 2335.2744,135.401 Q2335.9053,135.401 2336.4988,135.1312 Q2337.0923,134.8615 2337.7231,134.2804 Z " fill="#000000"/><text fill="#000000" font-family="sans-serif" font-size="14" lengthAdjust="spacing" textLength="71" x="2355.75" y="136.151">Dokument</text><line style="stroke:#181818;stroke-width:0.5;" x1="2208.5" x2="2541.5" y1="146.86" y2="146.86"/><ellipse cx="2218.5" cy="160.6041" fill="#000000" rx="3" ry="3" style="stroke:#000000;stroke-width:1.0;"/><text fill="#000000" font-family="sans-serif" font-size="14" lengthAdjust="spacing" textLength="61" x="2227.5" y="164.3952">id: string</text><text fill="#000000" font-family="sans-serif" font-size="14" lengthAdjust="spacing" textLength="79" x="2227.5" y="180.8834">tittel: string</text><text fill="#000000" font-family="sans-serif" font-size="14" lengthAdjust="spacing" textLength="94" x="2227.5" y="197.3717">filnavn: string</text><text fill="#000000" font-family="sans-serif" font-size="14" lengthAdjust="spacing" textLength="207" x="2227.5" y="213.86">dokumenttype: Dokumenttype</text><text fill="#000000" font-family="sans-serif" font-size="14" lengthAdjust="spacing" textLength="309" x="2227.5" y="230.3483">referanseDokumentfil: ReferanseDokumentfil</text><text fill="#000000" font-family="sans-serif" font-size="14" lengthAdjust="spacing" textLength="115" x="2227.5" y="246.8366">mimetype: string</text><text fill="#000000" font-family="sans-serif" font-size="14" lengthAdjust="spacing" textLength="146" x="2227.5" y="263.3248">dokumentsdato: date</text><text fill="#000000" font-family="sans-serif" font-size="14" lengthAdjust="spacing" textLength="114" x="2227.5" y="279.8131">arkivnavn: string</text><line style="stroke:#181818;stroke-width:0.5;" x1="2208.5" x2="2541.5" y1="286.7663" y2="286.7663"/></g><g id="elem_GMN4"><path d="M2269.5,13.65 L2269.5,38.9605 A0,0 0 0 0 2269.5,38.9605 L2371,38.9605 L2375,114.62 L2379,38.9605 L2480.5,38.9605 A0,0 0 0 0 2480.5,38.9605 L2480.5,23.65 L2470.5,13.65 L2269.5,13.65 A0,0 0 0 0 2269.5,13.65 " fill="#FEFFDD" style="stroke:#181818;stroke-width:0.5;"/><path d="M2470.5,13.65 L2470.5,23.65 L2480.5,23.65 L2470.5,13.65 " fill="#FEFFDD" style="stroke:#181818;stroke-width:0.5;"/><text fill="#000000" font-family="sans-serif" font-size="13" lengthAdjust="spacing" textLength="190" x="2275.5" y="31.2184">Hentet definisjon fra Fiks Plan</text></g><!--class Dokumenttype--><g id="elem_Dokumenttype"><rect codeLine="19" fill="#F1F1F1" height="89.5977" id="Dokumenttype" rx="2.5" ry="2.5" style="stroke:#181818;stroke-width:0.5;" width="184" x="2155" y="441.15"/><ellipse cx="2193.4" cy="461.4605" fill="#ADD1B2" rx="11" ry="11" style="stroke:#181818;stroke-width:1.0;"/><path d="M2195.8731,467.6036 Q2195.2921,467.9024 2194.6529,468.0519 Q2194.0138,468.2013 2193.3082,468.2013 Q2190.8014,468.2013 2189.4815,466.5494 Q2188.1617,464.8976 2188.1617,461.7765 Q2188.1617,458.6471 2189.4815,456.9952 Q2190.8014,455.3434 2193.3082,455.3434 Q2194.0138,455.3434 2194.6612,455.4928 Q2195.3087,455.6422 2195.8731,455.941 L2195.8731,458.6637 Q2195.2423,458.0826 2194.6488,457.8128 Q2194.0553,457.5431 2193.4244,457.5431 Q2192.0797,457.5431 2191.3949,458.6097 Q2190.7101,459.6764 2190.7101,461.7765 Q2190.7101,463.8683 2191.3949,464.9349 Q2192.0797,466.0016 2193.4244,466.0016 Q2194.0553,466.0016 2194.6488,465.7318 Q2195.2423,465.462 2195.8731,464.881 Z " fill="#000000"/><text fill="#000000" font-family="sans-serif" font-size="12" font-style="italic" lengthAdjust="spacing" textLength="42" x="2241.6" y="457.7516">&#171;Kode&#187;</text><text fill="#000000" font-family="sans-serif" font-size="14" lengthAdjust="spacing" textLength="100" x="2212.6" y="473.818">Dokumenttype</text><line style="stroke:#181818;stroke-width:0.5;" x1="2156" x2="2338" y1="481.7711" y2="481.7711"/><ellipse cx="2166" cy="495.5152" fill="none" rx="3" ry="3" style="stroke:#038048;stroke-width:1.0;"/><text fill="#000000" font-family="sans-serif" font-size="14" lengthAdjust="spacing" textLength="116" x="2175" y="499.3063">kodeverdi: string</text><ellipse cx="2166" cy="512.0035" fill="none" rx="3" ry="3" style="stroke:#038048;stroke-width:1.0;"/><text fill="#000000" font-family="sans-serif" font-size="14" lengthAdjust="spacing" textLength="158" x="2175" y="515.7945">kodebeskrivelse: string</text><line style="stroke:#181818;stroke-width:0.5;" x1="2156" x2="2338" y1="522.7477" y2="522.7477"/></g><!--class ReferanseJournalpost--><g id="elem_ReferanseJournalpost"><rect codeLine="2" fill="#F1F1F1" height="130.4414" id="ReferanseJournalpost" rx="2.5" ry="2.5" style="stroke:#181818;stroke-width:0.5;" width="355" x="1477.5" y="668.87"/><ellipse cx="1577.25" cy="684.87" fill="#ADD1B2" rx="11" ry="11" style="stroke:#181818;stroke-width:1.0;"/><path d="M1579.7231,691.0131 Q1579.1421,691.3119 1578.5029,691.4613 Q1577.8638,691.6107 1577.1582,691.6107 Q1574.6514,691.6107 1573.3315,689.9589 Q1572.0117,688.307 1572.0117,685.1859 Q1572.0117,682.0565 1573.3315,680.4047 Q1574.6514,678.7528 1577.1582,678.7528 Q1577.8638,678.7528 1578.5112,678.9022 Q1579.1587,679.0516 1579.7231,679.3505 L1579.7231,682.0731 Q1579.0923,681.4921 1578.4988,681.2223 Q1577.9053,680.9525 1577.2744,680.9525 Q1575.9297,680.9525 1575.2449,682.0192 Q1574.5601,683.0858 1574.5601,685.1859 Q1574.5601,687.2777 1575.2449,688.3444 Q1575.9297,689.411 1577.2744,689.411 Q1577.9053,689.411 1578.4988,689.1412 Q1579.0923,688.8715 1579.7231,688.2904 Z " fill="#000000"/><text fill="#000000" font-family="sans-serif" font-size="14" lengthAdjust="spacing" textLength="147" x="1597.75" y="690.161">ReferanseJournalpost</text><line style="stroke:#181818;stroke-width:0.5;" x1="1478.5" x2="1831.5" y1="700.87" y2="700.87"/><text fill="#000000" font-family="sans-serif" font-size="14" lengthAdjust="spacing" textLength="108" x="1483.5" y="718.4052">systemId: string</text><text fill="#000000" font-family="sans-serif" font-size="14" lengthAdjust="spacing" textLength="150" x="1483.5" y="734.8934">registreringsID: string</text><text fill="#000000" font-family="sans-serif" font-size="14" lengthAdjust="spacing" textLength="222" x="1483.5" y="751.3817">journalnummer: Journalnummer</text><text fill="#000000" font-family="sans-serif" font-size="14" lengthAdjust="spacing" textLength="343" x="1483.5" y="767.87">saksJournalpostnummer: SaksJournalpostnummer</text><text fill="#000000" font-family="sans-serif" font-size="14" lengthAdjust="spacing" textLength="285" x="1483.5" y="784.3583">referanseEksternNoekkel: EksternNoekkel</text><line style="stroke:#181818;stroke-width:0.5;" x1="1478.5" x2="1831.5" y1="791.3114" y2="791.3114"/></g><!--class Fase--><g id="elem_Fase"><rect codeLine="3" fill="#F1F1F1" height="196.3945" id="Fase" rx="2.5" ry="2.5" style="stroke:#181818;stroke-width:0.5;" width="335" x="801.5" y="106.62"/><ellipse cx="949.25" cy="122.62" fill="#ADD1B2" rx="11" ry="11" style="stroke:#181818;stroke-width:1.0;"/><path d="M951.7231,128.7631 Q951.1421,129.0619 950.5029,129.2113 Q949.8638,129.3607 949.1582,129.3607 Q946.6514,129.3607 945.3315,127.7089 Q944.0117,126.057 944.0117,122.9359 Q944.0117,119.8065 945.3315,118.1547 Q946.6514,116.5028 949.1582,116.5028 Q949.8638,116.5028 950.5112,116.6522 Q951.1587,116.8016 951.7231,117.1005 L951.7231,119.8231 Q951.0923,119.2421 950.4988,118.9723 Q949.9053,118.7025 949.2744,118.7025 Q947.9297,118.7025 947.2449,119.7692 Q946.5601,120.8358 946.5601,122.9359 Q946.5601,125.0277 947.2449,126.0944 Q947.9297,127.161 949.2744,127.161 Q949.9053,127.161 950.4988,126.8912 Q951.0923,126.6215 951.7231,126.0404 Z " fill="#000000"/><text fill="#000000" font-family="sans-serif" font-size="14" lengthAdjust="spacing" textLength="31" x="969.75" y="127.911">Fase</text><line style="stroke:#181818;stroke-width:0.5;" x1="802.5" x2="1135.5" y1="138.62" y2="138.62"/><ellipse cx="812.5" cy="152.3641" fill="#000000" rx="3" ry="3" style="stroke:#000000;stroke-width:1.0;"/><text fill="#000000" font-family="sans-serif" font-size="14" lengthAdjust="spacing" textLength="89" x="821.5" y="156.1552">faseid: string</text><ellipse cx="812.5" cy="168.8524" fill="#000000" rx="3" ry="3" style="stroke:#000000;stroke-width:1.0;"/><text fill="#000000" font-family="sans-serif" font-size="14" lengthAdjust="spacing" textLength="109" x="821.5" y="172.6434">fasenavn: string</text><ellipse cx="812.5" cy="185.3407" fill="#000000" rx="3" ry="3" style="stroke:#000000;stroke-width:1.0;"/><text fill="#000000" font-family="sans-serif" font-size="14" lengthAdjust="spacing" textLength="153" x="821.5" y="189.1317">kategori: Fasekategori</text><ellipse cx="812.5" cy="201.829" fill="#000000" rx="3" ry="3" style="stroke:#000000;stroke-width:1.0;"/><text fill="#000000" font-family="sans-serif" font-size="14" lengthAdjust="spacing" textLength="161" x="821.5" y="205.62">status: FaseStatusEnum</text><text fill="#000000" font-family="sans-serif" font-size="14" lengthAdjust="spacing" textLength="101" x="821.5" y="222.1083">startDato: date</text><text fill="#000000" font-family="sans-serif" font-size="14" lengthAdjust="spacing" textLength="100" x="821.5" y="238.5966">sluttDato: date</text><text fill="#000000" font-family="sans-serif" font-size="14" lengthAdjust="spacing" textLength="131" x="821.5" y="255.0848">milepeler: Milepel[]</text><text fill="#000000" font-family="sans-serif" font-size="14" lengthAdjust="spacing" textLength="100" x="821.5" y="271.5731">vedtak: Vedtak</text><text fill="#000000" font-family="sans-serif" font-size="14" lengthAdjust="spacing" textLength="309" x="821.5" y="288.0614">referanseJournalpost: ReferanseJournalpost[]</text><line style="stroke:#181818;stroke-width:0.5;" x1="802.5" x2="1135.5" y1="295.0145" y2="295.0145"/></g><g id="elem_GMN13"><path d="M696,6 L696,46.6211 A0,0 0 0 0 696,46.6211 L965,46.6211 L969,106.49 L973,46.6211 L1242,46.6211 A0,0 0 0 0 1242,46.6211 L1242,16 L1232,6 L696,6 A0,0 0 0 0 696,6 " fill="#FEFFDD" style="stroke:#181818;stroke-width:0.5;"/><path d="M1232,6 L1232,16 L1242,16 L1232,6 " fill="#FEFFDD" style="stroke:#181818;stroke-width:0.5;"/><text fill="#000000" font-family="sans-serif" font-size="13" lengthAdjust="spacing" textLength="369" x="702" y="23.5684">En fase er i hovedsak det som hender mellom to milepeler.</text><text fill="#000000" font-family="sans-serif" font-size="13" lengthAdjust="spacing" textLength="525" x="702" y="38.8789">Interne faser sendes ikke ut ved denne protokollen. Vi kutter derfor ut Global flagg.</text></g><path d="M1171.5,179.51 L1171.5,195.8205 L910.5,150.8641 L1171.5,203.8205 L1171.5,220.1311 A0,0 0 0 0 1171.5,220.1311 L1692.5,220.1311 A0,0 0 0 0 1692.5,220.1311 L1692.5,189.51 L1682.5,179.51 L1171.5,179.51 A0,0 0 0 0 1171.5,179.51 " fill="#FEFFDD" style="stroke:#181818;stroke-width:0.5;"/><path d="M1682.5,179.51 L1682.5,189.51 L1692.5,189.51 L1682.5,179.51 " fill="#FEFFDD" style="stroke:#181818;stroke-width:0.5;"/><text fill="#000000" font-family="sans-serif" font-size="13" lengthAdjust="spacing" textLength="500" x="1177.5" y="197.0784">Faseid brukes alene (ikke sammen med saksnummer) for &#229; hente en enkelt fase</text><text fill="#000000" font-family="sans-serif" font-size="13" lengthAdjust="spacing" textLength="165" x="1177.5" y="212.3889">Den m&#229; dermed v&#230;re unik</text><!--class Vedtak--><g id="elem_Vedtak"><rect codeLine="36" fill="#F1F1F1" height="89.5977" id="Vedtak" rx="2.5" ry="2.5" style="stroke:#181818;stroke-width:0.5;" width="184" x="616" y="441.15"/><ellipse cx="680.25" cy="461.4605" fill="#ADD1B2" rx="11" ry="11" style="stroke:#181818;stroke-width:1.0;"/><path d="M682.7231,467.6036 Q682.1421,467.9024 681.5029,468.0519 Q680.8638,468.2013 680.1582,468.2013 Q677.6514,468.2013 676.3315,466.5494 Q675.0117,464.8976 675.0117,461.7765 Q675.0117,458.6471 676.3315,456.9952 Q677.6514,455.3434 680.1582,455.3434 Q680.8638,455.3434 681.5112,455.4928 Q682.1587,455.6422 682.7231,455.941 L682.7231,458.6637 Q682.0923,458.0826 681.4988,457.8128 Q680.9053,457.5431 680.2744,457.5431 Q678.9297,457.5431 678.2449,458.6097 Q677.5601,459.6764 677.5601,461.7765 Q677.5601,463.8683 678.2449,464.9349 Q678.9297,466.0016 680.2744,466.0016 Q680.9053,466.0016 681.4988,465.7318 Q682.0923,465.462 682.7231,464.881 Z " fill="#000000"/><text fill="#000000" font-family="sans-serif" font-size="12" font-style="italic" lengthAdjust="spacing" textLength="42" x="703.25" y="457.7516">&#171;Kode&#187;</text><text fill="#000000" font-family="sans-serif" font-size="14" lengthAdjust="spacing" textLength="47" x="700.75" y="473.818">Vedtak</text><line style="stroke:#181818;stroke-width:0.5;" x1="617" x2="799" y1="481.7711" y2="481.7711"/><ellipse cx="627" cy="495.5152" fill="#000000" rx="3" ry="3" style="stroke:#000000;stroke-width:1.0;"/><text fill="#000000" font-family="sans-serif" font-size="14" lengthAdjust="spacing" textLength="116" x="636" y="499.3063">kodeverdi: string</text><text fill="#000000" font-family="sans-serif" font-size="14" lengthAdjust="spacing" textLength="158" x="636" y="515.7945">kodebeskrivelse: string</text><line style="stroke:#181818;stroke-width:0.5;" x1="617" x2="799" y1="522.7477" y2="522.7477"/></g><!--class FaseStatusEnum--><g id="elem_FaseStatusEnum"><rect codeLine="28" fill="#F1F1F1" height="97.4648" id="FaseStatusEnum" rx="2.5" ry="2.5" style="stroke:#181818;stroke-width:0.5;" width="144" x="1054" y="437.21"/><ellipse cx="1069" cy="453.21" fill="#EB937F" rx="11" ry="11" style="stroke:#181818;stroke-width:1.0;"/><path d="M1072.6143,459.71 L1064.8945,459.71 L1064.8945,447.3169 L1072.6143,447.3169 L1072.6143,449.4751 L1067.3433,449.4751 L1067.3433,452.148 L1072.1162,452.148 L1072.1162,454.3062 L1067.3433,454.3062 L1067.3433,457.5518 L1072.6143,457.5518 Z " fill="#000000"/><text fill="#000000" font-family="sans-serif" font-size="14" lengthAdjust="spacing" textLength="112" x="1083" y="458.501">FaseStatusEnum</text><line style="stroke:#181818;stroke-width:0.5;" x1="1055" x2="1197" y1="469.21" y2="469.21"/><ellipse cx="1065" cy="482.9541" fill="none" rx="3" ry="3" style="stroke:#038048;stroke-width:1.0;"/><text fill="#000000" font-family="sans-serif" font-size="14" lengthAdjust="spacing" textLength="55" x="1074" y="486.7452">Planlagt</text><ellipse cx="1065" cy="499.4424" fill="none" rx="3" ry="3" style="stroke:#038048;stroke-width:1.0;"/><text fill="#000000" font-family="sans-serif" font-size="14" lengthAdjust="spacing" textLength="88" x="1074" y="503.2334">UnderArbeid</text><ellipse cx="1065" cy="515.9307" fill="none" rx="3" ry="3" style="stroke:#038048;stroke-width:1.0;"/><text fill="#000000" font-family="sans-serif" font-size="14" lengthAdjust="spacing" textLength="48" x="1074" y="519.7217">Utfoert</text><line style="stroke:#181818;stroke-width:0.5;" x1="1055" x2="1197" y1="526.6748" y2="526.6748"/></g><!--class Fasekategori--><g id="elem_Fasekategori"><rect codeLine="41" fill="#F1F1F1" height="89.5977" id="Fasekategori" rx="2.5" ry="2.5" style="stroke:#181818;stroke-width:0.5;" width="184" x="835" y="441.15"/><ellipse cx="878.8" cy="461.4605" fill="#ADD1B2" rx="11" ry="11" style="stroke:#181818;stroke-width:1.0;"/><path d="M881.2731,467.6036 Q880.6921,467.9024 880.0529,468.0519 Q879.4138,468.2013 878.7082,468.2013 Q876.2014,468.2013 874.8815,466.5494 Q873.5617,464.8976 873.5617,461.7765 Q873.5617,458.6471 874.8815,456.9952 Q876.2014,455.3434 878.7082,455.3434 Q879.4138,455.3434 880.0612,455.4928 Q880.7087,455.6422 881.2731,455.941 L881.2731,458.6637 Q880.6423,458.0826 880.0488,457.8128 Q879.4553,457.5431 878.8244,457.5431 Q877.4797,457.5431 876.7949,458.6097 Q876.1101,459.6764 876.1101,461.7765 Q876.1101,463.8683 876.7949,464.9349 Q877.4797,466.0016 878.8244,466.0016 Q879.4553,466.0016 880.0488,465.7318 Q880.6423,465.462 881.2731,464.881 Z " fill="#000000"/><text fill="#000000" font-family="sans-serif" font-size="12" font-style="italic" lengthAdjust="spacing" textLength="42" x="922.2" y="457.7516">&#171;Kode&#187;</text><text fill="#000000" font-family="sans-serif" font-size="14" lengthAdjust="spacing" textLength="88" x="899.2" y="473.818">Fasekategori</text><line style="stroke:#181818;stroke-width:0.5;" x1="836" x2="1018" y1="481.7711" y2="481.7711"/><ellipse cx="846" cy="495.5152" fill="#000000" rx="3" ry="3" style="stroke:#000000;stroke-width:1.0;"/><text fill="#000000" font-family="sans-serif" font-size="14" lengthAdjust="spacing" textLength="116" x="855" y="499.3063">kodeverdi: string</text><text fill="#000000" font-family="sans-serif" font-size="14" lengthAdjust="spacing" textLength="158" x="855" y="515.7945">kodebeskrivelse: string</text><line style="stroke:#181818;stroke-width:0.5;" x1="836" x2="1018" y1="522.7477" y2="522.7477"/></g><g id="elem_GMN24"><path d="M648,161.54 L648,248.0927 A0,0 0 0 0 648,248.0927 L703.15,248.0927 L707.84,440.87 L711.15,248.0927 L766,248.0927 A0,0 0 0 0 766,248.0927 L766,171.54 L756,161.54 L648,161.54 A0,0 0 0 0 648,161.54 " fill="#FEFFDD" style="stroke:#181818;stroke-width:0.5;"/><path d="M756,161.54 L756,171.54 L766,171.54 L756,161.54 " fill="#FEFFDD" style="stroke:#181818;stroke-width:0.5;"/><text fill="#000000" font-family="sans-serif" font-size="13" lengthAdjust="spacing" textLength="69" x="654" y="179.1084">Eksempler:</text><text fill="#000000" font-family="sans-serif" font-size="13" lengthAdjust="spacing" textLength="56" x="654" y="194.4189">godkjent</text><text fill="#000000" font-family="sans-serif" font-size="13" lengthAdjust="spacing" textLength="97" x="654" y="209.7295">delvis godkjent</text><text fill="#000000" font-family="sans-serif" font-size="13" lengthAdjust="spacing" textLength="42" x="654" y="225.04">avsl&#229;tt</text><text fill="#000000" font-family="sans-serif" font-size="13" lengthAdjust="spacing" textLength="37" x="654" y="240.3505">avvist</text></g><g id="elem_GMN27"><path d="M611.5,675.51 L611.5,792.6838 A0,0 0 0 0 611.5,792.6838 L1222.5,792.6838 A0,0 0 0 0 1222.5,792.6838 L1222.5,685.51 L1212.5,675.51 L923.35,675.51 L925.2,531.24 L915.35,675.51 L611.5,675.51 A0,0 0 0 0 611.5,675.51 " fill="#FEFFDD" style="stroke:#181818;stroke-width:0.5;"/><path d="M1212.5,675.51 L1212.5,685.51 L1222.5,685.51 L1212.5,675.51 " fill="#FEFFDD" style="stroke:#181818;stroke-width:0.5;"/><text fill="#000000" font-family="sans-serif" font-size="13" lengthAdjust="spacing" textLength="305" x="617.5" y="693.0784">Se gjerne Byggesaksbehandling::Prosesskategori</text><text fill="#000000" font-family="sans-serif" font-size="13" lengthAdjust="spacing" textLength="45" x="621.5" y="708.3889">fra NPS</text><text fill="#000000" font-family="sans-serif" font-size="13" lengthAdjust="spacing" textLength="210" x="617.5" y="723.6995">Vi m&#229; f&#229; avklart denne kodelisten</text><text fill="#000000" font-family="sans-serif" font-size="13" lengthAdjust="spacing" textLength="590" x="617.5" y="739.01">Vi m&#229; ha en som er generell som betyr at det ikke er fastsatt hvis kategori skal v&#230;re required.</text><text fill="#000000" font-family="sans-serif" font-size="13" lengthAdjust="spacing" textLength="69" x="617.5" y="754.3205">Eksempler:</text><text fill="#000000" font-family="sans-serif" font-size="13" lengthAdjust="spacing" textLength="34" x="617.5" y="769.6311">Klage</text><text fill="#000000" font-family="sans-serif" font-size="13" lengthAdjust="spacing" textLength="43" x="617.5" y="784.9416">H&#248;ring</text></g><!--class EksternNoekkel--><g id="elem_EksternNoekkel"><rect codeLine="2" fill="#F1F1F1" height="80.9766" id="EksternNoekkel" rx="2.5" ry="2.5" style="stroke:#181818;stroke-width:0.5;" width="143" x="1352.5" y="867.56"/><ellipse cx="1369.75" cy="883.56" fill="#ADD1B2" rx="11" ry="11" style="stroke:#181818;stroke-width:1.0;"/><path d="M1372.2231,889.7031 Q1371.6421,890.0019 1371.0029,890.1513 Q1370.3638,890.3007 1369.6582,890.3007 Q1367.1514,890.3007 1365.8315,888.6489 Q1364.5117,886.997 1364.5117,883.8759 Q1364.5117,880.7465 1365.8315,879.0947 Q1367.1514,877.4428 1369.6582,877.4428 Q1370.3638,877.4428 1371.0112,877.5922 Q1371.6587,877.7416 1372.2231,878.0405 L1372.2231,880.7631 Q1371.5923,880.1821 1370.9988,879.9123 Q1370.4053,879.6425 1369.7744,879.6425 Q1368.4297,879.6425 1367.7449,880.7092 Q1367.0601,881.7758 1367.0601,883.8759 Q1367.0601,885.9677 1367.7449,887.0344 Q1368.4297,888.101 1369.7744,888.101 Q1370.4053,888.101 1370.9988,887.8312 Q1371.5923,887.5615 1372.2231,886.9804 Z " fill="#000000"/><text fill="#000000" font-family="sans-serif" font-size="14" lengthAdjust="spacing" textLength="106" x="1384.25" y="888.851">EksternNoekkel</text><line style="stroke:#181818;stroke-width:0.5;" x1="1353.5" x2="1494.5" y1="899.56" y2="899.56"/><ellipse cx="1363.5" cy="913.3041" fill="#000000" rx="3" ry="3" style="stroke:#000000;stroke-width:1.0;"/><text fill="#000000" font-family="sans-serif" font-size="14" lengthAdjust="spacing" textLength="117" x="1372.5" y="917.0952">fagsystem: string</text><ellipse cx="1363.5" cy="929.7924" fill="#000000" rx="3" ry="3" style="stroke:#000000;stroke-width:1.0;"/><text fill="#000000" font-family="sans-serif" font-size="14" lengthAdjust="spacing" textLength="102" x="1372.5" y="933.5834">noekkel: string</text><line style="stroke:#181818;stroke-width:0.5;" x1="1353.5" x2="1494.5" y1="940.5366" y2="940.5366"/></g><!--class Journalnummer--><g id="elem_Journalnummer"><rect codeLine="2" fill="#F1F1F1" height="80.9766" id="Journalnummer" rx="2.5" ry="2.5" style="stroke:#181818;stroke-width:0.5;" width="249" x="1530.5" y="867.56"/><ellipse cx="1597.25" cy="883.56" fill="#ADD1B2" rx="11" ry="11" style="stroke:#181818;stroke-width:1.0;"/><path d="M1599.7231,889.7031 Q1599.1421,890.0019 1598.5029,890.1513 Q1597.8638,890.3007 1597.1582,890.3007 Q1594.6514,890.3007 1593.3315,888.6489 Q1592.0117,886.997 1592.0117,883.8759 Q1592.0117,880.7465 1593.3315,879.0947 Q1594.6514,877.4428 1597.1582,877.4428 Q1597.8638,877.4428 1598.5112,877.5922 Q1599.1587,877.7416 1599.7231,878.0405 L1599.7231,880.7631 Q1599.0923,880.1821 1598.4988,879.9123 Q1597.9053,879.6425 1597.2744,879.6425 Q1595.9297,879.6425 1595.2449,880.7092 Q1594.5601,881.7758 1594.5601,883.8759 Q1594.5601,885.9677 1595.2449,887.0344 Q1595.9297,888.101 1597.2744,888.101 Q1597.9053,888.101 1598.4988,887.8312 Q1599.0923,887.5615 1599.7231,886.9804 Z " fill="#000000"/><text fill="#000000" font-family="sans-serif" font-size="14" lengthAdjust="spacing" textLength="107" x="1617.75" y="888.851">Journalnummer</text><line style="stroke:#181818;stroke-width:0.5;" x1="1531.5" x2="1778.5" y1="899.56" y2="899.56"/><ellipse cx="1541.5" cy="913.3041" fill="#000000" rx="3" ry="3" style="stroke:#000000;stroke-width:1.0;"/><text fill="#000000" font-family="sans-serif" font-size="14" lengthAdjust="spacing" textLength="169" x="1550.5" y="917.0952">journalnummer: number</text><ellipse cx="1541.5" cy="929.7924" fill="#000000" rx="3" ry="3" style="stroke:#000000;stroke-width:1.0;"/><text fill="#000000" font-family="sans-serif" font-size="14" lengthAdjust="spacing" textLength="223" x="1550.5" y="933.5834">journalsekvensnummer: number</text><line style="stroke:#181818;stroke-width:0.5;" x1="1531.5" x2="1778.5" y1="940.5366" y2="940.5366"/></g><!--class SaksJournalpostnummer--><g id="elem_SaksJournalpostnummer"><rect codeLine="2" fill="#F1F1F1" height="97.4648" id="SaksJournalpostnummer" rx="2.5" ry="2.5" style="stroke:#181818;stroke-width:0.5;" width="230" x="1814" y="859.32"/><ellipse cx="1842.5" cy="875.32" fill="#ADD1B2" rx="11" ry="11" style="stroke:#181818;stroke-width:1.0;"/><path d="M1844.9731,881.4631 Q1844.3921,881.7619 1843.7529,881.9113 Q1843.1138,882.0607 1842.4082,882.0607 Q1839.9014,882.0607 1838.5815,880.4089 Q1837.2617,878.757 1837.2617,875.6359 Q1837.2617,872.5065 1838.5815,870.8547 Q1839.9014,869.2028 1842.4082,869.2028 Q1843.1138,869.2028 1843.7612,869.3522 Q1844.4087,869.5016 1844.9731,869.8005 L1844.9731,872.5231 Q1844.3423,871.9421 1843.7488,871.6723 Q1843.1553,871.4025 1842.5244,871.4025 Q1841.1797,871.4025 1840.4949,872.4692 Q1839.8101,873.5358 1839.8101,875.6359 Q1839.8101,877.7277 1840.4949,878.7944 Q1841.1797,879.861 1842.5244,879.861 Q1843.1553,879.861 1843.7488,879.5912 Q1844.3423,879.3215 1844.9731,878.7404 Z " fill="#000000"/><text fill="#000000" font-family="sans-serif" font-size="14" lengthAdjust="spacing" textLength="168" x="1859.5" y="880.611">SaksJournalpostnummer</text><line style="stroke:#181818;stroke-width:0.5;" x1="1815" x2="2043" y1="891.32" y2="891.32"/><ellipse cx="1825" cy="905.0641" fill="#000000" rx="3" ry="3" style="stroke:#000000;stroke-width:1.0;"/><text fill="#000000" font-family="sans-serif" font-size="14" lengthAdjust="spacing" textLength="114" x="1834" y="908.8552">saksaar: number</text><ellipse cx="1825" cy="921.5524" fill="#000000" rx="3" ry="3" style="stroke:#000000;stroke-width:1.0;"/><text fill="#000000" font-family="sans-serif" font-size="14" lengthAdjust="spacing" textLength="204" x="1834" y="925.3434">sakssekvensnummer: number</text><ellipse cx="1825" cy="938.0407" fill="#000000" rx="3" ry="3" style="stroke:#000000;stroke-width:1.0;"/><text fill="#000000" font-family="sans-serif" font-size="14" lengthAdjust="spacing" textLength="199" x="1834" y="941.8317">journalpostnummer: number</text><line style="stroke:#181818;stroke-width:0.5;" x1="1815" x2="2043" y1="948.7848" y2="948.7848"/></g><!--class Milepel--><g id="elem_Milepel"><rect codeLine="8" fill="#F1F1F1" height="245.8594" id="Milepel" rx="2.5" ry="2.5" style="stroke:#181818;stroke-width:0.5;" width="325" x="1786.5" y="363.01"/><ellipse cx="1920.25" cy="379.01" fill="#ADD1B2" rx="11" ry="11" style="stroke:#181818;stroke-width:1.0;"/><path d="M1922.7231,385.1531 Q1922.1421,385.4519 1921.5029,385.6013 Q1920.8638,385.7507 1920.1582,385.7507 Q1917.6514,385.7507 1916.3315,384.0989 Q1915.0117,382.447 1915.0117,379.3259 Q1915.0117,376.1965 1916.3315,374.5447 Q1917.6514,372.8928 1920.1582,372.8928 Q1920.8638,372.8928 1921.5112,373.0422 Q1922.1587,373.1916 1922.7231,373.4905 L1922.7231,376.2131 Q1922.0923,375.6321 1921.4988,375.3623 Q1920.9053,375.0925 1920.2744,375.0925 Q1918.9297,375.0925 1918.2449,376.1592 Q1917.5601,377.2258 1917.5601,379.3259 Q1917.5601,381.4177 1918.2449,382.4844 Q1918.9297,383.551 1920.2744,383.551 Q1920.9053,383.551 1921.4988,383.2812 Q1922.0923,383.0115 1922.7231,382.4304 Z " fill="#000000"/><text fill="#000000" font-family="sans-serif" font-size="14" lengthAdjust="spacing" textLength="49" x="1940.75" y="384.301">Milepel</text><line style="stroke:#181818;stroke-width:0.5;" x1="1787.5" x2="2110.5" y1="395.01" y2="395.01"/><ellipse cx="1797.5" cy="408.7541" fill="#000000" rx="3" ry="3" style="stroke:#000000;stroke-width:1.0;"/><text fill="#000000" font-family="sans-serif" font-size="14" lengthAdjust="spacing" textLength="111" x="1806.5" y="412.5452">milepelId: string</text><ellipse cx="1797.5" cy="425.2424" fill="#000000" rx="3" ry="3" style="stroke:#000000;stroke-width:1.0;"/><text fill="#000000" font-family="sans-serif" font-size="14" lengthAdjust="spacing" textLength="124" x="1806.5" y="429.0334">beskrivelse: string</text><text fill="#000000" font-family="sans-serif" font-size="14" lengthAdjust="spacing" textLength="165" x="1806.5" y="445.5217">milepeltype: Milepeltype</text><text fill="#000000" font-family="sans-serif" font-size="14" lengthAdjust="spacing" textLength="65" x="1806.5" y="462.01">frist: date</text><text fill="#000000" font-family="sans-serif" font-size="14" lengthAdjust="spacing" textLength="85" x="1806.5" y="478.4983">utfoert: date</text><text fill="#000000" font-family="sans-serif" font-size="14" lengthAdjust="spacing" textLength="142" x="1806.5" y="494.9866">planlagtUtfoert: date</text><ellipse cx="1797.5" cy="507.6838" fill="#000000" rx="3" ry="3" style="stroke:#000000;stroke-width:1.0;"/><text fill="#000000" font-family="sans-serif" font-size="14" lengthAdjust="spacing" textLength="105" x="1806.5" y="511.4748">intern: boolean</text><text fill="#000000" font-family="sans-serif" font-size="14" lengthAdjust="spacing" textLength="299" x="1806.5" y="527.9631">referanseJournalpost: ReferanseJournalpost</text><text fill="#000000" font-family="sans-serif" font-size="14" lengthAdjust="spacing" textLength="296" x="1806.5" y="544.4514">referanseDokument: ReferanseDokumentfil</text><text fill="#000000" font-family="sans-serif" font-size="14" lengthAdjust="spacing" textLength="110" x="1806.5" y="560.9397">erStart: boolean</text><text fill="#000000" font-family="sans-serif" font-size="14" lengthAdjust="spacing" textLength="109" x="1806.5" y="577.428">erSlutt: boolean</text><ellipse cx="1797.5" cy="590.1252" fill="#000000" rx="3" ry="3" style="stroke:#000000;stroke-width:1.0;"/><text fill="#000000" font-family="sans-serif" font-size="14" lengthAdjust="spacing" textLength="179" x="1806.5" y="593.9163">status: MilepelStatusEnum</text><line style="stroke:#181818;stroke-width:0.5;" x1="1787.5" x2="2110.5" y1="600.8694" y2="600.8694"/></g><g id="elem_GMN34"><path d="M1728,184.51 L1728,225.1311 A0,0 0 0 0 1728,225.1311 L1945.93,225.1311 L1949.44,362.83 L1953.93,225.1311 L2172,225.1311 A0,0 0 0 0 2172,225.1311 L2172,194.51 L2162,184.51 L1728,184.51 A0,0 0 0 0 1728,184.51 " fill="#FEFFDD" style="stroke:#181818;stroke-width:0.5;"/><path d="M2162,184.51 L2162,194.51 L2172,194.51 L2162,184.51 " fill="#FEFFDD" style="stroke:#181818;stroke-width:0.5;"/><text fill="#000000" font-family="sans-serif" font-size="13" lengthAdjust="spacing" textLength="331" x="1734" y="202.0784">planlagtUtfoert er hvis man har laget en milepel plan</text><text fill="#000000" font-family="sans-serif" font-size="13" lengthAdjust="spacing" textLength="423" x="1734" y="217.3889">s&#229; kan man sette denne datoen for n&#229;r det er planlagt &#229; v&#230;re ferdig</text></g><!--class Milepeltype--><g id="elem_Milepeltype"><rect codeLine="32" fill="#F1F1F1" height="80.9766" id="Milepeltype" rx="2.5" ry="2.5" style="stroke:#181818;stroke-width:0.5;" width="184" x="1258" y="693.61"/><ellipse cx="1306.75" cy="709.61" fill="#ADD1B2" rx="11" ry="11" style="stroke:#181818;stroke-width:1.0;"/><path d="M1309.2231,715.7531 Q1308.6421,716.0519 1308.0029,716.2013 Q1307.3638,716.3507 1306.6582,716.3507 Q1304.1514,716.3507 1302.8315,714.6989 Q1301.5117,713.047 1301.5117,709.9259 Q1301.5117,706.7965 1302.8315,705.1447 Q1304.1514,703.4928 1306.6582,703.4928 Q1307.3638,703.4928 1308.0112,703.6422 Q1308.6587,703.7916 1309.2231,704.0905 L1309.2231,706.8131 Q1308.5923,706.2321 1307.9988,705.9623 Q1307.4053,705.6925 1306.7744,705.6925 Q1305.4297,705.6925 1304.7449,706.7592 Q1304.0601,707.8258 1304.0601,709.9259 Q1304.0601,712.0177 1304.7449,713.0844 Q1305.4297,714.151 1306.7744,714.151 Q1307.4053,714.151 1307.9988,713.8812 Q1308.5923,713.6115 1309.2231,713.0304 Z " fill="#000000"/><text fill="#000000" font-family="sans-serif" font-size="14" lengthAdjust="spacing" textLength="78" x="1327.25" y="714.901">Milepeltype</text><line style="stroke:#181818;stroke-width:0.5;" x1="1259" x2="1441" y1="725.61" y2="725.61"/><ellipse cx="1269" cy="739.3541" fill="none" rx="3" ry="3" style="stroke:#038048;stroke-width:1.0;"/><text fill="#000000" font-family="sans-serif" font-size="14" lengthAdjust="spacing" textLength="116" x="1278" y="743.1452">kodeverdi: string</text><ellipse cx="1269" cy="755.8424" fill="none" rx="3" ry="3" style="stroke:#038048;stroke-width:1.0;"/><text fill="#000000" font-family="sans-serif" font-size="14" lengthAdjust="spacing" textLength="158" x="1278" y="759.6334">kodebeskrivelse: string</text><line style="stroke:#181818;stroke-width:0.5;" x1="1259" x2="1441" y1="766.5866" y2="766.5866"/></g><g id="elem_GMN39"><path d="M1235.5,450.32 L1235.5,521.5622 A0,0 0 0 0 1235.5,521.5622 L1346,521.5622 L1350,693.32 L1354,521.5622 L1464.5,521.5622 A0,0 0 0 0 1464.5,521.5622 L1464.5,460.32 L1454.5,450.32 L1235.5,450.32 A0,0 0 0 0 1235.5,450.32 " fill="#FEFFDD" style="stroke:#181818;stroke-width:0.5;"/><path d="M1454.5,450.32 L1454.5,460.32 L1464.5,460.32 L1454.5,450.32 " fill="#FEFFDD" style="stroke:#181818;stroke-width:0.5;"/><text fill="#000000" font-family="sans-serif" font-size="13" lengthAdjust="spacing" textLength="69" x="1241.5" y="467.8884">Eksempler:</text><text fill="#000000" font-family="sans-serif" font-size="13" lengthAdjust="spacing" textLength="201" x="1241.5" y="483.1989">Bestilling av oppstartsm&#248;te (BO)</text><text fill="#000000" font-family="sans-serif" font-size="13" lengthAdjust="spacing" textLength="208" x="1241.5" y="498.5095">Gjennomf&#248;rt oppstartsm&#248;te (OM)</text><text fill="#000000" font-family="sans-serif" font-size="13" lengthAdjust="spacing" textLength="137" x="1241.5" y="513.82">Mottak av planforslag</text></g><g id="elem_GMN42"><path d="M2065.5,721.44 L2065.5,746.7505 A0,0 0 0 0 2065.5,746.7505 L2264.5,746.7505 A0,0 0 0 0 2264.5,746.7505 L2264.5,731.44 L2254.5,721.44 L2158.5,721.44 L2056.37,609.3 L2150.5,721.44 L2065.5,721.44 A0,0 0 0 0 2065.5,721.44 " fill="#FEFFDD" style="stroke:#181818;stroke-width:0.5;"/><path d="M2254.5,721.44 L2254.5,731.44 L2264.5,731.44 L2254.5,721.44 " fill="#FEFFDD" style="stroke:#181818;stroke-width:0.5;"/><text fill="#000000" font-family="sans-serif" font-size="13" lengthAdjust="spacing" textLength="178" x="2071.5" y="739.0084">frist og utfoert ikke p&#229;krevd</text></g><!--class MilepelStatusEnum--><g id="elem_MilepelStatusEnum"><rect codeLine="48" fill="#F1F1F1" height="80.9766" id="MilepelStatusEnum" rx="2.5" ry="2.5" style="stroke:#181818;stroke-width:0.5;" width="162" x="1868" y="693.61"/><ellipse cx="1883" cy="709.61" fill="#EB937F" rx="11" ry="11" style="stroke:#181818;stroke-width:1.0;"/><path d="M1886.6143,716.11 L1878.8945,716.11 L1878.8945,703.7169 L1886.6143,703.7169 L1886.6143,705.8751 L1881.3433,705.8751 L1881.3433,708.548 L1886.1162,708.548 L1886.1162,710.7062 L1881.3433,710.7062 L1881.3433,713.9518 L1886.6143,713.9518 Z " fill="#000000"/><text fill="#000000" font-family="sans-serif" font-size="14" lengthAdjust="spacing" textLength="130" x="1897" y="714.901">MilepelStatusEnum</text><line style="stroke:#181818;stroke-width:0.5;" x1="1869" x2="2029" y1="725.61" y2="725.61"/><ellipse cx="1879" cy="739.3541" fill="none" rx="3" ry="3" style="stroke:#038048;stroke-width:1.0;"/><text fill="#000000" font-family="sans-serif" font-size="14" lengthAdjust="spacing" textLength="36" x="1888" y="743.1452">N&#229;dd</text><ellipse cx="1879" cy="755.8424" fill="none" rx="3" ry="3" style="stroke:#038048;stroke-width:1.0;"/><text fill="#000000" font-family="sans-serif" font-size="14" lengthAdjust="spacing" textLength="55" x="1888" y="759.6334">Planlagt</text><line style="stroke:#181818;stroke-width:0.5;" x1="1869" x2="2029" y1="766.5866" y2="766.5866"/></g><!--class Saksnummer--><g id="elem_Saksnummer"><rect codeLine="2" fill="#F1F1F1" height="80.9766" id="Saksnummer" rx="2.5" ry="2.5" style="stroke:#181818;stroke-width:0.5;" width="225" x="355.5" y="445.46"/><ellipse cx="419.25" cy="461.46" fill="#ADD1B2" rx="11" ry="11" style="stroke:#181818;stroke-width:1.0;"/><path d="M421.7231,467.6031 Q421.1421,467.9019 420.5029,468.0513 Q419.8638,468.2007 419.1582,468.2007 Q416.6514,468.2007 415.3315,466.5489 Q414.0117,464.897 414.0117,461.7759 Q414.0117,458.6465 415.3315,456.9947 Q416.6514,455.3428 419.1582,455.3428 Q419.8638,455.3428 420.5112,455.4922 Q421.1587,455.6416 421.7231,455.9405 L421.7231,458.6631 Q421.0923,458.0821 420.4988,457.8123 Q419.9053,457.5425 419.2744,457.5425 Q417.9297,457.5425 417.2449,458.6092 Q416.5601,459.6758 416.5601,461.7759 Q416.5601,463.8677 417.2449,464.9344 Q417.9297,466.001 419.2744,466.001 Q419.9053,466.001 420.4988,465.7312 Q421.0923,465.4615 421.7231,464.8804 Z " fill="#000000"/><text fill="#000000" font-family="sans-serif" font-size="14" lengthAdjust="spacing" textLength="89" x="439.75" y="466.751">Saksnummer</text><line style="stroke:#181818;stroke-width:0.5;" x1="356.5" x2="579.5" y1="477.46" y2="477.46"/><ellipse cx="366.5" cy="491.2041" fill="#000000" rx="3" ry="3" style="stroke:#000000;stroke-width:1.0;"/><text fill="#000000" font-family="sans-serif" font-size="14" lengthAdjust="spacing" textLength="109" x="375.5" y="494.9952">saksaar: integer</text><ellipse cx="366.5" cy="507.6924" fill="#000000" rx="3" ry="3" style="stroke:#000000;stroke-width:1.0;"/><text fill="#000000" font-family="sans-serif" font-size="14" lengthAdjust="spacing" textLength="199" x="375.5" y="511.4834">sakssekvensnummer: integer</text><line style="stroke:#181818;stroke-width:0.5;" x1="356.5" x2="579.5" y1="518.4366" y2="518.4366"/></g><!--class SaksfaserHentResultat--><g id="elem_SaksfaserHentResultat"><rect codeLine="6" fill="#F1F1F1" height="113.9531" id="SaksfaserHentResultat" rx="2.5" ry="2.5" style="stroke:#181818;stroke-width:0.5;" width="211" x="381.5" y="147.84"/><ellipse cx="408.65" cy="163.84" fill="#ADD1B2" rx="11" ry="11" style="stroke:#181818;stroke-width:1.0;"/><path d="M411.1231,169.9831 Q410.5421,170.2819 409.9029,170.4313 Q409.2638,170.5807 408.5582,170.5807 Q406.0514,170.5807 404.7315,168.9289 Q403.4117,167.277 403.4117,164.1559 Q403.4117,161.0265 404.7315,159.3747 Q406.0514,157.7228 408.5582,157.7228 Q409.2638,157.7228 409.9112,157.8722 Q410.5587,158.0216 411.1231,158.3205 L411.1231,161.0431 Q410.4923,160.4621 409.8988,160.1923 Q409.3053,159.9225 408.6744,159.9225 Q407.3297,159.9225 406.6449,160.9892 Q405.9601,162.0558 405.9601,164.1559 Q405.9601,166.2477 406.6449,167.3144 Q407.3297,168.381 408.6744,168.381 Q409.3053,168.381 409.8988,168.1112 Q410.4923,167.8415 411.1231,167.2604 Z " fill="#000000"/><text fill="#000000" font-family="sans-serif" font-size="14" lengthAdjust="spacing" textLength="152" x="425.35" y="169.131">SaksfaserHentResultat</text><line style="stroke:#181818;stroke-width:0.5;" x1="382.5" x2="591.5" y1="179.84" y2="179.84"/><ellipse cx="392.5" cy="193.5841" fill="#000000" rx="3" ry="3" style="stroke:#000000;stroke-width:1.0;"/><text fill="#000000" font-family="sans-serif" font-size="14" lengthAdjust="spacing" textLength="185" x="401.5" y="197.3752">saksnummer: Saksnummer</text><ellipse cx="392.5" cy="210.0724" fill="#000000" rx="3" ry="3" style="stroke:#000000;stroke-width:1.0;"/><text fill="#000000" font-family="sans-serif" font-size="14" lengthAdjust="spacing" textLength="109" x="401.5" y="213.8634">sakstittel: string</text><ellipse cx="392.5" cy="226.5607" fill="#000000" rx="3" ry="3" style="stroke:#000000;stroke-width:1.0;"/><text fill="#000000" font-family="sans-serif" font-size="14" lengthAdjust="spacing" textLength="140" x="401.5" y="230.3517">saksansvarlig: string</text><ellipse cx="392.5" cy="243.049" fill="#000000" rx="3" ry="3" style="stroke:#000000;stroke-width:1.0;"/><text fill="#000000" font-family="sans-serif" font-size="14" lengthAdjust="spacing" textLength="83" x="401.5" y="246.84">faser: Fase[]</text><line style="stroke:#181818;stroke-width:0.5;" x1="382.5" x2="591.5" y1="253.7931" y2="253.7931"/></g><path d="M6,179.51 L6,220.1311 A0,0 0 0 0 6,220.1311 L346,220.1311 A0,0 0 0 0 346,220.1311 L346,203.8205 L385.5,241.549 L346,195.8205 L346,189.51 L336,179.51 L6,179.51 A0,0 0 0 0 6,179.51 " fill="#FEFFDD" style="stroke:#181818;stroke-width:0.5;"/><path d="M336,179.51 L336,189.51 L346,189.51 L336,179.51 " fill="#FEFFDD" style="stroke:#181818;stroke-width:0.5;"/><text fill="#000000" font-family="sans-serif" font-size="13" lengthAdjust="spacing" textLength="319" x="12" y="197.0784">Rekkef&#248;lgen av Fase objekter i faser er signifikant.</text><text fill="#000000" font-family="sans-serif" font-size="13" lengthAdjust="spacing" textLength="217" x="12" y="212.3889">Det er den rekkef&#248;lgen fasene har.</text><!--link Dokument to Dokumenttype--><g id="link_Dokument_Dokumenttype"><path codeLine="16" d="M2334.15,294.9 C2311.83,343.56 2285.18,401.69 2267.27,440.73 " fill="none" id="Dokument-Dokumenttype" style="stroke:#181818;stroke-width:1.0;"/></g><!--link Dokument to ReferanseDokumentfil--><g id="link_Dokument_ReferanseDokumentfil"><path codeLine="17" d="M2377.88,295.26 C2381.63,411.32 2388,608.9 2390.71,693.14 " fill="none" id="Dokument-ReferanseDokumentfil" style="stroke:#181818;stroke-width:1.0;"/></g><!--link Fase to ReferanseJournalpost--><g id="link_Fase_ReferanseJournalpost"><path codeLine="15" d="M1136.93,296.73 C1142.64,298.96 1148.34,301.06 1154,303.01 C1294.09,351.36 1364.67,272.48 1482,363.01 C1580.4,438.95 1622.5819,572.628 1641.0219,656.798 " fill="none" id="Fase-to-ReferanseJournalpost" style="stroke:#181818;stroke-width:1.0;"/><polygon fill="#181818" points="1643.59,668.52,1646.2133,661.803,1641.0219,656.798,1638.3986,663.515,1643.59,668.52" style="stroke:#181818;stroke-width:1.0;"/></g><!--link Fase to Vedtak--><g id="link_Fase_Vedtak"><path codeLine="24" d="M873.54,303.36 C854.66,322.98 835.09,343.55 817,363.01 C793.32,388.49 767.34,417.5 746.69,440.83 " fill="none" id="Fase-Vedtak" style="stroke:#181818;stroke-width:1.0;"/></g><!--link Fase to FaseStatusEnum--><g id="link_Fase_FaseStatusEnum"><path codeLine="25" d="M1023.91,303.44 C1049.29,348.56 1078.29,400.13 1098.89,436.74 " fill="none" id="Fase-FaseStatusEnum" style="stroke:#181818;stroke-width:1.0;"/></g><!--link Fase to Fasekategori--><g id="link_Fase_Fasekategori"><path codeLine="26" d="M954.31,303.44 C947.26,350.29 939.17,404.09 933.63,440.88 " fill="none" id="Fase-Fasekategori" style="stroke:#181818;stroke-width:1.0;"/></g><!--link Milepel to Milepeltype--><g id="link_Milepel_Milepeltype"><path codeLine="25" d="M1786.18,539.63 C1689.66,572.79 1565.91,618.71 1460,668.87 C1444.81,676.07 1428.95,684.65 1414.14,693.16 " fill="none" id="Milepel-Milepeltype" style="stroke:#181818;stroke-width:1.0;"/></g><!--link Milepel to ReferanseJournalpost--><g id="link_Milepel_ReferanseJournalpost"><path codeLine="37" d="M1802.86,609.3 C1778.36,629.81 1753.83,650.35 1731.99,668.63 " fill="none" id="Milepel-ReferanseJournalpost" style="stroke:#181818;stroke-width:1.0;"/></g><!--link Milepel to ReferanseDokumentfil--><g id="link_Milepel_ReferanseDokumentfil"><path codeLine="38" d="M2111.99,595.16 C2120.37,599.93 2128.74,604.53 2137,608.87 C2198.74,641.32 2219.52,637.89 2282,668.87 C2296.86,676.24 2312.45,684.81 2327.07,693.23 " fill="none" id="Milepel-ReferanseDokumentfil" style="stroke:#181818;stroke-width:1.0;"/></g><!--link Milepel to MilepelStatusEnum--><g id="link_Milepel_MilepelStatusEnum"><path codeLine="43" d="M1949,609.3 C1949,639.7 1949,670.17 1949,693.27 " fill="none" id="Milepel-MilepelStatusEnum" style="stroke:#181818;stroke-width:1.0;"/></g><!--link ReferanseJournalpost to EksternNoekkel--><g id="link_ReferanseJournalpost_EksternNoekkel"><path codeLine="44" d="M1568.33,799.61 C1537.86,822.29 1504.53,847.1 1477.58,867.16 " fill="none" id="ReferanseJournalpost-EksternNoekkel" style="stroke:#181818;stroke-width:1.0;"/></g><!--link ReferanseJournalpost to SaksJournalpostnummer--><g id="link_ReferanseJournalpost_SaksJournalpostnummer"><path codeLine="45" d="M1757.81,799.61 C1789.09,819.24 1822.91,840.47 1852.17,858.83 " fill="none" id="ReferanseJournalpost-SaksJournalpostnummer" style="stroke:#181818;stroke-width:1.0;"/></g><!--link ReferanseJournalpost to Journalnummer--><g id="link_ReferanseJournalpost_Journalnummer"><path codeLine="46" d="M1655,799.61 C1655,822.29 1655,847.1 1655,867.16 " fill="none" id="ReferanseJournalpost-Journalnummer" style="stroke:#181818;stroke-width:1.0;"/></g><!--link SaksfaserHentResultat to Fase--><g id="link_SaksfaserHentResultat_Fase"><path codeLine="18" d="M539.85,147.37 C568.69,120.31 606.78,90.89 647.5,76.62 C697.41,59.13 715.7,61.89 766.5,76.62 C790.18,83.48 803.213,88.2795 825.453,100.4495 " fill="none" id="SaksfaserHentResultat-to-Fase" style="stroke:#181818;stroke-width:1.0;"/><polygon fill="#181818" points="835.98,106.21,832.6367,99.8208,825.453,100.4495,828.7964,106.8387,835.98,106.21" style="stroke:#181818;stroke-width:1.0;"/></g><!--link SaksfaserHentResultat to Saksnummer--><g id="link_SaksfaserHentResultat_Saksnummer"><path codeLine="19" d="M483.18,261.97 C479.48,316.25 473.98,397.14 470.71,445.11 " fill="none" id="SaksfaserHentResultat-Saksnummer" style="stroke:#181818;stroke-width:1.0;"/></g><!--link Fase to Milepel--><g id="link_Fase_Milepel"><path codeLine="27" d="M1136.81,297.11 C1142.55,299.23 1148.29,301.21 1154,303.01 C1350.12,365.16 1413.11,314.3 1613,363.01 C1670.58,377.05 1731.96,397.58 1786.29,417.81 " fill="none" id="Fase-Milepel" style="stroke:#181818;stroke-width:1.0;"/></g><!--link Fase to Dokument--><g id="link_Fase_Dokument"><path codeLine="28" d="M1102.02,106.21 C1124.26,94.04 1147.82,83.48 1171.5,76.62 C1278.32,45.65 2065.68,45.65 2172.5,76.62 C2201.37,84.99 2219.7526,92.739 2246.0826,108.319 " fill="none" id="Fase-to-Dokument" style="stroke:#181818;stroke-width:1.0;"/><polygon fill="#181818" points="2256.41,114.43,2253.2833,107.932,2246.0826,108.319,2249.2093,114.817,2256.41,114.43" style="stroke:#181818;stroke-width:1.0;"/></g><!--SRC=[fLAxJWCn4Epz5PiE8iKHxTLHH4CJIaJXnEkBiMylykCQnEV0Dz3dnrWxXow8KA1O9v-zkpCxi_BCqivdZI2NKYwfbovAOtcBoaMZ8WOvt4c3tcEKkdUvGqhBdLSnQglQe3fvo6Bs7vPoluwXinuFwAyZAJ7ANOVX5u-e0NZyHjspvmt6x9DAy2g0rto2DxNmT9vooQQ4le6OWgLsYYkAWmhUjZzJjKy3Q_uzFOit8QXF21vDWjvSLj8qDLJn6tGEpV7JjqYWXie3_VO5NS805ceby1TjIvPdeYZ9YbnXAd7Dk71EKX24i5T12YGDHOyGbqUocDU6VsKNvmCQdGNRxgkr0ZmviReAMjSZR4Ds647vekB6iZA8YXa8EjGmJVyMJ1_W-0vxxed0UII7FbK3eqF6S876KA33yICWPB8EpepLWR7IXzFJ6kzpM8rFNdm1]--></g></svg>