<svg xmlns="http://www.w3.org/2000/svg" xmlns:xlink="http://www.w3.org/1999/xlink" contentStyleType="text/css" height="963px" preserveAspectRatio="none" style="width:1579px;height:963px;background:#FFFFFF;" version="1.1" viewBox="0 0 1579 963" width="1579px" zoomAndPan="magnify"><defs/><g><!--class SaksfaserHentResultat--><g id="elem_SaksfaserHentResultat"><rect codeLine="1" fill="#F1F1F1" height="113.9531" id="SaksfaserHentResultat" rx="2.5" ry="2.5" style="stroke:#181818;stroke-width:0.5;" width="211" x="129" y="131.35"/><ellipse cx="156.15" cy="147.35" fill="#ADD1B2" rx="11" ry="11" style="stroke:#181818;stroke-width:1.0;"/><path d="M158.6231,153.4931 Q158.0421,153.7919 157.4029,153.9413 Q156.7638,154.0907 156.0582,154.0907 Q153.5514,154.0907 152.2315,152.4389 Q150.9117,150.787 150.9117,147.6659 Q150.9117,144.5365 152.2315,142.8847 Q153.5514,141.2328 156.0582,141.2328 Q156.7638,141.2328 157.4112,141.3822 Q158.0587,141.5316 158.6231,141.8305 L158.6231,144.5531 Q157.9923,143.9721 157.3988,143.7023 Q156.8053,143.4325 156.1744,143.4325 Q154.8297,143.4325 154.1449,144.4992 Q153.4601,145.5658 153.4601,147.6659 Q153.4601,149.7577 154.1449,150.8244 Q154.8297,151.891 156.1744,151.891 Q156.8053,151.891 157.3988,151.6212 Q157.9923,151.3515 158.6231,150.7704 Z " fill="#000000"/><text fill="#000000" font-family="sans-serif" font-size="14" lengthAdjust="spacing" textLength="152" x="172.85" y="152.641">SaksfaserHentResultat</text><line style="stroke:#181818;stroke-width:0.5;" x1="130" x2="339" y1="163.35" y2="163.35"/><ellipse cx="140" cy="177.0941" fill="none" rx="3" ry="3" style="stroke:#038048;stroke-width:1.0;"/><text fill="#000000" font-family="sans-serif" font-size="14" lengthAdjust="spacing" textLength="185" x="149" y="180.8852">saksnummer: Saksnummer</text><ellipse cx="140" cy="193.5824" fill="none" rx="3" ry="3" style="stroke:#038048;stroke-width:1.0;"/><text fill="#000000" font-family="sans-serif" font-size="14" lengthAdjust="spacing" textLength="109" x="149" y="197.3734">sakstittel: string</text><ellipse cx="140" cy="210.0707" fill="none" rx="3" ry="3" style="stroke:#038048;stroke-width:1.0;"/><text fill="#000000" font-family="sans-serif" font-size="14" lengthAdjust="spacing" textLength="140" x="149" y="213.8617">saksansvarlig: string</text><ellipse cx="140" cy="226.559" fill="none" rx="3" ry="3" style="stroke:#038048;stroke-width:1.0;"/><text fill="#000000" font-family="sans-serif" font-size="14" lengthAdjust="spacing" textLength="83" x="149" y="230.35">faser: Fase[]</text><line style="stroke:#181818;stroke-width:0.5;" x1="130" x2="339" y1="237.3031" y2="237.3031"/></g><!--class Fase--><g id="elem_Fase"><rect codeLine="13" fill="#F1F1F1" height="163.418" id="Fase" rx="2.5" ry="2.5" style="stroke:#181818;stroke-width:0.5;" width="199" x="448" y="106.62"/><ellipse cx="527.75" cy="122.62" fill="#ADD1B2" rx="11" ry="11" style="stroke:#181818;stroke-width:1.0;"/><path d="M530.2231,128.7631 Q529.6421,129.0619 529.0029,129.2113 Q528.3638,129.3607 527.6582,129.3607 Q525.1514,129.3607 523.8315,127.7089 Q522.5117,126.057 522.5117,122.9359 Q522.5117,119.8065 523.8315,118.1547 Q525.1514,116.5028 527.6582,116.5028 Q528.3638,116.5028 529.0112,116.6522 Q529.6587,116.8016 530.2231,117.1005 L530.2231,119.8231 Q529.5923,119.2421 528.9988,118.9723 Q528.4053,118.7025 527.7744,118.7025 Q526.4297,118.7025 525.7449,119.7692 Q525.0601,120.8358 525.0601,122.9359 Q525.0601,125.0277 525.7449,126.0944 Q526.4297,127.161 527.7744,127.161 Q528.4053,127.161 528.9988,126.8912 Q529.5923,126.6215 530.2231,126.0404 Z " fill="#000000"/><text fill="#000000" font-family="sans-serif" font-size="14" lengthAdjust="spacing" textLength="31" x="548.25" y="127.911">Fase</text><line style="stroke:#181818;stroke-width:0.5;" x1="449" x2="646" y1="138.62" y2="138.62"/><ellipse cx="459" cy="152.3641" fill="none" rx="3" ry="3" style="stroke:#038048;stroke-width:1.0;"/><text fill="#000000" font-family="sans-serif" font-size="14" lengthAdjust="spacing" textLength="109" x="468" y="156.1552">fasenavn: string</text><ellipse cx="459" cy="168.8524" fill="none" rx="3" ry="3" style="stroke:#038048;stroke-width:1.0;"/><text fill="#000000" font-family="sans-serif" font-size="14" lengthAdjust="spacing" textLength="89" x="468" y="172.6434">faseid: string</text><ellipse cx="459" cy="185.3407" fill="none" rx="3" ry="3" style="stroke:#038048;stroke-width:1.0;"/><text fill="#000000" font-family="sans-serif" font-size="14" lengthAdjust="spacing" textLength="153" x="468" y="189.1317">kategori: Fasekategori</text><ellipse cx="459" cy="201.829" fill="none" rx="3" ry="3" style="stroke:#038048;stroke-width:1.0;"/><text fill="#000000" font-family="sans-serif" font-size="14" lengthAdjust="spacing" textLength="131" x="468" y="205.62">milepeler: Milepel[]</text><ellipse cx="459" cy="218.3173" fill="none" rx="3" ry="3" style="stroke:#038048;stroke-width:1.0;"/><text fill="#000000" font-family="sans-serif" font-size="14" lengthAdjust="spacing" textLength="161" x="468" y="222.1083">status: FaseStatusEnum</text><ellipse cx="459" cy="234.8055" fill="none" rx="3" ry="3" style="stroke:#038048;stroke-width:1.0;"/><text fill="#000000" font-family="sans-serif" font-size="14" lengthAdjust="spacing" textLength="100" x="468" y="238.5966">vedtak: Vedtak</text><ellipse cx="459" cy="251.2938" fill="none" rx="3" ry="3" style="stroke:#038048;stroke-width:1.0;"/><text fill="#000000" font-family="sans-serif" font-size="14" lengthAdjust="spacing" textLength="173" x="468" y="255.0848">dokumenter: Dokument[]</text><line style="stroke:#181818;stroke-width:0.5;" x1="449" x2="646" y1="262.038" y2="262.038"/></g><!--class Saksnummer--><g id="elem_Saksnummer"><rect codeLine="122" fill="#F1F1F1" height="80.9766" id="Saksnummer" rx="2.5" ry="2.5" style="stroke:#181818;stroke-width:0.5;" width="225" x="7" y="428.97"/><ellipse cx="70.75" cy="444.97" fill="#ADD1B2" rx="11" ry="11" style="stroke:#181818;stroke-width:1.0;"/><path d="M73.2231,451.1131 Q72.6421,451.4119 72.0029,451.5613 Q71.3638,451.7107 70.6582,451.7107 Q68.1514,451.7107 66.8315,450.0589 Q65.5117,448.407 65.5117,445.2859 Q65.5117,442.1565 66.8315,440.5047 Q68.1514,438.8528 70.6582,438.8528 Q71.3638,438.8528 72.0112,439.0022 Q72.6587,439.1516 73.2231,439.4505 L73.2231,442.1731 Q72.5923,441.5921 71.9988,441.3223 Q71.4053,441.0525 70.7744,441.0525 Q69.4297,441.0525 68.7449,442.1192 Q68.0601,443.1858 68.0601,445.2859 Q68.0601,447.3777 68.7449,448.4444 Q69.4297,449.511 70.7744,449.511 Q71.4053,449.511 71.9988,449.2412 Q72.5923,448.9715 73.2231,448.3904 Z " fill="#000000"/><text fill="#000000" font-family="sans-serif" font-size="14" lengthAdjust="spacing" textLength="89" x="91.25" y="450.261">Saksnummer</text><line style="stroke:#181818;stroke-width:0.5;" x1="8" x2="231" y1="460.97" y2="460.97"/><ellipse cx="18" cy="474.7141" fill="none" rx="3" ry="3" style="stroke:#038048;stroke-width:1.0;"/><text fill="#000000" font-family="sans-serif" font-size="14" lengthAdjust="spacing" textLength="109" x="27" y="478.5052">saksaar: integer</text><ellipse cx="18" cy="491.2024" fill="none" rx="3" ry="3" style="stroke:#038048;stroke-width:1.0;"/><text fill="#000000" font-family="sans-serif" font-size="14" lengthAdjust="spacing" textLength="199" x="27" y="494.9934">sakssekvensnummer: integer</text><line style="stroke:#181818;stroke-width:0.5;" x1="8" x2="231" y1="501.9466" y2="501.9466"/></g><g id="elem_GMN7"><path d="M274.5,6 L274.5,46.6211 A0,0 0 0 0 274.5,46.6211 L543.5,46.6211 L547.5,106.47 L551.5,46.6211 L820.5,46.6211 A0,0 0 0 0 820.5,46.6211 L820.5,16 L810.5,6 L274.5,6 A0,0 0 0 0 274.5,6 " fill="#FEFFDD" style="stroke:#181818;stroke-width:0.5;"/><path d="M810.5,6 L810.5,16 L820.5,16 L810.5,6 " fill="#FEFFDD" style="stroke:#181818;stroke-width:0.5;"/><text fill="#000000" font-family="sans-serif" font-size="13" lengthAdjust="spacing" textLength="369" x="280.5" y="23.5684">En fase er i hovedsak det som hender mellom to milepeler.</text><text fill="#000000" font-family="sans-serif" font-size="13" lengthAdjust="spacing" textLength="525" x="280.5" y="38.8789">Interne faser sendes ikke ut ved denne protokollen. Vi kutter derfor ut Global flagg.</text></g><path d="M682,163.02 L682,179.3305 L557,167.3524 L682,187.3305 L682,203.6411 A0,0 0 0 0 682,203.6411 L1203,203.6411 A0,0 0 0 0 1203,203.6411 L1203,173.02 L1193,163.02 L682,163.02 A0,0 0 0 0 682,163.02 " fill="#FEFFDD" style="stroke:#181818;stroke-width:0.5;"/><path d="M1193,163.02 L1193,173.02 L1203,173.02 L1193,163.02 " fill="#FEFFDD" style="stroke:#181818;stroke-width:0.5;"/><text fill="#000000" font-family="sans-serif" font-size="13" lengthAdjust="spacing" textLength="500" x="688" y="180.5884">Faseid brukes alene (ikke sammen med saksnummer) for &#229; hente en enkelt fase</text><text fill="#000000" font-family="sans-serif" font-size="13" lengthAdjust="spacing" textLength="165" x="688" y="195.8989">Den m&#229; dermed v&#230;re unik</text><!--class Fasekategori--><g id="elem_Fasekategori"><rect codeLine="28" fill="#F1F1F1" height="89.5977" id="Fasekategori" rx="2.5" ry="2.5" style="stroke:#181818;stroke-width:0.5;" width="184" x="267.5" y="424.66"/><ellipse cx="311.3" cy="444.9705" fill="#ADD1B2" rx="11" ry="11" style="stroke:#181818;stroke-width:1.0;"/><path d="M313.7731,451.1136 Q313.1921,451.4124 312.5529,451.5619 Q311.9138,451.7113 311.2082,451.7113 Q308.7014,451.7113 307.3815,450.0594 Q306.0617,448.4076 306.0617,445.2865 Q306.0617,442.1571 307.3815,440.5052 Q308.7014,438.8534 311.2082,438.8534 Q311.9138,438.8534 312.5612,439.0028 Q313.2087,439.1522 313.7731,439.451 L313.7731,442.1737 Q313.1423,441.5926 312.5488,441.3228 Q311.9553,441.0531 311.3244,441.0531 Q309.9797,441.0531 309.2949,442.1197 Q308.6101,443.1864 308.6101,445.2865 Q308.6101,447.3783 309.2949,448.4449 Q309.9797,449.5116 311.3244,449.5116 Q311.9553,449.5116 312.5488,449.2418 Q313.1423,448.972 313.7731,448.391 Z " fill="#000000"/><text fill="#000000" font-family="sans-serif" font-size="12" font-style="italic" lengthAdjust="spacing" textLength="42" x="354.7" y="441.2616">&#171;Kode&#187;</text><text fill="#000000" font-family="sans-serif" font-size="14" lengthAdjust="spacing" textLength="88" x="331.7" y="457.328">Fasekategori</text><line style="stroke:#181818;stroke-width:0.5;" x1="268.5" x2="450.5" y1="465.2811" y2="465.2811"/><ellipse cx="278.5" cy="479.0252" fill="none" rx="3" ry="3" style="stroke:#038048;stroke-width:1.0;"/><text fill="#000000" font-family="sans-serif" font-size="14" lengthAdjust="spacing" textLength="116" x="287.5" y="482.8162">kodeverdi: string</text><ellipse cx="278.5" cy="495.5135" fill="none" rx="3" ry="3" style="stroke:#038048;stroke-width:1.0;"/><text fill="#000000" font-family="sans-serif" font-size="14" lengthAdjust="spacing" textLength="158" x="287.5" y="499.3045">kodebeskrivelse: string</text><line style="stroke:#181818;stroke-width:0.5;" x1="268.5" x2="450.5" y1="506.2577" y2="506.2577"/></g><g id="elem_GMN13"><path d="M191.5,683.16 L191.5,785.0233 A0,0 0 0 0 191.5,785.0233 L517.5,785.0233 A0,0 0 0 0 517.5,785.0233 L517.5,693.16 L507.5,683.16 L359.46,683.16 L358.66,514.71 L351.46,683.16 L191.5,683.16 A0,0 0 0 0 191.5,683.16 " fill="#FEFFDD" style="stroke:#181818;stroke-width:0.5;"/><path d="M507.5,683.16 L507.5,693.16 L517.5,693.16 L507.5,683.16 " fill="#FEFFDD" style="stroke:#181818;stroke-width:0.5;"/><text fill="#000000" font-family="sans-serif" font-size="13" lengthAdjust="spacing" textLength="305" x="197.5" y="700.7284">Se gjerne Byggesaksbehandling::Prosesskategori</text><text fill="#000000" font-family="sans-serif" font-size="13" lengthAdjust="spacing" textLength="45" x="201.5" y="716.0389">fra NPS</text><text fill="#000000" font-family="sans-serif" font-size="13" lengthAdjust="spacing" textLength="210" x="197.5" y="731.3495">Vi m&#229; f&#229; avklart denne kodelisten</text><text fill="#000000" font-family="sans-serif" font-size="13" lengthAdjust="spacing" textLength="69" x="197.5" y="746.66">Eksempler:</text><text fill="#000000" font-family="sans-serif" font-size="13" lengthAdjust="spacing" textLength="34" x="197.5" y="761.9705">Klage</text><text fill="#000000" font-family="sans-serif" font-size="13" lengthAdjust="spacing" textLength="43" x="197.5" y="777.2811">H&#248;ring</text></g><!--class Vedtak--><g id="elem_Vedtak"><rect codeLine="41" fill="#F1F1F1" height="89.5977" id="Vedtak" rx="2.5" ry="2.5" style="stroke:#181818;stroke-width:0.5;" width="184" x="1194.5" y="424.66"/><ellipse cx="1258.75" cy="444.9705" fill="#ADD1B2" rx="11" ry="11" style="stroke:#181818;stroke-width:1.0;"/><path d="M1261.2231,451.1136 Q1260.6421,451.4124 1260.0029,451.5619 Q1259.3638,451.7113 1258.6582,451.7113 Q1256.1514,451.7113 1254.8315,450.0594 Q1253.5117,448.4076 1253.5117,445.2865 Q1253.5117,442.1571 1254.8315,440.5052 Q1256.1514,438.8534 1258.6582,438.8534 Q1259.3638,438.8534 1260.0112,439.0028 Q1260.6587,439.1522 1261.2231,439.451 L1261.2231,442.1737 Q1260.5923,441.5926 1259.9988,441.3228 Q1259.4053,441.0531 1258.7744,441.0531 Q1257.4297,441.0531 1256.7449,442.1197 Q1256.0601,443.1864 1256.0601,445.2865 Q1256.0601,447.3783 1256.7449,448.4449 Q1257.4297,449.5116 1258.7744,449.5116 Q1259.4053,449.5116 1259.9988,449.2418 Q1260.5923,448.972 1261.2231,448.391 Z " fill="#000000"/><text fill="#000000" font-family="sans-serif" font-size="12" font-style="italic" lengthAdjust="spacing" textLength="42" x="1281.75" y="441.2616">&#171;Kode&#187;</text><text fill="#000000" font-family="sans-serif" font-size="14" lengthAdjust="spacing" textLength="47" x="1279.25" y="457.328">Vedtak</text><line style="stroke:#181818;stroke-width:0.5;" x1="1195.5" x2="1377.5" y1="465.2811" y2="465.2811"/><ellipse cx="1205.5" cy="479.0252" fill="none" rx="3" ry="3" style="stroke:#038048;stroke-width:1.0;"/><text fill="#000000" font-family="sans-serif" font-size="14" lengthAdjust="spacing" textLength="116" x="1214.5" y="482.8162">kodeverdi: string</text><ellipse cx="1205.5" cy="495.5135" fill="none" rx="3" ry="3" style="stroke:#038048;stroke-width:1.0;"/><text fill="#000000" font-family="sans-serif" font-size="14" lengthAdjust="spacing" textLength="158" x="1214.5" y="499.3045">kodebeskrivelse: string</text><line style="stroke:#181818;stroke-width:0.5;" x1="1195.5" x2="1377.5" y1="506.2577" y2="506.2577"/></g><g id="elem_GMN19"><path d="M1238.5,145.05 L1238.5,231.6027 A0,0 0 0 0 1238.5,231.6027 L1291.82,231.6027 L1288.24,424.38 L1299.82,231.6027 L1356.5,231.6027 A0,0 0 0 0 1356.5,231.6027 L1356.5,155.05 L1346.5,145.05 L1238.5,145.05 A0,0 0 0 0 1238.5,145.05 " fill="#FEFFDD" style="stroke:#181818;stroke-width:0.5;"/><path d="M1346.5,145.05 L1346.5,155.05 L1356.5,155.05 L1346.5,145.05 " fill="#FEFFDD" style="stroke:#181818;stroke-width:0.5;"/><text fill="#000000" font-family="sans-serif" font-size="13" lengthAdjust="spacing" textLength="69" x="1244.5" y="162.6184">Eksempler:</text><text fill="#000000" font-family="sans-serif" font-size="13" lengthAdjust="spacing" textLength="56" x="1244.5" y="177.9289">godkjent</text><text fill="#000000" font-family="sans-serif" font-size="13" lengthAdjust="spacing" textLength="97" x="1244.5" y="193.2395">delvis godkjent</text><text fill="#000000" font-family="sans-serif" font-size="13" lengthAdjust="spacing" textLength="42" x="1244.5" y="208.55">avsl&#229;tt</text><text fill="#000000" font-family="sans-serif" font-size="13" lengthAdjust="spacing" textLength="37" x="1244.5" y="223.8605">avvist</text></g><!--class FaseStatusEnum--><g id="elem_FaseStatusEnum"><rect codeLine="48" fill="#F1F1F1" height="97.4648" id="FaseStatusEnum" rx="2.5" ry="2.5" style="stroke:#181818;stroke-width:0.5;" width="144" x="486.5" y="420.72"/><ellipse cx="501.5" cy="436.72" fill="#EB937F" rx="11" ry="11" style="stroke:#181818;stroke-width:1.0;"/><path d="M505.1143,443.22 L497.3945,443.22 L497.3945,430.8269 L505.1143,430.8269 L505.1143,432.9851 L499.8433,432.9851 L499.8433,435.658 L504.6162,435.658 L504.6162,437.8162 L499.8433,437.8162 L499.8433,441.0618 L505.1143,441.0618 Z " fill="#000000"/><text fill="#000000" font-family="sans-serif" font-size="14" lengthAdjust="spacing" textLength="112" x="515.5" y="442.011">FaseStatusEnum</text><line style="stroke:#181818;stroke-width:0.5;" x1="487.5" x2="629.5" y1="452.72" y2="452.72"/><ellipse cx="497.5" cy="466.4641" fill="none" rx="3" ry="3" style="stroke:#038048;stroke-width:1.0;"/><text fill="#000000" font-family="sans-serif" font-size="14" lengthAdjust="spacing" textLength="55" x="506.5" y="470.2552">Planlagt</text><ellipse cx="497.5" cy="482.9524" fill="none" rx="3" ry="3" style="stroke:#038048;stroke-width:1.0;"/><text fill="#000000" font-family="sans-serif" font-size="14" lengthAdjust="spacing" textLength="88" x="506.5" y="486.7434">UnderArbeid</text><ellipse cx="497.5" cy="499.4407" fill="none" rx="3" ry="3" style="stroke:#038048;stroke-width:1.0;"/><text fill="#000000" font-family="sans-serif" font-size="14" lengthAdjust="spacing" textLength="48" x="506.5" y="503.2317">Utfoert</text><line style="stroke:#181818;stroke-width:0.5;" x1="487.5" x2="629.5" y1="510.1848" y2="510.1848"/></g><!--class Milepel--><g id="elem_Milepel"><rect codeLine="58" fill="#F1F1F1" height="278.8359" id="Milepel" rx="2.5" ry="2.5" style="stroke:#181818;stroke-width:0.5;" width="325" x="675" y="330.04"/><ellipse cx="808.75" cy="346.04" fill="#ADD1B2" rx="11" ry="11" style="stroke:#181818;stroke-width:1.0;"/><path d="M811.2231,352.1831 Q810.6421,352.4819 810.0029,352.6313 Q809.3638,352.7807 808.6582,352.7807 Q806.1514,352.7807 804.8315,351.1289 Q803.5117,349.477 803.5117,346.3559 Q803.5117,343.2265 804.8315,341.5747 Q806.1514,339.9228 808.6582,339.9228 Q809.3638,339.9228 810.0112,340.0722 Q810.6587,340.2216 811.2231,340.5205 L811.2231,343.2431 Q810.5923,342.6621 809.9988,342.3923 Q809.4053,342.1225 808.7744,342.1225 Q807.4297,342.1225 806.7449,343.1892 Q806.0601,344.2558 806.0601,346.3559 Q806.0601,348.4477 806.7449,349.5144 Q807.4297,350.581 808.7744,350.581 Q809.4053,350.581 809.9988,350.3112 Q810.5923,350.0415 811.2231,349.4604 Z " fill="#000000"/><text fill="#000000" font-family="sans-serif" font-size="14" lengthAdjust="spacing" textLength="49" x="829.25" y="351.331">Milepel</text><line style="stroke:#181818;stroke-width:0.5;" x1="676" x2="999" y1="362.04" y2="362.04"/><ellipse cx="686" cy="375.7841" fill="none" rx="3" ry="3" style="stroke:#038048;stroke-width:1.0;"/><text fill="#000000" font-family="sans-serif" font-size="14" lengthAdjust="spacing" textLength="108" x="695" y="379.5752">systemId: string</text><ellipse cx="686" cy="392.2724" fill="none" rx="3" ry="3" style="stroke:#038048;stroke-width:1.0;"/><text fill="#000000" font-family="sans-serif" font-size="14" lengthAdjust="spacing" textLength="124" x="695" y="396.0634">beskrivelse: string</text><ellipse cx="686" cy="408.7607" fill="none" rx="3" ry="3" style="stroke:#038048;stroke-width:1.0;"/><text fill="#000000" font-family="sans-serif" font-size="14" lengthAdjust="spacing" textLength="143" x="695" y="412.5517">kategori: Milepeltype</text><ellipse cx="686" cy="425.249" fill="none" rx="3" ry="3" style="stroke:#038048;stroke-width:1.0;"/><text fill="#000000" font-family="sans-serif" font-size="14" lengthAdjust="spacing" textLength="65" x="695" y="429.04">frist: date</text><ellipse cx="686" cy="441.7373" fill="none" rx="3" ry="3" style="stroke:#038048;stroke-width:1.0;"/><text fill="#000000" font-family="sans-serif" font-size="14" lengthAdjust="spacing" textLength="85" x="695" y="445.5283">utfoert: date</text><ellipse cx="686" cy="458.2255" fill="none" rx="3" ry="3" style="stroke:#038048;stroke-width:1.0;"/><text fill="#000000" font-family="sans-serif" font-size="14" lengthAdjust="spacing" textLength="118" x="695" y="462.0166">journaldato: date</text><ellipse cx="686" cy="474.7138" fill="none" rx="3" ry="3" style="stroke:#038048;stroke-width:1.0;"/><text fill="#000000" font-family="sans-serif" font-size="14" lengthAdjust="spacing" textLength="105" x="695" y="478.5048">intern: boolean</text><ellipse cx="686" cy="491.2021" fill="none" rx="3" ry="3" style="stroke:#038048;stroke-width:1.0;"/><text fill="#000000" font-family="sans-serif" font-size="14" lengthAdjust="spacing" textLength="299" x="695" y="494.9931">referanseJournalpost: ReferanseJournalpost</text><ellipse cx="686" cy="507.6904" fill="none" rx="3" ry="3" style="stroke:#038048;stroke-width:1.0;"/><text fill="#000000" font-family="sans-serif" font-size="14" lengthAdjust="spacing" textLength="184" x="695" y="511.4814">referanseDokument: string</text><ellipse cx="686" cy="524.1787" fill="none" rx="3" ry="3" style="stroke:#038048;stroke-width:1.0;"/><text fill="#000000" font-family="sans-serif" font-size="14" lengthAdjust="spacing" textLength="110" x="695" y="527.9697">erStart: boolean</text><ellipse cx="686" cy="540.667" fill="none" rx="3" ry="3" style="stroke:#038048;stroke-width:1.0;"/><text fill="#000000" font-family="sans-serif" font-size="14" lengthAdjust="spacing" textLength="109" x="695" y="544.458">erSlutt: boolean</text><ellipse cx="686" cy="557.1552" fill="none" rx="3" ry="3" style="stroke:#038048;stroke-width:1.0;"/><text fill="#000000" font-family="sans-serif" font-size="14" lengthAdjust="spacing" textLength="179" x="695" y="560.9463">status: MilepelStatusEnum</text><ellipse cx="686" cy="573.6435" fill="none" rx="3" ry="3" style="stroke:#038048;stroke-width:1.0;"/><text fill="#000000" font-family="sans-serif" font-size="14" lengthAdjust="spacing" textLength="122" x="695" y="577.4345">erGlobal: boolean</text><ellipse cx="686" cy="590.1318" fill="none" rx="3" ry="3" style="stroke:#038048;stroke-width:1.0;"/><text fill="#000000" font-family="sans-serif" font-size="14" lengthAdjust="spacing" textLength="173" x="695" y="593.9228">dokumenter: Dokument[]</text><line style="stroke:#181818;stroke-width:0.5;" x1="676" x2="999" y1="600.8759" y2="600.8759"/></g><g id="elem_GMN26"><path d="M1373,721.44 L1373,746.7505 L1572,746.7505 L1572,731.44 L1562,721.44 L1373,721.44 " fill="#FEFFDD" style="stroke:#181818;stroke-width:0.5;"/><path d="M1562,721.44 L1562,731.44 L1572,731.44 L1562,721.44 " fill="#FEFFDD" style="stroke:#181818;stroke-width:1.0;"/><text fill="#000000" font-family="sans-serif" font-size="13" lengthAdjust="spacing" textLength="178" x="1379" y="739.0084">frist og utfoert ikke p&#229;krevd</text></g><!--class MilepelStatusEnum--><g id="elem_MilepelStatusEnum"><rect codeLine="117" fill="#F1F1F1" height="80.9766" id="MilepelStatusEnum" rx="2.5" ry="2.5" style="stroke:#181818;stroke-width:0.5;" width="162" x="552.5" y="693.61"/><ellipse cx="567.5" cy="709.61" fill="#EB937F" rx="11" ry="11" style="stroke:#181818;stroke-width:1.0;"/><path d="M571.1143,716.11 L563.3945,716.11 L563.3945,703.7169 L571.1143,703.7169 L571.1143,705.8751 L565.8433,705.8751 L565.8433,708.548 L570.6162,708.548 L570.6162,710.7062 L565.8433,710.7062 L565.8433,713.9518 L571.1143,713.9518 Z " fill="#000000"/><text fill="#000000" font-family="sans-serif" font-size="14" lengthAdjust="spacing" textLength="130" x="581.5" y="714.901">MilepelStatusEnum</text><line style="stroke:#181818;stroke-width:0.5;" x1="553.5" x2="713.5" y1="725.61" y2="725.61"/><ellipse cx="563.5" cy="739.3541" fill="none" rx="3" ry="3" style="stroke:#038048;stroke-width:1.0;"/><text fill="#000000" font-family="sans-serif" font-size="14" lengthAdjust="spacing" textLength="36" x="572.5" y="743.1452">N&#229;dd</text><ellipse cx="563.5" cy="755.8424" fill="none" rx="3" ry="3" style="stroke:#038048;stroke-width:1.0;"/><text fill="#000000" font-family="sans-serif" font-size="14" lengthAdjust="spacing" textLength="55" x="572.5" y="759.6334">Planlagt</text><line style="stroke:#181818;stroke-width:0.5;" x1="553.5" x2="713.5" y1="766.5866" y2="766.5866"/></g><!--class Milepeltype--><g id="elem_Milepeltype"><rect codeLine="112" fill="#F1F1F1" height="89.5977" id="Milepeltype" rx="2.5" ry="2.5" style="stroke:#181818;stroke-width:0.5;" width="184" x="749.5" y="689.3"/><ellipse cx="798.25" cy="709.6105" fill="#ADD1B2" rx="11" ry="11" style="stroke:#181818;stroke-width:1.0;"/><path d="M800.7231,715.7536 Q800.1421,716.0524 799.5029,716.2019 Q798.8638,716.3513 798.1582,716.3513 Q795.6514,716.3513 794.3315,714.6994 Q793.0117,713.0476 793.0117,709.9265 Q793.0117,706.7971 794.3315,705.1452 Q795.6514,703.4934 798.1582,703.4934 Q798.8638,703.4934 799.5112,703.6428 Q800.1587,703.7922 800.7231,704.091 L800.7231,706.8137 Q800.0923,706.2326 799.4988,705.9628 Q798.9053,705.6931 798.2744,705.6931 Q796.9297,705.6931 796.2449,706.7597 Q795.5601,707.8264 795.5601,709.9265 Q795.5601,712.0183 796.2449,713.0849 Q796.9297,714.1516 798.2744,714.1516 Q798.9053,714.1516 799.4988,713.8818 Q800.0923,713.612 800.7231,713.031 Z " fill="#000000"/><text fill="#000000" font-family="sans-serif" font-size="12" font-style="italic" lengthAdjust="spacing" textLength="42" x="836.75" y="705.9016">&#171;Kode&#187;</text><text fill="#000000" font-family="sans-serif" font-size="14" lengthAdjust="spacing" textLength="78" x="818.75" y="721.968">Milepeltype</text><line style="stroke:#181818;stroke-width:0.5;" x1="750.5" x2="932.5" y1="729.9211" y2="729.9211"/><ellipse cx="760.5" cy="743.6652" fill="none" rx="3" ry="3" style="stroke:#038048;stroke-width:1.0;"/><text fill="#000000" font-family="sans-serif" font-size="14" lengthAdjust="spacing" textLength="116" x="769.5" y="747.4563">kodeverdi: string</text><ellipse cx="760.5" cy="760.1535" fill="none" rx="3" ry="3" style="stroke:#038048;stroke-width:1.0;"/><text fill="#000000" font-family="sans-serif" font-size="14" lengthAdjust="spacing" textLength="158" x="769.5" y="763.9445">kodebeskrivelse: string</text><line style="stroke:#181818;stroke-width:0.5;" x1="750.5" x2="932.5" y1="770.8977" y2="770.8977"/></g><g id="elem_GMN33"><path d="M613,872.43 L613,943.6722 A0,0 0 0 0 613,943.6722 L842,943.6722 A0,0 0 0 0 842,943.6722 L842,882.43 L832,872.43 L754.65,872.43 L812.14,779.38 L746.65,872.43 L613,872.43 A0,0 0 0 0 613,872.43 " fill="#FEFFDD" style="stroke:#181818;stroke-width:0.5;"/><path d="M832,872.43 L832,882.43 L842,882.43 L832,872.43 " fill="#FEFFDD" style="stroke:#181818;stroke-width:0.5;"/><text fill="#000000" font-family="sans-serif" font-size="13" lengthAdjust="spacing" textLength="69" x="619" y="889.9984">Eksempler:</text><text fill="#000000" font-family="sans-serif" font-size="13" lengthAdjust="spacing" textLength="201" x="619" y="905.3089">Bestilling av oppstartsm&#248;te (BO)</text><text fill="#000000" font-family="sans-serif" font-size="13" lengthAdjust="spacing" textLength="208" x="619" y="920.6195">Gjennomf&#248;rt oppstartsm&#248;te (OM)</text><text fill="#000000" font-family="sans-serif" font-size="13" lengthAdjust="spacing" textLength="137" x="619" y="935.93">Mottak av planforslag</text></g><!--class ReferanseJournalpost--><g id="elem_ReferanseJournalpost"><rect codeLine="82" fill="#F1F1F1" height="130.4414" id="ReferanseJournalpost" rx="2.5" ry="2.5" style="stroke:#181818;stroke-width:0.5;" width="369" x="969" y="668.87"/><ellipse cx="1075.75" cy="684.87" fill="#ADD1B2" rx="11" ry="11" style="stroke:#181818;stroke-width:1.0;"/><path d="M1078.2231,691.0131 Q1077.6421,691.3119 1077.0029,691.4613 Q1076.3638,691.6107 1075.6582,691.6107 Q1073.1514,691.6107 1071.8315,689.9589 Q1070.5117,688.307 1070.5117,685.1859 Q1070.5117,682.0565 1071.8315,680.4047 Q1073.1514,678.7528 1075.6582,678.7528 Q1076.3638,678.7528 1077.0112,678.9022 Q1077.6587,679.0516 1078.2231,679.3505 L1078.2231,682.0731 Q1077.5923,681.4921 1076.9988,681.2223 Q1076.4053,680.9525 1075.7744,680.9525 Q1074.4297,680.9525 1073.7449,682.0192 Q1073.0601,683.0858 1073.0601,685.1859 Q1073.0601,687.2777 1073.7449,688.3444 Q1074.4297,689.411 1075.7744,689.411 Q1076.4053,689.411 1076.9988,689.1412 Q1077.5923,688.8715 1078.2231,688.2904 Z " fill="#000000"/><text fill="#000000" font-family="sans-serif" font-size="14" lengthAdjust="spacing" textLength="147" x="1096.25" y="690.161">ReferanseJournalpost</text><line style="stroke:#181818;stroke-width:0.5;" x1="970" x2="1337" y1="700.87" y2="700.87"/><ellipse cx="980" cy="714.6141" fill="none" rx="3" ry="3" style="stroke:#038048;stroke-width:1.0;"/><text fill="#000000" font-family="sans-serif" font-size="14" lengthAdjust="spacing" textLength="108" x="989" y="718.4052">systemId: string</text><ellipse cx="980" cy="731.1024" fill="none" rx="3" ry="3" style="stroke:#038048;stroke-width:1.0;"/><text fill="#000000" font-family="sans-serif" font-size="14" lengthAdjust="spacing" textLength="150" x="989" y="734.8934">registreringsID: string</text><ellipse cx="980" cy="747.5907" fill="none" rx="3" ry="3" style="stroke:#038048;stroke-width:1.0;"/><text fill="#000000" font-family="sans-serif" font-size="14" lengthAdjust="spacing" textLength="222" x="989" y="751.3817">journalnummer: Journalnummer</text><ellipse cx="980" cy="764.079" fill="none" rx="3" ry="3" style="stroke:#038048;stroke-width:1.0;"/><text fill="#000000" font-family="sans-serif" font-size="14" lengthAdjust="spacing" textLength="343" x="989" y="767.87">saksJournalpostnummer: SaksJournalpostnummer</text><ellipse cx="980" cy="780.5673" fill="none" rx="3" ry="3" style="stroke:#038048;stroke-width:1.0;"/><text fill="#000000" font-family="sans-serif" font-size="14" lengthAdjust="spacing" textLength="285" x="989" y="784.3583">referanseEksternNoekkel: EksternNoekkel</text><line style="stroke:#181818;stroke-width:0.5;" x1="970" x2="1337" y1="791.3114" y2="791.3114"/></g><!--class Dokument--><g id="elem_Dokument"><rect fill="#F1F1F1" height="48" id="Dokument" rx="2.5" ry="2.5" style="stroke:#181818;stroke-width:0.5;" width="103" x="1035" y="445.46"/><ellipse cx="1050" cy="461.46" fill="#ADD1B2" rx="11" ry="11" style="stroke:#181818;stroke-width:1.0;"/><path d="M1052.4731,467.6031 Q1051.8921,467.9019 1051.2529,468.0513 Q1050.6138,468.2007 1049.9082,468.2007 Q1047.4014,468.2007 1046.0815,466.5489 Q1044.7617,464.897 1044.7617,461.7759 Q1044.7617,458.6465 1046.0815,456.9947 Q1047.4014,455.3428 1049.9082,455.3428 Q1050.6138,455.3428 1051.2612,455.4922 Q1051.9087,455.6416 1052.4731,455.9405 L1052.4731,458.6631 Q1051.8423,458.0821 1051.2488,457.8123 Q1050.6553,457.5425 1050.0244,457.5425 Q1048.6797,457.5425 1047.9949,458.6092 Q1047.3101,459.6758 1047.3101,461.7759 Q1047.3101,463.8677 1047.9949,464.9344 Q1048.6797,466.001 1050.0244,466.001 Q1050.6553,466.001 1051.2488,465.7312 Q1051.8423,465.4615 1052.4731,464.8804 Z " fill="#000000"/><text fill="#000000" font-family="sans-serif" font-size="14" lengthAdjust="spacing" textLength="71" x="1064" y="466.751">Dokument</text><line style="stroke:#181818;stroke-width:0.5;" x1="1036" x2="1137" y1="477.46" y2="477.46"/><line style="stroke:#181818;stroke-width:0.5;" x1="1036" x2="1137" y1="485.46" y2="485.46"/></g><!--class EksternNoekkel--><g id="elem_EksternNoekkel"><rect codeLine="107" fill="#F1F1F1" height="80.9766" id="EksternNoekkel" rx="2.5" ry="2.5" style="stroke:#181818;stroke-width:0.5;" width="143" x="1426" y="867.56"/><ellipse cx="1443.25" cy="883.56" fill="#ADD1B2" rx="11" ry="11" style="stroke:#181818;stroke-width:1.0;"/><path d="M1445.7231,889.7031 Q1445.1421,890.0019 1444.5029,890.1513 Q1443.8638,890.3007 1443.1582,890.3007 Q1440.6514,890.3007 1439.3315,888.6489 Q1438.0117,886.997 1438.0117,883.8759 Q1438.0117,880.7465 1439.3315,879.0947 Q1440.6514,877.4428 1443.1582,877.4428 Q1443.8638,877.4428 1444.5112,877.5922 Q1445.1587,877.7416 1445.7231,878.0405 L1445.7231,880.7631 Q1445.0923,880.1821 1444.4988,879.9123 Q1443.9053,879.6425 1443.2744,879.6425 Q1441.9297,879.6425 1441.2449,880.7092 Q1440.5601,881.7758 1440.5601,883.8759 Q1440.5601,885.9677 1441.2449,887.0344 Q1441.9297,888.101 1443.2744,888.101 Q1443.9053,888.101 1444.4988,887.8312 Q1445.0923,887.5615 1445.7231,886.9804 Z " fill="#000000"/><text fill="#000000" font-family="sans-serif" font-size="14" lengthAdjust="spacing" textLength="106" x="1457.75" y="888.851">EksternNoekkel</text><line style="stroke:#181818;stroke-width:0.5;" x1="1427" x2="1568" y1="899.56" y2="899.56"/><ellipse cx="1437" cy="913.3041" fill="none" rx="3" ry="3" style="stroke:#038048;stroke-width:1.0;"/><text fill="#000000" font-family="sans-serif" font-size="14" lengthAdjust="spacing" textLength="117" x="1446" y="917.0952">fagsystem: string</text><ellipse cx="1437" cy="929.7924" fill="none" rx="3" ry="3" style="stroke:#038048;stroke-width:1.0;"/><text fill="#000000" font-family="sans-serif" font-size="14" lengthAdjust="spacing" textLength="102" x="1446" y="933.5834">noekkel: string</text><line style="stroke:#181818;stroke-width:0.5;" x1="1427" x2="1568" y1="940.5366" y2="940.5366"/></g><!--class SaksJournalpostnummer--><g id="elem_SaksJournalpostnummer"><rect codeLine="96" fill="#F1F1F1" height="97.4648" id="SaksJournalpostnummer" rx="2.5" ry="2.5" style="stroke:#181818;stroke-width:0.5;" width="230" x="877.5" y="859.32"/><ellipse cx="906" cy="875.32" fill="#ADD1B2" rx="11" ry="11" style="stroke:#181818;stroke-width:1.0;"/><path d="M908.4731,881.4631 Q907.8921,881.7619 907.2529,881.9113 Q906.6138,882.0607 905.9082,882.0607 Q903.4014,882.0607 902.0815,880.4089 Q900.7617,878.757 900.7617,875.6359 Q900.7617,872.5065 902.0815,870.8547 Q903.4014,869.2028 905.9082,869.2028 Q906.6138,869.2028 907.2612,869.3522 Q907.9087,869.5016 908.4731,869.8005 L908.4731,872.5231 Q907.8423,871.9421 907.2488,871.6723 Q906.6553,871.4025 906.0244,871.4025 Q904.6797,871.4025 903.9949,872.4692 Q903.3101,873.5358 903.3101,875.6359 Q903.3101,877.7277 903.9949,878.7944 Q904.6797,879.861 906.0244,879.861 Q906.6553,879.861 907.2488,879.5912 Q907.8423,879.3215 908.4731,878.7404 Z " fill="#000000"/><text fill="#000000" font-family="sans-serif" font-size="14" lengthAdjust="spacing" textLength="168" x="923" y="880.611">SaksJournalpostnummer</text><line style="stroke:#181818;stroke-width:0.5;" x1="878.5" x2="1106.5" y1="891.32" y2="891.32"/><ellipse cx="888.5" cy="905.0641" fill="none" rx="3" ry="3" style="stroke:#038048;stroke-width:1.0;"/><text fill="#000000" font-family="sans-serif" font-size="14" lengthAdjust="spacing" textLength="114" x="897.5" y="908.8552">saksaar: number</text><ellipse cx="888.5" cy="921.5524" fill="none" rx="3" ry="3" style="stroke:#038048;stroke-width:1.0;"/><text fill="#000000" font-family="sans-serif" font-size="14" lengthAdjust="spacing" textLength="204" x="897.5" y="925.3434">sakssekvensnummer: number</text><ellipse cx="888.5" cy="938.0407" fill="none" rx="3" ry="3" style="stroke:#038048;stroke-width:1.0;"/><text fill="#000000" font-family="sans-serif" font-size="14" lengthAdjust="spacing" textLength="199" x="897.5" y="941.8317">journalpostnummer: number</text><line style="stroke:#181818;stroke-width:0.5;" x1="878.5" x2="1106.5" y1="948.7848" y2="948.7848"/></g><!--class Journalnummer--><g id="elem_Journalnummer"><rect codeLine="102" fill="#F1F1F1" height="80.9766" id="Journalnummer" rx="2.5" ry="2.5" style="stroke:#181818;stroke-width:0.5;" width="249" x="1142" y="867.56"/><ellipse cx="1208.75" cy="883.56" fill="#ADD1B2" rx="11" ry="11" style="stroke:#181818;stroke-width:1.0;"/><path d="M1211.2231,889.7031 Q1210.6421,890.0019 1210.0029,890.1513 Q1209.3638,890.3007 1208.6582,890.3007 Q1206.1514,890.3007 1204.8315,888.6489 Q1203.5117,886.997 1203.5117,883.8759 Q1203.5117,880.7465 1204.8315,879.0947 Q1206.1514,877.4428 1208.6582,877.4428 Q1209.3638,877.4428 1210.0112,877.5922 Q1210.6587,877.7416 1211.2231,878.0405 L1211.2231,880.7631 Q1210.5923,880.1821 1209.9988,879.9123 Q1209.4053,879.6425 1208.7744,879.6425 Q1207.4297,879.6425 1206.7449,880.7092 Q1206.0601,881.7758 1206.0601,883.8759 Q1206.0601,885.9677 1206.7449,887.0344 Q1207.4297,888.101 1208.7744,888.101 Q1209.4053,888.101 1209.9988,887.8312 Q1210.5923,887.5615 1211.2231,886.9804 Z " fill="#000000"/><text fill="#000000" font-family="sans-serif" font-size="14" lengthAdjust="spacing" textLength="107" x="1229.25" y="888.851">Journalnummer</text><line style="stroke:#181818;stroke-width:0.5;" x1="1143" x2="1390" y1="899.56" y2="899.56"/><ellipse cx="1153" cy="913.3041" fill="none" rx="3" ry="3" style="stroke:#038048;stroke-width:1.0;"/><text fill="#000000" font-family="sans-serif" font-size="14" lengthAdjust="spacing" textLength="133" x="1162" y="917.0952">journalaar: number</text><ellipse cx="1153" cy="929.7924" fill="none" rx="3" ry="3" style="stroke:#038048;stroke-width:1.0;"/><text fill="#000000" font-family="sans-serif" font-size="14" lengthAdjust="spacing" textLength="223" x="1162" y="933.5834">journalsekvensnummer: number</text><line style="stroke:#181818;stroke-width:0.5;" x1="1143" x2="1390" y1="940.5366" y2="940.5366"/></g><!--link SaksfaserHentResultat to Fase--><g id="link_SaksfaserHentResultat_Fase"><path codeLine="8" d="M340.26,188.33 C376.01,188.33 399.77,188.33 435.52,188.33 " fill="none" id="SaksfaserHentResultat-to-Fase" style="stroke:#181818;stroke-width:1.0;"/><polygon fill="#181818" points="447.52,188.33,441.52,184.33,435.52,188.33,441.52,192.33,447.52,188.33" style="stroke:#181818;stroke-width:1.0;"/></g><!--link SaksfaserHentResultat to Saksnummer--><g id="link_SaksfaserHentResultat_Saksnummer"><path codeLine="9" d="M211.37,245.48 C189,299.77 155.68,380.65 135.91,428.62 " fill="none" id="SaksfaserHentResultat-Saksnummer" style="stroke:#181818;stroke-width:1.0;"/></g><!--link Fase to Fasekategori--><g id="link_Fase_Fasekategori"><path codeLine="36" d="M492.87,270.44 C459.05,320.66 416.92,383.2 389.17,424.41 " fill="none" id="Fase-Fasekategori" style="stroke:#181818;stroke-width:1.0;"/></g><!--link Fase to Vedtak--><g id="link_Fase_Vedtak"><path codeLine="37" d="M647.28,262.53 C652.98,265.32 658.73,267.85 664.5,270.04 C870.04,348.05 959.22,231.01 1155.5,330.04 C1198.04,351.5 1234.17,392.61 1257.64,424.48 " fill="none" id="Fase-Vedtak" style="stroke:#181818;stroke-width:1.0;"/></g><!--link Fase to FaseStatusEnum--><g id="link_Fase_FaseStatusEnum"><path codeLine="46" d="M550.7,270.44 C552.61,319.05 554.98,379.21 556.61,420.38 " fill="none" id="Fase-FaseStatusEnum" style="stroke:#181818;stroke-width:1.0;"/></g><!--link Fase to Milepel--><g id="link_Fase_Milepel"><path codeLine="54" d="M631.77,270.44 C651.08,289.03 672.16,309.31 693.21,329.57 " fill="none" id="Fase-Milepel" style="stroke:#181818;stroke-width:1.0;"/></g><!--link Milepel to GMN26--><g id="link_Milepel_GMN26"><path d="M1000.26,600.6 C1005.98,603.56 1011.73,606.33 1017.5,608.87 C1157.08,670.47 1211.6,618.16 1355.5,668.87 C1393.09,682.12 1432.98,706.56 1455.12,721.17 " fill="none" id="Milepel-GMN26" style="stroke:#181818;stroke-width:1.0;stroke-dasharray:7.0,7.0;"/></g><!--link Milepel to MilepelStatusEnum--><g id="link_Milepel_MilepelStatusEnum"><path codeLine="75" d="M716.72,609.08 C692.93,639.91 670.52,670.2 654.8,693.13 " fill="none" id="Milepel-MilepelStatusEnum" style="stroke:#181818;stroke-width:1.0;"/></g><!--link Milepel to MilepelStatusEnum--><g id="link_Milepel_MilepelStatusEnum"><path codeLine="90" d="M742.93,609.08 C718.83,639.91 694.19,670.2 674.29,693.13 " fill="none" id="Milepel-MilepelStatusEnum-1" style="stroke:#181818;stroke-width:1.0;"/></g><!--link Milepel to Milepeltype--><g id="link_Milepel_Milepeltype"><path codeLine="76" d="M839.61,609.08 C840.05,638.06 840.49,666.56 840.83,688.92 " fill="none" id="Milepel-Milepeltype" style="stroke:#181818;stroke-width:1.0;"/></g><!--link Milepel to ReferanseJournalpost--><g id="link_Milepel_ReferanseJournalpost"><path codeLine="80" d="M1000.13,605.62 C1026.44,627.49 1052.58,649.22 1075.63,668.38 " fill="none" id="Milepel-ReferanseJournalpost" style="stroke:#181818;stroke-width:1.0;"/></g><!--link Milepel to Dokument--><g id="link_Milepel_Dokument"><path codeLine="91" d="M1000.42,469.46 C1011.85,469.46 1011.28,469.46 1022.72,469.46 " fill="none" id="Milepel-to-Dokument" style="stroke:#181818;stroke-width:1.0;"/><polygon fill="#181818" points="1034.72,469.46,1028.72,465.46,1022.72,469.46,1028.72,473.46,1034.72,469.46" style="stroke:#181818;stroke-width:1.0;"/></g><!--link ReferanseJournalpost to EksternNoekkel--><g id="link_ReferanseJournalpost_EksternNoekkel"><path codeLine="92" d="M1288.64,799.71 C1327.49,818.62 1369.81,839.53 1408.5,859.32 C1414.12,862.19 1419.92,865.2 1425.74,868.25 " fill="none" id="ReferanseJournalpost-EksternNoekkel" style="stroke:#181818;stroke-width:1.0;"/></g><!--link ReferanseJournalpost to SaksJournalpostnummer--><g id="link_ReferanseJournalpost_SaksJournalpostnummer"><path codeLine="93" d="M1093.09,799.61 C1074.71,819.24 1054.84,840.47 1037.65,858.83 " fill="none" id="ReferanseJournalpost-SaksJournalpostnummer" style="stroke:#181818;stroke-width:1.0;"/></g><!--link ReferanseJournalpost to Journalnummer--><g id="link_ReferanseJournalpost_Journalnummer"><path codeLine="94" d="M1195.9,799.61 C1210.8,822.29 1227.11,847.1 1240.29,867.16 " fill="none" id="ReferanseJournalpost-Journalnummer" style="stroke:#181818;stroke-width:1.0;"/></g><!--SRC=[fLPBRjmu4Dth5BNC1_41X23067OI9x1Zn4WsqxDWHzMoB8eKI4g04VWudZDatnURHufiVLeT3103HbFrOzMhLoNzaC9QkXErtGdBvYChzvLj9vrmz3CZ_BssKAgkQTZamN0uZpfNESSo9-jCfSfHBfJjXP5LELU5Ut9wZv-__ycUicpzyZUlWiafxPjfAfdIZidfblGkU55Ebugy6x6XYkvrpmLoee8TMTtGFQi2ceQbn9FJr5IIMvPipZRgIZasYeE_8UjDBLLrpTGvGY14KL2tHZjTQobPdT7tYkeEE1WepKuRR_f1wgsGj9EYBCyeotu4h4D-FqSibEZLCK9LCPVLmd6fJJK0bvu6tI7tdAw78u0TsW2iEZlut8Np9I0RT2Z4YJgdx-5ta1MwxXhsvUTq4Sz3amB2fYhlNS8upuSyW-VxSAIjwMfW9G09qui0cHLeaGBI1Or4UaaUelspxmFYGi-gPka2v27WXVU10T3qhlt-NmFuLLLJXdwGJsSAQ0A4thxzh0j-zouXNEEfPrDK2pWXthAjJTMpH2r9cIhTQkT0Z5Zg8Je6WAby2EmuVonBzYLj-LweGi8zps-DjcnjSjY0X4RGpUtTHe4Xlg0T_aLVIs5Sv97FHLRMiTgeozfoq_fMRjHdy8OtwkF-bqyD_Ca2TK3z6GMICFPnDWk3p4_396wfY_e1k6_0QzbNbaQ1wAtSFxjmWiOTI1i3_Jcwqn8cZ4HJksOXJ9VSIg40XHkUlld1_Sji4_DUVtCxpSPDWySfEEfbbETeYYzEbvZIu3nCTxj_hWttHIewcX_su2Dwr5mj1dEjpiN4nZZkiUKuuFxwd0fO38AOnbJqe3kZX8H0JyLLs4qvYjAIXHg4XdTii6xvq-3KQX_-wufqOPzcV9uv6pJ1PpEx15A93RUGfWqJQrmk6JR34bnudTup2VEnYvEGnyg0wOasUzsC-hHHvupNbVIpYY4atRRMLsgR_Iz4U77-vUL6VS0eADtiC7RkoEBBDIokSHE60G5QK1ERp8AU6KtJMyS-ycfD-NkI6Ix16CDUOgykvih8bFIA_ZHz7D_6axkcB_CZyO8XGCyJxaOp9aG6D2VF_xzZhmvzpbRBX_SYz2cpzQnFMS_HY0rO3J7zt142y42ydIA8dTkpEdmAJTKFn-16zLEwSvP8kYlw7LqNvUit7aBE0Hk_ASg1H7EMgDJ1SHVFjboObZ_Vxs6F7_4WnRlPFnV5Ogi_JRjoeXL-wvM_wKNK4uBz1m00]--></g></svg>