<svg xmlns="http://www.w3.org/2000/svg" xmlns:xlink="http://www.w3.org/1999/xlink" contentStyleType="text/css" height="930px" preserveAspectRatio="none" style="width:2453px;height:930px;background:#FFFFFF;" version="1.1" viewBox="0 0 2453 930" width="2453px" zoomAndPan="magnify"><defs/><g><!--class ReferanseDokumentfil--><g id="elem_ReferanseDokumentfil"><rect codeLine="38" fill="#F1F1F1" height="80.9766" id="ReferanseDokumentfil" rx="2.5" ry="2.5" style="stroke:#181818;stroke-width:0.5;" width="184" x="2043" y="660.63"/><ellipse cx="2058" cy="676.63" fill="#ADD1B2" rx="11" ry="11" style="stroke:#181818;stroke-width:1.0;"/><path d="M2060.4731,682.7731 Q2059.8921,683.0719 2059.2529,683.2213 Q2058.6138,683.3707 2057.9082,683.3707 Q2055.4014,683.3707 2054.0815,681.7189 Q2052.7617,680.067 2052.7617,676.9459 Q2052.7617,673.8165 2054.0815,672.1647 Q2055.4014,670.5128 2057.9082,670.5128 Q2058.6138,670.5128 2059.2612,670.6622 Q2059.9087,670.8116 2060.4731,671.1105 L2060.4731,673.8331 Q2059.8423,673.2521 2059.2488,672.9823 Q2058.6553,672.7125 2058.0244,672.7125 Q2056.6797,672.7125 2055.9949,673.7792 Q2055.3101,674.8458 2055.3101,676.9459 Q2055.3101,679.0377 2055.9949,680.1044 Q2056.6797,681.171 2058.0244,681.171 Q2058.6553,681.171 2059.2488,680.9012 Q2059.8423,680.6315 2060.4731,680.0504 Z " fill="#000000"/><text fill="#000000" font-family="sans-serif" font-size="14" lengthAdjust="spacing" textLength="152" x="2072" y="681.921">ReferanseDokumentfil</text><line style="stroke:#181818;stroke-width:0.5;" x1="2044" x2="2226" y1="692.63" y2="692.63"/><ellipse cx="2054" cy="706.3741" fill="none" rx="3" ry="3" style="stroke:#038048;stroke-width:1.0;"/><text fill="#000000" font-family="sans-serif" font-size="14" lengthAdjust="spacing" textLength="61" x="2063" y="710.1652">id: string</text><ellipse cx="2054" cy="722.8624" fill="none" rx="3" ry="3" style="stroke:#038048;stroke-width:1.0;"/><text fill="#000000" font-family="sans-serif" font-size="14" lengthAdjust="spacing" textLength="67" x="2063" y="726.6534">url: string</text><line style="stroke:#181818;stroke-width:0.5;" x1="2044" x2="2226" y1="733.6066" y2="733.6066"/></g><!--class Dokument--><g id="elem_Dokument"><rect codeLine="3" fill="#F1F1F1" height="179.9063" id="Dokument" rx="2.5" ry="2.5" style="stroke:#181818;stroke-width:0.5;" width="335" x="1938.5" y="363.01"/><ellipse cx="2066.25" cy="379.01" fill="#ADD1B2" rx="11" ry="11" style="stroke:#181818;stroke-width:1.0;"/><path d="M2068.7231,385.1531 Q2068.1421,385.4519 2067.5029,385.6013 Q2066.8638,385.7507 2066.1582,385.7507 Q2063.6514,385.7507 2062.3315,384.0989 Q2061.0117,382.447 2061.0117,379.3259 Q2061.0117,376.1965 2062.3315,374.5447 Q2063.6514,372.8928 2066.1582,372.8928 Q2066.8638,372.8928 2067.5112,373.0422 Q2068.1587,373.1916 2068.7231,373.4905 L2068.7231,376.2131 Q2068.0923,375.6321 2067.4988,375.3623 Q2066.9053,375.0925 2066.2744,375.0925 Q2064.9297,375.0925 2064.2449,376.1592 Q2063.5601,377.2258 2063.5601,379.3259 Q2063.5601,381.4177 2064.2449,382.4844 Q2064.9297,383.551 2066.2744,383.551 Q2066.9053,383.551 2067.4988,383.2812 Q2068.0923,383.0115 2068.7231,382.4304 Z " fill="#000000"/><text fill="#000000" font-family="sans-serif" font-size="14" lengthAdjust="spacing" textLength="71" x="2086.75" y="384.301">Dokument</text><line style="stroke:#181818;stroke-width:0.5;" x1="1939.5" x2="2272.5" y1="395.01" y2="395.01"/><ellipse cx="1949.5" cy="408.7541" fill="none" rx="3" ry="3" style="stroke:#038048;stroke-width:1.0;"/><text fill="#000000" font-family="sans-serif" font-size="14" lengthAdjust="spacing" textLength="61" x="1958.5" y="412.5452">id: string</text><ellipse cx="1949.5" cy="425.2424" fill="none" rx="3" ry="3" style="stroke:#038048;stroke-width:1.0;"/><text fill="#000000" font-family="sans-serif" font-size="14" lengthAdjust="spacing" textLength="79" x="1958.5" y="429.0334">tittel: string</text><ellipse cx="1949.5" cy="441.7307" fill="none" rx="3" ry="3" style="stroke:#038048;stroke-width:1.0;"/><text fill="#000000" font-family="sans-serif" font-size="14" lengthAdjust="spacing" textLength="94" x="1958.5" y="445.5217">filnavn: string</text><ellipse cx="1949.5" cy="458.219" fill="none" rx="3" ry="3" style="stroke:#038048;stroke-width:1.0;"/><text fill="#000000" font-family="sans-serif" font-size="14" lengthAdjust="spacing" textLength="207" x="1958.5" y="462.01">dokumenttype: Dokumenttype</text><ellipse cx="1949.5" cy="474.7073" fill="none" rx="3" ry="3" style="stroke:#038048;stroke-width:1.0;"/><text fill="#000000" font-family="sans-serif" font-size="14" lengthAdjust="spacing" textLength="309" x="1958.5" y="478.4983">referanseDokumentfil: ReferanseDokumentfil</text><ellipse cx="1949.5" cy="491.1955" fill="none" rx="3" ry="3" style="stroke:#038048;stroke-width:1.0;"/><text fill="#000000" font-family="sans-serif" font-size="14" lengthAdjust="spacing" textLength="115" x="1958.5" y="494.9866">mimetype: string</text><ellipse cx="1949.5" cy="507.6838" fill="none" rx="3" ry="3" style="stroke:#038048;stroke-width:1.0;"/><text fill="#000000" font-family="sans-serif" font-size="14" lengthAdjust="spacing" textLength="146" x="1958.5" y="511.4748">dokumentsdato: date</text><ellipse cx="1949.5" cy="524.1721" fill="none" rx="3" ry="3" style="stroke:#038048;stroke-width:1.0;"/><text fill="#000000" font-family="sans-serif" font-size="14" lengthAdjust="spacing" textLength="114" x="1958.5" y="527.9631">arkivnavn: string</text><line style="stroke:#181818;stroke-width:0.5;" x1="1939.5" x2="2272.5" y1="534.9163" y2="534.9163"/></g><g id="elem_GMN4"><path d="M2000.5,175.67 L2000.5,200.9805 A0,0 0 0 0 2000.5,200.9805 L2102,200.9805 L2106,362.79 L2110,200.9805 L2211.5,200.9805 A0,0 0 0 0 2211.5,200.9805 L2211.5,185.67 L2201.5,175.67 L2000.5,175.67 A0,0 0 0 0 2000.5,175.67 " fill="#FEFFDD" style="stroke:#181818;stroke-width:0.5;"/><path d="M2201.5,175.67 L2201.5,185.67 L2211.5,185.67 L2201.5,175.67 " fill="#FEFFDD" style="stroke:#181818;stroke-width:0.5;"/><text fill="#000000" font-family="sans-serif" font-size="13" lengthAdjust="spacing" textLength="190" x="2006.5" y="193.2384">Hentet definisjon fra Fiks Plan</text></g><!--class Dokumenttype--><g id="elem_Dokumenttype"><rect codeLine="19" fill="#F1F1F1" height="89.5977" id="Dokumenttype" rx="2.5" ry="2.5" style="stroke:#181818;stroke-width:0.5;" width="184" x="2262" y="656.32"/><ellipse cx="2300.4" cy="676.6305" fill="#ADD1B2" rx="11" ry="11" style="stroke:#181818;stroke-width:1.0;"/><path d="M2302.8731,682.7736 Q2302.2921,683.0724 2301.6529,683.2219 Q2301.0138,683.3713 2300.3082,683.3713 Q2297.8014,683.3713 2296.4815,681.7194 Q2295.1617,680.0676 2295.1617,676.9465 Q2295.1617,673.8171 2296.4815,672.1652 Q2297.8014,670.5134 2300.3082,670.5134 Q2301.0138,670.5134 2301.6612,670.6628 Q2302.3087,670.8122 2302.8731,671.111 L2302.8731,673.8337 Q2302.2423,673.2526 2301.6488,672.9828 Q2301.0553,672.7131 2300.4244,672.7131 Q2299.0797,672.7131 2298.3949,673.7797 Q2297.7101,674.8464 2297.7101,676.9465 Q2297.7101,679.0383 2298.3949,680.1049 Q2299.0797,681.1716 2300.4244,681.1716 Q2301.0553,681.1716 2301.6488,680.9018 Q2302.2423,680.632 2302.8731,680.051 Z " fill="#000000"/><text fill="#000000" font-family="sans-serif" font-size="12" font-style="italic" lengthAdjust="spacing" textLength="42" x="2348.6" y="672.9216">&#171;Kode&#187;</text><text fill="#000000" font-family="sans-serif" font-size="14" lengthAdjust="spacing" textLength="100" x="2319.6" y="688.988">Dokumenttype</text><line style="stroke:#181818;stroke-width:0.5;" x1="2263" x2="2445" y1="696.9411" y2="696.9411"/><ellipse cx="2273" cy="710.6852" fill="none" rx="3" ry="3" style="stroke:#038048;stroke-width:1.0;"/><text fill="#000000" font-family="sans-serif" font-size="14" lengthAdjust="spacing" textLength="116" x="2282" y="714.4762">kodeverdi: string</text><ellipse cx="2273" cy="727.1735" fill="none" rx="3" ry="3" style="stroke:#038048;stroke-width:1.0;"/><text fill="#000000" font-family="sans-serif" font-size="14" lengthAdjust="spacing" textLength="158" x="2282" y="730.9645">kodebeskrivelse: string</text><line style="stroke:#181818;stroke-width:0.5;" x1="2263" x2="2445" y1="737.9177" y2="737.9177"/></g><!--class Fase--><g id="elem_Fase"><rect codeLine="2" fill="#F1F1F1" height="163.418" id="Fase" rx="2.5" ry="2.5" style="stroke:#181818;stroke-width:0.5;" width="199" x="1004.5" y="106.62"/><ellipse cx="1084.25" cy="122.62" fill="#ADD1B2" rx="11" ry="11" style="stroke:#181818;stroke-width:1.0;"/><path d="M1086.7231,128.7631 Q1086.1421,129.0619 1085.5029,129.2113 Q1084.8638,129.3607 1084.1582,129.3607 Q1081.6514,129.3607 1080.3315,127.7089 Q1079.0117,126.057 1079.0117,122.9359 Q1079.0117,119.8065 1080.3315,118.1547 Q1081.6514,116.5028 1084.1582,116.5028 Q1084.8638,116.5028 1085.5112,116.6522 Q1086.1587,116.8016 1086.7231,117.1005 L1086.7231,119.8231 Q1086.0923,119.2421 1085.4988,118.9723 Q1084.9053,118.7025 1084.2744,118.7025 Q1082.9297,118.7025 1082.2449,119.7692 Q1081.5601,120.8358 1081.5601,122.9359 Q1081.5601,125.0277 1082.2449,126.0944 Q1082.9297,127.161 1084.2744,127.161 Q1084.9053,127.161 1085.4988,126.8912 Q1086.0923,126.6215 1086.7231,126.0404 Z " fill="#000000"/><text fill="#000000" font-family="sans-serif" font-size="14" lengthAdjust="spacing" textLength="31" x="1104.75" y="127.911">Fase</text><line style="stroke:#181818;stroke-width:0.5;" x1="1005.5" x2="1202.5" y1="138.62" y2="138.62"/><ellipse cx="1015.5" cy="152.3641" fill="none" rx="3" ry="3" style="stroke:#038048;stroke-width:1.0;"/><text fill="#000000" font-family="sans-serif" font-size="14" lengthAdjust="spacing" textLength="109" x="1024.5" y="156.1552">fasenavn: string</text><ellipse cx="1015.5" cy="168.8524" fill="none" rx="3" ry="3" style="stroke:#038048;stroke-width:1.0;"/><text fill="#000000" font-family="sans-serif" font-size="14" lengthAdjust="spacing" textLength="89" x="1024.5" y="172.6434">faseid: string</text><ellipse cx="1015.5" cy="185.3407" fill="none" rx="3" ry="3" style="stroke:#038048;stroke-width:1.0;"/><text fill="#000000" font-family="sans-serif" font-size="14" lengthAdjust="spacing" textLength="153" x="1024.5" y="189.1317">kategori: Fasekategori</text><ellipse cx="1015.5" cy="201.829" fill="none" rx="3" ry="3" style="stroke:#038048;stroke-width:1.0;"/><text fill="#000000" font-family="sans-serif" font-size="14" lengthAdjust="spacing" textLength="131" x="1024.5" y="205.62">milepeler: Milepel[]</text><ellipse cx="1015.5" cy="218.3173" fill="none" rx="3" ry="3" style="stroke:#038048;stroke-width:1.0;"/><text fill="#000000" font-family="sans-serif" font-size="14" lengthAdjust="spacing" textLength="161" x="1024.5" y="222.1083">status: FaseStatusEnum</text><ellipse cx="1015.5" cy="234.8055" fill="none" rx="3" ry="3" style="stroke:#038048;stroke-width:1.0;"/><text fill="#000000" font-family="sans-serif" font-size="14" lengthAdjust="spacing" textLength="100" x="1024.5" y="238.5966">vedtak: Vedtak</text><ellipse cx="1015.5" cy="251.2938" fill="none" rx="3" ry="3" style="stroke:#038048;stroke-width:1.0;"/><text fill="#000000" font-family="sans-serif" font-size="14" lengthAdjust="spacing" textLength="173" x="1024.5" y="255.0848">dokumenter: Dokument[]</text><line style="stroke:#181818;stroke-width:0.5;" x1="1005.5" x2="1202.5" y1="262.038" y2="262.038"/></g><g id="elem_GMN11"><path d="M831,6 L831,46.6211 A0,0 0 0 0 831,46.6211 L1100,46.6211 L1104,106.47 L1108,46.6211 L1377,46.6211 A0,0 0 0 0 1377,46.6211 L1377,16 L1367,6 L831,6 A0,0 0 0 0 831,6 " fill="#FEFFDD" style="stroke:#181818;stroke-width:0.5;"/><path d="M1367,6 L1367,16 L1377,16 L1367,6 " fill="#FEFFDD" style="stroke:#181818;stroke-width:0.5;"/><text fill="#000000" font-family="sans-serif" font-size="13" lengthAdjust="spacing" textLength="369" x="837" y="23.5684">En fase er i hovedsak det som hender mellom to milepeler.</text><text fill="#000000" font-family="sans-serif" font-size="13" lengthAdjust="spacing" textLength="525" x="837" y="38.8789">Interne faser sendes ikke ut ved denne protokollen. Vi kutter derfor ut Global flagg.</text></g><path d="M1238.5,163.01 L1238.5,179.3205 L1113.5,167.3524 L1238.5,187.3205 L1238.5,203.6311 A0,0 0 0 0 1238.5,203.6311 L1759.5,203.6311 A0,0 0 0 0 1759.5,203.6311 L1759.5,173.01 L1749.5,163.01 L1238.5,163.01 A0,0 0 0 0 1238.5,163.01 " fill="#FEFFDD" style="stroke:#181818;stroke-width:0.5;"/><path d="M1749.5,163.01 L1749.5,173.01 L1759.5,173.01 L1749.5,163.01 " fill="#FEFFDD" style="stroke:#181818;stroke-width:0.5;"/><text fill="#000000" font-family="sans-serif" font-size="13" lengthAdjust="spacing" textLength="500" x="1244.5" y="180.5784">Faseid brukes alene (ikke sammen med saksnummer) for &#229; hente en enkelt fase</text><text fill="#000000" font-family="sans-serif" font-size="13" lengthAdjust="spacing" textLength="165" x="1244.5" y="195.8889">Den m&#229; dermed v&#230;re unik</text><!--class Vedtak--><g id="elem_Vedtak"><rect codeLine="31" fill="#F1F1F1" height="89.5977" id="Vedtak" rx="2.5" ry="2.5" style="stroke:#181818;stroke-width:0.5;" width="184" x="615" y="408.17"/><ellipse cx="679.25" cy="428.4805" fill="#ADD1B2" rx="11" ry="11" style="stroke:#181818;stroke-width:1.0;"/><path d="M681.7231,434.6236 Q681.1421,434.9224 680.5029,435.0719 Q679.8638,435.2213 679.1582,435.2213 Q676.6514,435.2213 675.3315,433.5694 Q674.0117,431.9176 674.0117,428.7965 Q674.0117,425.6671 675.3315,424.0152 Q676.6514,422.3634 679.1582,422.3634 Q679.8638,422.3634 680.5112,422.5128 Q681.1587,422.6622 681.7231,422.961 L681.7231,425.6837 Q681.0923,425.1026 680.4988,424.8328 Q679.9053,424.5631 679.2744,424.5631 Q677.9297,424.5631 677.2449,425.6297 Q676.5601,426.6964 676.5601,428.7965 Q676.5601,430.8883 677.2449,431.9549 Q677.9297,433.0216 679.2744,433.0216 Q679.9053,433.0216 680.4988,432.7518 Q681.0923,432.482 681.7231,431.901 Z " fill="#000000"/><text fill="#000000" font-family="sans-serif" font-size="12" font-style="italic" lengthAdjust="spacing" textLength="42" x="702.25" y="424.7716">&#171;Kode&#187;</text><text fill="#000000" font-family="sans-serif" font-size="14" lengthAdjust="spacing" textLength="47" x="699.75" y="440.838">Vedtak</text><line style="stroke:#181818;stroke-width:0.5;" x1="616" x2="798" y1="448.7911" y2="448.7911"/><ellipse cx="626" cy="462.5352" fill="none" rx="3" ry="3" style="stroke:#038048;stroke-width:1.0;"/><text fill="#000000" font-family="sans-serif" font-size="14" lengthAdjust="spacing" textLength="116" x="635" y="466.3262">kodeverdi: string</text><ellipse cx="626" cy="479.0235" fill="none" rx="3" ry="3" style="stroke:#038048;stroke-width:1.0;"/><text fill="#000000" font-family="sans-serif" font-size="14" lengthAdjust="spacing" textLength="158" x="635" y="482.8145">kodebeskrivelse: string</text><line style="stroke:#181818;stroke-width:0.5;" x1="616" x2="798" y1="489.7677" y2="489.7677"/></g><!--class FaseStatusEnum--><g id="elem_FaseStatusEnum"><rect codeLine="23" fill="#F1F1F1" height="97.4648" id="FaseStatusEnum" rx="2.5" ry="2.5" style="stroke:#181818;stroke-width:0.5;" width="144" x="1318" y="404.23"/><ellipse cx="1333" cy="420.23" fill="#EB937F" rx="11" ry="11" style="stroke:#181818;stroke-width:1.0;"/><path d="M1336.6143,426.73 L1328.8945,426.73 L1328.8945,414.3369 L1336.6143,414.3369 L1336.6143,416.4951 L1331.3433,416.4951 L1331.3433,419.168 L1336.1162,419.168 L1336.1162,421.3262 L1331.3433,421.3262 L1331.3433,424.5718 L1336.6143,424.5718 Z " fill="#000000"/><text fill="#000000" font-family="sans-serif" font-size="14" lengthAdjust="spacing" textLength="112" x="1347" y="425.521">FaseStatusEnum</text><line style="stroke:#181818;stroke-width:0.5;" x1="1319" x2="1461" y1="436.23" y2="436.23"/><ellipse cx="1329" cy="449.9741" fill="none" rx="3" ry="3" style="stroke:#038048;stroke-width:1.0;"/><text fill="#000000" font-family="sans-serif" font-size="14" lengthAdjust="spacing" textLength="55" x="1338" y="453.7652">Planlagt</text><ellipse cx="1329" cy="466.4624" fill="none" rx="3" ry="3" style="stroke:#038048;stroke-width:1.0;"/><text fill="#000000" font-family="sans-serif" font-size="14" lengthAdjust="spacing" textLength="88" x="1338" y="470.2534">UnderArbeid</text><ellipse cx="1329" cy="482.9507" fill="none" rx="3" ry="3" style="stroke:#038048;stroke-width:1.0;"/><text fill="#000000" font-family="sans-serif" font-size="14" lengthAdjust="spacing" textLength="48" x="1338" y="486.7417">Utfoert</text><line style="stroke:#181818;stroke-width:0.5;" x1="1319" x2="1461" y1="493.6948" y2="493.6948"/></g><!--class Fasekategori--><g id="elem_Fasekategori"><rect codeLine="36" fill="#F1F1F1" height="89.5977" id="Fasekategori" rx="2.5" ry="2.5" style="stroke:#181818;stroke-width:0.5;" width="184" x="834" y="408.17"/><ellipse cx="877.8" cy="428.4805" fill="#ADD1B2" rx="11" ry="11" style="stroke:#181818;stroke-width:1.0;"/><path d="M880.2731,434.6236 Q879.6921,434.9224 879.0529,435.0719 Q878.4138,435.2213 877.7082,435.2213 Q875.2014,435.2213 873.8815,433.5694 Q872.5617,431.9176 872.5617,428.7965 Q872.5617,425.6671 873.8815,424.0152 Q875.2014,422.3634 877.7082,422.3634 Q878.4138,422.3634 879.0612,422.5128 Q879.7087,422.6622 880.2731,422.961 L880.2731,425.6837 Q879.6423,425.1026 879.0488,424.8328 Q878.4553,424.5631 877.8244,424.5631 Q876.4797,424.5631 875.7949,425.6297 Q875.1101,426.6964 875.1101,428.7965 Q875.1101,430.8883 875.7949,431.9549 Q876.4797,433.0216 877.8244,433.0216 Q878.4553,433.0216 879.0488,432.7518 Q879.6423,432.482 880.2731,431.901 Z " fill="#000000"/><text fill="#000000" font-family="sans-serif" font-size="12" font-style="italic" lengthAdjust="spacing" textLength="42" x="921.2" y="424.7716">&#171;Kode&#187;</text><text fill="#000000" font-family="sans-serif" font-size="14" lengthAdjust="spacing" textLength="88" x="898.2" y="440.838">Fasekategori</text><line style="stroke:#181818;stroke-width:0.5;" x1="835" x2="1017" y1="448.7911" y2="448.7911"/><ellipse cx="845" cy="462.5352" fill="none" rx="3" ry="3" style="stroke:#038048;stroke-width:1.0;"/><text fill="#000000" font-family="sans-serif" font-size="14" lengthAdjust="spacing" textLength="116" x="854" y="466.3262">kodeverdi: string</text><ellipse cx="845" cy="479.0235" fill="none" rx="3" ry="3" style="stroke:#038048;stroke-width:1.0;"/><text fill="#000000" font-family="sans-serif" font-size="14" lengthAdjust="spacing" textLength="158" x="854" y="482.8145">kodebeskrivelse: string</text><line style="stroke:#181818;stroke-width:0.5;" x1="835" x2="1017" y1="489.7677" y2="489.7677"/></g><g id="elem_GMN22"><path d="M648,145.05 L648,231.6027 A0,0 0 0 0 648,231.6027 L703,231.6027 L707,407.78 L711,231.6027 L766,231.6027 A0,0 0 0 0 766,231.6027 L766,155.05 L756,145.05 L648,145.05 A0,0 0 0 0 648,145.05 " fill="#FEFFDD" style="stroke:#181818;stroke-width:0.5;"/><path d="M756,145.05 L756,155.05 L766,155.05 L756,145.05 " fill="#FEFFDD" style="stroke:#181818;stroke-width:0.5;"/><text fill="#000000" font-family="sans-serif" font-size="13" lengthAdjust="spacing" textLength="69" x="654" y="162.6184">Eksempler:</text><text fill="#000000" font-family="sans-serif" font-size="13" lengthAdjust="spacing" textLength="56" x="654" y="177.9289">godkjent</text><text fill="#000000" font-family="sans-serif" font-size="13" lengthAdjust="spacing" textLength="97" x="654" y="193.2395">delvis godkjent</text><text fill="#000000" font-family="sans-serif" font-size="13" lengthAdjust="spacing" textLength="42" x="654" y="208.55">avsl&#229;tt</text><text fill="#000000" font-family="sans-serif" font-size="13" lengthAdjust="spacing" textLength="37" x="654" y="223.8605">avvist</text></g><g id="elem_GMN25"><path d="M627,650.18 L627,752.0433 A0,0 0 0 0 627,752.0433 L953,752.0433 A0,0 0 0 0 953,752.0433 L953,660.18 L943,650.18 L821.79,650.18 L901.53,498.26 L813.79,650.18 L627,650.18 A0,0 0 0 0 627,650.18 " fill="#FEFFDD" style="stroke:#181818;stroke-width:0.5;"/><path d="M943,650.18 L943,660.18 L953,660.18 L943,650.18 " fill="#FEFFDD" style="stroke:#181818;stroke-width:0.5;"/><text fill="#000000" font-family="sans-serif" font-size="13" lengthAdjust="spacing" textLength="305" x="633" y="667.7484">Se gjerne Byggesaksbehandling::Prosesskategori</text><text fill="#000000" font-family="sans-serif" font-size="13" lengthAdjust="spacing" textLength="45" x="637" y="683.0589">fra NPS</text><text fill="#000000" font-family="sans-serif" font-size="13" lengthAdjust="spacing" textLength="210" x="633" y="698.3695">Vi m&#229; f&#229; avklart denne kodelisten</text><text fill="#000000" font-family="sans-serif" font-size="13" lengthAdjust="spacing" textLength="69" x="633" y="713.68">Eksempler:</text><text fill="#000000" font-family="sans-serif" font-size="13" lengthAdjust="spacing" textLength="34" x="633" y="728.9905">Klage</text><text fill="#000000" font-family="sans-serif" font-size="13" lengthAdjust="spacing" textLength="43" x="633" y="744.3011">H&#248;ring</text></g><!--class EksternNoekkel--><g id="elem_EksternNoekkel"><rect codeLine="2" fill="#F1F1F1" height="80.9766" id="EksternNoekkel" rx="2.5" ry="2.5" style="stroke:#181818;stroke-width:0.5;" width="143" x="1089.5" y="834.58"/><ellipse cx="1106.75" cy="850.58" fill="#ADD1B2" rx="11" ry="11" style="stroke:#181818;stroke-width:1.0;"/><path d="M1109.2231,856.7231 Q1108.6421,857.0219 1108.0029,857.1713 Q1107.3638,857.3207 1106.6582,857.3207 Q1104.1514,857.3207 1102.8315,855.6689 Q1101.5117,854.017 1101.5117,850.8959 Q1101.5117,847.7665 1102.8315,846.1147 Q1104.1514,844.4628 1106.6582,844.4628 Q1107.3638,844.4628 1108.0112,844.6122 Q1108.6587,844.7616 1109.2231,845.0605 L1109.2231,847.7831 Q1108.5923,847.2021 1107.9988,846.9323 Q1107.4053,846.6625 1106.7744,846.6625 Q1105.4297,846.6625 1104.7449,847.7292 Q1104.0601,848.7958 1104.0601,850.8959 Q1104.0601,852.9877 1104.7449,854.0544 Q1105.4297,855.121 1106.7744,855.121 Q1107.4053,855.121 1107.9988,854.8512 Q1108.5923,854.5815 1109.2231,854.0004 Z " fill="#000000"/><text fill="#000000" font-family="sans-serif" font-size="14" lengthAdjust="spacing" textLength="106" x="1121.25" y="855.871">EksternNoekkel</text><line style="stroke:#181818;stroke-width:0.5;" x1="1090.5" x2="1231.5" y1="866.58" y2="866.58"/><ellipse cx="1100.5" cy="880.3241" fill="none" rx="3" ry="3" style="stroke:#038048;stroke-width:1.0;"/><text fill="#000000" font-family="sans-serif" font-size="14" lengthAdjust="spacing" textLength="117" x="1109.5" y="884.1152">fagsystem: string</text><ellipse cx="1100.5" cy="896.8124" fill="none" rx="3" ry="3" style="stroke:#038048;stroke-width:1.0;"/><text fill="#000000" font-family="sans-serif" font-size="14" lengthAdjust="spacing" textLength="102" x="1109.5" y="900.6034">noekkel: string</text><line style="stroke:#181818;stroke-width:0.5;" x1="1090.5" x2="1231.5" y1="907.5566" y2="907.5566"/></g><!--class Journalnummer--><g id="elem_Journalnummer"><rect codeLine="2" fill="#F1F1F1" height="80.9766" id="Journalnummer" rx="2.5" ry="2.5" style="stroke:#181818;stroke-width:0.5;" width="249" x="1267.5" y="834.58"/><ellipse cx="1334.25" cy="850.58" fill="#ADD1B2" rx="11" ry="11" style="stroke:#181818;stroke-width:1.0;"/><path d="M1336.7231,856.7231 Q1336.1421,857.0219 1335.5029,857.1713 Q1334.8638,857.3207 1334.1582,857.3207 Q1331.6514,857.3207 1330.3315,855.6689 Q1329.0117,854.017 1329.0117,850.8959 Q1329.0117,847.7665 1330.3315,846.1147 Q1331.6514,844.4628 1334.1582,844.4628 Q1334.8638,844.4628 1335.5112,844.6122 Q1336.1587,844.7616 1336.7231,845.0605 L1336.7231,847.7831 Q1336.0923,847.2021 1335.4988,846.9323 Q1334.9053,846.6625 1334.2744,846.6625 Q1332.9297,846.6625 1332.2449,847.7292 Q1331.5601,848.7958 1331.5601,850.8959 Q1331.5601,852.9877 1332.2449,854.0544 Q1332.9297,855.121 1334.2744,855.121 Q1334.9053,855.121 1335.4988,854.8512 Q1336.0923,854.5815 1336.7231,854.0004 Z " fill="#000000"/><text fill="#000000" font-family="sans-serif" font-size="14" lengthAdjust="spacing" textLength="107" x="1354.75" y="855.871">Journalnummer</text><line style="stroke:#181818;stroke-width:0.5;" x1="1268.5" x2="1515.5" y1="866.58" y2="866.58"/><ellipse cx="1278.5" cy="880.3241" fill="none" rx="3" ry="3" style="stroke:#038048;stroke-width:1.0;"/><text fill="#000000" font-family="sans-serif" font-size="14" lengthAdjust="spacing" textLength="169" x="1287.5" y="884.1152">journalnummer: number</text><ellipse cx="1278.5" cy="896.8124" fill="none" rx="3" ry="3" style="stroke:#038048;stroke-width:1.0;"/><text fill="#000000" font-family="sans-serif" font-size="14" lengthAdjust="spacing" textLength="223" x="1287.5" y="900.6034">journalsekvensnummer: number</text><line style="stroke:#181818;stroke-width:0.5;" x1="1268.5" x2="1515.5" y1="907.5566" y2="907.5566"/></g><!--class ReferanseJournalpost--><g id="elem_ReferanseJournalpost"><rect codeLine="2" fill="#F1F1F1" height="130.4414" id="ReferanseJournalpost" rx="2.5" ry="2.5" style="stroke:#181818;stroke-width:0.5;" width="369" x="1207.5" y="635.89"/><ellipse cx="1314.25" cy="651.89" fill="#ADD1B2" rx="11" ry="11" style="stroke:#181818;stroke-width:1.0;"/><path d="M1316.7231,658.0331 Q1316.1421,658.3319 1315.5029,658.4813 Q1314.8638,658.6307 1314.1582,658.6307 Q1311.6514,658.6307 1310.3315,656.9789 Q1309.0117,655.327 1309.0117,652.2059 Q1309.0117,649.0765 1310.3315,647.4247 Q1311.6514,645.7728 1314.1582,645.7728 Q1314.8638,645.7728 1315.5112,645.9222 Q1316.1587,646.0716 1316.7231,646.3705 L1316.7231,649.0931 Q1316.0923,648.5121 1315.4988,648.2423 Q1314.9053,647.9725 1314.2744,647.9725 Q1312.9297,647.9725 1312.2449,649.0392 Q1311.5601,650.1058 1311.5601,652.2059 Q1311.5601,654.2977 1312.2449,655.3644 Q1312.9297,656.431 1314.2744,656.431 Q1314.9053,656.431 1315.4988,656.1612 Q1316.0923,655.8915 1316.7231,655.3104 Z " fill="#000000"/><text fill="#000000" font-family="sans-serif" font-size="14" lengthAdjust="spacing" textLength="147" x="1334.75" y="657.181">ReferanseJournalpost</text><line style="stroke:#181818;stroke-width:0.5;" x1="1208.5" x2="1575.5" y1="667.89" y2="667.89"/><ellipse cx="1218.5" cy="681.6341" fill="none" rx="3" ry="3" style="stroke:#038048;stroke-width:1.0;"/><text fill="#000000" font-family="sans-serif" font-size="14" lengthAdjust="spacing" textLength="108" x="1227.5" y="685.4252">systemId: string</text><ellipse cx="1218.5" cy="698.1224" fill="none" rx="3" ry="3" style="stroke:#038048;stroke-width:1.0;"/><text fill="#000000" font-family="sans-serif" font-size="14" lengthAdjust="spacing" textLength="150" x="1227.5" y="701.9134">registreringsID: string</text><ellipse cx="1218.5" cy="714.6107" fill="none" rx="3" ry="3" style="stroke:#038048;stroke-width:1.0;"/><text fill="#000000" font-family="sans-serif" font-size="14" lengthAdjust="spacing" textLength="222" x="1227.5" y="718.4017">journalnummer: Journalnummer</text><ellipse cx="1218.5" cy="731.099" fill="none" rx="3" ry="3" style="stroke:#038048;stroke-width:1.0;"/><text fill="#000000" font-family="sans-serif" font-size="14" lengthAdjust="spacing" textLength="343" x="1227.5" y="734.89">saksJournalpostnummer: SaksJournalpostnummer</text><ellipse cx="1218.5" cy="747.5873" fill="none" rx="3" ry="3" style="stroke:#038048;stroke-width:1.0;"/><text fill="#000000" font-family="sans-serif" font-size="14" lengthAdjust="spacing" textLength="285" x="1227.5" y="751.3783">referanseEksternNoekkel: EksternNoekkel</text><line style="stroke:#181818;stroke-width:0.5;" x1="1208.5" x2="1575.5" y1="758.3314" y2="758.3314"/></g><!--class SaksJournalpostnummer--><g id="elem_SaksJournalpostnummer"><rect codeLine="2" fill="#F1F1F1" height="97.4648" id="SaksJournalpostnummer" rx="2.5" ry="2.5" style="stroke:#181818;stroke-width:0.5;" width="230" x="1551" y="826.34"/><ellipse cx="1579.5" cy="842.34" fill="#ADD1B2" rx="11" ry="11" style="stroke:#181818;stroke-width:1.0;"/><path d="M1581.9731,848.4831 Q1581.3921,848.7819 1580.7529,848.9313 Q1580.1138,849.0807 1579.4082,849.0807 Q1576.9014,849.0807 1575.5815,847.4289 Q1574.2617,845.777 1574.2617,842.6559 Q1574.2617,839.5265 1575.5815,837.8747 Q1576.9014,836.2228 1579.4082,836.2228 Q1580.1138,836.2228 1580.7612,836.3722 Q1581.4087,836.5216 1581.9731,836.8205 L1581.9731,839.5431 Q1581.3423,838.9621 1580.7488,838.6923 Q1580.1553,838.4225 1579.5244,838.4225 Q1578.1797,838.4225 1577.4949,839.4892 Q1576.8101,840.5558 1576.8101,842.6559 Q1576.8101,844.7477 1577.4949,845.8144 Q1578.1797,846.881 1579.5244,846.881 Q1580.1553,846.881 1580.7488,846.6112 Q1581.3423,846.3415 1581.9731,845.7604 Z " fill="#000000"/><text fill="#000000" font-family="sans-serif" font-size="14" lengthAdjust="spacing" textLength="168" x="1596.5" y="847.631">SaksJournalpostnummer</text><line style="stroke:#181818;stroke-width:0.5;" x1="1552" x2="1780" y1="858.34" y2="858.34"/><ellipse cx="1562" cy="872.0841" fill="none" rx="3" ry="3" style="stroke:#038048;stroke-width:1.0;"/><text fill="#000000" font-family="sans-serif" font-size="14" lengthAdjust="spacing" textLength="114" x="1571" y="875.8752">saksaar: number</text><ellipse cx="1562" cy="888.5724" fill="none" rx="3" ry="3" style="stroke:#038048;stroke-width:1.0;"/><text fill="#000000" font-family="sans-serif" font-size="14" lengthAdjust="spacing" textLength="204" x="1571" y="892.3634">sakssekvensnummer: number</text><ellipse cx="1562" cy="905.0607" fill="none" rx="3" ry="3" style="stroke:#038048;stroke-width:1.0;"/><text fill="#000000" font-family="sans-serif" font-size="14" lengthAdjust="spacing" textLength="199" x="1571" y="908.8517">journalpostnummer: number</text><line style="stroke:#181818;stroke-width:0.5;" x1="1552" x2="1780" y1="915.8048" y2="915.8048"/></g><!--class Milepel--><g id="elem_Milepel"><rect codeLine="8" fill="#F1F1F1" height="245.8594" id="Milepel" rx="2.5" ry="2.5" style="stroke:#181818;stroke-width:0.5;" width="325" x="1548.5" y="330.03"/><ellipse cx="1682.25" cy="346.03" fill="#ADD1B2" rx="11" ry="11" style="stroke:#181818;stroke-width:1.0;"/><path d="M1684.7231,352.1731 Q1684.1421,352.4719 1683.5029,352.6213 Q1682.8638,352.7707 1682.1582,352.7707 Q1679.6514,352.7707 1678.3315,351.1189 Q1677.0117,349.467 1677.0117,346.3459 Q1677.0117,343.2165 1678.3315,341.5647 Q1679.6514,339.9128 1682.1582,339.9128 Q1682.8638,339.9128 1683.5112,340.0622 Q1684.1587,340.2116 1684.7231,340.5105 L1684.7231,343.2331 Q1684.0923,342.6521 1683.4988,342.3823 Q1682.9053,342.1125 1682.2744,342.1125 Q1680.9297,342.1125 1680.2449,343.1792 Q1679.5601,344.2458 1679.5601,346.3459 Q1679.5601,348.4377 1680.2449,349.5044 Q1680.9297,350.571 1682.2744,350.571 Q1682.9053,350.571 1683.4988,350.3012 Q1684.0923,350.0315 1684.7231,349.4504 Z " fill="#000000"/><text fill="#000000" font-family="sans-serif" font-size="14" lengthAdjust="spacing" textLength="49" x="1702.75" y="351.321">Milepel</text><line style="stroke:#181818;stroke-width:0.5;" x1="1549.5" x2="1872.5" y1="362.03" y2="362.03"/><ellipse cx="1559.5" cy="375.7741" fill="none" rx="3" ry="3" style="stroke:#038048;stroke-width:1.0;"/><text fill="#000000" font-family="sans-serif" font-size="14" lengthAdjust="spacing" textLength="108" x="1568.5" y="379.5652">systemId: string</text><ellipse cx="1559.5" cy="392.2624" fill="none" rx="3" ry="3" style="stroke:#038048;stroke-width:1.0;"/><text fill="#000000" font-family="sans-serif" font-size="14" lengthAdjust="spacing" textLength="124" x="1568.5" y="396.0534">beskrivelse: string</text><ellipse cx="1559.5" cy="408.7507" fill="none" rx="3" ry="3" style="stroke:#038048;stroke-width:1.0;"/><text fill="#000000" font-family="sans-serif" font-size="14" lengthAdjust="spacing" textLength="143" x="1568.5" y="412.5417">kategori: Milepeltype</text><ellipse cx="1559.5" cy="425.239" fill="none" rx="3" ry="3" style="stroke:#038048;stroke-width:1.0;"/><text fill="#000000" font-family="sans-serif" font-size="14" lengthAdjust="spacing" textLength="65" x="1568.5" y="429.03">frist: date</text><ellipse cx="1559.5" cy="441.7273" fill="none" rx="3" ry="3" style="stroke:#038048;stroke-width:1.0;"/><text fill="#000000" font-family="sans-serif" font-size="14" lengthAdjust="spacing" textLength="85" x="1568.5" y="445.5183">utfoert: date</text><ellipse cx="1559.5" cy="458.2155" fill="none" rx="3" ry="3" style="stroke:#038048;stroke-width:1.0;"/><text fill="#000000" font-family="sans-serif" font-size="14" lengthAdjust="spacing" textLength="111" x="1568.5" y="462.0066">planlagtTil: date</text><ellipse cx="1559.5" cy="474.7038" fill="none" rx="3" ry="3" style="stroke:#038048;stroke-width:1.0;"/><text fill="#000000" font-family="sans-serif" font-size="14" lengthAdjust="spacing" textLength="105" x="1568.5" y="478.4948">intern: boolean</text><ellipse cx="1559.5" cy="491.1921" fill="none" rx="3" ry="3" style="stroke:#038048;stroke-width:1.0;"/><text fill="#000000" font-family="sans-serif" font-size="14" lengthAdjust="spacing" textLength="299" x="1568.5" y="494.9831">referanseJournalpost: ReferanseJournalpost</text><ellipse cx="1559.5" cy="507.6804" fill="none" rx="3" ry="3" style="stroke:#038048;stroke-width:1.0;"/><text fill="#000000" font-family="sans-serif" font-size="14" lengthAdjust="spacing" textLength="296" x="1568.5" y="511.4714">referanseDokument: ReferanseDokumentfil</text><ellipse cx="1559.5" cy="524.1687" fill="none" rx="3" ry="3" style="stroke:#038048;stroke-width:1.0;"/><text fill="#000000" font-family="sans-serif" font-size="14" lengthAdjust="spacing" textLength="110" x="1568.5" y="527.9597">erStart: boolean</text><ellipse cx="1559.5" cy="540.657" fill="none" rx="3" ry="3" style="stroke:#038048;stroke-width:1.0;"/><text fill="#000000" font-family="sans-serif" font-size="14" lengthAdjust="spacing" textLength="109" x="1568.5" y="544.448">erSlutt: boolean</text><ellipse cx="1559.5" cy="557.1452" fill="none" rx="3" ry="3" style="stroke:#038048;stroke-width:1.0;"/><text fill="#000000" font-family="sans-serif" font-size="14" lengthAdjust="spacing" textLength="179" x="1568.5" y="560.9363">status: MilepelStatusEnum</text><line style="stroke:#181818;stroke-width:0.5;" x1="1549.5" x2="1872.5" y1="567.8894" y2="567.8894"/></g><!--class Milepeltype--><g id="elem_Milepeltype"><rect codeLine="30" fill="#F1F1F1" height="80.9766" id="Milepeltype" rx="2.5" ry="2.5" style="stroke:#181818;stroke-width:0.5;" width="184" x="988" y="660.63"/><ellipse cx="1036.75" cy="676.63" fill="#ADD1B2" rx="11" ry="11" style="stroke:#181818;stroke-width:1.0;"/><path d="M1039.2231,682.7731 Q1038.6421,683.0719 1038.0029,683.2213 Q1037.3638,683.3707 1036.6582,683.3707 Q1034.1514,683.3707 1032.8315,681.7189 Q1031.5117,680.067 1031.5117,676.9459 Q1031.5117,673.8165 1032.8315,672.1647 Q1034.1514,670.5128 1036.6582,670.5128 Q1037.3638,670.5128 1038.0112,670.6622 Q1038.6587,670.8116 1039.2231,671.1105 L1039.2231,673.8331 Q1038.5923,673.2521 1037.9988,672.9823 Q1037.4053,672.7125 1036.7744,672.7125 Q1035.4297,672.7125 1034.7449,673.7792 Q1034.0601,674.8458 1034.0601,676.9459 Q1034.0601,679.0377 1034.7449,680.1044 Q1035.4297,681.171 1036.7744,681.171 Q1037.4053,681.171 1037.9988,680.9012 Q1038.5923,680.6315 1039.2231,680.0504 Z " fill="#000000"/><text fill="#000000" font-family="sans-serif" font-size="14" lengthAdjust="spacing" textLength="78" x="1057.25" y="681.921">Milepeltype</text><line style="stroke:#181818;stroke-width:0.5;" x1="989" x2="1171" y1="692.63" y2="692.63"/><ellipse cx="999" cy="706.3741" fill="none" rx="3" ry="3" style="stroke:#038048;stroke-width:1.0;"/><text fill="#000000" font-family="sans-serif" font-size="14" lengthAdjust="spacing" textLength="116" x="1008" y="710.1652">kodeverdi: string</text><ellipse cx="999" cy="722.8624" fill="none" rx="3" ry="3" style="stroke:#038048;stroke-width:1.0;"/><text fill="#000000" font-family="sans-serif" font-size="14" lengthAdjust="spacing" textLength="158" x="1008" y="726.6534">kodebeskrivelse: string</text><line style="stroke:#181818;stroke-width:0.5;" x1="989" x2="1171" y1="733.6066" y2="733.6066"/></g><g id="elem_GMN35"><path d="M1053.5,417.34 L1053.5,488.5822 A0,0 0 0 0 1053.5,488.5822 L1151.49,488.5822 L1094.22,660.34 L1159.49,488.5822 L1282.5,488.5822 A0,0 0 0 0 1282.5,488.5822 L1282.5,427.34 L1272.5,417.34 L1053.5,417.34 A0,0 0 0 0 1053.5,417.34 " fill="#FEFFDD" style="stroke:#181818;stroke-width:0.5;"/><path d="M1272.5,417.34 L1272.5,427.34 L1282.5,427.34 L1272.5,417.34 " fill="#FEFFDD" style="stroke:#181818;stroke-width:0.5;"/><text fill="#000000" font-family="sans-serif" font-size="13" lengthAdjust="spacing" textLength="69" x="1059.5" y="434.9084">Eksempler:</text><text fill="#000000" font-family="sans-serif" font-size="13" lengthAdjust="spacing" textLength="201" x="1059.5" y="450.2189">Bestilling av oppstartsm&#248;te (BO)</text><text fill="#000000" font-family="sans-serif" font-size="13" lengthAdjust="spacing" textLength="208" x="1059.5" y="465.5295">Gjennomf&#248;rt oppstartsm&#248;te (OM)</text><text fill="#000000" font-family="sans-serif" font-size="13" lengthAdjust="spacing" textLength="137" x="1059.5" y="480.84">Mottak av planforslag</text></g><g id="elem_GMN38"><path d="M1611.5,688.46 L1611.5,713.7705 A0,0 0 0 0 1611.5,713.7705 L1810.5,713.7705 A0,0 0 0 0 1810.5,713.7705 L1810.5,698.46 L1800.5,688.46 L1715,688.46 L1711,576.32 L1707,688.46 L1611.5,688.46 A0,0 0 0 0 1611.5,688.46 " fill="#FEFFDD" style="stroke:#181818;stroke-width:0.5;"/><path d="M1800.5,688.46 L1800.5,698.46 L1810.5,698.46 L1800.5,688.46 " fill="#FEFFDD" style="stroke:#181818;stroke-width:0.5;"/><text fill="#000000" font-family="sans-serif" font-size="13" lengthAdjust="spacing" textLength="178" x="1617.5" y="706.0284">frist og utfoert ikke p&#229;krevd</text></g><!--class MilepelStatusEnum--><g id="elem_MilepelStatusEnum"><rect codeLine="46" fill="#F1F1F1" height="80.9766" id="MilepelStatusEnum" rx="2.5" ry="2.5" style="stroke:#181818;stroke-width:0.5;" width="162" x="1846" y="660.63"/><ellipse cx="1861" cy="676.63" fill="#EB937F" rx="11" ry="11" style="stroke:#181818;stroke-width:1.0;"/><path d="M1864.6143,683.13 L1856.8945,683.13 L1856.8945,670.7369 L1864.6143,670.7369 L1864.6143,672.8951 L1859.3433,672.8951 L1859.3433,675.568 L1864.1162,675.568 L1864.1162,677.7262 L1859.3433,677.7262 L1859.3433,680.9718 L1864.6143,680.9718 Z " fill="#000000"/><text fill="#000000" font-family="sans-serif" font-size="14" lengthAdjust="spacing" textLength="130" x="1875" y="681.921">MilepelStatusEnum</text><line style="stroke:#181818;stroke-width:0.5;" x1="1847" x2="2007" y1="692.63" y2="692.63"/><ellipse cx="1857" cy="706.3741" fill="none" rx="3" ry="3" style="stroke:#038048;stroke-width:1.0;"/><text fill="#000000" font-family="sans-serif" font-size="14" lengthAdjust="spacing" textLength="36" x="1866" y="710.1652">N&#229;dd</text><ellipse cx="1857" cy="722.8624" fill="none" rx="3" ry="3" style="stroke:#038048;stroke-width:1.0;"/><text fill="#000000" font-family="sans-serif" font-size="14" lengthAdjust="spacing" textLength="55" x="1866" y="726.6534">Planlagt</text><line style="stroke:#181818;stroke-width:0.5;" x1="1847" x2="2007" y1="733.6066" y2="733.6066"/></g><!--class Saksnummer--><g id="elem_Saksnummer"><rect codeLine="2" fill="#F1F1F1" height="80.9766" id="Saksnummer" rx="2.5" ry="2.5" style="stroke:#181818;stroke-width:0.5;" width="225" x="354.5" y="412.48"/><ellipse cx="418.25" cy="428.48" fill="#ADD1B2" rx="11" ry="11" style="stroke:#181818;stroke-width:1.0;"/><path d="M420.7231,434.6231 Q420.1421,434.9219 419.5029,435.0713 Q418.8638,435.2207 418.1582,435.2207 Q415.6514,435.2207 414.3315,433.5689 Q413.0117,431.917 413.0117,428.7959 Q413.0117,425.6665 414.3315,424.0147 Q415.6514,422.3628 418.1582,422.3628 Q418.8638,422.3628 419.5112,422.5122 Q420.1587,422.6616 420.7231,422.9605 L420.7231,425.6831 Q420.0923,425.1021 419.4988,424.8323 Q418.9053,424.5625 418.2744,424.5625 Q416.9297,424.5625 416.2449,425.6292 Q415.5601,426.6958 415.5601,428.7959 Q415.5601,430.8877 416.2449,431.9544 Q416.9297,433.021 418.2744,433.021 Q418.9053,433.021 419.4988,432.7512 Q420.0923,432.4815 420.7231,431.9004 Z " fill="#000000"/><text fill="#000000" font-family="sans-serif" font-size="14" lengthAdjust="spacing" textLength="89" x="438.75" y="433.771">Saksnummer</text><line style="stroke:#181818;stroke-width:0.5;" x1="355.5" x2="578.5" y1="444.48" y2="444.48"/><ellipse cx="365.5" cy="458.2241" fill="none" rx="3" ry="3" style="stroke:#038048;stroke-width:1.0;"/><text fill="#000000" font-family="sans-serif" font-size="14" lengthAdjust="spacing" textLength="109" x="374.5" y="462.0152">saksaar: integer</text><ellipse cx="365.5" cy="474.7124" fill="none" rx="3" ry="3" style="stroke:#038048;stroke-width:1.0;"/><text fill="#000000" font-family="sans-serif" font-size="14" lengthAdjust="spacing" textLength="199" x="374.5" y="478.5034">sakssekvensnummer: integer</text><line style="stroke:#181818;stroke-width:0.5;" x1="355.5" x2="578.5" y1="485.4566" y2="485.4566"/></g><!--class SaksfaserHentResultat--><g id="elem_SaksfaserHentResultat"><rect codeLine="6" fill="#F1F1F1" height="113.9531" id="SaksfaserHentResultat" rx="2.5" ry="2.5" style="stroke:#181818;stroke-width:0.5;" width="211" x="381.5" y="131.35"/><ellipse cx="408.65" cy="147.35" fill="#ADD1B2" rx="11" ry="11" style="stroke:#181818;stroke-width:1.0;"/><path d="M411.1231,153.4931 Q410.5421,153.7919 409.9029,153.9413 Q409.2638,154.0907 408.5582,154.0907 Q406.0514,154.0907 404.7315,152.4389 Q403.4117,150.787 403.4117,147.6659 Q403.4117,144.5365 404.7315,142.8847 Q406.0514,141.2328 408.5582,141.2328 Q409.2638,141.2328 409.9112,141.3822 Q410.5587,141.5316 411.1231,141.8305 L411.1231,144.5531 Q410.4923,143.9721 409.8988,143.7023 Q409.3053,143.4325 408.6744,143.4325 Q407.3297,143.4325 406.6449,144.4992 Q405.9601,145.5658 405.9601,147.6659 Q405.9601,149.7577 406.6449,150.8244 Q407.3297,151.891 408.6744,151.891 Q409.3053,151.891 409.8988,151.6212 Q410.4923,151.3515 411.1231,150.7704 Z " fill="#000000"/><text fill="#000000" font-family="sans-serif" font-size="14" lengthAdjust="spacing" textLength="152" x="425.35" y="152.641">SaksfaserHentResultat</text><line style="stroke:#181818;stroke-width:0.5;" x1="382.5" x2="591.5" y1="163.35" y2="163.35"/><ellipse cx="392.5" cy="177.0941" fill="none" rx="3" ry="3" style="stroke:#038048;stroke-width:1.0;"/><text fill="#000000" font-family="sans-serif" font-size="14" lengthAdjust="spacing" textLength="185" x="401.5" y="180.8852">saksnummer: Saksnummer</text><ellipse cx="392.5" cy="193.5824" fill="none" rx="3" ry="3" style="stroke:#038048;stroke-width:1.0;"/><text fill="#000000" font-family="sans-serif" font-size="14" lengthAdjust="spacing" textLength="109" x="401.5" y="197.3734">sakstittel: string</text><ellipse cx="392.5" cy="210.0707" fill="none" rx="3" ry="3" style="stroke:#038048;stroke-width:1.0;"/><text fill="#000000" font-family="sans-serif" font-size="14" lengthAdjust="spacing" textLength="140" x="401.5" y="213.8617">saksansvarlig: string</text><ellipse cx="392.5" cy="226.559" fill="none" rx="3" ry="3" style="stroke:#038048;stroke-width:1.0;"/><text fill="#000000" font-family="sans-serif" font-size="14" lengthAdjust="spacing" textLength="83" x="401.5" y="230.35">faser: Fase[]</text><line style="stroke:#181818;stroke-width:0.5;" x1="382.5" x2="591.5" y1="237.3031" y2="237.3031"/></g><path d="M6,163.01 L6,203.6311 A0,0 0 0 0 6,203.6311 L346,203.6311 A0,0 0 0 0 346,203.6311 L346,187.3205 L385.5,225.059 L346,179.3205 L346,173.01 L336,163.01 L6,163.01 A0,0 0 0 0 6,163.01 " fill="#FEFFDD" style="stroke:#181818;stroke-width:0.5;"/><path d="M336,163.01 L336,173.01 L346,173.01 L336,163.01 " fill="#FEFFDD" style="stroke:#181818;stroke-width:0.5;"/><text fill="#000000" font-family="sans-serif" font-size="13" lengthAdjust="spacing" textLength="319" x="12" y="180.5784">Rekkef&#248;lgen av Fase objekter i faser er signifikant.</text><text fill="#000000" font-family="sans-serif" font-size="13" lengthAdjust="spacing" textLength="217" x="12" y="195.8889">Det er den rekkef&#248;lgen fasene har.</text><!--link Dokument to Dokumenttype--><g id="link_Dokument_Dokumenttype"><path codeLine="16" d="M2195.88,543.18 C2234.56,581.56 2278.04,624.72 2309.6,656.04 " fill="none" id="Dokument-Dokumenttype" style="stroke:#181818;stroke-width:1.0;"/></g><!--link Dokument to ReferanseDokumentfil--><g id="link_Dokument_ReferanseDokumentfil"><path codeLine="17" d="M2116.51,543.18 C2121.24,583.35 2126.59,628.75 2130.31,660.34 " fill="none" id="Dokument-ReferanseDokumentfil" style="stroke:#181818;stroke-width:1.0;"/></g><!--link Fase to Vedtak--><g id="link_Fase_Vedtak"><path codeLine="19" d="M1004.29,226.73 C946.2,251.18 873.35,286.63 816,330.03 C786.91,352.05 759.56,382.69 739.53,407.74 " fill="none" id="Fase-Vedtak" style="stroke:#181818;stroke-width:1.0;"/></g><!--link Fase to FaseStatusEnum--><g id="link_Fase_FaseStatusEnum"><path codeLine="20" d="M1203.88,258.99 C1247.61,289.87 1291.07,321.23 1300,330.03 C1322.38,352.12 1343.48,380.15 1359.61,403.77 " fill="none" id="Fase-FaseStatusEnum" style="stroke:#181818;stroke-width:1.0;"/></g><!--link Fase to Fasekategori--><g id="link_Fase_Fasekategori"><path codeLine="21" d="M1049.14,270.27 C1018.39,315.64 981.24,370.46 955.84,407.94 " fill="none" id="Fase-Fasekategori" style="stroke:#181818;stroke-width:1.0;"/></g><!--link Milepel to Milepeltype--><g id="link_Milepel_Milepeltype"><path codeLine="23" d="M1548.27,547.05 C1525.77,557.78 1502.62,567.77 1480,575.89 C1356.13,620.39 1312.89,588.76 1190,635.89 C1173.17,642.35 1155.91,651.2 1140.2,660.27 " fill="none" id="Milepel-Milepeltype" style="stroke:#181818;stroke-width:1.0;"/></g><!--link Milepel to ReferanseJournalpost--><g id="link_Milepel_ReferanseJournalpost"><path codeLine="35" d="M1552.43,576.32 C1525.85,596.83 1499.23,617.37 1475.54,635.65 " fill="none" id="Milepel-ReferanseJournalpost" style="stroke:#181818;stroke-width:1.0;"/></g><!--link Milepel to ReferanseDokumentfil--><g id="link_Milepel_ReferanseDokumentfil"><path codeLine="36" d="M1873.73,548.6 C1889.7,557.84 1905.66,567.06 1921,575.89 C1967.57,602.72 1979.51,608.92 2026,635.89 C2039.49,643.72 2053.88,652.15 2067.63,660.24 " fill="none" id="Milepel-ReferanseDokumentfil" style="stroke:#181818;stroke-width:1.0;"/></g><!--link Milepel to MilepelStatusEnum--><g id="link_Milepel_MilepelStatusEnum"><path codeLine="41" d="M1818.37,576.32 C1845.05,606.72 1871.78,637.19 1892.05,660.29 " fill="none" id="Milepel-MilepelStatusEnum" style="stroke:#181818;stroke-width:1.0;"/></g><!--link ReferanseJournalpost to EksternNoekkel--><g id="link_ReferanseJournalpost_EksternNoekkel"><path codeLine="42" d="M1305.33,766.63 C1274.86,789.31 1241.53,814.12 1214.58,834.18 " fill="none" id="ReferanseJournalpost-EksternNoekkel" style="stroke:#181818;stroke-width:1.0;"/></g><!--link ReferanseJournalpost to SaksJournalpostnummer--><g id="link_ReferanseJournalpost_SaksJournalpostnummer"><path codeLine="43" d="M1494.81,766.63 C1526.09,786.26 1559.91,807.49 1589.17,825.85 " fill="none" id="ReferanseJournalpost-SaksJournalpostnummer" style="stroke:#181818;stroke-width:1.0;"/></g><!--link ReferanseJournalpost to Journalnummer--><g id="link_ReferanseJournalpost_Journalnummer"><path codeLine="44" d="M1392,766.63 C1392,789.31 1392,814.12 1392,834.18 " fill="none" id="ReferanseJournalpost-Journalnummer" style="stroke:#181818;stroke-width:1.0;"/></g><!--link SaksfaserHentResultat to Fase--><g id="link_SaksfaserHentResultat_Fase"><path codeLine="18" d="M550.06,131.08 C577.85,109.59 612.19,87.69 647.5,76.62 C768.56,38.64 900.1571,82.8268 993.3271,127.4468 " fill="none" id="SaksfaserHentResultat-to-Fase" style="stroke:#181818;stroke-width:1.0;"/><polygon fill="#181818" points="1004.15,132.63,1000.4663,126.4308,993.3271,127.4468,997.0108,133.646,1004.15,132.63" style="stroke:#181818;stroke-width:1.0;"/></g><!--link SaksfaserHentResultat to Saksnummer--><g id="link_SaksfaserHentResultat_Saksnummer"><path codeLine="19" d="M482.71,245.67 C478.89,295.86 473.39,368.03 470.02,412.35 " fill="none" id="SaksfaserHentResultat-Saksnummer" style="stroke:#181818;stroke-width:1.0;"/></g><!--link Fase to Milepel--><g id="link_Fase_Milepel"><path codeLine="27" d="M1203.75,261.61 C1209.47,264.66 1215.24,267.49 1221,270.03 C1329.09,317.76 1369.28,288.78 1480,330.03 C1502.52,338.43 1525.62,348.57 1548.09,359.38 " fill="none" id="Fase-Milepel" style="stroke:#181818;stroke-width:1.0;"/></g><!--link Fase to Dokument--><g id="link_Fase_Dokument"><path codeLine="28" d="M1203.7,262.76 C1209.41,265.48 1215.2,267.94 1221,270.03 C1502.19,371.59 1605.61,240.94 1891,330.03 C1917.01,338.15 1932.6854,344.2485 1957.5754,357.0885 " fill="none" id="Fase-to-Dokument" style="stroke:#181818;stroke-width:1.0;"/><polygon fill="#181818" points="1968.24,362.59,1964.7416,356.2844,1957.5754,357.0885,1961.0739,363.3941,1968.24,362.59" style="stroke:#181818;stroke-width:1.0;"/></g><!--link Milepel to Dokument--><g id="link_Milepel_Dokument"><path codeLine="29" d="M1873.78,452.96 C1895.25,452.96 1904.72,452.96 1926.19,452.96 " fill="none" id="Milepel-to-Dokument" style="stroke:#181818;stroke-width:1.0;"/><polygon fill="#181818" points="1938.19,452.96,1932.19,448.96,1926.19,452.96,1932.19,456.96,1938.19,452.96" style="stroke:#181818;stroke-width:1.0;"/></g><!--SRC=[fL8zJyCm4DtzAwuR5DKLQ-QgOc4f8s9mwqjgx5mgVsH1_1pu3UpzOvpTeAIY3AXHbDZlxZs_T_BCqCubZI2NKYwfapR8sl0dA1jg5T3B_bxMw1m6gJkRMgIut3aLWZQgyQgLXoHc_r79- -iKMkFmWEuwaOnHQblqltH40U3fX_N0cJSOaeigmfi0Vkv6UbKQJ-kn5asCw2e8qHjgHbnHw9LtfZalbNCgMFFl-KMy2q5TH71OH-Zgoqwgga25lq5hiJv-kGO9L5zqeDk-eetemK3f17w3QSZmJ1H5MPWhZ1dNpFDJaSmWXBtoKY1fo7w4k3oInRmS-5TrCHtGaCoRPb-YPU8fYT75qBeiOUkJnG3APHStXfr1KAn0qAA6SVgtK7SUZX-mvpCHk8vaqSKIO4Z876xGw3ErFtvwX4J6mYHO6HWxVJnThM4_XzLmvSLGECE-0G00]--></g></svg>