<svg xmlns="http://www.w3.org/2000/svg" xmlns:xlink="http://www.w3.org/1999/xlink" contentStyleType="text/css" height="930px" preserveAspectRatio="none" style="width:1970px;height:930px;background:#FFFFFF;" version="1.1" viewBox="0 0 1970 930" width="1970px" zoomAndPan="magnify"><defs/><g><!--class SaksfaserHentResultat--><g id="elem_SaksfaserHentResultat"><rect codeLine="1" fill="#F1F1F1" height="113.9531" id="SaksfaserHentResultat" rx="2.5" ry="2.5" style="stroke:#181818;stroke-width:0.5;" width="211" x="381.5" y="131.35"/><ellipse cx="408.65" cy="147.35" fill="#ADD1B2" rx="11" ry="11" style="stroke:#181818;stroke-width:1.0;"/><path d="M411.1231,153.4931 Q410.5421,153.7919 409.9029,153.9413 Q409.2638,154.0907 408.5582,154.0907 Q406.0514,154.0907 404.7315,152.4389 Q403.4117,150.787 403.4117,147.6659 Q403.4117,144.5365 404.7315,142.8847 Q406.0514,141.2328 408.5582,141.2328 Q409.2638,141.2328 409.9112,141.3822 Q410.5587,141.5316 411.1231,141.8305 L411.1231,144.5531 Q410.4923,143.9721 409.8988,143.7023 Q409.3053,143.4325 408.6744,143.4325 Q407.3297,143.4325 406.6449,144.4992 Q405.9601,145.5658 405.9601,147.6659 Q405.9601,149.7577 406.6449,150.8244 Q407.3297,151.891 408.6744,151.891 Q409.3053,151.891 409.8988,151.6212 Q410.4923,151.3515 411.1231,150.7704 Z " fill="#000000"/><text fill="#000000" font-family="sans-serif" font-size="14" lengthAdjust="spacing" textLength="152" x="425.35" y="152.641">SaksfaserHentResultat</text><line style="stroke:#181818;stroke-width:0.5;" x1="382.5" x2="591.5" y1="163.35" y2="163.35"/><ellipse cx="392.5" cy="177.0941" fill="none" rx="3" ry="3" style="stroke:#038048;stroke-width:1.0;"/><text fill="#000000" font-family="sans-serif" font-size="14" lengthAdjust="spacing" textLength="185" x="401.5" y="180.8852">saksnummer: Saksnummer</text><ellipse cx="392.5" cy="193.5824" fill="none" rx="3" ry="3" style="stroke:#038048;stroke-width:1.0;"/><text fill="#000000" font-family="sans-serif" font-size="14" lengthAdjust="spacing" textLength="109" x="401.5" y="197.3734">sakstittel: string</text><ellipse cx="392.5" cy="210.0707" fill="none" rx="3" ry="3" style="stroke:#038048;stroke-width:1.0;"/><text fill="#000000" font-family="sans-serif" font-size="14" lengthAdjust="spacing" textLength="140" x="401.5" y="213.8617">saksansvarlig: string</text><ellipse cx="392.5" cy="226.559" fill="none" rx="3" ry="3" style="stroke:#038048;stroke-width:1.0;"/><text fill="#000000" font-family="sans-serif" font-size="14" lengthAdjust="spacing" textLength="83" x="401.5" y="230.35">faser: Fase[]</text><line style="stroke:#181818;stroke-width:0.5;" x1="382.5" x2="591.5" y1="237.3031" y2="237.3031"/></g><path d="M6,163.01 L6,203.6311 A0,0 0 0 0 6,203.6311 L346,203.6311 A0,0 0 0 0 346,203.6311 L346,187.3205 L385.5,225.059 L346,179.3205 L346,173.01 L336,163.01 L6,163.01 A0,0 0 0 0 6,163.01 " fill="#FEFFDD" style="stroke:#181818;stroke-width:0.5;"/><path d="M336,163.01 L336,173.01 L346,173.01 L336,163.01 " fill="#FEFFDD" style="stroke:#181818;stroke-width:0.5;"/><text fill="#000000" font-family="sans-serif" font-size="13" lengthAdjust="spacing" textLength="319" x="12" y="180.5784">Rekkef&#248;lgen av Fase objekter i faser er signifikant.</text><text fill="#000000" font-family="sans-serif" font-size="13" lengthAdjust="spacing" textLength="217" x="12" y="195.8889">Det er den rekkef&#248;lgen fasene har.</text><!--class Fase--><g id="elem_Fase"><rect codeLine="18" fill="#F1F1F1" height="163.418" id="Fase" rx="2.5" ry="2.5" style="stroke:#181818;stroke-width:0.5;" width="199" x="726.5" y="106.62"/><ellipse cx="806.25" cy="122.62" fill="#ADD1B2" rx="11" ry="11" style="stroke:#181818;stroke-width:1.0;"/><path d="M808.7231,128.7631 Q808.1421,129.0619 807.5029,129.2113 Q806.8638,129.3607 806.1582,129.3607 Q803.6514,129.3607 802.3315,127.7089 Q801.0117,126.057 801.0117,122.9359 Q801.0117,119.8065 802.3315,118.1547 Q803.6514,116.5028 806.1582,116.5028 Q806.8638,116.5028 807.5112,116.6522 Q808.1587,116.8016 808.7231,117.1005 L808.7231,119.8231 Q808.0923,119.2421 807.4988,118.9723 Q806.9053,118.7025 806.2744,118.7025 Q804.9297,118.7025 804.2449,119.7692 Q803.5601,120.8358 803.5601,122.9359 Q803.5601,125.0277 804.2449,126.0944 Q804.9297,127.161 806.2744,127.161 Q806.9053,127.161 807.4988,126.8912 Q808.0923,126.6215 808.7231,126.0404 Z " fill="#000000"/><text fill="#000000" font-family="sans-serif" font-size="14" lengthAdjust="spacing" textLength="31" x="826.75" y="127.911">Fase</text><line style="stroke:#181818;stroke-width:0.5;" x1="727.5" x2="924.5" y1="138.62" y2="138.62"/><ellipse cx="737.5" cy="152.3641" fill="none" rx="3" ry="3" style="stroke:#038048;stroke-width:1.0;"/><text fill="#000000" font-family="sans-serif" font-size="14" lengthAdjust="spacing" textLength="109" x="746.5" y="156.1552">fasenavn: string</text><ellipse cx="737.5" cy="168.8524" fill="none" rx="3" ry="3" style="stroke:#038048;stroke-width:1.0;"/><text fill="#000000" font-family="sans-serif" font-size="14" lengthAdjust="spacing" textLength="89" x="746.5" y="172.6434">faseid: string</text><ellipse cx="737.5" cy="185.3407" fill="none" rx="3" ry="3" style="stroke:#038048;stroke-width:1.0;"/><text fill="#000000" font-family="sans-serif" font-size="14" lengthAdjust="spacing" textLength="153" x="746.5" y="189.1317">kategori: Fasekategori</text><ellipse cx="737.5" cy="201.829" fill="none" rx="3" ry="3" style="stroke:#038048;stroke-width:1.0;"/><text fill="#000000" font-family="sans-serif" font-size="14" lengthAdjust="spacing" textLength="131" x="746.5" y="205.62">milepeler: Milepel[]</text><ellipse cx="737.5" cy="218.3173" fill="none" rx="3" ry="3" style="stroke:#038048;stroke-width:1.0;"/><text fill="#000000" font-family="sans-serif" font-size="14" lengthAdjust="spacing" textLength="161" x="746.5" y="222.1083">status: FaseStatusEnum</text><ellipse cx="737.5" cy="234.8055" fill="none" rx="3" ry="3" style="stroke:#038048;stroke-width:1.0;"/><text fill="#000000" font-family="sans-serif" font-size="14" lengthAdjust="spacing" textLength="100" x="746.5" y="238.5966">vedtak: Vedtak</text><ellipse cx="737.5" cy="251.2938" fill="none" rx="3" ry="3" style="stroke:#038048;stroke-width:1.0;"/><text fill="#000000" font-family="sans-serif" font-size="14" lengthAdjust="spacing" textLength="173" x="746.5" y="255.0848">dokumenter: Dokument[]</text><line style="stroke:#181818;stroke-width:0.5;" x1="727.5" x2="924.5" y1="262.038" y2="262.038"/></g><!--class Saksnummer--><g id="elem_Saksnummer"><rect codeLine="125" fill="#F1F1F1" height="80.9766" id="Saksnummer" rx="2.5" ry="2.5" style="stroke:#181818;stroke-width:0.5;" width="225" x="280.5" y="412.48"/><ellipse cx="344.25" cy="428.48" fill="#ADD1B2" rx="11" ry="11" style="stroke:#181818;stroke-width:1.0;"/><path d="M346.7231,434.6231 Q346.1421,434.9219 345.5029,435.0713 Q344.8638,435.2207 344.1582,435.2207 Q341.6514,435.2207 340.3315,433.5689 Q339.0117,431.917 339.0117,428.7959 Q339.0117,425.6665 340.3315,424.0147 Q341.6514,422.3628 344.1582,422.3628 Q344.8638,422.3628 345.5112,422.5122 Q346.1587,422.6616 346.7231,422.9605 L346.7231,425.6831 Q346.0923,425.1021 345.4988,424.8323 Q344.9053,424.5625 344.2744,424.5625 Q342.9297,424.5625 342.2449,425.6292 Q341.5601,426.6958 341.5601,428.7959 Q341.5601,430.8877 342.2449,431.9544 Q342.9297,433.021 344.2744,433.021 Q344.9053,433.021 345.4988,432.7512 Q346.0923,432.4815 346.7231,431.9004 Z " fill="#000000"/><text fill="#000000" font-family="sans-serif" font-size="14" lengthAdjust="spacing" textLength="89" x="364.75" y="433.771">Saksnummer</text><line style="stroke:#181818;stroke-width:0.5;" x1="281.5" x2="504.5" y1="444.48" y2="444.48"/><ellipse cx="291.5" cy="458.2241" fill="none" rx="3" ry="3" style="stroke:#038048;stroke-width:1.0;"/><text fill="#000000" font-family="sans-serif" font-size="14" lengthAdjust="spacing" textLength="109" x="300.5" y="462.0152">saksaar: integer</text><ellipse cx="291.5" cy="474.7124" fill="none" rx="3" ry="3" style="stroke:#038048;stroke-width:1.0;"/><text fill="#000000" font-family="sans-serif" font-size="14" lengthAdjust="spacing" textLength="199" x="300.5" y="478.5034">sakssekvensnummer: integer</text><line style="stroke:#181818;stroke-width:0.5;" x1="281.5" x2="504.5" y1="485.4566" y2="485.4566"/></g><g id="elem_GMN9"><path d="M553,6 L553,46.6211 A0,0 0 0 0 553,46.6211 L822,46.6211 L826,106.47 L830,46.6211 L1099,46.6211 A0,0 0 0 0 1099,46.6211 L1099,16 L1089,6 L553,6 A0,0 0 0 0 553,6 " fill="#FEFFDD" style="stroke:#181818;stroke-width:0.5;"/><path d="M1089,6 L1089,16 L1099,16 L1089,6 " fill="#FEFFDD" style="stroke:#181818;stroke-width:0.5;"/><text fill="#000000" font-family="sans-serif" font-size="13" lengthAdjust="spacing" textLength="369" x="559" y="23.5684">En fase er i hovedsak det som hender mellom to milepeler.</text><text fill="#000000" font-family="sans-serif" font-size="13" lengthAdjust="spacing" textLength="525" x="559" y="38.8789">Interne faser sendes ikke ut ved denne protokollen. Vi kutter derfor ut Global flagg.</text></g><path d="M960.5,163.01 L960.5,179.3205 L835.5,167.3524 L960.5,187.3205 L960.5,203.6311 A0,0 0 0 0 960.5,203.6311 L1481.5,203.6311 A0,0 0 0 0 1481.5,203.6311 L1481.5,173.01 L1471.5,163.01 L960.5,163.01 A0,0 0 0 0 960.5,163.01 " fill="#FEFFDD" style="stroke:#181818;stroke-width:0.5;"/><path d="M1471.5,163.01 L1471.5,173.01 L1481.5,173.01 L1471.5,163.01 " fill="#FEFFDD" style="stroke:#181818;stroke-width:0.5;"/><text fill="#000000" font-family="sans-serif" font-size="13" lengthAdjust="spacing" textLength="500" x="966.5" y="180.5784">Faseid brukes alene (ikke sammen med saksnummer) for &#229; hente en enkelt fase</text><text fill="#000000" font-family="sans-serif" font-size="13" lengthAdjust="spacing" textLength="165" x="966.5" y="195.8889">Den m&#229; dermed v&#230;re unik</text><!--class Fasekategori--><g id="elem_Fasekategori"><rect codeLine="33" fill="#F1F1F1" height="89.5977" id="Fasekategori" rx="2.5" ry="2.5" style="stroke:#181818;stroke-width:0.5;" width="184" x="541" y="408.17"/><ellipse cx="584.8" cy="428.4805" fill="#ADD1B2" rx="11" ry="11" style="stroke:#181818;stroke-width:1.0;"/><path d="M587.2731,434.6236 Q586.6921,434.9224 586.0529,435.0719 Q585.4138,435.2213 584.7082,435.2213 Q582.2014,435.2213 580.8815,433.5694 Q579.5617,431.9176 579.5617,428.7965 Q579.5617,425.6671 580.8815,424.0152 Q582.2014,422.3634 584.7082,422.3634 Q585.4138,422.3634 586.0612,422.5128 Q586.7087,422.6622 587.2731,422.961 L587.2731,425.6837 Q586.6423,425.1026 586.0488,424.8328 Q585.4553,424.5631 584.8244,424.5631 Q583.4797,424.5631 582.7949,425.6297 Q582.1101,426.6964 582.1101,428.7965 Q582.1101,430.8883 582.7949,431.9549 Q583.4797,433.0216 584.8244,433.0216 Q585.4553,433.0216 586.0488,432.7518 Q586.6423,432.482 587.2731,431.901 Z " fill="#000000"/><text fill="#000000" font-family="sans-serif" font-size="12" font-style="italic" lengthAdjust="spacing" textLength="42" x="628.2" y="424.7716">&#171;Kode&#187;</text><text fill="#000000" font-family="sans-serif" font-size="14" lengthAdjust="spacing" textLength="88" x="605.2" y="440.838">Fasekategori</text><line style="stroke:#181818;stroke-width:0.5;" x1="542" x2="724" y1="448.7911" y2="448.7911"/><ellipse cx="552" cy="462.5352" fill="none" rx="3" ry="3" style="stroke:#038048;stroke-width:1.0;"/><text fill="#000000" font-family="sans-serif" font-size="14" lengthAdjust="spacing" textLength="116" x="561" y="466.3262">kodeverdi: string</text><ellipse cx="552" cy="479.0235" fill="none" rx="3" ry="3" style="stroke:#038048;stroke-width:1.0;"/><text fill="#000000" font-family="sans-serif" font-size="14" lengthAdjust="spacing" textLength="158" x="561" y="482.8145">kodebeskrivelse: string</text><line style="stroke:#181818;stroke-width:0.5;" x1="542" x2="724" y1="489.7677" y2="489.7677"/></g><g id="elem_GMN15"><path d="M364,650.18 L364,752.0433 A0,0 0 0 0 364,752.0433 L690,752.0433 A0,0 0 0 0 690,752.0433 L690,660.18 L680,650.18 L552.66,650.18 L613.93,498.26 L544.66,650.18 L364,650.18 A0,0 0 0 0 364,650.18 " fill="#FEFFDD" style="stroke:#181818;stroke-width:0.5;"/><path d="M680,650.18 L680,660.18 L690,660.18 L680,650.18 " fill="#FEFFDD" style="stroke:#181818;stroke-width:0.5;"/><text fill="#000000" font-family="sans-serif" font-size="13" lengthAdjust="spacing" textLength="305" x="370" y="667.7484">Se gjerne Byggesaksbehandling::Prosesskategori</text><text fill="#000000" font-family="sans-serif" font-size="13" lengthAdjust="spacing" textLength="45" x="374" y="683.0589">fra NPS</text><text fill="#000000" font-family="sans-serif" font-size="13" lengthAdjust="spacing" textLength="210" x="370" y="698.3695">Vi m&#229; f&#229; avklart denne kodelisten</text><text fill="#000000" font-family="sans-serif" font-size="13" lengthAdjust="spacing" textLength="69" x="370" y="713.68">Eksempler:</text><text fill="#000000" font-family="sans-serif" font-size="13" lengthAdjust="spacing" textLength="34" x="370" y="728.9905">Klage</text><text fill="#000000" font-family="sans-serif" font-size="13" lengthAdjust="spacing" textLength="43" x="370" y="744.3011">H&#248;ring</text></g><!--class Vedtak--><g id="elem_Vedtak"><rect codeLine="46" fill="#F1F1F1" height="89.5977" id="Vedtak" rx="2.5" ry="2.5" style="stroke:#181818;stroke-width:0.5;" width="184" x="1477" y="408.17"/><ellipse cx="1541.25" cy="428.4805" fill="#ADD1B2" rx="11" ry="11" style="stroke:#181818;stroke-width:1.0;"/><path d="M1543.7231,434.6236 Q1543.1421,434.9224 1542.5029,435.0719 Q1541.8638,435.2213 1541.1582,435.2213 Q1538.6514,435.2213 1537.3315,433.5694 Q1536.0117,431.9176 1536.0117,428.7965 Q1536.0117,425.6671 1537.3315,424.0152 Q1538.6514,422.3634 1541.1582,422.3634 Q1541.8638,422.3634 1542.5112,422.5128 Q1543.1587,422.6622 1543.7231,422.961 L1543.7231,425.6837 Q1543.0923,425.1026 1542.4988,424.8328 Q1541.9053,424.5631 1541.2744,424.5631 Q1539.9297,424.5631 1539.2449,425.6297 Q1538.5601,426.6964 1538.5601,428.7965 Q1538.5601,430.8883 1539.2449,431.9549 Q1539.9297,433.0216 1541.2744,433.0216 Q1541.9053,433.0216 1542.4988,432.7518 Q1543.0923,432.482 1543.7231,431.901 Z " fill="#000000"/><text fill="#000000" font-family="sans-serif" font-size="12" font-style="italic" lengthAdjust="spacing" textLength="42" x="1564.25" y="424.7716">&#171;Kode&#187;</text><text fill="#000000" font-family="sans-serif" font-size="14" lengthAdjust="spacing" textLength="47" x="1561.75" y="440.838">Vedtak</text><line style="stroke:#181818;stroke-width:0.5;" x1="1478" x2="1660" y1="448.7911" y2="448.7911"/><ellipse cx="1488" cy="462.5352" fill="none" rx="3" ry="3" style="stroke:#038048;stroke-width:1.0;"/><text fill="#000000" font-family="sans-serif" font-size="14" lengthAdjust="spacing" textLength="116" x="1497" y="466.3262">kodeverdi: string</text><ellipse cx="1488" cy="479.0235" fill="none" rx="3" ry="3" style="stroke:#038048;stroke-width:1.0;"/><text fill="#000000" font-family="sans-serif" font-size="14" lengthAdjust="spacing" textLength="158" x="1497" y="482.8145">kodebeskrivelse: string</text><line style="stroke:#181818;stroke-width:0.5;" x1="1478" x2="1660" y1="489.7677" y2="489.7677"/></g><g id="elem_GMN21"><path d="M1517,145.05 L1517,231.6027 A0,0 0 0 0 1517,231.6027 L1570.87,231.6027 L1570.18,407.78 L1578.87,231.6027 L1635,231.6027 A0,0 0 0 0 1635,231.6027 L1635,155.05 L1625,145.05 L1517,145.05 A0,0 0 0 0 1517,145.05 " fill="#FEFFDD" style="stroke:#181818;stroke-width:0.5;"/><path d="M1625,145.05 L1625,155.05 L1635,155.05 L1625,145.05 " fill="#FEFFDD" style="stroke:#181818;stroke-width:0.5;"/><text fill="#000000" font-family="sans-serif" font-size="13" lengthAdjust="spacing" textLength="69" x="1523" y="162.6184">Eksempler:</text><text fill="#000000" font-family="sans-serif" font-size="13" lengthAdjust="spacing" textLength="56" x="1523" y="177.9289">godkjent</text><text fill="#000000" font-family="sans-serif" font-size="13" lengthAdjust="spacing" textLength="97" x="1523" y="193.2395">delvis godkjent</text><text fill="#000000" font-family="sans-serif" font-size="13" lengthAdjust="spacing" textLength="42" x="1523" y="208.55">avsl&#229;tt</text><text fill="#000000" font-family="sans-serif" font-size="13" lengthAdjust="spacing" textLength="37" x="1523" y="223.8605">avvist</text></g><!--class FaseStatusEnum--><g id="elem_FaseStatusEnum"><rect codeLine="53" fill="#F1F1F1" height="97.4648" id="FaseStatusEnum" rx="2.5" ry="2.5" style="stroke:#181818;stroke-width:0.5;" width="144" x="760" y="404.23"/><ellipse cx="775" cy="420.23" fill="#EB937F" rx="11" ry="11" style="stroke:#181818;stroke-width:1.0;"/><path d="M778.6143,426.73 L770.8945,426.73 L770.8945,414.3369 L778.6143,414.3369 L778.6143,416.4951 L773.3433,416.4951 L773.3433,419.168 L778.1162,419.168 L778.1162,421.3262 L773.3433,421.3262 L773.3433,424.5718 L778.6143,424.5718 Z " fill="#000000"/><text fill="#000000" font-family="sans-serif" font-size="14" lengthAdjust="spacing" textLength="112" x="789" y="425.521">FaseStatusEnum</text><line style="stroke:#181818;stroke-width:0.5;" x1="761" x2="903" y1="436.23" y2="436.23"/><ellipse cx="771" cy="449.9741" fill="none" rx="3" ry="3" style="stroke:#038048;stroke-width:1.0;"/><text fill="#000000" font-family="sans-serif" font-size="14" lengthAdjust="spacing" textLength="55" x="780" y="453.7652">Planlagt</text><ellipse cx="771" cy="466.4624" fill="none" rx="3" ry="3" style="stroke:#038048;stroke-width:1.0;"/><text fill="#000000" font-family="sans-serif" font-size="14" lengthAdjust="spacing" textLength="88" x="780" y="470.2534">UnderArbeid</text><ellipse cx="771" cy="482.9507" fill="none" rx="3" ry="3" style="stroke:#038048;stroke-width:1.0;"/><text fill="#000000" font-family="sans-serif" font-size="14" lengthAdjust="spacing" textLength="48" x="780" y="486.7417">Utfoert</text><line style="stroke:#181818;stroke-width:0.5;" x1="761" x2="903" y1="493.6948" y2="493.6948"/></g><!--class Milepel--><g id="elem_Milepel"><rect codeLine="63" fill="#F1F1F1" height="245.8594" id="Milepel" rx="2.5" ry="2.5" style="stroke:#181818;stroke-width:0.5;" width="325" x="965.5" y="330.03"/><ellipse cx="1099.25" cy="346.03" fill="#ADD1B2" rx="11" ry="11" style="stroke:#181818;stroke-width:1.0;"/><path d="M1101.7231,352.1731 Q1101.1421,352.4719 1100.5029,352.6213 Q1099.8638,352.7707 1099.1582,352.7707 Q1096.6514,352.7707 1095.3315,351.1189 Q1094.0117,349.467 1094.0117,346.3459 Q1094.0117,343.2165 1095.3315,341.5647 Q1096.6514,339.9128 1099.1582,339.9128 Q1099.8638,339.9128 1100.5112,340.0622 Q1101.1587,340.2116 1101.7231,340.5105 L1101.7231,343.2331 Q1101.0923,342.6521 1100.4988,342.3823 Q1099.9053,342.1125 1099.2744,342.1125 Q1097.9297,342.1125 1097.2449,343.1792 Q1096.5601,344.2458 1096.5601,346.3459 Q1096.5601,348.4377 1097.2449,349.5044 Q1097.9297,350.571 1099.2744,350.571 Q1099.9053,350.571 1100.4988,350.3012 Q1101.0923,350.0315 1101.7231,349.4504 Z " fill="#000000"/><text fill="#000000" font-family="sans-serif" font-size="14" lengthAdjust="spacing" textLength="49" x="1119.75" y="351.321">Milepel</text><line style="stroke:#181818;stroke-width:0.5;" x1="966.5" x2="1289.5" y1="362.03" y2="362.03"/><ellipse cx="976.5" cy="375.7741" fill="none" rx="3" ry="3" style="stroke:#038048;stroke-width:1.0;"/><text fill="#000000" font-family="sans-serif" font-size="14" lengthAdjust="spacing" textLength="108" x="985.5" y="379.5652">systemId: string</text><ellipse cx="976.5" cy="392.2624" fill="none" rx="3" ry="3" style="stroke:#038048;stroke-width:1.0;"/><text fill="#000000" font-family="sans-serif" font-size="14" lengthAdjust="spacing" textLength="124" x="985.5" y="396.0534">beskrivelse: string</text><ellipse cx="976.5" cy="408.7507" fill="none" rx="3" ry="3" style="stroke:#038048;stroke-width:1.0;"/><text fill="#000000" font-family="sans-serif" font-size="14" lengthAdjust="spacing" textLength="143" x="985.5" y="412.5417">kategori: Milepeltype</text><ellipse cx="976.5" cy="425.239" fill="none" rx="3" ry="3" style="stroke:#038048;stroke-width:1.0;"/><text fill="#000000" font-family="sans-serif" font-size="14" lengthAdjust="spacing" textLength="65" x="985.5" y="429.03">frist: date</text><ellipse cx="976.5" cy="441.7273" fill="none" rx="3" ry="3" style="stroke:#038048;stroke-width:1.0;"/><text fill="#000000" font-family="sans-serif" font-size="14" lengthAdjust="spacing" textLength="85" x="985.5" y="445.5183">utfoert: date</text><ellipse cx="976.5" cy="458.2155" fill="none" rx="3" ry="3" style="stroke:#038048;stroke-width:1.0;"/><text fill="#000000" font-family="sans-serif" font-size="14" lengthAdjust="spacing" textLength="111" x="985.5" y="462.0066">planlagtTil: date</text><ellipse cx="976.5" cy="474.7038" fill="none" rx="3" ry="3" style="stroke:#038048;stroke-width:1.0;"/><text fill="#000000" font-family="sans-serif" font-size="14" lengthAdjust="spacing" textLength="105" x="985.5" y="478.4948">intern: boolean</text><ellipse cx="976.5" cy="491.1921" fill="none" rx="3" ry="3" style="stroke:#038048;stroke-width:1.0;"/><text fill="#000000" font-family="sans-serif" font-size="14" lengthAdjust="spacing" textLength="299" x="985.5" y="494.9831">referanseJournalpost: ReferanseJournalpost</text><ellipse cx="976.5" cy="507.6804" fill="none" rx="3" ry="3" style="stroke:#038048;stroke-width:1.0;"/><text fill="#000000" font-family="sans-serif" font-size="14" lengthAdjust="spacing" textLength="296" x="985.5" y="511.4714">referanseDokument: ReferanseDokumentfil</text><ellipse cx="976.5" cy="524.1687" fill="none" rx="3" ry="3" style="stroke:#038048;stroke-width:1.0;"/><text fill="#000000" font-family="sans-serif" font-size="14" lengthAdjust="spacing" textLength="110" x="985.5" y="527.9597">erStart: boolean</text><ellipse cx="976.5" cy="540.657" fill="none" rx="3" ry="3" style="stroke:#038048;stroke-width:1.0;"/><text fill="#000000" font-family="sans-serif" font-size="14" lengthAdjust="spacing" textLength="109" x="985.5" y="544.448">erSlutt: boolean</text><ellipse cx="976.5" cy="557.1452" fill="none" rx="3" ry="3" style="stroke:#038048;stroke-width:1.0;"/><text fill="#000000" font-family="sans-serif" font-size="14" lengthAdjust="spacing" textLength="179" x="985.5" y="560.9363">status: MilepelStatusEnum</text><line style="stroke:#181818;stroke-width:0.5;" x1="966.5" x2="1289.5" y1="567.8894" y2="567.8894"/></g><g id="elem_GMN28"><path d="M1764.5,688.46 L1764.5,713.7705 L1963.5,713.7705 L1963.5,698.46 L1953.5,688.46 L1764.5,688.46 " fill="#FEFFDD" style="stroke:#181818;stroke-width:0.5;"/><path d="M1953.5,688.46 L1953.5,698.46 L1963.5,698.46 L1953.5,688.46 " fill="#FEFFDD" style="stroke:#181818;stroke-width:1.0;"/><text fill="#000000" font-family="sans-serif" font-size="13" lengthAdjust="spacing" textLength="178" x="1770.5" y="706.0284">frist og utfoert ikke p&#229;krevd</text></g><!--class MilepelStatusEnum--><g id="elem_MilepelStatusEnum"><rect codeLine="120" fill="#F1F1F1" height="80.9766" id="MilepelStatusEnum" rx="2.5" ry="2.5" style="stroke:#181818;stroke-width:0.5;" width="162" x="725" y="660.63"/><ellipse cx="740" cy="676.63" fill="#EB937F" rx="11" ry="11" style="stroke:#181818;stroke-width:1.0;"/><path d="M743.6143,683.13 L735.8945,683.13 L735.8945,670.7369 L743.6143,670.7369 L743.6143,672.8951 L738.3433,672.8951 L738.3433,675.568 L743.1162,675.568 L743.1162,677.7262 L738.3433,677.7262 L738.3433,680.9718 L743.6143,680.9718 Z " fill="#000000"/><text fill="#000000" font-family="sans-serif" font-size="14" lengthAdjust="spacing" textLength="130" x="754" y="681.921">MilepelStatusEnum</text><line style="stroke:#181818;stroke-width:0.5;" x1="726" x2="886" y1="692.63" y2="692.63"/><ellipse cx="736" cy="706.3741" fill="none" rx="3" ry="3" style="stroke:#038048;stroke-width:1.0;"/><text fill="#000000" font-family="sans-serif" font-size="14" lengthAdjust="spacing" textLength="36" x="745" y="710.1652">N&#229;dd</text><ellipse cx="736" cy="722.8624" fill="none" rx="3" ry="3" style="stroke:#038048;stroke-width:1.0;"/><text fill="#000000" font-family="sans-serif" font-size="14" lengthAdjust="spacing" textLength="55" x="745" y="726.6534">Planlagt</text><line style="stroke:#181818;stroke-width:0.5;" x1="726" x2="886" y1="733.6066" y2="733.6066"/></g><!--class Milepeltype--><g id="elem_Milepeltype"><rect codeLine="115" fill="#F1F1F1" height="89.5977" id="Milepeltype" rx="2.5" ry="2.5" style="stroke:#181818;stroke-width:0.5;" width="184" x="922" y="656.32"/><ellipse cx="970.75" cy="676.6305" fill="#ADD1B2" rx="11" ry="11" style="stroke:#181818;stroke-width:1.0;"/><path d="M973.2231,682.7736 Q972.6421,683.0724 972.0029,683.2219 Q971.3638,683.3713 970.6582,683.3713 Q968.1514,683.3713 966.8315,681.7194 Q965.5117,680.0676 965.5117,676.9465 Q965.5117,673.8171 966.8315,672.1652 Q968.1514,670.5134 970.6582,670.5134 Q971.3638,670.5134 972.0112,670.6628 Q972.6587,670.8122 973.2231,671.111 L973.2231,673.8337 Q972.5923,673.2526 971.9988,672.9828 Q971.4053,672.7131 970.7744,672.7131 Q969.4297,672.7131 968.7449,673.7797 Q968.0601,674.8464 968.0601,676.9465 Q968.0601,679.0383 968.7449,680.1049 Q969.4297,681.1716 970.7744,681.1716 Q971.4053,681.1716 971.9988,680.9018 Q972.5923,680.632 973.2231,680.051 Z " fill="#000000"/><text fill="#000000" font-family="sans-serif" font-size="12" font-style="italic" lengthAdjust="spacing" textLength="42" x="1009.25" y="672.9216">&#171;Kode&#187;</text><text fill="#000000" font-family="sans-serif" font-size="14" lengthAdjust="spacing" textLength="78" x="991.25" y="688.988">Milepeltype</text><line style="stroke:#181818;stroke-width:0.5;" x1="923" x2="1105" y1="696.9411" y2="696.9411"/><ellipse cx="933" cy="710.6852" fill="none" rx="3" ry="3" style="stroke:#038048;stroke-width:1.0;"/><text fill="#000000" font-family="sans-serif" font-size="14" lengthAdjust="spacing" textLength="116" x="942" y="714.4762">kodeverdi: string</text><ellipse cx="933" cy="727.1735" fill="none" rx="3" ry="3" style="stroke:#038048;stroke-width:1.0;"/><text fill="#000000" font-family="sans-serif" font-size="14" lengthAdjust="spacing" textLength="158" x="942" y="730.9645">kodebeskrivelse: string</text><line style="stroke:#181818;stroke-width:0.5;" x1="923" x2="1105" y1="737.9177" y2="737.9177"/></g><!--class ReferanseDokumentfil--><g id="elem_ReferanseDokumentfil"><rect fill="#F1F1F1" height="48" id="ReferanseDokumentfil" rx="2.5" ry="2.5" style="stroke:#181818;stroke-width:0.5;" width="184" x="1141" y="677.11"/><ellipse cx="1156" cy="693.11" fill="#ADD1B2" rx="11" ry="11" style="stroke:#181818;stroke-width:1.0;"/><path d="M1158.4731,699.2531 Q1157.8921,699.5519 1157.2529,699.7013 Q1156.6138,699.8507 1155.9082,699.8507 Q1153.4014,699.8507 1152.0815,698.1989 Q1150.7617,696.547 1150.7617,693.4259 Q1150.7617,690.2965 1152.0815,688.6447 Q1153.4014,686.9928 1155.9082,686.9928 Q1156.6138,686.9928 1157.2612,687.1422 Q1157.9087,687.2916 1158.4731,687.5905 L1158.4731,690.3131 Q1157.8423,689.7321 1157.2488,689.4623 Q1156.6553,689.1925 1156.0244,689.1925 Q1154.6797,689.1925 1153.9949,690.2592 Q1153.3101,691.3258 1153.3101,693.4259 Q1153.3101,695.5177 1153.9949,696.5844 Q1154.6797,697.651 1156.0244,697.651 Q1156.6553,697.651 1157.2488,697.3812 Q1157.8423,697.1115 1158.4731,696.5304 Z " fill="#000000"/><text fill="#000000" font-family="sans-serif" font-size="14" lengthAdjust="spacing" textLength="152" x="1170" y="698.401">ReferanseDokumentfil</text><line style="stroke:#181818;stroke-width:0.5;" x1="1142" x2="1324" y1="709.11" y2="709.11"/><line style="stroke:#181818;stroke-width:0.5;" x1="1142" x2="1324" y1="717.11" y2="717.11"/></g><g id="elem_GMN37"><path d="M895.5,839.45 L895.5,910.6922 A0,0 0 0 0 895.5,910.6922 L1124.5,910.6922 A0,0 0 0 0 1124.5,910.6922 L1124.5,849.45 L1114.5,839.45 L1014.81,839.45 L1012.97,746.4 L1006.81,839.45 L895.5,839.45 A0,0 0 0 0 895.5,839.45 " fill="#FEFFDD" style="stroke:#181818;stroke-width:0.5;"/><path d="M1114.5,839.45 L1114.5,849.45 L1124.5,849.45 L1114.5,839.45 " fill="#FEFFDD" style="stroke:#181818;stroke-width:0.5;"/><text fill="#000000" font-family="sans-serif" font-size="13" lengthAdjust="spacing" textLength="69" x="901.5" y="857.0184">Eksempler:</text><text fill="#000000" font-family="sans-serif" font-size="13" lengthAdjust="spacing" textLength="201" x="901.5" y="872.3289">Bestilling av oppstartsm&#248;te (BO)</text><text fill="#000000" font-family="sans-serif" font-size="13" lengthAdjust="spacing" textLength="208" x="901.5" y="887.6395">Gjennomf&#248;rt oppstartsm&#248;te (OM)</text><text fill="#000000" font-family="sans-serif" font-size="13" lengthAdjust="spacing" textLength="137" x="901.5" y="902.95">Mottak av planforslag</text></g><!--class ReferanseJournalpost--><g id="elem_ReferanseJournalpost"><rect codeLine="86" fill="#F1F1F1" height="130.4414" id="ReferanseJournalpost" rx="2.5" ry="2.5" style="stroke:#181818;stroke-width:0.5;" width="369" x="1360.5" y="635.89"/><ellipse cx="1467.25" cy="651.89" fill="#ADD1B2" rx="11" ry="11" style="stroke:#181818;stroke-width:1.0;"/><path d="M1469.7231,658.0331 Q1469.1421,658.3319 1468.5029,658.4813 Q1467.8638,658.6307 1467.1582,658.6307 Q1464.6514,658.6307 1463.3315,656.9789 Q1462.0117,655.327 1462.0117,652.2059 Q1462.0117,649.0765 1463.3315,647.4247 Q1464.6514,645.7728 1467.1582,645.7728 Q1467.8638,645.7728 1468.5112,645.9222 Q1469.1587,646.0716 1469.7231,646.3705 L1469.7231,649.0931 Q1469.0923,648.5121 1468.4988,648.2423 Q1467.9053,647.9725 1467.2744,647.9725 Q1465.9297,647.9725 1465.2449,649.0392 Q1464.5601,650.1058 1464.5601,652.2059 Q1464.5601,654.2977 1465.2449,655.3644 Q1465.9297,656.431 1467.2744,656.431 Q1467.9053,656.431 1468.4988,656.1612 Q1469.0923,655.8915 1469.7231,655.3104 Z " fill="#000000"/><text fill="#000000" font-family="sans-serif" font-size="14" lengthAdjust="spacing" textLength="147" x="1487.75" y="657.181">ReferanseJournalpost</text><line style="stroke:#181818;stroke-width:0.5;" x1="1361.5" x2="1728.5" y1="667.89" y2="667.89"/><ellipse cx="1371.5" cy="681.6341" fill="none" rx="3" ry="3" style="stroke:#038048;stroke-width:1.0;"/><text fill="#000000" font-family="sans-serif" font-size="14" lengthAdjust="spacing" textLength="108" x="1380.5" y="685.4252">systemId: string</text><ellipse cx="1371.5" cy="698.1224" fill="none" rx="3" ry="3" style="stroke:#038048;stroke-width:1.0;"/><text fill="#000000" font-family="sans-serif" font-size="14" lengthAdjust="spacing" textLength="150" x="1380.5" y="701.9134">registreringsID: string</text><ellipse cx="1371.5" cy="714.6107" fill="none" rx="3" ry="3" style="stroke:#038048;stroke-width:1.0;"/><text fill="#000000" font-family="sans-serif" font-size="14" lengthAdjust="spacing" textLength="222" x="1380.5" y="718.4017">journalnummer: Journalnummer</text><ellipse cx="1371.5" cy="731.099" fill="none" rx="3" ry="3" style="stroke:#038048;stroke-width:1.0;"/><text fill="#000000" font-family="sans-serif" font-size="14" lengthAdjust="spacing" textLength="343" x="1380.5" y="734.89">saksJournalpostnummer: SaksJournalpostnummer</text><ellipse cx="1371.5" cy="747.5873" fill="none" rx="3" ry="3" style="stroke:#038048;stroke-width:1.0;"/><text fill="#000000" font-family="sans-serif" font-size="14" lengthAdjust="spacing" textLength="285" x="1380.5" y="751.3783">referanseEksternNoekkel: EksternNoekkel</text><line style="stroke:#181818;stroke-width:0.5;" x1="1361.5" x2="1728.5" y1="758.3314" y2="758.3314"/></g><!--class Dokument--><g id="elem_Dokument"><rect fill="#F1F1F1" height="48" id="Dokument" rx="2.5" ry="2.5" style="stroke:#181818;stroke-width:0.5;" width="103" x="1325.5" y="428.96"/><ellipse cx="1340.5" cy="444.96" fill="#ADD1B2" rx="11" ry="11" style="stroke:#181818;stroke-width:1.0;"/><path d="M1342.9731,451.1031 Q1342.3921,451.4019 1341.7529,451.5513 Q1341.1138,451.7007 1340.4082,451.7007 Q1337.9014,451.7007 1336.5815,450.0489 Q1335.2617,448.397 1335.2617,445.2759 Q1335.2617,442.1465 1336.5815,440.4947 Q1337.9014,438.8428 1340.4082,438.8428 Q1341.1138,438.8428 1341.7612,438.9922 Q1342.4087,439.1416 1342.9731,439.4405 L1342.9731,442.1631 Q1342.3423,441.5821 1341.7488,441.3123 Q1341.1553,441.0425 1340.5244,441.0425 Q1339.1797,441.0425 1338.4949,442.1092 Q1337.8101,443.1758 1337.8101,445.2759 Q1337.8101,447.3677 1338.4949,448.4344 Q1339.1797,449.501 1340.5244,449.501 Q1341.1553,449.501 1341.7488,449.2312 Q1342.3423,448.9615 1342.9731,448.3804 Z " fill="#000000"/><text fill="#000000" font-family="sans-serif" font-size="14" lengthAdjust="spacing" textLength="71" x="1354.5" y="450.251">Dokument</text><line style="stroke:#181818;stroke-width:0.5;" x1="1326.5" x2="1427.5" y1="460.96" y2="460.96"/><line style="stroke:#181818;stroke-width:0.5;" x1="1326.5" x2="1427.5" y1="468.96" y2="468.96"/></g><!--class EksternNoekkel--><g id="elem_EksternNoekkel"><rect codeLine="110" fill="#F1F1F1" height="80.9766" id="EksternNoekkel" rx="2.5" ry="2.5" style="stroke:#181818;stroke-width:0.5;" width="143" x="1708.5" y="834.58"/><ellipse cx="1725.75" cy="850.58" fill="#ADD1B2" rx="11" ry="11" style="stroke:#181818;stroke-width:1.0;"/><path d="M1728.2231,856.7231 Q1727.6421,857.0219 1727.0029,857.1713 Q1726.3638,857.3207 1725.6582,857.3207 Q1723.1514,857.3207 1721.8315,855.6689 Q1720.5117,854.017 1720.5117,850.8959 Q1720.5117,847.7665 1721.8315,846.1147 Q1723.1514,844.4628 1725.6582,844.4628 Q1726.3638,844.4628 1727.0112,844.6122 Q1727.6587,844.7616 1728.2231,845.0605 L1728.2231,847.7831 Q1727.5923,847.2021 1726.9988,846.9323 Q1726.4053,846.6625 1725.7744,846.6625 Q1724.4297,846.6625 1723.7449,847.7292 Q1723.0601,848.7958 1723.0601,850.8959 Q1723.0601,852.9877 1723.7449,854.0544 Q1724.4297,855.121 1725.7744,855.121 Q1726.4053,855.121 1726.9988,854.8512 Q1727.5923,854.5815 1728.2231,854.0004 Z " fill="#000000"/><text fill="#000000" font-family="sans-serif" font-size="14" lengthAdjust="spacing" textLength="106" x="1740.25" y="855.871">EksternNoekkel</text><line style="stroke:#181818;stroke-width:0.5;" x1="1709.5" x2="1850.5" y1="866.58" y2="866.58"/><ellipse cx="1719.5" cy="880.3241" fill="none" rx="3" ry="3" style="stroke:#038048;stroke-width:1.0;"/><text fill="#000000" font-family="sans-serif" font-size="14" lengthAdjust="spacing" textLength="117" x="1728.5" y="884.1152">fagsystem: string</text><ellipse cx="1719.5" cy="896.8124" fill="none" rx="3" ry="3" style="stroke:#038048;stroke-width:1.0;"/><text fill="#000000" font-family="sans-serif" font-size="14" lengthAdjust="spacing" textLength="102" x="1728.5" y="900.6034">noekkel: string</text><line style="stroke:#181818;stroke-width:0.5;" x1="1709.5" x2="1850.5" y1="907.5566" y2="907.5566"/></g><!--class SaksJournalpostnummer--><g id="elem_SaksJournalpostnummer"><rect codeLine="99" fill="#F1F1F1" height="97.4648" id="SaksJournalpostnummer" rx="2.5" ry="2.5" style="stroke:#181818;stroke-width:0.5;" width="230" x="1160" y="826.34"/><ellipse cx="1188.5" cy="842.34" fill="#ADD1B2" rx="11" ry="11" style="stroke:#181818;stroke-width:1.0;"/><path d="M1190.9731,848.4831 Q1190.3921,848.7819 1189.7529,848.9313 Q1189.1138,849.0807 1188.4082,849.0807 Q1185.9014,849.0807 1184.5815,847.4289 Q1183.2617,845.777 1183.2617,842.6559 Q1183.2617,839.5265 1184.5815,837.8747 Q1185.9014,836.2228 1188.4082,836.2228 Q1189.1138,836.2228 1189.7612,836.3722 Q1190.4087,836.5216 1190.9731,836.8205 L1190.9731,839.5431 Q1190.3423,838.9621 1189.7488,838.6923 Q1189.1553,838.4225 1188.5244,838.4225 Q1187.1797,838.4225 1186.4949,839.4892 Q1185.8101,840.5558 1185.8101,842.6559 Q1185.8101,844.7477 1186.4949,845.8144 Q1187.1797,846.881 1188.5244,846.881 Q1189.1553,846.881 1189.7488,846.6112 Q1190.3423,846.3415 1190.9731,845.7604 Z " fill="#000000"/><text fill="#000000" font-family="sans-serif" font-size="14" lengthAdjust="spacing" textLength="168" x="1205.5" y="847.631">SaksJournalpostnummer</text><line style="stroke:#181818;stroke-width:0.5;" x1="1161" x2="1389" y1="858.34" y2="858.34"/><ellipse cx="1171" cy="872.0841" fill="none" rx="3" ry="3" style="stroke:#038048;stroke-width:1.0;"/><text fill="#000000" font-family="sans-serif" font-size="14" lengthAdjust="spacing" textLength="114" x="1180" y="875.8752">saksaar: number</text><ellipse cx="1171" cy="888.5724" fill="none" rx="3" ry="3" style="stroke:#038048;stroke-width:1.0;"/><text fill="#000000" font-family="sans-serif" font-size="14" lengthAdjust="spacing" textLength="204" x="1180" y="892.3634">sakssekvensnummer: number</text><ellipse cx="1171" cy="905.0607" fill="none" rx="3" ry="3" style="stroke:#038048;stroke-width:1.0;"/><text fill="#000000" font-family="sans-serif" font-size="14" lengthAdjust="spacing" textLength="199" x="1180" y="908.8517">journalpostnummer: number</text><line style="stroke:#181818;stroke-width:0.5;" x1="1161" x2="1389" y1="915.8048" y2="915.8048"/></g><!--class Journalnummer--><g id="elem_Journalnummer"><rect codeLine="105" fill="#F1F1F1" height="80.9766" id="Journalnummer" rx="2.5" ry="2.5" style="stroke:#181818;stroke-width:0.5;" width="249" x="1424.5" y="834.58"/><ellipse cx="1491.25" cy="850.58" fill="#ADD1B2" rx="11" ry="11" style="stroke:#181818;stroke-width:1.0;"/><path d="M1493.7231,856.7231 Q1493.1421,857.0219 1492.5029,857.1713 Q1491.8638,857.3207 1491.1582,857.3207 Q1488.6514,857.3207 1487.3315,855.6689 Q1486.0117,854.017 1486.0117,850.8959 Q1486.0117,847.7665 1487.3315,846.1147 Q1488.6514,844.4628 1491.1582,844.4628 Q1491.8638,844.4628 1492.5112,844.6122 Q1493.1587,844.7616 1493.7231,845.0605 L1493.7231,847.7831 Q1493.0923,847.2021 1492.4988,846.9323 Q1491.9053,846.6625 1491.2744,846.6625 Q1489.9297,846.6625 1489.2449,847.7292 Q1488.5601,848.7958 1488.5601,850.8959 Q1488.5601,852.9877 1489.2449,854.0544 Q1489.9297,855.121 1491.2744,855.121 Q1491.9053,855.121 1492.4988,854.8512 Q1493.0923,854.5815 1493.7231,854.0004 Z " fill="#000000"/><text fill="#000000" font-family="sans-serif" font-size="14" lengthAdjust="spacing" textLength="107" x="1511.75" y="855.871">Journalnummer</text><line style="stroke:#181818;stroke-width:0.5;" x1="1425.5" x2="1672.5" y1="866.58" y2="866.58"/><ellipse cx="1435.5" cy="880.3241" fill="none" rx="3" ry="3" style="stroke:#038048;stroke-width:1.0;"/><text fill="#000000" font-family="sans-serif" font-size="14" lengthAdjust="spacing" textLength="133" x="1444.5" y="884.1152">journalaar: number</text><ellipse cx="1435.5" cy="896.8124" fill="none" rx="3" ry="3" style="stroke:#038048;stroke-width:1.0;"/><text fill="#000000" font-family="sans-serif" font-size="14" lengthAdjust="spacing" textLength="223" x="1444.5" y="900.6034">journalsekvensnummer: number</text><line style="stroke:#181818;stroke-width:0.5;" x1="1425.5" x2="1672.5" y1="907.5566" y2="907.5566"/></g><!--link SaksfaserHentResultat to Fase--><g id="link_SaksfaserHentResultat_Fase"><path codeLine="13" d="M592.94,188.33 C637.4,188.33 669.85,188.33 714.31,188.33 " fill="none" id="SaksfaserHentResultat-to-Fase" style="stroke:#181818;stroke-width:1.0;"/><polygon fill="#181818" points="726.31,188.33,720.31,184.33,714.31,188.33,720.31,192.33,726.31,188.33" style="stroke:#181818;stroke-width:1.0;"/></g><!--link SaksfaserHentResultat to Saksnummer--><g id="link_SaksfaserHentResultat_Saksnummer"><path codeLine="14" d="M466.83,245.67 C448.87,295.86 423.04,368.03 407.18,412.35 " fill="none" id="SaksfaserHentResultat-Saksnummer" style="stroke:#181818;stroke-width:1.0;"/></g><!--link Fase to Fasekategori--><g id="link_Fase_Fasekategori"><path codeLine="41" d="M766.52,270.27 C733.18,315.64 692.89,370.46 665.35,407.94 " fill="none" id="Fase-Fasekategori" style="stroke:#181818;stroke-width:1.0;"/></g><!--link Fase to Vedtak--><g id="link_Fase_Vedtak"><path codeLine="42" d="M925.77,262.55 C931.47,265.33 937.23,267.85 943,270.03 C1153.61,349.62 1243.26,232.13 1446,330.03 C1482.55,347.69 1514.76,380.63 1537.04,407.83 " fill="none" id="Fase-Vedtak" style="stroke:#181818;stroke-width:1.0;"/></g><!--link Fase to FaseStatusEnum--><g id="link_Fase_FaseStatusEnum"><path codeLine="51" d="M827.85,270.27 C828.85,313.98 830.05,366.46 830.9,403.76 " fill="none" id="Fase-FaseStatusEnum" style="stroke:#181818;stroke-width:1.0;"/></g><!--link Fase to Milepel--><g id="link_Fase_Milepel"><path codeLine="59" d="M919.07,270.27 C940.74,289.11 964.28,309.58 987.48,329.76 " fill="none" id="Fase-Milepel" style="stroke:#181818;stroke-width:1.0;"/></g><!--link Milepel to GMN28--><g id="link_Milepel_GMN28"><path d="M1290.84,568.71 C1296.55,571.3 1302.27,573.7 1308,575.89 C1491.91,646.3 1560,574.15 1747,635.89 C1785.06,648.46 1825.11,673.37 1847.08,688.2 " fill="none" id="Milepel-GMN28" style="stroke:#181818;stroke-width:1.0;stroke-dasharray:7.0,7.0;"/></g><!--link Milepel to MilepelStatusEnum--><g id="link_Milepel_MilepelStatusEnum"><path codeLine="78" d="M967.94,576.32 C928.17,606.72 888.32,637.19 858.1,660.29 " fill="none" id="Milepel-MilepelStatusEnum" style="stroke:#181818;stroke-width:1.0;"/></g><!--link Milepel to Milepeltype--><g id="link_Milepel_Milepeltype"><path codeLine="79" d="M1071.33,576.32 C1058.09,604.91 1044.82,633.56 1034.39,656.09 " fill="none" id="Milepel-Milepeltype" style="stroke:#181818;stroke-width:1.0;"/></g><!--link Milepel to ReferanseDokumentfil--><g id="link_Milepel_ReferanseDokumentfil"><path codeLine="80" d="M1180.19,576.32 C1196.56,614.69 1212.97,653.15 1223.05,676.79 " fill="none" id="Milepel-ReferanseDokumentfil" style="stroke:#181818;stroke-width:1.0;"/></g><!--link Milepel to ReferanseJournalpost--><g id="link_Milepel_ReferanseJournalpost"><path codeLine="84" d="M1290.83,565.43 C1296.6,569.01 1302.33,572.5 1308,575.89 C1342.19,596.34 1380.06,617.03 1415.32,635.5 " fill="none" id="Milepel-ReferanseJournalpost" style="stroke:#181818;stroke-width:1.0;"/></g><!--link Milepel to Dokument--><g id="link_Milepel_Dokument"><path codeLine="94" d="M1290.92,452.96 C1302.35,452.96 1301.78,452.96 1313.22,452.96 " fill="none" id="Milepel-to-Dokument" style="stroke:#181818;stroke-width:1.0;"/><polygon fill="#181818" points="1325.22,452.96,1319.22,448.96,1313.22,452.96,1319.22,456.96,1325.22,452.96" style="stroke:#181818;stroke-width:1.0;"/></g><!--link ReferanseJournalpost to EksternNoekkel--><g id="link_ReferanseJournalpost_EksternNoekkel"><path codeLine="95" d="M1633.17,766.63 C1664.17,789.31 1698.08,814.12 1725.49,834.18 " fill="none" id="ReferanseJournalpost-EksternNoekkel" style="stroke:#181818;stroke-width:1.0;"/></g><!--link ReferanseJournalpost to SaksJournalpostnummer--><g id="link_ReferanseJournalpost_SaksJournalpostnummer"><path codeLine="96" d="M1443.69,766.63 C1412.87,786.26 1379.54,807.49 1350.71,825.85 " fill="none" id="ReferanseJournalpost-SaksJournalpostnummer" style="stroke:#181818;stroke-width:1.0;"/></g><!--link ReferanseJournalpost to Journalnummer--><g id="link_ReferanseJournalpost_Journalnummer"><path codeLine="97" d="M1546.5,766.63 C1547.03,789.31 1547.61,814.12 1548.07,834.18 " fill="none" id="ReferanseJournalpost-Journalnummer" style="stroke:#181818;stroke-width:1.0;"/></g><!--SRC=[fLPBRjmu4Dth5BNC1-a32460CUmaJc37i2VPJC-27PNKR56aGB85686Fupc3ztsnAVvQb5gTJGmRbkfVhrwH-YcOCV30MbCpW_epIdkFPYyii_2h0FfvQqWfzrs7klI6uNdKMMujYXACrLmsevn9Cp0jU3DL-JmbVAH___nRF1M5L1P1O6r1rSkLbAKNUVzxR5ki3o-YGGbiy750RNROMjJ0mLi2_HhUI5xpbacxyfwNQ9sy8Z-T1t4U4c7BzAf0MO6hfoYM8NdtnYSyftsN0nGQiwftVVaoIxWAwS2NkbK3LeGKbMJ1g0wsb9uq7Gf1RrP1nmNsA52lrl9QKeDKPsZGE5C3dFg0lGKAv1eZTQ-LLQqI0kKAVd1ezzRwhdMjj3Fz9DI62QW5QveL5CLFpm1VtwznGf8DydHkl9hAMcQnKPg7SQQte3lMNi9DUAHn1t8GLdiJV1xyynL15dJKY6Lj2J_y_o2hLBllqBLVmcLypgYZUREr2UD05Lvvpu_-4JPwtn9MJBWnl_AG6KOZaeHq1IEzNuE3wF3iva1nIO-oHM4zv952v4C6XAPp7Gx_QO9VyXOoveo09a3W_Vklgi8F7nB2BRqDg2i-WvF46pIjvWCAwYKfKwSRPIqH8xPwZ4vhYT3iF3ik7fi6NKiRt39P2N8lopkj31gJ7DP4GitWzkvXBOaXhg6Q_jZG2gPjv96hHN1ZKQxbLMkmwzqer_8hyGRNylFXnPL6_2ayTOZw4meaOPpZP1U2p6r35hTHLRiZtDV4Qp5m0wE03KOSdgr_8eqzaZO6-dDqynOoHj9GzzrCc9BS2IO92XlUlhl5_Kjl4lFUVhUrGctpu74BJcOPvIKDnJMd6jfIxnoskpyyjng7AZKTpO-dyoFDgBkUBUPIdxEDZN7iOuznmLtw4Ygo289OHYxgOzT_Sv6BkJ-RIcfA2MGo23NMgEaIm2zghoKJlNBXxnUaC_kquvbn4jLS16FKD19NsoGbIGMTTpDfEczYnzc0QJe9pd50cVvKwU7An8iLdfcmyvsm7jRo0kd-56vDtMMc-jwujantUA48how-lLxBJxG5KdLqNH4bvXRVRiZYXZBH7b00Dnywn0pDg835EYUmHqejAN_FBuqDaKMZavZhowbo5wAaRuOl-UluUP3bohykJiGpSX1wZcktobtXmgEPlKyc-kPuMnIB7H8iC-zpPik5dREUDXmnNWoHVs8nHWYGU9E3H2VgWFBu-PMhTwVuHVLJoZaf9EMAVYVfedmvup7a5B3nYw49F9aIGQOXZIVjv0pp2_7dfxS_fK-MDyMxFJnNrUpCVigdScOKxanhVZEBg0SAzZy0]--></g></svg>