<svg xmlns="http://www.w3.org/2000/svg" xmlns:xlink="http://www.w3.org/1999/xlink" contentStyleType="text/css" height="930px" preserveAspectRatio="none" style="width:2125px;height:930px;background:#FFFFFF;" version="1.1" viewBox="0 0 2125 930" width="2125px" zoomAndPan="magnify"><defs/><g><!--class Dokument--><g id="elem_Dokument"><rect codeLine="3" fill="#F1F1F1" height="179.9063" id="Dokument" rx="2.5" ry="2.5" style="stroke:#181818;stroke-width:0.5;" width="335" x="1008" y="363.01"/><ellipse cx="1135.75" cy="379.01" fill="#ADD1B2" rx="11" ry="11" style="stroke:#181818;stroke-width:1.0;"/><path d="M1138.2231,385.1531 Q1137.6421,385.4519 1137.0029,385.6013 Q1136.3638,385.7507 1135.6582,385.7507 Q1133.1514,385.7507 1131.8315,384.0989 Q1130.5117,382.447 1130.5117,379.3259 Q1130.5117,376.1965 1131.8315,374.5447 Q1133.1514,372.8928 1135.6582,372.8928 Q1136.3638,372.8928 1137.0112,373.0422 Q1137.6587,373.1916 1138.2231,373.4905 L1138.2231,376.2131 Q1137.5923,375.6321 1136.9988,375.3623 Q1136.4053,375.0925 1135.7744,375.0925 Q1134.4297,375.0925 1133.7449,376.1592 Q1133.0601,377.2258 1133.0601,379.3259 Q1133.0601,381.4177 1133.7449,382.4844 Q1134.4297,383.551 1135.7744,383.551 Q1136.4053,383.551 1136.9988,383.2812 Q1137.5923,383.0115 1138.2231,382.4304 Z " fill="#000000"/><text fill="#000000" font-family="sans-serif" font-size="14" lengthAdjust="spacing" textLength="71" x="1156.25" y="384.301">Dokument</text><line style="stroke:#181818;stroke-width:0.5;" x1="1009" x2="1342" y1="395.01" y2="395.01"/><ellipse cx="1019" cy="408.7541" fill="none" rx="3" ry="3" style="stroke:#038048;stroke-width:1.0;"/><text fill="#000000" font-family="sans-serif" font-size="14" lengthAdjust="spacing" textLength="61" x="1028" y="412.5452">id: string</text><ellipse cx="1019" cy="425.2424" fill="none" rx="3" ry="3" style="stroke:#038048;stroke-width:1.0;"/><text fill="#000000" font-family="sans-serif" font-size="14" lengthAdjust="spacing" textLength="79" x="1028" y="429.0334">tittel: string</text><ellipse cx="1019" cy="441.7307" fill="none" rx="3" ry="3" style="stroke:#038048;stroke-width:1.0;"/><text fill="#000000" font-family="sans-serif" font-size="14" lengthAdjust="spacing" textLength="94" x="1028" y="445.5217">filnavn: string</text><ellipse cx="1019" cy="458.219" fill="none" rx="3" ry="3" style="stroke:#038048;stroke-width:1.0;"/><text fill="#000000" font-family="sans-serif" font-size="14" lengthAdjust="spacing" textLength="207" x="1028" y="462.01">dokumenttype: Dokumenttype</text><ellipse cx="1019" cy="474.7073" fill="none" rx="3" ry="3" style="stroke:#038048;stroke-width:1.0;"/><text fill="#000000" font-family="sans-serif" font-size="14" lengthAdjust="spacing" textLength="309" x="1028" y="478.4983">referanseDokumentfil: ReferanseDokumentfil</text><ellipse cx="1019" cy="491.1955" fill="none" rx="3" ry="3" style="stroke:#038048;stroke-width:1.0;"/><text fill="#000000" font-family="sans-serif" font-size="14" lengthAdjust="spacing" textLength="115" x="1028" y="494.9866">mimetype: string</text><ellipse cx="1019" cy="507.6838" fill="none" rx="3" ry="3" style="stroke:#038048;stroke-width:1.0;"/><text fill="#000000" font-family="sans-serif" font-size="14" lengthAdjust="spacing" textLength="146" x="1028" y="511.4748">dokumentsdato: date</text><ellipse cx="1019" cy="524.1721" fill="none" rx="3" ry="3" style="stroke:#038048;stroke-width:1.0;"/><text fill="#000000" font-family="sans-serif" font-size="14" lengthAdjust="spacing" textLength="114" x="1028" y="527.9631">arkivnavn: string</text><line style="stroke:#181818;stroke-width:0.5;" x1="1009" x2="1342" y1="534.9163" y2="534.9163"/></g><g id="elem_GMN3"><path d="M950,175.67 L950,200.9805 A0,0 0 0 0 950,200.9805 L1056.97,200.9805 L1134.76,362.79 L1064.97,200.9805 L1161,200.9805 A0,0 0 0 0 1161,200.9805 L1161,185.67 L1151,175.67 L950,175.67 A0,0 0 0 0 950,175.67 " fill="#FEFFDD" style="stroke:#181818;stroke-width:0.5;"/><path d="M1151,175.67 L1151,185.67 L1161,185.67 L1151,175.67 " fill="#FEFFDD" style="stroke:#181818;stroke-width:0.5;"/><text fill="#000000" font-family="sans-serif" font-size="13" lengthAdjust="spacing" textLength="190" x="956" y="193.2384">Hentet definisjon fra Fiks Plan</text></g><!--class Dokumenttype--><g id="elem_Dokumenttype"><rect codeLine="19" fill="#F1F1F1" height="89.5977" id="Dokumenttype" rx="2.5" ry="2.5" style="stroke:#181818;stroke-width:0.5;" width="184" x="1083.5" y="656.32"/><ellipse cx="1121.9" cy="676.6305" fill="#ADD1B2" rx="11" ry="11" style="stroke:#181818;stroke-width:1.0;"/><path d="M1124.3731,682.7736 Q1123.7921,683.0724 1123.1529,683.2219 Q1122.5138,683.3713 1121.8082,683.3713 Q1119.3014,683.3713 1117.9815,681.7194 Q1116.6617,680.0676 1116.6617,676.9465 Q1116.6617,673.8171 1117.9815,672.1652 Q1119.3014,670.5134 1121.8082,670.5134 Q1122.5138,670.5134 1123.1612,670.6628 Q1123.8087,670.8122 1124.3731,671.111 L1124.3731,673.8337 Q1123.7423,673.2526 1123.1488,672.9828 Q1122.5553,672.7131 1121.9244,672.7131 Q1120.5797,672.7131 1119.8949,673.7797 Q1119.2101,674.8464 1119.2101,676.9465 Q1119.2101,679.0383 1119.8949,680.1049 Q1120.5797,681.1716 1121.9244,681.1716 Q1122.5553,681.1716 1123.1488,680.9018 Q1123.7423,680.632 1124.3731,680.051 Z " fill="#000000"/><text fill="#000000" font-family="sans-serif" font-size="12" font-style="italic" lengthAdjust="spacing" textLength="42" x="1170.1" y="672.9216">&#171;Kode&#187;</text><text fill="#000000" font-family="sans-serif" font-size="14" lengthAdjust="spacing" textLength="100" x="1141.1" y="688.988">Dokumenttype</text><line style="stroke:#181818;stroke-width:0.5;" x1="1084.5" x2="1266.5" y1="696.9411" y2="696.9411"/><ellipse cx="1094.5" cy="710.6852" fill="none" rx="3" ry="3" style="stroke:#038048;stroke-width:1.0;"/><text fill="#000000" font-family="sans-serif" font-size="14" lengthAdjust="spacing" textLength="116" x="1103.5" y="714.4762">kodeverdi: string</text><ellipse cx="1094.5" cy="727.1735" fill="none" rx="3" ry="3" style="stroke:#038048;stroke-width:1.0;"/><text fill="#000000" font-family="sans-serif" font-size="14" lengthAdjust="spacing" textLength="158" x="1103.5" y="730.9645">kodebeskrivelse: string</text><line style="stroke:#181818;stroke-width:0.5;" x1="1084.5" x2="1266.5" y1="737.9177" y2="737.9177"/></g><!--class ReferanseDokumentfil--><g id="elem_ReferanseDokumentfil"><rect codeLine="24" fill="#F1F1F1" height="80.9766" id="ReferanseDokumentfil" rx="2.5" ry="2.5" style="stroke:#181818;stroke-width:0.5;" width="184" x="1302.5" y="660.63"/><ellipse cx="1317.5" cy="676.63" fill="#ADD1B2" rx="11" ry="11" style="stroke:#181818;stroke-width:1.0;"/><path d="M1319.9731,682.7731 Q1319.3921,683.0719 1318.7529,683.2213 Q1318.1138,683.3707 1317.4082,683.3707 Q1314.9014,683.3707 1313.5815,681.7189 Q1312.2617,680.067 1312.2617,676.9459 Q1312.2617,673.8165 1313.5815,672.1647 Q1314.9014,670.5128 1317.4082,670.5128 Q1318.1138,670.5128 1318.7612,670.6622 Q1319.4087,670.8116 1319.9731,671.1105 L1319.9731,673.8331 Q1319.3423,673.2521 1318.7488,672.9823 Q1318.1553,672.7125 1317.5244,672.7125 Q1316.1797,672.7125 1315.4949,673.7792 Q1314.8101,674.8458 1314.8101,676.9459 Q1314.8101,679.0377 1315.4949,680.1044 Q1316.1797,681.171 1317.5244,681.171 Q1318.1553,681.171 1318.7488,680.9012 Q1319.3423,680.6315 1319.9731,680.0504 Z " fill="#000000"/><text fill="#000000" font-family="sans-serif" font-size="14" lengthAdjust="spacing" textLength="152" x="1331.5" y="681.921">ReferanseDokumentfil</text><line style="stroke:#181818;stroke-width:0.5;" x1="1303.5" x2="1485.5" y1="692.63" y2="692.63"/><ellipse cx="1313.5" cy="706.3741" fill="none" rx="3" ry="3" style="stroke:#038048;stroke-width:1.0;"/><text fill="#000000" font-family="sans-serif" font-size="14" lengthAdjust="spacing" textLength="61" x="1322.5" y="710.1652">id: string</text><ellipse cx="1313.5" cy="722.8624" fill="none" rx="3" ry="3" style="stroke:#038048;stroke-width:1.0;"/><text fill="#000000" font-family="sans-serif" font-size="14" lengthAdjust="spacing" textLength="67" x="1322.5" y="726.6534">url: string</text><line style="stroke:#181818;stroke-width:0.5;" x1="1303.5" x2="1485.5" y1="733.6066" y2="733.6066"/></g><!--class Fase--><g id="elem_Fase"><rect codeLine="2" fill="#F1F1F1" height="163.418" id="Fase" rx="2.5" ry="2.5" style="stroke:#181818;stroke-width:0.5;" width="199" x="1196" y="106.62"/><ellipse cx="1275.75" cy="122.62" fill="#ADD1B2" rx="11" ry="11" style="stroke:#181818;stroke-width:1.0;"/><path d="M1278.2231,128.7631 Q1277.6421,129.0619 1277.0029,129.2113 Q1276.3638,129.3607 1275.6582,129.3607 Q1273.1514,129.3607 1271.8315,127.7089 Q1270.5117,126.057 1270.5117,122.9359 Q1270.5117,119.8065 1271.8315,118.1547 Q1273.1514,116.5028 1275.6582,116.5028 Q1276.3638,116.5028 1277.0112,116.6522 Q1277.6587,116.8016 1278.2231,117.1005 L1278.2231,119.8231 Q1277.5923,119.2421 1276.9988,118.9723 Q1276.4053,118.7025 1275.7744,118.7025 Q1274.4297,118.7025 1273.7449,119.7692 Q1273.0601,120.8358 1273.0601,122.9359 Q1273.0601,125.0277 1273.7449,126.0944 Q1274.4297,127.161 1275.7744,127.161 Q1276.4053,127.161 1276.9988,126.8912 Q1277.5923,126.6215 1278.2231,126.0404 Z " fill="#000000"/><text fill="#000000" font-family="sans-serif" font-size="14" lengthAdjust="spacing" textLength="31" x="1296.25" y="127.911">Fase</text><line style="stroke:#181818;stroke-width:0.5;" x1="1197" x2="1394" y1="138.62" y2="138.62"/><ellipse cx="1207" cy="152.3641" fill="none" rx="3" ry="3" style="stroke:#038048;stroke-width:1.0;"/><text fill="#000000" font-family="sans-serif" font-size="14" lengthAdjust="spacing" textLength="109" x="1216" y="156.1552">fasenavn: string</text><ellipse cx="1207" cy="168.8524" fill="none" rx="3" ry="3" style="stroke:#038048;stroke-width:1.0;"/><text fill="#000000" font-family="sans-serif" font-size="14" lengthAdjust="spacing" textLength="89" x="1216" y="172.6434">faseid: string</text><ellipse cx="1207" cy="185.3407" fill="none" rx="3" ry="3" style="stroke:#038048;stroke-width:1.0;"/><text fill="#000000" font-family="sans-serif" font-size="14" lengthAdjust="spacing" textLength="153" x="1216" y="189.1317">kategori: Fasekategori</text><ellipse cx="1207" cy="201.829" fill="none" rx="3" ry="3" style="stroke:#038048;stroke-width:1.0;"/><text fill="#000000" font-family="sans-serif" font-size="14" lengthAdjust="spacing" textLength="131" x="1216" y="205.62">milepeler: Milepel[]</text><ellipse cx="1207" cy="218.3173" fill="none" rx="3" ry="3" style="stroke:#038048;stroke-width:1.0;"/><text fill="#000000" font-family="sans-serif" font-size="14" lengthAdjust="spacing" textLength="161" x="1216" y="222.1083">status: FaseStatusEnum</text><ellipse cx="1207" cy="234.8055" fill="none" rx="3" ry="3" style="stroke:#038048;stroke-width:1.0;"/><text fill="#000000" font-family="sans-serif" font-size="14" lengthAdjust="spacing" textLength="100" x="1216" y="238.5966">vedtak: Vedtak</text><ellipse cx="1207" cy="251.2938" fill="none" rx="3" ry="3" style="stroke:#038048;stroke-width:1.0;"/><text fill="#000000" font-family="sans-serif" font-size="14" lengthAdjust="spacing" textLength="173" x="1216" y="255.0848">dokumenter: Dokument[]</text><line style="stroke:#181818;stroke-width:0.5;" x1="1197" x2="1394" y1="262.038" y2="262.038"/></g><g id="elem_GMN11"><path d="M1022.5,6 L1022.5,46.6211 A0,0 0 0 0 1022.5,46.6211 L1291.5,46.6211 L1295.5,106.47 L1299.5,46.6211 L1568.5,46.6211 A0,0 0 0 0 1568.5,46.6211 L1568.5,16 L1558.5,6 L1022.5,6 A0,0 0 0 0 1022.5,6 " fill="#FEFFDD" style="stroke:#181818;stroke-width:0.5;"/><path d="M1558.5,6 L1558.5,16 L1568.5,16 L1558.5,6 " fill="#FEFFDD" style="stroke:#181818;stroke-width:0.5;"/><text fill="#000000" font-family="sans-serif" font-size="13" lengthAdjust="spacing" textLength="369" x="1028.5" y="23.5684">En fase er i hovedsak det som hender mellom to milepeler.</text><text fill="#000000" font-family="sans-serif" font-size="13" lengthAdjust="spacing" textLength="525" x="1028.5" y="38.8789">Interne faser sendes ikke ut ved denne protokollen. Vi kutter derfor ut Global flagg.</text></g><path d="M1430,163.01 L1430,179.3205 L1305,167.3524 L1430,187.3205 L1430,203.6311 A0,0 0 0 0 1430,203.6311 L1951,203.6311 A0,0 0 0 0 1951,203.6311 L1951,173.01 L1941,163.01 L1430,163.01 A0,0 0 0 0 1430,163.01 " fill="#FEFFDD" style="stroke:#181818;stroke-width:0.5;"/><path d="M1941,163.01 L1941,173.01 L1951,173.01 L1941,163.01 " fill="#FEFFDD" style="stroke:#181818;stroke-width:0.5;"/><text fill="#000000" font-family="sans-serif" font-size="13" lengthAdjust="spacing" textLength="500" x="1436" y="180.5784">Faseid brukes alene (ikke sammen med saksnummer) for &#229; hente en enkelt fase</text><text fill="#000000" font-family="sans-serif" font-size="13" lengthAdjust="spacing" textLength="165" x="1436" y="195.8889">Den m&#229; dermed v&#230;re unik</text><!--class Vedtak--><g id="elem_Vedtak"><rect codeLine="31" fill="#F1F1F1" height="89.5977" id="Vedtak" rx="2.5" ry="2.5" style="stroke:#181818;stroke-width:0.5;" width="184" x="1934.5" y="408.17"/><ellipse cx="1998.75" cy="428.4805" fill="#ADD1B2" rx="11" ry="11" style="stroke:#181818;stroke-width:1.0;"/><path d="M2001.2231,434.6236 Q2000.6421,434.9224 2000.0029,435.0719 Q1999.3638,435.2213 1998.6582,435.2213 Q1996.1514,435.2213 1994.8315,433.5694 Q1993.5117,431.9176 1993.5117,428.7965 Q1993.5117,425.6671 1994.8315,424.0152 Q1996.1514,422.3634 1998.6582,422.3634 Q1999.3638,422.3634 2000.0112,422.5128 Q2000.6587,422.6622 2001.2231,422.961 L2001.2231,425.6837 Q2000.5923,425.1026 1999.9988,424.8328 Q1999.4053,424.5631 1998.7744,424.5631 Q1997.4297,424.5631 1996.7449,425.6297 Q1996.0601,426.6964 1996.0601,428.7965 Q1996.0601,430.8883 1996.7449,431.9549 Q1997.4297,433.0216 1998.7744,433.0216 Q1999.4053,433.0216 1999.9988,432.7518 Q2000.5923,432.482 2001.2231,431.901 Z " fill="#000000"/><text fill="#000000" font-family="sans-serif" font-size="12" font-style="italic" lengthAdjust="spacing" textLength="42" x="2021.75" y="424.7716">&#171;Kode&#187;</text><text fill="#000000" font-family="sans-serif" font-size="14" lengthAdjust="spacing" textLength="47" x="2019.25" y="440.838">Vedtak</text><line style="stroke:#181818;stroke-width:0.5;" x1="1935.5" x2="2117.5" y1="448.7911" y2="448.7911"/><ellipse cx="1945.5" cy="462.5352" fill="none" rx="3" ry="3" style="stroke:#038048;stroke-width:1.0;"/><text fill="#000000" font-family="sans-serif" font-size="14" lengthAdjust="spacing" textLength="116" x="1954.5" y="466.3262">kodeverdi: string</text><ellipse cx="1945.5" cy="479.0235" fill="none" rx="3" ry="3" style="stroke:#038048;stroke-width:1.0;"/><text fill="#000000" font-family="sans-serif" font-size="14" lengthAdjust="spacing" textLength="158" x="1954.5" y="482.8145">kodebeskrivelse: string</text><line style="stroke:#181818;stroke-width:0.5;" x1="1935.5" x2="2117.5" y1="489.7677" y2="489.7677"/></g><!--class FaseStatusEnum--><g id="elem_FaseStatusEnum"><rect codeLine="23" fill="#F1F1F1" height="97.4648" id="FaseStatusEnum" rx="2.5" ry="2.5" style="stroke:#181818;stroke-width:0.5;" width="144" x="1378.5" y="404.23"/><ellipse cx="1393.5" cy="420.23" fill="#EB937F" rx="11" ry="11" style="stroke:#181818;stroke-width:1.0;"/><path d="M1397.1143,426.73 L1389.3945,426.73 L1389.3945,414.3369 L1397.1143,414.3369 L1397.1143,416.4951 L1391.8433,416.4951 L1391.8433,419.168 L1396.6162,419.168 L1396.6162,421.3262 L1391.8433,421.3262 L1391.8433,424.5718 L1397.1143,424.5718 Z " fill="#000000"/><text fill="#000000" font-family="sans-serif" font-size="14" lengthAdjust="spacing" textLength="112" x="1407.5" y="425.521">FaseStatusEnum</text><line style="stroke:#181818;stroke-width:0.5;" x1="1379.5" x2="1521.5" y1="436.23" y2="436.23"/><ellipse cx="1389.5" cy="449.9741" fill="none" rx="3" ry="3" style="stroke:#038048;stroke-width:1.0;"/><text fill="#000000" font-family="sans-serif" font-size="14" lengthAdjust="spacing" textLength="55" x="1398.5" y="453.7652">Planlagt</text><ellipse cx="1389.5" cy="466.4624" fill="none" rx="3" ry="3" style="stroke:#038048;stroke-width:1.0;"/><text fill="#000000" font-family="sans-serif" font-size="14" lengthAdjust="spacing" textLength="88" x="1398.5" y="470.2534">UnderArbeid</text><ellipse cx="1389.5" cy="482.9507" fill="none" rx="3" ry="3" style="stroke:#038048;stroke-width:1.0;"/><text fill="#000000" font-family="sans-serif" font-size="14" lengthAdjust="spacing" textLength="48" x="1398.5" y="486.7417">Utfoert</text><line style="stroke:#181818;stroke-width:0.5;" x1="1379.5" x2="1521.5" y1="493.6948" y2="493.6948"/></g><!--class Fasekategori--><g id="elem_Fasekategori"><rect codeLine="36" fill="#F1F1F1" height="89.5977" id="Fasekategori" rx="2.5" ry="2.5" style="stroke:#181818;stroke-width:0.5;" width="184" x="1575.5" y="408.17"/><ellipse cx="1619.3" cy="428.4805" fill="#ADD1B2" rx="11" ry="11" style="stroke:#181818;stroke-width:1.0;"/><path d="M1621.7731,434.6236 Q1621.1921,434.9224 1620.5529,435.0719 Q1619.9138,435.2213 1619.2082,435.2213 Q1616.7014,435.2213 1615.3815,433.5694 Q1614.0617,431.9176 1614.0617,428.7965 Q1614.0617,425.6671 1615.3815,424.0152 Q1616.7014,422.3634 1619.2082,422.3634 Q1619.9138,422.3634 1620.5612,422.5128 Q1621.2087,422.6622 1621.7731,422.961 L1621.7731,425.6837 Q1621.1423,425.1026 1620.5488,424.8328 Q1619.9553,424.5631 1619.3244,424.5631 Q1617.9797,424.5631 1617.2949,425.6297 Q1616.6101,426.6964 1616.6101,428.7965 Q1616.6101,430.8883 1617.2949,431.9549 Q1617.9797,433.0216 1619.3244,433.0216 Q1619.9553,433.0216 1620.5488,432.7518 Q1621.1423,432.482 1621.7731,431.901 Z " fill="#000000"/><text fill="#000000" font-family="sans-serif" font-size="12" font-style="italic" lengthAdjust="spacing" textLength="42" x="1662.7" y="424.7716">&#171;Kode&#187;</text><text fill="#000000" font-family="sans-serif" font-size="14" lengthAdjust="spacing" textLength="88" x="1639.7" y="440.838">Fasekategori</text><line style="stroke:#181818;stroke-width:0.5;" x1="1576.5" x2="1758.5" y1="448.7911" y2="448.7911"/><ellipse cx="1586.5" cy="462.5352" fill="none" rx="3" ry="3" style="stroke:#038048;stroke-width:1.0;"/><text fill="#000000" font-family="sans-serif" font-size="14" lengthAdjust="spacing" textLength="116" x="1595.5" y="466.3262">kodeverdi: string</text><ellipse cx="1586.5" cy="479.0235" fill="none" rx="3" ry="3" style="stroke:#038048;stroke-width:1.0;"/><text fill="#000000" font-family="sans-serif" font-size="14" lengthAdjust="spacing" textLength="158" x="1595.5" y="482.8145">kodebeskrivelse: string</text><line style="stroke:#181818;stroke-width:0.5;" x1="1576.5" x2="1758.5" y1="489.7677" y2="489.7677"/></g><g id="elem_GMN22"><path d="M1986.5,145.05 L1986.5,231.6027 A0,0 0 0 0 1986.5,231.6027 L2038.43,231.6027 L2029.7,407.78 L2046.43,231.6027 L2104.5,231.6027 A0,0 0 0 0 2104.5,231.6027 L2104.5,155.05 L2094.5,145.05 L1986.5,145.05 A0,0 0 0 0 1986.5,145.05 " fill="#FEFFDD" style="stroke:#181818;stroke-width:0.5;"/><path d="M2094.5,145.05 L2094.5,155.05 L2104.5,155.05 L2094.5,145.05 " fill="#FEFFDD" style="stroke:#181818;stroke-width:0.5;"/><text fill="#000000" font-family="sans-serif" font-size="13" lengthAdjust="spacing" textLength="69" x="1992.5" y="162.6184">Eksempler:</text><text fill="#000000" font-family="sans-serif" font-size="13" lengthAdjust="spacing" textLength="56" x="1992.5" y="177.9289">godkjent</text><text fill="#000000" font-family="sans-serif" font-size="13" lengthAdjust="spacing" textLength="97" x="1992.5" y="193.2395">delvis godkjent</text><text fill="#000000" font-family="sans-serif" font-size="13" lengthAdjust="spacing" textLength="42" x="1992.5" y="208.55">avsl&#229;tt</text><text fill="#000000" font-family="sans-serif" font-size="13" lengthAdjust="spacing" textLength="37" x="1992.5" y="223.8605">avvist</text></g><g id="elem_GMN25"><path d="M1521.5,650.18 L1521.5,752.0433 A0,0 0 0 0 1521.5,752.0433 L1847.5,752.0433 A0,0 0 0 0 1847.5,752.0433 L1847.5,660.18 L1837.5,650.18 L1685.03,650.18 L1670.56,498.26 L1677.03,650.18 L1521.5,650.18 A0,0 0 0 0 1521.5,650.18 " fill="#FEFFDD" style="stroke:#181818;stroke-width:0.5;"/><path d="M1837.5,650.18 L1837.5,660.18 L1847.5,660.18 L1837.5,650.18 " fill="#FEFFDD" style="stroke:#181818;stroke-width:0.5;"/><text fill="#000000" font-family="sans-serif" font-size="13" lengthAdjust="spacing" textLength="305" x="1527.5" y="667.7484">Se gjerne Byggesaksbehandling::Prosesskategori</text><text fill="#000000" font-family="sans-serif" font-size="13" lengthAdjust="spacing" textLength="45" x="1531.5" y="683.0589">fra NPS</text><text fill="#000000" font-family="sans-serif" font-size="13" lengthAdjust="spacing" textLength="210" x="1527.5" y="698.3695">Vi m&#229; f&#229; avklart denne kodelisten</text><text fill="#000000" font-family="sans-serif" font-size="13" lengthAdjust="spacing" textLength="69" x="1527.5" y="713.68">Eksempler:</text><text fill="#000000" font-family="sans-serif" font-size="13" lengthAdjust="spacing" textLength="34" x="1527.5" y="728.9905">Klage</text><text fill="#000000" font-family="sans-serif" font-size="13" lengthAdjust="spacing" textLength="43" x="1527.5" y="744.3011">H&#248;ring</text></g><!--class Milepel--><g id="elem_Milepel"><rect codeLine="2" fill="#F1F1F1" height="245.8594" id="Milepel" rx="2.5" ry="2.5" style="stroke:#181818;stroke-width:0.5;" width="325" x="648" y="330.03"/><ellipse cx="781.75" cy="346.03" fill="#ADD1B2" rx="11" ry="11" style="stroke:#181818;stroke-width:1.0;"/><path d="M784.2231,352.1731 Q783.6421,352.4719 783.0029,352.6213 Q782.3638,352.7707 781.6582,352.7707 Q779.1514,352.7707 777.8315,351.1189 Q776.5117,349.467 776.5117,346.3459 Q776.5117,343.2165 777.8315,341.5647 Q779.1514,339.9128 781.6582,339.9128 Q782.3638,339.9128 783.0112,340.0622 Q783.6587,340.2116 784.2231,340.5105 L784.2231,343.2331 Q783.5923,342.6521 782.9988,342.3823 Q782.4053,342.1125 781.7744,342.1125 Q780.4297,342.1125 779.7449,343.1792 Q779.0601,344.2458 779.0601,346.3459 Q779.0601,348.4377 779.7449,349.5044 Q780.4297,350.571 781.7744,350.571 Q782.4053,350.571 782.9988,350.3012 Q783.5923,350.0315 784.2231,349.4504 Z " fill="#000000"/><text fill="#000000" font-family="sans-serif" font-size="14" lengthAdjust="spacing" textLength="49" x="802.25" y="351.321">Milepel</text><line style="stroke:#181818;stroke-width:0.5;" x1="649" x2="972" y1="362.03" y2="362.03"/><ellipse cx="659" cy="375.7741" fill="none" rx="3" ry="3" style="stroke:#038048;stroke-width:1.0;"/><text fill="#000000" font-family="sans-serif" font-size="14" lengthAdjust="spacing" textLength="108" x="668" y="379.5652">systemId: string</text><ellipse cx="659" cy="392.2624" fill="none" rx="3" ry="3" style="stroke:#038048;stroke-width:1.0;"/><text fill="#000000" font-family="sans-serif" font-size="14" lengthAdjust="spacing" textLength="124" x="668" y="396.0534">beskrivelse: string</text><ellipse cx="659" cy="408.7507" fill="none" rx="3" ry="3" style="stroke:#038048;stroke-width:1.0;"/><text fill="#000000" font-family="sans-serif" font-size="14" lengthAdjust="spacing" textLength="143" x="668" y="412.5417">kategori: Milepeltype</text><ellipse cx="659" cy="425.239" fill="none" rx="3" ry="3" style="stroke:#038048;stroke-width:1.0;"/><text fill="#000000" font-family="sans-serif" font-size="14" lengthAdjust="spacing" textLength="65" x="668" y="429.03">frist: date</text><ellipse cx="659" cy="441.7273" fill="none" rx="3" ry="3" style="stroke:#038048;stroke-width:1.0;"/><text fill="#000000" font-family="sans-serif" font-size="14" lengthAdjust="spacing" textLength="85" x="668" y="445.5183">utfoert: date</text><ellipse cx="659" cy="458.2155" fill="none" rx="3" ry="3" style="stroke:#038048;stroke-width:1.0;"/><text fill="#000000" font-family="sans-serif" font-size="14" lengthAdjust="spacing" textLength="111" x="668" y="462.0066">planlagtTil: date</text><ellipse cx="659" cy="474.7038" fill="none" rx="3" ry="3" style="stroke:#038048;stroke-width:1.0;"/><text fill="#000000" font-family="sans-serif" font-size="14" lengthAdjust="spacing" textLength="105" x="668" y="478.4948">intern: boolean</text><ellipse cx="659" cy="491.1921" fill="none" rx="3" ry="3" style="stroke:#038048;stroke-width:1.0;"/><text fill="#000000" font-family="sans-serif" font-size="14" lengthAdjust="spacing" textLength="299" x="668" y="494.9831">referanseJournalpost: ReferanseJournalpost</text><ellipse cx="659" cy="507.6804" fill="none" rx="3" ry="3" style="stroke:#038048;stroke-width:1.0;"/><text fill="#000000" font-family="sans-serif" font-size="14" lengthAdjust="spacing" textLength="296" x="668" y="511.4714">referanseDokument: ReferanseDokumentfil</text><ellipse cx="659" cy="524.1687" fill="none" rx="3" ry="3" style="stroke:#038048;stroke-width:1.0;"/><text fill="#000000" font-family="sans-serif" font-size="14" lengthAdjust="spacing" textLength="110" x="668" y="527.9597">erStart: boolean</text><ellipse cx="659" cy="540.657" fill="none" rx="3" ry="3" style="stroke:#038048;stroke-width:1.0;"/><text fill="#000000" font-family="sans-serif" font-size="14" lengthAdjust="spacing" textLength="109" x="668" y="544.448">erSlutt: boolean</text><ellipse cx="659" cy="557.1452" fill="none" rx="3" ry="3" style="stroke:#038048;stroke-width:1.0;"/><text fill="#000000" font-family="sans-serif" font-size="14" lengthAdjust="spacing" textLength="179" x="668" y="560.9363">status: MilepelStatusEnum</text><line style="stroke:#181818;stroke-width:0.5;" x1="649" x2="972" y1="567.8894" y2="567.8894"/></g><!--class Milepeltype--><g id="elem_Milepeltype"><rect codeLine="24" fill="#F1F1F1" height="80.9766" id="Milepeltype" rx="2.5" ry="2.5" style="stroke:#181818;stroke-width:0.5;" width="184" x="28.5" y="660.63"/><ellipse cx="77.25" cy="676.63" fill="#ADD1B2" rx="11" ry="11" style="stroke:#181818;stroke-width:1.0;"/><path d="M79.7231,682.7731 Q79.1421,683.0719 78.5029,683.2213 Q77.8638,683.3707 77.1582,683.3707 Q74.6514,683.3707 73.3315,681.7189 Q72.0117,680.067 72.0117,676.9459 Q72.0117,673.8165 73.3315,672.1647 Q74.6514,670.5128 77.1582,670.5128 Q77.8638,670.5128 78.5112,670.6622 Q79.1587,670.8116 79.7231,671.1105 L79.7231,673.8331 Q79.0923,673.2521 78.4988,672.9823 Q77.9053,672.7125 77.2744,672.7125 Q75.9297,672.7125 75.2449,673.7792 Q74.5601,674.8458 74.5601,676.9459 Q74.5601,679.0377 75.2449,680.1044 Q75.9297,681.171 77.2744,681.171 Q77.9053,681.171 78.4988,680.9012 Q79.0923,680.6315 79.7231,680.0504 Z " fill="#000000"/><text fill="#000000" font-family="sans-serif" font-size="14" lengthAdjust="spacing" textLength="78" x="97.75" y="681.921">Milepeltype</text><line style="stroke:#181818;stroke-width:0.5;" x1="29.5" x2="211.5" y1="692.63" y2="692.63"/><ellipse cx="39.5" cy="706.3741" fill="none" rx="3" ry="3" style="stroke:#038048;stroke-width:1.0;"/><text fill="#000000" font-family="sans-serif" font-size="14" lengthAdjust="spacing" textLength="116" x="48.5" y="710.1652">kodeverdi: string</text><ellipse cx="39.5" cy="722.8624" fill="none" rx="3" ry="3" style="stroke:#038048;stroke-width:1.0;"/><text fill="#000000" font-family="sans-serif" font-size="14" lengthAdjust="spacing" textLength="158" x="48.5" y="726.6534">kodebeskrivelse: string</text><line style="stroke:#181818;stroke-width:0.5;" x1="29.5" x2="211.5" y1="733.6066" y2="733.6066"/></g><g id="elem_GMN31"><path d="M6,417.34 L6,488.5822 A0,0 0 0 0 6,488.5822 L116.5,488.5822 L120.5,660.34 L124.5,488.5822 L235,488.5822 A0,0 0 0 0 235,488.5822 L235,427.34 L225,417.34 L6,417.34 A0,0 0 0 0 6,417.34 " fill="#FEFFDD" style="stroke:#181818;stroke-width:0.5;"/><path d="M225,417.34 L225,427.34 L235,427.34 L225,417.34 " fill="#FEFFDD" style="stroke:#181818;stroke-width:0.5;"/><text fill="#000000" font-family="sans-serif" font-size="13" lengthAdjust="spacing" textLength="69" x="12" y="434.9084">Eksempler:</text><text fill="#000000" font-family="sans-serif" font-size="13" lengthAdjust="spacing" textLength="201" x="12" y="450.2189">Bestilling av oppstartsm&#248;te (BO)</text><text fill="#000000" font-family="sans-serif" font-size="13" lengthAdjust="spacing" textLength="208" x="12" y="465.5295">Gjennomf&#248;rt oppstartsm&#248;te (OM)</text><text fill="#000000" font-family="sans-serif" font-size="13" lengthAdjust="spacing" textLength="137" x="12" y="480.84">Mottak av planforslag</text></g><g id="elem_GMN34"><path d="M445,688.46 L445,713.7705 A0,0 0 0 0 445,713.7705 L644,713.7705 A0,0 0 0 0 644,713.7705 L644,698.46 L634,688.46 L561.43,688.46 L678.28,576.32 L553.43,688.46 L445,688.46 A0,0 0 0 0 445,688.46 " fill="#FEFFDD" style="stroke:#181818;stroke-width:0.5;"/><path d="M634,688.46 L634,698.46 L644,698.46 L634,688.46 " fill="#FEFFDD" style="stroke:#181818;stroke-width:0.5;"/><text fill="#000000" font-family="sans-serif" font-size="13" lengthAdjust="spacing" textLength="178" x="451" y="706.0284">frist og utfoert ikke p&#229;krevd</text></g><!--class ReferanseJournalpost--><g id="elem_ReferanseJournalpost"><rect codeLine="31" fill="#F1F1F1" height="130.4414" id="ReferanseJournalpost" rx="2.5" ry="2.5" style="stroke:#181818;stroke-width:0.5;" width="369" x="679" y="635.89"/><ellipse cx="785.75" cy="651.89" fill="#ADD1B2" rx="11" ry="11" style="stroke:#181818;stroke-width:1.0;"/><path d="M788.2231,658.0331 Q787.6421,658.3319 787.0029,658.4813 Q786.3638,658.6307 785.6582,658.6307 Q783.1514,658.6307 781.8315,656.9789 Q780.5117,655.327 780.5117,652.2059 Q780.5117,649.0765 781.8315,647.4247 Q783.1514,645.7728 785.6582,645.7728 Q786.3638,645.7728 787.0112,645.9222 Q787.6587,646.0716 788.2231,646.3705 L788.2231,649.0931 Q787.5923,648.5121 786.9988,648.2423 Q786.4053,647.9725 785.7744,647.9725 Q784.4297,647.9725 783.7449,649.0392 Q783.0601,650.1058 783.0601,652.2059 Q783.0601,654.2977 783.7449,655.3644 Q784.4297,656.431 785.7744,656.431 Q786.4053,656.431 786.9988,656.1612 Q787.5923,655.8915 788.2231,655.3104 Z " fill="#000000"/><text fill="#000000" font-family="sans-serif" font-size="14" lengthAdjust="spacing" textLength="147" x="806.25" y="657.181">ReferanseJournalpost</text><line style="stroke:#181818;stroke-width:0.5;" x1="680" x2="1047" y1="667.89" y2="667.89"/><ellipse cx="690" cy="681.6341" fill="none" rx="3" ry="3" style="stroke:#038048;stroke-width:1.0;"/><text fill="#000000" font-family="sans-serif" font-size="14" lengthAdjust="spacing" textLength="108" x="699" y="685.4252">systemId: string</text><ellipse cx="690" cy="698.1224" fill="none" rx="3" ry="3" style="stroke:#038048;stroke-width:1.0;"/><text fill="#000000" font-family="sans-serif" font-size="14" lengthAdjust="spacing" textLength="150" x="699" y="701.9134">registreringsID: string</text><ellipse cx="690" cy="714.6107" fill="none" rx="3" ry="3" style="stroke:#038048;stroke-width:1.0;"/><text fill="#000000" font-family="sans-serif" font-size="14" lengthAdjust="spacing" textLength="222" x="699" y="718.4017">journalnummer: Journalnummer</text><ellipse cx="690" cy="731.099" fill="none" rx="3" ry="3" style="stroke:#038048;stroke-width:1.0;"/><text fill="#000000" font-family="sans-serif" font-size="14" lengthAdjust="spacing" textLength="343" x="699" y="734.89">saksJournalpostnummer: SaksJournalpostnummer</text><ellipse cx="690" cy="747.5873" fill="none" rx="3" ry="3" style="stroke:#038048;stroke-width:1.0;"/><text fill="#000000" font-family="sans-serif" font-size="14" lengthAdjust="spacing" textLength="285" x="699" y="751.3783">referanseEksternNoekkel: EksternNoekkel</text><line style="stroke:#181818;stroke-width:0.5;" x1="680" x2="1047" y1="758.3314" y2="758.3314"/></g><!--class MilepelStatusEnum--><g id="elem_MilepelStatusEnum"><rect codeLine="60" fill="#F1F1F1" height="80.9766" id="MilepelStatusEnum" rx="2.5" ry="2.5" style="stroke:#181818;stroke-width:0.5;" width="162" x="247.5" y="660.63"/><ellipse cx="262.5" cy="676.63" fill="#EB937F" rx="11" ry="11" style="stroke:#181818;stroke-width:1.0;"/><path d="M266.1143,683.13 L258.3945,683.13 L258.3945,670.7369 L266.1143,670.7369 L266.1143,672.8951 L260.8433,672.8951 L260.8433,675.568 L265.6162,675.568 L265.6162,677.7262 L260.8433,677.7262 L260.8433,680.9718 L266.1143,680.9718 Z " fill="#000000"/><text fill="#000000" font-family="sans-serif" font-size="14" lengthAdjust="spacing" textLength="130" x="276.5" y="681.921">MilepelStatusEnum</text><line style="stroke:#181818;stroke-width:0.5;" x1="248.5" x2="408.5" y1="692.63" y2="692.63"/><ellipse cx="258.5" cy="706.3741" fill="none" rx="3" ry="3" style="stroke:#038048;stroke-width:1.0;"/><text fill="#000000" font-family="sans-serif" font-size="14" lengthAdjust="spacing" textLength="36" x="267.5" y="710.1652">N&#229;dd</text><ellipse cx="258.5" cy="722.8624" fill="none" rx="3" ry="3" style="stroke:#038048;stroke-width:1.0;"/><text fill="#000000" font-family="sans-serif" font-size="14" lengthAdjust="spacing" textLength="55" x="267.5" y="726.6534">Planlagt</text><line style="stroke:#181818;stroke-width:0.5;" x1="248.5" x2="408.5" y1="733.6066" y2="733.6066"/></g><!--class EksternNoekkel--><g id="elem_EksternNoekkel"><rect codeLine="55" fill="#F1F1F1" height="80.9766" id="EksternNoekkel" rx="2.5" ry="2.5" style="stroke:#181818;stroke-width:0.5;" width="143" x="571" y="834.58"/><ellipse cx="588.25" cy="850.58" fill="#ADD1B2" rx="11" ry="11" style="stroke:#181818;stroke-width:1.0;"/><path d="M590.7231,856.7231 Q590.1421,857.0219 589.5029,857.1713 Q588.8638,857.3207 588.1582,857.3207 Q585.6514,857.3207 584.3315,855.6689 Q583.0117,854.017 583.0117,850.8959 Q583.0117,847.7665 584.3315,846.1147 Q585.6514,844.4628 588.1582,844.4628 Q588.8638,844.4628 589.5112,844.6122 Q590.1587,844.7616 590.7231,845.0605 L590.7231,847.7831 Q590.0923,847.2021 589.4988,846.9323 Q588.9053,846.6625 588.2744,846.6625 Q586.9297,846.6625 586.2449,847.7292 Q585.5601,848.7958 585.5601,850.8959 Q585.5601,852.9877 586.2449,854.0544 Q586.9297,855.121 588.2744,855.121 Q588.9053,855.121 589.4988,854.8512 Q590.0923,854.5815 590.7231,854.0004 Z " fill="#000000"/><text fill="#000000" font-family="sans-serif" font-size="14" lengthAdjust="spacing" textLength="106" x="602.75" y="855.871">EksternNoekkel</text><line style="stroke:#181818;stroke-width:0.5;" x1="572" x2="713" y1="866.58" y2="866.58"/><ellipse cx="582" cy="880.3241" fill="none" rx="3" ry="3" style="stroke:#038048;stroke-width:1.0;"/><text fill="#000000" font-family="sans-serif" font-size="14" lengthAdjust="spacing" textLength="117" x="591" y="884.1152">fagsystem: string</text><ellipse cx="582" cy="896.8124" fill="none" rx="3" ry="3" style="stroke:#038048;stroke-width:1.0;"/><text fill="#000000" font-family="sans-serif" font-size="14" lengthAdjust="spacing" textLength="102" x="591" y="900.6034">noekkel: string</text><line style="stroke:#181818;stroke-width:0.5;" x1="572" x2="713" y1="907.5566" y2="907.5566"/></g><!--class SaksJournalpostnummer--><g id="elem_SaksJournalpostnummer"><rect codeLine="44" fill="#F1F1F1" height="97.4648" id="SaksJournalpostnummer" rx="2.5" ry="2.5" style="stroke:#181818;stroke-width:0.5;" width="230" x="748.5" y="826.34"/><ellipse cx="777" cy="842.34" fill="#ADD1B2" rx="11" ry="11" style="stroke:#181818;stroke-width:1.0;"/><path d="M779.4731,848.4831 Q778.8921,848.7819 778.2529,848.9313 Q777.6138,849.0807 776.9082,849.0807 Q774.4014,849.0807 773.0815,847.4289 Q771.7617,845.777 771.7617,842.6559 Q771.7617,839.5265 773.0815,837.8747 Q774.4014,836.2228 776.9082,836.2228 Q777.6138,836.2228 778.2612,836.3722 Q778.9087,836.5216 779.4731,836.8205 L779.4731,839.5431 Q778.8423,838.9621 778.2488,838.6923 Q777.6553,838.4225 777.0244,838.4225 Q775.6797,838.4225 774.9949,839.4892 Q774.3101,840.5558 774.3101,842.6559 Q774.3101,844.7477 774.9949,845.8144 Q775.6797,846.881 777.0244,846.881 Q777.6553,846.881 778.2488,846.6112 Q778.8423,846.3415 779.4731,845.7604 Z " fill="#000000"/><text fill="#000000" font-family="sans-serif" font-size="14" lengthAdjust="spacing" textLength="168" x="794" y="847.631">SaksJournalpostnummer</text><line style="stroke:#181818;stroke-width:0.5;" x1="749.5" x2="977.5" y1="858.34" y2="858.34"/><ellipse cx="759.5" cy="872.0841" fill="none" rx="3" ry="3" style="stroke:#038048;stroke-width:1.0;"/><text fill="#000000" font-family="sans-serif" font-size="14" lengthAdjust="spacing" textLength="114" x="768.5" y="875.8752">saksaar: number</text><ellipse cx="759.5" cy="888.5724" fill="none" rx="3" ry="3" style="stroke:#038048;stroke-width:1.0;"/><text fill="#000000" font-family="sans-serif" font-size="14" lengthAdjust="spacing" textLength="204" x="768.5" y="892.3634">sakssekvensnummer: number</text><ellipse cx="759.5" cy="905.0607" fill="none" rx="3" ry="3" style="stroke:#038048;stroke-width:1.0;"/><text fill="#000000" font-family="sans-serif" font-size="14" lengthAdjust="spacing" textLength="199" x="768.5" y="908.8517">journalpostnummer: number</text><line style="stroke:#181818;stroke-width:0.5;" x1="749.5" x2="977.5" y1="915.8048" y2="915.8048"/></g><!--class Journalnummer--><g id="elem_Journalnummer"><rect codeLine="50" fill="#F1F1F1" height="80.9766" id="Journalnummer" rx="2.5" ry="2.5" style="stroke:#181818;stroke-width:0.5;" width="249" x="1013" y="834.58"/><ellipse cx="1079.75" cy="850.58" fill="#ADD1B2" rx="11" ry="11" style="stroke:#181818;stroke-width:1.0;"/><path d="M1082.2231,856.7231 Q1081.6421,857.0219 1081.0029,857.1713 Q1080.3638,857.3207 1079.6582,857.3207 Q1077.1514,857.3207 1075.8315,855.6689 Q1074.5117,854.017 1074.5117,850.8959 Q1074.5117,847.7665 1075.8315,846.1147 Q1077.1514,844.4628 1079.6582,844.4628 Q1080.3638,844.4628 1081.0112,844.6122 Q1081.6587,844.7616 1082.2231,845.0605 L1082.2231,847.7831 Q1081.5923,847.2021 1080.9988,846.9323 Q1080.4053,846.6625 1079.7744,846.6625 Q1078.4297,846.6625 1077.7449,847.7292 Q1077.0601,848.7958 1077.0601,850.8959 Q1077.0601,852.9877 1077.7449,854.0544 Q1078.4297,855.121 1079.7744,855.121 Q1080.4053,855.121 1080.9988,854.8512 Q1081.5923,854.5815 1082.2231,854.0004 Z " fill="#000000"/><text fill="#000000" font-family="sans-serif" font-size="14" lengthAdjust="spacing" textLength="107" x="1100.25" y="855.871">Journalnummer</text><line style="stroke:#181818;stroke-width:0.5;" x1="1014" x2="1261" y1="866.58" y2="866.58"/><ellipse cx="1024" cy="880.3241" fill="none" rx="3" ry="3" style="stroke:#038048;stroke-width:1.0;"/><text fill="#000000" font-family="sans-serif" font-size="14" lengthAdjust="spacing" textLength="133" x="1033" y="884.1152">journalaar: number</text><ellipse cx="1024" cy="896.8124" fill="none" rx="3" ry="3" style="stroke:#038048;stroke-width:1.0;"/><text fill="#000000" font-family="sans-serif" font-size="14" lengthAdjust="spacing" textLength="223" x="1033" y="900.6034">journalsekvensnummer: number</text><line style="stroke:#181818;stroke-width:0.5;" x1="1014" x2="1261" y1="907.5566" y2="907.5566"/></g><!--class Saksnummer--><g id="elem_Saksnummer"><rect codeLine="2" fill="#F1F1F1" height="80.9766" id="Saksnummer" rx="2.5" ry="2.5" style="stroke:#181818;stroke-width:0.5;" width="225" x="388" y="412.48"/><ellipse cx="451.75" cy="428.48" fill="#ADD1B2" rx="11" ry="11" style="stroke:#181818;stroke-width:1.0;"/><path d="M454.2231,434.6231 Q453.6421,434.9219 453.0029,435.0713 Q452.3638,435.2207 451.6582,435.2207 Q449.1514,435.2207 447.8315,433.5689 Q446.5117,431.917 446.5117,428.7959 Q446.5117,425.6665 447.8315,424.0147 Q449.1514,422.3628 451.6582,422.3628 Q452.3638,422.3628 453.0112,422.5122 Q453.6587,422.6616 454.2231,422.9605 L454.2231,425.6831 Q453.5923,425.1021 452.9988,424.8323 Q452.4053,424.5625 451.7744,424.5625 Q450.4297,424.5625 449.7449,425.6292 Q449.0601,426.6958 449.0601,428.7959 Q449.0601,430.8877 449.7449,431.9544 Q450.4297,433.021 451.7744,433.021 Q452.4053,433.021 452.9988,432.7512 Q453.5923,432.4815 454.2231,431.9004 Z " fill="#000000"/><text fill="#000000" font-family="sans-serif" font-size="14" lengthAdjust="spacing" textLength="89" x="472.25" y="433.771">Saksnummer</text><line style="stroke:#181818;stroke-width:0.5;" x1="389" x2="612" y1="444.48" y2="444.48"/><ellipse cx="399" cy="458.2241" fill="none" rx="3" ry="3" style="stroke:#038048;stroke-width:1.0;"/><text fill="#000000" font-family="sans-serif" font-size="14" lengthAdjust="spacing" textLength="109" x="408" y="462.0152">saksaar: integer</text><ellipse cx="399" cy="474.7124" fill="none" rx="3" ry="3" style="stroke:#038048;stroke-width:1.0;"/><text fill="#000000" font-family="sans-serif" font-size="14" lengthAdjust="spacing" textLength="199" x="408" y="478.5034">sakssekvensnummer: integer</text><line style="stroke:#181818;stroke-width:0.5;" x1="389" x2="612" y1="485.4566" y2="485.4566"/></g><!--class SaksfaserHentResultat--><g id="elem_SaksfaserHentResultat"><rect codeLine="6" fill="#F1F1F1" height="113.9531" id="SaksfaserHentResultat" rx="2.5" ry="2.5" style="stroke:#181818;stroke-width:0.5;" width="211" x="549" y="131.35"/><ellipse cx="576.15" cy="147.35" fill="#ADD1B2" rx="11" ry="11" style="stroke:#181818;stroke-width:1.0;"/><path d="M578.6231,153.4931 Q578.0421,153.7919 577.4029,153.9413 Q576.7638,154.0907 576.0582,154.0907 Q573.5514,154.0907 572.2315,152.4389 Q570.9117,150.787 570.9117,147.6659 Q570.9117,144.5365 572.2315,142.8847 Q573.5514,141.2328 576.0582,141.2328 Q576.7638,141.2328 577.4112,141.3822 Q578.0587,141.5316 578.6231,141.8305 L578.6231,144.5531 Q577.9923,143.9721 577.3988,143.7023 Q576.8053,143.4325 576.1744,143.4325 Q574.8297,143.4325 574.1449,144.4992 Q573.4601,145.5658 573.4601,147.6659 Q573.4601,149.7577 574.1449,150.8244 Q574.8297,151.891 576.1744,151.891 Q576.8053,151.891 577.3988,151.6212 Q577.9923,151.3515 578.6231,150.7704 Z " fill="#000000"/><text fill="#000000" font-family="sans-serif" font-size="14" lengthAdjust="spacing" textLength="152" x="592.85" y="152.641">SaksfaserHentResultat</text><line style="stroke:#181818;stroke-width:0.5;" x1="550" x2="759" y1="163.35" y2="163.35"/><ellipse cx="560" cy="177.0941" fill="none" rx="3" ry="3" style="stroke:#038048;stroke-width:1.0;"/><text fill="#000000" font-family="sans-serif" font-size="14" lengthAdjust="spacing" textLength="185" x="569" y="180.8852">saksnummer: Saksnummer</text><ellipse cx="560" cy="193.5824" fill="none" rx="3" ry="3" style="stroke:#038048;stroke-width:1.0;"/><text fill="#000000" font-family="sans-serif" font-size="14" lengthAdjust="spacing" textLength="109" x="569" y="197.3734">sakstittel: string</text><ellipse cx="560" cy="210.0707" fill="none" rx="3" ry="3" style="stroke:#038048;stroke-width:1.0;"/><text fill="#000000" font-family="sans-serif" font-size="14" lengthAdjust="spacing" textLength="140" x="569" y="213.8617">saksansvarlig: string</text><ellipse cx="560" cy="226.559" fill="none" rx="3" ry="3" style="stroke:#038048;stroke-width:1.0;"/><text fill="#000000" font-family="sans-serif" font-size="14" lengthAdjust="spacing" textLength="83" x="569" y="230.35">faser: Fase[]</text><line style="stroke:#181818;stroke-width:0.5;" x1="550" x2="759" y1="237.3031" y2="237.3031"/></g><path d="M173.5,163.01 L173.5,203.6311 A0,0 0 0 0 173.5,203.6311 L513.5,203.6311 A0,0 0 0 0 513.5,203.6311 L513.5,187.3205 L553,225.059 L513.5,179.3205 L513.5,173.01 L503.5,163.01 L173.5,163.01 A0,0 0 0 0 173.5,163.01 " fill="#FEFFDD" style="stroke:#181818;stroke-width:0.5;"/><path d="M503.5,163.01 L503.5,173.01 L513.5,173.01 L503.5,163.01 " fill="#FEFFDD" style="stroke:#181818;stroke-width:0.5;"/><text fill="#000000" font-family="sans-serif" font-size="13" lengthAdjust="spacing" textLength="319" x="179.5" y="180.5784">Rekkef&#248;lgen av Fase objekter i faser er signifikant.</text><text fill="#000000" font-family="sans-serif" font-size="13" lengthAdjust="spacing" textLength="217" x="179.5" y="195.8889">Det er den rekkef&#248;lgen fasene har.</text><!--link Dokument to Dokumenttype--><g id="link_Dokument_Dokumenttype"><path codeLine="16" d="M1175.5,543.18 C1175.5,581.56 1175.5,624.72 1175.5,656.04 " fill="none" id="Dokument-Dokumenttype" style="stroke:#181818;stroke-width:1.0;"/></g><!--link Dokument to ReferanseDokumentfil--><g id="link_Dokument_ReferanseDokumentfil"><path codeLine="17" d="M1254.87,543.18 C1290.62,583.35 1331.01,628.75 1359.11,660.34 " fill="none" id="Dokument-ReferanseDokumentfil" style="stroke:#181818;stroke-width:1.0;"/></g><!--link Fase to Vedtak--><g id="link_Fase_Vedtak"><path codeLine="19" d="M1395.4,262.24 C1401.06,265.1 1406.78,267.73 1412.5,270.03 C1564.96,331.53 1620.89,280.02 1777.5,330.03 C1838.25,349.44 1902.82,381.42 1950.98,407.76 " fill="none" id="Fase-Vedtak" style="stroke:#181818;stroke-width:1.0;"/></g><!--link Fase to FaseStatusEnum--><g id="link_Fase_FaseStatusEnum"><path codeLine="20" d="M1343.27,270.27 C1369.07,313.98 1400.04,366.46 1422.05,403.76 " fill="none" id="Fase-FaseStatusEnum" style="stroke:#181818;stroke-width:1.0;"/></g><!--link Fase to Fasekategori--><g id="link_Fase_Fasekategori"><path codeLine="21" d="M1395.32,259.77 C1401.08,263.33 1406.83,266.78 1412.5,270.03 C1466.99,301.31 1488.71,294.47 1540.5,330.03 C1572.88,352.27 1604.75,382.9 1628.47,407.9 " fill="none" id="Fase-Fasekategori" style="stroke:#181818;stroke-width:1.0;"/></g><!--link Milepel to Milepeltype--><g id="link_Milepel_Milepeltype"><path codeLine="17" d="M647.62,568.62 C641.93,571.23 636.21,573.66 630.5,575.89 C462.62,641.39 399.36,575.72 229.5,635.89 C212.21,642.02 194.61,650.98 178.73,660.28 " fill="none" id="Milepel-Milepeltype" style="stroke:#181818;stroke-width:1.0;"/></g><!--link Milepel to ReferanseJournalpost--><g id="link_Milepel_ReferanseJournalpost"><path codeLine="29" d="M836.84,576.32 C841.26,596.83 845.68,617.37 849.62,635.65 " fill="none" id="Milepel-ReferanseJournalpost" style="stroke:#181818;stroke-width:1.0;"/></g><!--link Milepel to MilepelStatusEnum--><g id="link_Milepel_MilepelStatusEnum"><path codeLine="39" d="M647.69,567.32 C641.96,570.32 636.22,573.19 630.5,575.89 C545.44,616.08 512.96,596.55 427.5,635.89 C412.8,642.66 397.74,651.37 383.95,660.17 " fill="none" id="Milepel-MilepelStatusEnum" style="stroke:#181818;stroke-width:1.0;"/></g><!--link ReferanseJournalpost to EksternNoekkel--><g id="link_ReferanseJournalpost_EksternNoekkel"><path codeLine="40" d="M780.58,766.63 C751.43,789.31 719.54,814.12 693.76,834.18 " fill="none" id="ReferanseJournalpost-EksternNoekkel" style="stroke:#181818;stroke-width:1.0;"/></g><!--link ReferanseJournalpost to SaksJournalpostnummer--><g id="link_ReferanseJournalpost_SaksJournalpostnummer"><path codeLine="41" d="M863.5,766.63 C863.5,786.26 863.5,807.49 863.5,825.85 " fill="none" id="ReferanseJournalpost-SaksJournalpostnummer" style="stroke:#181818;stroke-width:1.0;"/></g><!--link ReferanseJournalpost to Journalnummer--><g id="link_ReferanseJournalpost_Journalnummer"><path codeLine="42" d="M966.31,766.63 C1002.45,789.31 1041.98,814.12 1073.94,834.18 " fill="none" id="ReferanseJournalpost-Journalnummer" style="stroke:#181818;stroke-width:1.0;"/></g><!--link SaksfaserHentResultat to Fase--><g id="link_SaksfaserHentResultat_Fase"><path codeLine="18" d="M760.04,131.19 C864.08,82.68 1026.55,28.06 1161,76.62 C1179.84,83.42 1188.2651,87.0002 1204.7051,99.1702 " fill="none" id="SaksfaserHentResultat-to-Fase" style="stroke:#181818;stroke-width:1.0;"/><polygon fill="#181818" points="1214.35,106.31,1211.9075,99.5252,1204.7051,99.1702,1207.1476,105.9551,1214.35,106.31" style="stroke:#181818;stroke-width:1.0;"/></g><!--link SaksfaserHentResultat to Saksnummer--><g id="link_SaksfaserHentResultat_Saksnummer"><path codeLine="19" d="M621.46,245.67 C592.03,295.86 549.72,368.03 523.73,412.35 " fill="none" id="SaksfaserHentResultat-Saksnummer" style="stroke:#181818;stroke-width:1.0;"/></g><!--link Fase to Milepel--><g id="link_Fase_Milepel"><path codeLine="27" d="M1195.82,260.86 C1190.06,264.12 1184.26,267.21 1178.5,270.03 C1099.77,308.69 1069.39,291.71 990.5,330.03 C984.81,332.8 979.1,335.72 973.39,338.77 " fill="none" id="Fase-Milepel" style="stroke:#181818;stroke-width:1.0;"/></g><!--link Fase to Dokument--><g id="link_Fase_Dokument"><path codeLine="28" d="M1258.52,270.27 C1245.16,299.51 1234.9868,321.7652 1221.3168,351.6852 " fill="none" id="Fase-to-Dokument" style="stroke:#181818;stroke-width:1.0;"/><polygon fill="#181818" points="1216.33,362.6,1222.4616,358.8049,1221.3168,351.6852,1215.1851,355.4804,1216.33,362.6" style="stroke:#181818;stroke-width:1.0;"/></g><!--link Milepel to Dokument--><g id="link_Milepel_Dokument"><path codeLine="29" d="M973.4,452.96 C984.84,452.96 984.29,452.96 995.74,452.96 " fill="none" id="Milepel-to-Dokument" style="stroke:#181818;stroke-width:1.0;"/><polygon fill="#181818" points="1007.74,452.96,1001.74,448.96,995.74,452.96,1001.74,456.96,1007.74,452.96" style="stroke:#181818;stroke-width:1.0;"/></g><!--SRC=[fL8zJyCm4DtzAwuR5DKLQ-QgOc4f8s9mwqjgx5mgVsH1_1pu3UpzOvpTeAIY3AXHbDZlxZs_T_BCqCubZI2NKYwfapR8sl0dA1jg5T3B_bxMw1m6gJkRMgIut3aLWZQgyQgLXoHc_r79- -iKMkFmWEuwaOnHQblqltH40U3fX_N0cJSOaeigmfi0Vkv6UbKQJ-kn5asCw2e8qHjgHbnHw9LtfZalbNCgMFFl-KMy2q5TH71OH-Zgoqwgga25lq5hiJv-kGO9L5zqeDk-eetemK3f17w3QSZmJ1H5MPWhZ1dNpFDJaSmWXBtoKY1fo7w4k3oInRmS-5TrCHtGaCoRPb-YPU8fYT75qBeiOUkJnG3APHStXfr1KAn0qAA6SVgtK7SUZX-mvpCHk8vaqSKIO4Z876xGw3ErFtvwX4J6mYHO6HWxVJnThM4_XzLmvSLGECE-0G00]--></g></svg>