<svg xmlns="http://www.w3.org/2000/svg" xmlns:xlink="http://www.w3.org/1999/xlink" contentStyleType="text/css" height="683px" preserveAspectRatio="none" style="width:1428px;height:683px;background:#FFFFFF;" version="1.1" viewBox="0 0 1428 683" width="1428px" zoomAndPan="magnify"><defs/><g><!--class SaksfaserHentResultat--><g id="elem_SaksfaserHentResultat"><rect codeLine="1" fill="#F1F1F1" height="113.9531" id="SaksfaserHentResultat" rx="2.5" ry="2.5" style="stroke:#181818;stroke-width:0.5;" width="211" x="34" y="114.86"/><ellipse cx="61.15" cy="130.86" fill="#ADD1B2" rx="11" ry="11" style="stroke:#181818;stroke-width:1.0;"/><path d="M63.6231,137.0031 Q63.0421,137.3019 62.4029,137.4513 Q61.7638,137.6007 61.0582,137.6007 Q58.5514,137.6007 57.2315,135.9489 Q55.9117,134.297 55.9117,131.1759 Q55.9117,128.0465 57.2315,126.3947 Q58.5514,124.7428 61.0582,124.7428 Q61.7638,124.7428 62.4112,124.8922 Q63.0587,125.0416 63.6231,125.3405 L63.6231,128.0631 Q62.9923,127.4821 62.3988,127.2123 Q61.8053,126.9425 61.1744,126.9425 Q59.8297,126.9425 59.1449,128.0092 Q58.4601,129.0758 58.4601,131.1759 Q58.4601,133.2677 59.1449,134.3344 Q59.8297,135.401 61.1744,135.401 Q61.8053,135.401 62.3988,135.1312 Q62.9923,134.8615 63.6231,134.2804 Z " fill="#000000"/><text fill="#000000" font-family="sans-serif" font-size="14" lengthAdjust="spacing" textLength="152" x="77.85" y="136.151">SaksfaserHentResultat</text><line style="stroke:#181818;stroke-width:0.5;" x1="35" x2="244" y1="146.86" y2="146.86"/><ellipse cx="45" cy="160.6041" fill="none" rx="3" ry="3" style="stroke:#038048;stroke-width:1.0;"/><text fill="#000000" font-family="sans-serif" font-size="14" lengthAdjust="spacing" textLength="185" x="54" y="164.3952">saksnummer: Saksnummer</text><ellipse cx="45" cy="177.0924" fill="none" rx="3" ry="3" style="stroke:#038048;stroke-width:1.0;"/><text fill="#000000" font-family="sans-serif" font-size="14" lengthAdjust="spacing" textLength="109" x="54" y="180.8834">sakstittel: string</text><ellipse cx="45" cy="193.5807" fill="none" rx="3" ry="3" style="stroke:#038048;stroke-width:1.0;"/><text fill="#000000" font-family="sans-serif" font-size="14" lengthAdjust="spacing" textLength="140" x="54" y="197.3717">saksansvarlig: string</text><ellipse cx="45" cy="210.069" fill="none" rx="3" ry="3" style="stroke:#038048;stroke-width:1.0;"/><text fill="#000000" font-family="sans-serif" font-size="14" lengthAdjust="spacing" textLength="83" x="54" y="213.86">faser: Fase[]</text><line style="stroke:#181818;stroke-width:0.5;" x1="35" x2="244" y1="220.8131" y2="220.8131"/></g><!--class Fase--><g id="elem_Fase"><rect codeLine="13" fill="#F1F1F1" height="130.4414" id="Fase" rx="2.5" ry="2.5" style="stroke:#181818;stroke-width:0.5;" width="187" x="443" y="106.62"/><ellipse cx="516.75" cy="122.62" fill="#ADD1B2" rx="11" ry="11" style="stroke:#181818;stroke-width:1.0;"/><path d="M519.2231,128.7631 Q518.6421,129.0619 518.0029,129.2113 Q517.3638,129.3607 516.6582,129.3607 Q514.1514,129.3607 512.8315,127.7089 Q511.5117,126.057 511.5117,122.9359 Q511.5117,119.8065 512.8315,118.1547 Q514.1514,116.5028 516.6582,116.5028 Q517.3638,116.5028 518.0112,116.6522 Q518.6587,116.8016 519.2231,117.1005 L519.2231,119.8231 Q518.5923,119.2421 517.9988,118.9723 Q517.4053,118.7025 516.7744,118.7025 Q515.4297,118.7025 514.7449,119.7692 Q514.0601,120.8358 514.0601,122.9359 Q514.0601,125.0277 514.7449,126.0944 Q515.4297,127.161 516.7744,127.161 Q517.4053,127.161 517.9988,126.8912 Q518.5923,126.6215 519.2231,126.0404 Z " fill="#000000"/><text fill="#000000" font-family="sans-serif" font-size="14" lengthAdjust="spacing" textLength="31" x="537.25" y="127.911">Fase</text><line style="stroke:#181818;stroke-width:0.5;" x1="444" x2="629" y1="138.62" y2="138.62"/><ellipse cx="454" cy="152.3641" fill="none" rx="3" ry="3" style="stroke:#038048;stroke-width:1.0;"/><text fill="#000000" font-family="sans-serif" font-size="14" lengthAdjust="spacing" textLength="109" x="463" y="156.1552">fasenavn: string</text><ellipse cx="454" cy="168.8524" fill="none" rx="3" ry="3" style="stroke:#038048;stroke-width:1.0;"/><text fill="#000000" font-family="sans-serif" font-size="14" lengthAdjust="spacing" textLength="89" x="463" y="172.6434">faseid: string</text><ellipse cx="454" cy="185.3407" fill="none" rx="3" ry="3" style="stroke:#038048;stroke-width:1.0;"/><text fill="#000000" font-family="sans-serif" font-size="14" lengthAdjust="spacing" textLength="131" x="463" y="189.1317">milepeler: Milepel[]</text><ellipse cx="454" cy="201.829" fill="none" rx="3" ry="3" style="stroke:#038048;stroke-width:1.0;"/><text fill="#000000" font-family="sans-serif" font-size="14" lengthAdjust="spacing" textLength="161" x="463" y="205.62">status: FaseStatusEnum</text><ellipse cx="454" cy="218.3173" fill="none" rx="3" ry="3" style="stroke:#038048;stroke-width:1.0;"/><text fill="#000000" font-family="sans-serif" font-size="14" lengthAdjust="spacing" textLength="100" x="463" y="222.1083">vedtak: Vedtak</text><line style="stroke:#181818;stroke-width:0.5;" x1="444" x2="629" y1="229.0614" y2="229.0614"/></g><!--class Saksnummer--><g id="elem_Saksnummer"><rect codeLine="76" fill="#F1F1F1" height="80.9766" id="Saksnummer" rx="2.5" ry="2.5" style="stroke:#181818;stroke-width:0.5;" width="225" x="7" y="371.26"/><ellipse cx="70.75" cy="387.26" fill="#ADD1B2" rx="11" ry="11" style="stroke:#181818;stroke-width:1.0;"/><path d="M73.2231,393.4031 Q72.6421,393.7019 72.0029,393.8513 Q71.3638,394.0007 70.6582,394.0007 Q68.1514,394.0007 66.8315,392.3489 Q65.5117,390.697 65.5117,387.5759 Q65.5117,384.4465 66.8315,382.7947 Q68.1514,381.1428 70.6582,381.1428 Q71.3638,381.1428 72.0112,381.2922 Q72.6587,381.4416 73.2231,381.7405 L73.2231,384.4631 Q72.5923,383.8821 71.9988,383.6123 Q71.4053,383.3425 70.7744,383.3425 Q69.4297,383.3425 68.7449,384.4092 Q68.0601,385.4758 68.0601,387.5759 Q68.0601,389.6677 68.7449,390.7344 Q69.4297,391.801 70.7744,391.801 Q71.4053,391.801 71.9988,391.5312 Q72.5923,391.2615 73.2231,390.6804 Z " fill="#000000"/><text fill="#000000" font-family="sans-serif" font-size="14" lengthAdjust="spacing" textLength="89" x="91.25" y="392.551">Saksnummer</text><line style="stroke:#181818;stroke-width:0.5;" x1="8" x2="231" y1="403.26" y2="403.26"/><ellipse cx="18" cy="417.0041" fill="none" rx="3" ry="3" style="stroke:#038048;stroke-width:1.0;"/><text fill="#000000" font-family="sans-serif" font-size="14" lengthAdjust="spacing" textLength="109" x="27" y="420.7952">saksaar: integer</text><ellipse cx="18" cy="433.4924" fill="none" rx="3" ry="3" style="stroke:#038048;stroke-width:1.0;"/><text fill="#000000" font-family="sans-serif" font-size="14" lengthAdjust="spacing" textLength="199" x="27" y="437.2834">sakssekvensnummer: integer</text><line style="stroke:#181818;stroke-width:0.5;" x1="8" x2="231" y1="444.2366" y2="444.2366"/></g><g id="elem_GMN7"><path d="M263.5,6 L263.5,46.6211 A0,0 0 0 0 263.5,46.6211 L532.5,46.6211 L536.5,106.33 L540.5,46.6211 L809.5,46.6211 A0,0 0 0 0 809.5,46.6211 L809.5,16 L799.5,6 L263.5,6 A0,0 0 0 0 263.5,6 " fill="#FEFFDD" style="stroke:#181818;stroke-width:0.5;"/><path d="M799.5,6 L799.5,16 L809.5,16 L799.5,6 " fill="#FEFFDD" style="stroke:#181818;stroke-width:0.5;"/><text fill="#000000" font-family="sans-serif" font-size="13" lengthAdjust="spacing" textLength="369" x="269.5" y="23.5684">En fase er i hovedsak det som hender mellom to milepeler.</text><text fill="#000000" font-family="sans-serif" font-size="13" lengthAdjust="spacing" textLength="525" x="269.5" y="38.8789">Interne faser sendes ikke ut ved denne protokollen. Vi kutter derfor ut Global flagg.</text></g><path d="M665,146.53 L665,162.8405 L552,167.3524 L665,170.8405 L665,187.1511 A0,0 0 0 0 665,187.1511 L1186,187.1511 A0,0 0 0 0 1186,187.1511 L1186,156.53 L1176,146.53 L665,146.53 A0,0 0 0 0 665,146.53 " fill="#FEFFDD" style="stroke:#181818;stroke-width:0.5;"/><path d="M1176,146.53 L1176,156.53 L1186,156.53 L1176,146.53 " fill="#FEFFDD" style="stroke:#181818;stroke-width:0.5;"/><text fill="#000000" font-family="sans-serif" font-size="13" lengthAdjust="spacing" textLength="500" x="671" y="164.0984">Faseid brukes alene (ikke sammen med saksnummer) for &#229; hente en enkelt fase</text><text fill="#000000" font-family="sans-serif" font-size="13" lengthAdjust="spacing" textLength="165" x="671" y="179.4089">Den m&#229; dermed v&#230;re unik</text><!--class Vedtak--><g id="elem_Vedtak"><rect codeLine="30" fill="#F1F1F1" height="89.5977" id="Vedtak" rx="2.5" ry="2.5" style="stroke:#181818;stroke-width:0.5;" width="184" x="267.5" y="366.95"/><ellipse cx="331.75" cy="387.2605" fill="#ADD1B2" rx="11" ry="11" style="stroke:#181818;stroke-width:1.0;"/><path d="M334.2231,393.4036 Q333.6421,393.7024 333.0029,393.8519 Q332.3638,394.0013 331.6582,394.0013 Q329.1514,394.0013 327.8315,392.3494 Q326.5117,390.6976 326.5117,387.5765 Q326.5117,384.4471 327.8315,382.7952 Q329.1514,381.1434 331.6582,381.1434 Q332.3638,381.1434 333.0112,381.2928 Q333.6587,381.4422 334.2231,381.741 L334.2231,384.4637 Q333.5923,383.8826 332.9988,383.6128 Q332.4053,383.3431 331.7744,383.3431 Q330.4297,383.3431 329.7449,384.4097 Q329.0601,385.4764 329.0601,387.5765 Q329.0601,389.6683 329.7449,390.7349 Q330.4297,391.8016 331.7744,391.8016 Q332.4053,391.8016 332.9988,391.5318 Q333.5923,391.262 334.2231,390.681 Z " fill="#000000"/><text fill="#000000" font-family="sans-serif" font-size="12" font-style="italic" lengthAdjust="spacing" textLength="42" x="354.75" y="383.5516">&#171;Kode&#187;</text><text fill="#000000" font-family="sans-serif" font-size="14" lengthAdjust="spacing" textLength="47" x="352.25" y="399.618">Vedtak</text><line style="stroke:#181818;stroke-width:0.5;" x1="268.5" x2="450.5" y1="407.5711" y2="407.5711"/><ellipse cx="278.5" cy="421.3152" fill="none" rx="3" ry="3" style="stroke:#038048;stroke-width:1.0;"/><text fill="#000000" font-family="sans-serif" font-size="14" lengthAdjust="spacing" textLength="116" x="287.5" y="425.1063">kodeverdi: string</text><ellipse cx="278.5" cy="437.8035" fill="none" rx="3" ry="3" style="stroke:#038048;stroke-width:1.0;"/><text fill="#000000" font-family="sans-serif" font-size="14" lengthAdjust="spacing" textLength="158" x="287.5" y="441.5945">kodebeskrivelse: string</text><line style="stroke:#181818;stroke-width:0.5;" x1="268.5" x2="450.5" y1="448.5477" y2="448.5477"/></g><g id="elem_GMN14"><path d="M290.5,128.56 L290.5,215.1127 A0,0 0 0 0 290.5,215.1127 L347.29,215.1127 L357.64,366.57 L355.29,215.1127 L408.5,215.1127 A0,0 0 0 0 408.5,215.1127 L408.5,138.56 L398.5,128.56 L290.5,128.56 A0,0 0 0 0 290.5,128.56 " fill="#FEFFDD" style="stroke:#181818;stroke-width:0.5;"/><path d="M398.5,128.56 L398.5,138.56 L408.5,138.56 L398.5,128.56 " fill="#FEFFDD" style="stroke:#181818;stroke-width:0.5;"/><text fill="#000000" font-family="sans-serif" font-size="13" lengthAdjust="spacing" textLength="69" x="296.5" y="146.1284">Eksempler:</text><text fill="#000000" font-family="sans-serif" font-size="13" lengthAdjust="spacing" textLength="56" x="296.5" y="161.4389">godkjent</text><text fill="#000000" font-family="sans-serif" font-size="13" lengthAdjust="spacing" textLength="97" x="296.5" y="176.7495">delvis godkjent</text><text fill="#000000" font-family="sans-serif" font-size="13" lengthAdjust="spacing" textLength="42" x="296.5" y="192.06">avsl&#229;tt</text><text fill="#000000" font-family="sans-serif" font-size="13" lengthAdjust="spacing" textLength="37" x="296.5" y="207.3705">avvist</text></g><!--class FaseStatusEnum--><g id="elem_FaseStatusEnum"><rect codeLine="37" fill="#F1F1F1" height="97.4648" id="FaseStatusEnum" rx="2.5" ry="2.5" style="stroke:#181818;stroke-width:0.5;" width="144" x="486.5" y="363.01"/><ellipse cx="501.5" cy="379.01" fill="#EB937F" rx="11" ry="11" style="stroke:#181818;stroke-width:1.0;"/><path d="M505.1143,385.51 L497.3945,385.51 L497.3945,373.1169 L505.1143,373.1169 L505.1143,375.2751 L499.8433,375.2751 L499.8433,377.948 L504.6162,377.948 L504.6162,380.1062 L499.8433,380.1062 L499.8433,383.3518 L505.1143,383.3518 Z " fill="#000000"/><text fill="#000000" font-family="sans-serif" font-size="14" lengthAdjust="spacing" textLength="112" x="515.5" y="384.301">FaseStatusEnum</text><line style="stroke:#181818;stroke-width:0.5;" x1="487.5" x2="629.5" y1="395.01" y2="395.01"/><ellipse cx="497.5" cy="408.7541" fill="none" rx="3" ry="3" style="stroke:#038048;stroke-width:1.0;"/><text fill="#000000" font-family="sans-serif" font-size="14" lengthAdjust="spacing" textLength="55" x="506.5" y="412.5452">Planlagt</text><ellipse cx="497.5" cy="425.2424" fill="none" rx="3" ry="3" style="stroke:#038048;stroke-width:1.0;"/><text fill="#000000" font-family="sans-serif" font-size="14" lengthAdjust="spacing" textLength="88" x="506.5" y="429.0334">UnderArbeid</text><ellipse cx="497.5" cy="441.7307" fill="none" rx="3" ry="3" style="stroke:#038048;stroke-width:1.0;"/><text fill="#000000" font-family="sans-serif" font-size="14" lengthAdjust="spacing" textLength="48" x="506.5" y="445.5217">Utfoert</text><line style="stroke:#181818;stroke-width:0.5;" x1="487.5" x2="629.5" y1="452.4748" y2="452.4748"/></g><!--class Milepel--><g id="elem_Milepel"><rect codeLine="47" fill="#F1F1F1" height="229.3711" id="Milepel" rx="2.5" ry="2.5" style="stroke:#181818;stroke-width:0.5;" width="218" x="938.5" y="297.06"/><ellipse cx="1018.75" cy="313.06" fill="#ADD1B2" rx="11" ry="11" style="stroke:#181818;stroke-width:1.0;"/><path d="M1021.2231,319.2031 Q1020.6421,319.5019 1020.0029,319.6513 Q1019.3638,319.8007 1018.6582,319.8007 Q1016.1514,319.8007 1014.8315,318.1489 Q1013.5117,316.497 1013.5117,313.3759 Q1013.5117,310.2465 1014.8315,308.5947 Q1016.1514,306.9428 1018.6582,306.9428 Q1019.3638,306.9428 1020.0112,307.0922 Q1020.6587,307.2416 1021.2231,307.5405 L1021.2231,310.2631 Q1020.5923,309.6821 1019.9988,309.4123 Q1019.4053,309.1425 1018.7744,309.1425 Q1017.4297,309.1425 1016.7449,310.2092 Q1016.0601,311.2758 1016.0601,313.3759 Q1016.0601,315.4677 1016.7449,316.5344 Q1017.4297,317.601 1018.7744,317.601 Q1019.4053,317.601 1019.9988,317.3312 Q1020.5923,317.0615 1021.2231,316.4804 Z " fill="#000000"/><text fill="#000000" font-family="sans-serif" font-size="14" lengthAdjust="spacing" textLength="49" x="1039.25" y="318.351">Milepel</text><line style="stroke:#181818;stroke-width:0.5;" x1="939.5" x2="1155.5" y1="329.06" y2="329.06"/><ellipse cx="949.5" cy="342.8041" fill="none" rx="3" ry="3" style="stroke:#038048;stroke-width:1.0;"/><text fill="#000000" font-family="sans-serif" font-size="14" lengthAdjust="spacing" textLength="108" x="958.5" y="346.5952">systemId: string</text><ellipse cx="949.5" cy="359.2924" fill="none" rx="3" ry="3" style="stroke:#038048;stroke-width:1.0;"/><text fill="#000000" font-family="sans-serif" font-size="14" lengthAdjust="spacing" textLength="124" x="958.5" y="363.0834">beskrivelse: string</text><ellipse cx="949.5" cy="375.7807" fill="none" rx="3" ry="3" style="stroke:#038048;stroke-width:1.0;"/><text fill="#000000" font-family="sans-serif" font-size="14" lengthAdjust="spacing" textLength="143" x="958.5" y="379.5717">kategori: Milepeltype</text><ellipse cx="949.5" cy="392.269" fill="none" rx="3" ry="3" style="stroke:#038048;stroke-width:1.0;"/><text fill="#000000" font-family="sans-serif" font-size="14" lengthAdjust="spacing" textLength="65" x="958.5" y="396.06">frist: date</text><ellipse cx="949.5" cy="408.7573" fill="none" rx="3" ry="3" style="stroke:#038048;stroke-width:1.0;"/><text fill="#000000" font-family="sans-serif" font-size="14" lengthAdjust="spacing" textLength="85" x="958.5" y="412.5483">utfoert: date</text><ellipse cx="949.5" cy="425.2455" fill="none" rx="3" ry="3" style="stroke:#038048;stroke-width:1.0;"/><text fill="#000000" font-family="sans-serif" font-size="14" lengthAdjust="spacing" textLength="118" x="958.5" y="429.0366">journaldato: date</text><ellipse cx="949.5" cy="441.7338" fill="none" rx="3" ry="3" style="stroke:#038048;stroke-width:1.0;"/><text fill="#000000" font-family="sans-serif" font-size="14" lengthAdjust="spacing" textLength="192" x="958.5" y="445.5248">referanseJournalpost: string</text><ellipse cx="949.5" cy="458.2221" fill="none" rx="3" ry="3" style="stroke:#038048;stroke-width:1.0;"/><text fill="#000000" font-family="sans-serif" font-size="14" lengthAdjust="spacing" textLength="184" x="958.5" y="462.0131">referanseDokument: string</text><ellipse cx="949.5" cy="474.7104" fill="none" rx="3" ry="3" style="stroke:#038048;stroke-width:1.0;"/><text fill="#000000" font-family="sans-serif" font-size="14" lengthAdjust="spacing" textLength="110" x="958.5" y="478.5014">erStart: boolean</text><ellipse cx="949.5" cy="491.1987" fill="none" rx="3" ry="3" style="stroke:#038048;stroke-width:1.0;"/><text fill="#000000" font-family="sans-serif" font-size="14" lengthAdjust="spacing" textLength="109" x="958.5" y="494.9897">erSlutt: boolean</text><ellipse cx="949.5" cy="507.687" fill="none" rx="3" ry="3" style="stroke:#038048;stroke-width:1.0;"/><text fill="#000000" font-family="sans-serif" font-size="14" lengthAdjust="spacing" textLength="179" x="958.5" y="511.478">status: MilepelStatusEnum</text><line style="stroke:#181818;stroke-width:0.5;" x1="939.5" x2="1155.5" y1="518.4311" y2="518.4311"/></g><g id="elem_GMN21"><path d="M1221,159.19 L1221,184.5005 L1420,184.5005 L1420,169.19 L1410,159.19 L1221,159.19 " fill="#FEFFDD" style="stroke:#181818;stroke-width:0.5;"/><path d="M1410,159.19 L1410,169.19 L1420,169.19 L1410,159.19 " fill="#FEFFDD" style="stroke:#181818;stroke-width:1.0;"/><text fill="#000000" font-family="sans-serif" font-size="13" lengthAdjust="spacing" textLength="178" x="1227" y="176.7584">frist og utfoert ikke p&#229;krevd</text></g><!--class MilepelStatusEnum--><g id="elem_MilepelStatusEnum"><rect codeLine="71" fill="#F1F1F1" height="80.9766" id="MilepelStatusEnum" rx="2.5" ry="2.5" style="stroke:#181818;stroke-width:0.5;" width="162" x="966.5" y="590.74"/><ellipse cx="981.5" cy="606.74" fill="#EB937F" rx="11" ry="11" style="stroke:#181818;stroke-width:1.0;"/><path d="M985.1143,613.24 L977.3945,613.24 L977.3945,600.8469 L985.1143,600.8469 L985.1143,603.0051 L979.8433,603.0051 L979.8433,605.678 L984.6162,605.678 L984.6162,607.8362 L979.8433,607.8362 L979.8433,611.0818 L985.1143,611.0818 Z " fill="#000000"/><text fill="#000000" font-family="sans-serif" font-size="14" lengthAdjust="spacing" textLength="130" x="995.5" y="612.031">MilepelStatusEnum</text><line style="stroke:#181818;stroke-width:0.5;" x1="967.5" x2="1127.5" y1="622.74" y2="622.74"/><ellipse cx="977.5" cy="636.4841" fill="none" rx="3" ry="3" style="stroke:#038048;stroke-width:1.0;"/><text fill="#000000" font-family="sans-serif" font-size="14" lengthAdjust="spacing" textLength="36" x="986.5" y="640.2752">N&#229;dd</text><ellipse cx="977.5" cy="652.9724" fill="none" rx="3" ry="3" style="stroke:#038048;stroke-width:1.0;"/><text fill="#000000" font-family="sans-serif" font-size="14" lengthAdjust="spacing" textLength="55" x="986.5" y="656.7634">Planlagt</text><line style="stroke:#181818;stroke-width:0.5;" x1="967.5" x2="1127.5" y1="663.7166" y2="663.7166"/></g><!--class Milepeltype--><g id="elem_Milepeltype"><rect codeLine="66" fill="#F1F1F1" height="89.5977" id="Milepeltype" rx="2.5" ry="2.5" style="stroke:#181818;stroke-width:0.5;" width="184" x="1188.5" y="586.43"/><ellipse cx="1237.25" cy="606.7405" fill="#ADD1B2" rx="11" ry="11" style="stroke:#181818;stroke-width:1.0;"/><path d="M1239.7231,612.8836 Q1239.1421,613.1824 1238.5029,613.3319 Q1237.8638,613.4813 1237.1582,613.4813 Q1234.6514,613.4813 1233.3315,611.8294 Q1232.0117,610.1776 1232.0117,607.0565 Q1232.0117,603.9271 1233.3315,602.2752 Q1234.6514,600.6234 1237.1582,600.6234 Q1237.8638,600.6234 1238.5112,600.7728 Q1239.1587,600.9222 1239.7231,601.221 L1239.7231,603.9437 Q1239.0923,603.3626 1238.4988,603.0928 Q1237.9053,602.8231 1237.2744,602.8231 Q1235.9297,602.8231 1235.2449,603.8897 Q1234.5601,604.9564 1234.5601,607.0565 Q1234.5601,609.1483 1235.2449,610.2149 Q1235.9297,611.2816 1237.2744,611.2816 Q1237.9053,611.2816 1238.4988,611.0118 Q1239.0923,610.742 1239.7231,610.161 Z " fill="#000000"/><text fill="#000000" font-family="sans-serif" font-size="12" font-style="italic" lengthAdjust="spacing" textLength="42" x="1275.75" y="603.0316">&#171;Kode&#187;</text><text fill="#000000" font-family="sans-serif" font-size="14" lengthAdjust="spacing" textLength="78" x="1257.75" y="619.098">Milepeltype</text><line style="stroke:#181818;stroke-width:0.5;" x1="1189.5" x2="1371.5" y1="627.0511" y2="627.0511"/><ellipse cx="1199.5" cy="640.7952" fill="none" rx="3" ry="3" style="stroke:#038048;stroke-width:1.0;"/><text fill="#000000" font-family="sans-serif" font-size="14" lengthAdjust="spacing" textLength="116" x="1208.5" y="644.5863">kodeverdi: string</text><ellipse cx="1199.5" cy="657.2835" fill="none" rx="3" ry="3" style="stroke:#038048;stroke-width:1.0;"/><text fill="#000000" font-family="sans-serif" font-size="14" lengthAdjust="spacing" textLength="158" x="1208.5" y="661.0745">kodebeskrivelse: string</text><line style="stroke:#181818;stroke-width:0.5;" x1="1189.5" x2="1371.5" y1="668.0277" y2="668.0277"/></g><g id="elem_GMN28"><path d="M1192,376.13 L1192,447.3722 A0,0 0 0 0 1192,447.3722 L1298.32,447.3722 L1285.79,585.97 L1306.32,447.3722 L1421,447.3722 A0,0 0 0 0 1421,447.3722 L1421,386.13 L1411,376.13 L1192,376.13 A0,0 0 0 0 1192,376.13 " fill="#FEFFDD" style="stroke:#181818;stroke-width:0.5;"/><path d="M1411,376.13 L1411,386.13 L1421,386.13 L1411,376.13 " fill="#FEFFDD" style="stroke:#181818;stroke-width:0.5;"/><text fill="#000000" font-family="sans-serif" font-size="13" lengthAdjust="spacing" textLength="69" x="1198" y="393.6984">Eksempler:</text><text fill="#000000" font-family="sans-serif" font-size="13" lengthAdjust="spacing" textLength="201" x="1198" y="409.0089">Bestilling av oppstartsm&#248;te (BO)</text><text fill="#000000" font-family="sans-serif" font-size="13" lengthAdjust="spacing" textLength="208" x="1198" y="424.3195">Gjennomf&#248;rt oppstartsm&#248;te (OM)</text><text fill="#000000" font-family="sans-serif" font-size="13" lengthAdjust="spacing" textLength="137" x="1198" y="439.63">Mottak av planforslag</text></g><!--link SaksfaserHentResultat to Fase--><g id="link_SaksfaserHentResultat_Fase"><path codeLine="8" d="M212.02,114.42 C235.56,99.06 262.68,84.54 290,76.62 C340.8,61.9 358.81,59.95 409,76.62 C428.66,83.15 437.9483,87.1071 455.1083,99.2271 " fill="none" id="SaksfaserHentResultat-to-Fase" style="stroke:#181818;stroke-width:1.0;"/><polygon fill="#181818" points="464.91,106.15,462.3168,99.4213,455.1083,99.2271,457.7015,105.9558,464.91,106.15" style="stroke:#181818;stroke-width:1.0;"/></g><!--link SaksfaserHentResultat to Saksnummer--><g id="link_SaksfaserHentResultat_Saksnummer"><path codeLine="9" d="M134.76,229.22 C131.1,272.78 126.12,331.99 122.86,370.77 " fill="none" id="SaksfaserHentResultat-Saksnummer" style="stroke:#181818;stroke-width:1.0;"/></g><!--link Fase to Vedtak--><g id="link_Fase_Vedtak"><path codeLine="26" d="M488.37,237.54 C457.86,278.54 419.21,330.49 392.23,366.75 " fill="none" id="Fase-Vedtak" style="stroke:#181818;stroke-width:1.0;"/></g><!--link Fase to FaseStatusEnum--><g id="link_Fase_FaseStatusEnum"><path codeLine="35" d="M542.48,237.54 C546.13,277.03 550.72,326.67 554.05,362.67 " fill="none" id="Fase-FaseStatusEnum" style="stroke:#181818;stroke-width:1.0;"/></g><!--link Fase to Milepel--><g id="link_Fase_Milepel"><path codeLine="43" d="M630.26,228.08 C636.05,231.19 641.83,234.2 647.5,237.06 C743.83,285.64 856.86,333.95 938.14,367.24 " fill="none" id="Fase-Milepel" style="stroke:#181818;stroke-width:1.0;"/></g><!--link GMN21 to Milepel--><g id="link_GMN21_Milepel"><path d="M1306.3,184.71 C1280.09,206.69 1222.39,255.26 1174.5,297.06 C1168.7,302.12 1162.77,307.32 1156.8,312.59 " fill="none" id="GMN21-Milepel" style="stroke:#181818;stroke-width:1.0;stroke-dasharray:7.0,7.0;"/></g><!--link Milepel to MilepelStatusEnum--><g id="link_Milepel_MilepelStatusEnum"><path codeLine="61" d="M1047.5,526.9 C1047.5,549.67 1047.5,572.12 1047.5,590.25 " fill="none" id="Milepel-MilepelStatusEnum" style="stroke:#181818;stroke-width:1.0;"/></g><!--link Milepel to Milepeltype--><g id="link_Milepel_Milepeltype"><path codeLine="62" d="M1156.84,514.8 C1183.68,539.85 1211.02,565.38 1233.16,586.04 " fill="none" id="Milepel-Milepeltype" style="stroke:#181818;stroke-width:1.0;"/></g><!--SRC=[fLNBJjqm4DtdAsO9HV014K8gub5QKQeYsFHsuKicmTYnex4J2I4-v_ORsEV7EdRUWQvwDzUPCyypnyc35ix1hL0k5mxf2nh_4rsjlV3maW3_3Xo3fYvBf3GwTkS9yz9xr2auJz8KarqOrmZIibX2iKuA5_ptwtVocYGV5p_y55t-XHxEMqcCzGZULc3p60Kfd1i8OO044XvjWndt11bwSBQ4HpGP8oLgpK_UGYarLgYHZZRcodWaWp6Um0LN1r8fXDe39-8iXk6AhBVAQetc2Eubg9fv80OfjnHSBxNT2Wsv5aLn14do4BcE_RrCN1ZHcFSCoMnf6_jBuRexCdaTrSn7xJf2R-Fvd6dfC6xM2vN2VVmFP4UcI1QFVk0gJRjwCU8Y7c5BjUAP1O-6i1T7TuAfDinO1fCWzY6Csku2dvoNSJGAjO_KnOHd8OOTc9KGshH_Y6aqKa72l49e9qaY9RpIlit5EZjRMAXoM5Q1WOqfRAQUkEI6LwCRwM0oYCRfTkVZYH4_yjudEZx-PZCyEHbMeFYfGShaakzWtg9J91lKJD80laxThWZdUUfoPHoA_D32i0fyztGNjFUPjWFf1tS-jqX-dhnVyfABtfX2Jc4oMx3AOcIdpghTAS8c6oRktSTx_EmybbShONqqPCU0y5XOagFW_7E5lK13-HGozkWCVHjpqvEjoGZD1Zit4-P8_6R0hnrUsP1fNdVqEBEgPicjO2IcDvJQMgjHcD6g-VgjhCFLw0UOBOkP7jYPo9xXxy4u_KVR2C12dh0nfyXlHQsvQH0DsAfoeMTNjcySldTwixynbonNOykyVUFrhJrkhjdZsleWM4vGiNpueZcMK0BBvSRg_w_fgDrtD0pvlhUxB5if-NLGsVGUddymX60Y9ByKYlcdmg5gq8nVanu7JlON]--></g></svg>