<svg xmlns="http://www.w3.org/2000/svg" xmlns:xlink="http://www.w3.org/1999/xlink" contentStyleType="text/css" height="843px" preserveAspectRatio="none" style="width:1314px;height:843px;background:#FFFFFF;" version="1.1" viewBox="0 0 1314 843" width="1314px" zoomAndPan="magnify"><defs/><g><!--class SaksfaserHentResultat--><g id="elem_SaksfaserHentResultat"><rect codeLine="1" fill="#F1F1F1" height="113.9531" id="SaksfaserHentResultat" rx="2.5" ry="2.5" style="stroke:#181818;stroke-width:0.5;" width="211" x="115" y="123.11"/><ellipse cx="142.15" cy="139.11" fill="#ADD1B2" rx="11" ry="11" style="stroke:#181818;stroke-width:1.0;"/><path d="M144.6231,145.2531 Q144.0421,145.5519 143.4029,145.7013 Q142.7638,145.8507 142.0582,145.8507 Q139.5514,145.8507 138.2315,144.1989 Q136.9117,142.547 136.9117,139.4259 Q136.9117,136.2965 138.2315,134.6447 Q139.5514,132.9928 142.0582,132.9928 Q142.7638,132.9928 143.4112,133.1422 Q144.0587,133.2916 144.6231,133.5905 L144.6231,136.3131 Q143.9923,135.7321 143.3988,135.4623 Q142.8053,135.1925 142.1744,135.1925 Q140.8297,135.1925 140.1449,136.2592 Q139.4601,137.3258 139.4601,139.4259 Q139.4601,141.5177 140.1449,142.5844 Q140.8297,143.651 142.1744,143.651 Q142.8053,143.651 143.3988,143.3812 Q143.9923,143.1115 144.6231,142.5304 Z " fill="#000000"/><text fill="#000000" font-family="sans-serif" font-size="14" lengthAdjust="spacing" textLength="152" x="158.85" y="144.401">SaksfaserHentResultat</text><line style="stroke:#181818;stroke-width:0.5;" x1="116" x2="325" y1="155.11" y2="155.11"/><ellipse cx="126" cy="168.8541" fill="none" rx="3" ry="3" style="stroke:#038048;stroke-width:1.0;"/><text fill="#000000" font-family="sans-serif" font-size="14" lengthAdjust="spacing" textLength="185" x="135" y="172.6452">saksnummer: Saksnummer</text><ellipse cx="126" cy="185.3424" fill="none" rx="3" ry="3" style="stroke:#038048;stroke-width:1.0;"/><text fill="#000000" font-family="sans-serif" font-size="14" lengthAdjust="spacing" textLength="109" x="135" y="189.1334">sakstittel: string</text><ellipse cx="126" cy="201.8307" fill="none" rx="3" ry="3" style="stroke:#038048;stroke-width:1.0;"/><text fill="#000000" font-family="sans-serif" font-size="14" lengthAdjust="spacing" textLength="140" x="135" y="205.6217">saksansvarlig: string</text><ellipse cx="126" cy="218.319" fill="none" rx="3" ry="3" style="stroke:#038048;stroke-width:1.0;"/><text fill="#000000" font-family="sans-serif" font-size="14" lengthAdjust="spacing" textLength="83" x="135" y="222.11">faser: Fase[]</text><line style="stroke:#181818;stroke-width:0.5;" x1="116" x2="325" y1="229.0631" y2="229.0631"/></g><!--class Fase--><g id="elem_Fase"><rect codeLine="13" fill="#F1F1F1" height="146.9297" id="Fase" rx="2.5" ry="2.5" style="stroke:#181818;stroke-width:0.5;" width="187" x="411" y="106.62"/><ellipse cx="484.75" cy="122.62" fill="#ADD1B2" rx="11" ry="11" style="stroke:#181818;stroke-width:1.0;"/><path d="M487.2231,128.7631 Q486.6421,129.0619 486.0029,129.2113 Q485.3638,129.3607 484.6582,129.3607 Q482.1514,129.3607 480.8315,127.7089 Q479.5117,126.057 479.5117,122.9359 Q479.5117,119.8065 480.8315,118.1547 Q482.1514,116.5028 484.6582,116.5028 Q485.3638,116.5028 486.0112,116.6522 Q486.6587,116.8016 487.2231,117.1005 L487.2231,119.8231 Q486.5923,119.2421 485.9988,118.9723 Q485.4053,118.7025 484.7744,118.7025 Q483.4297,118.7025 482.7449,119.7692 Q482.0601,120.8358 482.0601,122.9359 Q482.0601,125.0277 482.7449,126.0944 Q483.4297,127.161 484.7744,127.161 Q485.4053,127.161 485.9988,126.8912 Q486.5923,126.6215 487.2231,126.0404 Z " fill="#000000"/><text fill="#000000" font-family="sans-serif" font-size="14" lengthAdjust="spacing" textLength="31" x="505.25" y="127.911">Fase</text><line style="stroke:#181818;stroke-width:0.5;" x1="412" x2="597" y1="138.62" y2="138.62"/><ellipse cx="422" cy="152.3641" fill="none" rx="3" ry="3" style="stroke:#038048;stroke-width:1.0;"/><text fill="#000000" font-family="sans-serif" font-size="14" lengthAdjust="spacing" textLength="109" x="431" y="156.1552">fasenavn: string</text><ellipse cx="422" cy="168.8524" fill="none" rx="3" ry="3" style="stroke:#038048;stroke-width:1.0;"/><text fill="#000000" font-family="sans-serif" font-size="14" lengthAdjust="spacing" textLength="89" x="431" y="172.6434">faseid: string</text><ellipse cx="422" cy="185.3407" fill="none" rx="3" ry="3" style="stroke:#038048;stroke-width:1.0;"/><text fill="#000000" font-family="sans-serif" font-size="14" lengthAdjust="spacing" textLength="131" x="431" y="189.1317">milepeler: Milepel[]</text><ellipse cx="422" cy="201.829" fill="none" rx="3" ry="3" style="stroke:#038048;stroke-width:1.0;"/><text fill="#000000" font-family="sans-serif" font-size="14" lengthAdjust="spacing" textLength="161" x="431" y="205.62">status: FaseStatusEnum</text><ellipse cx="422" cy="218.3173" fill="none" rx="3" ry="3" style="stroke:#038048;stroke-width:1.0;"/><text fill="#000000" font-family="sans-serif" font-size="14" lengthAdjust="spacing" textLength="153" x="431" y="222.1083">kategori: Fasekategori</text><ellipse cx="422" cy="234.8055" fill="none" rx="3" ry="3" style="stroke:#038048;stroke-width:1.0;"/><text fill="#000000" font-family="sans-serif" font-size="14" lengthAdjust="spacing" textLength="100" x="431" y="238.5966">vedtak: Vedtak</text><line style="stroke:#181818;stroke-width:0.5;" x1="412" x2="597" y1="245.5497" y2="245.5497"/></g><!--class Saksnummer--><g id="elem_Saksnummer"><rect codeLine="86" fill="#F1F1F1" height="80.9766" id="Saksnummer" rx="2.5" ry="2.5" style="stroke:#181818;stroke-width:0.5;" width="225" x="7" y="387.75"/><ellipse cx="70.75" cy="403.75" fill="#ADD1B2" rx="11" ry="11" style="stroke:#181818;stroke-width:1.0;"/><path d="M73.2231,409.8931 Q72.6421,410.1919 72.0029,410.3413 Q71.3638,410.4907 70.6582,410.4907 Q68.1514,410.4907 66.8315,408.8389 Q65.5117,407.187 65.5117,404.0659 Q65.5117,400.9365 66.8315,399.2847 Q68.1514,397.6328 70.6582,397.6328 Q71.3638,397.6328 72.0112,397.7822 Q72.6587,397.9316 73.2231,398.2305 L73.2231,400.9531 Q72.5923,400.3721 71.9988,400.1023 Q71.4053,399.8325 70.7744,399.8325 Q69.4297,399.8325 68.7449,400.8992 Q68.0601,401.9658 68.0601,404.0659 Q68.0601,406.1577 68.7449,407.2244 Q69.4297,408.291 70.7744,408.291 Q71.4053,408.291 71.9988,408.0212 Q72.5923,407.7515 73.2231,407.1704 Z " fill="#000000"/><text fill="#000000" font-family="sans-serif" font-size="14" lengthAdjust="spacing" textLength="89" x="91.25" y="409.041">Saksnummer</text><line style="stroke:#181818;stroke-width:0.5;" x1="8" x2="231" y1="419.75" y2="419.75"/><ellipse cx="18" cy="433.4941" fill="none" rx="3" ry="3" style="stroke:#038048;stroke-width:1.0;"/><text fill="#000000" font-family="sans-serif" font-size="14" lengthAdjust="spacing" textLength="109" x="27" y="437.2852">saksaar: integer</text><ellipse cx="18" cy="449.9824" fill="none" rx="3" ry="3" style="stroke:#038048;stroke-width:1.0;"/><text fill="#000000" font-family="sans-serif" font-size="14" lengthAdjust="spacing" textLength="199" x="27" y="453.7734">sakssekvensnummer: integer</text><line style="stroke:#181818;stroke-width:0.5;" x1="8" x2="231" y1="460.7266" y2="460.7266"/></g><g id="elem_GMN7"><path d="M231.5,6 L231.5,46.6211 A0,0 0 0 0 231.5,46.6211 L500.5,46.6211 L504.5,106.36 L508.5,46.6211 L777.5,46.6211 A0,0 0 0 0 777.5,46.6211 L777.5,16 L767.5,6 L231.5,6 A0,0 0 0 0 231.5,6 " fill="#FEFFDD" style="stroke:#181818;stroke-width:0.5;"/><path d="M767.5,6 L767.5,16 L777.5,16 L767.5,6 " fill="#FEFFDD" style="stroke:#181818;stroke-width:0.5;"/><text fill="#000000" font-family="sans-serif" font-size="13" lengthAdjust="spacing" textLength="369" x="237.5" y="23.5684">En fase er i hovedsak det som hender mellom to milepeler.</text><text fill="#000000" font-family="sans-serif" font-size="13" lengthAdjust="spacing" textLength="525" x="237.5" y="38.8789">Interne faser sendes ikke ut ved denne protokollen. Vi kutter derfor ut Global flagg.</text></g><path d="M633,154.78 L633,171.0905 L520,167.3524 L633,179.0905 L633,195.4011 A0,0 0 0 0 633,195.4011 L1154,195.4011 A0,0 0 0 0 1154,195.4011 L1154,164.78 L1144,154.78 L633,154.78 A0,0 0 0 0 633,154.78 " fill="#FEFFDD" style="stroke:#181818;stroke-width:0.5;"/><path d="M1144,154.78 L1144,164.78 L1154,164.78 L1144,154.78 " fill="#FEFFDD" style="stroke:#181818;stroke-width:0.5;"/><text fill="#000000" font-family="sans-serif" font-size="13" lengthAdjust="spacing" textLength="500" x="639" y="172.3484">Faseid brukes alene (ikke sammen med saksnummer) for &#229; hente en enkelt fase</text><text fill="#000000" font-family="sans-serif" font-size="13" lengthAdjust="spacing" textLength="165" x="639" y="187.6589">Den m&#229; dermed v&#230;re unik</text><!--class Fasekategori--><g id="elem_Fasekategori"><rect codeLine="27" fill="#F1F1F1" height="89.5977" id="Fasekategori" rx="2.5" ry="2.5" style="stroke:#181818;stroke-width:0.5;" width="184" x="726.5" y="383.44"/><ellipse cx="770.3" cy="403.7505" fill="#ADD1B2" rx="11" ry="11" style="stroke:#181818;stroke-width:1.0;"/><path d="M772.7731,409.8936 Q772.1921,410.1924 771.5529,410.3419 Q770.9138,410.4913 770.2082,410.4913 Q767.7014,410.4913 766.3815,408.8394 Q765.0617,407.1876 765.0617,404.0665 Q765.0617,400.9371 766.3815,399.2852 Q767.7014,397.6334 770.2082,397.6334 Q770.9138,397.6334 771.5612,397.7828 Q772.2087,397.9322 772.7731,398.231 L772.7731,400.9537 Q772.1423,400.3726 771.5488,400.1028 Q770.9553,399.8331 770.3244,399.8331 Q768.9797,399.8331 768.2949,400.8997 Q767.6101,401.9664 767.6101,404.0665 Q767.6101,406.1583 768.2949,407.2249 Q768.9797,408.2916 770.3244,408.2916 Q770.9553,408.2916 771.5488,408.0218 Q772.1423,407.752 772.7731,407.171 Z " fill="#000000"/><text fill="#000000" font-family="sans-serif" font-size="12" font-style="italic" lengthAdjust="spacing" textLength="42" x="813.7" y="400.0416">&#171;Kode&#187;</text><text fill="#000000" font-family="sans-serif" font-size="14" lengthAdjust="spacing" textLength="88" x="790.7" y="416.108">Fasekategori</text><line style="stroke:#181818;stroke-width:0.5;" x1="727.5" x2="909.5" y1="424.0611" y2="424.0611"/><ellipse cx="737.5" cy="437.8052" fill="none" rx="3" ry="3" style="stroke:#038048;stroke-width:1.0;"/><text fill="#000000" font-family="sans-serif" font-size="14" lengthAdjust="spacing" textLength="116" x="746.5" y="441.5963">kodeverdi: string</text><ellipse cx="737.5" cy="454.2935" fill="none" rx="3" ry="3" style="stroke:#038048;stroke-width:1.0;"/><text fill="#000000" font-family="sans-serif" font-size="14" lengthAdjust="spacing" textLength="158" x="746.5" y="458.0845">kodebeskrivelse: string</text><line style="stroke:#181818;stroke-width:0.5;" x1="727.5" x2="909.5" y1="465.0377" y2="465.0377"/></g><g id="elem_GMN13"><path d="M786.5,602.92 L786.5,704.7833 A0,0 0 0 0 786.5,704.7833 L1112.5,704.7833 A0,0 0 0 0 1112.5,704.7833 L1112.5,612.92 L1102.5,602.92 L924.01,602.92 L844.38,473.42 L916.01,602.92 L786.5,602.92 A0,0 0 0 0 786.5,602.92 " fill="#FEFFDD" style="stroke:#181818;stroke-width:0.5;"/><path d="M1102.5,602.92 L1102.5,612.92 L1112.5,612.92 L1102.5,602.92 " fill="#FEFFDD" style="stroke:#181818;stroke-width:0.5;"/><text fill="#000000" font-family="sans-serif" font-size="13" lengthAdjust="spacing" textLength="305" x="792.5" y="620.4884">Se gjerne Byggesaksbehandling::Prosesskategori</text><text fill="#000000" font-family="sans-serif" font-size="13" lengthAdjust="spacing" textLength="45" x="796.5" y="635.7989">fra NPS</text><text fill="#000000" font-family="sans-serif" font-size="13" lengthAdjust="spacing" textLength="210" x="792.5" y="651.1095">Vi m&#229; f&#229; avklart denne kodelisten</text><text fill="#000000" font-family="sans-serif" font-size="13" lengthAdjust="spacing" textLength="69" x="792.5" y="666.42">Eksempler:</text><text fill="#000000" font-family="sans-serif" font-size="13" lengthAdjust="spacing" textLength="34" x="792.5" y="681.7305">Klage</text><text fill="#000000" font-family="sans-serif" font-size="13" lengthAdjust="spacing" textLength="43" x="792.5" y="697.0411">H&#248;ring</text></g><!--class Vedtak--><g id="elem_Vedtak"><rect codeLine="40" fill="#F1F1F1" height="89.5977" id="Vedtak" rx="2.5" ry="2.5" style="stroke:#181818;stroke-width:0.5;" width="184" x="1050.5" y="383.44"/><ellipse cx="1114.75" cy="403.7505" fill="#ADD1B2" rx="11" ry="11" style="stroke:#181818;stroke-width:1.0;"/><path d="M1117.2231,409.8936 Q1116.6421,410.1924 1116.0029,410.3419 Q1115.3638,410.4913 1114.6582,410.4913 Q1112.1514,410.4913 1110.8315,408.8394 Q1109.5117,407.1876 1109.5117,404.0665 Q1109.5117,400.9371 1110.8315,399.2852 Q1112.1514,397.6334 1114.6582,397.6334 Q1115.3638,397.6334 1116.0112,397.7828 Q1116.6587,397.9322 1117.2231,398.231 L1117.2231,400.9537 Q1116.5923,400.3726 1115.9988,400.1028 Q1115.4053,399.8331 1114.7744,399.8331 Q1113.4297,399.8331 1112.7449,400.8997 Q1112.0601,401.9664 1112.0601,404.0665 Q1112.0601,406.1583 1112.7449,407.2249 Q1113.4297,408.2916 1114.7744,408.2916 Q1115.4053,408.2916 1115.9988,408.0218 Q1116.5923,407.752 1117.2231,407.171 Z " fill="#000000"/><text fill="#000000" font-family="sans-serif" font-size="12" font-style="italic" lengthAdjust="spacing" textLength="42" x="1137.75" y="400.0416">&#171;Kode&#187;</text><text fill="#000000" font-family="sans-serif" font-size="14" lengthAdjust="spacing" textLength="47" x="1135.25" y="416.108">Vedtak</text><line style="stroke:#181818;stroke-width:0.5;" x1="1051.5" x2="1233.5" y1="424.0611" y2="424.0611"/><ellipse cx="1061.5" cy="437.8052" fill="none" rx="3" ry="3" style="stroke:#038048;stroke-width:1.0;"/><text fill="#000000" font-family="sans-serif" font-size="14" lengthAdjust="spacing" textLength="116" x="1070.5" y="441.5963">kodeverdi: string</text><ellipse cx="1061.5" cy="454.2935" fill="none" rx="3" ry="3" style="stroke:#038048;stroke-width:1.0;"/><text fill="#000000" font-family="sans-serif" font-size="14" lengthAdjust="spacing" textLength="158" x="1070.5" y="458.0845">kodebeskrivelse: string</text><line style="stroke:#181818;stroke-width:0.5;" x1="1051.5" x2="1233.5" y1="465.0377" y2="465.0377"/></g><g id="elem_GMN19"><path d="M1189.5,136.81 L1189.5,223.3627 A0,0 0 0 0 1189.5,223.3627 L1226.16,223.3627 L1161.51,383.09 L1234.16,223.3627 L1307.5,223.3627 A0,0 0 0 0 1307.5,223.3627 L1307.5,146.81 L1297.5,136.81 L1189.5,136.81 A0,0 0 0 0 1189.5,136.81 " fill="#FEFFDD" style="stroke:#181818;stroke-width:0.5;"/><path d="M1297.5,136.81 L1297.5,146.81 L1307.5,146.81 L1297.5,136.81 " fill="#FEFFDD" style="stroke:#181818;stroke-width:0.5;"/><text fill="#000000" font-family="sans-serif" font-size="13" lengthAdjust="spacing" textLength="69" x="1195.5" y="154.3784">Eksempler:</text><text fill="#000000" font-family="sans-serif" font-size="13" lengthAdjust="spacing" textLength="56" x="1195.5" y="169.6889">godkjent</text><text fill="#000000" font-family="sans-serif" font-size="13" lengthAdjust="spacing" textLength="97" x="1195.5" y="184.9995">delvis godkjent</text><text fill="#000000" font-family="sans-serif" font-size="13" lengthAdjust="spacing" textLength="42" x="1195.5" y="200.31">avsl&#229;tt</text><text fill="#000000" font-family="sans-serif" font-size="13" lengthAdjust="spacing" textLength="37" x="1195.5" y="215.6205">avvist</text></g><!--class FaseStatusEnum--><g id="elem_FaseStatusEnum"><rect codeLine="47" fill="#F1F1F1" height="97.4648" id="FaseStatusEnum" rx="2.5" ry="2.5" style="stroke:#181818;stroke-width:0.5;" width="144" x="267.5" y="379.51"/><ellipse cx="282.5" cy="395.51" fill="#EB937F" rx="11" ry="11" style="stroke:#181818;stroke-width:1.0;"/><path d="M286.1143,402.01 L278.3945,402.01 L278.3945,389.6169 L286.1143,389.6169 L286.1143,391.7751 L280.8433,391.7751 L280.8433,394.448 L285.6162,394.448 L285.6162,396.6062 L280.8433,396.6062 L280.8433,399.8518 L286.1143,399.8518 Z " fill="#000000"/><text fill="#000000" font-family="sans-serif" font-size="14" lengthAdjust="spacing" textLength="112" x="296.5" y="400.801">FaseStatusEnum</text><line style="stroke:#181818;stroke-width:0.5;" x1="268.5" x2="410.5" y1="411.51" y2="411.51"/><ellipse cx="278.5" cy="425.2541" fill="none" rx="3" ry="3" style="stroke:#038048;stroke-width:1.0;"/><text fill="#000000" font-family="sans-serif" font-size="14" lengthAdjust="spacing" textLength="55" x="287.5" y="429.0452">Planlagt</text><ellipse cx="278.5" cy="441.7424" fill="none" rx="3" ry="3" style="stroke:#038048;stroke-width:1.0;"/><text fill="#000000" font-family="sans-serif" font-size="14" lengthAdjust="spacing" textLength="88" x="287.5" y="445.5334">UnderArbeid</text><ellipse cx="278.5" cy="458.2307" fill="none" rx="3" ry="3" style="stroke:#038048;stroke-width:1.0;"/><text fill="#000000" font-family="sans-serif" font-size="14" lengthAdjust="spacing" textLength="48" x="287.5" y="462.0217">Utfoert</text><line style="stroke:#181818;stroke-width:0.5;" x1="268.5" x2="410.5" y1="468.9748" y2="468.9748"/></g><!--class Milepel--><g id="elem_Milepel"><rect codeLine="57" fill="#F1F1F1" height="229.3711" id="Milepel" rx="2.5" ry="2.5" style="stroke:#181818;stroke-width:0.5;" width="218" x="446.5" y="313.55"/><ellipse cx="526.75" cy="329.55" fill="#ADD1B2" rx="11" ry="11" style="stroke:#181818;stroke-width:1.0;"/><path d="M529.2231,335.6931 Q528.6421,335.9919 528.0029,336.1413 Q527.3638,336.2907 526.6582,336.2907 Q524.1514,336.2907 522.8315,334.6389 Q521.5117,332.987 521.5117,329.8659 Q521.5117,326.7365 522.8315,325.0847 Q524.1514,323.4328 526.6582,323.4328 Q527.3638,323.4328 528.0112,323.5822 Q528.6587,323.7316 529.2231,324.0305 L529.2231,326.7531 Q528.5923,326.1721 527.9988,325.9023 Q527.4053,325.6325 526.7744,325.6325 Q525.4297,325.6325 524.7449,326.6992 Q524.0601,327.7658 524.0601,329.8659 Q524.0601,331.9577 524.7449,333.0244 Q525.4297,334.091 526.7744,334.091 Q527.4053,334.091 527.9988,333.8212 Q528.5923,333.5515 529.2231,332.9704 Z " fill="#000000"/><text fill="#000000" font-family="sans-serif" font-size="14" lengthAdjust="spacing" textLength="49" x="547.25" y="334.841">Milepel</text><line style="stroke:#181818;stroke-width:0.5;" x1="447.5" x2="663.5" y1="345.55" y2="345.55"/><ellipse cx="457.5" cy="359.2941" fill="none" rx="3" ry="3" style="stroke:#038048;stroke-width:1.0;"/><text fill="#000000" font-family="sans-serif" font-size="14" lengthAdjust="spacing" textLength="108" x="466.5" y="363.0852">systemId: string</text><ellipse cx="457.5" cy="375.7824" fill="none" rx="3" ry="3" style="stroke:#038048;stroke-width:1.0;"/><text fill="#000000" font-family="sans-serif" font-size="14" lengthAdjust="spacing" textLength="124" x="466.5" y="379.5734">beskrivelse: string</text><ellipse cx="457.5" cy="392.2707" fill="none" rx="3" ry="3" style="stroke:#038048;stroke-width:1.0;"/><text fill="#000000" font-family="sans-serif" font-size="14" lengthAdjust="spacing" textLength="143" x="466.5" y="396.0617">kategori: Milepeltype</text><ellipse cx="457.5" cy="408.759" fill="none" rx="3" ry="3" style="stroke:#038048;stroke-width:1.0;"/><text fill="#000000" font-family="sans-serif" font-size="14" lengthAdjust="spacing" textLength="65" x="466.5" y="412.55">frist: date</text><ellipse cx="457.5" cy="425.2473" fill="none" rx="3" ry="3" style="stroke:#038048;stroke-width:1.0;"/><text fill="#000000" font-family="sans-serif" font-size="14" lengthAdjust="spacing" textLength="85" x="466.5" y="429.0383">utfoert: date</text><ellipse cx="457.5" cy="441.7355" fill="none" rx="3" ry="3" style="stroke:#038048;stroke-width:1.0;"/><text fill="#000000" font-family="sans-serif" font-size="14" lengthAdjust="spacing" textLength="118" x="466.5" y="445.5266">journaldato: date</text><ellipse cx="457.5" cy="458.2238" fill="none" rx="3" ry="3" style="stroke:#038048;stroke-width:1.0;"/><text fill="#000000" font-family="sans-serif" font-size="14" lengthAdjust="spacing" textLength="192" x="466.5" y="462.0148">referanseJournalpost: string</text><ellipse cx="457.5" cy="474.7121" fill="none" rx="3" ry="3" style="stroke:#038048;stroke-width:1.0;"/><text fill="#000000" font-family="sans-serif" font-size="14" lengthAdjust="spacing" textLength="184" x="466.5" y="478.5031">referanseDokument: string</text><ellipse cx="457.5" cy="491.2004" fill="none" rx="3" ry="3" style="stroke:#038048;stroke-width:1.0;"/><text fill="#000000" font-family="sans-serif" font-size="14" lengthAdjust="spacing" textLength="110" x="466.5" y="494.9914">erStart: boolean</text><ellipse cx="457.5" cy="507.6887" fill="none" rx="3" ry="3" style="stroke:#038048;stroke-width:1.0;"/><text fill="#000000" font-family="sans-serif" font-size="14" lengthAdjust="spacing" textLength="109" x="466.5" y="511.4797">erSlutt: boolean</text><ellipse cx="457.5" cy="524.177" fill="none" rx="3" ry="3" style="stroke:#038048;stroke-width:1.0;"/><text fill="#000000" font-family="sans-serif" font-size="14" lengthAdjust="spacing" textLength="179" x="466.5" y="527.968">status: MilepelStatusEnum</text><line style="stroke:#181818;stroke-width:0.5;" x1="447.5" x2="663.5" y1="534.9211" y2="534.9211"/></g><g id="elem_GMN26"><path d="M136,641.2 L136,666.5105 L335,666.5105 L335,651.2 L325,641.2 L136,641.2 " fill="#FEFFDD" style="stroke:#181818;stroke-width:0.5;"/><path d="M325,641.2 L325,651.2 L335,651.2 L325,641.2 " fill="#FEFFDD" style="stroke:#181818;stroke-width:1.0;"/><text fill="#000000" font-family="sans-serif" font-size="13" lengthAdjust="spacing" textLength="178" x="142" y="658.7684">frist og utfoert ikke p&#229;krevd</text></g><!--class MilepelStatusEnum--><g id="elem_MilepelStatusEnum"><rect codeLine="81" fill="#F1F1F1" height="80.9766" id="MilepelStatusEnum" rx="2.5" ry="2.5" style="stroke:#181818;stroke-width:0.5;" width="162" x="370.5" y="613.37"/><ellipse cx="385.5" cy="629.37" fill="#EB937F" rx="11" ry="11" style="stroke:#181818;stroke-width:1.0;"/><path d="M389.1143,635.87 L381.3945,635.87 L381.3945,623.4769 L389.1143,623.4769 L389.1143,625.6351 L383.8433,625.6351 L383.8433,628.308 L388.6162,628.308 L388.6162,630.4662 L383.8433,630.4662 L383.8433,633.7118 L389.1143,633.7118 Z " fill="#000000"/><text fill="#000000" font-family="sans-serif" font-size="14" lengthAdjust="spacing" textLength="130" x="399.5" y="634.661">MilepelStatusEnum</text><line style="stroke:#181818;stroke-width:0.5;" x1="371.5" x2="531.5" y1="645.37" y2="645.37"/><ellipse cx="381.5" cy="659.1141" fill="none" rx="3" ry="3" style="stroke:#038048;stroke-width:1.0;"/><text fill="#000000" font-family="sans-serif" font-size="14" lengthAdjust="spacing" textLength="36" x="390.5" y="662.9052">N&#229;dd</text><ellipse cx="381.5" cy="675.6024" fill="none" rx="3" ry="3" style="stroke:#038048;stroke-width:1.0;"/><text fill="#000000" font-family="sans-serif" font-size="14" lengthAdjust="spacing" textLength="55" x="390.5" y="679.3934">Planlagt</text><line style="stroke:#181818;stroke-width:0.5;" x1="371.5" x2="531.5" y1="686.3466" y2="686.3466"/></g><!--class Milepeltype--><g id="elem_Milepeltype"><rect codeLine="76" fill="#F1F1F1" height="89.5977" id="Milepeltype" rx="2.5" ry="2.5" style="stroke:#181818;stroke-width:0.5;" width="184" x="567.5" y="609.06"/><ellipse cx="616.25" cy="629.3705" fill="#ADD1B2" rx="11" ry="11" style="stroke:#181818;stroke-width:1.0;"/><path d="M618.7231,635.5136 Q618.1421,635.8124 617.5029,635.9619 Q616.8638,636.1113 616.1582,636.1113 Q613.6514,636.1113 612.3315,634.4594 Q611.0117,632.8076 611.0117,629.6865 Q611.0117,626.5571 612.3315,624.9052 Q613.6514,623.2534 616.1582,623.2534 Q616.8638,623.2534 617.5112,623.4028 Q618.1587,623.5522 618.7231,623.851 L618.7231,626.5737 Q618.0923,625.9926 617.4988,625.7228 Q616.9053,625.4531 616.2744,625.4531 Q614.9297,625.4531 614.2449,626.5197 Q613.5601,627.5864 613.5601,629.6865 Q613.5601,631.7783 614.2449,632.8449 Q614.9297,633.9116 616.2744,633.9116 Q616.9053,633.9116 617.4988,633.6418 Q618.0923,633.372 618.7231,632.791 Z " fill="#000000"/><text fill="#000000" font-family="sans-serif" font-size="12" font-style="italic" lengthAdjust="spacing" textLength="42" x="654.75" y="625.6616">&#171;Kode&#187;</text><text fill="#000000" font-family="sans-serif" font-size="14" lengthAdjust="spacing" textLength="78" x="636.75" y="641.728">Milepeltype</text><line style="stroke:#181818;stroke-width:0.5;" x1="568.5" x2="750.5" y1="649.6811" y2="649.6811"/><ellipse cx="578.5" cy="663.4252" fill="none" rx="3" ry="3" style="stroke:#038048;stroke-width:1.0;"/><text fill="#000000" font-family="sans-serif" font-size="14" lengthAdjust="spacing" textLength="116" x="587.5" y="667.2163">kodeverdi: string</text><ellipse cx="578.5" cy="679.9135" fill="none" rx="3" ry="3" style="stroke:#038048;stroke-width:1.0;"/><text fill="#000000" font-family="sans-serif" font-size="14" lengthAdjust="spacing" textLength="158" x="587.5" y="683.7045">kodebeskrivelse: string</text><line style="stroke:#181818;stroke-width:0.5;" x1="568.5" x2="750.5" y1="690.6577" y2="690.6577"/></g><g id="elem_GMN33"><path d="M545,764.79 L545,836.0322 A0,0 0 0 0 545,836.0322 L774,836.0322 A0,0 0 0 0 774,836.0322 L774,774.79 L764,764.79 L663.5,764.79 L659.5,699.01 L655.5,764.79 L545,764.79 A0,0 0 0 0 545,764.79 " fill="#FEFFDD" style="stroke:#181818;stroke-width:0.5;"/><path d="M764,764.79 L764,774.79 L774,774.79 L764,764.79 " fill="#FEFFDD" style="stroke:#181818;stroke-width:0.5;"/><text fill="#000000" font-family="sans-serif" font-size="13" lengthAdjust="spacing" textLength="69" x="551" y="782.3584">Eksempler:</text><text fill="#000000" font-family="sans-serif" font-size="13" lengthAdjust="spacing" textLength="201" x="551" y="797.6689">Bestilling av oppstartsm&#248;te (BO)</text><text fill="#000000" font-family="sans-serif" font-size="13" lengthAdjust="spacing" textLength="208" x="551" y="812.9795">Gjennomf&#248;rt oppstartsm&#248;te (OM)</text><text fill="#000000" font-family="sans-serif" font-size="13" lengthAdjust="spacing" textLength="137" x="551" y="828.29">Mottak av planforslag</text></g><!--link SaksfaserHentResultat to Fase--><g id="link_SaksfaserHentResultat_Fase"><path codeLine="8" d="M326.45,180.09 C354.5,180.09 370.55,180.09 398.6,180.09 " fill="none" id="SaksfaserHentResultat-to-Fase" style="stroke:#181818;stroke-width:1.0;"/><polygon fill="#181818" points="410.6,180.09,404.6,176.09,398.6,180.09,404.6,184.09,410.6,180.09" style="stroke:#181818;stroke-width:1.0;"/></g><!--link SaksfaserHentResultat to Saksnummer--><g id="link_SaksfaserHentResultat_Saksnummer"><path codeLine="9" d="M197.33,237.56 C178.52,283.41 152.47,346.9 135.8,387.52 " fill="none" id="SaksfaserHentResultat-Saksnummer" style="stroke:#181818;stroke-width:1.0;"/></g><!--link Fase to Fasekategori--><g id="link_Fase_Fasekategori"><path codeLine="35" d="M598.1,249.2 C625.54,269.58 655.43,292.2 682.5,313.55 C710.89,335.95 741.87,361.74 767.08,383.09 " fill="none" id="Fase-Fasekategori" style="stroke:#181818;stroke-width:1.0;"/></g><!--link Fase to Vedtak--><g id="link_Fase_Vedtak"><path codeLine="36" d="M598.23,245.72 C603.96,248.58 609.74,251.23 615.5,253.55 C746.83,306.6 794.91,266.47 928.5,313.55 C978.69,331.24 1031.53,359.21 1072.15,382.98 " fill="none" id="Fase-Vedtak" style="stroke:#181818;stroke-width:1.0;"/></g><!--link Fase to FaseStatusEnum--><g id="link_Fase_FaseStatusEnum"><path codeLine="45" d="M455.66,253.94 C428.58,294.35 395.66,343.46 371.78,379.08 " fill="none" id="Fase-FaseStatusEnum" style="stroke:#181818;stroke-width:1.0;"/></g><!--link Fase to Milepel--><g id="link_Fase_Milepel"><path codeLine="53" d="M519.59,253.94 C523.47,272.66 527.74,293.24 531.93,313.48 " fill="none" id="Fase-Milepel" style="stroke:#181818;stroke-width:1.0;"/></g><!--link Milepel to GMN26--><g id="link_Milepel_GMN26"><path d="M446.03,530.49 C440.52,534.79 435,538.96 429.5,542.92 C372.51,584.02 298.82,622.1 260.75,640.79 " fill="none" id="Milepel-GMN26" style="stroke:#181818;stroke-width:1.0;stroke-dasharray:7.0,7.0;"/></g><!--link Milepel to MilepelStatusEnum--><g id="link_Milepel_MilepelStatusEnum"><path codeLine="71" d="M502.43,543.34 C490.77,568.43 479.17,593.36 470,613.09 " fill="none" id="Milepel-MilepelStatusEnum" style="stroke:#181818;stroke-width:1.0;"/></g><!--link Milepel to Milepeltype--><g id="link_Milepel_Milepeltype"><path codeLine="72" d="M608.57,543.34 C619.38,566.6 630.14,589.72 638.96,608.69 " fill="none" id="Milepel-Milepeltype" style="stroke:#181818;stroke-width:1.0;"/></g><!--SRC=[fLLBJkGm4Dtd5BM4GN20224DuZk8ZmR1PZ8BDwcaWnqxifr8274SvWpi-sBpx2JTwMvOWOJQgLSkLxrwPJyfuHpT2-aAuTXUiFQ_sRNA2q-l2U5lpm7KRLspJQDZlrvXllAULKhEsqgNAxlGhXDMLUKw5Cz9wGm_V_ucRqdo-U7xFwBBL-Z-D9L46y_aJKEcYBiefLDDOHknfOhcfkCSEL7EdfofQSuw1rApKlZoXkfASSEAxK6cBxLdgpdkj-I2gwDAIgRM4m8XYWRSMEEDD4gnFg37YcGB7Yn0MnWRNC-LcGb5XH9bUK19yXIvZlczhhZGejFR35NvkcsPNqhN_HBazLI3ZzRrXDx7zIbewJ4fF9V6LZqwVlKO2l52flGOVqCZ8eksAkT-v35D-rpYZhEuf9bj9VWGA9jf9zBY1DgWmMPEAx7iKg1XyHwuHbpWh2Kh7scD0K_27ZY0iR2rM_ope5XNaX9mJY6TAMbZ-dHuU6LoFZeQMPJuwjZcrJfbmJnZ9stLiK8j8pXMEZFUe_b3gSle43bJ-HmLSFnIbXnAcl5Sw5nXUvhUMUFOkN531g5PGJTtzvc62a911Vv59vMmVj1Ao4LLphFEzAbqN3UXbPc-WZOuqnUBZv0QD994UK3UQmqRZKElrlJUsuBY9t5Bayjdy9v1kwgh7AqCedDgyUxZ2eXV2dC8z7rsfoLC58ccjlM6SJpaJWaDAdp_zH26ywUTZShRU_25OUkdmOSfsEhbO4_Hb52SAJ69SNC_mStYNLhkyh7emNrvrxsWH_Nbnl1zLkV6V0rn_4l3mn27urFAuT4RXZIcfcVJMYqK36PgjbomnUt9ltgyCI7IzDobnucHBKPl0sOBXiDHCsCK2xsqAbnH6zRn-XWAcFGBP8_ihFYUuDjWhFwBXWHiJQIKwMF6uw72L65So3ID2scxUl6123l7jxkPFeTejQaB38ZVyhYzXiSrJe9i4Q21Y73dE0WfeVN-njE_h-oeu2qcndWtY_Sytz3psoYqrNCrVLU5014LxiTo-g9YyZlMoqTtm0d1_WC0]--></g></svg>