<svg xmlns="http://www.w3.org/2000/svg" xmlns:xlink="http://www.w3.org/1999/xlink" contentStyleType="text/css" height="947px" preserveAspectRatio="none" style="width:2400px;height:947px;background:#FFFFFF;" version="1.1" viewBox="0 0 2400 947" width="2400px" zoomAndPan="magnify"><defs/><g><!--class ReferanseDokumentfil--><g id="elem_ReferanseDokumentfil"><rect codeLine="40" fill="#F1F1F1" height="80.9766" id="ReferanseDokumentfil" rx="2.5" ry="2.5" style="stroke:#181818;stroke-width:0.5;" width="184" x="2008.5" y="677.12"/><ellipse cx="2023.5" cy="693.12" fill="#ADD1B2" rx="11" ry="11" style="stroke:#181818;stroke-width:1.0;"/><path d="M2025.9731,699.2631 Q2025.3921,699.5619 2024.7529,699.7113 Q2024.1138,699.8607 2023.4082,699.8607 Q2020.9014,699.8607 2019.5815,698.2089 Q2018.2617,696.557 2018.2617,693.4359 Q2018.2617,690.3065 2019.5815,688.6547 Q2020.9014,687.0028 2023.4082,687.0028 Q2024.1138,687.0028 2024.7612,687.1522 Q2025.4087,687.3016 2025.9731,687.6005 L2025.9731,690.3231 Q2025.3423,689.7421 2024.7488,689.4723 Q2024.1553,689.2025 2023.5244,689.2025 Q2022.1797,689.2025 2021.4949,690.2692 Q2020.8101,691.3358 2020.8101,693.4359 Q2020.8101,695.5277 2021.4949,696.5944 Q2022.1797,697.661 2023.5244,697.661 Q2024.1553,697.661 2024.7488,697.3912 Q2025.3423,697.1215 2025.9731,696.5404 Z " fill="#000000"/><text fill="#000000" font-family="sans-serif" font-size="14" lengthAdjust="spacing" textLength="152" x="2037.5" y="698.411">ReferanseDokumentfil</text><line style="stroke:#181818;stroke-width:0.5;" x1="2009.5" x2="2191.5" y1="709.12" y2="709.12"/><ellipse cx="2019.5" cy="722.8641" fill="none" rx="3" ry="3" style="stroke:#038048;stroke-width:1.0;"/><text fill="#000000" font-family="sans-serif" font-size="14" lengthAdjust="spacing" textLength="61" x="2028.5" y="726.6552">id: string</text><ellipse cx="2019.5" cy="739.3524" fill="none" rx="3" ry="3" style="stroke:#038048;stroke-width:1.0;"/><text fill="#000000" font-family="sans-serif" font-size="14" lengthAdjust="spacing" textLength="67" x="2028.5" y="743.1434">url: string</text><line style="stroke:#181818;stroke-width:0.5;" x1="2009.5" x2="2191.5" y1="750.0966" y2="750.0966"/></g><!--class Dokument--><g id="elem_Dokument"><rect codeLine="3" fill="#F1F1F1" height="179.9063" id="Dokument" rx="2.5" ry="2.5" style="stroke:#181818;stroke-width:0.5;" width="335" x="2058" y="106.62"/><ellipse cx="2185.75" cy="122.62" fill="#ADD1B2" rx="11" ry="11" style="stroke:#181818;stroke-width:1.0;"/><path d="M2188.2231,128.7631 Q2187.6421,129.0619 2187.0029,129.2113 Q2186.3638,129.3607 2185.6582,129.3607 Q2183.1514,129.3607 2181.8315,127.7089 Q2180.5117,126.057 2180.5117,122.9359 Q2180.5117,119.8065 2181.8315,118.1547 Q2183.1514,116.5028 2185.6582,116.5028 Q2186.3638,116.5028 2187.0112,116.6522 Q2187.6587,116.8016 2188.2231,117.1005 L2188.2231,119.8231 Q2187.5923,119.2421 2186.9988,118.9723 Q2186.4053,118.7025 2185.7744,118.7025 Q2184.4297,118.7025 2183.7449,119.7692 Q2183.0601,120.8358 2183.0601,122.9359 Q2183.0601,125.0277 2183.7449,126.0944 Q2184.4297,127.161 2185.7744,127.161 Q2186.4053,127.161 2186.9988,126.8912 Q2187.5923,126.6215 2188.2231,126.0404 Z " fill="#000000"/><text fill="#000000" font-family="sans-serif" font-size="14" lengthAdjust="spacing" textLength="71" x="2206.25" y="127.911">Dokument</text><line style="stroke:#181818;stroke-width:0.5;" x1="2059" x2="2392" y1="138.62" y2="138.62"/><ellipse cx="2069" cy="152.3641" fill="none" rx="3" ry="3" style="stroke:#038048;stroke-width:1.0;"/><text fill="#000000" font-family="sans-serif" font-size="14" lengthAdjust="spacing" textLength="61" x="2078" y="156.1552">id: string</text><ellipse cx="2069" cy="168.8524" fill="none" rx="3" ry="3" style="stroke:#038048;stroke-width:1.0;"/><text fill="#000000" font-family="sans-serif" font-size="14" lengthAdjust="spacing" textLength="79" x="2078" y="172.6434">tittel: string</text><ellipse cx="2069" cy="185.3407" fill="none" rx="3" ry="3" style="stroke:#038048;stroke-width:1.0;"/><text fill="#000000" font-family="sans-serif" font-size="14" lengthAdjust="spacing" textLength="94" x="2078" y="189.1317">filnavn: string</text><ellipse cx="2069" cy="201.829" fill="none" rx="3" ry="3" style="stroke:#038048;stroke-width:1.0;"/><text fill="#000000" font-family="sans-serif" font-size="14" lengthAdjust="spacing" textLength="207" x="2078" y="205.62">dokumenttype: Dokumenttype</text><ellipse cx="2069" cy="218.3173" fill="none" rx="3" ry="3" style="stroke:#038048;stroke-width:1.0;"/><text fill="#000000" font-family="sans-serif" font-size="14" lengthAdjust="spacing" textLength="309" x="2078" y="222.1083">referanseDokumentfil: ReferanseDokumentfil</text><ellipse cx="2069" cy="234.8055" fill="none" rx="3" ry="3" style="stroke:#038048;stroke-width:1.0;"/><text fill="#000000" font-family="sans-serif" font-size="14" lengthAdjust="spacing" textLength="115" x="2078" y="238.5966">mimetype: string</text><ellipse cx="2069" cy="251.2938" fill="none" rx="3" ry="3" style="stroke:#038048;stroke-width:1.0;"/><text fill="#000000" font-family="sans-serif" font-size="14" lengthAdjust="spacing" textLength="146" x="2078" y="255.0848">dokumentsdato: date</text><ellipse cx="2069" cy="267.7821" fill="none" rx="3" ry="3" style="stroke:#038048;stroke-width:1.0;"/><text fill="#000000" font-family="sans-serif" font-size="14" lengthAdjust="spacing" textLength="114" x="2078" y="271.5731">arkivnavn: string</text><line style="stroke:#181818;stroke-width:0.5;" x1="2059" x2="2392" y1="278.5263" y2="278.5263"/></g><g id="elem_GMN4"><path d="M2120,13.65 L2120,38.9605 A0,0 0 0 0 2120,38.9605 L2221.5,38.9605 L2225.5,106.19 L2229.5,38.9605 L2331,38.9605 A0,0 0 0 0 2331,38.9605 L2331,23.65 L2321,13.65 L2120,13.65 A0,0 0 0 0 2120,13.65 " fill="#FEFFDD" style="stroke:#181818;stroke-width:0.5;"/><path d="M2321,13.65 L2321,23.65 L2331,23.65 L2321,13.65 " fill="#FEFFDD" style="stroke:#181818;stroke-width:0.5;"/><text fill="#000000" font-family="sans-serif" font-size="13" lengthAdjust="spacing" textLength="190" x="2126" y="31.2184">Hentet definisjon fra Fiks Plan</text></g><!--class Dokumenttype--><g id="elem_Dokumenttype"><rect codeLine="19" fill="#F1F1F1" height="89.5977" id="Dokumenttype" rx="2.5" ry="2.5" style="stroke:#181818;stroke-width:0.5;" width="184" x="2153.5" y="424.66"/><ellipse cx="2191.9" cy="444.9705" fill="#ADD1B2" rx="11" ry="11" style="stroke:#181818;stroke-width:1.0;"/><path d="M2194.3731,451.1136 Q2193.7921,451.4124 2193.1529,451.5619 Q2192.5138,451.7113 2191.8082,451.7113 Q2189.3014,451.7113 2187.9815,450.0594 Q2186.6617,448.4076 2186.6617,445.2865 Q2186.6617,442.1571 2187.9815,440.5052 Q2189.3014,438.8534 2191.8082,438.8534 Q2192.5138,438.8534 2193.1612,439.0028 Q2193.8087,439.1522 2194.3731,439.451 L2194.3731,442.1737 Q2193.7423,441.5926 2193.1488,441.3228 Q2192.5553,441.0531 2191.9244,441.0531 Q2190.5797,441.0531 2189.8949,442.1197 Q2189.2101,443.1864 2189.2101,445.2865 Q2189.2101,447.3783 2189.8949,448.4449 Q2190.5797,449.5116 2191.9244,449.5116 Q2192.5553,449.5116 2193.1488,449.2418 Q2193.7423,448.972 2194.3731,448.391 Z " fill="#000000"/><text fill="#000000" font-family="sans-serif" font-size="12" font-style="italic" lengthAdjust="spacing" textLength="42" x="2240.1" y="441.2616">&#171;Kode&#187;</text><text fill="#000000" font-family="sans-serif" font-size="14" lengthAdjust="spacing" textLength="100" x="2211.1" y="457.328">Dokumenttype</text><line style="stroke:#181818;stroke-width:0.5;" x1="2154.5" x2="2336.5" y1="465.2811" y2="465.2811"/><ellipse cx="2164.5" cy="479.0252" fill="none" rx="3" ry="3" style="stroke:#038048;stroke-width:1.0;"/><text fill="#000000" font-family="sans-serif" font-size="14" lengthAdjust="spacing" textLength="116" x="2173.5" y="482.8162">kodeverdi: string</text><ellipse cx="2164.5" cy="495.5135" fill="none" rx="3" ry="3" style="stroke:#038048;stroke-width:1.0;"/><text fill="#000000" font-family="sans-serif" font-size="14" lengthAdjust="spacing" textLength="158" x="2173.5" y="499.3045">kodebeskrivelse: string</text><line style="stroke:#181818;stroke-width:0.5;" x1="2154.5" x2="2336.5" y1="506.2577" y2="506.2577"/></g><!--class Fase--><g id="elem_Fase"><rect codeLine="2" fill="#F1F1F1" height="163.418" id="Fase" rx="2.5" ry="2.5" style="stroke:#181818;stroke-width:0.5;" width="199" x="1268" y="114.86"/><ellipse cx="1347.75" cy="130.86" fill="#ADD1B2" rx="11" ry="11" style="stroke:#181818;stroke-width:1.0;"/><path d="M1350.2231,137.0031 Q1349.6421,137.3019 1349.0029,137.4513 Q1348.3638,137.6007 1347.6582,137.6007 Q1345.1514,137.6007 1343.8315,135.9489 Q1342.5117,134.297 1342.5117,131.1759 Q1342.5117,128.0465 1343.8315,126.3947 Q1345.1514,124.7428 1347.6582,124.7428 Q1348.3638,124.7428 1349.0112,124.8922 Q1349.6587,125.0416 1350.2231,125.3405 L1350.2231,128.0631 Q1349.5923,127.4821 1348.9988,127.2123 Q1348.4053,126.9425 1347.7744,126.9425 Q1346.4297,126.9425 1345.7449,128.0092 Q1345.0601,129.0758 1345.0601,131.1759 Q1345.0601,133.2677 1345.7449,134.3344 Q1346.4297,135.401 1347.7744,135.401 Q1348.4053,135.401 1348.9988,135.1312 Q1349.5923,134.8615 1350.2231,134.2804 Z " fill="#000000"/><text fill="#000000" font-family="sans-serif" font-size="14" lengthAdjust="spacing" textLength="31" x="1368.25" y="136.151">Fase</text><line style="stroke:#181818;stroke-width:0.5;" x1="1269" x2="1466" y1="146.86" y2="146.86"/><ellipse cx="1279" cy="160.6041" fill="none" rx="3" ry="3" style="stroke:#038048;stroke-width:1.0;"/><text fill="#000000" font-family="sans-serif" font-size="14" lengthAdjust="spacing" textLength="109" x="1288" y="164.3952">fasenavn: string</text><ellipse cx="1279" cy="177.0924" fill="none" rx="3" ry="3" style="stroke:#038048;stroke-width:1.0;"/><text fill="#000000" font-family="sans-serif" font-size="14" lengthAdjust="spacing" textLength="89" x="1288" y="180.8834">faseid: string</text><ellipse cx="1279" cy="193.5807" fill="none" rx="3" ry="3" style="stroke:#038048;stroke-width:1.0;"/><text fill="#000000" font-family="sans-serif" font-size="14" lengthAdjust="spacing" textLength="153" x="1288" y="197.3717">kategori: Fasekategori</text><ellipse cx="1279" cy="210.069" fill="none" rx="3" ry="3" style="stroke:#038048;stroke-width:1.0;"/><text fill="#000000" font-family="sans-serif" font-size="14" lengthAdjust="spacing" textLength="131" x="1288" y="213.86">milepeler: Milepel[]</text><ellipse cx="1279" cy="226.5573" fill="none" rx="3" ry="3" style="stroke:#038048;stroke-width:1.0;"/><text fill="#000000" font-family="sans-serif" font-size="14" lengthAdjust="spacing" textLength="161" x="1288" y="230.3483">status: FaseStatusEnum</text><ellipse cx="1279" cy="243.0455" fill="none" rx="3" ry="3" style="stroke:#038048;stroke-width:1.0;"/><text fill="#000000" font-family="sans-serif" font-size="14" lengthAdjust="spacing" textLength="100" x="1288" y="246.8366">vedtak: Vedtak</text><ellipse cx="1279" cy="259.5338" fill="none" rx="3" ry="3" style="stroke:#038048;stroke-width:1.0;"/><text fill="#000000" font-family="sans-serif" font-size="14" lengthAdjust="spacing" textLength="173" x="1288" y="263.3248">dokumenter: Dokument[]</text><line style="stroke:#181818;stroke-width:0.5;" x1="1269" x2="1466" y1="270.278" y2="270.278"/></g><g id="elem_GMN11"><path d="M1094.5,6 L1094.5,46.6211 A0,0 0 0 0 1094.5,46.6211 L1363.5,46.6211 L1367.5,114.64 L1371.5,46.6211 L1640.5,46.6211 A0,0 0 0 0 1640.5,46.6211 L1640.5,16 L1630.5,6 L1094.5,6 A0,0 0 0 0 1094.5,6 " fill="#FEFFDD" style="stroke:#181818;stroke-width:0.5;"/><path d="M1630.5,6 L1630.5,16 L1640.5,16 L1630.5,6 " fill="#FEFFDD" style="stroke:#181818;stroke-width:0.5;"/><text fill="#000000" font-family="sans-serif" font-size="13" lengthAdjust="spacing" textLength="369" x="1100.5" y="23.5684">En fase er i hovedsak det som hender mellom to milepeler.</text><text fill="#000000" font-family="sans-serif" font-size="13" lengthAdjust="spacing" textLength="525" x="1100.5" y="38.8789">Interne faser sendes ikke ut ved denne protokollen. Vi kutter derfor ut Global flagg.</text></g><path d="M1502,171.26 L1502,187.5705 L1377,175.5924 L1502,195.5705 L1502,211.8811 A0,0 0 0 0 1502,211.8811 L2023,211.8811 A0,0 0 0 0 2023,211.8811 L2023,181.26 L2013,171.26 L1502,171.26 A0,0 0 0 0 1502,171.26 " fill="#FEFFDD" style="stroke:#181818;stroke-width:0.5;"/><path d="M2013,171.26 L2013,181.26 L2023,181.26 L2013,171.26 " fill="#FEFFDD" style="stroke:#181818;stroke-width:0.5;"/><text fill="#000000" font-family="sans-serif" font-size="13" lengthAdjust="spacing" textLength="500" x="1508" y="188.8284">Faseid brukes alene (ikke sammen med saksnummer) for &#229; hente en enkelt fase</text><text fill="#000000" font-family="sans-serif" font-size="13" lengthAdjust="spacing" textLength="165" x="1508" y="204.1389">Den m&#229; dermed v&#230;re unik</text><!--class Vedtak--><g id="elem_Vedtak"><rect codeLine="31" fill="#F1F1F1" height="89.5977" id="Vedtak" rx="2.5" ry="2.5" style="stroke:#181818;stroke-width:0.5;" width="184" x="491.5" y="424.66"/><ellipse cx="555.75" cy="444.9705" fill="#ADD1B2" rx="11" ry="11" style="stroke:#181818;stroke-width:1.0;"/><path d="M558.2231,451.1136 Q557.6421,451.4124 557.0029,451.5619 Q556.3638,451.7113 555.6582,451.7113 Q553.1514,451.7113 551.8315,450.0594 Q550.5117,448.4076 550.5117,445.2865 Q550.5117,442.1571 551.8315,440.5052 Q553.1514,438.8534 555.6582,438.8534 Q556.3638,438.8534 557.0112,439.0028 Q557.6587,439.1522 558.2231,439.451 L558.2231,442.1737 Q557.5923,441.5926 556.9988,441.3228 Q556.4053,441.0531 555.7744,441.0531 Q554.4297,441.0531 553.7449,442.1197 Q553.0601,443.1864 553.0601,445.2865 Q553.0601,447.3783 553.7449,448.4449 Q554.4297,449.5116 555.7744,449.5116 Q556.4053,449.5116 556.9988,449.2418 Q557.5923,448.972 558.2231,448.391 Z " fill="#000000"/><text fill="#000000" font-family="sans-serif" font-size="12" font-style="italic" lengthAdjust="spacing" textLength="42" x="578.75" y="441.2616">&#171;Kode&#187;</text><text fill="#000000" font-family="sans-serif" font-size="14" lengthAdjust="spacing" textLength="47" x="576.25" y="457.328">Vedtak</text><line style="stroke:#181818;stroke-width:0.5;" x1="492.5" x2="674.5" y1="465.2811" y2="465.2811"/><ellipse cx="502.5" cy="479.0252" fill="none" rx="3" ry="3" style="stroke:#038048;stroke-width:1.0;"/><text fill="#000000" font-family="sans-serif" font-size="14" lengthAdjust="spacing" textLength="116" x="511.5" y="482.8162">kodeverdi: string</text><ellipse cx="502.5" cy="495.5135" fill="none" rx="3" ry="3" style="stroke:#038048;stroke-width:1.0;"/><text fill="#000000" font-family="sans-serif" font-size="14" lengthAdjust="spacing" textLength="158" x="511.5" y="499.3045">kodebeskrivelse: string</text><line style="stroke:#181818;stroke-width:0.5;" x1="492.5" x2="674.5" y1="506.2577" y2="506.2577"/></g><!--class FaseStatusEnum--><g id="elem_FaseStatusEnum"><rect codeLine="23" fill="#F1F1F1" height="97.4648" id="FaseStatusEnum" rx="2.5" ry="2.5" style="stroke:#181818;stroke-width:0.5;" width="144" x="1274.5" y="420.72"/><ellipse cx="1289.5" cy="436.72" fill="#EB937F" rx="11" ry="11" style="stroke:#181818;stroke-width:1.0;"/><path d="M1293.1143,443.22 L1285.3945,443.22 L1285.3945,430.8269 L1293.1143,430.8269 L1293.1143,432.9851 L1287.8433,432.9851 L1287.8433,435.658 L1292.6162,435.658 L1292.6162,437.8162 L1287.8433,437.8162 L1287.8433,441.0618 L1293.1143,441.0618 Z " fill="#000000"/><text fill="#000000" font-family="sans-serif" font-size="14" lengthAdjust="spacing" textLength="112" x="1303.5" y="442.011">FaseStatusEnum</text><line style="stroke:#181818;stroke-width:0.5;" x1="1275.5" x2="1417.5" y1="452.72" y2="452.72"/><ellipse cx="1285.5" cy="466.4641" fill="none" rx="3" ry="3" style="stroke:#038048;stroke-width:1.0;"/><text fill="#000000" font-family="sans-serif" font-size="14" lengthAdjust="spacing" textLength="55" x="1294.5" y="470.2552">Planlagt</text><ellipse cx="1285.5" cy="482.9524" fill="none" rx="3" ry="3" style="stroke:#038048;stroke-width:1.0;"/><text fill="#000000" font-family="sans-serif" font-size="14" lengthAdjust="spacing" textLength="88" x="1294.5" y="486.7434">UnderArbeid</text><ellipse cx="1285.5" cy="499.4407" fill="none" rx="3" ry="3" style="stroke:#038048;stroke-width:1.0;"/><text fill="#000000" font-family="sans-serif" font-size="14" lengthAdjust="spacing" textLength="48" x="1294.5" y="503.2317">Utfoert</text><line style="stroke:#181818;stroke-width:0.5;" x1="1275.5" x2="1417.5" y1="510.1848" y2="510.1848"/></g><!--class Fasekategori--><g id="elem_Fasekategori"><rect codeLine="36" fill="#F1F1F1" height="89.5977" id="Fasekategori" rx="2.5" ry="2.5" style="stroke:#181818;stroke-width:0.5;" width="184" x="1718.5" y="424.66"/><ellipse cx="1762.3" cy="444.9705" fill="#ADD1B2" rx="11" ry="11" style="stroke:#181818;stroke-width:1.0;"/><path d="M1764.7731,451.1136 Q1764.1921,451.4124 1763.5529,451.5619 Q1762.9138,451.7113 1762.2082,451.7113 Q1759.7014,451.7113 1758.3815,450.0594 Q1757.0617,448.4076 1757.0617,445.2865 Q1757.0617,442.1571 1758.3815,440.5052 Q1759.7014,438.8534 1762.2082,438.8534 Q1762.9138,438.8534 1763.5612,439.0028 Q1764.2087,439.1522 1764.7731,439.451 L1764.7731,442.1737 Q1764.1423,441.5926 1763.5488,441.3228 Q1762.9553,441.0531 1762.3244,441.0531 Q1760.9797,441.0531 1760.2949,442.1197 Q1759.6101,443.1864 1759.6101,445.2865 Q1759.6101,447.3783 1760.2949,448.4449 Q1760.9797,449.5116 1762.3244,449.5116 Q1762.9553,449.5116 1763.5488,449.2418 Q1764.1423,448.972 1764.7731,448.391 Z " fill="#000000"/><text fill="#000000" font-family="sans-serif" font-size="12" font-style="italic" lengthAdjust="spacing" textLength="42" x="1805.7" y="441.2616">&#171;Kode&#187;</text><text fill="#000000" font-family="sans-serif" font-size="14" lengthAdjust="spacing" textLength="88" x="1782.7" y="457.328">Fasekategori</text><line style="stroke:#181818;stroke-width:0.5;" x1="1719.5" x2="1901.5" y1="465.2811" y2="465.2811"/><ellipse cx="1729.5" cy="479.0252" fill="none" rx="3" ry="3" style="stroke:#038048;stroke-width:1.0;"/><text fill="#000000" font-family="sans-serif" font-size="14" lengthAdjust="spacing" textLength="116" x="1738.5" y="482.8162">kodeverdi: string</text><ellipse cx="1729.5" cy="495.5135" fill="none" rx="3" ry="3" style="stroke:#038048;stroke-width:1.0;"/><text fill="#000000" font-family="sans-serif" font-size="14" lengthAdjust="spacing" textLength="158" x="1738.5" y="499.3045">kodebeskrivelse: string</text><line style="stroke:#181818;stroke-width:0.5;" x1="1719.5" x2="1901.5" y1="506.2577" y2="506.2577"/></g><g id="elem_GMN22"><path d="M260.5,153.29 L260.5,239.8427 L378.5,239.8427 L378.5,163.29 L368.5,153.29 L260.5,153.29 " fill="#FEFFDD" style="stroke:#181818;stroke-width:0.5;"/><path d="M368.5,153.29 L368.5,163.29 L378.5,163.29 L368.5,153.29 " fill="#FEFFDD" style="stroke:#181818;stroke-width:1.0;"/><text fill="#000000" font-family="sans-serif" font-size="13" lengthAdjust="spacing" textLength="69" x="266.5" y="170.8584">Eksempler:</text><text fill="#000000" font-family="sans-serif" font-size="13" lengthAdjust="spacing" textLength="56" x="266.5" y="186.1689">godkjent</text><text fill="#000000" font-family="sans-serif" font-size="13" lengthAdjust="spacing" textLength="97" x="266.5" y="201.4795">delvis godkjent</text><text fill="#000000" font-family="sans-serif" font-size="13" lengthAdjust="spacing" textLength="42" x="266.5" y="216.79">avsl&#229;tt</text><text fill="#000000" font-family="sans-serif" font-size="13" lengthAdjust="spacing" textLength="37" x="266.5" y="232.1005">avvist</text></g><g id="elem_GMN25"><path d="M1647.5,666.67 L1647.5,768.5333 A0,0 0 0 0 1647.5,768.5333 L1973.5,768.5333 A0,0 0 0 0 1973.5,768.5333 L1973.5,676.67 L1963.5,666.67 L1814.5,666.67 L1810.5,514.75 L1806.5,666.67 L1647.5,666.67 A0,0 0 0 0 1647.5,666.67 " fill="#FEFFDD" style="stroke:#181818;stroke-width:0.5;"/><path d="M1963.5,666.67 L1963.5,676.67 L1973.5,676.67 L1963.5,666.67 " fill="#FEFFDD" style="stroke:#181818;stroke-width:0.5;"/><text fill="#000000" font-family="sans-serif" font-size="13" lengthAdjust="spacing" textLength="305" x="1653.5" y="684.2384">Se gjerne Byggesaksbehandling::Prosesskategori</text><text fill="#000000" font-family="sans-serif" font-size="13" lengthAdjust="spacing" textLength="45" x="1657.5" y="699.5489">fra NPS</text><text fill="#000000" font-family="sans-serif" font-size="13" lengthAdjust="spacing" textLength="210" x="1653.5" y="714.8595">Vi m&#229; f&#229; avklart denne kodelisten</text><text fill="#000000" font-family="sans-serif" font-size="13" lengthAdjust="spacing" textLength="69" x="1653.5" y="730.17">Eksempler:</text><text fill="#000000" font-family="sans-serif" font-size="13" lengthAdjust="spacing" textLength="34" x="1653.5" y="745.4805">Klage</text><text fill="#000000" font-family="sans-serif" font-size="13" lengthAdjust="spacing" textLength="43" x="1653.5" y="760.7911">H&#248;ring</text></g><!--class EksternNoekkel--><g id="elem_EksternNoekkel"><rect codeLine="2" fill="#F1F1F1" height="80.9766" id="EksternNoekkel" rx="2.5" ry="2.5" style="stroke:#181818;stroke-width:0.5;" width="143" x="906" y="851.07"/><ellipse cx="923.25" cy="867.07" fill="#ADD1B2" rx="11" ry="11" style="stroke:#181818;stroke-width:1.0;"/><path d="M925.7231,873.2131 Q925.1421,873.5119 924.5029,873.6613 Q923.8638,873.8107 923.1582,873.8107 Q920.6514,873.8107 919.3315,872.1589 Q918.0117,870.507 918.0117,867.3859 Q918.0117,864.2565 919.3315,862.6047 Q920.6514,860.9528 923.1582,860.9528 Q923.8638,860.9528 924.5112,861.1022 Q925.1587,861.2516 925.7231,861.5505 L925.7231,864.2731 Q925.0923,863.6921 924.4988,863.4223 Q923.9053,863.1525 923.2744,863.1525 Q921.9297,863.1525 921.2449,864.2192 Q920.5601,865.2858 920.5601,867.3859 Q920.5601,869.4777 921.2449,870.5444 Q921.9297,871.611 923.2744,871.611 Q923.9053,871.611 924.4988,871.3412 Q925.0923,871.0715 925.7231,870.4904 Z " fill="#000000"/><text fill="#000000" font-family="sans-serif" font-size="14" lengthAdjust="spacing" textLength="106" x="937.75" y="872.361">EksternNoekkel</text><line style="stroke:#181818;stroke-width:0.5;" x1="907" x2="1048" y1="883.07" y2="883.07"/><ellipse cx="917" cy="896.8141" fill="none" rx="3" ry="3" style="stroke:#038048;stroke-width:1.0;"/><text fill="#000000" font-family="sans-serif" font-size="14" lengthAdjust="spacing" textLength="117" x="926" y="900.6052">fagsystem: string</text><ellipse cx="917" cy="913.3024" fill="none" rx="3" ry="3" style="stroke:#038048;stroke-width:1.0;"/><text fill="#000000" font-family="sans-serif" font-size="14" lengthAdjust="spacing" textLength="102" x="926" y="917.0934">noekkel: string</text><line style="stroke:#181818;stroke-width:0.5;" x1="907" x2="1048" y1="924.0466" y2="924.0466"/></g><!--class Journalnummer--><g id="elem_Journalnummer"><rect codeLine="2" fill="#F1F1F1" height="80.9766" id="Journalnummer" rx="2.5" ry="2.5" style="stroke:#181818;stroke-width:0.5;" width="249" x="1084" y="851.07"/><ellipse cx="1150.75" cy="867.07" fill="#ADD1B2" rx="11" ry="11" style="stroke:#181818;stroke-width:1.0;"/><path d="M1153.2231,873.2131 Q1152.6421,873.5119 1152.0029,873.6613 Q1151.3638,873.8107 1150.6582,873.8107 Q1148.1514,873.8107 1146.8315,872.1589 Q1145.5117,870.507 1145.5117,867.3859 Q1145.5117,864.2565 1146.8315,862.6047 Q1148.1514,860.9528 1150.6582,860.9528 Q1151.3638,860.9528 1152.0112,861.1022 Q1152.6587,861.2516 1153.2231,861.5505 L1153.2231,864.2731 Q1152.5923,863.6921 1151.9988,863.4223 Q1151.4053,863.1525 1150.7744,863.1525 Q1149.4297,863.1525 1148.7449,864.2192 Q1148.0601,865.2858 1148.0601,867.3859 Q1148.0601,869.4777 1148.7449,870.5444 Q1149.4297,871.611 1150.7744,871.611 Q1151.4053,871.611 1151.9988,871.3412 Q1152.5923,871.0715 1153.2231,870.4904 Z " fill="#000000"/><text fill="#000000" font-family="sans-serif" font-size="14" lengthAdjust="spacing" textLength="107" x="1171.25" y="872.361">Journalnummer</text><line style="stroke:#181818;stroke-width:0.5;" x1="1085" x2="1332" y1="883.07" y2="883.07"/><ellipse cx="1095" cy="896.8141" fill="none" rx="3" ry="3" style="stroke:#038048;stroke-width:1.0;"/><text fill="#000000" font-family="sans-serif" font-size="14" lengthAdjust="spacing" textLength="169" x="1104" y="900.6052">journalnummer: number</text><ellipse cx="1095" cy="913.3024" fill="none" rx="3" ry="3" style="stroke:#038048;stroke-width:1.0;"/><text fill="#000000" font-family="sans-serif" font-size="14" lengthAdjust="spacing" textLength="223" x="1104" y="917.0934">journalsekvensnummer: number</text><line style="stroke:#181818;stroke-width:0.5;" x1="1085" x2="1332" y1="924.0466" y2="924.0466"/></g><!--class ReferanseJournalpost--><g id="elem_ReferanseJournalpost"><rect codeLine="2" fill="#F1F1F1" height="130.4414" id="ReferanseJournalpost" rx="2.5" ry="2.5" style="stroke:#181818;stroke-width:0.5;" width="369" x="1024" y="652.38"/><ellipse cx="1130.75" cy="668.38" fill="#ADD1B2" rx="11" ry="11" style="stroke:#181818;stroke-width:1.0;"/><path d="M1133.2231,674.5231 Q1132.6421,674.8219 1132.0029,674.9713 Q1131.3638,675.1207 1130.6582,675.1207 Q1128.1514,675.1207 1126.8315,673.4689 Q1125.5117,671.817 1125.5117,668.6959 Q1125.5117,665.5665 1126.8315,663.9147 Q1128.1514,662.2628 1130.6582,662.2628 Q1131.3638,662.2628 1132.0112,662.4122 Q1132.6587,662.5616 1133.2231,662.8605 L1133.2231,665.5831 Q1132.5923,665.0021 1131.9988,664.7323 Q1131.4053,664.4625 1130.7744,664.4625 Q1129.4297,664.4625 1128.7449,665.5292 Q1128.0601,666.5958 1128.0601,668.6959 Q1128.0601,670.7877 1128.7449,671.8544 Q1129.4297,672.921 1130.7744,672.921 Q1131.4053,672.921 1131.9988,672.6512 Q1132.5923,672.3815 1133.2231,671.8004 Z " fill="#000000"/><text fill="#000000" font-family="sans-serif" font-size="14" lengthAdjust="spacing" textLength="147" x="1151.25" y="673.671">ReferanseJournalpost</text><line style="stroke:#181818;stroke-width:0.5;" x1="1025" x2="1392" y1="684.38" y2="684.38"/><ellipse cx="1035" cy="698.1241" fill="none" rx="3" ry="3" style="stroke:#038048;stroke-width:1.0;"/><text fill="#000000" font-family="sans-serif" font-size="14" lengthAdjust="spacing" textLength="108" x="1044" y="701.9152">systemId: string</text><ellipse cx="1035" cy="714.6124" fill="none" rx="3" ry="3" style="stroke:#038048;stroke-width:1.0;"/><text fill="#000000" font-family="sans-serif" font-size="14" lengthAdjust="spacing" textLength="150" x="1044" y="718.4034">registreringsID: string</text><ellipse cx="1035" cy="731.1007" fill="none" rx="3" ry="3" style="stroke:#038048;stroke-width:1.0;"/><text fill="#000000" font-family="sans-serif" font-size="14" lengthAdjust="spacing" textLength="222" x="1044" y="734.8917">journalnummer: Journalnummer</text><ellipse cx="1035" cy="747.589" fill="none" rx="3" ry="3" style="stroke:#038048;stroke-width:1.0;"/><text fill="#000000" font-family="sans-serif" font-size="14" lengthAdjust="spacing" textLength="343" x="1044" y="751.38">saksJournalpostnummer: SaksJournalpostnummer</text><ellipse cx="1035" cy="764.0773" fill="none" rx="3" ry="3" style="stroke:#038048;stroke-width:1.0;"/><text fill="#000000" font-family="sans-serif" font-size="14" lengthAdjust="spacing" textLength="285" x="1044" y="767.8683">referanseEksternNoekkel: EksternNoekkel</text><line style="stroke:#181818;stroke-width:0.5;" x1="1025" x2="1392" y1="774.8214" y2="774.8214"/></g><!--class SaksJournalpostnummer--><g id="elem_SaksJournalpostnummer"><rect codeLine="2" fill="#F1F1F1" height="97.4648" id="SaksJournalpostnummer" rx="2.5" ry="2.5" style="stroke:#181818;stroke-width:0.5;" width="230" x="1367.5" y="842.83"/><ellipse cx="1396" cy="858.83" fill="#ADD1B2" rx="11" ry="11" style="stroke:#181818;stroke-width:1.0;"/><path d="M1398.4731,864.9731 Q1397.8921,865.2719 1397.2529,865.4213 Q1396.6138,865.5707 1395.9082,865.5707 Q1393.4014,865.5707 1392.0815,863.9189 Q1390.7617,862.267 1390.7617,859.1459 Q1390.7617,856.0165 1392.0815,854.3647 Q1393.4014,852.7128 1395.9082,852.7128 Q1396.6138,852.7128 1397.2612,852.8622 Q1397.9087,853.0116 1398.4731,853.3105 L1398.4731,856.0331 Q1397.8423,855.4521 1397.2488,855.1823 Q1396.6553,854.9125 1396.0244,854.9125 Q1394.6797,854.9125 1393.9949,855.9792 Q1393.3101,857.0458 1393.3101,859.1459 Q1393.3101,861.2377 1393.9949,862.3044 Q1394.6797,863.371 1396.0244,863.371 Q1396.6553,863.371 1397.2488,863.1012 Q1397.8423,862.8315 1398.4731,862.2504 Z " fill="#000000"/><text fill="#000000" font-family="sans-serif" font-size="14" lengthAdjust="spacing" textLength="168" x="1413" y="864.121">SaksJournalpostnummer</text><line style="stroke:#181818;stroke-width:0.5;" x1="1368.5" x2="1596.5" y1="874.83" y2="874.83"/><ellipse cx="1378.5" cy="888.5741" fill="none" rx="3" ry="3" style="stroke:#038048;stroke-width:1.0;"/><text fill="#000000" font-family="sans-serif" font-size="14" lengthAdjust="spacing" textLength="114" x="1387.5" y="892.3652">saksaar: number</text><ellipse cx="1378.5" cy="905.0624" fill="none" rx="3" ry="3" style="stroke:#038048;stroke-width:1.0;"/><text fill="#000000" font-family="sans-serif" font-size="14" lengthAdjust="spacing" textLength="204" x="1387.5" y="908.8534">sakssekvensnummer: number</text><ellipse cx="1378.5" cy="921.5507" fill="none" rx="3" ry="3" style="stroke:#038048;stroke-width:1.0;"/><text fill="#000000" font-family="sans-serif" font-size="14" lengthAdjust="spacing" textLength="199" x="1387.5" y="925.3417">journalpostnummer: number</text><line style="stroke:#181818;stroke-width:0.5;" x1="1368.5" x2="1596.5" y1="932.2948" y2="932.2948"/></g><!--class Milepel--><g id="elem_Milepel"><rect codeLine="8" fill="#F1F1F1" height="245.8594" id="Milepel" rx="2.5" ry="2.5" style="stroke:#181818;stroke-width:0.5;" width="325" x="914" y="346.52"/><ellipse cx="1047.75" cy="362.52" fill="#ADD1B2" rx="11" ry="11" style="stroke:#181818;stroke-width:1.0;"/><path d="M1050.2231,368.6631 Q1049.6421,368.9619 1049.0029,369.1113 Q1048.3638,369.2607 1047.6582,369.2607 Q1045.1514,369.2607 1043.8315,367.6089 Q1042.5117,365.957 1042.5117,362.8359 Q1042.5117,359.7065 1043.8315,358.0547 Q1045.1514,356.4028 1047.6582,356.4028 Q1048.3638,356.4028 1049.0112,356.5522 Q1049.6587,356.7016 1050.2231,357.0005 L1050.2231,359.7231 Q1049.5923,359.1421 1048.9988,358.8723 Q1048.4053,358.6025 1047.7744,358.6025 Q1046.4297,358.6025 1045.7449,359.6692 Q1045.0601,360.7358 1045.0601,362.8359 Q1045.0601,364.9277 1045.7449,365.9944 Q1046.4297,367.061 1047.7744,367.061 Q1048.4053,367.061 1048.9988,366.7912 Q1049.5923,366.5215 1050.2231,365.9404 Z " fill="#000000"/><text fill="#000000" font-family="sans-serif" font-size="14" lengthAdjust="spacing" textLength="49" x="1068.25" y="367.811">Milepel</text><line style="stroke:#181818;stroke-width:0.5;" x1="915" x2="1238" y1="378.52" y2="378.52"/><ellipse cx="925" cy="392.2641" fill="none" rx="3" ry="3" style="stroke:#038048;stroke-width:1.0;"/><text fill="#000000" font-family="sans-serif" font-size="14" lengthAdjust="spacing" textLength="108" x="934" y="396.0552">systemId: string</text><ellipse cx="925" cy="408.7524" fill="none" rx="3" ry="3" style="stroke:#038048;stroke-width:1.0;"/><text fill="#000000" font-family="sans-serif" font-size="14" lengthAdjust="spacing" textLength="124" x="934" y="412.5434">beskrivelse: string</text><ellipse cx="925" cy="425.2407" fill="none" rx="3" ry="3" style="stroke:#038048;stroke-width:1.0;"/><text fill="#000000" font-family="sans-serif" font-size="14" lengthAdjust="spacing" textLength="143" x="934" y="429.0317">kategori: Milepeltype</text><ellipse cx="925" cy="441.729" fill="none" rx="3" ry="3" style="stroke:#038048;stroke-width:1.0;"/><text fill="#000000" font-family="sans-serif" font-size="14" lengthAdjust="spacing" textLength="65" x="934" y="445.52">frist: date</text><ellipse cx="925" cy="458.2173" fill="none" rx="3" ry="3" style="stroke:#038048;stroke-width:1.0;"/><text fill="#000000" font-family="sans-serif" font-size="14" lengthAdjust="spacing" textLength="85" x="934" y="462.0083">utfoert: date</text><ellipse cx="925" cy="474.7055" fill="none" rx="3" ry="3" style="stroke:#038048;stroke-width:1.0;"/><text fill="#000000" font-family="sans-serif" font-size="14" lengthAdjust="spacing" textLength="142" x="934" y="478.4966">planlagtUtfoert: date</text><ellipse cx="925" cy="491.1938" fill="none" rx="3" ry="3" style="stroke:#038048;stroke-width:1.0;"/><text fill="#000000" font-family="sans-serif" font-size="14" lengthAdjust="spacing" textLength="105" x="934" y="494.9848">intern: boolean</text><ellipse cx="925" cy="507.6821" fill="none" rx="3" ry="3" style="stroke:#038048;stroke-width:1.0;"/><text fill="#000000" font-family="sans-serif" font-size="14" lengthAdjust="spacing" textLength="299" x="934" y="511.4731">referanseJournalpost: ReferanseJournalpost</text><ellipse cx="925" cy="524.1704" fill="none" rx="3" ry="3" style="stroke:#038048;stroke-width:1.0;"/><text fill="#000000" font-family="sans-serif" font-size="14" lengthAdjust="spacing" textLength="296" x="934" y="527.9614">referanseDokument: ReferanseDokumentfil</text><ellipse cx="925" cy="540.6587" fill="none" rx="3" ry="3" style="stroke:#038048;stroke-width:1.0;"/><text fill="#000000" font-family="sans-serif" font-size="14" lengthAdjust="spacing" textLength="110" x="934" y="544.4497">erStart: boolean</text><ellipse cx="925" cy="557.147" fill="none" rx="3" ry="3" style="stroke:#038048;stroke-width:1.0;"/><text fill="#000000" font-family="sans-serif" font-size="14" lengthAdjust="spacing" textLength="109" x="934" y="560.938">erSlutt: boolean</text><ellipse cx="925" cy="573.6352" fill="none" rx="3" ry="3" style="stroke:#038048;stroke-width:1.0;"/><text fill="#000000" font-family="sans-serif" font-size="14" lengthAdjust="spacing" textLength="179" x="934" y="577.4263">status: MilepelStatusEnum</text><line style="stroke:#181818;stroke-width:0.5;" x1="915" x2="1238" y1="584.3794" y2="584.3794"/></g><g id="elem_GMN33"><path d="M788.5,176.26 L788.5,216.8811 A0,0 0 0 0 788.5,216.8811 L1011.25,216.8811 L1046.69,346.09 L1019.25,216.8811 L1232.5,216.8811 A0,0 0 0 0 1232.5,216.8811 L1232.5,186.26 L1222.5,176.26 L788.5,176.26 A0,0 0 0 0 788.5,176.26 " fill="#FEFFDD" style="stroke:#181818;stroke-width:0.5;"/><path d="M1222.5,176.26 L1222.5,186.26 L1232.5,186.26 L1222.5,176.26 " fill="#FEFFDD" style="stroke:#181818;stroke-width:0.5;"/><text fill="#000000" font-family="sans-serif" font-size="13" lengthAdjust="spacing" textLength="331" x="794.5" y="193.8284">planlagtUtfoert er hvis man har laget en milepel plan</text><text fill="#000000" font-family="sans-serif" font-size="13" lengthAdjust="spacing" textLength="423" x="794.5" y="209.1389">s&#229; kan man sette denne datoen for n&#229;r det er planlagt &#229; v&#230;re ferdig</text></g><!--class Milepeltype--><g id="elem_Milepeltype"><rect codeLine="32" fill="#F1F1F1" height="80.9766" id="Milepeltype" rx="2.5" ry="2.5" style="stroke:#181818;stroke-width:0.5;" width="184" x="1428.5" y="677.12"/><ellipse cx="1477.25" cy="693.12" fill="#ADD1B2" rx="11" ry="11" style="stroke:#181818;stroke-width:1.0;"/><path d="M1479.7231,699.2631 Q1479.1421,699.5619 1478.5029,699.7113 Q1477.8638,699.8607 1477.1582,699.8607 Q1474.6514,699.8607 1473.3315,698.2089 Q1472.0117,696.557 1472.0117,693.4359 Q1472.0117,690.3065 1473.3315,688.6547 Q1474.6514,687.0028 1477.1582,687.0028 Q1477.8638,687.0028 1478.5112,687.1522 Q1479.1587,687.3016 1479.7231,687.6005 L1479.7231,690.3231 Q1479.0923,689.7421 1478.4988,689.4723 Q1477.9053,689.2025 1477.2744,689.2025 Q1475.9297,689.2025 1475.2449,690.2692 Q1474.5601,691.3358 1474.5601,693.4359 Q1474.5601,695.5277 1475.2449,696.5944 Q1475.9297,697.661 1477.2744,697.661 Q1477.9053,697.661 1478.4988,697.3912 Q1479.0923,697.1215 1479.7231,696.5404 Z " fill="#000000"/><text fill="#000000" font-family="sans-serif" font-size="14" lengthAdjust="spacing" textLength="78" x="1497.75" y="698.411">Milepeltype</text><line style="stroke:#181818;stroke-width:0.5;" x1="1429.5" x2="1611.5" y1="709.12" y2="709.12"/><ellipse cx="1439.5" cy="722.8641" fill="none" rx="3" ry="3" style="stroke:#038048;stroke-width:1.0;"/><text fill="#000000" font-family="sans-serif" font-size="14" lengthAdjust="spacing" textLength="116" x="1448.5" y="726.6552">kodeverdi: string</text><ellipse cx="1439.5" cy="739.3524" fill="none" rx="3" ry="3" style="stroke:#038048;stroke-width:1.0;"/><text fill="#000000" font-family="sans-serif" font-size="14" lengthAdjust="spacing" textLength="158" x="1448.5" y="743.1434">kodebeskrivelse: string</text><line style="stroke:#181818;stroke-width:0.5;" x1="1429.5" x2="1611.5" y1="750.0966" y2="750.0966"/></g><g id="elem_GMN38"><path d="M1454,433.83 L1454,505.0722 A0,0 0 0 0 1454,505.0722 L1557.67,505.0722 L1528.26,676.83 L1565.67,505.0722 L1683,505.0722 A0,0 0 0 0 1683,505.0722 L1683,443.83 L1673,433.83 L1454,433.83 A0,0 0 0 0 1454,433.83 " fill="#FEFFDD" style="stroke:#181818;stroke-width:0.5;"/><path d="M1673,433.83 L1673,443.83 L1683,443.83 L1673,433.83 " fill="#FEFFDD" style="stroke:#181818;stroke-width:0.5;"/><text fill="#000000" font-family="sans-serif" font-size="13" lengthAdjust="spacing" textLength="69" x="1460" y="451.3984">Eksempler:</text><text fill="#000000" font-family="sans-serif" font-size="13" lengthAdjust="spacing" textLength="201" x="1460" y="466.7089">Bestilling av oppstartsm&#248;te (BO)</text><text fill="#000000" font-family="sans-serif" font-size="13" lengthAdjust="spacing" textLength="208" x="1460" y="482.0195">Gjennomf&#248;rt oppstartsm&#248;te (OM)</text><text fill="#000000" font-family="sans-serif" font-size="13" lengthAdjust="spacing" textLength="137" x="1460" y="497.33">Mottak av planforslag</text></g><g id="elem_GMN41"><path d="M592,704.95 L592,730.2605 A0,0 0 0 0 592,730.2605 L791,730.2605 A0,0 0 0 0 791,730.2605 L791,714.95 L781,704.95 L714.26,704.95 L913.5,574.67 L706.26,704.95 L592,704.95 A0,0 0 0 0 592,704.95 " fill="#FEFFDD" style="stroke:#181818;stroke-width:0.5;"/><path d="M781,704.95 L781,714.95 L791,714.95 L781,704.95 " fill="#FEFFDD" style="stroke:#181818;stroke-width:0.5;"/><text fill="#000000" font-family="sans-serif" font-size="13" lengthAdjust="spacing" textLength="178" x="598" y="722.5184">frist og utfoert ikke p&#229;krevd</text></g><!--class MilepelStatusEnum--><g id="elem_MilepelStatusEnum"><rect codeLine="48" fill="#F1F1F1" height="80.9766" id="MilepelStatusEnum" rx="2.5" ry="2.5" style="stroke:#181818;stroke-width:0.5;" width="162" x="826.5" y="677.12"/><ellipse cx="841.5" cy="693.12" fill="#EB937F" rx="11" ry="11" style="stroke:#181818;stroke-width:1.0;"/><path d="M845.1143,699.62 L837.3945,699.62 L837.3945,687.2269 L845.1143,687.2269 L845.1143,689.3851 L839.8433,689.3851 L839.8433,692.058 L844.6162,692.058 L844.6162,694.2162 L839.8433,694.2162 L839.8433,697.4618 L845.1143,697.4618 Z " fill="#000000"/><text fill="#000000" font-family="sans-serif" font-size="14" lengthAdjust="spacing" textLength="130" x="855.5" y="698.411">MilepelStatusEnum</text><line style="stroke:#181818;stroke-width:0.5;" x1="827.5" x2="987.5" y1="709.12" y2="709.12"/><ellipse cx="837.5" cy="722.8641" fill="none" rx="3" ry="3" style="stroke:#038048;stroke-width:1.0;"/><text fill="#000000" font-family="sans-serif" font-size="14" lengthAdjust="spacing" textLength="36" x="846.5" y="726.6552">N&#229;dd</text><ellipse cx="837.5" cy="739.3524" fill="none" rx="3" ry="3" style="stroke:#038048;stroke-width:1.0;"/><text fill="#000000" font-family="sans-serif" font-size="14" lengthAdjust="spacing" textLength="55" x="846.5" y="743.1434">Planlagt</text><line style="stroke:#181818;stroke-width:0.5;" x1="827.5" x2="987.5" y1="750.0966" y2="750.0966"/></g><!--class Saksnummer--><g id="elem_Saksnummer"><rect codeLine="2" fill="#F1F1F1" height="80.9766" id="Saksnummer" rx="2.5" ry="2.5" style="stroke:#181818;stroke-width:0.5;" width="225" x="7" y="428.97"/><ellipse cx="70.75" cy="444.97" fill="#ADD1B2" rx="11" ry="11" style="stroke:#181818;stroke-width:1.0;"/><path d="M73.2231,451.1131 Q72.6421,451.4119 72.0029,451.5613 Q71.3638,451.7107 70.6582,451.7107 Q68.1514,451.7107 66.8315,450.0589 Q65.5117,448.407 65.5117,445.2859 Q65.5117,442.1565 66.8315,440.5047 Q68.1514,438.8528 70.6582,438.8528 Q71.3638,438.8528 72.0112,439.0022 Q72.6587,439.1516 73.2231,439.4505 L73.2231,442.1731 Q72.5923,441.5921 71.9988,441.3223 Q71.4053,441.0525 70.7744,441.0525 Q69.4297,441.0525 68.7449,442.1192 Q68.0601,443.1858 68.0601,445.2859 Q68.0601,447.3777 68.7449,448.4444 Q69.4297,449.511 70.7744,449.511 Q71.4053,449.511 71.9988,449.2412 Q72.5923,448.9715 73.2231,448.3904 Z " fill="#000000"/><text fill="#000000" font-family="sans-serif" font-size="14" lengthAdjust="spacing" textLength="89" x="91.25" y="450.261">Saksnummer</text><line style="stroke:#181818;stroke-width:0.5;" x1="8" x2="231" y1="460.97" y2="460.97"/><ellipse cx="18" cy="474.7141" fill="none" rx="3" ry="3" style="stroke:#038048;stroke-width:1.0;"/><text fill="#000000" font-family="sans-serif" font-size="14" lengthAdjust="spacing" textLength="109" x="27" y="478.5052">saksaar: integer</text><ellipse cx="18" cy="491.2024" fill="none" rx="3" ry="3" style="stroke:#038048;stroke-width:1.0;"/><text fill="#000000" font-family="sans-serif" font-size="14" lengthAdjust="spacing" textLength="199" x="27" y="494.9934">sakssekvensnummer: integer</text><line style="stroke:#181818;stroke-width:0.5;" x1="8" x2="231" y1="501.9466" y2="501.9466"/></g><!--class SaksfaserHentResultat--><g id="elem_SaksfaserHentResultat"><rect codeLine="6" fill="#F1F1F1" height="113.9531" id="SaksfaserHentResultat" rx="2.5" ry="2.5" style="stroke:#181818;stroke-width:0.5;" width="211" x="14" y="139.59"/><ellipse cx="41.15" cy="155.59" fill="#ADD1B2" rx="11" ry="11" style="stroke:#181818;stroke-width:1.0;"/><path d="M43.6231,161.7331 Q43.0421,162.0319 42.4029,162.1813 Q41.7638,162.3307 41.0582,162.3307 Q38.5514,162.3307 37.2315,160.6789 Q35.9117,159.027 35.9117,155.9059 Q35.9117,152.7765 37.2315,151.1247 Q38.5514,149.4728 41.0582,149.4728 Q41.7638,149.4728 42.4112,149.6222 Q43.0587,149.7716 43.6231,150.0705 L43.6231,152.7931 Q42.9923,152.2121 42.3988,151.9423 Q41.8053,151.6725 41.1744,151.6725 Q39.8297,151.6725 39.1449,152.7392 Q38.4601,153.8058 38.4601,155.9059 Q38.4601,157.9977 39.1449,159.0644 Q39.8297,160.131 41.1744,160.131 Q41.8053,160.131 42.3988,159.8612 Q42.9923,159.5915 43.6231,159.0104 Z " fill="#000000"/><text fill="#000000" font-family="sans-serif" font-size="14" lengthAdjust="spacing" textLength="152" x="57.85" y="160.881">SaksfaserHentResultat</text><line style="stroke:#181818;stroke-width:0.5;" x1="15" x2="224" y1="171.59" y2="171.59"/><ellipse cx="25" cy="185.3341" fill="none" rx="3" ry="3" style="stroke:#038048;stroke-width:1.0;"/><text fill="#000000" font-family="sans-serif" font-size="14" lengthAdjust="spacing" textLength="185" x="34" y="189.1252">saksnummer: Saksnummer</text><ellipse cx="25" cy="201.8224" fill="none" rx="3" ry="3" style="stroke:#038048;stroke-width:1.0;"/><text fill="#000000" font-family="sans-serif" font-size="14" lengthAdjust="spacing" textLength="109" x="34" y="205.6134">sakstittel: string</text><ellipse cx="25" cy="218.3107" fill="none" rx="3" ry="3" style="stroke:#038048;stroke-width:1.0;"/><text fill="#000000" font-family="sans-serif" font-size="14" lengthAdjust="spacing" textLength="140" x="34" y="222.1017">saksansvarlig: string</text><ellipse cx="25" cy="234.799" fill="none" rx="3" ry="3" style="stroke:#038048;stroke-width:1.0;"/><text fill="#000000" font-family="sans-serif" font-size="14" lengthAdjust="spacing" textLength="83" x="34" y="238.59">faser: Fase[]</text><line style="stroke:#181818;stroke-width:0.5;" x1="15" x2="224" y1="245.5431" y2="245.5431"/></g><path d="M413.5,171.26 L413.5,187.5705 L117,233.299 L413.5,195.5705 L413.5,211.8811 A0,0 0 0 0 413.5,211.8811 L753.5,211.8811 A0,0 0 0 0 753.5,211.8811 L753.5,181.26 L743.5,171.26 L413.5,171.26 A0,0 0 0 0 413.5,171.26 " fill="#FEFFDD" style="stroke:#181818;stroke-width:0.5;"/><path d="M743.5,171.26 L743.5,181.26 L753.5,181.26 L743.5,171.26 " fill="#FEFFDD" style="stroke:#181818;stroke-width:0.5;"/><text fill="#000000" font-family="sans-serif" font-size="13" lengthAdjust="spacing" textLength="319" x="419.5" y="188.8284">Rekkef&#248;lgen av Fase objekter i faser er signifikant.</text><text fill="#000000" font-family="sans-serif" font-size="13" lengthAdjust="spacing" textLength="217" x="419.5" y="204.1389">Det er den rekkef&#248;lgen fasene har.</text><!--link Dokument to Dokumenttype--><g id="link_Dokument_Dokumenttype"><path codeLine="16" d="M2232.1,287.02 C2235.51,333.1 2239.5,387.23 2242.24,424.3 " fill="none" id="Dokument-Dokumenttype" style="stroke:#181818;stroke-width:1.0;"/></g><!--link Dokument to ReferanseDokumentfil--><g id="link_Dokument_ReferanseDokumentfil"><path codeLine="17" d="M2162.74,287 C2152,305.91 2142.18,326.3 2135.5,346.52 C2097.41,461.89 2096.41,607.7 2098.55,676.8 " fill="none" id="Dokument-ReferanseDokumentfil" style="stroke:#181818;stroke-width:1.0;"/></g><!--link Fase to Vedtak--><g id="link_Fase_Vedtak"><path codeLine="19" d="M1267.58,278.14 C1261.95,281.21 1256.24,284.04 1250.5,286.52 C1104.08,349.98 1050.31,304.01 896.5,346.52 C820.48,367.54 737.42,400.38 675.98,426.69 " fill="none" id="Fase-Vedtak" style="stroke:#181818;stroke-width:1.0;"/></g><!--link Fase to FaseStatusEnum--><g id="link_Fase_FaseStatusEnum"><path codeLine="20" d="M1361.23,278.48 C1357.64,324.78 1353.26,381.29 1350.21,420.58 " fill="none" id="Fase-FaseStatusEnum" style="stroke:#181818;stroke-width:1.0;"/></g><!--link Fase to Fasekategori--><g id="link_Fase_Fasekategori"><path codeLine="21" d="M1467.41,277.22 C1473.07,280.56 1478.79,283.69 1484.5,286.52 C1573.76,330.8 1615.76,294.12 1700.5,346.52 C1732.51,366.32 1760.75,398.12 1780.61,424.28 " fill="none" id="Fase-Fasekategori" style="stroke:#181818;stroke-width:1.0;"/></g><!--link GMN22 to Vedtak--><g id="link_GMN22_Vedtak"><path d="M355.2,240.31 C367.96,255.18 382.62,271.82 396.5,286.52 C442.35,335.12 497.44,388.11 535.91,424.3 " fill="none" id="GMN22-Vedtak" style="stroke:#181818;stroke-width:1.0;stroke-dasharray:7.0,7.0;"/></g><!--link Milepel to Milepeltype--><g id="link_Milepel_Milepeltype"><path codeLine="25" d="M1239.28,582.44 C1245.38,585.89 1251.46,589.21 1257.5,592.38 C1322.18,626.32 1344.76,620.54 1410.5,652.38 C1425.53,659.66 1441.26,668.23 1455.97,676.7 " fill="none" id="Milepel-Milepeltype" style="stroke:#181818;stroke-width:1.0;"/></g><!--link Milepel to ReferanseJournalpost--><g id="link_Milepel_ReferanseJournalpost"><path codeLine="37" d="M1142.11,592.81 C1153.11,613.32 1164.13,633.86 1173.93,652.14 " fill="none" id="Milepel-ReferanseJournalpost" style="stroke:#181818;stroke-width:1.0;"/></g><!--link Milepel to ReferanseDokumentfil--><g id="link_Milepel_ReferanseDokumentfil"><path codeLine="38" d="M1239.32,585.27 C1245.35,587.87 1251.42,590.25 1257.5,592.38 C1566.38,700.67 1679.49,553.47 1991.5,652.38 C2009.4,658.06 2027.5,667.11 2043.68,676.64 " fill="none" id="Milepel-ReferanseDokumentfil" style="stroke:#181818;stroke-width:1.0;"/></g><!--link Milepel to MilepelStatusEnum--><g id="link_Milepel_MilepelStatusEnum"><path codeLine="43" d="M992.5,592.81 C971.62,623.21 950.7,653.68 934.84,676.78 " fill="none" id="Milepel-MilepelStatusEnum" style="stroke:#181818;stroke-width:1.0;"/></g><!--link ReferanseJournalpost to EksternNoekkel--><g id="link_ReferanseJournalpost_EksternNoekkel"><path codeLine="44" d="M1121.83,783.12 C1091.36,805.8 1058.03,830.61 1031.08,850.67 " fill="none" id="ReferanseJournalpost-EksternNoekkel" style="stroke:#181818;stroke-width:1.0;"/></g><!--link ReferanseJournalpost to SaksJournalpostnummer--><g id="link_ReferanseJournalpost_SaksJournalpostnummer"><path codeLine="45" d="M1311.31,783.12 C1342.59,802.75 1376.41,823.98 1405.67,842.34 " fill="none" id="ReferanseJournalpost-SaksJournalpostnummer" style="stroke:#181818;stroke-width:1.0;"/></g><!--link ReferanseJournalpost to Journalnummer--><g id="link_ReferanseJournalpost_Journalnummer"><path codeLine="46" d="M1208.5,783.12 C1208.5,805.8 1208.5,830.61 1208.5,850.67 " fill="none" id="ReferanseJournalpost-Journalnummer" style="stroke:#181818;stroke-width:1.0;"/></g><!--link SaksfaserHentResultat to Fase--><g id="link_SaksfaserHentResultat_Fase"><path codeLine="18" d="M168.92,139.1 C193.53,114.88 225.39,89.38 260,76.62 C361.43,39.21 1131.98,38.11 1233,76.62 C1255.22,85.09 1266.9314,91.3581 1285.3114,106.8781 " fill="none" id="SaksfaserHentResultat-to-Fase" style="stroke:#181818;stroke-width:1.0;"/><polygon fill="#181818" points="1294.48,114.62,1292.4763,107.6929,1285.3114,106.8781,1287.3151,113.8052,1294.48,114.62" style="stroke:#181818;stroke-width:1.0;"/></g><!--link SaksfaserHentResultat to Saksnummer--><g id="link_SaksfaserHentResultat_Saksnummer"><path codeLine="19" d="M119.5,254.03 C119.5,306.28 119.5,382.64 119.5,428.74 " fill="none" id="SaksfaserHentResultat-Saksnummer" style="stroke:#181818;stroke-width:1.0;"/></g><!--link Fase to Milepel--><g id="link_Fase_Milepel"><path codeLine="27" d="M1280.58,278.48 C1257.72,299.76 1232.55,323.19 1207.91,346.12 " fill="none" id="Fase-Milepel" style="stroke:#181818;stroke-width:1.0;"/></g><!--link Fase to Dokument--><g id="link_Fase_Dokument"><path codeLine="28" d="M1440.52,114.62 C1458.9,99.1 1479.78,85.09 1502,76.62 C1610.19,35.38 1911.34,46.03 2023,76.62 C2047.63,83.37 2061.6704,88.4012 2084.9004,100.5712 " fill="none" id="Fase-to-Dokument" style="stroke:#181818;stroke-width:1.0;"/><polygon fill="#181818" points="2095.53,106.14,2092.0714,99.8124,2084.9004,100.5712,2088.3589,106.8988,2095.53,106.14" style="stroke:#181818;stroke-width:1.0;"/></g><!--SRC=[fLAxJWCn4Epz5PiEWkA8zkeeeg499Q9mulN5sBSN-N4DudFW6-ZpOzYRGnT4A13MoMVlxipEh3opjFDP8yYbb4lgfOlIsB95vQ9H4OCSRgL1xp5AtRlS8QNbpgiOjLLjK9qyP37x2qkz_u-XinuFwFz7KcEKkmx33nx10NZuGjqLpnkCsIULu4L0MJSJlE72qtdA9PiI-WPY2fRQAQue3YfustvFSPy6rkNt-2HUXQ0-8NWq2NfpMKdJS8Zn6tGEpV73jqYW1kQ1VlkCBc402rm9vOks9LjceYX9HgumrRWkk71EKX64i5T12YGDLOyGbqUoc7F3txABym6Dpe9jzsoj0azEh6P1Qpx2DcI74PIlAgviKGPH5GQ23ZLCqxy6qmSuli6-z4GeUII7Fh61qM71b0ADeKA7utj0o6GTd1dZWHMbzwUdDTxdi1gVlFW4]--></g></svg>