<svg xmlns="http://www.w3.org/2000/svg" xmlns:xlink="http://www.w3.org/1999/xlink" contentStyleType="text/css" height="202px" preserveAspectRatio="none" style="width:296px;height:202px;background:#FFFFFF;" version="1.1" viewBox="0 0 296 202" width="296px" zoomAndPan="magnify"><defs/><g><!--class SaksfaserHentResultat--><g id="elem_SaksfaserHentResultat"><rect codeLine="1" fill="#F1F1F1" height="80.9766" id="SaksfaserHentResultat" rx="2.5" ry="2.5" style="stroke:#181818;stroke-width:0.5;" width="184" x="7" y="7"/><ellipse cx="22" cy="23" fill="#ADD1B2" rx="11" ry="11" style="stroke:#181818;stroke-width:1.0;"/><path d="M24.4731,29.1431 Q23.8921,29.4419 23.2529,29.5913 Q22.6138,29.7407 21.9082,29.7407 Q19.4014,29.7407 18.0815,28.0889 Q16.7617,26.437 16.7617,23.3159 Q16.7617,20.1865 18.0815,18.5347 Q19.4014,16.8828 21.9082,16.8828 Q22.6138,16.8828 23.2612,17.0322 Q23.9087,17.1816 24.4731,17.4805 L24.4731,20.2031 Q23.8423,19.6221 23.2488,19.3523 Q22.6553,19.0825 22.0244,19.0825 Q20.6797,19.0825 19.9949,20.1492 Q19.3101,21.2158 19.3101,23.3159 Q19.3101,25.4077 19.9949,26.4744 Q20.6797,27.541 22.0244,27.541 Q22.6553,27.541 23.2488,27.2712 Q23.8423,27.0015 24.4731,26.4204 Z " fill="#000000"/><text fill="#000000" font-family="sans-serif" font-size="14" lengthAdjust="spacing" textLength="152" x="36" y="28.291">SaksfaserHentResultat</text><line style="stroke:#181818;stroke-width:0.5;" x1="8" x2="190" y1="39" y2="39"/><ellipse cx="18" cy="52.7441" fill="none" rx="3" ry="3" style="stroke:#038048;stroke-width:1.0;"/><text fill="#000000" font-family="sans-serif" font-size="14" lengthAdjust="spacing" textLength="137" x="27" y="56.5352">byggesak: Byggesak</text><ellipse cx="18" cy="69.2324" fill="none" rx="3" ry="3" style="stroke:#038048;stroke-width:1.0;"/><text fill="#000000" font-family="sans-serif" font-size="14" lengthAdjust="spacing" textLength="83" x="27" y="73.0234">faser: Fase[]</text><line style="stroke:#181818;stroke-width:0.5;" x1="8" x2="190" y1="79.9766" y2="79.9766"/></g><!--class Byggesak--><g id="elem_Byggesak"><rect fill="#F1F1F1" height="48" id="Byggesak" rx="2.5" ry="2.5" style="stroke:#181818;stroke-width:0.5;" width="96" x="51" y="147.98"/><ellipse cx="66" cy="163.98" fill="#ADD1B2" rx="11" ry="11" style="stroke:#181818;stroke-width:1.0;"/><path d="M68.4731,170.1231 Q67.8921,170.4219 67.2529,170.5713 Q66.6138,170.7207 65.9082,170.7207 Q63.4014,170.7207 62.0815,169.0689 Q60.7617,167.417 60.7617,164.2959 Q60.7617,161.1665 62.0815,159.5147 Q63.4014,157.8628 65.9082,157.8628 Q66.6138,157.8628 67.2612,158.0122 Q67.9087,158.1616 68.4731,158.4605 L68.4731,161.1831 Q67.8423,160.6021 67.2488,160.3323 Q66.6553,160.0625 66.0244,160.0625 Q64.6797,160.0625 63.9949,161.1292 Q63.3101,162.1958 63.3101,164.2959 Q63.3101,166.3877 63.9949,167.4544 Q64.6797,168.521 66.0244,168.521 Q66.6553,168.521 67.2488,168.2512 Q67.8423,167.9815 68.4731,167.4004 Z " fill="#000000"/><text fill="#000000" font-family="sans-serif" font-size="14" lengthAdjust="spacing" textLength="64" x="80" y="169.271">Byggesak</text><line style="stroke:#181818;stroke-width:0.5;" x1="52" x2="146" y1="179.98" y2="179.98"/><line style="stroke:#181818;stroke-width:0.5;" x1="52" x2="146" y1="187.98" y2="187.98"/></g><!--class Fase--><g id="elem_Fase"><rect fill="#F1F1F1" height="48" id="Fase" rx="2.5" ry="2.5" style="stroke:#181818;stroke-width:0.5;" width="63" x="226.5" y="23.49"/><ellipse cx="241.5" cy="39.49" fill="#ADD1B2" rx="11" ry="11" style="stroke:#181818;stroke-width:1.0;"/><path d="M243.9731,45.6331 Q243.3921,45.9319 242.7529,46.0813 Q242.1138,46.2307 241.4082,46.2307 Q238.9014,46.2307 237.5815,44.5789 Q236.2617,42.927 236.2617,39.8059 Q236.2617,36.6765 237.5815,35.0247 Q238.9014,33.3728 241.4082,33.3728 Q242.1138,33.3728 242.7612,33.5222 Q243.4087,33.6716 243.9731,33.9705 L243.9731,36.6931 Q243.3423,36.1121 242.7488,35.8423 Q242.1553,35.5725 241.5244,35.5725 Q240.1797,35.5725 239.4949,36.6392 Q238.8101,37.7058 238.8101,39.8059 Q238.8101,41.8977 239.4949,42.9644 Q240.1797,44.031 241.5244,44.031 Q242.1553,44.031 242.7488,43.7612 Q243.3423,43.4915 243.9731,42.9104 Z " fill="#000000"/><text fill="#000000" font-family="sans-serif" font-size="14" lengthAdjust="spacing" textLength="31" x="255.5" y="44.781">Fase</text><line style="stroke:#181818;stroke-width:0.5;" x1="227.5" x2="288.5" y1="55.49" y2="55.49"/><line style="stroke:#181818;stroke-width:0.5;" x1="227.5" x2="288.5" y1="63.49" y2="63.49"/></g><!--link SaksfaserHentResultat to Byggesak--><g id="link_SaksfaserHentResultat_Byggesak"><path codeLine="6" d="M99,88.26 C99,107.96 99,131.05 99,147.83 " fill="none" id="SaksfaserHentResultat-Byggesak" style="stroke:#181818;stroke-width:1.0;"/></g><!--link SaksfaserHentResultat to Fase--><g id="link_SaksfaserHentResultat_Fase"><path codeLine="7" d="M191.23,47.49 C202.88,47.49 202.53,47.49 214.18,47.49 " fill="none" id="SaksfaserHentResultat-to-Fase" style="stroke:#181818;stroke-width:1.0;"/><polygon fill="#181818" points="226.18,47.49,220.18,43.49,214.18,47.49,220.18,51.49,226.18,47.49" style="stroke:#181818;stroke-width:1.0;"/></g><!--SRC=[Iyv9B2vM24xCBavBB4ujyaZDAmbABIxDAKaiKQZcKW02xQJAzFJKuiHiAmKdA0iY3jPWfU06fA9ZkMgvkB2RegkBq8T3XHRO42u0]--></g></svg>