<svg xmlns="http://www.w3.org/2000/svg" xmlns:xlink="http://www.w3.org/1999/xlink" contentStyleType="text/css" height="908px" preserveAspectRatio="none" style="width:1322px;height:908px;background:#FFFFFF;" version="1.1" viewBox="0 0 1322 908" width="1322px" zoomAndPan="magnify"><defs/><g><!--class SaksfaserHentResultat--><g id="elem_SaksfaserHentResultat"><rect codeLine="1" fill="#F1F1F1" height="113.9531" id="SaksfaserHentResultat" rx="2.5" ry="2.5" style="stroke:#181818;stroke-width:0.5;" width="211" x="112" y="131.35"/><ellipse cx="139.15" cy="147.35" fill="#ADD1B2" rx="11" ry="11" style="stroke:#181818;stroke-width:1.0;"/><path d="M141.6231,153.4931 Q141.0421,153.7919 140.4029,153.9413 Q139.7638,154.0907 139.0582,154.0907 Q136.5514,154.0907 135.2315,152.4389 Q133.9117,150.787 133.9117,147.6659 Q133.9117,144.5365 135.2315,142.8847 Q136.5514,141.2328 139.0582,141.2328 Q139.7638,141.2328 140.4112,141.3822 Q141.0587,141.5316 141.6231,141.8305 L141.6231,144.5531 Q140.9923,143.9721 140.3988,143.7023 Q139.8053,143.4325 139.1744,143.4325 Q137.8297,143.4325 137.1449,144.4992 Q136.4601,145.5658 136.4601,147.6659 Q136.4601,149.7577 137.1449,150.8244 Q137.8297,151.891 139.1744,151.891 Q139.8053,151.891 140.3988,151.6212 Q140.9923,151.3515 141.6231,150.7704 Z " fill="#000000"/><text fill="#000000" font-family="sans-serif" font-size="14" lengthAdjust="spacing" textLength="152" x="155.85" y="152.641">SaksfaserHentResultat</text><line style="stroke:#181818;stroke-width:0.5;" x1="113" x2="322" y1="163.35" y2="163.35"/><ellipse cx="123" cy="177.0941" fill="none" rx="3" ry="3" style="stroke:#038048;stroke-width:1.0;"/><text fill="#000000" font-family="sans-serif" font-size="14" lengthAdjust="spacing" textLength="185" x="132" y="180.8852">saksnummer: Saksnummer</text><ellipse cx="123" cy="193.5824" fill="none" rx="3" ry="3" style="stroke:#038048;stroke-width:1.0;"/><text fill="#000000" font-family="sans-serif" font-size="14" lengthAdjust="spacing" textLength="109" x="132" y="197.3734">sakstittel: string</text><ellipse cx="123" cy="210.0707" fill="none" rx="3" ry="3" style="stroke:#038048;stroke-width:1.0;"/><text fill="#000000" font-family="sans-serif" font-size="14" lengthAdjust="spacing" textLength="140" x="132" y="213.8617">saksansvarlig: string</text><ellipse cx="123" cy="226.559" fill="none" rx="3" ry="3" style="stroke:#038048;stroke-width:1.0;"/><text fill="#000000" font-family="sans-serif" font-size="14" lengthAdjust="spacing" textLength="83" x="132" y="230.35">faser: Fase[]</text><line style="stroke:#181818;stroke-width:0.5;" x1="113" x2="322" y1="237.3031" y2="237.3031"/></g><!--class Fase--><g id="elem_Fase"><rect codeLine="13" fill="#F1F1F1" height="163.418" id="Fase" rx="2.5" ry="2.5" style="stroke:#181818;stroke-width:0.5;" width="199" x="407" y="106.62"/><ellipse cx="486.75" cy="122.62" fill="#ADD1B2" rx="11" ry="11" style="stroke:#181818;stroke-width:1.0;"/><path d="M489.2231,128.7631 Q488.6421,129.0619 488.0029,129.2113 Q487.3638,129.3607 486.6582,129.3607 Q484.1514,129.3607 482.8315,127.7089 Q481.5117,126.057 481.5117,122.9359 Q481.5117,119.8065 482.8315,118.1547 Q484.1514,116.5028 486.6582,116.5028 Q487.3638,116.5028 488.0112,116.6522 Q488.6587,116.8016 489.2231,117.1005 L489.2231,119.8231 Q488.5923,119.2421 487.9988,118.9723 Q487.4053,118.7025 486.7744,118.7025 Q485.4297,118.7025 484.7449,119.7692 Q484.0601,120.8358 484.0601,122.9359 Q484.0601,125.0277 484.7449,126.0944 Q485.4297,127.161 486.7744,127.161 Q487.4053,127.161 487.9988,126.8912 Q488.5923,126.6215 489.2231,126.0404 Z " fill="#000000"/><text fill="#000000" font-family="sans-serif" font-size="14" lengthAdjust="spacing" textLength="31" x="507.25" y="127.911">Fase</text><line style="stroke:#181818;stroke-width:0.5;" x1="408" x2="605" y1="138.62" y2="138.62"/><ellipse cx="418" cy="152.3641" fill="none" rx="3" ry="3" style="stroke:#038048;stroke-width:1.0;"/><text fill="#000000" font-family="sans-serif" font-size="14" lengthAdjust="spacing" textLength="109" x="427" y="156.1552">fasenavn: string</text><ellipse cx="418" cy="168.8524" fill="none" rx="3" ry="3" style="stroke:#038048;stroke-width:1.0;"/><text fill="#000000" font-family="sans-serif" font-size="14" lengthAdjust="spacing" textLength="89" x="427" y="172.6434">faseid: string</text><ellipse cx="418" cy="185.3407" fill="none" rx="3" ry="3" style="stroke:#038048;stroke-width:1.0;"/><text fill="#000000" font-family="sans-serif" font-size="14" lengthAdjust="spacing" textLength="153" x="427" y="189.1317">kategori: Fasekategori</text><ellipse cx="418" cy="201.829" fill="none" rx="3" ry="3" style="stroke:#038048;stroke-width:1.0;"/><text fill="#000000" font-family="sans-serif" font-size="14" lengthAdjust="spacing" textLength="131" x="427" y="205.62">milepeler: Milepel[]</text><ellipse cx="418" cy="218.3173" fill="none" rx="3" ry="3" style="stroke:#038048;stroke-width:1.0;"/><text fill="#000000" font-family="sans-serif" font-size="14" lengthAdjust="spacing" textLength="161" x="427" y="222.1083">status: FaseStatusEnum</text><ellipse cx="418" cy="234.8055" fill="none" rx="3" ry="3" style="stroke:#038048;stroke-width:1.0;"/><text fill="#000000" font-family="sans-serif" font-size="14" lengthAdjust="spacing" textLength="100" x="427" y="238.5966">vedtak: Vedtak</text><ellipse cx="418" cy="251.2938" fill="none" rx="3" ry="3" style="stroke:#038048;stroke-width:1.0;"/><text fill="#000000" font-family="sans-serif" font-size="14" lengthAdjust="spacing" textLength="173" x="427" y="255.0848">dokumenter: Dokument[]</text><line style="stroke:#181818;stroke-width:0.5;" x1="408" x2="605" y1="262.038" y2="262.038"/></g><!--class Saksnummer--><g id="elem_Saksnummer"><rect codeLine="90" fill="#F1F1F1" height="80.9766" id="Saksnummer" rx="2.5" ry="2.5" style="stroke:#181818;stroke-width:0.5;" width="225" x="7" y="428.97"/><ellipse cx="70.75" cy="444.97" fill="#ADD1B2" rx="11" ry="11" style="stroke:#181818;stroke-width:1.0;"/><path d="M73.2231,451.1131 Q72.6421,451.4119 72.0029,451.5613 Q71.3638,451.7107 70.6582,451.7107 Q68.1514,451.7107 66.8315,450.0589 Q65.5117,448.407 65.5117,445.2859 Q65.5117,442.1565 66.8315,440.5047 Q68.1514,438.8528 70.6582,438.8528 Q71.3638,438.8528 72.0112,439.0022 Q72.6587,439.1516 73.2231,439.4505 L73.2231,442.1731 Q72.5923,441.5921 71.9988,441.3223 Q71.4053,441.0525 70.7744,441.0525 Q69.4297,441.0525 68.7449,442.1192 Q68.0601,443.1858 68.0601,445.2859 Q68.0601,447.3777 68.7449,448.4444 Q69.4297,449.511 70.7744,449.511 Q71.4053,449.511 71.9988,449.2412 Q72.5923,448.9715 73.2231,448.3904 Z " fill="#000000"/><text fill="#000000" font-family="sans-serif" font-size="14" lengthAdjust="spacing" textLength="89" x="91.25" y="450.261">Saksnummer</text><line style="stroke:#181818;stroke-width:0.5;" x1="8" x2="231" y1="460.97" y2="460.97"/><ellipse cx="18" cy="474.7141" fill="none" rx="3" ry="3" style="stroke:#038048;stroke-width:1.0;"/><text fill="#000000" font-family="sans-serif" font-size="14" lengthAdjust="spacing" textLength="109" x="27" y="478.5052">saksaar: integer</text><ellipse cx="18" cy="491.2024" fill="none" rx="3" ry="3" style="stroke:#038048;stroke-width:1.0;"/><text fill="#000000" font-family="sans-serif" font-size="14" lengthAdjust="spacing" textLength="199" x="27" y="494.9934">sakssekvensnummer: integer</text><line style="stroke:#181818;stroke-width:0.5;" x1="8" x2="231" y1="501.9466" y2="501.9466"/></g><g id="elem_GMN7"><path d="M233.5,6 L233.5,46.6211 A0,0 0 0 0 233.5,46.6211 L502.5,46.6211 L506.5,106.47 L510.5,46.6211 L779.5,46.6211 A0,0 0 0 0 779.5,46.6211 L779.5,16 L769.5,6 L233.5,6 A0,0 0 0 0 233.5,6 " fill="#FEFFDD" style="stroke:#181818;stroke-width:0.5;"/><path d="M769.5,6 L769.5,16 L779.5,16 L769.5,6 " fill="#FEFFDD" style="stroke:#181818;stroke-width:0.5;"/><text fill="#000000" font-family="sans-serif" font-size="13" lengthAdjust="spacing" textLength="369" x="239.5" y="23.5684">En fase er i hovedsak det som hender mellom to milepeler.</text><text fill="#000000" font-family="sans-serif" font-size="13" lengthAdjust="spacing" textLength="525" x="239.5" y="38.8789">Interne faser sendes ikke ut ved denne protokollen. Vi kutter derfor ut Global flagg.</text></g><path d="M641,163.02 L641,179.3305 L516,167.3524 L641,187.3305 L641,203.6411 A0,0 0 0 0 641,203.6411 L1162,203.6411 A0,0 0 0 0 1162,203.6411 L1162,173.02 L1152,163.02 L641,163.02 A0,0 0 0 0 641,163.02 " fill="#FEFFDD" style="stroke:#181818;stroke-width:0.5;"/><path d="M1152,163.02 L1152,173.02 L1162,173.02 L1152,163.02 " fill="#FEFFDD" style="stroke:#181818;stroke-width:0.5;"/><text fill="#000000" font-family="sans-serif" font-size="13" lengthAdjust="spacing" textLength="500" x="647" y="180.5884">Faseid brukes alene (ikke sammen med saksnummer) for &#229; hente en enkelt fase</text><text fill="#000000" font-family="sans-serif" font-size="13" lengthAdjust="spacing" textLength="165" x="647" y="195.8989">Den m&#229; dermed v&#230;re unik</text><!--class Fasekategori--><g id="elem_Fasekategori"><rect codeLine="28" fill="#F1F1F1" height="89.5977" id="Fasekategori" rx="2.5" ry="2.5" style="stroke:#181818;stroke-width:0.5;" width="184" x="726.5" y="424.66"/><ellipse cx="770.3" cy="444.9705" fill="#ADD1B2" rx="11" ry="11" style="stroke:#181818;stroke-width:1.0;"/><path d="M772.7731,451.1136 Q772.1921,451.4124 771.5529,451.5619 Q770.9138,451.7113 770.2082,451.7113 Q767.7014,451.7113 766.3815,450.0594 Q765.0617,448.4076 765.0617,445.2865 Q765.0617,442.1571 766.3815,440.5052 Q767.7014,438.8534 770.2082,438.8534 Q770.9138,438.8534 771.5612,439.0028 Q772.2087,439.1522 772.7731,439.451 L772.7731,442.1737 Q772.1423,441.5926 771.5488,441.3228 Q770.9553,441.0531 770.3244,441.0531 Q768.9797,441.0531 768.2949,442.1197 Q767.6101,443.1864 767.6101,445.2865 Q767.6101,447.3783 768.2949,448.4449 Q768.9797,449.5116 770.3244,449.5116 Q770.9553,449.5116 771.5488,449.2418 Q772.1423,448.972 772.7731,448.391 Z " fill="#000000"/><text fill="#000000" font-family="sans-serif" font-size="12" font-style="italic" lengthAdjust="spacing" textLength="42" x="813.7" y="441.2616">&#171;Kode&#187;</text><text fill="#000000" font-family="sans-serif" font-size="14" lengthAdjust="spacing" textLength="88" x="790.7" y="457.328">Fasekategori</text><line style="stroke:#181818;stroke-width:0.5;" x1="727.5" x2="909.5" y1="465.2811" y2="465.2811"/><ellipse cx="737.5" cy="479.0252" fill="none" rx="3" ry="3" style="stroke:#038048;stroke-width:1.0;"/><text fill="#000000" font-family="sans-serif" font-size="14" lengthAdjust="spacing" textLength="116" x="746.5" y="482.8163">kodeverdi: string</text><ellipse cx="737.5" cy="495.5135" fill="none" rx="3" ry="3" style="stroke:#038048;stroke-width:1.0;"/><text fill="#000000" font-family="sans-serif" font-size="14" lengthAdjust="spacing" textLength="158" x="746.5" y="499.3045">kodebeskrivelse: string</text><line style="stroke:#181818;stroke-width:0.5;" x1="727.5" x2="909.5" y1="506.2577" y2="506.2577"/></g><g id="elem_GMN13"><path d="M786.5,668.87 L786.5,770.7333 A0,0 0 0 0 786.5,770.7333 L1112.5,770.7333 A0,0 0 0 0 1112.5,770.7333 L1112.5,678.87 L1102.5,668.87 L927.07,668.87 L841.77,514.57 L919.07,668.87 L786.5,668.87 A0,0 0 0 0 786.5,668.87 " fill="#FEFFDD" style="stroke:#181818;stroke-width:0.5;"/><path d="M1102.5,668.87 L1102.5,678.87 L1112.5,678.87 L1102.5,668.87 " fill="#FEFFDD" style="stroke:#181818;stroke-width:0.5;"/><text fill="#000000" font-family="sans-serif" font-size="13" lengthAdjust="spacing" textLength="305" x="792.5" y="686.4384">Se gjerne Byggesaksbehandling::Prosesskategori</text><text fill="#000000" font-family="sans-serif" font-size="13" lengthAdjust="spacing" textLength="45" x="796.5" y="701.7489">fra NPS</text><text fill="#000000" font-family="sans-serif" font-size="13" lengthAdjust="spacing" textLength="210" x="792.5" y="717.0595">Vi m&#229; f&#229; avklart denne kodelisten</text><text fill="#000000" font-family="sans-serif" font-size="13" lengthAdjust="spacing" textLength="69" x="792.5" y="732.37">Eksempler:</text><text fill="#000000" font-family="sans-serif" font-size="13" lengthAdjust="spacing" textLength="34" x="792.5" y="747.6805">Klage</text><text fill="#000000" font-family="sans-serif" font-size="13" lengthAdjust="spacing" textLength="43" x="792.5" y="762.9911">H&#248;ring</text></g><!--class Vedtak--><g id="elem_Vedtak"><rect codeLine="41" fill="#F1F1F1" height="89.5977" id="Vedtak" rx="2.5" ry="2.5" style="stroke:#181818;stroke-width:0.5;" width="184" x="1054.5" y="424.66"/><ellipse cx="1118.75" cy="444.9705" fill="#ADD1B2" rx="11" ry="11" style="stroke:#181818;stroke-width:1.0;"/><path d="M1121.2231,451.1136 Q1120.6421,451.4124 1120.0029,451.5619 Q1119.3638,451.7113 1118.6582,451.7113 Q1116.1514,451.7113 1114.8315,450.0594 Q1113.5117,448.4076 1113.5117,445.2865 Q1113.5117,442.1571 1114.8315,440.5052 Q1116.1514,438.8534 1118.6582,438.8534 Q1119.3638,438.8534 1120.0112,439.0028 Q1120.6587,439.1522 1121.2231,439.451 L1121.2231,442.1737 Q1120.5923,441.5926 1119.9988,441.3228 Q1119.4053,441.0531 1118.7744,441.0531 Q1117.4297,441.0531 1116.7449,442.1197 Q1116.0601,443.1864 1116.0601,445.2865 Q1116.0601,447.3783 1116.7449,448.4449 Q1117.4297,449.5116 1118.7744,449.5116 Q1119.4053,449.5116 1119.9988,449.2418 Q1120.5923,448.972 1121.2231,448.391 Z " fill="#000000"/><text fill="#000000" font-family="sans-serif" font-size="12" font-style="italic" lengthAdjust="spacing" textLength="42" x="1141.75" y="441.2616">&#171;Kode&#187;</text><text fill="#000000" font-family="sans-serif" font-size="14" lengthAdjust="spacing" textLength="47" x="1139.25" y="457.328">Vedtak</text><line style="stroke:#181818;stroke-width:0.5;" x1="1055.5" x2="1237.5" y1="465.2811" y2="465.2811"/><ellipse cx="1065.5" cy="479.0252" fill="none" rx="3" ry="3" style="stroke:#038048;stroke-width:1.0;"/><text fill="#000000" font-family="sans-serif" font-size="14" lengthAdjust="spacing" textLength="116" x="1074.5" y="482.8163">kodeverdi: string</text><ellipse cx="1065.5" cy="495.5135" fill="none" rx="3" ry="3" style="stroke:#038048;stroke-width:1.0;"/><text fill="#000000" font-family="sans-serif" font-size="14" lengthAdjust="spacing" textLength="158" x="1074.5" y="499.3045">kodebeskrivelse: string</text><line style="stroke:#181818;stroke-width:0.5;" x1="1055.5" x2="1237.5" y1="506.2577" y2="506.2577"/></g><g id="elem_GMN19"><path d="M1197.5,145.05 L1197.5,231.6027 A0,0 0 0 0 1197.5,231.6027 L1235.67,231.6027 L1163.87,424.38 L1243.67,231.6027 L1315.5,231.6027 A0,0 0 0 0 1315.5,231.6027 L1315.5,155.05 L1305.5,145.05 L1197.5,145.05 A0,0 0 0 0 1197.5,145.05 " fill="#FEFFDD" style="stroke:#181818;stroke-width:0.5;"/><path d="M1305.5,145.05 L1305.5,155.05 L1315.5,155.05 L1305.5,145.05 " fill="#FEFFDD" style="stroke:#181818;stroke-width:0.5;"/><text fill="#000000" font-family="sans-serif" font-size="13" lengthAdjust="spacing" textLength="69" x="1203.5" y="162.6184">Eksempler:</text><text fill="#000000" font-family="sans-serif" font-size="13" lengthAdjust="spacing" textLength="56" x="1203.5" y="177.9289">godkjent</text><text fill="#000000" font-family="sans-serif" font-size="13" lengthAdjust="spacing" textLength="97" x="1203.5" y="193.2395">delvis godkjent</text><text fill="#000000" font-family="sans-serif" font-size="13" lengthAdjust="spacing" textLength="42" x="1203.5" y="208.55">avsl&#229;tt</text><text fill="#000000" font-family="sans-serif" font-size="13" lengthAdjust="spacing" textLength="37" x="1203.5" y="223.8605">avvist</text></g><!--class FaseStatusEnum--><g id="elem_FaseStatusEnum"><rect codeLine="48" fill="#F1F1F1" height="97.4648" id="FaseStatusEnum" rx="2.5" ry="2.5" style="stroke:#181818;stroke-width:0.5;" width="144" x="267.5" y="420.72"/><ellipse cx="282.5" cy="436.72" fill="#EB937F" rx="11" ry="11" style="stroke:#181818;stroke-width:1.0;"/><path d="M286.1143,443.22 L278.3945,443.22 L278.3945,430.8269 L286.1143,430.8269 L286.1143,432.9851 L280.8433,432.9851 L280.8433,435.658 L285.6162,435.658 L285.6162,437.8162 L280.8433,437.8162 L280.8433,441.0618 L286.1143,441.0618 Z " fill="#000000"/><text fill="#000000" font-family="sans-serif" font-size="14" lengthAdjust="spacing" textLength="112" x="296.5" y="442.011">FaseStatusEnum</text><line style="stroke:#181818;stroke-width:0.5;" x1="268.5" x2="410.5" y1="452.72" y2="452.72"/><ellipse cx="278.5" cy="466.4641" fill="none" rx="3" ry="3" style="stroke:#038048;stroke-width:1.0;"/><text fill="#000000" font-family="sans-serif" font-size="14" lengthAdjust="spacing" textLength="55" x="287.5" y="470.2552">Planlagt</text><ellipse cx="278.5" cy="482.9524" fill="none" rx="3" ry="3" style="stroke:#038048;stroke-width:1.0;"/><text fill="#000000" font-family="sans-serif" font-size="14" lengthAdjust="spacing" textLength="88" x="287.5" y="486.7434">UnderArbeid</text><ellipse cx="278.5" cy="499.4407" fill="none" rx="3" ry="3" style="stroke:#038048;stroke-width:1.0;"/><text fill="#000000" font-family="sans-serif" font-size="14" lengthAdjust="spacing" textLength="48" x="287.5" y="503.2317">Utfoert</text><line style="stroke:#181818;stroke-width:0.5;" x1="268.5" x2="410.5" y1="510.1848" y2="510.1848"/></g><!--class Milepel--><g id="elem_Milepel"><rect codeLine="58" fill="#F1F1F1" height="278.8359" id="Milepel" rx="2.5" ry="2.5" style="stroke:#181818;stroke-width:0.5;" width="218" x="446.5" y="330.04"/><ellipse cx="526.75" cy="346.04" fill="#ADD1B2" rx="11" ry="11" style="stroke:#181818;stroke-width:1.0;"/><path d="M529.2231,352.1831 Q528.6421,352.4819 528.0029,352.6313 Q527.3638,352.7807 526.6582,352.7807 Q524.1514,352.7807 522.8315,351.1289 Q521.5117,349.477 521.5117,346.3559 Q521.5117,343.2265 522.8315,341.5747 Q524.1514,339.9228 526.6582,339.9228 Q527.3638,339.9228 528.0112,340.0722 Q528.6587,340.2216 529.2231,340.5205 L529.2231,343.2431 Q528.5923,342.6621 527.9988,342.3923 Q527.4053,342.1225 526.7744,342.1225 Q525.4297,342.1225 524.7449,343.1892 Q524.0601,344.2558 524.0601,346.3559 Q524.0601,348.4477 524.7449,349.5144 Q525.4297,350.581 526.7744,350.581 Q527.4053,350.581 527.9988,350.3112 Q528.5923,350.0415 529.2231,349.4604 Z " fill="#000000"/><text fill="#000000" font-family="sans-serif" font-size="14" lengthAdjust="spacing" textLength="49" x="547.25" y="351.331">Milepel</text><line style="stroke:#181818;stroke-width:0.5;" x1="447.5" x2="663.5" y1="362.04" y2="362.04"/><ellipse cx="457.5" cy="375.7841" fill="none" rx="3" ry="3" style="stroke:#038048;stroke-width:1.0;"/><text fill="#000000" font-family="sans-serif" font-size="14" lengthAdjust="spacing" textLength="108" x="466.5" y="379.5752">systemId: string</text><ellipse cx="457.5" cy="392.2724" fill="none" rx="3" ry="3" style="stroke:#038048;stroke-width:1.0;"/><text fill="#000000" font-family="sans-serif" font-size="14" lengthAdjust="spacing" textLength="124" x="466.5" y="396.0634">beskrivelse: string</text><ellipse cx="457.5" cy="408.7607" fill="none" rx="3" ry="3" style="stroke:#038048;stroke-width:1.0;"/><text fill="#000000" font-family="sans-serif" font-size="14" lengthAdjust="spacing" textLength="143" x="466.5" y="412.5517">kategori: Milepeltype</text><ellipse cx="457.5" cy="425.249" fill="none" rx="3" ry="3" style="stroke:#038048;stroke-width:1.0;"/><text fill="#000000" font-family="sans-serif" font-size="14" lengthAdjust="spacing" textLength="65" x="466.5" y="429.04">frist: date</text><ellipse cx="457.5" cy="441.7373" fill="none" rx="3" ry="3" style="stroke:#038048;stroke-width:1.0;"/><text fill="#000000" font-family="sans-serif" font-size="14" lengthAdjust="spacing" textLength="85" x="466.5" y="445.5283">utfoert: date</text><ellipse cx="457.5" cy="458.2255" fill="none" rx="3" ry="3" style="stroke:#038048;stroke-width:1.0;"/><text fill="#000000" font-family="sans-serif" font-size="14" lengthAdjust="spacing" textLength="118" x="466.5" y="462.0166">journaldato: date</text><ellipse cx="457.5" cy="474.7138" fill="none" rx="3" ry="3" style="stroke:#038048;stroke-width:1.0;"/><text fill="#000000" font-family="sans-serif" font-size="14" lengthAdjust="spacing" textLength="105" x="466.5" y="478.5048">intern: boolean</text><ellipse cx="457.5" cy="491.2021" fill="none" rx="3" ry="3" style="stroke:#038048;stroke-width:1.0;"/><text fill="#000000" font-family="sans-serif" font-size="14" lengthAdjust="spacing" textLength="192" x="466.5" y="494.9931">referanseJournalpost: string</text><ellipse cx="457.5" cy="507.6904" fill="none" rx="3" ry="3" style="stroke:#038048;stroke-width:1.0;"/><text fill="#000000" font-family="sans-serif" font-size="14" lengthAdjust="spacing" textLength="184" x="466.5" y="511.4814">referanseDokument: string</text><ellipse cx="457.5" cy="524.1787" fill="none" rx="3" ry="3" style="stroke:#038048;stroke-width:1.0;"/><text fill="#000000" font-family="sans-serif" font-size="14" lengthAdjust="spacing" textLength="110" x="466.5" y="527.9697">erStart: boolean</text><ellipse cx="457.5" cy="540.667" fill="none" rx="3" ry="3" style="stroke:#038048;stroke-width:1.0;"/><text fill="#000000" font-family="sans-serif" font-size="14" lengthAdjust="spacing" textLength="109" x="466.5" y="544.458">erSlutt: boolean</text><ellipse cx="457.5" cy="557.1552" fill="none" rx="3" ry="3" style="stroke:#038048;stroke-width:1.0;"/><text fill="#000000" font-family="sans-serif" font-size="14" lengthAdjust="spacing" textLength="179" x="466.5" y="560.9463">status: MilepelStatusEnum</text><ellipse cx="457.5" cy="573.6435" fill="none" rx="3" ry="3" style="stroke:#038048;stroke-width:1.0;"/><text fill="#000000" font-family="sans-serif" font-size="14" lengthAdjust="spacing" textLength="122" x="466.5" y="577.4345">erGlobal: boolean</text><ellipse cx="457.5" cy="590.1318" fill="none" rx="3" ry="3" style="stroke:#038048;stroke-width:1.0;"/><text fill="#000000" font-family="sans-serif" font-size="14" lengthAdjust="spacing" textLength="173" x="466.5" y="593.9228">dokumenter: Dokument[]</text><line style="stroke:#181818;stroke-width:0.5;" x1="447.5" x2="663.5" y1="600.8759" y2="600.8759"/></g><g id="elem_GMN26"><path d="M136,707.15 L136,732.4605 L335,732.4605 L335,717.15 L325,707.15 L136,707.15 " fill="#FEFFDD" style="stroke:#181818;stroke-width:0.5;"/><path d="M325,707.15 L325,717.15 L335,717.15 L325,707.15 " fill="#FEFFDD" style="stroke:#181818;stroke-width:1.0;"/><text fill="#000000" font-family="sans-serif" font-size="13" lengthAdjust="spacing" textLength="178" x="142" y="724.7184">frist og utfoert ikke p&#229;krevd</text></g><!--class MilepelStatusEnum--><g id="elem_MilepelStatusEnum"><rect codeLine="85" fill="#F1F1F1" height="80.9766" id="MilepelStatusEnum" rx="2.5" ry="2.5" style="stroke:#181818;stroke-width:0.5;" width="162" x="370.5" y="679.32"/><ellipse cx="385.5" cy="695.32" fill="#EB937F" rx="11" ry="11" style="stroke:#181818;stroke-width:1.0;"/><path d="M389.1143,701.82 L381.3945,701.82 L381.3945,689.4269 L389.1143,689.4269 L389.1143,691.5851 L383.8433,691.5851 L383.8433,694.258 L388.6162,694.258 L388.6162,696.4162 L383.8433,696.4162 L383.8433,699.6618 L389.1143,699.6618 Z " fill="#000000"/><text fill="#000000" font-family="sans-serif" font-size="14" lengthAdjust="spacing" textLength="130" x="399.5" y="700.611">MilepelStatusEnum</text><line style="stroke:#181818;stroke-width:0.5;" x1="371.5" x2="531.5" y1="711.32" y2="711.32"/><ellipse cx="381.5" cy="725.0641" fill="none" rx="3" ry="3" style="stroke:#038048;stroke-width:1.0;"/><text fill="#000000" font-family="sans-serif" font-size="14" lengthAdjust="spacing" textLength="36" x="390.5" y="728.8552">N&#229;dd</text><ellipse cx="381.5" cy="741.5524" fill="none" rx="3" ry="3" style="stroke:#038048;stroke-width:1.0;"/><text fill="#000000" font-family="sans-serif" font-size="14" lengthAdjust="spacing" textLength="55" x="390.5" y="745.3434">Planlagt</text><line style="stroke:#181818;stroke-width:0.5;" x1="371.5" x2="531.5" y1="752.2966" y2="752.2966"/></g><!--class Milepeltype--><g id="elem_Milepeltype"><rect codeLine="80" fill="#F1F1F1" height="89.5977" id="Milepeltype" rx="2.5" ry="2.5" style="stroke:#181818;stroke-width:0.5;" width="184" x="567.5" y="675.01"/><ellipse cx="616.25" cy="695.3205" fill="#ADD1B2" rx="11" ry="11" style="stroke:#181818;stroke-width:1.0;"/><path d="M618.7231,701.4636 Q618.1421,701.7624 617.5029,701.9119 Q616.8638,702.0613 616.1582,702.0613 Q613.6514,702.0613 612.3315,700.4094 Q611.0117,698.7576 611.0117,695.6365 Q611.0117,692.5071 612.3315,690.8552 Q613.6514,689.2034 616.1582,689.2034 Q616.8638,689.2034 617.5112,689.3528 Q618.1587,689.5022 618.7231,689.801 L618.7231,692.5237 Q618.0923,691.9426 617.4988,691.6728 Q616.9053,691.4031 616.2744,691.4031 Q614.9297,691.4031 614.2449,692.4697 Q613.5601,693.5364 613.5601,695.6365 Q613.5601,697.7283 614.2449,698.7949 Q614.9297,699.8616 616.2744,699.8616 Q616.9053,699.8616 617.4988,699.5918 Q618.0923,699.322 618.7231,698.741 Z " fill="#000000"/><text fill="#000000" font-family="sans-serif" font-size="12" font-style="italic" lengthAdjust="spacing" textLength="42" x="654.75" y="691.6116">&#171;Kode&#187;</text><text fill="#000000" font-family="sans-serif" font-size="14" lengthAdjust="spacing" textLength="78" x="636.75" y="707.678">Milepeltype</text><line style="stroke:#181818;stroke-width:0.5;" x1="568.5" x2="750.5" y1="715.6311" y2="715.6311"/><ellipse cx="578.5" cy="729.3752" fill="none" rx="3" ry="3" style="stroke:#038048;stroke-width:1.0;"/><text fill="#000000" font-family="sans-serif" font-size="14" lengthAdjust="spacing" textLength="116" x="587.5" y="733.1663">kodeverdi: string</text><ellipse cx="578.5" cy="745.8635" fill="none" rx="3" ry="3" style="stroke:#038048;stroke-width:1.0;"/><text fill="#000000" font-family="sans-serif" font-size="14" lengthAdjust="spacing" textLength="158" x="587.5" y="749.6545">kodebeskrivelse: string</text><line style="stroke:#181818;stroke-width:0.5;" x1="568.5" x2="750.5" y1="756.6077" y2="756.6077"/></g><g id="elem_GMN33"><path d="M545,830.74 L545,901.9822 A0,0 0 0 0 545,901.9822 L774,901.9822 A0,0 0 0 0 774,901.9822 L774,840.74 L764,830.74 L663.5,830.74 L659.5,764.96 L655.5,830.74 L545,830.74 A0,0 0 0 0 545,830.74 " fill="#FEFFDD" style="stroke:#181818;stroke-width:0.5;"/><path d="M764,830.74 L764,840.74 L774,840.74 L764,830.74 " fill="#FEFFDD" style="stroke:#181818;stroke-width:0.5;"/><text fill="#000000" font-family="sans-serif" font-size="13" lengthAdjust="spacing" textLength="69" x="551" y="848.3084">Eksempler:</text><text fill="#000000" font-family="sans-serif" font-size="13" lengthAdjust="spacing" textLength="201" x="551" y="863.6189">Bestilling av oppstartsm&#248;te (BO)</text><text fill="#000000" font-family="sans-serif" font-size="13" lengthAdjust="spacing" textLength="208" x="551" y="878.9295">Gjennomf&#248;rt oppstartsm&#248;te (OM)</text><text fill="#000000" font-family="sans-serif" font-size="13" lengthAdjust="spacing" textLength="137" x="551" y="894.24">Mottak av planforslag</text></g><!--link SaksfaserHentResultat to Fase--><g id="link_SaksfaserHentResultat_Fase"><path codeLine="8" d="M323.33,188.33 C351.12,188.33 366.9,188.33 394.69,188.33 " fill="none" id="SaksfaserHentResultat-to-Fase" style="stroke:#181818;stroke-width:1.0;"/><polygon fill="#181818" points="406.69,188.33,400.69,184.33,394.69,188.33,400.69,192.33,406.69,188.33" style="stroke:#181818;stroke-width:1.0;"/></g><!--link SaksfaserHentResultat to Saksnummer--><g id="link_SaksfaserHentResultat_Saksnummer"><path codeLine="9" d="M197.79,245.48 C178.73,299.77 150.33,380.65 133.49,428.62 " fill="none" id="SaksfaserHentResultat-Saksnummer" style="stroke:#181818;stroke-width:1.0;"/></g><!--link Fase to Fasekategori--><g id="link_Fase_Fasekategori"><path codeLine="36" d="M606.43,265.82 C631.75,286.11 658.54,308.41 682.5,330.04 C715.88,360.18 751.43,396.52 777.81,424.41 " fill="none" id="Fase-Fasekategori" style="stroke:#181818;stroke-width:1.0;"/></g><!--link Fase to Vedtak--><g id="link_Fase_Vedtak"><path codeLine="37" d="M606.49,262.02 C612.13,264.94 617.82,267.64 623.5,270.04 C750.8,323.72 800.2,278.8 928.5,330.04 C987.41,353.57 1047.8,393.37 1090.04,424.28 " fill="none" id="Fase-Vedtak" style="stroke:#181818;stroke-width:1.0;"/></g><!--link Fase to FaseStatusEnum--><g id="link_Fase_FaseStatusEnum"><path codeLine="46" d="M457.97,270.44 C428.89,319.05 392.9,379.21 368.26,420.38 " fill="none" id="Fase-FaseStatusEnum" style="stroke:#181818;stroke-width:1.0;"/></g><!--link Fase to Milepel--><g id="link_Fase_Milepel"><path codeLine="54" d="M520.74,270.44 C524,289.03 527.56,309.31 531.12,329.57 " fill="none" id="Fase-Milepel" style="stroke:#181818;stroke-width:1.0;"/></g><!--link Milepel to GMN26--><g id="link_Milepel_GMN26"><path d="M446.13,594.8 C440.64,599.7 435.09,604.41 429.5,608.87 C375.36,652.12 302.08,688.64 262.9,706.69 " fill="none" id="Milepel-GMN26" style="stroke:#181818;stroke-width:1.0;stroke-dasharray:7.0,7.0;"/></g><!--link Milepel to MilepelStatusEnum--><g id="link_Milepel_MilepelStatusEnum"><path codeLine="75" d="M497.42,609.15 C486.72,634.71 476.36,659.43 468.21,678.91 " fill="none" id="Milepel-MilepelStatusEnum" style="stroke:#181818;stroke-width:1.0;"/></g><!--link Milepel to Milepeltype--><g id="link_Milepel_Milepeltype"><path codeLine="76" d="M613.58,609.15 C623.49,632.82 633.1,655.77 640.95,674.51 " fill="none" id="Milepel-Milepeltype" style="stroke:#181818;stroke-width:1.0;"/></g><!--SRC=[fLLBJkGm4Dtd5BM4GN20224DWW46yT4Ws4ncuPvKXs37Zcmd4a8SXpa3-xxOFDj9TxeRLY2XTkhdgbUlod-LS8xkX7HpuTYUi_Q_s7NA2qyl6U5lpq6fkwPXcqV3T5xfVEqzgvoSjxMkLdAXNI-iggjrLRmdfn_u-VqdUysoZo_V_nPDFjFkJrF9jF5CthHavj6BSZhL5Do8BTNqQ7ekaHELxCcPXXvPbz0qh1I-lA6cLjooOdjGw0ljsMgE_fPSC7LKIydKUK8WHD5GjzPu8urIh0_eeIRP0GSBfPqR6qpFb9a9HNCbgkg0iknln3hczxB2GejURoDKb-ioAJnNnjO9kF4hwPQvvtILZW0sjG5OTIxvtCNpAI1BEXJYXSpf8VucMMbart0eFwUJuPoQ516sTVNeHuppFEKPFN_48yri9u6L02HCEn4o9z0Y3QHBMX5fbm94YxVG1yI5dhLavIFaCU19y841q0ok_UAV1VowbfIX7nJIcG8w0aA7XvUcvAEZ4M69hvvjMM_02V6CdRHrpmgrZCgnqfdn7iGOIbr6nm0mLK-H7SVFLSMXf1a_2bqgkEVvhJMEdHiT2f3G2hg-lIiq618AckDVz589wmSUXLnKxJphGfzAnqqRMbdeI_262ts-U0-fWJzPf0welqQ1KJZqSMqMaYnCmoHkPKhv1DmBy5hrjQELGFHEBTvyF47ZbwGT0dqTtMa94qQYgLsp8HmlkLL20mgVlkx3u7wtiv5vU_T-RjZwQV1X2hPwESXpD2KKPofCQNHEqzqktgJblXoB7ioNU_0PFMekDWRpepet9dQ8uvzR7WOyN9zJ2Oia6DAOYfvCPxLG49Yfk8wxAKTHHh7GIMXvpXRhbdycfzQ4yDDabXRZLA-hsGBsSFzQM4WLTjg6TDmfGrMRQuLjMdiRNfzlbX7bLTyc8RUL4SLF6XjqQsIdGXyp7YWLfXDZHwPjNQZKDOjtHDWvljajz1d8hqqpnw3vBOkRArXSuIRG7m5Qa16xou6G6Qtp9Dx-zGc9ax25n1ZlUl5MbXjpyJeITlKaJjzk8G14u4qrVRMnGNhMouTzq1E2_GS0]--></g></svg>