<svg xmlns="http://www.w3.org/2000/svg" xmlns:xlink="http://www.w3.org/1999/xlink" contentStyleType="text/css" height="202px" preserveAspectRatio="none" style="width:225px;height:202px;background:#FFFFFF;" version="1.1" viewBox="0 0 225 202" width="225px" zoomAndPan="magnify"><defs/><g><!--class HentProsess--><g id="elem_HentProsess"><rect codeLine="1" fill="#F1F1F1" height="80.9766" id="HentProsess" rx="2.5" ry="2.5" style="stroke:#181818;stroke-width:0.5;" width="211" x="7" y="7"/><ellipse cx="66.25" cy="23" fill="#ADD1B2" rx="11" ry="11" style="stroke:#181818;stroke-width:1.0;"/><path d="M68.7231,29.1431 Q68.1421,29.4419 67.5029,29.5913 Q66.8638,29.7407 66.1582,29.7407 Q63.6514,29.7407 62.3315,28.0889 Q61.0117,26.437 61.0117,23.3159 Q61.0117,20.1865 62.3315,18.5347 Q63.6514,16.8828 66.1582,16.8828 Q66.8638,16.8828 67.5112,17.0322 Q68.1587,17.1816 68.7231,17.4805 L68.7231,20.2031 Q68.0923,19.6221 67.4988,19.3523 Q66.9053,19.0825 66.2744,19.0825 Q64.9297,19.0825 64.2449,20.1492 Q63.5601,21.2158 63.5601,23.3159 Q63.5601,25.4077 64.2449,26.4744 Q64.9297,27.541 66.2744,27.541 Q66.9053,27.541 67.4988,27.2712 Q68.0923,27.0015 68.7231,26.4204 Z " fill="#000000"/><text fill="#000000" font-family="sans-serif" font-size="14" lengthAdjust="spacing" textLength="84" x="86.75" y="28.291">HentProsess</text><line style="stroke:#181818;stroke-width:0.5;" x1="8" x2="217" y1="39" y2="39"/><ellipse cx="18" cy="52.7441" fill="none" rx="3" ry="3" style="stroke:#038048;stroke-width:1.0;"/><text fill="#000000" font-family="sans-serif" font-size="14" lengthAdjust="spacing" textLength="109" x="27" y="56.5352">fasenavn: string</text><ellipse cx="18" cy="69.2324" fill="none" rx="3" ry="3" style="stroke:#038048;stroke-width:1.0;"/><text fill="#000000" font-family="sans-serif" font-size="14" lengthAdjust="spacing" textLength="185" x="27" y="73.0234">saksnummer: Saksnummer</text><line style="stroke:#181818;stroke-width:0.5;" x1="8" x2="217" y1="79.9766" y2="79.9766"/></g><!--class Saksnummer--><g id="elem_Saksnummer"><rect fill="#F1F1F1" height="48" id="Saksnummer" rx="2.5" ry="2.5" style="stroke:#181818;stroke-width:0.5;" width="121" x="52" y="147.98"/><ellipse cx="67" cy="163.98" fill="#ADD1B2" rx="11" ry="11" style="stroke:#181818;stroke-width:1.0;"/><path d="M69.4731,170.1231 Q68.8921,170.4219 68.2529,170.5713 Q67.6138,170.7207 66.9082,170.7207 Q64.4014,170.7207 63.0815,169.0689 Q61.7617,167.417 61.7617,164.2959 Q61.7617,161.1665 63.0815,159.5147 Q64.4014,157.8628 66.9082,157.8628 Q67.6138,157.8628 68.2612,158.0122 Q68.9087,158.1616 69.4731,158.4605 L69.4731,161.1831 Q68.8423,160.6021 68.2488,160.3323 Q67.6553,160.0625 67.0244,160.0625 Q65.6797,160.0625 64.9949,161.1292 Q64.3101,162.1958 64.3101,164.2959 Q64.3101,166.3877 64.9949,167.4544 Q65.6797,168.521 67.0244,168.521 Q67.6553,168.521 68.2488,168.2512 Q68.8423,167.9815 69.4731,167.4004 Z " fill="#000000"/><text fill="#000000" font-family="sans-serif" font-size="14" lengthAdjust="spacing" textLength="89" x="81" y="169.271">Saksnummer</text><line style="stroke:#181818;stroke-width:0.5;" x1="53" x2="172" y1="179.98" y2="179.98"/><line style="stroke:#181818;stroke-width:0.5;" x1="53" x2="172" y1="187.98" y2="187.98"/></g><!--link HentProsess to Saksnummer--><g id="link_HentProsess_Saksnummer"><path codeLine="6" d="M112.5,88.26 C112.5,107.96 112.5,131.05 112.5,147.83 " fill="none" id="HentProsess-Saksnummer" style="stroke:#181818;stroke-width:1.0;"/></g><!--SRC=[Iyv9B2vMy4ZDAmaeoYzE1RAhkHI0G3ijiJWrBx4ipqgXkAGeCoyT8bgSc5sSLvgRcrfafH0CPtFLSd4X6w6hYom90000]--></g></svg>