<svg xmlns="http://www.w3.org/2000/svg" xmlns:xlink="http://www.w3.org/1999/xlink" contentStyleType="text/css" data-diagram-type="CLASS" height="294px" preserveAspectRatio="none" style="width:207px;height:294px;background:#FFFFFF;" version="1.1" viewBox="0 0 207 294" width="207px" zoomAndPan="magnify"><defs/><g><!--class Gradering--><g class="entity" data-entity="Gradering" data-source-line="2" data-uid="ent0002" id="entity_Gradering"><rect fill="#F1F1F1" height="130.4414" rx="2.5" ry="2.5" style="stroke:#181818;stroke-width:0.5;" width="193.248" x="7" y="7"/><ellipse cx="65.6831" cy="23" fill="#ADD1B2" rx="11" ry="11" style="stroke:#181818;stroke-width:1;"/><path d="M68.1563,29.1431 Q67.5752,29.4419 66.936,29.5913 Q66.2969,29.7407 65.5913,29.7407 Q63.0845,29.7407 61.7646,28.0889 Q60.4448,26.437 60.4448,23.3159 Q60.4448,20.1865 61.7646,18.5347 Q63.0845,16.8828 65.5913,16.8828 Q66.2969,16.8828 66.9443,17.0322 Q67.5918,17.1816 68.1563,17.4805 L68.1563,20.2031 Q67.5254,19.6221 66.9319,19.3523 Q66.3384,19.0825 65.7075,19.0825 Q64.3628,19.0825 63.678,20.1492 Q62.9932,21.2158 62.9932,23.3159 Q62.9932,25.4077 63.678,26.4744 Q64.3628,27.541 65.7075,27.541 Q66.3384,27.541 66.9319,27.2712 Q67.5254,27.0015 68.1563,26.4204 Z " fill="#000000"/><text fill="#000000" font-family="sans-serif" font-size="14" lengthAdjust="spacing" textLength="67.3818" x="86.1831" y="28.291">Gradering</text><line style="stroke:#181818;stroke-width:0.5;" x1="8" x2="199.248" y1="39" y2="39"/><ellipse cx="18" cy="52.7441" fill="#000000" rx="3" ry="3" style="stroke:#000000;stroke-width:1;"/><text fill="#000000" font-family="sans-serif" font-size="14" lengthAdjust="spacing" textLength="72.249" x="27" y="56.5352">grad: Grad</text><ellipse cx="18" cy="69.2324" fill="#000000" rx="3" ry="3" style="stroke:#000000;stroke-width:1;"/><text fill="#000000" font-family="sans-serif" font-size="14" lengthAdjust="spacing" textLength="141.9482" x="27" y="73.0234">graderingsdato: date</text><ellipse cx="18" cy="85.7207" fill="#000000" rx="3" ry="3" style="stroke:#000000;stroke-width:1;"/><text fill="#000000" font-family="sans-serif" font-size="14" lengthAdjust="spacing" textLength="115.0967" x="27" y="89.5117">gradertAv: string</text><text fill="#000000" font-family="sans-serif" font-size="14" lengthAdjust="spacing" textLength="167.248" x="27" y="106">nedgraderingsdato: date</text><text fill="#000000" font-family="sans-serif" font-size="14" lengthAdjust="spacing" textLength="140.3965" x="27" y="122.4883">nedgradertAv: string</text><line style="stroke:#181818;stroke-width:0.5;" x1="8" x2="199.248" y1="129.4414" y2="129.4414"/></g><!--class Grad--><g class="entity" data-entity="Grad" data-source-line="10" data-uid="ent0003" id="entity_Grad"><rect fill="#F1F1F1" height="89.5977" rx="2.5" ry="2.5" style="stroke:#181818;stroke-width:0.5;" width="183.5547" x="11.85" y="197.44"/><ellipse cx="80.3686" cy="217.7505" fill="#ADD1B2" rx="11" ry="11" style="stroke:#181818;stroke-width:1;"/><path d="M82.8417,223.8936 Q82.2606,224.1924 81.6215,224.3419 Q80.9823,224.4913 80.2768,224.4913 Q77.7699,224.4913 76.4501,222.8394 Q75.1303,221.1876 75.1303,218.0665 Q75.1303,214.9371 76.4501,213.2852 Q77.7699,211.6334 80.2768,211.6334 Q80.9823,211.6334 81.6298,211.7828 Q82.2772,211.9322 82.8417,212.231 L82.8417,214.9537 Q82.2108,214.3726 81.6173,214.1028 Q81.0238,213.8331 80.393,213.8331 Q79.0482,213.8331 78.3634,214.8997 Q77.6786,215.9664 77.6786,218.0665 Q77.6786,220.1583 78.3634,221.2249 Q79.0482,222.2916 80.393,222.2916 Q81.0238,222.2916 81.6173,222.0218 Q82.2108,221.752 82.8417,221.171 Z " fill="#000000"/><text fill="#000000" font-family="sans-serif" font-size="12" font-style="italic" lengthAdjust="spacing" textLength="42.0176" x="98.8686" y="214.0416">&#171;Kode&#187;</text><text fill="#000000" font-family="sans-serif" font-size="14" lengthAdjust="spacing" textLength="32.3887" x="103.683" y="230.108">Grad</text><line style="stroke:#181818;stroke-width:0.5;" x1="12.85" x2="194.4047" y1="238.0611" y2="238.0611"/><ellipse cx="22.85" cy="251.8052" fill="#000000" rx="3" ry="3" style="stroke:#000000;stroke-width:1;"/><text fill="#000000" font-family="sans-serif" font-size="14" lengthAdjust="spacing" textLength="115.4521" x="31.85" y="255.5963">kodeverdi: string</text><text fill="#000000" font-family="sans-serif" font-size="14" lengthAdjust="spacing" textLength="157.5547" x="31.85" y="272.0845">kodebeskrivelse: string</text><line style="stroke:#181818;stroke-width:0.5;" x1="12.85" x2="194.4047" y1="279.0377" y2="279.0377"/></g><!--link Gradering to Grad--><g class="link" data-entity-1="Gradering" data-entity-2="Grad" data-source-line="10" data-uid="lnk4" id="link_Gradering_Grad"><path codeLine="10" d="M103.62,137.7 C103.62,157.51 103.62,178.84 103.62,196.97" fill="none" id="Gradering-Grad" style="stroke:#181818;stroke-width:1;stroke-dasharray:7.0,7.0;"/></g><!--SRC=[Iyv9B2vMS2zAJ4ajoinBLwZcKb1Gq4e7ygt0ed0kMBeu9R4atqe1IAOYIPGubbaf59U05814yr9JS6c0Io5hgUNYGjYlfmUnbYiPxZ056nll_9HKEpk8unIqie6yijIYb4naMy4099EKMfnTb5cMcbESYcG50000]--></g></svg>