<svg xmlns="http://www.w3.org/2000/svg" xmlns:xlink="http://www.w3.org/1999/xlink" contentStyleType="text/css" height="151px" preserveAspectRatio="none" style="width:201px;height:151px;background:#FFFFFF;" version="1.1" viewBox="0 0 201 151" width="201px" zoomAndPan="magnify"><defs/><g><!--class Adresse--><g id="elem_Adresse"><rect codeLine="1" fill="#F1F1F1" height="130.4414" id="Adresse" rx="2.5" ry="2.5" style="stroke:#181818;stroke-width:0.5;" width="180" x="7" y="7"/><ellipse cx="65.25" cy="23" fill="#ADD1B2" rx="11" ry="11" style="stroke:#181818;stroke-width:1.0;"/><path d="M67.7231,29.1431 Q67.1421,29.4419 66.5029,29.5913 Q65.8638,29.7407 65.1582,29.7407 Q62.6514,29.7407 61.3315,28.0889 Q60.0117,26.437 60.0117,23.3159 Q60.0117,20.1865 61.3315,18.5347 Q62.6514,16.8828 65.1582,16.8828 Q65.8638,16.8828 66.5112,17.0322 Q67.1587,17.1816 67.7231,17.4805 L67.7231,20.2031 Q67.0923,19.6221 66.4988,19.3523 Q65.9053,19.0825 65.2744,19.0825 Q63.9297,19.0825 63.2449,20.1492 Q62.5601,21.2158 62.5601,23.3159 Q62.5601,25.4077 63.2449,26.4744 Q63.9297,27.541 65.2744,27.541 Q65.9053,27.541 66.4988,27.2712 Q67.0923,27.0015 67.7231,26.4204 Z " fill="#000000"/><text fill="#000000" font-family="sans-serif" font-size="14" lengthAdjust="spacing" textLength="55" x="85.75" y="28.291">Adresse</text><line style="stroke:#181818;stroke-width:0.5;" x1="8" x2="186" y1="39" y2="39"/><ellipse cx="18" cy="52.7441" fill="none" rx="3" ry="3" style="stroke:#038048;stroke-width:1.0;"/><text fill="#000000" font-family="sans-serif" font-size="14" lengthAdjust="spacing" textLength="135" x="27" y="56.5352">adressekode: string</text><ellipse cx="18" cy="69.2324" fill="none" rx="3" ry="3" style="stroke:#038048;stroke-width:1.0;"/><text fill="#000000" font-family="sans-serif" font-size="14" lengthAdjust="spacing" textLength="134" x="27" y="73.0234">adressenavn: string</text><ellipse cx="18" cy="85.7207" fill="none" rx="3" ry="3" style="stroke:#038048;stroke-width:1.0;"/><text fill="#000000" font-family="sans-serif" font-size="14" lengthAdjust="spacing" textLength="137" x="27" y="89.5117">adressenummer: int</text><ellipse cx="18" cy="102.209" fill="none" rx="3" ry="3" style="stroke:#038048;stroke-width:1.0;"/><text fill="#000000" font-family="sans-serif" font-size="14" lengthAdjust="spacing" textLength="154" x="27" y="106">adressebokstav: string</text><ellipse cx="18" cy="118.6973" fill="none" rx="3" ry="3" style="stroke:#038048;stroke-width:1.0;"/><text fill="#000000" font-family="sans-serif" font-size="14" lengthAdjust="spacing" textLength="143" x="27" y="122.4883">seksjonsnummer: int</text><line style="stroke:#181818;stroke-width:0.5;" x1="8" x2="186" y1="129.4414" y2="129.4414"/></g><!--SRC=[Iyv9B2vMS4mfIYqkJbMevb800kr423SxFoNLIg6uf2WpBnr58Y-nB0-xH6bkRcgHbK9cNWcAU59-Td59OXcg7g05nLdvUSN8cce1]--></g></svg>