<svg xmlns="http://www.w3.org/2000/svg" xmlns:xlink="http://www.w3.org/1999/xlink" contentStyleType="text/css" height="101px" preserveAspectRatio="none" style="width:164px;height:101px;background:#FFFFFF;" version="1.1" viewBox="0 0 164 101" width="164px" zoomAndPan="magnify"><defs/><g><!--class EksternNoekkel--><g id="elem_EksternNoekkel"><rect codeLine="2" fill="#F1F1F1" height="80.9766" id="EksternNoekkel" rx="2.5" ry="2.5" style="stroke:#181818;stroke-width:0.5;" width="143" x="7" y="7"/><ellipse cx="24.25" cy="23" fill="#ADD1B2" rx="11" ry="11" style="stroke:#181818;stroke-width:1.0;"/><path d="M26.7231,29.1431 Q26.1421,29.4419 25.5029,29.5913 Q24.8638,29.7407 24.1582,29.7407 Q21.6514,29.7407 20.3315,28.0889 Q19.0117,26.437 19.0117,23.3159 Q19.0117,20.1865 20.3315,18.5347 Q21.6514,16.8828 24.1582,16.8828 Q24.8638,16.8828 25.5112,17.0322 Q26.1587,17.1816 26.7231,17.4805 L26.7231,20.2031 Q26.0923,19.6221 25.4988,19.3523 Q24.9053,19.0825 24.2744,19.0825 Q22.9297,19.0825 22.2449,20.1492 Q21.5601,21.2158 21.5601,23.3159 Q21.5601,25.4077 22.2449,26.4744 Q22.9297,27.541 24.2744,27.541 Q24.9053,27.541 25.4988,27.2712 Q26.0923,27.0015 26.7231,26.4204 Z " fill="#000000"/><text fill="#000000" font-family="sans-serif" font-size="14" lengthAdjust="spacing" textLength="106" x="38.75" y="28.291">EksternNoekkel</text><line style="stroke:#181818;stroke-width:0.5;" x1="8" x2="149" y1="39" y2="39"/><ellipse cx="18" cy="52.7441" fill="#000000" rx="3" ry="3" style="stroke:#000000;stroke-width:1.0;"/><text fill="#000000" font-family="sans-serif" font-size="14" lengthAdjust="spacing" textLength="117" x="27" y="56.5352">fagsystem: string</text><ellipse cx="18" cy="69.2324" fill="#000000" rx="3" ry="3" style="stroke:#000000;stroke-width:1.0;"/><text fill="#000000" font-family="sans-serif" font-size="14" lengthAdjust="spacing" textLength="102" x="27" y="73.0234">noekkel: string</text><line style="stroke:#181818;stroke-width:0.5;" x1="8" x2="149" y1="79.9766" y2="79.9766"/></g><!--SRC=[Iyv9B2vMSCqkBaajolFBJytEJirHgEPI00AjjCJquagWHAwLGd59KMPUEaGu3w8ABbZB1G00]--></g></svg>