<svg xmlns="http://www.w3.org/2000/svg" xmlns:xlink="http://www.w3.org/1999/xlink" contentStyleType="text/css" data-diagram-type="CLASS" height="101px" preserveAspectRatio="none" style="width:164px;height:101px;background:#FFFFFF;" version="1.1" viewBox="0 0 164 101" width="164px" zoomAndPan="magnify"><defs/><g><!--class EksternNoekkel--><g id="elem_EksternNoekkel"><rect codeLine="2" fill="#F1F1F1" height="80.9766" id="EksternNoekkel" rx="2.5" ry="2.5" style="stroke:#181818;stroke-width:0.5;" width="143.7285" x="7" y="7"/><ellipse cx="24.8863" cy="23" fill="#ADD1B2" rx="11" ry="11" style="stroke:#181818;stroke-width:1;"/><path d="M27.3595,29.1431 Q26.7784,29.4419 26.1393,29.5913 Q25.5001,29.7407 24.7945,29.7407 Q22.2877,29.7407 20.9679,28.0889 Q19.648,26.437 19.648,23.3159 Q19.648,20.1865 20.9679,18.5347 Q22.2877,16.8828 24.7945,16.8828 Q25.5001,16.8828 26.1476,17.0322 Q26.795,17.1816 27.3595,17.4805 L27.3595,20.2031 Q26.7286,19.6221 26.1351,19.3523 Q25.5416,19.0825 24.9107,19.0825 Q23.566,19.0825 22.8812,20.1492 Q22.1964,21.2158 22.1964,23.3159 Q22.1964,25.4077 22.8812,26.4744 Q23.566,27.541 24.9107,27.541 Q25.5416,27.541 26.1351,27.2712 Q26.7286,27.0015 27.3595,26.4204 Z " fill="#000000"/><text fill="#000000" font-family="sans-serif" font-size="14" lengthAdjust="spacing" textLength="105.3145" x="39.5277" y="28.291">EksternNoekkel</text><line style="stroke:#181818;stroke-width:0.5;" x1="8" x2="149.7285" y1="39" y2="39"/><ellipse cx="18" cy="52.7441" fill="#000000" rx="3" ry="3" style="stroke:#000000;stroke-width:1;"/><text fill="#000000" font-family="sans-serif" font-size="14" lengthAdjust="spacing" textLength="117.7285" x="27" y="56.5352">fagsystem: string</text><ellipse cx="18" cy="69.2324" fill="#000000" rx="3" ry="3" style="stroke:#000000;stroke-width:1;"/><text fill="#000000" font-family="sans-serif" font-size="14" lengthAdjust="spacing" textLength="101.7256" x="27" y="73.0234">noekkel: string</text><line style="stroke:#181818;stroke-width:0.5;" x1="8" x2="149.7285" y1="79.9766" y2="79.9766"/></g><!--SRC=[Iyv9B2vMSCqkBaajolFBJytEJirHgEPI00AjjCJquagWHAwLGd59KMPUEaGu3w8ABbZB1G00]--></g></svg>