<svg xmlns="http://www.w3.org/2000/svg" xmlns:xlink="http://www.w3.org/1999/xlink" contentStyleType="text/css" data-diagram-type="CLASS" height="101px" preserveAspectRatio="none" style="width:262px;height:101px;background:#FFFFFF;" version="1.1" viewBox="0 0 262 101" width="262px" zoomAndPan="magnify"><defs/><g><!--class Journalnummer--><g id="elem_Journalnummer"><rect codeLine="2" fill="#F1F1F1" height="80.9766" id="Journalnummer" rx="2.5" ry="2.5" style="stroke:#181818;stroke-width:0.5;" width="241.667" x="7" y="7"/><ellipse cx="71.1416" cy="23" fill="#ADD1B2" rx="11" ry="11" style="stroke:#181818;stroke-width:1;"/><path d="M73.6147,29.1431 Q73.0337,29.4419 72.3945,29.5913 Q71.7554,29.7407 71.0498,29.7407 Q68.543,29.7407 67.2231,28.0889 Q65.9033,26.437 65.9033,23.3159 Q65.9033,20.1865 67.2231,18.5347 Q68.543,16.8828 71.0498,16.8828 Q71.7554,16.8828 72.4028,17.0322 Q73.0503,17.1816 73.6147,17.4805 L73.6147,20.2031 Q72.9839,19.6221 72.3904,19.3523 Q71.7969,19.0825 71.166,19.0825 Q69.8213,19.0825 69.1365,20.1492 Q68.4517,21.2158 68.4517,23.3159 Q68.4517,25.4077 69.1365,26.4744 Q69.8213,27.541 71.166,27.541 Q71.7969,27.541 72.3904,27.2712 Q72.9839,27.0015 73.6147,26.4204 Z " fill="#000000"/><text fill="#000000" font-family="sans-serif" font-size="14" lengthAdjust="spacing" textLength="104.8838" x="91.6416" y="28.291">Journalnummer</text><line style="stroke:#181818;stroke-width:0.5;" x1="8" x2="247.667" y1="39" y2="39"/><ellipse cx="18" cy="52.7441" fill="#000000" rx="3" ry="3" style="stroke:#000000;stroke-width:1;"/><text fill="#000000" font-family="sans-serif" font-size="14" lengthAdjust="spacing" textLength="161.6768" x="27" y="56.5352">journalnummer: integer</text><ellipse cx="18" cy="69.2324" fill="#000000" rx="3" ry="3" style="stroke:#000000;stroke-width:1;"/><text fill="#000000" font-family="sans-serif" font-size="14" lengthAdjust="spacing" textLength="215.667" x="27" y="73.0234">journalsekvensnummer: integer</text><line style="stroke:#181818;stroke-width:0.5;" x1="8" x2="247.667" y1="79.9766" y2="79.9766"/></g><!--SRC=[Iyv9B2vMyCelBSfBpCahpSrDBLAevb800gqiP44hXSoyajJqr28KkUBKxBBKl69q9RLS0000]--></g></svg>