<svg xmlns="http://www.w3.org/2000/svg" xmlns:xlink="http://www.w3.org/1999/xlink" contentStyleType="text/css" height="101px" preserveAspectRatio="none" style="width:270px;height:101px;background:#FFFFFF;" version="1.1" viewBox="0 0 270 101" width="270px" zoomAndPan="magnify"><defs/><g><!--class Journalnummer--><g id="elem_Journalnummer"><rect codeLine="2" fill="#F1F1F1" height="80.9766" id="Journalnummer" rx="2.5" ry="2.5" style="stroke:#181818;stroke-width:0.5;" width="249" x="7" y="7"/><ellipse cx="73.75" cy="23" fill="#ADD1B2" rx="11" ry="11" style="stroke:#181818;stroke-width:1.0;"/><path d="M76.2231,29.1431 Q75.6421,29.4419 75.0029,29.5913 Q74.3638,29.7407 73.6582,29.7407 Q71.1514,29.7407 69.8315,28.0889 Q68.5117,26.437 68.5117,23.3159 Q68.5117,20.1865 69.8315,18.5347 Q71.1514,16.8828 73.6582,16.8828 Q74.3638,16.8828 75.0112,17.0322 Q75.6587,17.1816 76.2231,17.4805 L76.2231,20.2031 Q75.5923,19.6221 74.9988,19.3523 Q74.4053,19.0825 73.7744,19.0825 Q72.4297,19.0825 71.7449,20.1492 Q71.0601,21.2158 71.0601,23.3159 Q71.0601,25.4077 71.7449,26.4744 Q72.4297,27.541 73.7744,27.541 Q74.4053,27.541 74.9988,27.2712 Q75.5923,27.0015 76.2231,26.4204 Z " fill="#000000"/><text fill="#000000" font-family="sans-serif" font-size="14" lengthAdjust="spacing" textLength="107" x="94.25" y="28.291">Journalnummer</text><line style="stroke:#181818;stroke-width:0.5;" x1="8" x2="255" y1="39" y2="39"/><ellipse cx="18" cy="52.7441" fill="none" rx="3" ry="3" style="stroke:#038048;stroke-width:1.0;"/><text fill="#000000" font-family="sans-serif" font-size="14" lengthAdjust="spacing" textLength="169" x="27" y="56.5352">journalnummer: number</text><ellipse cx="18" cy="69.2324" fill="none" rx="3" ry="3" style="stroke:#038048;stroke-width:1.0;"/><text fill="#000000" font-family="sans-serif" font-size="14" lengthAdjust="spacing" textLength="223" x="27" y="73.0234">journalsekvensnummer: number</text><line style="stroke:#181818;stroke-width:0.5;" x1="8" x2="255" y1="79.9766" y2="79.9766"/></g><!--SRC=[Iyv9B2vMyCelBSfBpCahpSrDBLAevb800kqiP44h1I2Tb5g48bMScbsMcbUCfgAM2m00]--></g></svg>