<svg xmlns="http://www.w3.org/2000/svg" xmlns:xlink="http://www.w3.org/1999/xlink" contentStyleType="text/css" height="384px" preserveAspectRatio="none" style="width:478px;height:384px;background:#FFFFFF;" version="1.1" viewBox="0 0 478 384" width="478px" zoomAndPan="magnify"><defs/><g><!--class Prosess--><g id="elem_Prosess"><rect codeLine="1" fill="#F1F1F1" height="229.3711" id="Prosess" rx="2.5" ry="2.5" style="stroke:#181818;stroke-width:0.5;" width="256" x="98.5" y="7"/><ellipse cx="196.25" cy="23" fill="#ADD1B2" rx="11" ry="11" style="stroke:#181818;stroke-width:1.0;"/><path d="M198.7231,29.1431 Q198.1421,29.4419 197.5029,29.5913 Q196.8638,29.7407 196.1582,29.7407 Q193.6514,29.7407 192.3315,28.0889 Q191.0117,26.437 191.0117,23.3159 Q191.0117,20.1865 192.3315,18.5347 Q193.6514,16.8828 196.1582,16.8828 Q196.8638,16.8828 197.5112,17.0322 Q198.1587,17.1816 198.7231,17.4805 L198.7231,20.2031 Q198.0923,19.6221 197.4988,19.3523 Q196.9053,19.0825 196.2744,19.0825 Q194.9297,19.0825 194.2449,20.1492 Q193.5601,21.2158 193.5601,23.3159 Q193.5601,25.4077 194.2449,26.4744 Q194.9297,27.541 196.2744,27.541 Q196.9053,27.541 197.4988,27.2712 Q198.0923,27.0015 198.7231,26.4204 Z " fill="#000000"/><text fill="#000000" font-family="sans-serif" font-size="14" lengthAdjust="spacing" textLength="52" x="216.75" y="28.291">Prosess</text><line style="stroke:#181818;stroke-width:0.5;" x1="99.5" x2="353.5" y1="39" y2="39"/><ellipse cx="109.5" cy="52.7441" fill="none" rx="3" ry="3" style="stroke:#038048;stroke-width:1.0;"/><text fill="#000000" font-family="sans-serif" font-size="14" lengthAdjust="spacing" textLength="108" x="118.5" y="56.5352">systemId: string</text><ellipse cx="109.5" cy="69.2324" fill="none" rx="3" ry="3" style="stroke:#038048;stroke-width:1.0;"/><text fill="#000000" font-family="sans-serif" font-size="14" lengthAdjust="spacing" textLength="185" x="118.5" y="73.0234">saksnummer: Saksnummer</text><ellipse cx="109.5" cy="85.7207" fill="none" rx="3" ry="3" style="stroke:#038048;stroke-width:1.0;"/><text fill="#000000" font-family="sans-serif" font-size="14" lengthAdjust="spacing" textLength="131" x="118.5" y="89.5117">milepeler: Milepel[]</text><ellipse cx="109.5" cy="102.209" fill="none" rx="3" ry="3" style="stroke:#038048;stroke-width:1.0;"/><text fill="#000000" font-family="sans-serif" font-size="14" lengthAdjust="spacing" textLength="100" x="118.5" y="106">kategori: Kode</text><ellipse cx="109.5" cy="118.6973" fill="none" rx="3" ry="3" style="stroke:#038048;stroke-width:1.0;"/><text fill="#000000" font-family="sans-serif" font-size="14" lengthAdjust="spacing" textLength="126" x="118.5" y="122.4883">antallUkerFrist: int</text><ellipse cx="109.5" cy="135.1855" fill="none" rx="3" ry="3" style="stroke:#038048;stroke-width:1.0;"/><text fill="#000000" font-family="sans-serif" font-size="14" lengthAdjust="spacing" textLength="185" x="118.5" y="138.9766">medDispensasjon: boolean</text><ellipse cx="109.5" cy="151.6738" fill="none" rx="3" ry="3" style="stroke:#038048;stroke-width:1.0;"/><text fill="#000000" font-family="sans-serif" font-size="14" lengthAdjust="spacing" textLength="230" x="118.5" y="155.4648">medReguleringsendring: boolean</text><ellipse cx="109.5" cy="168.1621" fill="none" rx="3" ry="3" style="stroke:#038048;stroke-width:1.0;"/><text fill="#000000" font-family="sans-serif" font-size="14" lengthAdjust="spacing" textLength="126" x="118.5" y="171.9531">prosesskoe: string</text><ellipse cx="109.5" cy="184.6504" fill="none" rx="3" ry="3" style="stroke:#038048;stroke-width:1.0;"/><text fill="#000000" font-family="sans-serif" font-size="14" lengthAdjust="spacing" textLength="135" x="118.5" y="188.4414">prosessteam: string</text><ellipse cx="109.5" cy="201.1387" fill="none" rx="3" ry="3" style="stroke:#038048;stroke-width:1.0;"/><text fill="#000000" font-family="sans-serif" font-size="14" lengthAdjust="spacing" textLength="163" x="118.5" y="204.9297">prosessansvarlig: string</text><ellipse cx="109.5" cy="217.627" fill="none" rx="3" ry="3" style="stroke:#038048;stroke-width:1.0;"/><text fill="#000000" font-family="sans-serif" font-size="14" lengthAdjust="spacing" textLength="211" x="118.5" y="221.418">gebyrunderlag: Gebyrunderlag</text><line style="stroke:#181818;stroke-width:0.5;" x1="99.5" x2="353.5" y1="228.3711" y2="228.3711"/></g><!--class Saksnummer--><g id="elem_Saksnummer"><rect codeLine="19" fill="#F1F1F1" height="80.9766" id="Saksnummer" rx="2.5" ry="2.5" style="stroke:#181818;stroke-width:0.5;" width="225" x="7" y="296.37"/><ellipse cx="70.75" cy="312.37" fill="#ADD1B2" rx="11" ry="11" style="stroke:#181818;stroke-width:1.0;"/><path d="M73.2231,318.5131 Q72.6421,318.8119 72.0029,318.9613 Q71.3638,319.1107 70.6582,319.1107 Q68.1514,319.1107 66.8315,317.4589 Q65.5117,315.807 65.5117,312.6859 Q65.5117,309.5565 66.8315,307.9047 Q68.1514,306.2528 70.6582,306.2528 Q71.3638,306.2528 72.0112,306.4022 Q72.6587,306.5516 73.2231,306.8505 L73.2231,309.5731 Q72.5923,308.9921 71.9988,308.7223 Q71.4053,308.4525 70.7744,308.4525 Q69.4297,308.4525 68.7449,309.5192 Q68.0601,310.5858 68.0601,312.6859 Q68.0601,314.7777 68.7449,315.8444 Q69.4297,316.911 70.7744,316.911 Q71.4053,316.911 71.9988,316.6412 Q72.5923,316.3715 73.2231,315.7904 Z " fill="#000000"/><text fill="#000000" font-family="sans-serif" font-size="14" lengthAdjust="spacing" textLength="89" x="91.25" y="317.661">Saksnummer</text><line style="stroke:#181818;stroke-width:0.5;" x1="8" x2="231" y1="328.37" y2="328.37"/><ellipse cx="18" cy="342.1141" fill="none" rx="3" ry="3" style="stroke:#038048;stroke-width:1.0;"/><text fill="#000000" font-family="sans-serif" font-size="14" lengthAdjust="spacing" textLength="109" x="27" y="345.9052">saksaar: integer</text><ellipse cx="18" cy="358.6024" fill="none" rx="3" ry="3" style="stroke:#038048;stroke-width:1.0;"/><text fill="#000000" font-family="sans-serif" font-size="14" lengthAdjust="spacing" textLength="199" x="27" y="362.3934">sakssekvensnummer: integer</text><line style="stroke:#181818;stroke-width:0.5;" x1="8" x2="231" y1="369.3466" y2="369.3466"/></g><!--class Milepel--><g id="elem_Milepel"><rect fill="#F1F1F1" height="48" id="Milepel" rx="2.5" ry="2.5" style="stroke:#181818;stroke-width:0.5;" width="81" x="390" y="97.69"/><ellipse cx="405" cy="113.69" fill="#ADD1B2" rx="11" ry="11" style="stroke:#181818;stroke-width:1.0;"/><path d="M407.4731,119.8331 Q406.8921,120.1319 406.2529,120.2813 Q405.6138,120.4307 404.9082,120.4307 Q402.4014,120.4307 401.0815,118.7789 Q399.7617,117.127 399.7617,114.0059 Q399.7617,110.8765 401.0815,109.2247 Q402.4014,107.5728 404.9082,107.5728 Q405.6138,107.5728 406.2612,107.7222 Q406.9087,107.8716 407.4731,108.1705 L407.4731,110.8931 Q406.8423,110.3121 406.2488,110.0423 Q405.6553,109.7725 405.0244,109.7725 Q403.6797,109.7725 402.9949,110.8392 Q402.3101,111.9058 402.3101,114.0059 Q402.3101,116.0977 402.9949,117.1644 Q403.6797,118.231 405.0244,118.231 Q405.6553,118.231 406.2488,117.9612 Q406.8423,117.6915 407.4731,117.1104 Z " fill="#000000"/><text fill="#000000" font-family="sans-serif" font-size="14" lengthAdjust="spacing" textLength="49" x="419" y="118.981">Milepel</text><line style="stroke:#181818;stroke-width:0.5;" x1="391" x2="470" y1="129.69" y2="129.69"/><line style="stroke:#181818;stroke-width:0.5;" x1="391" x2="470" y1="137.69" y2="137.69"/></g><!--class Gebyrunderlag--><g id="elem_Gebyrunderlag"><rect fill="#F1F1F1" height="48" id="Gebyrunderlag" rx="2.5" ry="2.5" style="stroke:#181818;stroke-width:0.5;" width="134" x="266.5" y="312.86"/><ellipse cx="281.5" cy="328.86" fill="#ADD1B2" rx="11" ry="11" style="stroke:#181818;stroke-width:1.0;"/><path d="M283.9731,335.0031 Q283.3921,335.3019 282.7529,335.4513 Q282.1138,335.6007 281.4082,335.6007 Q278.9014,335.6007 277.5815,333.9489 Q276.2617,332.297 276.2617,329.1759 Q276.2617,326.0465 277.5815,324.3947 Q278.9014,322.7428 281.4082,322.7428 Q282.1138,322.7428 282.7612,322.8922 Q283.4087,323.0416 283.9731,323.3405 L283.9731,326.0631 Q283.3423,325.4821 282.7488,325.2123 Q282.1553,324.9425 281.5244,324.9425 Q280.1797,324.9425 279.4949,326.0092 Q278.8101,327.0758 278.8101,329.1759 Q278.8101,331.2677 279.4949,332.3344 Q280.1797,333.401 281.5244,333.401 Q282.1553,333.401 282.7488,333.1312 Q283.3423,332.8615 283.9731,332.2804 Z " fill="#000000"/><text fill="#000000" font-family="sans-serif" font-size="14" lengthAdjust="spacing" textLength="102" x="295.5" y="334.151">Gebyrunderlag</text><line style="stroke:#181818;stroke-width:0.5;" x1="267.5" x2="399.5" y1="344.86" y2="344.86"/><line style="stroke:#181818;stroke-width:0.5;" x1="267.5" x2="399.5" y1="352.86" y2="352.86"/></g><!--link Prosess to Saksnummer--><g id="link_Prosess_Saksnummer"><path codeLine="15" d="M169.24,236.76 C158.51,258.15 147.98,279.12 139.39,296.23 " fill="none" id="Prosess-Saksnummer" style="stroke:#181818;stroke-width:1.0;"/></g><!--link Prosess to Milepel--><g id="link_Prosess_Milepel"><path codeLine="16" d="M354.8,121.69 C366.43,121.69 366.06,121.69 377.69,121.69 " fill="none" id="Prosess-to-Milepel" style="stroke:#181818;stroke-width:1.0;"/><polygon fill="#181818" points="389.69,121.69,383.69,117.69,377.69,121.69,383.69,125.69,389.69,121.69" style="stroke:#181818;stroke-width:1.0;"/></g><!--link Prosess to Gebyrunderlag--><g id="link_Prosess_Gebyrunderlag"><path codeLine="17" d="M283.76,236.76 C298.27,265.67 312.41,293.84 321.88,312.71 " fill="none" id="Prosess-Gebyrunderlag" style="stroke:#181818;stroke-width:1.0;"/></g><!--SRC=[RP71JWGX38RlF0LdpRu0PwCnniHeF1aFtUKFGQ1CABF9nlZkCilCEBkHIyl_GIb_3v54z4l9WXQ_bMxhLavIaHwjqLABPpUh58J7b52CVblppfAF610dzDpJZyzE0bMuNBpHJzcYQyILOdmFAFV5IpNQSvthmDvv6S12yfNPw7tE4SGhVOKRspEjAG7RALwT6VfNGiPbzxDUGUbVG2n7Aj6xI-gmFvMHBKgaXXwsM_MZrEBSRhUnP1Ll5ZSsvwvggCDv0d-tro4qXQYSpO5RZ9vKGJWsXvPPp5otTdu1]--></g></svg>