<svg xmlns="http://www.w3.org/2000/svg" xmlns:xlink="http://www.w3.org/1999/xlink" contentStyleType="text/css" height="351px" preserveAspectRatio="none" style="width:400px;height:351px;background:#FFFFFF;" version="1.1" viewBox="0 0 400 351" width="400px" zoomAndPan="magnify"><defs/><g><!--class Prosess--><g id="elem_Prosess"><rect codeLine="1" fill="#F1F1F1" height="229.3711" id="Prosess" rx="2.5" ry="2.5" style="stroke:#181818;stroke-width:0.5;" width="256" x="20.5" y="7"/><ellipse cx="118.25" cy="23" fill="#ADD1B2" rx="11" ry="11" style="stroke:#181818;stroke-width:1.0;"/><path d="M120.7231,29.1431 Q120.1421,29.4419 119.5029,29.5913 Q118.8638,29.7407 118.1582,29.7407 Q115.6514,29.7407 114.3315,28.0889 Q113.0117,26.437 113.0117,23.3159 Q113.0117,20.1865 114.3315,18.5347 Q115.6514,16.8828 118.1582,16.8828 Q118.8638,16.8828 119.5112,17.0322 Q120.1587,17.1816 120.7231,17.4805 L120.7231,20.2031 Q120.0923,19.6221 119.4988,19.3523 Q118.9053,19.0825 118.2744,19.0825 Q116.9297,19.0825 116.2449,20.1492 Q115.5601,21.2158 115.5601,23.3159 Q115.5601,25.4077 116.2449,26.4744 Q116.9297,27.541 118.2744,27.541 Q118.9053,27.541 119.4988,27.2712 Q120.0923,27.0015 120.7231,26.4204 Z " fill="#000000"/><text fill="#000000" font-family="sans-serif" font-size="14" lengthAdjust="spacing" textLength="52" x="138.75" y="28.291">Prosess</text><line style="stroke:#181818;stroke-width:0.5;" x1="21.5" x2="275.5" y1="39" y2="39"/><ellipse cx="31.5" cy="52.7441" fill="none" rx="3" ry="3" style="stroke:#038048;stroke-width:1.0;"/><text fill="#000000" font-family="sans-serif" font-size="14" lengthAdjust="spacing" textLength="108" x="40.5" y="56.5352">systemId: string</text><ellipse cx="31.5" cy="69.2324" fill="none" rx="3" ry="3" style="stroke:#038048;stroke-width:1.0;"/><text fill="#000000" font-family="sans-serif" font-size="14" lengthAdjust="spacing" textLength="185" x="40.5" y="73.0234">saksnummer: Saksnummer</text><ellipse cx="31.5" cy="85.7207" fill="none" rx="3" ry="3" style="stroke:#038048;stroke-width:1.0;"/><text fill="#000000" font-family="sans-serif" font-size="14" lengthAdjust="spacing" textLength="131" x="40.5" y="89.5117">milepeler: Milepel[]</text><ellipse cx="31.5" cy="102.209" fill="none" rx="3" ry="3" style="stroke:#038048;stroke-width:1.0;"/><text fill="#000000" font-family="sans-serif" font-size="14" lengthAdjust="spacing" textLength="100" x="40.5" y="106">kategori: Kode</text><ellipse cx="31.5" cy="118.6973" fill="none" rx="3" ry="3" style="stroke:#038048;stroke-width:1.0;"/><text fill="#000000" font-family="sans-serif" font-size="14" lengthAdjust="spacing" textLength="126" x="40.5" y="122.4883">antallUkerFrist: int</text><ellipse cx="31.5" cy="135.1855" fill="none" rx="3" ry="3" style="stroke:#038048;stroke-width:1.0;"/><text fill="#000000" font-family="sans-serif" font-size="14" lengthAdjust="spacing" textLength="185" x="40.5" y="138.9766">medDispensasjon: boolean</text><ellipse cx="31.5" cy="151.6738" fill="none" rx="3" ry="3" style="stroke:#038048;stroke-width:1.0;"/><text fill="#000000" font-family="sans-serif" font-size="14" lengthAdjust="spacing" textLength="230" x="40.5" y="155.4648">medReguleringsendring: boolean</text><ellipse cx="31.5" cy="168.1621" fill="none" rx="3" ry="3" style="stroke:#038048;stroke-width:1.0;"/><text fill="#000000" font-family="sans-serif" font-size="14" lengthAdjust="spacing" textLength="126" x="40.5" y="171.9531">prosesskoe: string</text><ellipse cx="31.5" cy="184.6504" fill="none" rx="3" ry="3" style="stroke:#038048;stroke-width:1.0;"/><text fill="#000000" font-family="sans-serif" font-size="14" lengthAdjust="spacing" textLength="135" x="40.5" y="188.4414">prosessteam: string</text><ellipse cx="31.5" cy="201.1387" fill="none" rx="3" ry="3" style="stroke:#038048;stroke-width:1.0;"/><text fill="#000000" font-family="sans-serif" font-size="14" lengthAdjust="spacing" textLength="163" x="40.5" y="204.9297">prosessansvarlig: string</text><ellipse cx="31.5" cy="217.627" fill="none" rx="3" ry="3" style="stroke:#038048;stroke-width:1.0;"/><text fill="#000000" font-family="sans-serif" font-size="14" lengthAdjust="spacing" textLength="211" x="40.5" y="221.418">gebyrunderlag: Gebyrunderlag</text><line style="stroke:#181818;stroke-width:0.5;" x1="21.5" x2="275.5" y1="228.3711" y2="228.3711"/></g><!--class Saksnummer--><g id="elem_Saksnummer"><rect fill="#F1F1F1" height="48" id="Saksnummer" rx="2.5" ry="2.5" style="stroke:#181818;stroke-width:0.5;" width="121" x="7" y="296.37"/><ellipse cx="22" cy="312.37" fill="#ADD1B2" rx="11" ry="11" style="stroke:#181818;stroke-width:1.0;"/><path d="M24.4731,318.5131 Q23.8921,318.8119 23.2529,318.9613 Q22.6138,319.1107 21.9082,319.1107 Q19.4014,319.1107 18.0815,317.4589 Q16.7617,315.807 16.7617,312.6859 Q16.7617,309.5565 18.0815,307.9047 Q19.4014,306.2528 21.9082,306.2528 Q22.6138,306.2528 23.2612,306.4022 Q23.9087,306.5516 24.4731,306.8505 L24.4731,309.5731 Q23.8423,308.9921 23.2488,308.7223 Q22.6553,308.4525 22.0244,308.4525 Q20.6797,308.4525 19.9949,309.5192 Q19.3101,310.5858 19.3101,312.6859 Q19.3101,314.7777 19.9949,315.8444 Q20.6797,316.911 22.0244,316.911 Q22.6553,316.911 23.2488,316.6412 Q23.8423,316.3715 24.4731,315.7904 Z " fill="#000000"/><text fill="#000000" font-family="sans-serif" font-size="14" lengthAdjust="spacing" textLength="89" x="36" y="317.661">Saksnummer</text><line style="stroke:#181818;stroke-width:0.5;" x1="8" x2="127" y1="328.37" y2="328.37"/><line style="stroke:#181818;stroke-width:0.5;" x1="8" x2="127" y1="336.37" y2="336.37"/></g><!--class Milepel--><g id="elem_Milepel"><rect fill="#F1F1F1" height="48" id="Milepel" rx="2.5" ry="2.5" style="stroke:#181818;stroke-width:0.5;" width="81" x="312" y="97.68"/><ellipse cx="327" cy="113.68" fill="#ADD1B2" rx="11" ry="11" style="stroke:#181818;stroke-width:1.0;"/><path d="M329.4731,119.8231 Q328.8921,120.1219 328.2529,120.2713 Q327.6138,120.4207 326.9082,120.4207 Q324.4014,120.4207 323.0815,118.7689 Q321.7617,117.117 321.7617,113.9959 Q321.7617,110.8665 323.0815,109.2147 Q324.4014,107.5628 326.9082,107.5628 Q327.6138,107.5628 328.2612,107.7122 Q328.9087,107.8616 329.4731,108.1605 L329.4731,110.8831 Q328.8423,110.3021 328.2488,110.0323 Q327.6553,109.7625 327.0244,109.7625 Q325.6797,109.7625 324.9949,110.8292 Q324.3101,111.8958 324.3101,113.9959 Q324.3101,116.0877 324.9949,117.1544 Q325.6797,118.221 327.0244,118.221 Q327.6553,118.221 328.2488,117.9512 Q328.8423,117.6815 329.4731,117.1004 Z " fill="#000000"/><text fill="#000000" font-family="sans-serif" font-size="14" lengthAdjust="spacing" textLength="49" x="341" y="118.971">Milepel</text><line style="stroke:#181818;stroke-width:0.5;" x1="313" x2="392" y1="129.68" y2="129.68"/><line style="stroke:#181818;stroke-width:0.5;" x1="313" x2="392" y1="137.68" y2="137.68"/></g><!--class Gebyrunderlag--><g id="elem_Gebyrunderlag"><rect fill="#F1F1F1" height="48" id="Gebyrunderlag" rx="2.5" ry="2.5" style="stroke:#181818;stroke-width:0.5;" width="134" x="163.5" y="296.37"/><ellipse cx="178.5" cy="312.37" fill="#ADD1B2" rx="11" ry="11" style="stroke:#181818;stroke-width:1.0;"/><path d="M180.9731,318.5131 Q180.3921,318.8119 179.7529,318.9613 Q179.1138,319.1107 178.4082,319.1107 Q175.9014,319.1107 174.5815,317.4589 Q173.2617,315.807 173.2617,312.6859 Q173.2617,309.5565 174.5815,307.9047 Q175.9014,306.2528 178.4082,306.2528 Q179.1138,306.2528 179.7612,306.4022 Q180.4087,306.5516 180.9731,306.8505 L180.9731,309.5731 Q180.3423,308.9921 179.7488,308.7223 Q179.1553,308.4525 178.5244,308.4525 Q177.1797,308.4525 176.4949,309.5192 Q175.8101,310.5858 175.8101,312.6859 Q175.8101,314.7777 176.4949,315.8444 Q177.1797,316.911 178.5244,316.911 Q179.1553,316.911 179.7488,316.6412 Q180.3423,316.3715 180.9731,315.7904 Z " fill="#000000"/><text fill="#000000" font-family="sans-serif" font-size="14" lengthAdjust="spacing" textLength="102" x="192.5" y="317.661">Gebyrunderlag</text><line style="stroke:#181818;stroke-width:0.5;" x1="164.5" x2="296.5" y1="328.37" y2="328.37"/><line style="stroke:#181818;stroke-width:0.5;" x1="164.5" x2="296.5" y1="336.37" y2="336.37"/></g><!--link Prosess to Saksnummer--><g id="link_Prosess_Saksnummer"><path codeLine="15" d="M101.5,236.81 C92.22,259.35 83.4,280.75 77.08,296.12 " fill="none" id="Prosess-Saksnummer" style="stroke:#181818;stroke-width:1.0;"/></g><!--link Prosess to Milepel--><g id="link_Prosess_Milepel"><path codeLine="16" d="M276.8,121.68 C288.43,121.68 288.06,121.68 299.69,121.68 " fill="none" id="Prosess-to-Milepel" style="stroke:#181818;stroke-width:1.0;"/><polygon fill="#181818" points="311.69,121.68,305.69,117.68,299.69,121.68,305.69,125.68,311.69,121.68" style="stroke:#181818;stroke-width:1.0;"/></g><!--link Prosess to Gebyrunderlag--><g id="link_Prosess_Gebyrunderlag"><path codeLine="17" d="M196.08,236.81 C205.48,259.35 214.4,280.75 220.81,296.12 " fill="none" id="Prosess-Gebyrunderlag" style="stroke:#181818;stroke-width:1.0;"/></g><!--SRC=[RP11QWCn34NtSmglKt81hqDAAOMGa5NeGga_nXbR7YHF8PJUlGwU39DGRIJ_9sJfVqLIDJl9Yff_EbFZHQzQaDwSDLeai9zKwfN7b23M7EQwiHGY1iGR-cZbwREHdWfybc3DUtPe6d6X68yzP2j1YpM1opG7RXDq02lf9RCrvvmZY6UwXn_hDtKf1RjRVkePsYbznkFsarv0wLz0hDyaCVX7wd6-oiWE4gcYr-Mp- -swktFhzSAIMLpTtLZqFStu0m00]--></g></svg>