<svg xmlns="http://www.w3.org/2000/svg" xmlns:xlink="http://www.w3.org/1999/xlink" contentStyleType="text/css" data-diagram-type="CLASS" height="244px" preserveAspectRatio="none" style="width:382px;height:244px;background:#FFFFFF;" version="1.1" viewBox="0 0 382 244" width="382px" zoomAndPan="magnify"><defs/><g><!--class Korrespondansepart--><g class="entity" data-entity="Korrespondansepart" data-source-line="2" data-uid="ent0002" id="entity_Korrespondansepart"><rect fill="#F1F1F1" height="80.9766" rx="2.5" ry="2.5" style="stroke:#181818;stroke-width:0.5;" width="368.043" x="7" y="7"/><ellipse cx="117.8174" cy="23" fill="#ADD1B2" rx="11" ry="11" style="stroke:#181818;stroke-width:1;"/><path d="M120.2905,29.1431 Q119.7095,29.4419 119.0703,29.5913 Q118.4312,29.7407 117.7256,29.7407 Q115.2188,29.7407 113.8989,28.0889 Q112.5791,26.437 112.5791,23.3159 Q112.5791,20.1865 113.8989,18.5347 Q115.2188,16.8828 117.7256,16.8828 Q118.4312,16.8828 119.0786,17.0322 Q119.7261,17.1816 120.2905,17.4805 L120.2905,20.2031 Q119.6597,19.6221 119.0662,19.3523 Q118.4727,19.0825 117.8418,19.0825 Q116.4971,19.0825 115.8123,20.1492 Q115.1274,21.2158 115.1274,23.3159 Q115.1274,25.4077 115.8123,26.4744 Q116.4971,27.541 117.8418,27.541 Q118.4727,27.541 119.0662,27.2712 Q119.6597,27.0015 120.2905,26.4204 Z " fill="#000000"/><text fill="#000000" font-family="sans-serif" font-size="14" lengthAdjust="spacing" textLength="137.9082" x="138.3174" y="28.291">Korrespondansepart</text><line style="stroke:#181818;stroke-width:0.5;" x1="8" x2="374.043" y1="39" y2="39"/><ellipse cx="18" cy="52.7441" fill="#000000" rx="3" ry="3" style="stroke:#000000;stroke-width:1;"/><text fill="#000000" font-family="sans-serif" font-size="14" lengthAdjust="spacing" textLength="342.043" x="27" y="56.5352">korrespondanseparttype: Korrespondanseparttype</text><ellipse cx="18" cy="69.2324" fill="#000000" rx="3" ry="3" style="stroke:#000000;stroke-width:1;"/><text fill="#000000" font-family="sans-serif" font-size="14" lengthAdjust="spacing" textLength="217.7314" x="27" y="73.0234">korrespondansepartnavn: string</text><line style="stroke:#181818;stroke-width:0.5;" x1="8" x2="374.043" y1="79.9766" y2="79.9766"/></g><!--class Korrespondanseparttype--><g class="entity" data-entity="Korrespondanseparttype" data-source-line="7" data-uid="ent0003" id="entity_Korrespondanseparttype"><rect fill="#F1F1F1" height="89.5977" rx="2.5" ry="2.5" style="stroke:#181818;stroke-width:0.5;" width="199.0703" x="91.49" y="147.97"/><ellipse cx="106.49" cy="168.2805" fill="#ADD1B2" rx="11" ry="11" style="stroke:#181818;stroke-width:1;"/><path d="M108.9631,174.4236 Q108.3821,174.7224 107.7429,174.8719 Q107.1038,175.0213 106.3982,175.0213 Q103.8914,175.0213 102.5715,173.3694 Q101.2517,171.7176 101.2517,168.5965 Q101.2517,165.4671 102.5715,163.8152 Q103.8914,162.1634 106.3982,162.1634 Q107.1038,162.1634 107.7512,162.3128 Q108.3987,162.4622 108.9631,162.761 L108.9631,165.4837 Q108.3323,164.9026 107.7388,164.6328 Q107.1453,164.3631 106.5144,164.3631 Q105.1697,164.3631 104.4849,165.4297 Q103.8001,166.4964 103.8001,168.5965 Q103.8001,170.6883 104.4849,171.7549 Q105.1697,172.8216 106.5144,172.8216 Q107.1453,172.8216 107.7388,172.5518 Q108.3323,172.282 108.9631,171.701 Z " fill="#000000"/><text fill="#000000" font-family="sans-serif" font-size="12" font-style="italic" lengthAdjust="spacing" textLength="42.0176" x="183.0164" y="164.5716">&#171;Kode&#187;</text><text fill="#000000" font-family="sans-serif" font-size="14" lengthAdjust="spacing" textLength="167.0703" x="120.49" y="180.638">Korrespondanseparttype</text><line style="stroke:#181818;stroke-width:0.5;" x1="92.49" x2="289.5603" y1="188.5911" y2="188.5911"/><ellipse cx="102.49" cy="202.3352" fill="#000000" rx="3" ry="3" style="stroke:#000000;stroke-width:1;"/><text fill="#000000" font-family="sans-serif" font-size="14" lengthAdjust="spacing" textLength="115.4521" x="111.49" y="206.1263">kodeverdi: string</text><text fill="#000000" font-family="sans-serif" font-size="14" lengthAdjust="spacing" textLength="157.5547" x="111.49" y="222.6145">kodebeskrivelse: string</text><line style="stroke:#181818;stroke-width:0.5;" x1="92.49" x2="289.5603" y1="229.5677" y2="229.5677"/></g><!--link Korrespondansepart to Korrespondanseparttype--><g class="link" data-entity-1="Korrespondansepart" data-entity-2="Korrespondanseparttype" data-source-line="7" data-uid="lnk4" id="link_Korrespondansepart_Korrespondanseparttype"><path codeLine="7" d="M191.02,88.4 C191.02,106.78 191.02,128.66 191.02,147.54" fill="none" id="Korrespondansepart-Korrespondanseparttype" style="stroke:#181818;stroke-width:1;stroke-dasharray:7.0,7.0;"/></g><!--SRC=[Iyv9B2vMyCulAaejBiZFIqdCAqujI2mgKQZcKW02hMmCcPBAWbGhB3f0uhZqv2MMvLaf59SKPUQbSzLoSM6nJqyFbvbSoJZS299LiB7npaz9jRD3E3WbjIorA2KJRXz862IQb5gSNPHPbffJd8ha5W00]--></g></svg>