<svg xmlns="http://www.w3.org/2000/svg" xmlns:xlink="http://www.w3.org/1999/xlink" contentStyleType="text/css" data-diagram-type="CLASS" height="244px" preserveAspectRatio="none" style="width:383px;height:244px;background:#FFFFFF;" version="1.1" viewBox="0 0 383 244" width="383px" zoomAndPan="magnify"><defs/><g><!--class Korrespondansepart--><g class="entity" data-entity="Korrespondansepart" data-source-line="2" data-uid="ent0002" id="entity_Korrespondansepart"><rect fill="#F1F1F1" height="80.9766" rx="2.5" ry="2.5" style="stroke:#181818;stroke-width:0.5;" width="369" x="7" y="7"/><ellipse cx="118.2959" cy="23" fill="#ADD1B2" rx="11" ry="11" style="stroke:#181818;stroke-width:1;"/><path d="M120.769,29.1431 Q120.188,29.4419 119.5488,29.5913 Q118.9097,29.7407 118.2041,29.7407 Q115.6973,29.7407 114.3774,28.0889 Q113.0576,26.437 113.0576,23.3159 Q113.0576,20.1865 114.3774,18.5347 Q115.6973,16.8828 118.2041,16.8828 Q118.9097,16.8828 119.5571,17.0322 Q120.2046,17.1816 120.769,17.4805 L120.769,20.2031 Q120.1382,19.6221 119.5447,19.3523 Q118.9512,19.0825 118.3203,19.0825 Q116.9756,19.0825 116.2908,20.1492 Q115.606,21.2158 115.606,23.3159 Q115.606,25.4077 116.2908,26.4744 Q116.9756,27.541 118.3203,27.541 Q118.9512,27.541 119.5447,27.2712 Q120.1382,27.0015 120.769,26.4204 Z " fill="#000000"/><text fill="#000000" font-family="sans-serif" font-size="14" lengthAdjust="spacing" textLength="137.9082" x="138.7959" y="28.291">Korrespondansepart</text><line style="stroke:#181818;stroke-width:0.5;" x1="8" x2="375" y1="39" y2="39"/><ellipse cx="18" cy="52.7441" fill="#000000" rx="3" ry="3" style="stroke:#000000;stroke-width:1;"/><text fill="#000000" font-family="sans-serif" font-size="14" lengthAdjust="spacing" textLength="343" x="27" y="56.5352">Korrespondanseparttype: Korrespondanseparttype</text><ellipse cx="18" cy="69.2324" fill="#000000" rx="3" ry="3" style="stroke:#000000;stroke-width:1;"/><text fill="#000000" font-family="sans-serif" font-size="14" lengthAdjust="spacing" textLength="217.7314" x="27" y="73.0234">korrespondansepartnavn: string</text><line style="stroke:#181818;stroke-width:0.5;" x1="8" x2="375" y1="79.9766" y2="79.9766"/></g><!--class Korrespondanseparttype--><g class="entity" data-entity="Korrespondanseparttype" data-source-line="7" data-uid="ent0003" id="entity_Korrespondanseparttype"><rect fill="#F1F1F1" height="89.5977" rx="2.5" ry="2.5" style="stroke:#181818;stroke-width:0.5;" width="199.0703" x="91.96" y="147.97"/><ellipse cx="106.96" cy="168.2805" fill="#ADD1B2" rx="11" ry="11" style="stroke:#181818;stroke-width:1;"/><path d="M109.4331,174.4236 Q108.8521,174.7224 108.2129,174.8719 Q107.5738,175.0213 106.8682,175.0213 Q104.3614,175.0213 103.0415,173.3694 Q101.7217,171.7176 101.7217,168.5965 Q101.7217,165.4671 103.0415,163.8152 Q104.3614,162.1634 106.8682,162.1634 Q107.5738,162.1634 108.2212,162.3128 Q108.8687,162.4622 109.4331,162.761 L109.4331,165.4837 Q108.8023,164.9026 108.2088,164.6328 Q107.6153,164.3631 106.9844,164.3631 Q105.6397,164.3631 104.9549,165.4297 Q104.2701,166.4964 104.2701,168.5965 Q104.2701,170.6883 104.9549,171.7549 Q105.6397,172.8216 106.9844,172.8216 Q107.6153,172.8216 108.2088,172.5518 Q108.8023,172.282 109.4331,171.701 Z " fill="#000000"/><text fill="#000000" font-family="sans-serif" font-size="12" font-style="italic" lengthAdjust="spacing" textLength="42.0176" x="183.4864" y="164.5716">&#171;Kode&#187;</text><text fill="#000000" font-family="sans-serif" font-size="14" lengthAdjust="spacing" textLength="167.0703" x="120.96" y="180.638">Korrespondanseparttype</text><line style="stroke:#181818;stroke-width:0.5;" x1="92.96" x2="290.0303" y1="188.5911" y2="188.5911"/><ellipse cx="102.96" cy="202.3352" fill="#000000" rx="3" ry="3" style="stroke:#000000;stroke-width:1;"/><text fill="#000000" font-family="sans-serif" font-size="14" lengthAdjust="spacing" textLength="115.4521" x="111.96" y="206.1263">kodeverdi: string</text><text fill="#000000" font-family="sans-serif" font-size="14" lengthAdjust="spacing" textLength="157.5547" x="111.96" y="222.6145">kodebeskrivelse: string</text><line style="stroke:#181818;stroke-width:0.5;" x1="92.96" x2="290.0303" y1="229.5677" y2="229.5677"/></g><!--link Korrespondansepart to Korrespondanseparttype--><g class="link" data-entity-1="Korrespondansepart" data-entity-2="Korrespondanseparttype" data-source-line="7" data-uid="lnk4" id="link_Korrespondansepart_Korrespondanseparttype"><path codeLine="7" d="M191.5,88.4 C191.5,106.78 191.5,128.66 191.5,147.54" fill="none" id="Korrespondansepart-Korrespondanseparttype" style="stroke:#181818;stroke-width:1;stroke-dasharray:7.0,7.0;"/></g><!--SRC=[TOx12O0m34NlcI9d3muWuW9EKMsGKabBKWeYxgv5547DBV-H_3VEHXNx848Q0rl3Ij58mXNmcEfDqXAfmU_ylF4lnYPpWvh4yGGRm4TVNV_zXF77iL1ispvOwhfBs1zR9h7kxYjnIGTIBoxJhFHmsG40]--></g></svg>