<svg xmlns="http://www.w3.org/2000/svg" xmlns:xlink="http://www.w3.org/1999/xlink" contentStyleType="text/css" height="178px" preserveAspectRatio="none" style="width:495px;height:178px;background:#FFFFFF;" version="1.1" viewBox="0 0 495 178" width="495px" zoomAndPan="magnify"><defs/><g><!--class HentSaksfase--><g id="elem_HentSaksfase"><rect codeLine="1" fill="#F1F1F1" height="64.4883" id="HentSaksfase" rx="2.5" ry="2.5" style="stroke:#181818;stroke-width:0.5;" width="123" x="185.5" y="106.62"/><ellipse cx="200.5" cy="122.62" fill="#ADD1B2" rx="11" ry="11" style="stroke:#181818;stroke-width:1.0;"/><path d="M202.9731,128.7631 Q202.3921,129.0619 201.7529,129.2113 Q201.1138,129.3607 200.4082,129.3607 Q197.9014,129.3607 196.5815,127.7089 Q195.2617,126.057 195.2617,122.9359 Q195.2617,119.8065 196.5815,118.1547 Q197.9014,116.5028 200.4082,116.5028 Q201.1138,116.5028 201.7612,116.6522 Q202.4087,116.8016 202.9731,117.1005 L202.9731,119.8231 Q202.3423,119.2421 201.7488,118.9723 Q201.1553,118.7025 200.5244,118.7025 Q199.1797,118.7025 198.4949,119.7692 Q197.8101,120.8358 197.8101,122.9359 Q197.8101,125.0277 198.4949,126.0944 Q199.1797,127.161 200.5244,127.161 Q201.1553,127.161 201.7488,126.8912 Q202.3423,126.6215 202.9731,126.0404 Z " fill="#000000"/><text fill="#000000" font-family="sans-serif" font-size="14" lengthAdjust="spacing" textLength="91" x="214.5" y="127.911">HentSaksfase</text><line style="stroke:#181818;stroke-width:0.5;" x1="186.5" x2="307.5" y1="138.62" y2="138.62"/><ellipse cx="196.5" cy="152.3641" fill="none" rx="3" ry="3" style="stroke:#038048;stroke-width:1.0;"/><text fill="#000000" font-family="sans-serif" font-size="14" lengthAdjust="spacing" textLength="89" x="205.5" y="156.1552">faseid: string</text><line style="stroke:#181818;stroke-width:0.5;" x1="186.5" x2="307.5" y1="163.1083" y2="163.1083"/></g><g id="elem_GMN3"><path d="M6,6 L6,46.6211 A0,0 0 0 0 6,46.6211 L243,46.6211 L247,106.14 L251,46.6211 L488,46.6211 A0,0 0 0 0 488,46.6211 L488,16 L478,6 L6,6 A0,0 0 0 0 6,6 " fill="#FEFFDD" style="stroke:#181818;stroke-width:0.5;"/><path d="M478,6 L478,16 L488,16 L478,6 " fill="#FEFFDD" style="stroke:#181818;stroke-width:0.5;"/><text fill="#000000" font-family="sans-serif" font-size="13" lengthAdjust="spacing" textLength="385" x="12" y="23.5684">Kun faseid som n&#248;kkel og ikke n&#248;dvendig med saksnummer.</text><text fill="#000000" font-family="sans-serif" font-size="13" lengthAdjust="spacing" textLength="461" x="12" y="38.8789">Faseid skal v&#230;re tilstrekkelig som id for &#229; kunne hente en fase fra en sak</text></g><!--SRC=[LOqx3W8n34Jxd69w90wm1q18bBGq4N52bCH1-Mo3E0wSWJuNmz7Iu6ei-ysxHbqhZiJjh4ErkX8U2ZAxcRrPK5lnxDHJSMw4bk_8zXzOSEgCxHyr9_3uX40HsS5BcBjPYOrtI2Gl0d9FYSh-meSV5dJ4Ejv553wAasQ30BDFxZONZ1T2PoRSn4wWpGbRzCpIYYy0]--></g></svg>