<svg xmlns="http://www.w3.org/2000/svg" xmlns:xlink="http://www.w3.org/1999/xlink" contentStyleType="text/css" data-diagram-type="CLASS" height="178px" preserveAspectRatio="none" style="width:495px;height:178px;background:#FFFFFF;" version="1.1" viewBox="0 0 495 178" width="495px" zoomAndPan="magnify"><defs/><g><!--class HentSaksfase--><g class="entity" data-entity="HentSaksfase" data-source-line="1" data-uid="ent0002" id="entity_HentSaksfase"><rect fill="#F1F1F1" height="64.4883" rx="2.5" ry="2.5" style="stroke:#181818;stroke-width:0.5;" width="122.4189" x="185.87" y="106.62"/><ellipse cx="200.87" cy="122.62" fill="#ADD1B2" rx="11" ry="11" style="stroke:#181818;stroke-width:1;"/><path d="M203.3431,128.7631 Q202.7621,129.0619 202.1229,129.2113 Q201.4838,129.3607 200.7782,129.3607 Q198.2714,129.3607 196.9515,127.7089 Q195.6317,126.057 195.6317,122.9359 Q195.6317,119.8065 196.9515,118.1547 Q198.2714,116.5028 200.7782,116.5028 Q201.4838,116.5028 202.1312,116.6522 Q202.7787,116.8016 203.3431,117.1005 L203.3431,119.8231 Q202.7123,119.2421 202.1188,118.9723 Q201.5253,118.7025 200.8944,118.7025 Q199.5497,118.7025 198.8649,119.7692 Q198.1801,120.8358 198.1801,122.9359 Q198.1801,125.0277 198.8649,126.0944 Q199.5497,127.161 200.8944,127.161 Q201.5253,127.161 202.1188,126.8912 Q202.7123,126.6215 203.3431,126.0404 Z " fill="#000000"/><text fill="#000000" font-family="sans-serif" font-size="14" lengthAdjust="spacing" textLength="90.4189" x="214.87" y="127.911">HentSaksfase</text><line style="stroke:#181818;stroke-width:0.5;" x1="186.87" x2="307.2889" y1="138.62" y2="138.62"/><ellipse cx="196.87" cy="152.3641" fill="#000000" rx="3" ry="3" style="stroke:#000000;stroke-width:1;"/><text fill="#000000" font-family="sans-serif" font-size="14" lengthAdjust="spacing" textLength="89.0996" x="205.87" y="156.1552">faseid: string</text><line style="stroke:#181818;stroke-width:0.5;" x1="186.87" x2="307.2889" y1="163.1083" y2="163.1083"/></g><g class="entity" data-entity="GMN3" data-source-line="4" data-uid="ent0004" id="entity_GMN3"><path d="M6,6 L6,46.6211 A0,0 0 0 0 6,46.6211 L243.08,46.6211 L247.08,106.14 L251.08,46.6211 L488.1636,46.6211 A0,0 0 0 0 488.1636,46.6211 L488.1636,16 L478.1636,6 L6,6 A0,0 0 0 0 6,6" fill="#FEFFDD" style="stroke:#181818;stroke-width:0.5;"/><path d="M478.1636,6 L478.1636,16 L488.1636,16 L478.1636,6" fill="#FEFFDD" style="stroke:#181818;stroke-width:0.5;"/><text fill="#000000" font-family="sans-serif" font-size="13" lengthAdjust="spacing" textLength="385.582" x="12" y="23.5684">Kun faseid som n&#248;kkel og ikke n&#248;dvendig med saksnummer.</text><text fill="#000000" font-family="sans-serif" font-size="13" lengthAdjust="spacing" textLength="461.1636" x="12" y="38.8789">Faseid skal v&#230;re tilstrekkelig som id for &#229; kunne hente en fase fra en sak</text></g><!--SRC=[LOqx3W8n34Jxd69g2Wwm1q18bBGq4N52bCH1-Mo3E0wSWJuNmz7Iu6ei-ysxHbqhZiJjh4ErkX8U2ZAxcRrPK5lnxDHJSMw4bk_8zXzOSEgCxHyr9_3uX40HsS5BcBjPYOrtI2Gl0d9FYSh-meSV5dJ4Ejv553wAasQ30BDFxZONZ1T2PoRSn4wWpGbRzCpIYYy0]--></g></svg>