<svg xmlns="http://www.w3.org/2000/svg" xmlns:xlink="http://www.w3.org/1999/xlink" contentStyleType="text/css" height="178px" preserveAspectRatio="none" style="width:495px;height:178px;background:#FFFFFF;" version="1.1" viewBox="0 0 495 178" width="495px" zoomAndPan="magnify"><defs/><g><!--class HentFase--><g id="elem_HentFase"><rect codeLine="1" fill="#F1F1F1" height="64.4883" id="HentFase" rx="2.5" ry="2.5" style="stroke:#181818;stroke-width:0.5;" width="115" x="189.5" y="106.62"/><ellipse cx="213.5" cy="122.62" fill="#ADD1B2" rx="11" ry="11" style="stroke:#181818;stroke-width:1.0;"/><path d="M215.9731,128.7631 Q215.3921,129.0619 214.7529,129.2113 Q214.1138,129.3607 213.4082,129.3607 Q210.9014,129.3607 209.5815,127.7089 Q208.2617,126.057 208.2617,122.9359 Q208.2617,119.8065 209.5815,118.1547 Q210.9014,116.5028 213.4082,116.5028 Q214.1138,116.5028 214.7612,116.6522 Q215.4087,116.8016 215.9731,117.1005 L215.9731,119.8231 Q215.3423,119.2421 214.7488,118.9723 Q214.1553,118.7025 213.5244,118.7025 Q212.1797,118.7025 211.4949,119.7692 Q210.8101,120.8358 210.8101,122.9359 Q210.8101,125.0277 211.4949,126.0944 Q212.1797,127.161 213.5244,127.161 Q214.1553,127.161 214.7488,126.8912 Q215.3423,126.6215 215.9731,126.0404 Z " fill="#000000"/><text fill="#000000" font-family="sans-serif" font-size="14" lengthAdjust="spacing" textLength="63" x="229.5" y="127.911">HentFase</text><line style="stroke:#181818;stroke-width:0.5;" x1="190.5" x2="303.5" y1="138.62" y2="138.62"/><ellipse cx="200.5" cy="152.3641" fill="none" rx="3" ry="3" style="stroke:#038048;stroke-width:1.0;"/><text fill="#000000" font-family="sans-serif" font-size="14" lengthAdjust="spacing" textLength="89" x="209.5" y="156.1552">faseid: string</text><line style="stroke:#181818;stroke-width:0.5;" x1="190.5" x2="303.5" y1="163.1083" y2="163.1083"/></g><g id="elem_GMN3"><path d="M6,6 L6,46.6211 A0,0 0 0 0 6,46.6211 L243,46.6211 L247,106.14 L251,46.6211 L488,46.6211 A0,0 0 0 0 488,46.6211 L488,16 L478,6 L6,6 A0,0 0 0 0 6,6 " fill="#FEFFDD" style="stroke:#181818;stroke-width:0.5;"/><path d="M478,6 L478,16 L488,16 L478,6 " fill="#FEFFDD" style="stroke:#181818;stroke-width:0.5;"/><text fill="#000000" font-family="sans-serif" font-size="13" lengthAdjust="spacing" textLength="385" x="12" y="23.5684">Kun faseid som n&#248;kkel og ikke n&#248;dvendig med saksnummer.</text><text fill="#000000" font-family="sans-serif" font-size="13" lengthAdjust="spacing" textLength="461" x="12" y="38.8789">Faseid skal v&#230;re tilstrekkelig som id for &#229; kunne hente en fase fra en sak</text></g><!--SRC=[HOtD3K8X48JlL35t4mju1RoOs88N8WiIO37yl8kn7At1Eusvv9cufzdCp3VNg6l5YRYjkX8U2d87AzgR1RKLpquz5UT6QFcERF_X1UVEsBEeEO779mIAo0vUnFpDHcoyGoA9w52vfqJbUE7rLmiwOXll8dWVPOycGGgJ9xxD1UE5q9a9DracqBu9M_JKGiKN]--></g></svg>