<svg xmlns="http://www.w3.org/2000/svg" xmlns:xlink="http://www.w3.org/1999/xlink" contentStyleType="text/css" height="433px" preserveAspectRatio="none" style="width:871px;height:433px;background:#FFFFFF;" version="1.1" viewBox="0 0 871 433" width="871px" zoomAndPan="magnify"><defs/><g><!--class Byggesak--><g id="elem_Byggesak"><rect codeLine="1" fill="#F1F1F1" height="245.8594" id="Byggesak" rx="2.5" ry="2.5" style="stroke:#181818;stroke-width:0.5;" width="341" x="162" y="72.27"/><ellipse cx="296.25" cy="88.27" fill="#ADD1B2" rx="11" ry="11" style="stroke:#181818;stroke-width:1.0;"/><path d="M298.7231,94.4131 Q298.1421,94.7119 297.5029,94.8613 Q296.8638,95.0107 296.1582,95.0107 Q293.6514,95.0107 292.3315,93.3589 Q291.0117,91.707 291.0117,88.5859 Q291.0117,85.4565 292.3315,83.8047 Q293.6514,82.1528 296.1582,82.1528 Q296.8638,82.1528 297.5112,82.3022 Q298.1587,82.4516 298.7231,82.7505 L298.7231,85.4731 Q298.0923,84.8921 297.4988,84.6223 Q296.9053,84.3525 296.2744,84.3525 Q294.9297,84.3525 294.2449,85.4192 Q293.5601,86.4858 293.5601,88.5859 Q293.5601,90.6777 294.2449,91.7444 Q294.9297,92.811 296.2744,92.811 Q296.9053,92.811 297.4988,92.5412 Q298.0923,92.2715 298.7231,91.6904 Z " fill="#000000"/><text fill="#000000" font-family="sans-serif" font-size="14" lengthAdjust="spacing" textLength="64" x="316.75" y="93.561">Byggesak</text><line style="stroke:#181818;stroke-width:0.5;" x1="163" x2="502" y1="104.27" y2="104.27"/><ellipse cx="173" cy="118.0141" fill="none" rx="3" ry="3" style="stroke:#038048;stroke-width:1.0;"/><text fill="#000000" font-family="sans-serif" font-size="14" lengthAdjust="spacing" textLength="185" x="182" y="121.8052">saksnummer: Saksnummer</text><ellipse cx="173" cy="134.5024" fill="none" rx="3" ry="3" style="stroke:#038048;stroke-width:1.0;"/><text fill="#000000" font-family="sans-serif" font-size="14" lengthAdjust="spacing" textLength="108" x="182" y="138.2934">systemId: string</text><ellipse cx="173" cy="150.9907" fill="none" rx="3" ry="3" style="stroke:#038048;stroke-width:1.0;"/><text fill="#000000" font-family="sans-serif" font-size="14" lengthAdjust="spacing" textLength="79" x="182" y="154.7817">tittel: string</text><ellipse cx="173" cy="167.479" fill="none" rx="3" ry="3" style="stroke:#038048;stroke-width:1.0;"/><text fill="#000000" font-family="sans-serif" font-size="14" lengthAdjust="spacing" textLength="119" x="182" y="171.27">tiltakstype: Kode?</text><ellipse cx="173" cy="183.9673" fill="none" rx="3" ry="3" style="stroke:#038048;stroke-width:1.0;"/><text fill="#000000" font-family="sans-serif" font-size="14" lengthAdjust="spacing" textLength="116" x="182" y="187.7583">adresse: Adresse</text><ellipse cx="173" cy="200.4555" fill="none" rx="3" ry="3" style="stroke:#038048;stroke-width:1.0;"/><text fill="#000000" font-family="sans-serif" font-size="14" lengthAdjust="spacing" textLength="130" x="182" y="204.2466">registrerDato: dato</text><ellipse cx="173" cy="216.9438" fill="none" rx="3" ry="3" style="stroke:#038048;stroke-width:1.0;"/><text fill="#000000" font-family="sans-serif" font-size="14" lengthAdjust="spacing" textLength="129" x="182" y="220.7348">avsluttetDato: dato</text><ellipse cx="173" cy="233.4321" fill="none" rx="3" ry="3" style="stroke:#038048;stroke-width:1.0;"/><text fill="#000000" font-family="sans-serif" font-size="14" lengthAdjust="spacing" textLength="267" x="182" y="237.2231">gjeldendePlaner: NasjonalArealplanId[]</text><ellipse cx="173" cy="249.9204" fill="none" rx="3" ry="3" style="stroke:#038048;stroke-width:1.0;"/><text fill="#000000" font-family="sans-serif" font-size="14" lengthAdjust="spacing" textLength="315" x="182" y="253.7114">matrikkelopplysninger: Matrikkelopplysninger</text><ellipse cx="173" cy="266.4087" fill="none" rx="3" ry="3" style="stroke:#038048;stroke-width:1.0;"/><text fill="#000000" font-family="sans-serif" font-size="14" lengthAdjust="spacing" textLength="123" x="182" y="270.1997">posisjon: Posisjon</text><ellipse cx="173" cy="282.897" fill="none" rx="3" ry="3" style="stroke:#038048;stroke-width:1.0;"/><text fill="#000000" font-family="sans-serif" font-size="14" lengthAdjust="spacing" textLength="252" x="182" y="286.688">referanseAndreSaker: Saksnummer[]</text><ellipse cx="173" cy="299.3852" fill="none" rx="3" ry="3" style="stroke:#038048;stroke-width:1.0;"/><text fill="#000000" font-family="sans-serif" font-size="14" lengthAdjust="spacing" textLength="247" x="182" y="303.1763">referanseKlagesaker: Saksnummer[]</text><line style="stroke:#181818;stroke-width:0.5;" x1="163" x2="502" y1="310.1294" y2="310.1294"/></g><!--class Saksnummer--><g id="elem_Saksnummer"><rect fill="#F1F1F1" height="48" id="Saksnummer" rx="2.5" ry="2.5" style="stroke:#181818;stroke-width:0.5;" width="121" x="743" y="171.2"/><ellipse cx="758" cy="187.2" fill="#ADD1B2" rx="11" ry="11" style="stroke:#181818;stroke-width:1.0;"/><path d="M760.4731,193.3431 Q759.8921,193.6419 759.2529,193.7913 Q758.6138,193.9407 757.9082,193.9407 Q755.4014,193.9407 754.0815,192.2889 Q752.7617,190.637 752.7617,187.5159 Q752.7617,184.3865 754.0815,182.7347 Q755.4014,181.0828 757.9082,181.0828 Q758.6138,181.0828 759.2612,181.2322 Q759.9087,181.3816 760.4731,181.6805 L760.4731,184.4031 Q759.8423,183.8221 759.2488,183.5523 Q758.6553,183.2825 758.0244,183.2825 Q756.6797,183.2825 755.9949,184.3492 Q755.3101,185.4158 755.3101,187.5159 Q755.3101,189.6077 755.9949,190.6744 Q756.6797,191.741 758.0244,191.741 Q758.6553,191.741 759.2488,191.4712 Q759.8423,191.2015 760.4731,190.6204 Z " fill="#000000"/><text fill="#000000" font-family="sans-serif" font-size="14" lengthAdjust="spacing" textLength="89" x="772" y="192.491">Saksnummer</text><line style="stroke:#181818;stroke-width:0.5;" x1="744" x2="863" y1="203.2" y2="203.2"/><line style="stroke:#181818;stroke-width:0.5;" x1="744" x2="863" y1="211.2" y2="211.2"/></g><!--class NasjonalArealplanId--><g id="elem_NasjonalArealplanId"><rect fill="#F1F1F1" height="48" id="NasjonalArealplanId" rx="2.5" ry="2.5" style="stroke:#181818;stroke-width:0.5;" width="170" x="537.5" y="171.2"/><ellipse cx="552.5" cy="187.2" fill="#ADD1B2" rx="11" ry="11" style="stroke:#181818;stroke-width:1.0;"/><path d="M554.9731,193.3431 Q554.3921,193.6419 553.7529,193.7913 Q553.1138,193.9407 552.4082,193.9407 Q549.9014,193.9407 548.5815,192.2889 Q547.2617,190.637 547.2617,187.5159 Q547.2617,184.3865 548.5815,182.7347 Q549.9014,181.0828 552.4082,181.0828 Q553.1138,181.0828 553.7612,181.2322 Q554.4087,181.3816 554.9731,181.6805 L554.9731,184.4031 Q554.3423,183.8221 553.7488,183.5523 Q553.1553,183.2825 552.5244,183.2825 Q551.1797,183.2825 550.4949,184.3492 Q549.8101,185.4158 549.8101,187.5159 Q549.8101,189.6077 550.4949,190.6744 Q551.1797,191.741 552.5244,191.741 Q553.1553,191.741 553.7488,191.4712 Q554.3423,191.2015 554.9731,190.6204 Z " fill="#000000"/><text fill="#000000" font-family="sans-serif" font-size="14" lengthAdjust="spacing" textLength="138" x="566.5" y="192.491">NasjonalArealplanId</text><line style="stroke:#181818;stroke-width:0.5;" x1="538.5" x2="706.5" y1="203.2" y2="203.2"/><line style="stroke:#181818;stroke-width:0.5;" x1="538.5" x2="706.5" y1="211.2" y2="211.2"/></g><!--class Matrikkelopplysninger--><g id="elem_Matrikkelopplysninger"><rect fill="#F1F1F1" height="48" id="Matrikkelopplysninger" rx="2.5" ry="2.5" style="stroke:#181818;stroke-width:0.5;" width="185" x="7" y="378.13"/><ellipse cx="22" cy="394.13" fill="#ADD1B2" rx="11" ry="11" style="stroke:#181818;stroke-width:1.0;"/><path d="M24.4731,400.2731 Q23.8921,400.5719 23.2529,400.7213 Q22.6138,400.8707 21.9082,400.8707 Q19.4014,400.8707 18.0815,399.2189 Q16.7617,397.567 16.7617,394.4459 Q16.7617,391.3165 18.0815,389.6647 Q19.4014,388.0128 21.9082,388.0128 Q22.6138,388.0128 23.2612,388.1622 Q23.9087,388.3116 24.4731,388.6105 L24.4731,391.3331 Q23.8423,390.7521 23.2488,390.4823 Q22.6553,390.2125 22.0244,390.2125 Q20.6797,390.2125 19.9949,391.2792 Q19.3101,392.3458 19.3101,394.4459 Q19.3101,396.5377 19.9949,397.6044 Q20.6797,398.671 22.0244,398.671 Q22.6553,398.671 23.2488,398.4012 Q23.8423,398.1315 24.4731,397.5504 Z " fill="#000000"/><text fill="#000000" font-family="sans-serif" font-size="14" lengthAdjust="spacing" textLength="153" x="36" y="399.421">Matrikkelopplysninger</text><line style="stroke:#181818;stroke-width:0.5;" x1="8" x2="191" y1="410.13" y2="410.13"/><line style="stroke:#181818;stroke-width:0.5;" x1="8" x2="191" y1="418.13" y2="418.13"/></g><!--class Posisjon--><g id="elem_Posisjon"><rect fill="#F1F1F1" height="48" id="Posisjon" rx="2.5" ry="2.5" style="stroke:#181818;stroke-width:0.5;" width="89" x="227" y="378.13"/><ellipse cx="242" cy="394.13" fill="#ADD1B2" rx="11" ry="11" style="stroke:#181818;stroke-width:1.0;"/><path d="M244.4731,400.2731 Q243.8921,400.5719 243.2529,400.7213 Q242.6138,400.8707 241.9082,400.8707 Q239.4014,400.8707 238.0815,399.2189 Q236.7617,397.567 236.7617,394.4459 Q236.7617,391.3165 238.0815,389.6647 Q239.4014,388.0128 241.9082,388.0128 Q242.6138,388.0128 243.2612,388.1622 Q243.9087,388.3116 244.4731,388.6105 L244.4731,391.3331 Q243.8423,390.7521 243.2488,390.4823 Q242.6553,390.2125 242.0244,390.2125 Q240.6797,390.2125 239.9949,391.2792 Q239.3101,392.3458 239.3101,394.4459 Q239.3101,396.5377 239.9949,397.6044 Q240.6797,398.671 242.0244,398.671 Q242.6553,398.671 243.2488,398.4012 Q243.8423,398.1315 244.4731,397.5504 Z " fill="#000000"/><text fill="#000000" font-family="sans-serif" font-size="14" lengthAdjust="spacing" textLength="57" x="256" y="399.421">Posisjon</text><line style="stroke:#181818;stroke-width:0.5;" x1="228" x2="315" y1="410.13" y2="410.13"/><line style="stroke:#181818;stroke-width:0.5;" x1="228" x2="315" y1="418.13" y2="418.13"/></g><!--class Adresse--><g id="elem_Adresse"><rect fill="#F1F1F1" height="48" id="Adresse" rx="2.5" ry="2.5" style="stroke:#181818;stroke-width:0.5;" width="87" x="351" y="378.13"/><ellipse cx="366" cy="394.13" fill="#ADD1B2" rx="11" ry="11" style="stroke:#181818;stroke-width:1.0;"/><path d="M368.4731,400.2731 Q367.8921,400.5719 367.2529,400.7213 Q366.6138,400.8707 365.9082,400.8707 Q363.4014,400.8707 362.0815,399.2189 Q360.7617,397.567 360.7617,394.4459 Q360.7617,391.3165 362.0815,389.6647 Q363.4014,388.0128 365.9082,388.0128 Q366.6138,388.0128 367.2612,388.1622 Q367.9087,388.3116 368.4731,388.6105 L368.4731,391.3331 Q367.8423,390.7521 367.2488,390.4823 Q366.6553,390.2125 366.0244,390.2125 Q364.6797,390.2125 363.9949,391.2792 Q363.3101,392.3458 363.3101,394.4459 Q363.3101,396.5377 363.9949,397.6044 Q364.6797,398.671 366.0244,398.671 Q366.6553,398.671 367.2488,398.4012 Q367.8423,398.1315 368.4731,397.5504 Z " fill="#000000"/><text fill="#000000" font-family="sans-serif" font-size="14" lengthAdjust="spacing" textLength="55" x="380" y="399.421">Adresse</text><line style="stroke:#181818;stroke-width:0.5;" x1="352" x2="437" y1="410.13" y2="410.13"/><line style="stroke:#181818;stroke-width:0.5;" x1="352" x2="437" y1="418.13" y2="418.13"/></g><!--class Kode--><g id="elem_Kode"><rect fill="#F1F1F1" height="48" id="Kode" rx="2.5" ry="2.5" style="stroke:#181818;stroke-width:0.5;" width="67" x="473" y="378.13"/><ellipse cx="488" cy="394.13" fill="#ADD1B2" rx="11" ry="11" style="stroke:#181818;stroke-width:1.0;"/><path d="M490.4731,400.2731 Q489.8921,400.5719 489.2529,400.7213 Q488.6138,400.8707 487.9082,400.8707 Q485.4014,400.8707 484.0815,399.2189 Q482.7617,397.567 482.7617,394.4459 Q482.7617,391.3165 484.0815,389.6647 Q485.4014,388.0128 487.9082,388.0128 Q488.6138,388.0128 489.2612,388.1622 Q489.9087,388.3116 490.4731,388.6105 L490.4731,391.3331 Q489.8423,390.7521 489.2488,390.4823 Q488.6553,390.2125 488.0244,390.2125 Q486.6797,390.2125 485.9949,391.2792 Q485.3101,392.3458 485.3101,394.4459 Q485.3101,396.5377 485.9949,397.6044 Q486.6797,398.671 488.0244,398.671 Q488.6553,398.671 489.2488,398.4012 Q489.8423,398.1315 490.4731,397.5504 Z " fill="#000000"/><text fill="#000000" font-family="sans-serif" font-size="14" lengthAdjust="spacing" textLength="35" x="502" y="399.421">Kode</text><line style="stroke:#181818;stroke-width:0.5;" x1="474" x2="539" y1="410.13" y2="410.13"/><line style="stroke:#181818;stroke-width:0.5;" x1="474" x2="539" y1="418.13" y2="418.13"/></g><!--link Byggesak to Saksnummer--><g id="link_Byggesak_Saksnummer"><path codeLine="16" d="M475.36,71.78 C495.36,59.76 516.47,49.4 538,42.27 C609.3,18.65 641.23,6 707,42.27 C756.9,69.79 780.7648,123.7726 792.6348,159.4826 " fill="none" id="Byggesak-to-Saksnummer" style="stroke:#181818;stroke-width:1.0;"/><polygon fill="#181818" points="796.42,170.87,798.3232,163.9146,792.6348,159.4826,790.7316,166.438,796.42,170.87" style="stroke:#181818;stroke-width:1.0;"/></g><!--link Byggesak to NasjonalArealplanId--><g id="link_Byggesak_NasjonalArealplanId"><path codeLine="17" d="M503.27,195.2 C514.6,195.2 513.94,195.2 525.27,195.2 " fill="none" id="Byggesak-to-NasjonalArealplanId" style="stroke:#181818;stroke-width:1.0;"/><polygon fill="#181818" points="537.27,195.2,531.27,191.2,525.27,195.2,531.27,199.2,537.27,195.2" style="stroke:#181818;stroke-width:1.0;"/></g><!--link Byggesak to Matrikkelopplysninger--><g id="link_Byggesak_Matrikkelopplysninger"><path codeLine="18" d="M193.6,318.37 C167.67,341.17 143.29,362.62 125.84,377.96 " fill="none" id="Byggesak-Matrikkelopplysninger" style="stroke:#181818;stroke-width:1.0;"/></g><!--link Byggesak to Posisjon--><g id="link_Byggesak_Posisjon"><path codeLine="19" d="M296.14,318.37 C289.35,341.17 282.96,362.62 278.4,377.96 " fill="none" id="Byggesak-Posisjon" style="stroke:#181818;stroke-width:1.0;"/></g><!--link Byggesak to Adresse--><g id="link_Byggesak_Adresse"><path codeLine="20" d="M369.46,318.37 C376.36,341.17 382.85,362.62 387.49,377.96 " fill="none" id="Byggesak-Adresse" style="stroke:#181818;stroke-width:1.0;"/></g><!--link Byggesak to Kode--><g id="link_Byggesak_Kode"><path codeLine="21" d="M436.23,318.37 C455.59,341.17 473.8,362.62 486.83,377.96 " fill="none" id="Byggesak-Kode" style="stroke:#181818;stroke-width:1.0;"/></g><!--SRC=[TP71QiCm38RlUGgVD_e2leoCNKhPAEmuUX2rPj8ejh7KGXXxzofp4hokyy68Jx_itx-F1CpcUVGU6NhprHXTZrfoE0y3PclUrthkZImuR9qrBBaBlb3fH91k6OaEovZGcbrq-5Guk8pCojfI59hHTpgD-GKaMkDqd-KNfhEUBhSDVq9o61pk2S9azGtu50DGcn4eATowZqFH3g36-XuffaGZ1pKvJRpUmsKYHUwcuwpPpzNYynCp1COsg7rDvtT8ouMhR4Vma-qVsNVJhBbl7kgSQtpdJLL_yyyBQiLgluPBz3MRlgYv0W00]--></g></svg>