<svg xmlns="http://www.w3.org/2000/svg" xmlns:xlink="http://www.w3.org/1999/xlink" contentStyleType="text/css" data-diagram-type="CLASS" height="151px" preserveAspectRatio="none" style="width:371px;height:151px;background:#FFFFFF;" version="1.1" viewBox="0 0 371 151" width="371px" zoomAndPan="magnify"><defs/><g><!--class ReferanseJournalpost--><g id="elem_ReferanseJournalpost"><rect codeLine="2" fill="#F1F1F1" height="130.4414" id="ReferanseJournalpost" rx="2.5" ry="2.5" style="stroke:#181818;stroke-width:0.5;" width="350.9736" x="7" y="7"/><ellipse cx="106.0835" cy="23" fill="#ADD1B2" rx="11" ry="11" style="stroke:#181818;stroke-width:1;"/><path d="M108.5566,29.1431 Q107.9756,29.4419 107.3364,29.5913 Q106.6973,29.7407 105.9917,29.7407 Q103.4849,29.7407 102.165,28.0889 Q100.8452,26.437 100.8452,23.3159 Q100.8452,20.1865 102.165,18.5347 Q103.4849,16.8828 105.9917,16.8828 Q106.6973,16.8828 107.3447,17.0322 Q107.9922,17.1816 108.5566,17.4805 L108.5566,20.2031 Q107.9258,19.6221 107.3323,19.3523 Q106.7388,19.0825 106.1079,19.0825 Q104.7632,19.0825 104.0784,20.1492 Q103.3936,21.2158 103.3936,23.3159 Q103.3936,25.4077 104.0784,26.4744 Q104.7632,27.541 106.1079,27.541 Q106.7388,27.541 107.3323,27.2712 Q107.9258,27.0015 108.5566,26.4204 Z " fill="#000000"/><text fill="#000000" font-family="sans-serif" font-size="14" lengthAdjust="spacing" textLength="144.3066" x="126.5835" y="28.291">ReferanseJournalpost</text><line style="stroke:#181818;stroke-width:0.5;" x1="8" x2="356.9736" y1="39" y2="39"/><text fill="#000000" font-family="sans-serif" font-size="14" lengthAdjust="spacing" textLength="108.9648" x="13" y="56.5352">systemId: string</text><text fill="#000000" font-family="sans-serif" font-size="14" lengthAdjust="spacing" textLength="149.4814" x="13" y="73.0234">registreringsID: string</text><text fill="#000000" font-family="sans-serif" font-size="14" lengthAdjust="spacing" textLength="218.5313" x="13" y="89.5117">journalnummer: Journalnummer</text><text fill="#000000" font-family="sans-serif" font-size="14" lengthAdjust="spacing" textLength="338.9736" x="13" y="106">saksJournalpostnummer: SaksJournalpostnummer</text><text fill="#000000" font-family="sans-serif" font-size="14" lengthAdjust="spacing" textLength="283.0488" x="13" y="122.4883">referanseEksternNoekkel: EksternNoekkel</text><line style="stroke:#181818;stroke-width:0.5;" x1="8" x2="356.9736" y1="129.4414" y2="129.4414"/></g><!--SRC=[Iyv9B2vM24fDIorAp2jEzSelBSfBp2d8BovHgEPI08BYokAIr5pF52k5ufAYpBnqi61HQdeca9iA4YZsT46Hou8OaLUQcvjQPANWXSo5c9YONOna3qnXC3PXg6rGrxbc0zrIbEUNdvgTdPfZfO3Avwhb0W00]--></g></svg>