<svg xmlns="http://www.w3.org/2000/svg" xmlns:xlink="http://www.w3.org/1999/xlink" contentStyleType="text/css" height="151px" preserveAspectRatio="none" style="width:376px;height:151px;background:#FFFFFF;" version="1.1" viewBox="0 0 376 151" width="376px" zoomAndPan="magnify"><defs/><g><!--class ReferanseJournalpost--><g id="elem_ReferanseJournalpost"><rect codeLine="2" fill="#F1F1F1" height="130.4414" id="ReferanseJournalpost" rx="2.5" ry="2.5" style="stroke:#181818;stroke-width:0.5;" width="355" x="7" y="7"/><ellipse cx="106.75" cy="23" fill="#ADD1B2" rx="11" ry="11" style="stroke:#181818;stroke-width:1.0;"/><path d="M109.2231,29.1431 Q108.6421,29.4419 108.0029,29.5913 Q107.3638,29.7407 106.6582,29.7407 Q104.1514,29.7407 102.8315,28.0889 Q101.5117,26.437 101.5117,23.3159 Q101.5117,20.1865 102.8315,18.5347 Q104.1514,16.8828 106.6582,16.8828 Q107.3638,16.8828 108.0112,17.0322 Q108.6587,17.1816 109.2231,17.4805 L109.2231,20.2031 Q108.5923,19.6221 107.9988,19.3523 Q107.4053,19.0825 106.7744,19.0825 Q105.4297,19.0825 104.7449,20.1492 Q104.0601,21.2158 104.0601,23.3159 Q104.0601,25.4077 104.7449,26.4744 Q105.4297,27.541 106.7744,27.541 Q107.4053,27.541 107.9988,27.2712 Q108.5923,27.0015 109.2231,26.4204 Z " fill="#000000"/><text fill="#000000" font-family="sans-serif" font-size="14" lengthAdjust="spacing" textLength="147" x="127.25" y="28.291">ReferanseJournalpost</text><line style="stroke:#181818;stroke-width:0.5;" x1="8" x2="361" y1="39" y2="39"/><text fill="#000000" font-family="sans-serif" font-size="14" lengthAdjust="spacing" textLength="108" x="13" y="56.5352">systemId: string</text><text fill="#000000" font-family="sans-serif" font-size="14" lengthAdjust="spacing" textLength="150" x="13" y="73.0234">registreringsID: string</text><text fill="#000000" font-family="sans-serif" font-size="14" lengthAdjust="spacing" textLength="222" x="13" y="89.5117">journalnummer: Journalnummer</text><text fill="#000000" font-family="sans-serif" font-size="14" lengthAdjust="spacing" textLength="343" x="13" y="106">saksJournalpostnummer: SaksJournalpostnummer</text><text fill="#000000" font-family="sans-serif" font-size="14" lengthAdjust="spacing" textLength="285" x="13" y="122.4883">referanseEksternNoekkel: EksternNoekkel</text><line style="stroke:#181818;stroke-width:0.5;" x1="8" x2="361" y1="129.4414" y2="129.4414"/></g><!--SRC=[Iyv9B2vM24fDIorAp2jEzSelBSfBp2d8BovHgEPI08BYokAIr5pF52k5ufAYpBnqi61HQdeca9iA4YZsT46Hou8OaLUQcvjQPANWXSo5c9YONOna3qnXC3PXg6rGrxbc0zrIbEUNdvgTdPfZfO3Avwhb0W00]--></g></svg>