<svg xmlns="http://www.w3.org/2000/svg" xmlns:xlink="http://www.w3.org/1999/xlink" contentStyleType="text/css" height="151px" preserveAspectRatio="none" style="width:390px;height:151px;background:#FFFFFF;" version="1.1" viewBox="0 0 390 151" width="390px" zoomAndPan="magnify"><defs/><g><!--class ReferanseJournalpost--><g id="elem_ReferanseJournalpost"><rect codeLine="2" fill="#F1F1F1" height="130.4414" id="ReferanseJournalpost" rx="2.5" ry="2.5" style="stroke:#181818;stroke-width:0.5;" width="369" x="7" y="7"/><ellipse cx="113.75" cy="23" fill="#ADD1B2" rx="11" ry="11" style="stroke:#181818;stroke-width:1.0;"/><path d="M116.2231,29.1431 Q115.6421,29.4419 115.0029,29.5913 Q114.3638,29.7407 113.6582,29.7407 Q111.1514,29.7407 109.8315,28.0889 Q108.5117,26.437 108.5117,23.3159 Q108.5117,20.1865 109.8315,18.5347 Q111.1514,16.8828 113.6582,16.8828 Q114.3638,16.8828 115.0112,17.0322 Q115.6587,17.1816 116.2231,17.4805 L116.2231,20.2031 Q115.5923,19.6221 114.9988,19.3523 Q114.4053,19.0825 113.7744,19.0825 Q112.4297,19.0825 111.7449,20.1492 Q111.0601,21.2158 111.0601,23.3159 Q111.0601,25.4077 111.7449,26.4744 Q112.4297,27.541 113.7744,27.541 Q114.4053,27.541 114.9988,27.2712 Q115.5923,27.0015 116.2231,26.4204 Z " fill="#000000"/><text fill="#000000" font-family="sans-serif" font-size="14" lengthAdjust="spacing" textLength="147" x="134.25" y="28.291">ReferanseJournalpost</text><line style="stroke:#181818;stroke-width:0.5;" x1="8" x2="375" y1="39" y2="39"/><ellipse cx="18" cy="52.7441" fill="none" rx="3" ry="3" style="stroke:#038048;stroke-width:1.0;"/><text fill="#000000" font-family="sans-serif" font-size="14" lengthAdjust="spacing" textLength="108" x="27" y="56.5352">systemId: string</text><ellipse cx="18" cy="69.2324" fill="none" rx="3" ry="3" style="stroke:#038048;stroke-width:1.0;"/><text fill="#000000" font-family="sans-serif" font-size="14" lengthAdjust="spacing" textLength="150" x="27" y="73.0234">registreringsID: string</text><ellipse cx="18" cy="85.7207" fill="none" rx="3" ry="3" style="stroke:#038048;stroke-width:1.0;"/><text fill="#000000" font-family="sans-serif" font-size="14" lengthAdjust="spacing" textLength="222" x="27" y="89.5117">journalnummer: Journalnummer</text><ellipse cx="18" cy="102.209" fill="none" rx="3" ry="3" style="stroke:#038048;stroke-width:1.0;"/><text fill="#000000" font-family="sans-serif" font-size="14" lengthAdjust="spacing" textLength="343" x="27" y="106">saksJournalpostnummer: SaksJournalpostnummer</text><ellipse cx="18" cy="118.6973" fill="none" rx="3" ry="3" style="stroke:#038048;stroke-width:1.0;"/><text fill="#000000" font-family="sans-serif" font-size="14" lengthAdjust="spacing" textLength="285" x="27" y="122.4883">referanseEksternNoekkel: EksternNoekkel</text><line style="stroke:#181818;stroke-width:0.5;" x1="8" x2="375" y1="129.4414" y2="129.4414"/></g><!--SRC=[Iyv9B2vM24fDIorAp2jEzSelBSfBp2d8BovHgEPI00BjuihYajHSpnGhXUAIeioyT8XeKMfw9f2V2X8fzdH1bSo2c99NcfkRMcIbu8NCXHgQc5sCP1TCPJ0sOPY5K2UwPWFTKvJdbv-QdPsQOwM0okUgvG80]--></g></svg>