<svg xmlns="http://www.w3.org/2000/svg" xmlns:xlink="http://www.w3.org/1999/xlink" contentStyleType="text/css" data-diagram-type="CLASS" height="277px" preserveAspectRatio="none" style="width:306px;height:277px;background:#FFFFFF;" version="1.1" viewBox="0 0 306 277" width="306px" zoomAndPan="magnify"><defs/><g><!--class Skjerming--><g id="elem_Skjerming"><rect codeLine="2" fill="#F1F1F1" height="113.9531" id="Skjerming" rx="2.5" ry="2.5" style="stroke:#181818;stroke-width:0.5;" width="292.2529" x="7" y="7"/><ellipse cx="114.854" cy="23" fill="#ADD1B2" rx="11" ry="11" style="stroke:#181818;stroke-width:1;"/><path d="M117.3271,29.1431 Q116.7461,29.4419 116.1069,29.5913 Q115.4678,29.7407 114.7622,29.7407 Q112.2554,29.7407 110.9355,28.0889 Q109.6157,26.437 109.6157,23.3159 Q109.6157,20.1865 110.9355,18.5347 Q112.2554,16.8828 114.7622,16.8828 Q115.4678,16.8828 116.1152,17.0322 Q116.7627,17.1816 117.3271,17.4805 L117.3271,20.2031 Q116.6963,19.6221 116.1028,19.3523 Q115.5093,19.0825 114.8784,19.0825 Q113.5337,19.0825 112.8489,20.1492 Q112.1641,21.2158 112.1641,23.3159 Q112.1641,25.4077 112.8489,26.4744 Q113.5337,27.541 114.8784,27.541 Q115.5093,27.541 116.1028,27.2712 Q116.6963,27.0015 117.3271,26.4204 Z " fill="#000000"/><text fill="#000000" font-family="sans-serif" font-size="14" lengthAdjust="spacing" textLength="68.0449" x="135.354" y="28.291">Skjerming</text><line style="stroke:#181818;stroke-width:0.5;" x1="8" x2="298.2529" y1="39" y2="39"/><ellipse cx="18" cy="52.7441" fill="#000000" rx="3" ry="3" style="stroke:#000000;stroke-width:1;"/><text fill="#000000" font-family="sans-serif" font-size="14" lengthAdjust="spacing" textLength="266.2529" x="27" y="56.5352">tilgangsrestriksjon: Tilgangsrestriksjon</text><ellipse cx="18" cy="69.2324" fill="#000000" rx="3" ry="3" style="stroke:#000000;stroke-width:1;"/><text fill="#000000" font-family="sans-serif" font-size="14" lengthAdjust="spacing" textLength="181.9385" x="27" y="73.0234">skjermingshjemmel: string</text><text fill="#000000" font-family="sans-serif" font-size="14" lengthAdjust="spacing" textLength="210.9775" x="27" y="89.5117">skjermingOpphoererDato: date</text><text fill="#000000" font-family="sans-serif" font-size="14" lengthAdjust="spacing" textLength="225.4492" x="27" y="106">skjermingOpphoererAksjon: date</text><line style="stroke:#181818;stroke-width:0.5;" x1="8" x2="298.2529" y1="112.9531" y2="112.9531"/></g><!--class Tilgangsrestriksjon--><g id="elem_Tilgangsrestriksjon"><rect codeLine="11" fill="#F1F1F1" height="89.5977" id="Tilgangsrestriksjon" rx="2.5" ry="2.5" style="stroke:#181818;stroke-width:0.5;" width="183.5547" x="61.35" y="180.95"/><ellipse cx="85.8224" cy="201.2605" fill="#ADD1B2" rx="11" ry="11" style="stroke:#181818;stroke-width:1;"/><path d="M88.2956,207.4036 Q87.7145,207.7024 87.0753,207.8519 Q86.4362,208.0013 85.7306,208.0013 Q83.2238,208.0013 81.904,206.3494 Q80.5841,204.6976 80.5841,201.5765 Q80.5841,198.4471 81.904,196.7952 Q83.2238,195.1434 85.7306,195.1434 Q86.4362,195.1434 87.0836,195.2928 Q87.7311,195.4422 88.2956,195.741 L88.2956,198.4637 Q87.6647,197.8826 87.0712,197.6128 Q86.4777,197.3431 85.8468,197.3431 Q84.5021,197.3431 83.8173,198.4097 Q83.1325,199.4764 83.1325,201.5765 Q83.1325,203.6683 83.8173,204.7349 Q84.5021,205.8016 85.8468,205.8016 Q86.4777,205.8016 87.0712,205.5318 Q87.6647,205.262 88.2956,204.681 Z " fill="#000000"/><text fill="#000000" font-family="sans-serif" font-size="12" font-style="italic" lengthAdjust="spacing" textLength="42.0176" x="146.171" y="197.5516">&#171;Kode&#187;</text><text fill="#000000" font-family="sans-serif" font-size="14" lengthAdjust="spacing" textLength="130.5049" x="101.9274" y="213.618">Tilgangsrestriksjon</text><line style="stroke:#181818;stroke-width:0.5;" x1="62.35" x2="243.9047" y1="221.5711" y2="221.5711"/><ellipse cx="72.35" cy="235.3152" fill="#000000" rx="3" ry="3" style="stroke:#000000;stroke-width:1;"/><text fill="#000000" font-family="sans-serif" font-size="14" lengthAdjust="spacing" textLength="115.4521" x="81.35" y="239.1063">kodeverdi: string</text><text fill="#000000" font-family="sans-serif" font-size="14" lengthAdjust="spacing" textLength="157.5547" x="81.35" y="255.5945">kodebeskrivelse: string</text><line style="stroke:#181818;stroke-width:0.5;" x1="62.35" x2="243.9047" y1="262.5477" y2="262.5477"/></g><!--link Skjerming to Tilgangsrestriksjon--><g id="link_Skjerming_Tilgangsrestriksjon"><path codeLine="9" d="M153.13,121.31 C153.13,140.71 153.13,162.16 153.13,180.46 " fill="#FFFFFF" fill-opacity="0.00000" id="Skjerming-Tilgangsrestriksjon" style="stroke:#181818;stroke-width:1;stroke-dasharray:7.0,7.0;"/></g><!--SRC=[TOyz3i8m38NtdC8pGmzGLPMGs1WOu0AXiTByLtRK1VNkj84M8Oetl_TPVg_paXckpY854pKy1CnpoCPh6JKJSYRZsAPOm-rNVD6yddDlCGJqDIn4rCNUtCimz0a9wIHpga79Z7-0u_jZGIOXFlcgQZU6w4gF7GkQvfmKjkrQpStRYAJCLyX5lICxCYDwnisRn1C0]--></g></svg>