<svg xmlns="http://www.w3.org/2000/svg" xmlns:xlink="http://www.w3.org/1999/xlink" contentStyleType="text/css" data-diagram-type="CLASS" height="277px" preserveAspectRatio="none" style="width:451px;height:277px;background:#FFFFFF;" version="1.1" viewBox="0 0 451 277" width="451px" zoomAndPan="magnify"><defs/><g><!--class Skjerming--><g id="elem_Skjerming"><rect codeLine="2" fill="#F1F1F1" height="113.9531" id="Skjerming" rx="2.5" ry="2.5" style="stroke:#181818;stroke-width:0.5;" width="409.2842" x="12.14" y="7"/><ellipse cx="178.5096" cy="23" fill="#ADD1B2" rx="11" ry="11" style="stroke:#181818;stroke-width:1;"/><path d="M180.9828,29.1431 Q180.4017,29.4419 179.7626,29.5913 Q179.1234,29.7407 178.4178,29.7407 Q175.911,29.7407 174.5912,28.0889 Q173.2713,26.437 173.2713,23.3159 Q173.2713,20.1865 174.5912,18.5347 Q175.911,16.8828 178.4178,16.8828 Q179.1234,16.8828 179.7709,17.0322 Q180.4183,17.1816 180.9828,17.4805 L180.9828,20.2031 Q180.3519,19.6221 179.7584,19.3523 Q179.1649,19.0825 178.534,19.0825 Q177.1893,19.0825 176.5045,20.1492 Q175.8197,21.2158 175.8197,23.3159 Q175.8197,25.4077 176.5045,26.4744 Q177.1893,27.541 178.534,27.541 Q179.1649,27.541 179.7584,27.2712 Q180.3519,27.0015 180.9828,26.4204 Z " fill="#000000"/><text fill="#000000" font-family="sans-serif" font-size="14" lengthAdjust="spacing" textLength="68.0449" x="199.0096" y="28.291">Skjerming</text><line style="stroke:#181818;stroke-width:0.5;" x1="13.14" x2="420.4242" y1="39" y2="39"/><ellipse cx="23.14" cy="52.7441" fill="#000000" rx="3" ry="3" style="stroke:#000000;stroke-width:1;"/><text fill="#000000" font-family="sans-serif" font-size="14" lengthAdjust="spacing" textLength="266.2529" x="32.14" y="56.5352">tilgangsrestriksjon: Tilgangsrestriksjon</text><ellipse cx="23.14" cy="69.2324" fill="#000000" rx="3" ry="3" style="stroke:#000000;stroke-width:1;"/><text fill="#000000" font-family="sans-serif" font-size="14" lengthAdjust="spacing" textLength="181.9385" x="32.14" y="73.0234">skjermingshjemmel: string</text><text fill="#000000" font-family="sans-serif" font-size="14" lengthAdjust="spacing" textLength="210.9775" x="32.14" y="89.5117">skjermingOpphoererDato: date</text><text fill="#000000" font-family="sans-serif" font-size="14" lengthAdjust="spacing" textLength="383.2842" x="32.14" y="106">skjermingOpphoererAksjon: SkjermingOpphoererAksjon</text><line style="stroke:#181818;stroke-width:0.5;" x1="13.14" x2="420.4242" y1="112.9531" y2="112.9531"/></g><!--class Tilgangsrestriksjon--><g id="elem_Tilgangsrestriksjon"><rect codeLine="12" fill="#F1F1F1" height="89.5977" id="Tilgangsrestriksjon" rx="2.5" ry="2.5" style="stroke:#181818;stroke-width:0.5;" width="183.5547" x="7" y="180.95"/><ellipse cx="31.4724" cy="201.2605" fill="#ADD1B2" rx="11" ry="11" style="stroke:#181818;stroke-width:1;"/><path d="M33.9456,207.4036 Q33.3645,207.7024 32.7253,207.8519 Q32.0862,208.0013 31.3806,208.0013 Q28.8738,208.0013 27.554,206.3494 Q26.2341,204.6976 26.2341,201.5765 Q26.2341,198.4471 27.554,196.7952 Q28.8738,195.1434 31.3806,195.1434 Q32.0862,195.1434 32.7336,195.2928 Q33.3811,195.4422 33.9456,195.741 L33.9456,198.4637 Q33.3147,197.8826 32.7212,197.6128 Q32.1277,197.3431 31.4968,197.3431 Q30.1521,197.3431 29.4673,198.4097 Q28.7825,199.4764 28.7825,201.5765 Q28.7825,203.6683 29.4673,204.7349 Q30.1521,205.8016 31.4968,205.8016 Q32.1277,205.8016 32.7212,205.5318 Q33.3147,205.262 33.9456,204.681 Z " fill="#000000"/><text fill="#000000" font-family="sans-serif" font-size="12" font-style="italic" lengthAdjust="spacing" textLength="42.0176" x="91.821" y="197.5516">&#171;Kode&#187;</text><text fill="#000000" font-family="sans-serif" font-size="14" lengthAdjust="spacing" textLength="130.5049" x="47.5774" y="213.618">Tilgangsrestriksjon</text><line style="stroke:#181818;stroke-width:0.5;" x1="8" x2="189.5547" y1="221.5711" y2="221.5711"/><ellipse cx="18" cy="235.3152" fill="#000000" rx="3" ry="3" style="stroke:#000000;stroke-width:1;"/><text fill="#000000" font-family="sans-serif" font-size="14" lengthAdjust="spacing" textLength="115.4521" x="27" y="239.1063">kodeverdi: string</text><text fill="#000000" font-family="sans-serif" font-size="14" lengthAdjust="spacing" textLength="157.5547" x="27" y="255.5945">kodebeskrivelse: string</text><line style="stroke:#181818;stroke-width:0.5;" x1="8" x2="189.5547" y1="262.5477" y2="262.5477"/></g><!--class SkjermingOpphoererAksjon--><g id="elem_SkjermingOpphoererAksjon"><rect codeLine="17" fill="#F1F1F1" height="89.5977" id="SkjermingOpphoererAksjon" rx="2.5" ry="2.5" style="stroke:#181818;stroke-width:0.5;" width="219.4141" x="225.07" y="180.95"/><ellipse cx="240.07" cy="201.2605" fill="#ADD1B2" rx="11" ry="11" style="stroke:#181818;stroke-width:1;"/><path d="M242.5431,207.4036 Q241.9621,207.7024 241.3229,207.8519 Q240.6838,208.0013 239.9782,208.0013 Q237.4714,208.0013 236.1515,206.3494 Q234.8317,204.6976 234.8317,201.5765 Q234.8317,198.4471 236.1515,196.7952 Q237.4714,195.1434 239.9782,195.1434 Q240.6838,195.1434 241.3312,195.2928 Q241.9787,195.4422 242.5431,195.741 L242.5431,198.4637 Q241.9123,197.8826 241.3188,197.6128 Q240.7253,197.3431 240.0944,197.3431 Q238.7497,197.3431 238.0649,198.4097 Q237.3801,199.4764 237.3801,201.5765 Q237.3801,203.6683 238.0649,204.7349 Q238.7497,205.8016 240.0944,205.8016 Q240.7253,205.8016 241.3188,205.5318 Q241.9123,205.262 242.5431,204.681 Z " fill="#000000"/><text fill="#000000" font-family="sans-serif" font-size="12" font-style="italic" lengthAdjust="spacing" textLength="42.0176" x="326.7682" y="197.5516">&#171;Kode&#187;</text><text fill="#000000" font-family="sans-serif" font-size="14" lengthAdjust="spacing" textLength="187.4141" x="254.07" y="213.618">SkjermingOpphoererAksjon</text><line style="stroke:#181818;stroke-width:0.5;" x1="226.07" x2="443.4841" y1="221.5711" y2="221.5711"/><ellipse cx="236.07" cy="235.3152" fill="#000000" rx="3" ry="3" style="stroke:#000000;stroke-width:1;"/><text fill="#000000" font-family="sans-serif" font-size="14" lengthAdjust="spacing" textLength="115.4521" x="245.07" y="239.1063">kodeverdi: string</text><text fill="#000000" font-family="sans-serif" font-size="14" lengthAdjust="spacing" textLength="157.5547" x="245.07" y="255.5945">kodebeskrivelse: string</text><line style="stroke:#181818;stroke-width:0.5;" x1="226.07" x2="443.4841" y1="262.5477" y2="262.5477"/></g><!--link Skjerming to Tilgangsrestriksjon--><g id="link_Skjerming_Tilgangsrestriksjon"><path codeLine="9" d="M175.17,121.31 C160.84,140.71 145.01,162.16 131.49,180.46 " fill="#FFFFFF" fill-opacity="0.00000" id="Skjerming-Tilgangsrestriksjon" style="stroke:#181818;stroke-width:1;stroke-dasharray:7.0,7.0;"/></g><!--link Skjerming to SkjermingOpphoererAksjon--><g id="link_Skjerming_SkjermingOpphoererAksjon"><path codeLine="10" d="M258.38,121.31 C272.71,140.71 288.55,162.16 302.07,180.46 " fill="#FFFFFF" fill-opacity="0.00000" id="Skjerming-SkjermingOpphoererAksjon" style="stroke:#181818;stroke-width:1;stroke-dasharray:7.0,7.0;"/></g><!--SRC=[fL0n3eCm3Dpp2iyTU012I9MwTUX0Fv0IAuI41DaHIyNV2xHGePAftkmxtvrTEyaCbMsHEkCrF0LCTOh6QUar4t8aOxaDFeVxx_3DvdMTcnQx3bqECyFh1TxGMzyt0Gdf8cF8GSc82SBvurWb434AySsSPOVHTeIaagYN3nm8G55SWyAoN9zYfsv0KcPttZnz85io0ph63HjNwPJrt_el]--></g></svg>