<svg xmlns="http://www.w3.org/2000/svg" xmlns:xlink="http://www.w3.org/1999/xlink" contentStyleType="text/css" data-diagram-type="CLASS" height="864px" preserveAspectRatio="none" style="width:2029px;height:864px;background:#FFFFFF;" version="1.1" viewBox="0 0 2029 864" width="2029px" zoomAndPan="magnify"><defs/><g><!--class Skjerming--><g id="elem_Skjerming"><rect codeLine="2" fill="#F1F1F1" height="113.9531" id="Skjerming" rx="2.5" ry="2.5" style="stroke:#181818;stroke-width:0.5;" width="409.2842" x="1589.98" y="370.57"/><ellipse cx="1756.3496" cy="386.57" fill="#ADD1B2" rx="11" ry="11" style="stroke:#181818;stroke-width:1;"/><path d="M1758.8228,392.7131 Q1758.2417,393.0119 1757.6026,393.1613 Q1756.9634,393.3107 1756.2578,393.3107 Q1753.751,393.3107 1752.4312,391.6589 Q1751.1113,390.007 1751.1113,386.8859 Q1751.1113,383.7565 1752.4312,382.1047 Q1753.751,380.4528 1756.2578,380.4528 Q1756.9634,380.4528 1757.6109,380.6022 Q1758.2583,380.7516 1758.8228,381.0505 L1758.8228,383.7731 Q1758.1919,383.1921 1757.5984,382.9223 Q1757.0049,382.6525 1756.374,382.6525 Q1755.0293,382.6525 1754.3445,383.7192 Q1753.6597,384.7858 1753.6597,386.8859 Q1753.6597,388.9777 1754.3445,390.0444 Q1755.0293,391.111 1756.374,391.111 Q1757.0049,391.111 1757.5984,390.8412 Q1758.1919,390.5715 1758.8228,389.9904 Z " fill="#000000"/><text fill="#000000" font-family="sans-serif" font-size="14" lengthAdjust="spacing" textLength="68.0449" x="1776.8496" y="391.861">Skjerming</text><line style="stroke:#181818;stroke-width:0.5;" x1="1590.98" x2="1998.2642" y1="402.57" y2="402.57"/><ellipse cx="1600.98" cy="416.3141" fill="#000000" rx="3" ry="3" style="stroke:#000000;stroke-width:1;"/><text fill="#000000" font-family="sans-serif" font-size="14" lengthAdjust="spacing" textLength="266.2529" x="1609.98" y="420.1052">tilgangsrestriksjon: Tilgangsrestriksjon</text><ellipse cx="1600.98" cy="432.8024" fill="#000000" rx="3" ry="3" style="stroke:#000000;stroke-width:1;"/><text fill="#000000" font-family="sans-serif" font-size="14" lengthAdjust="spacing" textLength="181.9385" x="1609.98" y="436.5934">skjermingshjemmel: string</text><text fill="#000000" font-family="sans-serif" font-size="14" lengthAdjust="spacing" textLength="210.9775" x="1609.98" y="453.0817">skjermingOpphoererDato: date</text><text fill="#000000" font-family="sans-serif" font-size="14" lengthAdjust="spacing" textLength="383.2842" x="1609.98" y="469.57">skjermingOpphoererAksjon: SkjermingOpphoererAksjon</text><line style="stroke:#181818;stroke-width:0.5;" x1="1590.98" x2="1998.2642" y1="476.5231" y2="476.5231"/></g><!--class Tilgangsrestriksjon--><g id="elem_Tilgangsrestriksjon"><rect codeLine="12" fill="#F1F1F1" height="89.5977" id="Tilgangsrestriksjon" rx="2.5" ry="2.5" style="stroke:#181818;stroke-width:0.5;" width="183.5547" x="1584.85" y="589.68"/><ellipse cx="1609.3224" cy="609.9905" fill="#ADD1B2" rx="11" ry="11" style="stroke:#181818;stroke-width:1;"/><path d="M1611.7956,616.1336 Q1611.2145,616.4324 1610.5753,616.5819 Q1609.9362,616.7313 1609.2306,616.7313 Q1606.7238,616.7313 1605.404,615.0794 Q1604.0841,613.4276 1604.0841,610.3065 Q1604.0841,607.1771 1605.404,605.5252 Q1606.7238,603.8734 1609.2306,603.8734 Q1609.9362,603.8734 1610.5836,604.0228 Q1611.2311,604.1722 1611.7956,604.471 L1611.7956,607.1937 Q1611.1647,606.6126 1610.5712,606.3428 Q1609.9777,606.0731 1609.3468,606.0731 Q1608.0021,606.0731 1607.3173,607.1397 Q1606.6325,608.2064 1606.6325,610.3065 Q1606.6325,612.3983 1607.3173,613.4649 Q1608.0021,614.5316 1609.3468,614.5316 Q1609.9777,614.5316 1610.5712,614.2618 Q1611.1647,613.992 1611.7956,613.411 Z " fill="#000000"/><text fill="#000000" font-family="sans-serif" font-size="12" font-style="italic" lengthAdjust="spacing" textLength="42.0176" x="1669.671" y="606.2816">&#171;Kode&#187;</text><text fill="#000000" font-family="sans-serif" font-size="14" lengthAdjust="spacing" textLength="130.5049" x="1625.4274" y="622.348">Tilgangsrestriksjon</text><line style="stroke:#181818;stroke-width:0.5;" x1="1585.85" x2="1767.4047" y1="630.3011" y2="630.3011"/><ellipse cx="1595.85" cy="644.0452" fill="#000000" rx="3" ry="3" style="stroke:#000000;stroke-width:1;"/><text fill="#000000" font-family="sans-serif" font-size="14" lengthAdjust="spacing" textLength="115.4521" x="1604.85" y="647.8363">kodeverdi: string</text><text fill="#000000" font-family="sans-serif" font-size="14" lengthAdjust="spacing" textLength="157.5547" x="1604.85" y="664.3245">kodebeskrivelse: string</text><line style="stroke:#181818;stroke-width:0.5;" x1="1585.85" x2="1767.4047" y1="671.2777" y2="671.2777"/></g><!--class SkjermingOpphoererAksjon--><g id="elem_SkjermingOpphoererAksjon"><rect codeLine="17" fill="#F1F1F1" height="89.5977" id="SkjermingOpphoererAksjon" rx="2.5" ry="2.5" style="stroke:#181818;stroke-width:0.5;" width="219.4141" x="1802.92" y="589.68"/><ellipse cx="1817.92" cy="609.9905" fill="#ADD1B2" rx="11" ry="11" style="stroke:#181818;stroke-width:1;"/><path d="M1820.3931,616.1336 Q1819.8121,616.4324 1819.1729,616.5819 Q1818.5338,616.7313 1817.8282,616.7313 Q1815.3214,616.7313 1814.0015,615.0794 Q1812.6817,613.4276 1812.6817,610.3065 Q1812.6817,607.1771 1814.0015,605.5252 Q1815.3214,603.8734 1817.8282,603.8734 Q1818.5338,603.8734 1819.1812,604.0228 Q1819.8287,604.1722 1820.3931,604.471 L1820.3931,607.1937 Q1819.7623,606.6126 1819.1688,606.3428 Q1818.5753,606.0731 1817.9444,606.0731 Q1816.5997,606.0731 1815.9149,607.1397 Q1815.2301,608.2064 1815.2301,610.3065 Q1815.2301,612.3983 1815.9149,613.4649 Q1816.5997,614.5316 1817.9444,614.5316 Q1818.5753,614.5316 1819.1688,614.2618 Q1819.7623,613.992 1820.3931,613.411 Z " fill="#000000"/><text fill="#000000" font-family="sans-serif" font-size="12" font-style="italic" lengthAdjust="spacing" textLength="42.0176" x="1904.6182" y="606.2816">&#171;Kode&#187;</text><text fill="#000000" font-family="sans-serif" font-size="14" lengthAdjust="spacing" textLength="187.4141" x="1831.92" y="622.348">SkjermingOpphoererAksjon</text><line style="stroke:#181818;stroke-width:0.5;" x1="1803.92" x2="2021.3341" y1="630.3011" y2="630.3011"/><ellipse cx="1813.92" cy="644.0452" fill="#000000" rx="3" ry="3" style="stroke:#000000;stroke-width:1;"/><text fill="#000000" font-family="sans-serif" font-size="14" lengthAdjust="spacing" textLength="115.4521" x="1822.92" y="647.8363">kodeverdi: string</text><text fill="#000000" font-family="sans-serif" font-size="14" lengthAdjust="spacing" textLength="157.5547" x="1822.92" y="664.3245">kodebeskrivelse: string</text><line style="stroke:#181818;stroke-width:0.5;" x1="1803.92" x2="2021.3341" y1="671.2777" y2="671.2777"/></g><!--class Gradering--><g id="elem_Gradering"><rect codeLine="2" fill="#F1F1F1" height="130.4414" id="Gradering" rx="2.5" ry="2.5" style="stroke:#181818;stroke-width:0.5;" width="193.248" x="7" y="362.32"/><ellipse cx="65.6831" cy="378.32" fill="#ADD1B2" rx="11" ry="11" style="stroke:#181818;stroke-width:1;"/><path d="M68.1563,384.4631 Q67.5752,384.7619 66.936,384.9113 Q66.2969,385.0607 65.5913,385.0607 Q63.0845,385.0607 61.7646,383.4089 Q60.4448,381.757 60.4448,378.6359 Q60.4448,375.5065 61.7646,373.8547 Q63.0845,372.2028 65.5913,372.2028 Q66.2969,372.2028 66.9443,372.3522 Q67.5918,372.5016 68.1563,372.8005 L68.1563,375.5231 Q67.5254,374.9421 66.9319,374.6723 Q66.3384,374.4025 65.7075,374.4025 Q64.3628,374.4025 63.678,375.4692 Q62.9932,376.5358 62.9932,378.6359 Q62.9932,380.7277 63.678,381.7944 Q64.3628,382.861 65.7075,382.861 Q66.3384,382.861 66.9319,382.5912 Q67.5254,382.3215 68.1563,381.7404 Z " fill="#000000"/><text fill="#000000" font-family="sans-serif" font-size="14" lengthAdjust="spacing" textLength="67.3818" x="86.1831" y="383.611">Gradering</text><line style="stroke:#181818;stroke-width:0.5;" x1="8" x2="199.248" y1="394.32" y2="394.32"/><ellipse cx="18" cy="408.0641" fill="#000000" rx="3" ry="3" style="stroke:#000000;stroke-width:1;"/><text fill="#000000" font-family="sans-serif" font-size="14" lengthAdjust="spacing" textLength="72.249" x="27" y="411.8552">grad: Grad</text><ellipse cx="18" cy="424.5524" fill="#000000" rx="3" ry="3" style="stroke:#000000;stroke-width:1;"/><text fill="#000000" font-family="sans-serif" font-size="14" lengthAdjust="spacing" textLength="141.9482" x="27" y="428.3434">graderingsdato: date</text><ellipse cx="18" cy="441.0407" fill="#000000" rx="3" ry="3" style="stroke:#000000;stroke-width:1;"/><text fill="#000000" font-family="sans-serif" font-size="14" lengthAdjust="spacing" textLength="115.0967" x="27" y="444.8317">gradertAv: string</text><text fill="#000000" font-family="sans-serif" font-size="14" lengthAdjust="spacing" textLength="167.248" x="27" y="461.32">nedgraderingsdato: date</text><text fill="#000000" font-family="sans-serif" font-size="14" lengthAdjust="spacing" textLength="140.3965" x="27" y="477.8083">nedgradertAv: string</text><line style="stroke:#181818;stroke-width:0.5;" x1="8" x2="199.248" y1="484.7614" y2="484.7614"/></g><!--class Grad--><g id="elem_Grad"><rect codeLine="12" fill="#F1F1F1" height="89.5977" id="Grad" rx="2.5" ry="2.5" style="stroke:#181818;stroke-width:0.5;" width="183.5547" x="11.85" y="589.68"/><ellipse cx="80.3686" cy="609.9905" fill="#ADD1B2" rx="11" ry="11" style="stroke:#181818;stroke-width:1;"/><path d="M82.8417,616.1336 Q82.2606,616.4324 81.6215,616.5819 Q80.9823,616.7313 80.2768,616.7313 Q77.7699,616.7313 76.4501,615.0794 Q75.1303,613.4276 75.1303,610.3065 Q75.1303,607.1771 76.4501,605.5252 Q77.7699,603.8734 80.2768,603.8734 Q80.9823,603.8734 81.6298,604.0228 Q82.2772,604.1722 82.8417,604.471 L82.8417,607.1937 Q82.2108,606.6126 81.6173,606.3428 Q81.0238,606.0731 80.393,606.0731 Q79.0482,606.0731 78.3634,607.1397 Q77.6786,608.2064 77.6786,610.3065 Q77.6786,612.3983 78.3634,613.4649 Q79.0482,614.5316 80.393,614.5316 Q81.0238,614.5316 81.6173,614.2618 Q82.2108,613.992 82.8417,613.411 Z " fill="#000000"/><text fill="#000000" font-family="sans-serif" font-size="12" font-style="italic" lengthAdjust="spacing" textLength="42.0176" x="98.8686" y="606.2816">&#171;Kode&#187;</text><text fill="#000000" font-family="sans-serif" font-size="14" lengthAdjust="spacing" textLength="32.3887" x="103.683" y="622.348">Grad</text><line style="stroke:#181818;stroke-width:0.5;" x1="12.85" x2="194.4047" y1="630.3011" y2="630.3011"/><ellipse cx="22.85" cy="644.0452" fill="#000000" rx="3" ry="3" style="stroke:#000000;stroke-width:1;"/><text fill="#000000" font-family="sans-serif" font-size="14" lengthAdjust="spacing" textLength="115.4521" x="31.85" y="647.8363">kodeverdi: string</text><text fill="#000000" font-family="sans-serif" font-size="14" lengthAdjust="spacing" textLength="157.5547" x="31.85" y="664.3245">kodebeskrivelse: string</text><line style="stroke:#181818;stroke-width:0.5;" x1="12.85" x2="194.4047" y1="671.2777" y2="671.2777"/></g><!--class ReferanseDokumentfil--><g id="elem_ReferanseDokumentfil"><rect codeLine="2" fill="#F1F1F1" height="80.9766" id="ReferanseDokumentfil" rx="2.5" ry="2.5" style="stroke:#181818;stroke-width:0.5;" width="182.6777" x="1184.29" y="776.18"/><ellipse cx="1199.29" cy="792.18" fill="#ADD1B2" rx="11" ry="11" style="stroke:#181818;stroke-width:1;"/><path d="M1201.7631,798.3231 Q1201.1821,798.6219 1200.5429,798.7713 Q1199.9038,798.9207 1199.1982,798.9207 Q1196.6914,798.9207 1195.3715,797.2689 Q1194.0517,795.617 1194.0517,792.4959 Q1194.0517,789.3665 1195.3715,787.7147 Q1196.6914,786.0628 1199.1982,786.0628 Q1199.9038,786.0628 1200.5512,786.2122 Q1201.1987,786.3616 1201.7631,786.6605 L1201.7631,789.3831 Q1201.1323,788.8021 1200.5388,788.5323 Q1199.9453,788.2625 1199.3144,788.2625 Q1197.9697,788.2625 1197.2849,789.3292 Q1196.6001,790.3958 1196.6001,792.4959 Q1196.6001,794.5877 1197.2849,795.6544 Q1197.9697,796.721 1199.3144,796.721 Q1199.9453,796.721 1200.5388,796.4512 Q1201.1323,796.1815 1201.7631,795.6004 Z " fill="#000000"/><text fill="#000000" font-family="sans-serif" font-size="14" lengthAdjust="spacing" textLength="150.6777" x="1213.29" y="797.471">ReferanseDokumentfil</text><line style="stroke:#181818;stroke-width:0.5;" x1="1185.29" x2="1365.9677" y1="808.18" y2="808.18"/><ellipse cx="1195.29" cy="821.9241" fill="#000000" rx="3" ry="3" style="stroke:#000000;stroke-width:1;"/><text fill="#000000" font-family="sans-serif" font-size="14" lengthAdjust="spacing" textLength="61.2842" x="1204.29" y="825.7152">id: string</text><ellipse cx="1195.29" cy="838.4124" fill="#000000" rx="3" ry="3" style="stroke:#000000;stroke-width:1;"/><text fill="#000000" font-family="sans-serif" font-size="14" lengthAdjust="spacing" textLength="66.8896" x="1204.29" y="842.2034">url: string</text><line style="stroke:#181818;stroke-width:0.5;" x1="1185.29" x2="1365.9677" y1="849.1566" y2="849.1566"/></g><!--class Dokument--><g id="elem_Dokument"><rect codeLine="3" fill="#F1F1F1" height="163.418" id="Dokument" rx="2.5" ry="2.5" style="stroke:#181818;stroke-width:0.5;" width="333.0908" x="1109.08" y="552.77"/><ellipse cx="1235.9994" cy="568.77" fill="#ADD1B2" rx="11" ry="11" style="stroke:#181818;stroke-width:1;"/><path d="M1238.4726,574.9131 Q1237.8915,575.2119 1237.2524,575.3613 Q1236.6132,575.5107 1235.9076,575.5107 Q1233.4008,575.5107 1232.081,573.8589 Q1230.7612,572.207 1230.7612,569.0859 Q1230.7612,565.9565 1232.081,564.3047 Q1233.4008,562.6528 1235.9076,562.6528 Q1236.6132,562.6528 1237.2607,562.8022 Q1237.9081,562.9516 1238.4726,563.2505 L1238.4726,565.9731 Q1237.8417,565.3921 1237.2482,565.1223 Q1236.6547,564.8525 1236.0238,564.8525 Q1234.6791,564.8525 1233.9943,565.9192 Q1233.3095,566.9858 1233.3095,569.0859 Q1233.3095,571.1777 1233.9943,572.2444 Q1234.6791,573.311 1236.0238,573.311 Q1236.6547,573.311 1237.2482,573.0412 Q1237.8417,572.7715 1238.4726,572.1904 Z " fill="#000000"/><text fill="#000000" font-family="sans-serif" font-size="14" lengthAdjust="spacing" textLength="70.752" x="1256.4994" y="574.061">Dokument</text><line style="stroke:#181818;stroke-width:0.5;" x1="1110.08" x2="1441.1708" y1="584.77" y2="584.77"/><ellipse cx="1120.08" cy="598.5141" fill="#000000" rx="3" ry="3" style="stroke:#000000;stroke-width:1;"/><text fill="#000000" font-family="sans-serif" font-size="14" lengthAdjust="spacing" textLength="61.2842" x="1129.08" y="602.3052">id: string</text><ellipse cx="1120.08" cy="615.0024" fill="#000000" rx="3" ry="3" style="stroke:#000000;stroke-width:1;"/><text fill="#000000" font-family="sans-serif" font-size="14" lengthAdjust="spacing" textLength="94.0215" x="1129.08" y="618.7934">filnavn: string</text><ellipse cx="1120.08" cy="631.4907" fill="#000000" rx="3" ry="3" style="stroke:#000000;stroke-width:1;"/><text fill="#000000" font-family="sans-serif" font-size="14" lengthAdjust="spacing" textLength="307.0908" x="1129.08" y="635.2817">referanseDokumentfil: ReferanseDokumentfil</text><text fill="#000000" font-family="sans-serif" font-size="14" lengthAdjust="spacing" textLength="115.5752" x="1129.08" y="651.77">mimetype: string</text><text fill="#000000" font-family="sans-serif" font-size="14" lengthAdjust="spacing" textLength="145.0313" x="1129.08" y="668.2583">dokumentsdato: date</text><text fill="#000000" font-family="sans-serif" font-size="14" lengthAdjust="spacing" textLength="113.7158" x="1129.08" y="684.7466">arkivnavn: string</text><text fill="#000000" font-family="sans-serif" font-size="14" lengthAdjust="spacing" textLength="137.1426" x="1129.08" y="701.2348">filstoerrelse: integer</text><line style="stroke:#181818;stroke-width:0.5;" x1="1110.08" x2="1441.1708" y1="708.188" y2="708.188"/></g><g id="elem_GMN12"><path d="M1344.56,414.89 L1344.56,440.2005 A0,0 0 0 0 1344.56,440.2005 L1435.52,440.2005 L1344.5,552.36 L1443.52,440.2005 L1554.6884,440.2005 A0,0 0 0 0 1554.6884,440.2005 L1554.6884,424.89 L1544.6884,414.89 L1344.56,414.89 A0,0 0 0 0 1344.56,414.89 " fill="#FEFFDD" style="stroke:#181818;stroke-width:0.5;"/><path d="M1544.6884,414.89 L1544.6884,424.89 L1554.6884,424.89 L1544.6884,414.89 " fill="#FEFFDD" style="stroke:#181818;stroke-width:0.5;"/><text fill="#000000" font-family="sans-serif" font-size="13" lengthAdjust="spacing" textLength="189.1284" x="1350.56" y="432.4584">Hentet definisjon fra Fiks Plan</text></g><!--class Dokumentbeskrivelse--><g id="elem_Dokumentbeskrivelse"><rect codeLine="3" fill="#F1F1F1" height="113.9531" id="Dokumentbeskrivelse" rx="2.5" ry="2.5" style="stroke:#181818;stroke-width:0.5;" width="233.0127" x="639.12" y="370.57"/><ellipse cx="678.6564" cy="386.57" fill="#ADD1B2" rx="11" ry="11" style="stroke:#181818;stroke-width:1;"/><path d="M681.1296,392.7131 Q680.5485,393.0119 679.9094,393.1613 Q679.2702,393.3107 678.5646,393.3107 Q676.0578,393.3107 674.738,391.6589 Q673.4181,390.007 673.4181,386.8859 Q673.4181,383.7565 674.738,382.1047 Q676.0578,380.4528 678.5646,380.4528 Q679.2702,380.4528 679.9177,380.6022 Q680.5651,380.7516 681.1296,381.0505 L681.1296,383.7731 Q680.4987,383.1921 679.9052,382.9223 Q679.3117,382.6525 678.6808,382.6525 Q677.3361,382.6525 676.6513,383.7192 Q675.9665,384.7858 675.9665,386.8859 Q675.9665,388.9777 676.6513,390.0444 Q677.3361,391.111 678.6808,391.111 Q679.3117,391.111 679.9052,390.8412 Q680.4987,390.5715 681.1296,389.9904 Z " fill="#000000"/><text fill="#000000" font-family="sans-serif" font-size="14" lengthAdjust="spacing" textLength="146.4873" x="698.109" y="391.861">Dokumentbeskrivelse</text><line style="stroke:#181818;stroke-width:0.5;" x1="640.12" x2="871.1327" y1="402.57" y2="402.57"/><ellipse cx="650.12" cy="416.3141" fill="#000000" rx="3" ry="3" style="stroke:#000000;stroke-width:1;"/><text fill="#000000" font-family="sans-serif" font-size="14" lengthAdjust="spacing" textLength="108.9648" x="659.12" y="420.1052">systemId: string</text><ellipse cx="650.12" cy="432.8024" fill="#000000" rx="3" ry="3" style="stroke:#000000;stroke-width:1;"/><text fill="#000000" font-family="sans-serif" font-size="14" lengthAdjust="spacing" textLength="80.0283" x="659.12" y="436.5934">tittel: string</text><ellipse cx="650.12" cy="449.2907" fill="#000000" rx="3" ry="3" style="stroke:#000000;stroke-width:1;"/><text fill="#000000" font-family="sans-serif" font-size="14" lengthAdjust="spacing" textLength="207.0127" x="659.12" y="453.0817">dokumenttype: Dokumenttype</text><ellipse cx="650.12" cy="465.779" fill="#000000" rx="3" ry="3" style="stroke:#000000;stroke-width:1;"/><text fill="#000000" font-family="sans-serif" font-size="14" lengthAdjust="spacing" textLength="191.5771" x="659.12" y="469.57">dokumentobjekt: Dokument</text><line style="stroke:#181818;stroke-width:0.5;" x1="640.12" x2="871.1327" y1="476.5231" y2="476.5231"/></g><!--class Dokumenttype--><g id="elem_Dokumenttype"><rect codeLine="13" fill="#F1F1F1" height="89.5977" id="Dokumenttype" rx="2.5" ry="2.5" style="stroke:#181818;stroke-width:0.5;" width="183.5547" x="663.85" y="589.68"/><ellipse cx="702.0883" cy="609.9905" fill="#ADD1B2" rx="11" ry="11" style="stroke:#181818;stroke-width:1;"/><path d="M704.5614,616.1336 Q703.9804,616.4324 703.3412,616.5819 Q702.7021,616.7313 701.9965,616.7313 Q699.4896,616.7313 698.1698,615.0794 Q696.85,613.4276 696.85,610.3065 Q696.85,607.1771 698.1698,605.5252 Q699.4896,603.8734 701.9965,603.8734 Q702.7021,603.8734 703.3495,604.0228 Q703.997,604.1722 704.5614,604.471 L704.5614,607.1937 Q703.9306,606.6126 703.3371,606.3428 Q702.7436,606.0731 702.1127,606.0731 Q700.768,606.0731 700.0832,607.1397 Q699.3983,608.2064 699.3983,610.3065 Q699.3983,612.3983 700.0832,613.4649 Q700.768,614.5316 702.1127,614.5316 Q702.7436,614.5316 703.3371,614.2618 Q703.9306,613.992 704.5614,613.411 Z " fill="#000000"/><text fill="#000000" font-family="sans-serif" font-size="12" font-style="italic" lengthAdjust="spacing" textLength="42.0176" x="750.2006" y="606.2816">&#171;Kode&#187;</text><text fill="#000000" font-family="sans-serif" font-size="14" lengthAdjust="spacing" textLength="99.9141" x="721.2523" y="622.348">Dokumenttype</text><line style="stroke:#181818;stroke-width:0.5;" x1="664.85" x2="846.4047" y1="630.3011" y2="630.3011"/><ellipse cx="674.85" cy="644.0452" fill="#000000" rx="3" ry="3" style="stroke:#000000;stroke-width:1;"/><text fill="#000000" font-family="sans-serif" font-size="14" lengthAdjust="spacing" textLength="115.4521" x="683.85" y="647.8363">kodeverdi: string</text><text fill="#000000" font-family="sans-serif" font-size="14" lengthAdjust="spacing" textLength="157.5547" x="683.85" y="664.3245">kodebeskrivelse: string</text><line style="stroke:#181818;stroke-width:0.5;" x1="664.85" x2="846.4047" y1="671.2777" y2="671.2777"/></g><!--class Korrespondansepart--><g id="elem_Korrespondansepart"><rect codeLine="2" fill="#F1F1F1" height="80.9766" id="Korrespondansepart" rx="2.5" ry="2.5" style="stroke:#181818;stroke-width:0.5;" width="369" x="235.12" y="387.06"/><ellipse cx="346.4159" cy="403.06" fill="#ADD1B2" rx="11" ry="11" style="stroke:#181818;stroke-width:1;"/><path d="M348.889,409.2031 Q348.308,409.5019 347.6688,409.6513 Q347.0297,409.8007 346.3241,409.8007 Q343.8173,409.8007 342.4974,408.1489 Q341.1776,406.497 341.1776,403.3759 Q341.1776,400.2465 342.4974,398.5947 Q343.8173,396.9428 346.3241,396.9428 Q347.0297,396.9428 347.6771,397.0922 Q348.3246,397.2416 348.889,397.5405 L348.889,400.2631 Q348.2582,399.6821 347.6647,399.4123 Q347.0712,399.1425 346.4403,399.1425 Q345.0956,399.1425 344.4108,400.2092 Q343.726,401.2758 343.726,403.3759 Q343.726,405.4677 344.4108,406.5344 Q345.0956,407.601 346.4403,407.601 Q347.0712,407.601 347.6647,407.3312 Q348.2582,407.0615 348.889,406.4804 Z " fill="#000000"/><text fill="#000000" font-family="sans-serif" font-size="14" lengthAdjust="spacing" textLength="137.9082" x="366.9159" y="408.351">Korrespondansepart</text><line style="stroke:#181818;stroke-width:0.5;" x1="236.12" x2="603.12" y1="419.06" y2="419.06"/><ellipse cx="246.12" cy="432.8041" fill="#000000" rx="3" ry="3" style="stroke:#000000;stroke-width:1;"/><text fill="#000000" font-family="sans-serif" font-size="14" lengthAdjust="spacing" textLength="343" x="255.12" y="436.5952">Korrespondanseparttype: Korrespondanseparttype</text><ellipse cx="246.12" cy="449.2924" fill="#000000" rx="3" ry="3" style="stroke:#000000;stroke-width:1;"/><text fill="#000000" font-family="sans-serif" font-size="14" lengthAdjust="spacing" textLength="217.7314" x="255.12" y="453.0834">korrespondansepartnavn: string</text><line style="stroke:#181818;stroke-width:0.5;" x1="236.12" x2="603.12" y1="460.0366" y2="460.0366"/></g><!--class Korrespondanseparttype--><g id="elem_Korrespondanseparttype"><rect codeLine="9" fill="#F1F1F1" height="89.5977" id="Korrespondanseparttype" rx="2.5" ry="2.5" style="stroke:#181818;stroke-width:0.5;" width="199.0703" x="320.09" y="589.68"/><ellipse cx="335.09" cy="609.9905" fill="#ADD1B2" rx="11" ry="11" style="stroke:#181818;stroke-width:1;"/><path d="M337.5631,616.1336 Q336.9821,616.4324 336.3429,616.5819 Q335.7038,616.7313 334.9982,616.7313 Q332.4914,616.7313 331.1715,615.0794 Q329.8517,613.4276 329.8517,610.3065 Q329.8517,607.1771 331.1715,605.5252 Q332.4914,603.8734 334.9982,603.8734 Q335.7038,603.8734 336.3512,604.0228 Q336.9987,604.1722 337.5631,604.471 L337.5631,607.1937 Q336.9323,606.6126 336.3388,606.3428 Q335.7453,606.0731 335.1144,606.0731 Q333.7697,606.0731 333.0849,607.1397 Q332.4001,608.2064 332.4001,610.3065 Q332.4001,612.3983 333.0849,613.4649 Q333.7697,614.5316 335.1144,614.5316 Q335.7453,614.5316 336.3388,614.2618 Q336.9323,613.992 337.5631,613.411 Z " fill="#000000"/><text fill="#000000" font-family="sans-serif" font-size="12" font-style="italic" lengthAdjust="spacing" textLength="42.0176" x="411.6164" y="606.2816">&#171;Kode&#187;</text><text fill="#000000" font-family="sans-serif" font-size="14" lengthAdjust="spacing" textLength="167.0703" x="349.09" y="622.348">Korrespondanseparttype</text><line style="stroke:#181818;stroke-width:0.5;" x1="321.09" x2="518.1603" y1="630.3011" y2="630.3011"/><ellipse cx="331.09" cy="644.0452" fill="#000000" rx="3" ry="3" style="stroke:#000000;stroke-width:1;"/><text fill="#000000" font-family="sans-serif" font-size="14" lengthAdjust="spacing" textLength="115.4521" x="340.09" y="647.8363">kodeverdi: string</text><text fill="#000000" font-family="sans-serif" font-size="14" lengthAdjust="spacing" textLength="157.5547" x="340.09" y="664.3245">kodebeskrivelse: string</text><line style="stroke:#181818;stroke-width:0.5;" x1="321.09" x2="518.1603" y1="671.2777" y2="671.2777"/></g><!--class Journalpost--><g id="elem_Journalpost"><rect codeLine="6" fill="#F1F1F1" height="295.3242" id="Journalpost" rx="2.5" ry="2.5" style="stroke:#181818;stroke-width:0.5;" width="326.9932" x="713.13" y="7"/><ellipse cx="833.5655" cy="23" fill="#ADD1B2" rx="11" ry="11" style="stroke:#181818;stroke-width:1;"/><path d="M836.0387,29.1431 Q835.4576,29.4419 834.8185,29.5913 Q834.1793,29.7407 833.4738,29.7407 Q830.9669,29.7407 829.6471,28.0889 Q828.3273,26.437 828.3273,23.3159 Q828.3273,20.1865 829.6471,18.5347 Q830.9669,16.8828 833.4738,16.8828 Q834.1793,16.8828 834.8268,17.0322 Q835.4742,17.1816 836.0387,17.4805 L836.0387,20.2031 Q835.4078,19.6221 834.8143,19.3523 Q834.2208,19.0825 833.59,19.0825 Q832.2452,19.0825 831.5604,20.1492 Q830.8756,21.2158 830.8756,23.3159 Q830.8756,25.4077 831.5604,26.4744 Q832.2452,27.541 833.59,27.541 Q834.2208,27.541 834.8143,27.2712 Q835.4078,27.0015 836.0387,26.4204 Z " fill="#000000"/><text fill="#000000" font-family="sans-serif" font-size="14" lengthAdjust="spacing" textLength="77.6221" x="854.0655" y="28.291">Journalpost</text><line style="stroke:#181818;stroke-width:0.5;" x1="714.13" x2="1039.1232" y1="39" y2="39"/><text fill="#000000" font-family="sans-serif" font-size="14" lengthAdjust="spacing" textLength="108.9648" x="719.13" y="56.5352">systemId: string</text><text fill="#000000" font-family="sans-serif" font-size="14" lengthAdjust="spacing" textLength="144.5459" x="719.13" y="73.0234">skjerming: Skjerming</text><text fill="#000000" font-family="sans-serif" font-size="14" lengthAdjust="spacing" textLength="142.2354" x="719.13" y="89.5117">gradering: Gradering</text><text fill="#000000" font-family="sans-serif" font-size="14" lengthAdjust="spacing" textLength="314.9932" x="719.13" y="106">dokumentbeskrivelser: Dokumentbeskrivelse[]</text><text fill="#000000" font-family="sans-serif" font-size="14" lengthAdjust="spacing" textLength="147.8066" x="719.13" y="122.4883">registreringsId: string</text><text fill="#000000" font-family="sans-serif" font-size="14" lengthAdjust="spacing" textLength="80.0283" x="719.13" y="138.9766">tittel: string</text><text fill="#000000" font-family="sans-serif" font-size="14" lengthAdjust="spacing" textLength="141.0869" x="719.13" y="155.4648">offentligTittel: string</text><text fill="#000000" font-family="sans-serif" font-size="14" lengthAdjust="spacing" textLength="306.3525" x="719.13" y="171.9531">korrespondanseparter: Korrespondansepart[]</text><text fill="#000000" font-family="sans-serif" font-size="14" lengthAdjust="spacing" textLength="125.8223" x="719.13" y="188.4414">journalaar: integer</text><text fill="#000000" font-family="sans-serif" font-size="14" lengthAdjust="spacing" textLength="215.667" x="719.13" y="204.9297">journalsekvensnummer: integer</text><text fill="#000000" font-family="sans-serif" font-size="14" lengthAdjust="spacing" textLength="191.4609" x="719.13" y="221.418">journalpostnummer: integer</text><text fill="#000000" font-family="sans-serif" font-size="14" lengthAdjust="spacing" textLength="222.332" x="719.13" y="237.9063">journalposttype: Journalposttype</text><text fill="#000000" font-family="sans-serif" font-size="14" lengthAdjust="spacing" textLength="186.7715" x="719.13" y="254.3945">journalstatus: Journalstatus</text><text fill="#000000" font-family="sans-serif" font-size="14" lengthAdjust="spacing" textLength="116.5596" x="719.13" y="270.8828">journaldato: date</text><text fill="#000000" font-family="sans-serif" font-size="14" lengthAdjust="spacing" textLength="159.7422" x="719.13" y="287.3711">dokumentetsDato: date</text><line style="stroke:#181818;stroke-width:0.5;" x1="714.13" x2="1039.1232" y1="294.3242" y2="294.3242"/></g><!--class Journalposttype--><g id="elem_Journalposttype"><rect codeLine="33" fill="#F1F1F1" height="89.5977" id="Journalposttype" rx="2.5" ry="2.5" style="stroke:#181818;stroke-width:0.5;" width="183.5547" x="906.85" y="382.75"/><ellipse cx="941.9967" cy="403.0605" fill="#ADD1B2" rx="11" ry="11" style="stroke:#181818;stroke-width:1;"/><path d="M944.4699,409.2036 Q943.8888,409.5024 943.2497,409.6519 Q942.6105,409.8013 941.9049,409.8013 Q939.3981,409.8013 938.0783,408.1494 Q936.7584,406.4976 936.7584,403.3765 Q936.7584,400.2471 938.0783,398.5952 Q939.3981,396.9434 941.9049,396.9434 Q942.6105,396.9434 943.258,397.0928 Q943.9054,397.2422 944.4699,397.541 L944.4699,400.2637 Q943.839,399.6826 943.2455,399.4128 Q942.652,399.1431 942.0211,399.1431 Q940.6764,399.1431 939.9916,400.2097 Q939.3068,401.2764 939.3068,403.3765 Q939.3068,405.4683 939.9916,406.5349 Q940.6764,407.6016 942.0211,407.6016 Q942.652,407.6016 943.2455,407.3318 Q943.839,407.062 944.4699,406.481 Z " fill="#000000"/><text fill="#000000" font-family="sans-serif" font-size="12" font-style="italic" lengthAdjust="spacing" textLength="42.0176" x="992.8571" y="399.3516">&#171;Kode&#187;</text><text fill="#000000" font-family="sans-serif" font-size="14" lengthAdjust="spacing" textLength="106.7842" x="960.4738" y="415.418">Journalposttype</text><line style="stroke:#181818;stroke-width:0.5;" x1="907.85" x2="1089.4047" y1="423.3711" y2="423.3711"/><ellipse cx="917.85" cy="437.1152" fill="#000000" rx="3" ry="3" style="stroke:#000000;stroke-width:1;"/><text fill="#000000" font-family="sans-serif" font-size="14" lengthAdjust="spacing" textLength="115.4521" x="926.85" y="440.9062">kodeverdi: string</text><text fill="#000000" font-family="sans-serif" font-size="14" lengthAdjust="spacing" textLength="157.5547" x="926.85" y="457.3945">kodebeskrivelse: string</text><line style="stroke:#181818;stroke-width:0.5;" x1="907.85" x2="1089.4047" y1="464.3477" y2="464.3477"/></g><!--class Journalstatus--><g id="elem_Journalstatus"><rect codeLine="38" fill="#F1F1F1" height="89.5977" id="Journalstatus" rx="2.5" ry="2.5" style="stroke:#181818;stroke-width:0.5;" width="183.5547" x="1125.85" y="382.75"/><ellipse cx="1168.9979" cy="403.0605" fill="#ADD1B2" rx="11" ry="11" style="stroke:#181818;stroke-width:1;"/><path d="M1171.471,409.2036 Q1170.8899,409.5024 1170.2508,409.6519 Q1169.6116,409.8013 1168.9061,409.8013 Q1166.3992,409.8013 1165.0794,408.1494 Q1163.7596,406.4976 1163.7596,403.3765 Q1163.7596,400.2471 1165.0794,398.5952 Q1166.3992,396.9434 1168.9061,396.9434 Q1169.6116,396.9434 1170.2591,397.0928 Q1170.9065,397.2422 1171.471,397.541 L1171.471,400.2637 Q1170.8401,399.6826 1170.2466,399.4128 Q1169.6531,399.1431 1169.0223,399.1431 Q1167.6775,399.1431 1166.9927,400.2097 Q1166.3079,401.2764 1166.3079,403.3765 Q1166.3079,405.4683 1166.9927,406.5349 Q1167.6775,407.6016 1169.0223,407.6016 Q1169.6531,407.6016 1170.2466,407.3318 Q1170.8401,407.062 1171.471,406.481 Z " fill="#000000"/><text fill="#000000" font-family="sans-serif" font-size="12" font-style="italic" lengthAdjust="spacing" textLength="42.0176" x="1212.7461" y="399.3516">&#171;Kode&#187;</text><text fill="#000000" font-family="sans-serif" font-size="14" lengthAdjust="spacing" textLength="89.0039" x="1189.2529" y="415.418">Journalstatus</text><line style="stroke:#181818;stroke-width:0.5;" x1="1126.85" x2="1308.4047" y1="423.3711" y2="423.3711"/><ellipse cx="1136.85" cy="437.1152" fill="#000000" rx="3" ry="3" style="stroke:#000000;stroke-width:1;"/><text fill="#000000" font-family="sans-serif" font-size="14" lengthAdjust="spacing" textLength="115.4521" x="1145.85" y="440.9062">kodeverdi: string</text><text fill="#000000" font-family="sans-serif" font-size="14" lengthAdjust="spacing" textLength="157.5547" x="1145.85" y="457.3945">kodebeskrivelse: string</text><line style="stroke:#181818;stroke-width:0.5;" x1="1126.85" x2="1308.4047" y1="464.3477" y2="464.3477"/></g><!--link Skjerming to Tilgangsrestriksjon--><g id="link_Skjerming_Tilgangsrestriksjon"><path codeLine="9" d="M1762.22,484.81 C1743.26,517.75 1719.65,558.75 1702.03,589.34 " fill="#FFFFFF" fill-opacity="0.00000" id="Skjerming-Tilgangsrestriksjon" style="stroke:#181818;stroke-width:1;stroke-dasharray:7.0,7.0;"/></g><!--link Skjerming to SkjermingOpphoererAksjon--><g id="link_Skjerming_SkjermingOpphoererAksjon"><path codeLine="10" d="M1827.02,484.81 C1845.99,517.75 1869.6,558.75 1887.21,589.34 " fill="#FFFFFF" fill-opacity="0.00000" id="Skjerming-SkjermingOpphoererAksjon" style="stroke:#181818;stroke-width:1;stroke-dasharray:7.0,7.0;"/></g><!--link Gradering to Grad--><g id="link_Gradering_Grad"><path codeLine="10" d="M103.62,493.1 C103.62,524.43 103.62,561.26 103.62,589.33 " fill="#FFFFFF" fill-opacity="0.00000" id="Gradering-Grad" style="stroke:#181818;stroke-width:1;stroke-dasharray:7.0,7.0;"/></g><!--link Dokument to ReferanseDokumentfil--><g id="link_Dokument_ReferanseDokumentfil"><path codeLine="15" d="M1275.62,716.61 C1275.62,737.16 1275.62,758.34 1275.62,775.82 " fill="#FFFFFF" fill-opacity="0.00000" id="Dokument-ReferanseDokumentfil" style="stroke:#181818;stroke-width:1;"/></g><!--link Dokumentbeskrivelse to Dokumenttype--><g id="link_Dokumentbeskrivelse_Dokumenttype"><path codeLine="10" d="M755.62,484.81 C755.62,517.75 755.62,558.75 755.62,589.34 " fill="#FFFFFF" fill-opacity="0.00000" id="Dokumentbeskrivelse-Dokumenttype" style="stroke:#181818;stroke-width:1;stroke-dasharray:7.0,7.0;"/></g><!--link Dokumentbeskrivelse to Dokument--><g id="link_Dokumentbeskrivelse_Dokument"><path codeLine="11" d="M871.52,484.94 C877.62,487.64 883.68,490.26 889.62,492.77 C960.63,522.64 1040.42,552.35 1108.95,576.72 " fill="#FFFFFF" fill-opacity="0.00000" id="Dokumentbeskrivelse-Dokument" style="stroke:#181818;stroke-width:1;stroke-dasharray:7.0,7.0;"/></g><!--link Korrespondansepart to Korrespondanseparttype--><g id="link_Korrespondansepart_Korrespondanseparttype"><path codeLine="7" d="M419.62,468.06 C419.62,502.83 419.62,553.41 419.62,589.46 " fill="#FFFFFF" fill-opacity="0.00000" id="Korrespondansepart-Korrespondanseparttype" style="stroke:#181818;stroke-width:1;stroke-dasharray:7.0,7.0;"/></g><!--link Journalpost to Skjerming--><g id="link_Journalpost_Skjerming"><path codeLine="24" d="M1040.48,204.01 C1198.25,250.57 1436.81,320.96 1603.24,370.07 " fill="#FFFFFF" fill-opacity="0.00000" id="Journalpost-Skjerming" style="stroke:#181818;stroke-width:1;stroke-dasharray:7.0,7.0;"/></g><!--link Journalpost to Gradering--><g id="link_Journalpost_Gradering"><path codeLine="25" d="M712.73,196.79 C577.27,233.19 381.31,291.48 217.62,362.32 C212,364.76 206.29,367.4 200.58,370.16 " fill="#FFFFFF" fill-opacity="0.00000" id="Journalpost-Gradering" style="stroke:#181818;stroke-width:1;stroke-dasharray:7.0,7.0;"/></g><!--link Journalpost to Dokumentbeskrivelse--><g id="link_Journalpost_Dokumentbeskrivelse"><path codeLine="26" d="M810.99,302.6 C800.27,326.6 789.76,350.12 780.83,370.11 " fill="#FFFFFF" fill-opacity="0.00000" id="Journalpost-Dokumentbeskrivelse" style="stroke:#181818;stroke-width:1;stroke-dasharray:7.0,7.0;"/></g><!--link Journalpost to Korrespondansepart--><g id="link_Journalpost_Korrespondansepart"><path codeLine="27" d="M712.93,252.69 C635.07,298.84 546.27,351.48 486.96,386.63 " fill="#FFFFFF" fill-opacity="0.00000" id="Journalpost-Korrespondansepart" style="stroke:#181818;stroke-width:1;stroke-dasharray:7.0,7.0;"/></g><!--link Journalpost to Journalposttype--><g id="link_Journalpost_Journalposttype"><path codeLine="28" d="M942.8,302.6 C955.91,331.7 968.7,360.09 978.72,382.34 " fill="#FFFFFF" fill-opacity="0.00000" id="Journalpost-Journalposttype" style="stroke:#181818;stroke-width:1;stroke-dasharray:7.0,7.0;"/></g><!--link Journalpost to Journalstatus--><g id="link_Journalpost_Journalstatus"><path codeLine="29" d="M1040.13,285.55 C1084.06,320.45 1128.61,355.83 1162.09,382.43 " fill="#FFFFFF" fill-opacity="0.00000" id="Journalpost-Journalstatus" style="stroke:#181818;stroke-width:1;stroke-dasharray:7.0,7.0;"/></g><!--SRC=[fL8zQyCm4DtzAvIrWq9N4p85IfkntKe7DJeRHR9axiw6KFBVAtyaSMH3AV4WfFUUtldUQMNymJKQX5nBkVP1MfA5YGifIuKYGDa-omASWuZP8s1bVBa-E4MaZIfHLR9kijL_RE8b3VYmZGwsgS3pDv15qu8ZUCpG1aIWEdYjF46ja6T-MG-8jz2WLwuEnE8d4_6Z4p5KhpeNn5rh0tZ9AnVlbsrFN1F8nSjbsnCBFM4kTdFqywlN8vGc5kmDAAdEXXdS7HIA8jeuKtxCkNdtNUdz31qh7uS8b8eYunbAm2bEO5lmv9kgWcL55zuVD9zgoATXTy1T5LRSq5Ko7AS2hJZa8gvm5oymxMxCESkc0vLoCgs4k4qh8HP6b4hcKQQAjDDbUkmoMtYCtIsnsUo3XkrsV9bFDfvQG6sISMkO_EoLEoUsGxN7JNy1]--></g></svg>