<svg xmlns="http://www.w3.org/2000/svg" xmlns:xlink="http://www.w3.org/1999/xlink" contentStyleType="text/css" data-diagram-type="CLASS" height="745px" preserveAspectRatio="none" style="width:1933px;height:745px;background:#FFFFFF;" version="1.1" viewBox="0 0 1933 745" width="1933px" zoomAndPan="magnify"><defs/><g><!--class Skjerming--><g class="entity" data-entity="Skjerming" data-source-line="2" data-uid="ent0002" id="entity_Skjerming"><rect fill="#F1F1F1" height="113.9531" rx="2.5" ry="2.5" style="stroke:#181818;stroke-width:0.5;" width="409.2842" x="225.14" y="450.42"/><ellipse cx="391.5096" cy="466.42" fill="#ADD1B2" rx="11" ry="11" style="stroke:#181818;stroke-width:1;"/><path d="M393.9828,472.5631 Q393.4017,472.8619 392.7626,473.0113 Q392.1234,473.1607 391.4178,473.1607 Q388.911,473.1607 387.5912,471.5089 Q386.2713,469.857 386.2713,466.7359 Q386.2713,463.6065 387.5912,461.9547 Q388.911,460.3028 391.4178,460.3028 Q392.1234,460.3028 392.7709,460.4522 Q393.4183,460.6016 393.9828,460.9005 L393.9828,463.6231 Q393.3519,463.0421 392.7584,462.7723 Q392.1649,462.5025 391.534,462.5025 Q390.1893,462.5025 389.5045,463.5692 Q388.8197,464.6358 388.8197,466.7359 Q388.8197,468.8277 389.5045,469.8944 Q390.1893,470.961 391.534,470.961 Q392.1649,470.961 392.7584,470.6912 Q393.3519,470.4215 393.9828,469.8404 Z " fill="#000000"/><text fill="#000000" font-family="sans-serif" font-size="14" lengthAdjust="spacing" textLength="68.0449" x="412.0096" y="471.711">Skjerming</text><line style="stroke:#181818;stroke-width:0.5;" x1="226.14" x2="633.4242" y1="482.42" y2="482.42"/><ellipse cx="236.14" cy="496.1641" fill="#000000" rx="3" ry="3" style="stroke:#000000;stroke-width:1;"/><text fill="#000000" font-family="sans-serif" font-size="14" lengthAdjust="spacing" textLength="266.2529" x="245.14" y="499.9552">tilgangsrestriksjon: Tilgangsrestriksjon</text><ellipse cx="236.14" cy="512.6524" fill="#000000" rx="3" ry="3" style="stroke:#000000;stroke-width:1;"/><text fill="#000000" font-family="sans-serif" font-size="14" lengthAdjust="spacing" textLength="181.9385" x="245.14" y="516.4434">skjermingshjemmel: string</text><text fill="#000000" font-family="sans-serif" font-size="14" lengthAdjust="spacing" textLength="210.9775" x="245.14" y="532.9317">skjermingOpphoererDato: date</text><text fill="#000000" font-family="sans-serif" font-size="14" lengthAdjust="spacing" textLength="383.2842" x="245.14" y="549.42">skjermingOpphoererAksjon: SkjermingOpphoererAksjon</text><line style="stroke:#181818;stroke-width:0.5;" x1="226.14" x2="633.4242" y1="556.3731" y2="556.3731"/></g><!--class Tilgangsrestriksjon--><g class="entity" data-entity="Tilgangsrestriksjon" data-source-line="9" data-uid="ent0003" id="entity_Tilgangsrestriksjon"><rect fill="#F1F1F1" height="89.5977" rx="2.5" ry="2.5" style="stroke:#181818;stroke-width:0.5;" width="183.5547" x="152" y="649.1"/><ellipse cx="176.4724" cy="669.4105" fill="#ADD1B2" rx="11" ry="11" style="stroke:#181818;stroke-width:1;"/><path d="M178.9456,675.5536 Q178.3645,675.8524 177.7253,676.0019 Q177.0862,676.1513 176.3806,676.1513 Q173.8738,676.1513 172.554,674.4994 Q171.2341,672.8476 171.2341,669.7265 Q171.2341,666.5971 172.554,664.9452 Q173.8738,663.2934 176.3806,663.2934 Q177.0862,663.2934 177.7336,663.4428 Q178.3811,663.5922 178.9456,663.891 L178.9456,666.6137 Q178.3147,666.0326 177.7212,665.7628 Q177.1277,665.4931 176.4968,665.4931 Q175.1521,665.4931 174.4673,666.5597 Q173.7825,667.6264 173.7825,669.7265 Q173.7825,671.8183 174.4673,672.8849 Q175.1521,673.9516 176.4968,673.9516 Q177.1277,673.9516 177.7212,673.6818 Q178.3147,673.412 178.9456,672.831 Z " fill="#000000"/><text fill="#000000" font-family="sans-serif" font-size="12" font-style="italic" lengthAdjust="spacing" textLength="42.0176" x="236.821" y="665.7016">&#171;Kode&#187;</text><text fill="#000000" font-family="sans-serif" font-size="14" lengthAdjust="spacing" textLength="130.5049" x="192.5774" y="681.768">Tilgangsrestriksjon</text><line style="stroke:#181818;stroke-width:0.5;" x1="153" x2="334.5547" y1="689.7211" y2="689.7211"/><ellipse cx="163" cy="703.4652" fill="#000000" rx="3" ry="3" style="stroke:#000000;stroke-width:1;"/><text fill="#000000" font-family="sans-serif" font-size="14" lengthAdjust="spacing" textLength="115.4521" x="172" y="707.2563">kodeverdi: string</text><text fill="#000000" font-family="sans-serif" font-size="14" lengthAdjust="spacing" textLength="157.5547" x="172" y="723.7445">kodebeskrivelse: string</text><line style="stroke:#181818;stroke-width:0.5;" x1="153" x2="334.5547" y1="730.6977" y2="730.6977"/></g><!--class SkjermingOpphoererAksjon--><g class="entity" data-entity="SkjermingOpphoererAksjon" data-source-line="10" data-uid="ent0005" id="entity_SkjermingOpphoererAksjon"><rect fill="#F1F1F1" height="89.5977" rx="2.5" ry="2.5" style="stroke:#181818;stroke-width:0.5;" width="219.4141" x="370.07" y="649.1"/><ellipse cx="385.07" cy="669.4105" fill="#ADD1B2" rx="11" ry="11" style="stroke:#181818;stroke-width:1;"/><path d="M387.5431,675.5536 Q386.9621,675.8524 386.3229,676.0019 Q385.6838,676.1513 384.9782,676.1513 Q382.4714,676.1513 381.1515,674.4994 Q379.8317,672.8476 379.8317,669.7265 Q379.8317,666.5971 381.1515,664.9452 Q382.4714,663.2934 384.9782,663.2934 Q385.6838,663.2934 386.3312,663.4428 Q386.9787,663.5922 387.5431,663.891 L387.5431,666.6137 Q386.9123,666.0326 386.3188,665.7628 Q385.7253,665.4931 385.0944,665.4931 Q383.7497,665.4931 383.0649,666.5597 Q382.3801,667.6264 382.3801,669.7265 Q382.3801,671.8183 383.0649,672.8849 Q383.7497,673.9516 385.0944,673.9516 Q385.7253,673.9516 386.3188,673.6818 Q386.9123,673.412 387.5431,672.831 Z " fill="#000000"/><text fill="#000000" font-family="sans-serif" font-size="12" font-style="italic" lengthAdjust="spacing" textLength="42.0176" x="471.7682" y="665.7016">&#171;Kode&#187;</text><text fill="#000000" font-family="sans-serif" font-size="14" lengthAdjust="spacing" textLength="187.4141" x="399.07" y="681.768">SkjermingOpphoererAksjon</text><line style="stroke:#181818;stroke-width:0.5;" x1="371.07" x2="588.4841" y1="689.7211" y2="689.7211"/><ellipse cx="381.07" cy="703.4652" fill="#000000" rx="3" ry="3" style="stroke:#000000;stroke-width:1;"/><text fill="#000000" font-family="sans-serif" font-size="14" lengthAdjust="spacing" textLength="115.4521" x="390.07" y="707.2563">kodeverdi: string</text><text fill="#000000" font-family="sans-serif" font-size="14" lengthAdjust="spacing" textLength="157.5547" x="390.07" y="723.7445">kodebeskrivelse: string</text><line style="stroke:#181818;stroke-width:0.5;" x1="371.07" x2="588.4841" y1="730.6977" y2="730.6977"/></g><!--class Gradering--><g class="entity" data-entity="Gradering" data-source-line="2" data-uid="ent0007" id="entity_Gradering"><rect fill="#F1F1F1" height="130.4414" rx="2.5" ry="2.5" style="stroke:#181818;stroke-width:0.5;" width="193.248" x="669.15" y="442.17"/><ellipse cx="727.8331" cy="458.17" fill="#ADD1B2" rx="11" ry="11" style="stroke:#181818;stroke-width:1;"/><path d="M730.3063,464.3131 Q729.7252,464.6119 729.086,464.7613 Q728.4469,464.9107 727.7413,464.9107 Q725.2345,464.9107 723.9146,463.2589 Q722.5948,461.607 722.5948,458.4859 Q722.5948,455.3565 723.9146,453.7047 Q725.2345,452.0528 727.7413,452.0528 Q728.4469,452.0528 729.0943,452.2022 Q729.7418,452.3516 730.3063,452.6505 L730.3063,455.3731 Q729.6754,454.7921 729.0819,454.5223 Q728.4884,454.2525 727.8575,454.2525 Q726.5128,454.2525 725.828,455.3192 Q725.1432,456.3858 725.1432,458.4859 Q725.1432,460.5777 725.828,461.6444 Q726.5128,462.711 727.8575,462.711 Q728.4884,462.711 729.0819,462.4412 Q729.6754,462.1715 730.3063,461.5904 Z " fill="#000000"/><text fill="#000000" font-family="sans-serif" font-size="14" lengthAdjust="spacing" textLength="67.3818" x="748.3331" y="463.461">Gradering</text><line style="stroke:#181818;stroke-width:0.5;" x1="670.15" x2="861.398" y1="474.17" y2="474.17"/><ellipse cx="680.15" cy="487.9141" fill="#000000" rx="3" ry="3" style="stroke:#000000;stroke-width:1;"/><text fill="#000000" font-family="sans-serif" font-size="14" lengthAdjust="spacing" textLength="72.249" x="689.15" y="491.7052">grad: Grad</text><ellipse cx="680.15" cy="504.4024" fill="#000000" rx="3" ry="3" style="stroke:#000000;stroke-width:1;"/><text fill="#000000" font-family="sans-serif" font-size="14" lengthAdjust="spacing" textLength="141.9482" x="689.15" y="508.1934">graderingsdato: date</text><ellipse cx="680.15" cy="520.8907" fill="#000000" rx="3" ry="3" style="stroke:#000000;stroke-width:1;"/><text fill="#000000" font-family="sans-serif" font-size="14" lengthAdjust="spacing" textLength="115.0967" x="689.15" y="524.6817">gradertAv: string</text><text fill="#000000" font-family="sans-serif" font-size="14" lengthAdjust="spacing" textLength="167.248" x="689.15" y="541.17">nedgraderingsdato: date</text><text fill="#000000" font-family="sans-serif" font-size="14" lengthAdjust="spacing" textLength="140.3965" x="689.15" y="557.6583">nedgradertAv: string</text><line style="stroke:#181818;stroke-width:0.5;" x1="670.15" x2="861.398" y1="564.6114" y2="564.6114"/></g><!--class Grad--><g class="entity" data-entity="Grad" data-source-line="10" data-uid="ent0008" id="entity_Grad"><rect fill="#F1F1F1" height="89.5977" rx="2.5" ry="2.5" style="stroke:#181818;stroke-width:0.5;" width="183.5547" x="674" y="649.1"/><ellipse cx="742.5186" cy="669.4105" fill="#ADD1B2" rx="11" ry="11" style="stroke:#181818;stroke-width:1;"/><path d="M744.9917,675.5536 Q744.4106,675.8524 743.7715,676.0019 Q743.1323,676.1513 742.4268,676.1513 Q739.9199,676.1513 738.6001,674.4994 Q737.2803,672.8476 737.2803,669.7265 Q737.2803,666.5971 738.6001,664.9452 Q739.9199,663.2934 742.4268,663.2934 Q743.1323,663.2934 743.7798,663.4428 Q744.4272,663.5922 744.9917,663.891 L744.9917,666.6137 Q744.3608,666.0326 743.7673,665.7628 Q743.1738,665.4931 742.543,665.4931 Q741.1982,665.4931 740.5134,666.5597 Q739.8286,667.6264 739.8286,669.7265 Q739.8286,671.8183 740.5134,672.8849 Q741.1982,673.9516 742.543,673.9516 Q743.1738,673.9516 743.7673,673.6818 Q744.3608,673.412 744.9917,672.831 Z " fill="#000000"/><text fill="#000000" font-family="sans-serif" font-size="12" font-style="italic" lengthAdjust="spacing" textLength="42.0176" x="761.0186" y="665.7016">&#171;Kode&#187;</text><text fill="#000000" font-family="sans-serif" font-size="14" lengthAdjust="spacing" textLength="32.3887" x="765.833" y="681.768">Grad</text><line style="stroke:#181818;stroke-width:0.5;" x1="675" x2="856.5547" y1="689.7211" y2="689.7211"/><ellipse cx="685" cy="703.4652" fill="#000000" rx="3" ry="3" style="stroke:#000000;stroke-width:1;"/><text fill="#000000" font-family="sans-serif" font-size="14" lengthAdjust="spacing" textLength="115.4521" x="694" y="707.2563">kodeverdi: string</text><text fill="#000000" font-family="sans-serif" font-size="14" lengthAdjust="spacing" textLength="157.5547" x="694" y="723.7445">kodebeskrivelse: string</text><line style="stroke:#181818;stroke-width:0.5;" x1="675" x2="856.5547" y1="730.6977" y2="730.6977"/></g><!--class ReferanseDokumentfil--><g class="entity" data-entity="ReferanseDokumentfil" data-source-line="2" data-uid="ent0010" id="entity_ReferanseDokumentfil"><rect fill="#F1F1F1" height="80.9766" rx="2.5" ry="2.5" style="stroke:#181818;stroke-width:0.5;" width="182.6777" x="1668.44" y="653.41"/><ellipse cx="1683.44" cy="669.41" fill="#ADD1B2" rx="11" ry="11" style="stroke:#181818;stroke-width:1;"/><path d="M1685.9131,675.5531 Q1685.3321,675.8519 1684.6929,676.0013 Q1684.0538,676.1507 1683.3482,676.1507 Q1680.8414,676.1507 1679.5215,674.4989 Q1678.2017,672.847 1678.2017,669.7259 Q1678.2017,666.5965 1679.5215,664.9447 Q1680.8414,663.2928 1683.3482,663.2928 Q1684.0538,663.2928 1684.7012,663.4422 Q1685.3487,663.5916 1685.9131,663.8905 L1685.9131,666.6131 Q1685.2823,666.0321 1684.6888,665.7623 Q1684.0953,665.4925 1683.4644,665.4925 Q1682.1197,665.4925 1681.4349,666.5592 Q1680.7501,667.6258 1680.7501,669.7259 Q1680.7501,671.8177 1681.4349,672.8844 Q1682.1197,673.951 1683.4644,673.951 Q1684.0953,673.951 1684.6888,673.6812 Q1685.2823,673.4115 1685.9131,672.8304 Z " fill="#000000"/><text fill="#000000" font-family="sans-serif" font-size="14" lengthAdjust="spacing" textLength="150.6777" x="1697.44" y="674.701">ReferanseDokumentfil</text><line style="stroke:#181818;stroke-width:0.5;" x1="1669.44" x2="1850.1177" y1="685.41" y2="685.41"/><ellipse cx="1679.44" cy="699.1541" fill="#000000" rx="3" ry="3" style="stroke:#000000;stroke-width:1;"/><text fill="#000000" font-family="sans-serif" font-size="14" lengthAdjust="spacing" textLength="61.2842" x="1688.44" y="702.9452">id: string</text><ellipse cx="1679.44" cy="715.6424" fill="#000000" rx="3" ry="3" style="stroke:#000000;stroke-width:1;"/><text fill="#000000" font-family="sans-serif" font-size="14" lengthAdjust="spacing" textLength="66.8896" x="1688.44" y="719.4334">url: string</text><line style="stroke:#181818;stroke-width:0.5;" x1="1669.44" x2="1850.1177" y1="726.3866" y2="726.3866"/></g><!--class Dokument--><g class="entity" data-entity="Dokument" data-source-line="3" data-uid="ent0011" id="entity_Dokument"><rect fill="#F1F1F1" height="163.418" rx="2.5" ry="2.5" style="stroke:#181818;stroke-width:0.5;" width="333.0908" x="1593.23" y="425.68"/><ellipse cx="1720.1494" cy="441.68" fill="#ADD1B2" rx="11" ry="11" style="stroke:#181818;stroke-width:1;"/><path d="M1722.6226,447.8231 Q1722.0415,448.1219 1721.4024,448.2713 Q1720.7632,448.4207 1720.0576,448.4207 Q1717.5508,448.4207 1716.231,446.7689 Q1714.9112,445.117 1714.9112,441.9959 Q1714.9112,438.8665 1716.231,437.2147 Q1717.5508,435.5628 1720.0576,435.5628 Q1720.7632,435.5628 1721.4107,435.7122 Q1722.0581,435.8616 1722.6226,436.1605 L1722.6226,438.8831 Q1721.9917,438.3021 1721.3982,438.0323 Q1720.8047,437.7625 1720.1738,437.7625 Q1718.8291,437.7625 1718.1443,438.8292 Q1717.4595,439.8958 1717.4595,441.9959 Q1717.4595,444.0877 1718.1443,445.1544 Q1718.8291,446.221 1720.1738,446.221 Q1720.8047,446.221 1721.3982,445.9512 Q1721.9917,445.6815 1722.6226,445.1004 Z " fill="#000000"/><text fill="#000000" font-family="sans-serif" font-size="14" lengthAdjust="spacing" textLength="70.752" x="1740.6494" y="446.971">Dokument</text><line style="stroke:#181818;stroke-width:0.5;" x1="1594.23" x2="1925.3208" y1="457.68" y2="457.68"/><ellipse cx="1604.23" cy="471.4241" fill="#000000" rx="3" ry="3" style="stroke:#000000;stroke-width:1;"/><text fill="#000000" font-family="sans-serif" font-size="14" lengthAdjust="spacing" textLength="61.2842" x="1613.23" y="475.2152">id: string</text><ellipse cx="1604.23" cy="487.9124" fill="#000000" rx="3" ry="3" style="stroke:#000000;stroke-width:1;"/><text fill="#000000" font-family="sans-serif" font-size="14" lengthAdjust="spacing" textLength="94.0215" x="1613.23" y="491.7034">filnavn: string</text><ellipse cx="1604.23" cy="504.4007" fill="#000000" rx="3" ry="3" style="stroke:#000000;stroke-width:1;"/><text fill="#000000" font-family="sans-serif" font-size="14" lengthAdjust="spacing" textLength="307.0908" x="1613.23" y="508.1917">referanseDokumentfil: ReferanseDokumentfil</text><text fill="#000000" font-family="sans-serif" font-size="14" lengthAdjust="spacing" textLength="115.5752" x="1613.23" y="524.68">mimetype: string</text><text fill="#000000" font-family="sans-serif" font-size="14" lengthAdjust="spacing" textLength="145.0313" x="1613.23" y="541.1683">dokumentsdato: date</text><text fill="#000000" font-family="sans-serif" font-size="14" lengthAdjust="spacing" textLength="113.7158" x="1613.23" y="557.6566">arkivnavn: string</text><text fill="#000000" font-family="sans-serif" font-size="14" lengthAdjust="spacing" textLength="137.1426" x="1613.23" y="574.1448">filstoerrelse: integer</text><line style="stroke:#181818;stroke-width:0.5;" x1="1594.23" x2="1925.3208" y1="581.098" y2="581.098"/></g><g class="entity" data-entity="GMN12" data-source-line="13" data-uid="ent0013" id="entity_GMN12"><path d="M1654.71,205.37 L1654.71,230.6805 A0,0 0 0 0 1654.71,230.6805 L1755.78,230.6805 L1759.78,425.32 L1763.78,230.6805 L1864.8384,230.6805 A0,0 0 0 0 1864.8384,230.6805 L1864.8384,215.37 L1854.8384,205.37 L1654.71,205.37 A0,0 0 0 0 1654.71,205.37" fill="#FEFFDD" style="stroke:#181818;stroke-width:0.5;"/><path d="M1854.8384,205.37 L1854.8384,215.37 L1864.8384,215.37 L1854.8384,205.37" fill="#FEFFDD" style="stroke:#181818;stroke-width:0.5;"/><text fill="#000000" font-family="sans-serif" font-size="13" lengthAdjust="spacing" textLength="189.1284" x="1660.71" y="222.9384">Hentet definisjon fra Fiks Plan</text></g><!--class Dokumentbeskrivelse--><g class="entity" data-entity="Dokumentbeskrivelse" data-source-line="3" data-uid="ent0016" id="entity_Dokumentbeskrivelse"><rect fill="#F1F1F1" height="113.9531" rx="2.5" ry="2.5" style="stroke:#181818;stroke-width:0.5;" width="233.0127" x="1368.27" y="161.05"/><ellipse cx="1407.8064" cy="177.05" fill="#ADD1B2" rx="11" ry="11" style="stroke:#181818;stroke-width:1;"/><path d="M1410.2796,183.1931 Q1409.6985,183.4919 1409.0594,183.6413 Q1408.4202,183.7907 1407.7146,183.7907 Q1405.2078,183.7907 1403.888,182.1389 Q1402.5681,180.487 1402.5681,177.3659 Q1402.5681,174.2365 1403.888,172.5847 Q1405.2078,170.9328 1407.7146,170.9328 Q1408.4202,170.9328 1409.0677,171.0822 Q1409.7151,171.2316 1410.2796,171.5305 L1410.2796,174.2531 Q1409.6487,173.6721 1409.0552,173.4023 Q1408.4617,173.1325 1407.8308,173.1325 Q1406.4861,173.1325 1405.8013,174.1992 Q1405.1165,175.2658 1405.1165,177.3659 Q1405.1165,179.4577 1405.8013,180.5244 Q1406.4861,181.591 1407.8308,181.591 Q1408.4617,181.591 1409.0552,181.3212 Q1409.6487,181.0515 1410.2796,180.4704 Z " fill="#000000"/><text fill="#000000" font-family="sans-serif" font-size="14" lengthAdjust="spacing" textLength="146.4873" x="1427.259" y="182.341">Dokumentbeskrivelse</text><line style="stroke:#181818;stroke-width:0.5;" x1="1369.27" x2="1600.2827" y1="193.05" y2="193.05"/><ellipse cx="1379.27" cy="206.7941" fill="#000000" rx="3" ry="3" style="stroke:#000000;stroke-width:1;"/><text fill="#000000" font-family="sans-serif" font-size="14" lengthAdjust="spacing" textLength="108.9648" x="1388.27" y="210.5852">systemId: string</text><ellipse cx="1379.27" cy="223.2824" fill="#000000" rx="3" ry="3" style="stroke:#000000;stroke-width:1;"/><text fill="#000000" font-family="sans-serif" font-size="14" lengthAdjust="spacing" textLength="80.0283" x="1388.27" y="227.0734">tittel: string</text><ellipse cx="1379.27" cy="239.7707" fill="#000000" rx="3" ry="3" style="stroke:#000000;stroke-width:1;"/><text fill="#000000" font-family="sans-serif" font-size="14" lengthAdjust="spacing" textLength="207.0127" x="1388.27" y="243.5617">dokumenttype: Dokumenttype</text><ellipse cx="1379.27" cy="256.259" fill="#000000" rx="3" ry="3" style="stroke:#000000;stroke-width:1;"/><text fill="#000000" font-family="sans-serif" font-size="14" lengthAdjust="spacing" textLength="191.5771" x="1388.27" y="260.05">dokumentobjekt: Dokument</text><line style="stroke:#181818;stroke-width:0.5;" x1="1369.27" x2="1600.2827" y1="267.0031" y2="267.0031"/></g><!--class Dokumenttype--><g class="entity" data-entity="Dokumenttype" data-source-line="10" data-uid="ent0017" id="entity_Dokumenttype"><rect fill="#F1F1F1" height="89.5977" rx="2.5" ry="2.5" style="stroke:#181818;stroke-width:0.5;" width="183.5547" x="1375" y="462.59"/><ellipse cx="1413.2383" cy="482.9005" fill="#ADD1B2" rx="11" ry="11" style="stroke:#181818;stroke-width:1;"/><path d="M1415.7114,489.0436 Q1415.1304,489.3424 1414.4912,489.4919 Q1413.8521,489.6413 1413.1465,489.6413 Q1410.6396,489.6413 1409.3198,487.9894 Q1408,486.3376 1408,483.2165 Q1408,480.0871 1409.3198,478.4352 Q1410.6396,476.7834 1413.1465,476.7834 Q1413.8521,476.7834 1414.4995,476.9328 Q1415.147,477.0822 1415.7114,477.381 L1415.7114,480.1037 Q1415.0806,479.5226 1414.4871,479.2528 Q1413.8936,478.9831 1413.2627,478.9831 Q1411.918,478.9831 1411.2332,480.0497 Q1410.5483,481.1164 1410.5483,483.2165 Q1410.5483,485.3083 1411.2332,486.3749 Q1411.918,487.4416 1413.2627,487.4416 Q1413.8936,487.4416 1414.4871,487.1718 Q1415.0806,486.902 1415.7114,486.321 Z " fill="#000000"/><text fill="#000000" font-family="sans-serif" font-size="12" font-style="italic" lengthAdjust="spacing" textLength="42.0176" x="1461.3506" y="479.1916">&#171;Kode&#187;</text><text fill="#000000" font-family="sans-serif" font-size="14" lengthAdjust="spacing" textLength="99.9141" x="1432.4023" y="495.258">Dokumenttype</text><line style="stroke:#181818;stroke-width:0.5;" x1="1376" x2="1557.5547" y1="503.2111" y2="503.2111"/><ellipse cx="1386" cy="516.9552" fill="#000000" rx="3" ry="3" style="stroke:#000000;stroke-width:1;"/><text fill="#000000" font-family="sans-serif" font-size="14" lengthAdjust="spacing" textLength="115.4521" x="1395" y="520.7463">kodeverdi: string</text><text fill="#000000" font-family="sans-serif" font-size="14" lengthAdjust="spacing" textLength="157.5547" x="1395" y="537.2345">kodebeskrivelse: string</text><line style="stroke:#181818;stroke-width:0.5;" x1="1376" x2="1557.5547" y1="544.1877" y2="544.1877"/></g><!--class Korrespondansepart--><g class="entity" data-entity="Korrespondansepart" data-source-line="2" data-uid="ent0020" id="entity_Korrespondansepart"><rect fill="#F1F1F1" height="80.9766" rx="2.5" ry="2.5" style="stroke:#181818;stroke-width:0.5;" width="369" x="964.28" y="177.53"/><ellipse cx="1075.5759" cy="193.53" fill="#ADD1B2" rx="11" ry="11" style="stroke:#181818;stroke-width:1;"/><path d="M1078.049,199.6731 Q1077.468,199.9719 1076.8288,200.1213 Q1076.1897,200.2707 1075.4841,200.2707 Q1072.9773,200.2707 1071.6574,198.6189 Q1070.3376,196.967 1070.3376,193.8459 Q1070.3376,190.7165 1071.6574,189.0647 Q1072.9773,187.4128 1075.4841,187.4128 Q1076.1897,187.4128 1076.8371,187.5622 Q1077.4846,187.7116 1078.049,188.0105 L1078.049,190.7331 Q1077.4182,190.1521 1076.8247,189.8823 Q1076.2312,189.6125 1075.6003,189.6125 Q1074.2556,189.6125 1073.5708,190.6792 Q1072.886,191.7458 1072.886,193.8459 Q1072.886,195.9377 1073.5708,197.0044 Q1074.2556,198.071 1075.6003,198.071 Q1076.2312,198.071 1076.8247,197.8012 Q1077.4182,197.5315 1078.049,196.9504 Z " fill="#000000"/><text fill="#000000" font-family="sans-serif" font-size="14" lengthAdjust="spacing" textLength="137.9082" x="1096.0759" y="198.821">Korrespondansepart</text><line style="stroke:#181818;stroke-width:0.5;" x1="965.28" x2="1332.28" y1="209.53" y2="209.53"/><ellipse cx="975.28" cy="223.2741" fill="#000000" rx="3" ry="3" style="stroke:#000000;stroke-width:1;"/><text fill="#000000" font-family="sans-serif" font-size="14" lengthAdjust="spacing" textLength="343" x="984.28" y="227.0652">Korrespondanseparttype: Korrespondanseparttype</text><ellipse cx="975.28" cy="239.7624" fill="#000000" rx="3" ry="3" style="stroke:#000000;stroke-width:1;"/><text fill="#000000" font-family="sans-serif" font-size="14" lengthAdjust="spacing" textLength="217.7314" x="984.28" y="243.5534">korrespondansepartnavn: string</text><line style="stroke:#181818;stroke-width:0.5;" x1="965.28" x2="1332.28" y1="250.5066" y2="250.5066"/></g><!--class Korrespondanseparttype--><g class="entity" data-entity="Korrespondanseparttype" data-source-line="7" data-uid="ent0021" id="entity_Korrespondanseparttype"><rect fill="#F1F1F1" height="89.5977" rx="2.5" ry="2.5" style="stroke:#181818;stroke-width:0.5;" width="199.0703" x="1115.24" y="462.59"/><ellipse cx="1130.24" cy="482.9005" fill="#ADD1B2" rx="11" ry="11" style="stroke:#181818;stroke-width:1;"/><path d="M1132.7131,489.0436 Q1132.1321,489.3424 1131.4929,489.4919 Q1130.8538,489.6413 1130.1482,489.6413 Q1127.6414,489.6413 1126.3215,487.9894 Q1125.0017,486.3376 1125.0017,483.2165 Q1125.0017,480.0871 1126.3215,478.4352 Q1127.6414,476.7834 1130.1482,476.7834 Q1130.8538,476.7834 1131.5012,476.9328 Q1132.1487,477.0822 1132.7131,477.381 L1132.7131,480.1037 Q1132.0823,479.5226 1131.4888,479.2528 Q1130.8953,478.9831 1130.2644,478.9831 Q1128.9197,478.9831 1128.2349,480.0497 Q1127.5501,481.1164 1127.5501,483.2165 Q1127.5501,485.3083 1128.2349,486.3749 Q1128.9197,487.4416 1130.2644,487.4416 Q1130.8953,487.4416 1131.4888,487.1718 Q1132.0823,486.902 1132.7131,486.321 Z " fill="#000000"/><text fill="#000000" font-family="sans-serif" font-size="12" font-style="italic" lengthAdjust="spacing" textLength="42.0176" x="1206.7664" y="479.1916">&#171;Kode&#187;</text><text fill="#000000" font-family="sans-serif" font-size="14" lengthAdjust="spacing" textLength="167.0703" x="1144.24" y="495.258">Korrespondanseparttype</text><line style="stroke:#181818;stroke-width:0.5;" x1="1116.24" x2="1313.3103" y1="503.2111" y2="503.2111"/><ellipse cx="1126.24" cy="516.9552" fill="#000000" rx="3" ry="3" style="stroke:#000000;stroke-width:1;"/><text fill="#000000" font-family="sans-serif" font-size="14" lengthAdjust="spacing" textLength="115.4521" x="1135.24" y="520.7463">kodeverdi: string</text><text fill="#000000" font-family="sans-serif" font-size="14" lengthAdjust="spacing" textLength="157.5547" x="1135.24" y="537.2345">kodebeskrivelse: string</text><line style="stroke:#181818;stroke-width:0.5;" x1="1116.24" x2="1313.3103" y1="544.1877" y2="544.1877"/></g><!--class Journalpost--><g class="entity" data-entity="Journalpost" data-source-line="6" data-uid="ent0023" id="entity_Journalpost"><rect fill="#F1F1F1" height="295.3242" rx="2.5" ry="2.5" style="stroke:#181818;stroke-width:0.5;" width="326.9932" x="602.28" y="70.36"/><ellipse cx="722.7155" cy="86.36" fill="#ADD1B2" rx="11" ry="11" style="stroke:#181818;stroke-width:1;"/><path d="M725.1887,92.5031 Q724.6076,92.8019 723.9685,92.9513 Q723.3293,93.1007 722.6238,93.1007 Q720.1169,93.1007 718.7971,91.4489 Q717.4773,89.797 717.4773,86.6759 Q717.4773,83.5465 718.7971,81.8947 Q720.1169,80.2428 722.6238,80.2428 Q723.3293,80.2428 723.9768,80.3922 Q724.6242,80.5416 725.1887,80.8405 L725.1887,83.5631 Q724.5578,82.9821 723.9643,82.7123 Q723.3708,82.4425 722.74,82.4425 Q721.3952,82.4425 720.7104,83.5092 Q720.0256,84.5758 720.0256,86.6759 Q720.0256,88.7677 720.7104,89.8344 Q721.3952,90.901 722.74,90.901 Q723.3708,90.901 723.9643,90.6312 Q724.5578,90.3615 725.1887,89.7804 Z " fill="#000000"/><text fill="#000000" font-family="sans-serif" font-size="14" lengthAdjust="spacing" textLength="77.6221" x="743.2155" y="91.651">Journalpost</text><line style="stroke:#181818;stroke-width:0.5;" x1="603.28" x2="928.2732" y1="102.36" y2="102.36"/><text fill="#000000" font-family="sans-serif" font-size="14" lengthAdjust="spacing" textLength="108.9648" x="608.28" y="119.8952">systemId: string</text><text fill="#000000" font-family="sans-serif" font-size="14" lengthAdjust="spacing" textLength="144.5459" x="608.28" y="136.3834">skjerming: Skjerming</text><text fill="#000000" font-family="sans-serif" font-size="14" lengthAdjust="spacing" textLength="142.2354" x="608.28" y="152.8717">gradering: Gradering</text><text fill="#000000" font-family="sans-serif" font-size="14" lengthAdjust="spacing" textLength="314.9932" x="608.28" y="169.36">dokumentbeskrivelser: Dokumentbeskrivelse[]</text><text fill="#000000" font-family="sans-serif" font-size="14" lengthAdjust="spacing" textLength="147.8066" x="608.28" y="185.8483">registreringsId: string</text><text fill="#000000" font-family="sans-serif" font-size="14" lengthAdjust="spacing" textLength="80.0283" x="608.28" y="202.3366">tittel: string</text><text fill="#000000" font-family="sans-serif" font-size="14" lengthAdjust="spacing" textLength="141.0869" x="608.28" y="218.8248">offentligTittel: string</text><text fill="#000000" font-family="sans-serif" font-size="14" lengthAdjust="spacing" textLength="306.3525" x="608.28" y="235.3131">korrespondanseparter: Korrespondansepart[]</text><text fill="#000000" font-family="sans-serif" font-size="14" lengthAdjust="spacing" textLength="125.8223" x="608.28" y="251.8014">journalaar: integer</text><text fill="#000000" font-family="sans-serif" font-size="14" lengthAdjust="spacing" textLength="215.667" x="608.28" y="268.2897">journalsekvensnummer: integer</text><text fill="#000000" font-family="sans-serif" font-size="14" lengthAdjust="spacing" textLength="191.4609" x="608.28" y="284.778">journalpostnummer: integer</text><text fill="#000000" font-family="sans-serif" font-size="14" lengthAdjust="spacing" textLength="222.332" x="608.28" y="301.2663">journalposttype: Journalposttype</text><text fill="#000000" font-family="sans-serif" font-size="14" lengthAdjust="spacing" textLength="186.7715" x="608.28" y="317.7545">journalstatus: Journalstatus</text><text fill="#000000" font-family="sans-serif" font-size="14" lengthAdjust="spacing" textLength="116.5596" x="608.28" y="334.2428">journaldato: date</text><text fill="#000000" font-family="sans-serif" font-size="14" lengthAdjust="spacing" textLength="159.7422" x="608.28" y="350.7311">dokumentetsDato: date</text><line style="stroke:#181818;stroke-width:0.5;" x1="603.28" x2="928.2732" y1="357.6842" y2="357.6842"/></g><!--class Journalposttype--><g class="entity" data-entity="Journalposttype" data-source-line="28" data-uid="ent0028" id="entity_Journalposttype"><rect fill="#F1F1F1" height="89.5977" rx="2.5" ry="2.5" style="stroke:#181818;stroke-width:0.5;" width="183.5547" x="897" y="462.59"/><ellipse cx="932.1467" cy="482.9005" fill="#ADD1B2" rx="11" ry="11" style="stroke:#181818;stroke-width:1;"/><path d="M934.6199,489.0436 Q934.0388,489.3424 933.3997,489.4919 Q932.7605,489.6413 932.0549,489.6413 Q929.5481,489.6413 928.2283,487.9894 Q926.9084,486.3376 926.9084,483.2165 Q926.9084,480.0871 928.2283,478.4352 Q929.5481,476.7834 932.0549,476.7834 Q932.7605,476.7834 933.408,476.9328 Q934.0554,477.0822 934.6199,477.381 L934.6199,480.1037 Q933.989,479.5226 933.3955,479.2528 Q932.802,478.9831 932.1711,478.9831 Q930.8264,478.9831 930.1416,480.0497 Q929.4568,481.1164 929.4568,483.2165 Q929.4568,485.3083 930.1416,486.3749 Q930.8264,487.4416 932.1711,487.4416 Q932.802,487.4416 933.3955,487.1718 Q933.989,486.902 934.6199,486.321 Z " fill="#000000"/><text fill="#000000" font-family="sans-serif" font-size="12" font-style="italic" lengthAdjust="spacing" textLength="42.0176" x="983.0071" y="479.1916">&#171;Kode&#187;</text><text fill="#000000" font-family="sans-serif" font-size="14" lengthAdjust="spacing" textLength="106.7842" x="950.6238" y="495.258">Journalposttype</text><line style="stroke:#181818;stroke-width:0.5;" x1="898" x2="1079.5547" y1="503.2111" y2="503.2111"/><ellipse cx="908" cy="516.9552" fill="#000000" rx="3" ry="3" style="stroke:#000000;stroke-width:1;"/><text fill="#000000" font-family="sans-serif" font-size="14" lengthAdjust="spacing" textLength="115.4521" x="917" y="520.7463">kodeverdi: string</text><text fill="#000000" font-family="sans-serif" font-size="14" lengthAdjust="spacing" textLength="157.5547" x="917" y="537.2345">kodebeskrivelse: string</text><line style="stroke:#181818;stroke-width:0.5;" x1="898" x2="1079.5547" y1="544.1877" y2="544.1877"/></g><!--class Journalstatus--><g class="entity" data-entity="Journalstatus" data-source-line="29" data-uid="ent0030" id="entity_Journalstatus"><rect fill="#F1F1F1" height="89.5977" rx="2.5" ry="2.5" style="stroke:#181818;stroke-width:0.5;" width="183.5547" x="7" y="462.59"/><ellipse cx="50.1479" cy="482.9005" fill="#ADD1B2" rx="11" ry="11" style="stroke:#181818;stroke-width:1;"/><path d="M52.621,489.0436 Q52.0399,489.3424 51.4008,489.4919 Q50.7616,489.6413 50.0561,489.6413 Q47.5492,489.6413 46.2294,487.9894 Q44.9096,486.3376 44.9096,483.2165 Q44.9096,480.0871 46.2294,478.4352 Q47.5492,476.7834 50.0561,476.7834 Q50.7616,476.7834 51.4091,476.9328 Q52.0565,477.0822 52.621,477.381 L52.621,480.1037 Q51.9901,479.5226 51.3966,479.2528 Q50.8031,478.9831 50.1723,478.9831 Q48.8275,478.9831 48.1427,480.0497 Q47.4579,481.1164 47.4579,483.2165 Q47.4579,485.3083 48.1427,486.3749 Q48.8275,487.4416 50.1723,487.4416 Q50.8031,487.4416 51.3966,487.1718 Q51.9901,486.902 52.621,486.321 Z " fill="#000000"/><text fill="#000000" font-family="sans-serif" font-size="12" font-style="italic" lengthAdjust="spacing" textLength="42.0176" x="93.8961" y="479.1916">&#171;Kode&#187;</text><text fill="#000000" font-family="sans-serif" font-size="14" lengthAdjust="spacing" textLength="89.0039" x="70.4029" y="495.258">Journalstatus</text><line style="stroke:#181818;stroke-width:0.5;" x1="8" x2="189.5547" y1="503.2111" y2="503.2111"/><ellipse cx="18" cy="516.9552" fill="#000000" rx="3" ry="3" style="stroke:#000000;stroke-width:1;"/><text fill="#000000" font-family="sans-serif" font-size="14" lengthAdjust="spacing" textLength="115.4521" x="27" y="520.7463">kodeverdi: string</text><text fill="#000000" font-family="sans-serif" font-size="14" lengthAdjust="spacing" textLength="157.5547" x="27" y="537.2345">kodebeskrivelse: string</text><line style="stroke:#181818;stroke-width:0.5;" x1="8" x2="189.5547" y1="544.1877" y2="544.1877"/></g><!--link Skjerming to Tilgangsrestriksjon--><g class="link" data-entity-1="Skjerming" data-entity-2="Tilgangsrestriksjon" data-source-line="9" data-uid="lnk4" id="link_Skjerming_Tilgangsrestriksjon"><path codeLine="9" d="M372.96,564.75 C345.72,591.78 313.57,623.67 288.16,648.88" fill="none" id="Skjerming-Tilgangsrestriksjon" style="stroke:#181818;stroke-width:1;stroke-dasharray:7.0,7.0;"/></g><!--link Skjerming to SkjermingOpphoererAksjon--><g class="link" data-entity-1="Skjerming" data-entity-2="SkjermingOpphoererAksjon" data-source-line="10" data-uid="lnk6" id="link_Skjerming_SkjermingOpphoererAksjon"><path codeLine="10" d="M445.05,564.75 C452.37,591.78 461.02,623.67 467.85,648.88" fill="none" id="Skjerming-SkjermingOpphoererAksjon" style="stroke:#181818;stroke-width:1;stroke-dasharray:7.0,7.0;"/></g><!--link Gradering to Grad--><g class="link" data-entity-1="Gradering" data-entity-2="Grad" data-source-line="10" data-uid="lnk9" id="link_Gradering_Grad"><path codeLine="10" d="M765.78,572.93 C765.78,597.97 765.78,626.02 765.78,648.7" fill="none" id="Gradering-Grad" style="stroke:#181818;stroke-width:1;stroke-dasharray:7.0,7.0;"/></g><!--link Dokument to ReferanseDokumentfil--><g class="link" data-entity-1="Dokument" data-entity-2="ReferanseDokumentfil" data-source-line="15" data-uid="lnk15" id="link_Dokument_ReferanseDokumentfil"><path codeLine="15" d="M1759.78,589.59 C1759.78,611.63 1759.78,634.53 1759.78,653.15" fill="none" id="Dokument-ReferanseDokumentfil" style="stroke:#181818;stroke-width:1;stroke-dasharray:7.0,7.0;"/></g><!--link Dokumentbeskrivelse to Dokumenttype--><g class="link" data-entity-1="Dokumentbeskrivelse" data-entity-2="Dokumenttype" data-source-line="10" data-uid="lnk18" id="link_Dokumentbeskrivelse_Dokumenttype"><path codeLine="10" d="M1481.24,275.45 C1477.81,330.21 1472.68,412.18 1469.54,462.31" fill="none" id="Dokumentbeskrivelse-Dokumenttype" style="stroke:#181818;stroke-width:1;stroke-dasharray:7.0,7.0;"/></g><!--link Dokumentbeskrivelse to Dokument--><g class="link" data-entity-1="Dokumentbeskrivelse" data-entity-2="Dokument" data-source-line="11" data-uid="lnk19" id="link_Dokumentbeskrivelse_Dokument"><path codeLine="11" d="M1538.78,275.45 C1579.68,318.2 1636.45,377.52 1682.21,425.34" fill="none" id="Dokumentbeskrivelse-Dokument" style="stroke:#181818;stroke-width:1;stroke-dasharray:7.0,7.0;"/></g><!--link Korrespondansepart to Korrespondanseparttype--><g class="link" data-entity-1="Korrespondansepart" data-entity-2="Korrespondanseparttype" data-source-line="7" data-uid="lnk22" id="link_Korrespondansepart_Korrespondanseparttype"><path codeLine="7" d="M1157.95,258.98 C1170.25,312.5 1191.98,407.11 1204.71,462.54" fill="none" id="Korrespondansepart-Korrespondanseparttype" style="stroke:#181818;stroke-width:1;stroke-dasharray:7.0,7.0;"/></g><!--link Journalpost to Skjerming--><g class="link" data-entity-1="Journalpost" data-entity-2="Skjerming" data-source-line="24" data-uid="lnk24" id="link_Journalpost_Skjerming"><path codeLine="24" d="M602.21,358.92 C564.49,391.18 526.47,423.69 495.77,449.95" fill="none" id="Journalpost-Skjerming" style="stroke:#181818;stroke-width:1;stroke-dasharray:7.0,7.0;"/></g><!--link Journalpost to Gradering--><g class="link" data-entity-1="Journalpost" data-entity-2="Gradering" data-source-line="25" data-uid="lnk25" id="link_Journalpost_Gradering"><path codeLine="25" d="M765.78,366.08 C765.78,392.73 765.78,419.22 765.78,441.9" fill="none" id="Journalpost-Gradering" style="stroke:#181818;stroke-width:1;stroke-dasharray:7.0,7.0;"/></g><!--link Journalpost to Dokumentbeskrivelse--><g class="link" data-entity-1="Journalpost" data-entity-2="Dokumentbeskrivelse" data-source-line="26" data-uid="lnk26" id="link_Journalpost_Dokumentbeskrivelse"><path codeLine="26" d="M908.41,70.04 C926.1,58.1 944.84,47.79 964.28,40.36 C1040.87,11.09 1258.82,6 1333.28,40.36 C1386.65,64.99 1421.8447,108.5062 1447.8147,150.4662" fill="none" id="Journalpost-to-Dokumentbeskrivelse" style="stroke:#181818;stroke-width:1;stroke-dasharray:7.0,7.0;"/><polygon fill="#181818" points="1454.13,160.67,1454.3736,153.463,1447.8147,150.4662,1447.5711,157.6732,1454.13,160.67" style="stroke:#181818;stroke-width:1;"/></g><!--link Journalpost to Korrespondansepart--><g class="link" data-entity-1="Journalpost" data-entity-2="Korrespondansepart" data-source-line="27" data-uid="lnk27" id="link_Journalpost_Korrespondansepart"><path codeLine="27" d="M929.6,218.02 C941.02,218.02 940.43,218.02 951.85,218.02" fill="none" id="Journalpost-to-Korrespondansepart" style="stroke:#181818;stroke-width:1;stroke-dasharray:7.0,7.0;"/><polygon fill="#181818" points="963.85,218.02,957.85,214.02,951.85,218.02,957.85,222.02,963.85,218.02" style="stroke:#181818;stroke-width:1;"/></g><!--link Journalpost to Journalposttype--><g class="link" data-entity-1="Journalpost" data-entity-2="Journalposttype" data-source-line="28" data-uid="lnk29" id="link_Journalpost_Journalposttype"><path codeLine="28" d="M879.89,366.08 C907.11,401.15 934.12,435.96 954.43,462.13" fill="none" id="Journalpost-Journalposttype" style="stroke:#181818;stroke-width:1;stroke-dasharray:7.0,7.0;"/></g><!--link Journalpost to Journalstatus--><g class="link" data-entity-1="Journalpost" data-entity-2="Journalstatus" data-source-line="29" data-uid="lnk31" id="link_Journalpost_Journalstatus"><path codeLine="29" d="M601.79,266.24 C487.72,302.29 334.07,357.34 207.78,425.68 C188.73,435.99 169.29,449.32 152.21,462.16" fill="none" id="Journalpost-Journalstatus" style="stroke:#181818;stroke-width:1;stroke-dasharray:7.0,7.0;"/></g><!--SRC=[fL8zQyCm4DtzAvGrWq9N4p85IjkntKe7DJeRHR9axiw6KFBVAzlvi6L3AV4WfFTEx_dUQMNymJKQXDn8kV51MfA5YGifIuKYGDa-oGASWuZP8s1bVBavE4MaZIfHLR9kijL_PE8b3VYmZ0wsgS3pDv15qu8ZU4pG1aIWEdYjF46ja6TwMG-8rz2WLwuEnE8d4_6Z4p5KBpeNn5rh0tZDAnVlrsrFt1B8nVDrsnCBFM4kzdFqywklHoXDDEm5A75dmmnk0eMYY3BEb1zpRjvzP_qsGo_Eno42fMAHyGmbu1Wdi2ruyarLmN955zuVD9zgoCTXTy34XHKtT2iPZkC2hJZa8gumYHUOzdVcd6NZWKevcbP2tASr8TPB8qfBvb6cwccdo_IbospXCNQtn7Rx5ZJiTfUNkRRnr09gaunRm-XdRzmvaHtS7XVz1G00]--></g></svg>