<svg xmlns="http://www.w3.org/2000/svg" xmlns:xlink="http://www.w3.org/1999/xlink" contentStyleType="text/css" data-diagram-type="CLASS" height="458px" preserveAspectRatio="none" style="width:416px;height:458px;background:#FFFFFF;" version="1.1" viewBox="0 0 416 458" width="416px" zoomAndPan="magnify"><defs/><g><!--class Journalpost--><g id="elem_Journalpost"><rect codeLine="2" fill="#F1F1F1" height="295.3242" id="Journalpost" rx="2.5" ry="2.5" style="stroke:#181818;stroke-width:0.5;" width="321.2646" x="47.15" y="7"/><ellipse cx="164.7213" cy="23" fill="#ADD1B2" rx="11" ry="11" style="stroke:#181818;stroke-width:1;"/><path d="M167.1944,29.1431 Q166.6134,29.4419 165.9742,29.5913 Q165.3351,29.7407 164.6295,29.7407 Q162.1227,29.7407 160.8028,28.0889 Q159.483,26.437 159.483,23.3159 Q159.483,20.1865 160.8028,18.5347 Q162.1227,16.8828 164.6295,16.8828 Q165.3351,16.8828 165.9825,17.0322 Q166.63,17.1816 167.1944,17.4805 L167.1944,20.2031 Q166.5636,19.6221 165.9701,19.3523 Q165.3766,19.0825 164.7457,19.0825 Q163.401,19.0825 162.7162,20.1492 Q162.0313,21.2158 162.0313,23.3159 Q162.0313,25.4077 162.7162,26.4744 Q163.401,27.541 164.7457,27.541 Q165.3766,27.541 165.9701,27.2712 Q166.5636,27.0015 167.1944,26.4204 Z " fill="#000000"/><text fill="#000000" font-family="sans-serif" font-size="14" lengthAdjust="spacing" textLength="77.6221" x="185.2213" y="28.291">Journalpost</text><line style="stroke:#181818;stroke-width:0.5;" x1="48.15" x2="367.4146" y1="39" y2="39"/><text fill="#000000" font-family="sans-serif" font-size="14" lengthAdjust="spacing" textLength="108.9648" x="53.15" y="56.5352">systemId: string</text><text fill="#000000" font-family="sans-serif" font-size="14" lengthAdjust="spacing" textLength="144.5459" x="53.15" y="73.0234">skjerming: Skjerming</text><text fill="#000000" font-family="sans-serif" font-size="14" lengthAdjust="spacing" textLength="142.2354" x="53.15" y="89.5117">gradering: Gradering</text><text fill="#000000" font-family="sans-serif" font-size="14" lengthAdjust="spacing" textLength="309.2646" x="53.15" y="106">dokumentbeskrivelse: Dokumentbeskrivelse[]</text><text fill="#000000" font-family="sans-serif" font-size="14" lengthAdjust="spacing" textLength="147.8066" x="53.15" y="122.4883">registreringsId: string</text><text fill="#000000" font-family="sans-serif" font-size="14" lengthAdjust="spacing" textLength="80.0283" x="53.15" y="138.9766">tittel: string</text><text fill="#000000" font-family="sans-serif" font-size="14" lengthAdjust="spacing" textLength="141.0869" x="53.15" y="155.4648">offentligTittel: string</text><text fill="#000000" font-family="sans-serif" font-size="14" lengthAdjust="spacing" textLength="283.7188" x="53.15" y="171.9531">korrespondansepart: Korrespondansepart</text><text fill="#000000" font-family="sans-serif" font-size="14" lengthAdjust="spacing" textLength="125.8223" x="53.15" y="188.4414">journalaar: integer</text><text fill="#000000" font-family="sans-serif" font-size="14" lengthAdjust="spacing" textLength="215.667" x="53.15" y="204.9297">journalsekvensnummer: integer</text><text fill="#000000" font-family="sans-serif" font-size="14" lengthAdjust="spacing" textLength="191.4609" x="53.15" y="221.418">journalpostnummer: integer</text><text fill="#000000" font-family="sans-serif" font-size="14" lengthAdjust="spacing" textLength="222.332" x="53.15" y="237.9063">journalposttype: Journalposttype</text><text fill="#000000" font-family="sans-serif" font-size="14" lengthAdjust="spacing" textLength="186.7715" x="53.15" y="254.3945">journalstatus: Journalstatus</text><text fill="#000000" font-family="sans-serif" font-size="14" lengthAdjust="spacing" textLength="116.5596" x="53.15" y="270.8828">journaldato: date</text><text fill="#000000" font-family="sans-serif" font-size="14" lengthAdjust="spacing" textLength="159.7422" x="53.15" y="287.3711">dokumentetsDato: date</text><line style="stroke:#181818;stroke-width:0.5;" x1="48.15" x2="367.4146" y1="294.3242" y2="294.3242"/></g><!--class Journalposttype--><g id="elem_Journalposttype"><rect codeLine="23" fill="#F1F1F1" height="89.5977" id="Journalposttype" rx="2.5" ry="2.5" style="stroke:#181818;stroke-width:0.5;" width="183.5547" x="7" y="362.32"/><ellipse cx="42.1467" cy="382.6305" fill="#ADD1B2" rx="11" ry="11" style="stroke:#181818;stroke-width:1;"/><path d="M44.6199,388.7736 Q44.0388,389.0724 43.3997,389.2219 Q42.7605,389.3713 42.0549,389.3713 Q39.5481,389.3713 38.2283,387.7194 Q36.9084,386.0676 36.9084,382.9465 Q36.9084,379.8171 38.2283,378.1652 Q39.5481,376.5134 42.0549,376.5134 Q42.7605,376.5134 43.408,376.6628 Q44.0554,376.8122 44.6199,377.111 L44.6199,379.8337 Q43.989,379.2526 43.3955,378.9828 Q42.802,378.7131 42.1711,378.7131 Q40.8264,378.7131 40.1416,379.7797 Q39.4568,380.8464 39.4568,382.9465 Q39.4568,385.0383 40.1416,386.1049 Q40.8264,387.1716 42.1711,387.1716 Q42.802,387.1716 43.3955,386.9018 Q43.989,386.632 44.6199,386.051 Z " fill="#000000"/><text fill="#000000" font-family="sans-serif" font-size="12" font-style="italic" lengthAdjust="spacing" textLength="42.0176" x="93.0071" y="378.9216">&#171;Kode&#187;</text><text fill="#000000" font-family="sans-serif" font-size="14" lengthAdjust="spacing" textLength="106.7842" x="60.6238" y="394.988">Journalposttype</text><line style="stroke:#181818;stroke-width:0.5;" x1="8" x2="189.5547" y1="402.9411" y2="402.9411"/><ellipse cx="18" cy="416.6852" fill="#000000" rx="3" ry="3" style="stroke:#000000;stroke-width:1;"/><text fill="#000000" font-family="sans-serif" font-size="14" lengthAdjust="spacing" textLength="115.4521" x="27" y="420.4763">kodeverdi: string</text><text fill="#000000" font-family="sans-serif" font-size="14" lengthAdjust="spacing" textLength="157.5547" x="27" y="436.9645">kodebeskrivelse: string</text><line style="stroke:#181818;stroke-width:0.5;" x1="8" x2="189.5547" y1="443.9177" y2="443.9177"/></g><!--class Journalstatus--><g id="elem_Journalstatus"><rect codeLine="28" fill="#F1F1F1" height="89.5977" id="Journalstatus" rx="2.5" ry="2.5" style="stroke:#181818;stroke-width:0.5;" width="183.5547" x="226" y="362.32"/><ellipse cx="269.1479" cy="382.6305" fill="#ADD1B2" rx="11" ry="11" style="stroke:#181818;stroke-width:1;"/><path d="M271.621,388.7736 Q271.0399,389.0724 270.4008,389.2219 Q269.7616,389.3713 269.0561,389.3713 Q266.5492,389.3713 265.2294,387.7194 Q263.9096,386.0676 263.9096,382.9465 Q263.9096,379.8171 265.2294,378.1652 Q266.5492,376.5134 269.0561,376.5134 Q269.7616,376.5134 270.4091,376.6628 Q271.0565,376.8122 271.621,377.111 L271.621,379.8337 Q270.9901,379.2526 270.3966,378.9828 Q269.8031,378.7131 269.1723,378.7131 Q267.8275,378.7131 267.1427,379.7797 Q266.4579,380.8464 266.4579,382.9465 Q266.4579,385.0383 267.1427,386.1049 Q267.8275,387.1716 269.1723,387.1716 Q269.8031,387.1716 270.3966,386.9018 Q270.9901,386.632 271.621,386.051 Z " fill="#000000"/><text fill="#000000" font-family="sans-serif" font-size="12" font-style="italic" lengthAdjust="spacing" textLength="42.0176" x="312.8961" y="378.9216">&#171;Kode&#187;</text><text fill="#000000" font-family="sans-serif" font-size="14" lengthAdjust="spacing" textLength="89.0039" x="289.4029" y="394.988">Journalstatus</text><line style="stroke:#181818;stroke-width:0.5;" x1="227" x2="408.5547" y1="402.9411" y2="402.9411"/><ellipse cx="237" cy="416.6852" fill="#000000" rx="3" ry="3" style="stroke:#000000;stroke-width:1;"/><text fill="#000000" font-family="sans-serif" font-size="14" lengthAdjust="spacing" textLength="115.4521" x="246" y="420.4763">kodeverdi: string</text><text fill="#000000" font-family="sans-serif" font-size="14" lengthAdjust="spacing" textLength="157.5547" x="246" y="436.9645">kodebeskrivelse: string</text><line style="stroke:#181818;stroke-width:0.5;" x1="227" x2="408.5547" y1="443.9177" y2="443.9177"/></g><!--link Journalpost to Journalposttype--><g id="link_Journalpost_Journalposttype"><path codeLine="20" d="M143.74,302.8 C134.38,324.31 125.41,344.93 117.97,362.01 " fill="#FFFFFF" fill-opacity="0.00000" id="Journalpost-Journalposttype" style="stroke:#181818;stroke-width:1;stroke-dasharray:7.0,7.0;"/></g><!--link Journalpost to Journalstatus--><g id="link_Journalpost_Journalstatus"><path codeLine="21" d="M272.4,302.8 C281.85,324.31 290.9,344.93 298.41,362.01 " fill="#FFFFFF" fill-opacity="0.00000" id="Journalpost-Journalstatus" style="stroke:#181818;stroke-width:1;stroke-dasharray:7.0,7.0;"/></g><!--SRC=[fLAxRiCm3Dpz5Pexv0E485E0eCdORaK7DReOYcp986a3GP1_ho8xhHy1EbI38DuTUI2fOsMOrJws54pLH1PrBLGwV651_MgrOY4NoXxqPr2T8gtU7izCb6GiA1ExnpCJDlgsHf0li2VNeM9ejLs27vzPJYXTyilvF3CN9u9g0iNJAPMfNFc-v7ma0ZSnM1COZI7Hwh30ilJSTsyCQUM2e0IDSORl43YqTOtdYllS_g3bqgJEzrDWuY96MlwHzE5OO8r4hTADoMGXlFrbRaKntkLgjR1yJWzsnN7-7UuvQhq-H8lDPlWRBpv57SYwsSGj9diUkDkiRE_r_wBV]--></g></svg>