<svg xmlns="http://www.w3.org/2000/svg" xmlns:xlink="http://www.w3.org/1999/xlink" contentStyleType="text/css" height="427px" preserveAspectRatio="none" style="width:417px;height:427px;background:#FFFFFF;" version="1.1" viewBox="0 0 417 427" width="417px" zoomAndPan="magnify"><defs/><g><!--class Dokument--><g id="elem_Dokument"><rect codeLine="3" fill="#F1F1F1" height="179.9063" id="Dokument" rx="2.5" ry="2.5" style="stroke:#181818;stroke-width:0.5;" width="335" x="40.5" y="91.31"/><ellipse cx="168.25" cy="107.31" fill="#ADD1B2" rx="11" ry="11" style="stroke:#181818;stroke-width:1.0;"/><path d="M170.7231,113.4531 Q170.1421,113.7519 169.5029,113.9013 Q168.8638,114.0507 168.1582,114.0507 Q165.6514,114.0507 164.3315,112.3989 Q163.0117,110.747 163.0117,107.6259 Q163.0117,104.4965 164.3315,102.8447 Q165.6514,101.1928 168.1582,101.1928 Q168.8638,101.1928 169.5112,101.3422 Q170.1587,101.4916 170.7231,101.7905 L170.7231,104.5131 Q170.0923,103.9321 169.4988,103.6623 Q168.9053,103.3925 168.2744,103.3925 Q166.9297,103.3925 166.2449,104.4592 Q165.5601,105.5258 165.5601,107.6259 Q165.5601,109.7177 166.2449,110.7844 Q166.9297,111.851 168.2744,111.851 Q168.9053,111.851 169.4988,111.5812 Q170.0923,111.3115 170.7231,110.7304 Z " fill="#000000"/><text fill="#000000" font-family="sans-serif" font-size="14" lengthAdjust="spacing" textLength="71" x="188.75" y="112.601">Dokument</text><line style="stroke:#181818;stroke-width:0.5;" x1="41.5" x2="374.5" y1="123.31" y2="123.31"/><ellipse cx="51.5" cy="137.0541" fill="none" rx="3" ry="3" style="stroke:#038048;stroke-width:1.0;"/><text fill="#000000" font-family="sans-serif" font-size="14" lengthAdjust="spacing" textLength="61" x="60.5" y="140.8452">id: string</text><ellipse cx="51.5" cy="153.5424" fill="none" rx="3" ry="3" style="stroke:#038048;stroke-width:1.0;"/><text fill="#000000" font-family="sans-serif" font-size="14" lengthAdjust="spacing" textLength="79" x="60.5" y="157.3334">tittel: string</text><ellipse cx="51.5" cy="170.0307" fill="none" rx="3" ry="3" style="stroke:#038048;stroke-width:1.0;"/><text fill="#000000" font-family="sans-serif" font-size="14" lengthAdjust="spacing" textLength="94" x="60.5" y="173.8217">filnavn: string</text><ellipse cx="51.5" cy="186.519" fill="none" rx="3" ry="3" style="stroke:#038048;stroke-width:1.0;"/><text fill="#000000" font-family="sans-serif" font-size="14" lengthAdjust="spacing" textLength="207" x="60.5" y="190.31">dokumenttype: Dokumenttype</text><ellipse cx="51.5" cy="203.0073" fill="none" rx="3" ry="3" style="stroke:#038048;stroke-width:1.0;"/><text fill="#000000" font-family="sans-serif" font-size="14" lengthAdjust="spacing" textLength="309" x="60.5" y="206.7983">referanseDokumentfil: ReferanseDokumentfil</text><ellipse cx="51.5" cy="219.4955" fill="none" rx="3" ry="3" style="stroke:#038048;stroke-width:1.0;"/><text fill="#000000" font-family="sans-serif" font-size="14" lengthAdjust="spacing" textLength="115" x="60.5" y="223.2866">mimetype: string</text><ellipse cx="51.5" cy="235.9838" fill="none" rx="3" ry="3" style="stroke:#038048;stroke-width:1.0;"/><text fill="#000000" font-family="sans-serif" font-size="14" lengthAdjust="spacing" textLength="146" x="60.5" y="239.7748">dokumentsdato: date</text><ellipse cx="51.5" cy="252.4721" fill="none" rx="3" ry="3" style="stroke:#038048;stroke-width:1.0;"/><text fill="#000000" font-family="sans-serif" font-size="14" lengthAdjust="spacing" textLength="114" x="60.5" y="256.2631">arkivnavn: string</text><line style="stroke:#181818;stroke-width:0.5;" x1="41.5" x2="374.5" y1="263.2163" y2="263.2163"/></g><g id="elem_GMN3"><path d="M102.5,6 L102.5,31.3105 A0,0 0 0 0 102.5,31.3105 L204,31.3105 L208,90.84 L212,31.3105 L313.5,31.3105 A0,0 0 0 0 313.5,31.3105 L313.5,16 L303.5,6 L102.5,6 A0,0 0 0 0 102.5,6 " fill="#FEFFDD" style="stroke:#181818;stroke-width:0.5;"/><path d="M303.5,6 L303.5,16 L313.5,16 L303.5,6 " fill="#FEFFDD" style="stroke:#181818;stroke-width:0.5;"/><text fill="#000000" font-family="sans-serif" font-size="13" lengthAdjust="spacing" textLength="190" x="108.5" y="23.5684">Hentet definisjon fra Fiks Plan</text></g><!--class Dokumenttype--><g id="elem_Dokumenttype"><rect codeLine="19" fill="#F1F1F1" height="89.5977" id="Dokumenttype" rx="2.5" ry="2.5" style="stroke:#181818;stroke-width:0.5;" width="184" x="7" y="331.21"/><ellipse cx="45.4" cy="351.5205" fill="#ADD1B2" rx="11" ry="11" style="stroke:#181818;stroke-width:1.0;"/><path d="M47.8731,357.6636 Q47.2921,357.9624 46.6529,358.1119 Q46.0138,358.2613 45.3082,358.2613 Q42.8014,358.2613 41.4815,356.6094 Q40.1617,354.9576 40.1617,351.8365 Q40.1617,348.7071 41.4815,347.0552 Q42.8014,345.4034 45.3082,345.4034 Q46.0138,345.4034 46.6612,345.5528 Q47.3087,345.7022 47.8731,346.001 L47.8731,348.7237 Q47.2423,348.1426 46.6488,347.8728 Q46.0553,347.6031 45.4244,347.6031 Q44.0797,347.6031 43.3949,348.6697 Q42.7101,349.7364 42.7101,351.8365 Q42.7101,353.9283 43.3949,354.9949 Q44.0797,356.0616 45.4244,356.0616 Q46.0553,356.0616 46.6488,355.7918 Q47.2423,355.522 47.8731,354.941 Z " fill="#000000"/><text fill="#000000" font-family="sans-serif" font-size="12" font-style="italic" lengthAdjust="spacing" textLength="42" x="93.6" y="347.8116">&#171;Kode&#187;</text><text fill="#000000" font-family="sans-serif" font-size="14" lengthAdjust="spacing" textLength="100" x="64.6" y="363.878">Dokumenttype</text><line style="stroke:#181818;stroke-width:0.5;" x1="8" x2="190" y1="371.8311" y2="371.8311"/><ellipse cx="18" cy="385.5752" fill="none" rx="3" ry="3" style="stroke:#038048;stroke-width:1.0;"/><text fill="#000000" font-family="sans-serif" font-size="14" lengthAdjust="spacing" textLength="116" x="27" y="389.3663">kodeverdi: string</text><ellipse cx="18" cy="402.0635" fill="none" rx="3" ry="3" style="stroke:#038048;stroke-width:1.0;"/><text fill="#000000" font-family="sans-serif" font-size="14" lengthAdjust="spacing" textLength="158" x="27" y="405.8545">kodebeskrivelse: string</text><line style="stroke:#181818;stroke-width:0.5;" x1="8" x2="190" y1="412.8077" y2="412.8077"/></g><!--class ReferanseDokumentfil--><g id="elem_ReferanseDokumentfil"><rect codeLine="24" fill="#F1F1F1" height="80.9766" id="ReferanseDokumentfil" rx="2.5" ry="2.5" style="stroke:#181818;stroke-width:0.5;" width="184" x="226" y="335.52"/><ellipse cx="241" cy="351.52" fill="#ADD1B2" rx="11" ry="11" style="stroke:#181818;stroke-width:1.0;"/><path d="M243.4731,357.6631 Q242.8921,357.9619 242.2529,358.1113 Q241.6138,358.2607 240.9082,358.2607 Q238.4014,358.2607 237.0815,356.6089 Q235.7617,354.957 235.7617,351.8359 Q235.7617,348.7065 237.0815,347.0547 Q238.4014,345.4028 240.9082,345.4028 Q241.6138,345.4028 242.2612,345.5522 Q242.9087,345.7016 243.4731,346.0005 L243.4731,348.7231 Q242.8423,348.1421 242.2488,347.8723 Q241.6553,347.6025 241.0244,347.6025 Q239.6797,347.6025 238.9949,348.6692 Q238.3101,349.7358 238.3101,351.8359 Q238.3101,353.9277 238.9949,354.9944 Q239.6797,356.061 241.0244,356.061 Q241.6553,356.061 242.2488,355.7912 Q242.8423,355.5215 243.4731,354.9404 Z " fill="#000000"/><text fill="#000000" font-family="sans-serif" font-size="14" lengthAdjust="spacing" textLength="152" x="255" y="356.811">ReferanseDokumentfil</text><line style="stroke:#181818;stroke-width:0.5;" x1="227" x2="409" y1="367.52" y2="367.52"/><ellipse cx="237" cy="381.2641" fill="none" rx="3" ry="3" style="stroke:#038048;stroke-width:1.0;"/><text fill="#000000" font-family="sans-serif" font-size="14" lengthAdjust="spacing" textLength="61" x="246" y="385.0552">id: string</text><ellipse cx="237" cy="397.7524" fill="none" rx="3" ry="3" style="stroke:#038048;stroke-width:1.0;"/><text fill="#000000" font-family="sans-serif" font-size="14" lengthAdjust="spacing" textLength="67" x="246" y="401.5434">url: string</text><line style="stroke:#181818;stroke-width:0.5;" x1="227" x2="409" y1="408.4966" y2="408.4966"/></g><!--link Dokument to Dokumenttype--><g id="link_Dokument_Dokumenttype"><path codeLine="16" d="M157.49,271.58 C145.85,292.16 133.97,313.18 123.98,330.84 " fill="none" id="Dokument-Dokumenttype" style="stroke:#181818;stroke-width:1.0;"/></g><!--link Dokument to ReferanseDokumentfil--><g id="link_Dokument_ReferanseDokumentfil"><path codeLine="17" d="M258.97,271.58 C271.68,293.84 284.66,316.6 295.21,335.08 " fill="none" id="Dokument-ReferanseDokumentfil" style="stroke:#181818;stroke-width:1.0;"/></g><!--SRC=[TP7FYWCX3CRlFaNkfIyWfQUbBFHI-WQsnYNLYSMa0ykoxru7-sU4gGSbN_INVF6Sd0XyvNWRa1N-3DIr8cz1j13_j5X95LEl1KhiHkv5_m3fxnNj2pj5BLymO74i-4nLYeNZWjhk3pHWOorL4UyqMwZx0-zAfB7hwjyOpegW-Gevl8rQ-Au7AdWCn2INp12AWnr5WKDoRCphxdhTEvad5bitvswgqoFORFRPutRx776iqOZ5KszjaayeiT28IN3keq6N2dxwjbj9Sy0T]--></g></svg>