<svg xmlns="http://www.w3.org/2000/svg" xmlns:xlink="http://www.w3.org/1999/xlink" contentStyleType="text/css" height="427px" preserveAspectRatio="none" style="width:417px;height:427px;background:#FFFFFF;" version="1.1" viewBox="0 0 417 427" width="417px" zoomAndPan="magnify"><defs/><g><!--class ReferanseDokumentfil--><g id="elem_ReferanseDokumentfil"><rect codeLine="2" fill="#F1F1F1" height="80.9766" id="ReferanseDokumentfil" rx="2.5" ry="2.5" style="stroke:#181818;stroke-width:0.5;" width="184" x="7" y="335.52"/><ellipse cx="22" cy="351.52" fill="#ADD1B2" rx="11" ry="11" style="stroke:#181818;stroke-width:1.0;"/><path d="M24.4731,357.6631 Q23.8921,357.9619 23.2529,358.1113 Q22.6138,358.2607 21.9082,358.2607 Q19.4014,358.2607 18.0815,356.6089 Q16.7617,354.957 16.7617,351.8359 Q16.7617,348.7065 18.0815,347.0547 Q19.4014,345.4028 21.9082,345.4028 Q22.6138,345.4028 23.2612,345.5522 Q23.9087,345.7016 24.4731,346.0005 L24.4731,348.7231 Q23.8423,348.1421 23.2488,347.8723 Q22.6553,347.6025 22.0244,347.6025 Q20.6797,347.6025 19.9949,348.6692 Q19.3101,349.7358 19.3101,351.8359 Q19.3101,353.9277 19.9949,354.9944 Q20.6797,356.061 22.0244,356.061 Q22.6553,356.061 23.2488,355.7912 Q23.8423,355.5215 24.4731,354.9404 Z " fill="#000000"/><text fill="#000000" font-family="sans-serif" font-size="14" lengthAdjust="spacing" textLength="152" x="36" y="356.811">ReferanseDokumentfil</text><line style="stroke:#181818;stroke-width:0.5;" x1="8" x2="190" y1="367.52" y2="367.52"/><ellipse cx="18" cy="381.2641" fill="#000000" rx="3" ry="3" style="stroke:#000000;stroke-width:1.0;"/><text fill="#000000" font-family="sans-serif" font-size="14" lengthAdjust="spacing" textLength="61" x="27" y="385.0552">id: string</text><ellipse cx="18" cy="397.7524" fill="#000000" rx="3" ry="3" style="stroke:#000000;stroke-width:1.0;"/><text fill="#000000" font-family="sans-serif" font-size="14" lengthAdjust="spacing" textLength="67" x="27" y="401.5434">url: string</text><line style="stroke:#181818;stroke-width:0.5;" x1="8" x2="190" y1="408.4966" y2="408.4966"/></g><!--class Dokument--><g id="elem_Dokument"><rect codeLine="3" fill="#F1F1F1" height="179.9063" id="Dokument" rx="2.5" ry="2.5" style="stroke:#181818;stroke-width:0.5;" width="335" x="40.5" y="91.31"/><ellipse cx="168.25" cy="107.31" fill="#ADD1B2" rx="11" ry="11" style="stroke:#181818;stroke-width:1.0;"/><path d="M170.7231,113.4531 Q170.1421,113.7519 169.5029,113.9013 Q168.8638,114.0507 168.1582,114.0507 Q165.6514,114.0507 164.3315,112.3989 Q163.0117,110.747 163.0117,107.6259 Q163.0117,104.4965 164.3315,102.8447 Q165.6514,101.1928 168.1582,101.1928 Q168.8638,101.1928 169.5112,101.3422 Q170.1587,101.4916 170.7231,101.7905 L170.7231,104.5131 Q170.0923,103.9321 169.4988,103.6623 Q168.9053,103.3925 168.2744,103.3925 Q166.9297,103.3925 166.2449,104.4592 Q165.5601,105.5258 165.5601,107.6259 Q165.5601,109.7177 166.2449,110.7844 Q166.9297,111.851 168.2744,111.851 Q168.9053,111.851 169.4988,111.5812 Q170.0923,111.3115 170.7231,110.7304 Z " fill="#000000"/><text fill="#000000" font-family="sans-serif" font-size="14" lengthAdjust="spacing" textLength="71" x="188.75" y="112.601">Dokument</text><line style="stroke:#181818;stroke-width:0.5;" x1="41.5" x2="374.5" y1="123.31" y2="123.31"/><ellipse cx="51.5" cy="137.0541" fill="#000000" rx="3" ry="3" style="stroke:#000000;stroke-width:1.0;"/><text fill="#000000" font-family="sans-serif" font-size="14" lengthAdjust="spacing" textLength="61" x="60.5" y="140.8452">id: string</text><text fill="#000000" font-family="sans-serif" font-size="14" lengthAdjust="spacing" textLength="79" x="60.5" y="157.3334">tittel: string</text><text fill="#000000" font-family="sans-serif" font-size="14" lengthAdjust="spacing" textLength="94" x="60.5" y="173.8217">filnavn: string</text><text fill="#000000" font-family="sans-serif" font-size="14" lengthAdjust="spacing" textLength="207" x="60.5" y="190.31">dokumenttype: Dokumenttype</text><text fill="#000000" font-family="sans-serif" font-size="14" lengthAdjust="spacing" textLength="309" x="60.5" y="206.7983">referanseDokumentfil: ReferanseDokumentfil</text><text fill="#000000" font-family="sans-serif" font-size="14" lengthAdjust="spacing" textLength="115" x="60.5" y="223.2866">mimetype: string</text><text fill="#000000" font-family="sans-serif" font-size="14" lengthAdjust="spacing" textLength="146" x="60.5" y="239.7748">dokumentsdato: date</text><text fill="#000000" font-family="sans-serif" font-size="14" lengthAdjust="spacing" textLength="114" x="60.5" y="256.2631">arkivnavn: string</text><line style="stroke:#181818;stroke-width:0.5;" x1="41.5" x2="374.5" y1="263.2163" y2="263.2163"/></g><g id="elem_GMN4"><path d="M102.5,6 L102.5,31.3105 A0,0 0 0 0 102.5,31.3105 L204,31.3105 L208,90.84 L212,31.3105 L313.5,31.3105 A0,0 0 0 0 313.5,31.3105 L313.5,16 L303.5,6 L102.5,6 A0,0 0 0 0 102.5,6 " fill="#FEFFDD" style="stroke:#181818;stroke-width:0.5;"/><path d="M303.5,6 L303.5,16 L313.5,16 L303.5,6 " fill="#FEFFDD" style="stroke:#181818;stroke-width:0.5;"/><text fill="#000000" font-family="sans-serif" font-size="13" lengthAdjust="spacing" textLength="190" x="108.5" y="23.5684">Hentet definisjon fra Fiks Plan</text></g><!--class Dokumenttype--><g id="elem_Dokumenttype"><rect codeLine="19" fill="#F1F1F1" height="89.5977" id="Dokumenttype" rx="2.5" ry="2.5" style="stroke:#181818;stroke-width:0.5;" width="184" x="226" y="331.21"/><ellipse cx="264.4" cy="351.5205" fill="#ADD1B2" rx="11" ry="11" style="stroke:#181818;stroke-width:1.0;"/><path d="M266.8731,357.6636 Q266.2921,357.9624 265.6529,358.1119 Q265.0138,358.2613 264.3082,358.2613 Q261.8014,358.2613 260.4815,356.6094 Q259.1617,354.9576 259.1617,351.8365 Q259.1617,348.7071 260.4815,347.0552 Q261.8014,345.4034 264.3082,345.4034 Q265.0138,345.4034 265.6612,345.5528 Q266.3087,345.7022 266.8731,346.001 L266.8731,348.7237 Q266.2423,348.1426 265.6488,347.8728 Q265.0553,347.6031 264.4244,347.6031 Q263.0797,347.6031 262.3949,348.6697 Q261.7101,349.7364 261.7101,351.8365 Q261.7101,353.9283 262.3949,354.9949 Q263.0797,356.0616 264.4244,356.0616 Q265.0553,356.0616 265.6488,355.7918 Q266.2423,355.522 266.8731,354.941 Z " fill="#000000"/><text fill="#000000" font-family="sans-serif" font-size="12" font-style="italic" lengthAdjust="spacing" textLength="42" x="312.6" y="347.8116">&#171;Kode&#187;</text><text fill="#000000" font-family="sans-serif" font-size="14" lengthAdjust="spacing" textLength="100" x="283.6" y="363.878">Dokumenttype</text><line style="stroke:#181818;stroke-width:0.5;" x1="227" x2="409" y1="371.8311" y2="371.8311"/><ellipse cx="237" cy="385.5752" fill="none" rx="3" ry="3" style="stroke:#038048;stroke-width:1.0;"/><text fill="#000000" font-family="sans-serif" font-size="14" lengthAdjust="spacing" textLength="116" x="246" y="389.3663">kodeverdi: string</text><ellipse cx="237" cy="402.0635" fill="none" rx="3" ry="3" style="stroke:#038048;stroke-width:1.0;"/><text fill="#000000" font-family="sans-serif" font-size="14" lengthAdjust="spacing" textLength="158" x="246" y="405.8545">kodebeskrivelse: string</text><line style="stroke:#181818;stroke-width:0.5;" x1="227" x2="409" y1="412.8077" y2="412.8077"/></g><!--link Dokument to Dokumenttype--><g id="link_Dokument_Dokumenttype"><path codeLine="16" d="M258.97,271.58 C270.72,292.16 282.71,313.18 292.79,330.84 " fill="none" id="Dokument-Dokumenttype" style="stroke:#181818;stroke-width:1.0;"/></g><!--link Dokument to ReferanseDokumentfil--><g id="link_Dokument_ReferanseDokumentfil"><path codeLine="17" d="M157.49,271.58 C144.9,293.84 132.03,316.6 121.58,335.08 " fill="none" id="Dokument-ReferanseDokumentfil" style="stroke:#181818;stroke-width:1.0;"/></g><!--SRC=[RL31QiCm3BtxAxJhHXrs3QMdCWQzZFs1Lij5ioC7omcCiN-VctPfC-A3Z9waf_Vqm7ACWoEmZRMD91lKUgv1CQX7fMp7P-ifHbARoLD6KN8f31r9yHoROqHLntZAsDb-C6O2O7zjWMy3zJsoQq5BPZbDUU5IA2wWIYOuoWBxMrI-UcfdpdCsbMT1-vkW5jvNqAczuuukJ2ihr659BTHuuSOSU5m8-Z56KY4egOVaRmvRUAqV5N3aMLW_au3F22_rZl0MKOoPUpURfOlxmghkV-Sy3y5sUqYEThlhRPz2pKRAZXV69lY3D6GUAIhT-VW5]--></g></svg>