<svg xmlns="http://www.w3.org/2000/svg" xmlns:xlink="http://www.w3.org/1999/xlink" contentStyleType="text/css" data-diagram-type="CLASS" height="427px" preserveAspectRatio="none" style="width:415px;height:427px;background:#FFFFFF;" version="1.1" viewBox="0 0 415 427" width="415px" zoomAndPan="magnify"><defs/><g><!--class ReferanseDokumentfil--><g id="elem_ReferanseDokumentfil"><rect codeLine="2" fill="#F1F1F1" height="80.9766" id="ReferanseDokumentfil" rx="2.5" ry="2.5" style="stroke:#181818;stroke-width:0.5;" width="182.6777" x="7" y="335.52"/><ellipse cx="22" cy="351.52" fill="#ADD1B2" rx="11" ry="11" style="stroke:#181818;stroke-width:1;"/><path d="M24.4731,357.6631 Q23.8921,357.9619 23.2529,358.1113 Q22.6138,358.2607 21.9082,358.2607 Q19.4014,358.2607 18.0815,356.6089 Q16.7617,354.957 16.7617,351.8359 Q16.7617,348.7065 18.0815,347.0547 Q19.4014,345.4028 21.9082,345.4028 Q22.6138,345.4028 23.2612,345.5522 Q23.9087,345.7016 24.4731,346.0005 L24.4731,348.7231 Q23.8423,348.1421 23.2488,347.8723 Q22.6553,347.6025 22.0244,347.6025 Q20.6797,347.6025 19.9949,348.6692 Q19.3101,349.7358 19.3101,351.8359 Q19.3101,353.9277 19.9949,354.9944 Q20.6797,356.061 22.0244,356.061 Q22.6553,356.061 23.2488,355.7912 Q23.8423,355.5215 24.4731,354.9404 Z " fill="#000000"/><text fill="#000000" font-family="sans-serif" font-size="14" lengthAdjust="spacing" textLength="150.6777" x="36" y="356.811">ReferanseDokumentfil</text><line style="stroke:#181818;stroke-width:0.5;" x1="8" x2="188.6777" y1="367.52" y2="367.52"/><ellipse cx="18" cy="381.2641" fill="#000000" rx="3" ry="3" style="stroke:#000000;stroke-width:1;"/><text fill="#000000" font-family="sans-serif" font-size="14" lengthAdjust="spacing" textLength="61.2842" x="27" y="385.0552">id: string</text><ellipse cx="18" cy="397.7524" fill="#000000" rx="3" ry="3" style="stroke:#000000;stroke-width:1;"/><text fill="#000000" font-family="sans-serif" font-size="14" lengthAdjust="spacing" textLength="66.8896" x="27" y="401.5434">url: string</text><line style="stroke:#181818;stroke-width:0.5;" x1="8" x2="188.6777" y1="408.4966" y2="408.4966"/></g><!--class Dokument--><g id="elem_Dokument"><rect codeLine="3" fill="#F1F1F1" height="179.9063" id="Dokument" rx="2.5" ry="2.5" style="stroke:#181818;stroke-width:0.5;" width="333.0908" x="40.79" y="91.31"/><ellipse cx="167.7094" cy="107.31" fill="#ADD1B2" rx="11" ry="11" style="stroke:#181818;stroke-width:1;"/><path d="M170.1826,113.4531 Q169.6015,113.7519 168.9624,113.9013 Q168.3232,114.0507 167.6176,114.0507 Q165.1108,114.0507 163.791,112.3989 Q162.4712,110.747 162.4712,107.6259 Q162.4712,104.4965 163.791,102.8447 Q165.1108,101.1928 167.6176,101.1928 Q168.3232,101.1928 168.9707,101.3422 Q169.6181,101.4916 170.1826,101.7905 L170.1826,104.5131 Q169.5517,103.9321 168.9582,103.6623 Q168.3647,103.3925 167.7338,103.3925 Q166.3891,103.3925 165.7043,104.4592 Q165.0195,105.5258 165.0195,107.6259 Q165.0195,109.7177 165.7043,110.7844 Q166.3891,111.851 167.7338,111.851 Q168.3647,111.851 168.9582,111.5812 Q169.5517,111.3115 170.1826,110.7304 Z " fill="#000000"/><text fill="#000000" font-family="sans-serif" font-size="14" lengthAdjust="spacing" textLength="70.752" x="188.2094" y="112.601">Dokument</text><line style="stroke:#181818;stroke-width:0.5;" x1="41.79" x2="372.8808" y1="123.31" y2="123.31"/><ellipse cx="51.79" cy="137.0541" fill="#000000" rx="3" ry="3" style="stroke:#000000;stroke-width:1;"/><text fill="#000000" font-family="sans-serif" font-size="14" lengthAdjust="spacing" textLength="61.2842" x="60.79" y="140.8452">id: string</text><text fill="#000000" font-family="sans-serif" font-size="14" lengthAdjust="spacing" textLength="80.0283" x="60.79" y="157.3334">tittel: string</text><text fill="#000000" font-family="sans-serif" font-size="14" lengthAdjust="spacing" textLength="94.0215" x="60.79" y="173.8217">filnavn: string</text><text fill="#000000" font-family="sans-serif" font-size="14" lengthAdjust="spacing" textLength="207.0127" x="60.79" y="190.31">dokumenttype: Dokumenttype</text><text fill="#000000" font-family="sans-serif" font-size="14" lengthAdjust="spacing" textLength="307.0908" x="60.79" y="206.7983">referanseDokumentfil: ReferanseDokumentfil</text><text fill="#000000" font-family="sans-serif" font-size="14" lengthAdjust="spacing" textLength="115.5752" x="60.79" y="223.2866">mimetype: string</text><text fill="#000000" font-family="sans-serif" font-size="14" lengthAdjust="spacing" textLength="145.0313" x="60.79" y="239.7748">dokumentsdato: date</text><text fill="#000000" font-family="sans-serif" font-size="14" lengthAdjust="spacing" textLength="113.7158" x="60.79" y="256.2631">arkivnavn: string</text><line style="stroke:#181818;stroke-width:0.5;" x1="41.79" x2="372.8808" y1="263.2163" y2="263.2163"/></g><g id="elem_GMN4"><path d="M102.27,6 L102.27,31.3105 A0,0 0 0 0 102.27,31.3105 L203.34,31.3105 L207.34,90.84 L211.34,31.3105 L312.3984,31.3105 A0,0 0 0 0 312.3984,31.3105 L312.3984,16 L302.3984,6 L102.27,6 A0,0 0 0 0 102.27,6 " fill="#FEFFDD" style="stroke:#181818;stroke-width:0.5;"/><path d="M302.3984,6 L302.3984,16 L312.3984,16 L302.3984,6 " fill="#FEFFDD" style="stroke:#181818;stroke-width:0.5;"/><text fill="#000000" font-family="sans-serif" font-size="13" lengthAdjust="spacing" textLength="189.1284" x="108.27" y="23.5684">Hentet definisjon fra Fiks Plan</text></g><!--class Dokumenttype--><g id="elem_Dokumenttype"><rect codeLine="19" fill="#F1F1F1" height="89.5977" id="Dokumenttype" rx="2.5" ry="2.5" style="stroke:#181818;stroke-width:0.5;" width="183.5547" x="224.56" y="331.21"/><ellipse cx="262.7983" cy="351.5205" fill="#ADD1B2" rx="11" ry="11" style="stroke:#181818;stroke-width:1;"/><path d="M265.2714,357.6636 Q264.6904,357.9624 264.0512,358.1119 Q263.4121,358.2613 262.7065,358.2613 Q260.1996,358.2613 258.8798,356.6094 Q257.56,354.9576 257.56,351.8365 Q257.56,348.7071 258.8798,347.0552 Q260.1996,345.4034 262.7065,345.4034 Q263.4121,345.4034 264.0595,345.5528 Q264.707,345.7022 265.2714,346.001 L265.2714,348.7237 Q264.6406,348.1426 264.0471,347.8728 Q263.4536,347.6031 262.8227,347.6031 Q261.478,347.6031 260.7932,348.6697 Q260.1083,349.7364 260.1083,351.8365 Q260.1083,353.9283 260.7932,354.9949 Q261.478,356.0616 262.8227,356.0616 Q263.4536,356.0616 264.0471,355.7918 Q264.6406,355.522 265.2714,354.941 Z " fill="#000000"/><text fill="#000000" font-family="sans-serif" font-size="12" font-style="italic" lengthAdjust="spacing" textLength="42.0176" x="310.9106" y="347.8116">&#171;Kode&#187;</text><text fill="#000000" font-family="sans-serif" font-size="14" lengthAdjust="spacing" textLength="99.9141" x="281.9623" y="363.878">Dokumenttype</text><line style="stroke:#181818;stroke-width:0.5;" x1="225.56" x2="407.1147" y1="371.8311" y2="371.8311"/><ellipse cx="235.56" cy="385.5752" fill="#FFFFFF" fill-opacity="0.00000" rx="3" ry="3" style="stroke:#038048;stroke-width:1;"/><text fill="#000000" font-family="sans-serif" font-size="14" lengthAdjust="spacing" textLength="115.4521" x="244.56" y="389.3663">kodeverdi: string</text><ellipse cx="235.56" cy="402.0635" fill="#FFFFFF" fill-opacity="0.00000" rx="3" ry="3" style="stroke:#038048;stroke-width:1;"/><text fill="#000000" font-family="sans-serif" font-size="14" lengthAdjust="spacing" textLength="157.5547" x="244.56" y="405.8545">kodebeskrivelse: string</text><line style="stroke:#181818;stroke-width:0.5;" x1="225.56" x2="407.1147" y1="412.8077" y2="412.8077"/></g><!--link Dokument to Dokumenttype--><g id="link_Dokument_Dokumenttype"><path codeLine="16" d="M257.85,271.58 C269.49,292.16 281.37,313.18 291.36,330.84 " fill="#FFFFFF" fill-opacity="0.00000" id="Dokument-Dokumenttype" style="stroke:#181818;stroke-width:1;"/></g><!--link Dokument to ReferanseDokumentfil--><g id="link_Dokument_ReferanseDokumentfil"><path codeLine="17" d="M156.83,271.58 C144.24,293.84 131.37,316.6 120.92,335.08 " fill="#FFFFFF" fill-opacity="0.00000" id="Dokument-ReferanseDokumentfil" style="stroke:#181818;stroke-width:1;"/></g><!--SRC=[RL31QiCm3BtxAxJhHXrs3QMdCWQzZFs1Lij5ioC7omcCiN-VctPfC-A3Z9waf_Vqm7ACWoEmZRMD91lKUgv1CQX7fMp7P-ifHbARoLD6KN8f31r9yHoROqHLntZAsDb-C6O2O7zjWMy3zJsoQq5BPZbDUU5IA2wWIYOuoWBxMrI-UcfdpdCsbMT1-vkW5jvNqAczuuukJ2ihr659BTHuuSOSU5m8-Z56KY4egOVaRmvRUAqV5N3aMLW_au3F22_rZl0MKOoPUpURfOlxmghkV-Sy3y5sUqYEThlhRPz2pKRAZXV69lY3D6GUAIhT-VW5]--></g></svg>