<svg xmlns="http://www.w3.org/2000/svg" xmlns:xlink="http://www.w3.org/1999/xlink" contentStyleType="text/css" data-diagram-type="CLASS" height="402px" preserveAspectRatio="none" style="width:347px;height:402px;background:#FFFFFF;" version="1.1" viewBox="0 0 347 402" width="347px" zoomAndPan="magnify"><defs/><g><!--class ReferanseDokumentfil--><g class="entity" data-entity="ReferanseDokumentfil" data-source-line="2" data-uid="ent0002" id="entity_ReferanseDokumentfil"><rect fill="#F1F1F1" height="80.9766" rx="2.5" ry="2.5" style="stroke:#181818;stroke-width:0.5;" width="182.6777" x="82.21" y="314.73"/><ellipse cx="97.21" cy="330.73" fill="#ADD1B2" rx="11" ry="11" style="stroke:#181818;stroke-width:1;"/><path d="M99.6831,336.8731 Q99.1021,337.1719 98.4629,337.3213 Q97.8238,337.4707 97.1182,337.4707 Q94.6114,337.4707 93.2915,335.8189 Q91.9717,334.167 91.9717,331.0459 Q91.9717,327.9165 93.2915,326.2647 Q94.6114,324.6128 97.1182,324.6128 Q97.8238,324.6128 98.4712,324.7622 Q99.1187,324.9116 99.6831,325.2105 L99.6831,327.9331 Q99.0523,327.3521 98.4588,327.0823 Q97.8653,326.8125 97.2344,326.8125 Q95.8897,326.8125 95.2049,327.8792 Q94.5201,328.9458 94.5201,331.0459 Q94.5201,333.1377 95.2049,334.2044 Q95.8897,335.271 97.2344,335.271 Q97.8653,335.271 98.4588,335.0012 Q99.0523,334.7315 99.6831,334.1504 Z " fill="#000000"/><text fill="#000000" font-family="sans-serif" font-size="14" lengthAdjust="spacing" textLength="150.6777" x="111.21" y="336.021">ReferanseDokumentfil</text><line style="stroke:#181818;stroke-width:0.5;" x1="83.21" x2="263.8877" y1="346.73" y2="346.73"/><ellipse cx="93.21" cy="360.4741" fill="#000000" rx="3" ry="3" style="stroke:#000000;stroke-width:1;"/><text fill="#000000" font-family="sans-serif" font-size="14" lengthAdjust="spacing" textLength="61.2842" x="102.21" y="364.2652">id: string</text><ellipse cx="93.21" cy="376.9624" fill="#000000" rx="3" ry="3" style="stroke:#000000;stroke-width:1;"/><text fill="#000000" font-family="sans-serif" font-size="14" lengthAdjust="spacing" textLength="66.8896" x="102.21" y="380.7534">url: string</text><line style="stroke:#181818;stroke-width:0.5;" x1="83.21" x2="263.8877" y1="387.7066" y2="387.7066"/></g><!--class Dokument--><g class="entity" data-entity="Dokument" data-source-line="3" data-uid="ent0003" id="entity_Dokument"><rect fill="#F1F1F1" height="163.418" rx="2.5" ry="2.5" style="stroke:#181818;stroke-width:0.5;" width="333.0908" x="7" y="91.32"/><ellipse cx="133.9194" cy="107.32" fill="#ADD1B2" rx="11" ry="11" style="stroke:#181818;stroke-width:1;"/><path d="M136.3926,113.4631 Q135.8115,113.7619 135.1724,113.9113 Q134.5332,114.0607 133.8276,114.0607 Q131.3208,114.0607 130.001,112.4089 Q128.6812,110.757 128.6812,107.6359 Q128.6812,104.5065 130.001,102.8547 Q131.3208,101.2028 133.8276,101.2028 Q134.5332,101.2028 135.1807,101.3522 Q135.8281,101.5016 136.3926,101.8005 L136.3926,104.5231 Q135.7617,103.9421 135.1682,103.6723 Q134.5747,103.4025 133.9438,103.4025 Q132.5991,103.4025 131.9143,104.4692 Q131.2295,105.5358 131.2295,107.6359 Q131.2295,109.7277 131.9143,110.7944 Q132.5991,111.861 133.9438,111.861 Q134.5747,111.861 135.1682,111.5912 Q135.7617,111.3215 136.3926,110.7404 Z " fill="#000000"/><text fill="#000000" font-family="sans-serif" font-size="14" lengthAdjust="spacing" textLength="70.752" x="154.4194" y="112.611">Dokument</text><line style="stroke:#181818;stroke-width:0.5;" x1="8" x2="339.0908" y1="123.32" y2="123.32"/><ellipse cx="18" cy="137.0641" fill="#000000" rx="3" ry="3" style="stroke:#000000;stroke-width:1;"/><text fill="#000000" font-family="sans-serif" font-size="14" lengthAdjust="spacing" textLength="61.2842" x="27" y="140.8552">id: string</text><ellipse cx="18" cy="153.5524" fill="#000000" rx="3" ry="3" style="stroke:#000000;stroke-width:1;"/><text fill="#000000" font-family="sans-serif" font-size="14" lengthAdjust="spacing" textLength="94.0215" x="27" y="157.3434">filnavn: string</text><ellipse cx="18" cy="170.0407" fill="#000000" rx="3" ry="3" style="stroke:#000000;stroke-width:1;"/><text fill="#000000" font-family="sans-serif" font-size="14" lengthAdjust="spacing" textLength="307.0908" x="27" y="173.8317">referanseDokumentfil: ReferanseDokumentfil</text><text fill="#000000" font-family="sans-serif" font-size="14" lengthAdjust="spacing" textLength="115.5752" x="27" y="190.32">mimetype: string</text><text fill="#000000" font-family="sans-serif" font-size="14" lengthAdjust="spacing" textLength="137.8945" x="27" y="206.8083">dokumentdato: date</text><text fill="#000000" font-family="sans-serif" font-size="14" lengthAdjust="spacing" textLength="113.7158" x="27" y="223.2966">arkivnavn: string</text><text fill="#000000" font-family="sans-serif" font-size="14" lengthAdjust="spacing" textLength="137.1426" x="27" y="239.7848">filstoerrelse: integer</text><line style="stroke:#181818;stroke-width:0.5;" x1="8" x2="339.0908" y1="246.738" y2="246.738"/></g><g class="entity" data-entity="GMN4" data-source-line="13" data-uid="ent0005" id="entity_GMN4"><path d="M68.48,6 L68.48,31.3105 A0,0 0 0 0 68.48,31.3105 L169.55,31.3105 L173.55,91.09 L177.55,31.3105 L278.6084,31.3105 A0,0 0 0 0 278.6084,31.3105 L278.6084,16 L268.6084,6 L68.48,6 A0,0 0 0 0 68.48,6" fill="#FEFFDD" style="stroke:#181818;stroke-width:0.5;"/><path d="M268.6084,6 L268.6084,16 L278.6084,16 L268.6084,6" fill="#FEFFDD" style="stroke:#181818;stroke-width:0.5;"/><text fill="#000000" font-family="sans-serif" font-size="13" lengthAdjust="spacing" textLength="189.1284" x="74.48" y="23.5684">Hentet definisjon fra Fiks Plan</text></g><!--link Dokument to ReferanseDokumentfil--><g class="link" data-entity-1="Dokument" data-entity-2="ReferanseDokumentfil" data-source-line="15" data-uid="lnk7" id="link_Dokument_ReferanseDokumentfil"><path codeLine="15" d="M173.55,255.16 C173.55,275.71 173.55,296.89 173.55,314.37" fill="none" id="Dokument-ReferanseDokumentfil" style="stroke:#181818;stroke-width:1;stroke-dasharray:7.0,7.0;"/></g><!--SRC=[RL31QiH02BtFLzXh3uPUSrvAZwL_83jEi9auGKsWbFvxXxJTPUbwK7mytrCVHCzrommu80xQS7OiqfFJx8MS3VSdB5mhEneNDbBdtEPjOOqYTJXNSiz2az62wvRI0S3fbmAV2NeyIXx1mqIddxwFAkrw2ruCJbU34Txke0T_aONZO-KRaR_TCaKReMS-OB9Pzd-ENScZiHbNxpAYmHDR-af9Mp14Mw6LwoqZlFJ20PcBgFXxKoX6yDm_1g-LDAKB5_7-ujy0]--></g></svg>