<svg xmlns="http://www.w3.org/2000/svg" xmlns:xlink="http://www.w3.org/1999/xlink" contentStyleType="text/css" height="186px" preserveAspectRatio="none" style="width:225px;height:186px;background:#FFFFFF;" version="1.1" viewBox="0 0 225 186" width="225px" zoomAndPan="magnify"><defs/><g><!--class HentSaksfaser--><g id="elem_HentSaksfaser"><rect codeLine="2" fill="#F1F1F1" height="64.4883" id="HentSaksfaser" rx="2.5" ry="2.5" style="stroke:#181818;stroke-width:0.5;" width="211" x="7" y="7"/><ellipse cx="59.75" cy="23" fill="#ADD1B2" rx="11" ry="11" style="stroke:#181818;stroke-width:1.0;"/><path d="M62.2231,29.1431 Q61.6421,29.4419 61.0029,29.5913 Q60.3638,29.7407 59.6582,29.7407 Q57.1514,29.7407 55.8315,28.0889 Q54.5117,26.437 54.5117,23.3159 Q54.5117,20.1865 55.8315,18.5347 Q57.1514,16.8828 59.6582,16.8828 Q60.3638,16.8828 61.0112,17.0322 Q61.6587,17.1816 62.2231,17.4805 L62.2231,20.2031 Q61.5923,19.6221 60.9988,19.3523 Q60.4053,19.0825 59.7744,19.0825 Q58.4297,19.0825 57.7449,20.1492 Q57.0601,21.2158 57.0601,23.3159 Q57.0601,25.4077 57.7449,26.4744 Q58.4297,27.541 59.7744,27.541 Q60.4053,27.541 60.9988,27.2712 Q61.5923,27.0015 62.2231,26.4204 Z " fill="#000000"/><text fill="#000000" font-family="sans-serif" font-size="14" lengthAdjust="spacing" textLength="97" x="80.25" y="28.291">HentSaksfaser</text><line style="stroke:#181818;stroke-width:0.5;" x1="8" x2="217" y1="39" y2="39"/><ellipse cx="18" cy="52.7441" fill="none" rx="3" ry="3" style="stroke:#038048;stroke-width:1.0;"/><text fill="#000000" font-family="sans-serif" font-size="14" lengthAdjust="spacing" textLength="185" x="27" y="56.5352">saksnummer: Saksnummer</text><line style="stroke:#181818;stroke-width:0.5;" x1="8" x2="217" y1="63.4883" y2="63.4883"/></g><!--class Saksnummer--><g id="elem_Saksnummer"><rect fill="#F1F1F1" height="48" id="Saksnummer" rx="2.5" ry="2.5" style="stroke:#181818;stroke-width:0.5;" width="121" x="52" y="131.49"/><ellipse cx="67" cy="147.49" fill="#ADD1B2" rx="11" ry="11" style="stroke:#181818;stroke-width:1.0;"/><path d="M69.4731,153.6331 Q68.8921,153.9319 68.2529,154.0813 Q67.6138,154.2307 66.9082,154.2307 Q64.4014,154.2307 63.0815,152.5789 Q61.7617,150.927 61.7617,147.8059 Q61.7617,144.6765 63.0815,143.0247 Q64.4014,141.3728 66.9082,141.3728 Q67.6138,141.3728 68.2612,141.5222 Q68.9087,141.6716 69.4731,141.9705 L69.4731,144.6931 Q68.8423,144.1121 68.2488,143.8423 Q67.6553,143.5725 67.0244,143.5725 Q65.6797,143.5725 64.9949,144.6392 Q64.3101,145.7058 64.3101,147.8059 Q64.3101,149.8977 64.9949,150.9644 Q65.6797,152.031 67.0244,152.031 Q67.6553,152.031 68.2488,151.7612 Q68.8423,151.4915 69.4731,150.9104 Z " fill="#000000"/><text fill="#000000" font-family="sans-serif" font-size="14" lengthAdjust="spacing" textLength="89" x="81" y="152.781">Saksnummer</text><line style="stroke:#181818;stroke-width:0.5;" x1="53" x2="172" y1="163.49" y2="163.49"/><line style="stroke:#181818;stroke-width:0.5;" x1="53" x2="172" y1="171.49" y2="171.49"/></g><!--link HentSaksfaser to Saksnummer--><g id="link_HentSaksfaser_Saksnummer"><path codeLine="6" d="M112.5,71.77 C112.5,90.52 112.5,113.92 112.5,131.05 " fill="none" id="HentSaksfaser-Saksnummer" style="stroke:#181818;stroke-width:1.0;"/></g><!--SRC=[Iyv9B2vMy4ZDAmbEp2vEIonEBLAevb800krYe41UQMvkQf6LGZ2SpLNBnOMgN5SNMHe0]--></g></svg>