<svg xmlns="http://www.w3.org/2000/svg" xmlns:xlink="http://www.w3.org/1999/xlink" contentStyleType="text/css" data-diagram-type="CLASS" height="219px" preserveAspectRatio="none" style="width:238px;height:219px;background:#FFFFFF;" version="1.1" viewBox="0 0 238 219" width="238px" zoomAndPan="magnify"><defs/><g><!--class Saksnummer--><g class="entity" data-entity="Saksnummer" data-source-line="2" data-uid="ent0002" id="entity_Saksnummer"><rect fill="#F1F1F1" height="80.9766" rx="2.5" ry="2.5" style="stroke:#181818;stroke-width:0.5;" width="224.1123" x="7" y="131.48"/><ellipse cx="70.9878" cy="147.48" fill="#ADD1B2" rx="11" ry="11" style="stroke:#181818;stroke-width:1;"/><path d="M73.4609,153.6231 Q72.8799,153.9219 72.2407,154.0713 Q71.6016,154.2207 70.896,154.2207 Q68.3892,154.2207 67.0693,152.5689 Q65.7495,150.917 65.7495,147.7959 Q65.7495,144.6665 67.0693,143.0147 Q68.3892,141.3628 70.896,141.3628 Q71.6016,141.3628 72.249,141.5122 Q72.8965,141.6616 73.4609,141.9605 L73.4609,144.6831 Q72.8301,144.1021 72.2366,143.8323 Q71.6431,143.5625 71.0122,143.5625 Q69.6675,143.5625 68.9827,144.6292 Q68.2979,145.6958 68.2979,147.7959 Q68.2979,149.8877 68.9827,150.9544 Q69.6675,152.021 71.0122,152.021 Q71.6431,152.021 72.2366,151.7512 Q72.8301,151.4815 73.4609,150.9004 Z " fill="#000000"/><text fill="#000000" font-family="sans-serif" font-size="14" lengthAdjust="spacing" textLength="87.6367" x="91.4878" y="152.771">Saksnummer</text><line style="stroke:#181818;stroke-width:0.5;" x1="8" x2="230.1123" y1="163.48" y2="163.48"/><ellipse cx="18" cy="177.2241" fill="#000000" rx="3" ry="3" style="stroke:#000000;stroke-width:1;"/><text fill="#000000" font-family="sans-serif" font-size="14" lengthAdjust="spacing" textLength="108.2676" x="27" y="181.0152">saksaar: integer</text><ellipse cx="18" cy="193.7124" fill="#000000" rx="3" ry="3" style="stroke:#000000;stroke-width:1;"/><text fill="#000000" font-family="sans-serif" font-size="14" lengthAdjust="spacing" textLength="198.1123" x="27" y="197.5034">sakssekvensnummer: integer</text><line style="stroke:#181818;stroke-width:0.5;" x1="8" x2="230.1123" y1="204.4566" y2="204.4566"/></g><!--class HentSaksfaser--><g class="entity" data-entity="HentSaksfaser" data-source-line="3" data-uid="ent0003" id="entity_HentSaksfaser"><rect fill="#F1F1F1" height="64.4883" rx="2.5" ry="2.5" style="stroke:#181818;stroke-width:0.5;" width="209.7295" x="14.19" y="7"/><ellipse cx="66.731" cy="23" fill="#ADD1B2" rx="11" ry="11" style="stroke:#181818;stroke-width:1;"/><path d="M69.2042,29.1431 Q68.6231,29.4419 67.9839,29.5913 Q67.3448,29.7407 66.6392,29.7407 Q64.1324,29.7407 62.8126,28.0889 Q61.4927,26.437 61.4927,23.3159 Q61.4927,20.1865 62.8126,18.5347 Q64.1324,16.8828 66.6392,16.8828 Q67.3448,16.8828 67.9922,17.0322 Q68.6397,17.1816 69.2042,17.4805 L69.2042,20.2031 Q68.5733,19.6221 67.9798,19.3523 Q67.3863,19.0825 66.7554,19.0825 Q65.4107,19.0825 64.7259,20.1492 Q64.0411,21.2158 64.0411,23.3159 Q64.0411,25.4077 64.7259,26.4744 Q65.4107,27.541 66.7554,27.541 Q67.3863,27.541 67.9798,27.2712 Q68.5733,27.0015 69.2042,26.4204 Z " fill="#000000"/><text fill="#000000" font-family="sans-serif" font-size="14" lengthAdjust="spacing" textLength="96.1475" x="87.231" y="28.291">HentSaksfaser</text><line style="stroke:#181818;stroke-width:0.5;" x1="15.19" x2="222.9195" y1="39" y2="39"/><ellipse cx="25.19" cy="52.7441" fill="#000000" rx="3" ry="3" style="stroke:#000000;stroke-width:1;"/><text fill="#000000" font-family="sans-serif" font-size="14" lengthAdjust="spacing" textLength="183.7295" x="34.19" y="56.5352">saksnummer: Saksnummer</text><line style="stroke:#181818;stroke-width:0.5;" x1="15.19" x2="222.9195" y1="63.4883" y2="63.4883"/></g><!--link HentSaksfaser to Saksnummer--><g class="link" data-entity-1="HentSaksfaser" data-entity-2="Saksnummer" data-source-line="7" data-uid="lnk4" id="link_HentSaksfaser_Saksnummer"><path codeLine="7" d="M119.06,71.89 C119.06,89.72 119.06,112.17 119.06,131.18" fill="none" id="HentSaksfaser-Saksnummer" style="stroke:#181818;stroke-width:1;stroke-dasharray:7.0,7.0;"/></g><!--SRC=[KypCIyufJKbLqDFNqzFFozVBBjPBomGInOdPnMc9nQb5UcM6UccfEJcf4B6yqjpSr2Bzv9p4ukAKpCJqeiHSlO9IBYwmW897Qbv9C4odGZMN0X1e8RHPAGJ3sLorN5oeolNqaAK1]--></g></svg>