<svg xmlns="http://www.w3.org/2000/svg" xmlns:xlink="http://www.w3.org/1999/xlink" contentStyleType="text/css" height="640px" preserveAspectRatio="none" style="width:982px;height:640px;background:#FFFFFF;" version="1.1" viewBox="0 0 982 640" width="982px" zoomAndPan="magnify"><defs/><g><!--class Fase--><g id="elem_Fase"><rect codeLine="2" fill="#F1F1F1" height="163.418" id="Fase" rx="2.5" ry="2.5" style="stroke:#181818;stroke-width:0.5;" width="199" x="252.5" y="15.24"/><ellipse cx="332.25" cy="31.24" fill="#ADD1B2" rx="11" ry="11" style="stroke:#181818;stroke-width:1.0;"/><path d="M334.7231,37.3831 Q334.1421,37.6819 333.5029,37.8313 Q332.8638,37.9807 332.1582,37.9807 Q329.6514,37.9807 328.3315,36.3289 Q327.0117,34.677 327.0117,31.5559 Q327.0117,28.4265 328.3315,26.7747 Q329.6514,25.1228 332.1582,25.1228 Q332.8638,25.1228 333.5112,25.2722 Q334.1587,25.4216 334.7231,25.7205 L334.7231,28.4431 Q334.0923,27.8621 333.4988,27.5923 Q332.9053,27.3225 332.2744,27.3225 Q330.9297,27.3225 330.2449,28.3892 Q329.5601,29.4558 329.5601,31.5559 Q329.5601,33.6477 330.2449,34.7144 Q330.9297,35.781 332.2744,35.781 Q332.9053,35.781 333.4988,35.5112 Q334.0923,35.2415 334.7231,34.6604 Z " fill="#000000"/><text fill="#000000" font-family="sans-serif" font-size="14" lengthAdjust="spacing" textLength="31" x="352.75" y="36.531">Fase</text><line style="stroke:#181818;stroke-width:0.5;" x1="253.5" x2="450.5" y1="47.24" y2="47.24"/><ellipse cx="263.5" cy="60.9841" fill="none" rx="3" ry="3" style="stroke:#038048;stroke-width:1.0;"/><text fill="#000000" font-family="sans-serif" font-size="14" lengthAdjust="spacing" textLength="109" x="272.5" y="64.7752">fasenavn: string</text><ellipse cx="263.5" cy="77.4724" fill="none" rx="3" ry="3" style="stroke:#038048;stroke-width:1.0;"/><text fill="#000000" font-family="sans-serif" font-size="14" lengthAdjust="spacing" textLength="89" x="272.5" y="81.2634">faseid: string</text><ellipse cx="263.5" cy="93.9607" fill="none" rx="3" ry="3" style="stroke:#038048;stroke-width:1.0;"/><text fill="#000000" font-family="sans-serif" font-size="14" lengthAdjust="spacing" textLength="153" x="272.5" y="97.7517">kategori: Fasekategori</text><ellipse cx="263.5" cy="110.449" fill="none" rx="3" ry="3" style="stroke:#038048;stroke-width:1.0;"/><text fill="#000000" font-family="sans-serif" font-size="14" lengthAdjust="spacing" textLength="131" x="272.5" y="114.24">milepeler: Milepel[]</text><ellipse cx="263.5" cy="126.9373" fill="none" rx="3" ry="3" style="stroke:#038048;stroke-width:1.0;"/><text fill="#000000" font-family="sans-serif" font-size="14" lengthAdjust="spacing" textLength="161" x="272.5" y="130.7283">status: FaseStatusEnum</text><ellipse cx="263.5" cy="143.4255" fill="none" rx="3" ry="3" style="stroke:#038048;stroke-width:1.0;"/><text fill="#000000" font-family="sans-serif" font-size="14" lengthAdjust="spacing" textLength="100" x="272.5" y="147.2166">vedtak: Vedtak</text><ellipse cx="263.5" cy="159.9138" fill="none" rx="3" ry="3" style="stroke:#038048;stroke-width:1.0;"/><text fill="#000000" font-family="sans-serif" font-size="14" lengthAdjust="spacing" textLength="173" x="272.5" y="163.7048">dokumenter: Dokument[]</text><line style="stroke:#181818;stroke-width:0.5;" x1="253.5" x2="450.5" y1="170.658" y2="170.658"/></g><!--class Dokument--><g id="elem_Dokument"><rect codeLine="55" fill="#F1F1F1" height="179.9063" id="Dokument" rx="2.5" ry="2.5" style="stroke:#181818;stroke-width:0.5;" width="335" x="486.5" y="7"/><ellipse cx="614.25" cy="23" fill="#ADD1B2" rx="11" ry="11" style="stroke:#181818;stroke-width:1.0;"/><path d="M616.7231,29.1431 Q616.1421,29.4419 615.5029,29.5913 Q614.8638,29.7407 614.1582,29.7407 Q611.6514,29.7407 610.3315,28.0889 Q609.0117,26.437 609.0117,23.3159 Q609.0117,20.1865 610.3315,18.5347 Q611.6514,16.8828 614.1582,16.8828 Q614.8638,16.8828 615.5112,17.0322 Q616.1587,17.1816 616.7231,17.4805 L616.7231,20.2031 Q616.0923,19.6221 615.4988,19.3523 Q614.9053,19.0825 614.2744,19.0825 Q612.9297,19.0825 612.2449,20.1492 Q611.5601,21.2158 611.5601,23.3159 Q611.5601,25.4077 612.2449,26.4744 Q612.9297,27.541 614.2744,27.541 Q614.9053,27.541 615.4988,27.2712 Q616.0923,27.0015 616.7231,26.4204 Z " fill="#000000"/><text fill="#000000" font-family="sans-serif" font-size="14" lengthAdjust="spacing" textLength="71" x="634.75" y="28.291">Dokument</text><line style="stroke:#181818;stroke-width:0.5;" x1="487.5" x2="820.5" y1="39" y2="39"/><ellipse cx="497.5" cy="52.7441" fill="none" rx="3" ry="3" style="stroke:#038048;stroke-width:1.0;"/><text fill="#000000" font-family="sans-serif" font-size="14" lengthAdjust="spacing" textLength="61" x="506.5" y="56.5352">id: string</text><ellipse cx="497.5" cy="69.2324" fill="none" rx="3" ry="3" style="stroke:#038048;stroke-width:1.0;"/><text fill="#000000" font-family="sans-serif" font-size="14" lengthAdjust="spacing" textLength="79" x="506.5" y="73.0234">tittel: string</text><ellipse cx="497.5" cy="85.7207" fill="none" rx="3" ry="3" style="stroke:#038048;stroke-width:1.0;"/><text fill="#000000" font-family="sans-serif" font-size="14" lengthAdjust="spacing" textLength="94" x="506.5" y="89.5117">filnavn: string</text><ellipse cx="497.5" cy="102.209" fill="none" rx="3" ry="3" style="stroke:#038048;stroke-width:1.0;"/><text fill="#000000" font-family="sans-serif" font-size="14" lengthAdjust="spacing" textLength="207" x="506.5" y="106">dokumenttype: Dokumenttype</text><ellipse cx="497.5" cy="118.6973" fill="none" rx="3" ry="3" style="stroke:#038048;stroke-width:1.0;"/><text fill="#000000" font-family="sans-serif" font-size="14" lengthAdjust="spacing" textLength="309" x="506.5" y="122.4883">referanseDokumentfil: ReferanseDokumentfil</text><ellipse cx="497.5" cy="135.1855" fill="none" rx="3" ry="3" style="stroke:#038048;stroke-width:1.0;"/><text fill="#000000" font-family="sans-serif" font-size="14" lengthAdjust="spacing" textLength="115" x="506.5" y="138.9766">mimetype: string</text><ellipse cx="497.5" cy="151.6738" fill="none" rx="3" ry="3" style="stroke:#038048;stroke-width:1.0;"/><text fill="#000000" font-family="sans-serif" font-size="14" lengthAdjust="spacing" textLength="146" x="506.5" y="155.4648">dokumentsdato: date</text><ellipse cx="497.5" cy="168.1621" fill="none" rx="3" ry="3" style="stroke:#038048;stroke-width:1.0;"/><text fill="#000000" font-family="sans-serif" font-size="14" lengthAdjust="spacing" textLength="114" x="506.5" y="171.9531">arkivnavn: string</text><line style="stroke:#181818;stroke-width:0.5;" x1="487.5" x2="820.5" y1="178.9063" y2="178.9063"/></g><!--class Milepel--><g id="elem_Milepel"><rect codeLine="36" fill="#F1F1F1" height="278.8359" id="Milepel" rx="2.5" ry="2.5" style="stroke:#181818;stroke-width:0.5;" width="218" x="7" y="246.9"/><ellipse cx="87.25" cy="262.9" fill="#ADD1B2" rx="11" ry="11" style="stroke:#181818;stroke-width:1.0;"/><path d="M89.7231,269.0431 Q89.1421,269.3419 88.5029,269.4913 Q87.8638,269.6407 87.1582,269.6407 Q84.6514,269.6407 83.3315,267.9889 Q82.0117,266.337 82.0117,263.2159 Q82.0117,260.0865 83.3315,258.4347 Q84.6514,256.7828 87.1582,256.7828 Q87.8638,256.7828 88.5112,256.9322 Q89.1587,257.0816 89.7231,257.3805 L89.7231,260.1031 Q89.0923,259.5221 88.4988,259.2523 Q87.9053,258.9825 87.2744,258.9825 Q85.9297,258.9825 85.2449,260.0492 Q84.5601,261.1158 84.5601,263.2159 Q84.5601,265.3077 85.2449,266.3744 Q85.9297,267.441 87.2744,267.441 Q87.9053,267.441 88.4988,267.1712 Q89.0923,266.9015 89.7231,266.3204 Z " fill="#000000"/><text fill="#000000" font-family="sans-serif" font-size="14" lengthAdjust="spacing" textLength="49" x="107.75" y="268.191">Milepel</text><line style="stroke:#181818;stroke-width:0.5;" x1="8" x2="224" y1="278.9" y2="278.9"/><ellipse cx="18" cy="292.6441" fill="none" rx="3" ry="3" style="stroke:#038048;stroke-width:1.0;"/><text fill="#000000" font-family="sans-serif" font-size="14" lengthAdjust="spacing" textLength="108" x="27" y="296.4352">systemId: string</text><ellipse cx="18" cy="309.1324" fill="none" rx="3" ry="3" style="stroke:#038048;stroke-width:1.0;"/><text fill="#000000" font-family="sans-serif" font-size="14" lengthAdjust="spacing" textLength="124" x="27" y="312.9234">beskrivelse: string</text><ellipse cx="18" cy="325.6207" fill="none" rx="3" ry="3" style="stroke:#038048;stroke-width:1.0;"/><text fill="#000000" font-family="sans-serif" font-size="14" lengthAdjust="spacing" textLength="143" x="27" y="329.4117">kategori: Milepeltype</text><ellipse cx="18" cy="342.109" fill="none" rx="3" ry="3" style="stroke:#038048;stroke-width:1.0;"/><text fill="#000000" font-family="sans-serif" font-size="14" lengthAdjust="spacing" textLength="65" x="27" y="345.9">frist: date</text><ellipse cx="18" cy="358.5973" fill="none" rx="3" ry="3" style="stroke:#038048;stroke-width:1.0;"/><text fill="#000000" font-family="sans-serif" font-size="14" lengthAdjust="spacing" textLength="85" x="27" y="362.3883">utfoert: date</text><ellipse cx="18" cy="375.0855" fill="none" rx="3" ry="3" style="stroke:#038048;stroke-width:1.0;"/><text fill="#000000" font-family="sans-serif" font-size="14" lengthAdjust="spacing" textLength="118" x="27" y="378.8766">journaldato: date</text><ellipse cx="18" cy="391.5738" fill="none" rx="3" ry="3" style="stroke:#038048;stroke-width:1.0;"/><text fill="#000000" font-family="sans-serif" font-size="14" lengthAdjust="spacing" textLength="105" x="27" y="395.3648">intern: boolean</text><ellipse cx="18" cy="408.0621" fill="none" rx="3" ry="3" style="stroke:#038048;stroke-width:1.0;"/><text fill="#000000" font-family="sans-serif" font-size="14" lengthAdjust="spacing" textLength="192" x="27" y="411.8531">referanseJournalpost: string</text><ellipse cx="18" cy="424.5504" fill="none" rx="3" ry="3" style="stroke:#038048;stroke-width:1.0;"/><text fill="#000000" font-family="sans-serif" font-size="14" lengthAdjust="spacing" textLength="184" x="27" y="428.3414">referanseDokument: string</text><ellipse cx="18" cy="441.0387" fill="none" rx="3" ry="3" style="stroke:#038048;stroke-width:1.0;"/><text fill="#000000" font-family="sans-serif" font-size="14" lengthAdjust="spacing" textLength="110" x="27" y="444.8297">erStart: boolean</text><ellipse cx="18" cy="457.527" fill="none" rx="3" ry="3" style="stroke:#038048;stroke-width:1.0;"/><text fill="#000000" font-family="sans-serif" font-size="14" lengthAdjust="spacing" textLength="109" x="27" y="461.318">erSlutt: boolean</text><ellipse cx="18" cy="474.0152" fill="none" rx="3" ry="3" style="stroke:#038048;stroke-width:1.0;"/><text fill="#000000" font-family="sans-serif" font-size="14" lengthAdjust="spacing" textLength="179" x="27" y="477.8063">status: MilepelStatusEnum</text><ellipse cx="18" cy="490.5035" fill="none" rx="3" ry="3" style="stroke:#038048;stroke-width:1.0;"/><text fill="#000000" font-family="sans-serif" font-size="14" lengthAdjust="spacing" textLength="122" x="27" y="494.2945">erGlobal: boolean</text><ellipse cx="18" cy="506.9918" fill="none" rx="3" ry="3" style="stroke:#038048;stroke-width:1.0;"/><text fill="#000000" font-family="sans-serif" font-size="14" lengthAdjust="spacing" textLength="173" x="27" y="510.7828">dokumenter: Dokument[]</text><line style="stroke:#181818;stroke-width:0.5;" x1="8" x2="224" y1="517.7359" y2="517.7359"/></g><!--class Fasekategori--><g id="elem_Fasekategori"><rect codeLine="31" fill="#F1F1F1" height="89.5977" id="Fasekategori" rx="2.5" ry="2.5" style="stroke:#181818;stroke-width:0.5;" width="184" x="260" y="341.52"/><ellipse cx="303.8" cy="361.8305" fill="#ADD1B2" rx="11" ry="11" style="stroke:#181818;stroke-width:1.0;"/><path d="M306.2731,367.9736 Q305.6921,368.2724 305.0529,368.4219 Q304.4138,368.5713 303.7082,368.5713 Q301.2014,368.5713 299.8815,366.9194 Q298.5617,365.2676 298.5617,362.1465 Q298.5617,359.0171 299.8815,357.3652 Q301.2014,355.7134 303.7082,355.7134 Q304.4138,355.7134 305.0612,355.8628 Q305.7087,356.0122 306.2731,356.311 L306.2731,359.0337 Q305.6423,358.4526 305.0488,358.1828 Q304.4553,357.9131 303.8244,357.9131 Q302.4797,357.9131 301.7949,358.9797 Q301.1101,360.0464 301.1101,362.1465 Q301.1101,364.2383 301.7949,365.3049 Q302.4797,366.3716 303.8244,366.3716 Q304.4553,366.3716 305.0488,366.1018 Q305.6423,365.832 306.2731,365.251 Z " fill="#000000"/><text fill="#000000" font-family="sans-serif" font-size="12" font-style="italic" lengthAdjust="spacing" textLength="42" x="347.2" y="358.1216">&#171;Kode&#187;</text><text fill="#000000" font-family="sans-serif" font-size="14" lengthAdjust="spacing" textLength="88" x="324.2" y="374.188">Fasekategori</text><line style="stroke:#181818;stroke-width:0.5;" x1="261" x2="443" y1="382.1411" y2="382.1411"/><ellipse cx="271" cy="395.8852" fill="none" rx="3" ry="3" style="stroke:#038048;stroke-width:1.0;"/><text fill="#000000" font-family="sans-serif" font-size="14" lengthAdjust="spacing" textLength="116" x="280" y="399.6763">kodeverdi: string</text><ellipse cx="271" cy="412.3735" fill="none" rx="3" ry="3" style="stroke:#038048;stroke-width:1.0;"/><text fill="#000000" font-family="sans-serif" font-size="14" lengthAdjust="spacing" textLength="158" x="280" y="416.1645">kodebeskrivelse: string</text><line style="stroke:#181818;stroke-width:0.5;" x1="261" x2="443" y1="423.1177" y2="423.1177"/></g><!--class Vedtak--><g id="elem_Vedtak"><rect codeLine="26" fill="#F1F1F1" height="89.5977" id="Vedtak" rx="2.5" ry="2.5" style="stroke:#181818;stroke-width:0.5;" width="184" x="741" y="341.52"/><ellipse cx="805.25" cy="361.8305" fill="#ADD1B2" rx="11" ry="11" style="stroke:#181818;stroke-width:1.0;"/><path d="M807.7231,367.9736 Q807.1421,368.2724 806.5029,368.4219 Q805.8638,368.5713 805.1582,368.5713 Q802.6514,368.5713 801.3315,366.9194 Q800.0117,365.2676 800.0117,362.1465 Q800.0117,359.0171 801.3315,357.3652 Q802.6514,355.7134 805.1582,355.7134 Q805.8638,355.7134 806.5112,355.8628 Q807.1587,356.0122 807.7231,356.311 L807.7231,359.0337 Q807.0923,358.4526 806.4988,358.1828 Q805.9053,357.9131 805.2744,357.9131 Q803.9297,357.9131 803.2449,358.9797 Q802.5601,360.0464 802.5601,362.1465 Q802.5601,364.2383 803.2449,365.3049 Q803.9297,366.3716 805.2744,366.3716 Q805.9053,366.3716 806.4988,366.1018 Q807.0923,365.832 807.7231,365.251 Z " fill="#000000"/><text fill="#000000" font-family="sans-serif" font-size="12" font-style="italic" lengthAdjust="spacing" textLength="42" x="828.25" y="358.1216">&#171;Kode&#187;</text><text fill="#000000" font-family="sans-serif" font-size="14" lengthAdjust="spacing" textLength="47" x="825.75" y="374.188">Vedtak</text><line style="stroke:#181818;stroke-width:0.5;" x1="742" x2="924" y1="382.1411" y2="382.1411"/><ellipse cx="752" cy="395.8852" fill="none" rx="3" ry="3" style="stroke:#038048;stroke-width:1.0;"/><text fill="#000000" font-family="sans-serif" font-size="14" lengthAdjust="spacing" textLength="116" x="761" y="399.6763">kodeverdi: string</text><ellipse cx="752" cy="412.3735" fill="none" rx="3" ry="3" style="stroke:#038048;stroke-width:1.0;"/><text fill="#000000" font-family="sans-serif" font-size="14" lengthAdjust="spacing" textLength="158" x="761" y="416.1645">kodebeskrivelse: string</text><line style="stroke:#181818;stroke-width:0.5;" x1="742" x2="924" y1="423.1177" y2="423.1177"/></g><!--class FaseStatusEnum--><g id="elem_FaseStatusEnum"><rect codeLine="18" fill="#F1F1F1" height="97.4648" id="FaseStatusEnum" rx="2.5" ry="2.5" style="stroke:#181818;stroke-width:0.5;" width="144" x="479" y="337.59"/><ellipse cx="494" cy="353.59" fill="#EB937F" rx="11" ry="11" style="stroke:#181818;stroke-width:1.0;"/><path d="M497.6143,360.09 L489.8945,360.09 L489.8945,347.6969 L497.6143,347.6969 L497.6143,349.8551 L492.3433,349.8551 L492.3433,352.528 L497.1162,352.528 L497.1162,354.6862 L492.3433,354.6862 L492.3433,357.9318 L497.6143,357.9318 Z " fill="#000000"/><text fill="#000000" font-family="sans-serif" font-size="14" lengthAdjust="spacing" textLength="112" x="508" y="358.881">FaseStatusEnum</text><line style="stroke:#181818;stroke-width:0.5;" x1="480" x2="622" y1="369.59" y2="369.59"/><ellipse cx="490" cy="383.3341" fill="none" rx="3" ry="3" style="stroke:#038048;stroke-width:1.0;"/><text fill="#000000" font-family="sans-serif" font-size="14" lengthAdjust="spacing" textLength="55" x="499" y="387.1252">Planlagt</text><ellipse cx="490" cy="399.8224" fill="none" rx="3" ry="3" style="stroke:#038048;stroke-width:1.0;"/><text fill="#000000" font-family="sans-serif" font-size="14" lengthAdjust="spacing" textLength="88" x="499" y="403.6134">UnderArbeid</text><ellipse cx="490" cy="416.3107" fill="none" rx="3" ry="3" style="stroke:#038048;stroke-width:1.0;"/><text fill="#000000" font-family="sans-serif" font-size="14" lengthAdjust="spacing" textLength="48" x="499" y="420.1017">Utfoert</text><line style="stroke:#181818;stroke-width:0.5;" x1="480" x2="622" y1="427.0548" y2="427.0548"/></g><g id="elem_GMN13"><path d="M857,53.67 L857,140.2227 A0,0 0 0 0 857,140.2227 L899.66,140.2227 L845.68,341.43 L907.66,140.2227 L975,140.2227 A0,0 0 0 0 975,140.2227 L975,63.67 L965,53.67 L857,53.67 A0,0 0 0 0 857,53.67 " fill="#FEFFDD" style="stroke:#181818;stroke-width:0.5;"/><path d="M965,53.67 L965,63.67 L975,63.67 L965,53.67 " fill="#FEFFDD" style="stroke:#181818;stroke-width:0.5;"/><text fill="#000000" font-family="sans-serif" font-size="13" lengthAdjust="spacing" textLength="69" x="863" y="71.2384">Eksempler:</text><text fill="#000000" font-family="sans-serif" font-size="13" lengthAdjust="spacing" textLength="56" x="863" y="86.5489">godkjent</text><text fill="#000000" font-family="sans-serif" font-size="13" lengthAdjust="spacing" textLength="97" x="863" y="101.8595">delvis godkjent</text><text fill="#000000" font-family="sans-serif" font-size="13" lengthAdjust="spacing" textLength="42" x="863" y="117.17">avsl&#229;tt</text><text fill="#000000" font-family="sans-serif" font-size="13" lengthAdjust="spacing" textLength="37" x="863" y="132.4805">avvist</text></g><!--class Milepeltype--><g id="elem_Milepeltype"><rect fill="#F1F1F1" height="48" id="Milepeltype" rx="2.5" ry="2.5" style="stroke:#181818;stroke-width:0.5;" width="110" x="61" y="585.74"/><ellipse cx="76" cy="601.74" fill="#ADD1B2" rx="11" ry="11" style="stroke:#181818;stroke-width:1.0;"/><path d="M78.4731,607.8831 Q77.8921,608.1819 77.2529,608.3313 Q76.6138,608.4807 75.9082,608.4807 Q73.4014,608.4807 72.0815,606.8289 Q70.7617,605.177 70.7617,602.0559 Q70.7617,598.9265 72.0815,597.2747 Q73.4014,595.6228 75.9082,595.6228 Q76.6138,595.6228 77.2612,595.7722 Q77.9087,595.9216 78.4731,596.2205 L78.4731,598.9431 Q77.8423,598.3621 77.2488,598.0923 Q76.6553,597.8225 76.0244,597.8225 Q74.6797,597.8225 73.9949,598.8892 Q73.3101,599.9558 73.3101,602.0559 Q73.3101,604.1477 73.9949,605.2144 Q74.6797,606.281 76.0244,606.281 Q76.6553,606.281 77.2488,606.0112 Q77.8423,605.7415 78.4731,605.1604 Z " fill="#000000"/><text fill="#000000" font-family="sans-serif" font-size="14" lengthAdjust="spacing" textLength="78" x="90" y="607.031">Milepeltype</text><line style="stroke:#181818;stroke-width:0.5;" x1="62" x2="170" y1="617.74" y2="617.74"/><line style="stroke:#181818;stroke-width:0.5;" x1="62" x2="170" y1="625.74" y2="625.74"/></g><!--link Fase to Dokument--><g id="link_Fase_Dokument"><path codeLine="12" d="M451.98,96.95 C463.42,96.95 462.86,96.95 474.31,96.95 " fill="none" id="Fase-to-Dokument" style="stroke:#181818;stroke-width:1.0;"/><polygon fill="#181818" points="486.31,96.95,480.31,92.95,474.31,96.95,480.31,100.95,486.31,96.95" style="stroke:#181818;stroke-width:1.0;"/></g><!--link Fase to Milepel--><g id="link_Fase_Milepel"><path codeLine="13" d="M285.32,179.15 C266.64,201.89 245.84,227.22 225.39,252.13 " fill="none" id="Fase-Milepel" style="stroke:#181818;stroke-width:1.0;"/></g><!--link Fase to Fasekategori--><g id="link_Fase_Fasekategori"><path codeLine="14" d="M352,179.15 C352,231.76 352,298.26 352,341.28 " fill="none" id="Fase-Fasekategori" style="stroke:#181818;stroke-width:1.0;"/></g><!--link Fase to Vedtak--><g id="link_Fase_Vedtak"><path codeLine="15" d="M451.81,176.94 C457.52,180.48 463.27,183.83 469,186.9 C540.33,225.21 569.19,209.51 641,246.9 C691.48,273.19 743.54,311.55 780.69,341.22 " fill="none" id="Fase-Vedtak" style="stroke:#181818;stroke-width:1.0;"/></g><!--link Fase to FaseStatusEnum--><g id="link_Fase_FaseStatusEnum"><path codeLine="16" d="M413.19,178.82 C429.35,200.71 446.58,224.54 462,246.9 C482.36,276.42 504.14,310.26 521.07,337.1 " fill="none" id="Fase-FaseStatusEnum" style="stroke:#181818;stroke-width:1.0;"/></g><!--link Milepel to Milepeltype--><g id="link_Milepel_Milepeltype"><path codeLine="53" d="M116,525.98 C116,548.99 116,570.27 116,585.49 " fill="none" id="Milepel-Milepeltype" style="stroke:#181818;stroke-width:1.0;"/></g><!--SRC=[hLHBJiCm4Dtd55w3Ue48LKAY841820GRoi9f9f4RnuxiIQGAzJYSX8inYUrytBAZYtJyndxpClESdUJMibjkWNqbZ7wN1SMATofb5erGvOIAV8bL7A7KHgJ3-R1okLf8Q422ITcJ2py-NSOYnzQwCwz3l55jxN8TvCYhbBqF_mxBTTNMeB2dkl4nSHsJP52zkXXH3wn2nN6za1T0NsE-PoOd0Nf6OEZGi-HAyXBTwatbOAvDHktn01OQ3FOAbKPWg1kc2r-FfMnJMQYRlZLRLUgysfFqBP78JbWs0RopykSRXuWoo99aDmpB4rrTFUeSrkkWgg9L1oONqP08pi1MHdGWBOp9Ow2RD-VVIFq40eqzM8JwFlBFEOR8M9u73mru7nfgHSfosk60rdLx3krrQnIN1EWvB7eFaQqphILmvK031HYkB3ouGutkwUTYnXt1Piiq6398Ntz1IwXiCKQ3zVrRnUu7SoTrncLqwkyB4BeyMNveb9z1s1k645zV58WWesikvEdT3m9wyad2D9EJ3X5BobxEeE7RK8FZEbV5ndFZfXBTGjKn-GK0]--></g></svg>