<svg xmlns="http://www.w3.org/2000/svg" xmlns:xlink="http://www.w3.org/1999/xlink" contentStyleType="text/css" data-diagram-type="CLASS" height="1236px" preserveAspectRatio="none" style="width:2119px;height:1236px;background:#FFFFFF;" version="1.1" viewBox="0 0 2119 1236" width="2119px" zoomAndPan="magnify"><defs/><g><!--class ReferanseDokumentfil--><g id="elem_ReferanseDokumentfil"><rect codeLine="2" fill="#F1F1F1" height="80.9766" id="ReferanseDokumentfil" rx="2.5" ry="2.5" style="stroke:#181818;stroke-width:0.5;" width="182.6777" x="322.73" y="1148.68"/><ellipse cx="337.73" cy="1164.68" fill="#ADD1B2" rx="11" ry="11" style="stroke:#181818;stroke-width:1;"/><path d="M340.2031,1170.8231 Q339.6221,1171.1219 338.9829,1171.2713 Q338.3438,1171.4207 337.6382,1171.4207 Q335.1314,1171.4207 333.8115,1169.7689 Q332.4917,1168.117 332.4917,1164.9959 Q332.4917,1161.8665 333.8115,1160.2147 Q335.1314,1158.5628 337.6382,1158.5628 Q338.3438,1158.5628 338.9912,1158.7122 Q339.6387,1158.8616 340.2031,1159.1605 L340.2031,1161.8831 Q339.5723,1161.3021 338.9788,1161.0323 Q338.3853,1160.7625 337.7544,1160.7625 Q336.4097,1160.7625 335.7249,1161.8292 Q335.0401,1162.8958 335.0401,1164.9959 Q335.0401,1167.0877 335.7249,1168.1544 Q336.4097,1169.221 337.7544,1169.221 Q338.3853,1169.221 338.9788,1168.9512 Q339.5723,1168.6815 340.2031,1168.1004 Z " fill="#000000"/><text fill="#000000" font-family="sans-serif" font-size="14" lengthAdjust="spacing" textLength="150.6777" x="351.73" y="1169.971">ReferanseDokumentfil</text><line style="stroke:#181818;stroke-width:0.5;" x1="323.73" x2="504.4077" y1="1180.68" y2="1180.68"/><ellipse cx="333.73" cy="1194.4241" fill="#000000" rx="3" ry="3" style="stroke:#000000;stroke-width:1;"/><text fill="#000000" font-family="sans-serif" font-size="14" lengthAdjust="spacing" textLength="61.2842" x="342.73" y="1198.2152">id: string</text><ellipse cx="333.73" cy="1210.9124" fill="#000000" rx="3" ry="3" style="stroke:#000000;stroke-width:1;"/><text fill="#000000" font-family="sans-serif" font-size="14" lengthAdjust="spacing" textLength="66.8896" x="342.73" y="1214.7034">url: string</text><line style="stroke:#181818;stroke-width:0.5;" x1="323.73" x2="504.4077" y1="1221.6566" y2="1221.6566"/></g><!--class Dokument--><g id="elem_Dokument"><rect codeLine="3" fill="#F1F1F1" height="179.9063" id="Dokument" rx="2.5" ry="2.5" style="stroke:#181818;stroke-width:0.5;" width="333.0908" x="247.52" y="908.78"/><ellipse cx="374.4394" cy="924.78" fill="#ADD1B2" rx="11" ry="11" style="stroke:#181818;stroke-width:1;"/><path d="M376.9126,930.9231 Q376.3315,931.2219 375.6924,931.3713 Q375.0532,931.5207 374.3476,931.5207 Q371.8408,931.5207 370.521,929.8689 Q369.2012,928.217 369.2012,925.0959 Q369.2012,921.9665 370.521,920.3147 Q371.8408,918.6628 374.3476,918.6628 Q375.0532,918.6628 375.7007,918.8122 Q376.3481,918.9616 376.9126,919.2605 L376.9126,921.9831 Q376.2817,921.4021 375.6882,921.1323 Q375.0947,920.8625 374.4638,920.8625 Q373.1191,920.8625 372.4343,921.9292 Q371.7495,922.9958 371.7495,925.0959 Q371.7495,927.1877 372.4343,928.2544 Q373.1191,929.321 374.4638,929.321 Q375.0947,929.321 375.6882,929.0512 Q376.2817,928.7815 376.9126,928.2004 Z " fill="#000000"/><text fill="#000000" font-family="sans-serif" font-size="14" lengthAdjust="spacing" textLength="70.752" x="394.9394" y="930.071">Dokument</text><line style="stroke:#181818;stroke-width:0.5;" x1="248.52" x2="579.6108" y1="940.78" y2="940.78"/><ellipse cx="258.52" cy="954.5241" fill="#000000" rx="3" ry="3" style="stroke:#000000;stroke-width:1;"/><text fill="#000000" font-family="sans-serif" font-size="14" lengthAdjust="spacing" textLength="61.2842" x="267.52" y="958.3152">id: string</text><text fill="#000000" font-family="sans-serif" font-size="14" lengthAdjust="spacing" textLength="94.0215" x="267.52" y="974.8034">filnavn: string</text><text fill="#000000" font-family="sans-serif" font-size="14" lengthAdjust="spacing" textLength="207.0127" x="267.52" y="991.2917">dokumenttype: Dokumenttype</text><text fill="#000000" font-family="sans-serif" font-size="14" lengthAdjust="spacing" textLength="307.0908" x="267.52" y="1007.78">referanseDokumentfil: ReferanseDokumentfil</text><text fill="#000000" font-family="sans-serif" font-size="14" lengthAdjust="spacing" textLength="115.5752" x="267.52" y="1024.2683">mimetype: string</text><text fill="#000000" font-family="sans-serif" font-size="14" lengthAdjust="spacing" textLength="145.0313" x="267.52" y="1040.7566">dokumentsdato: date</text><text fill="#000000" font-family="sans-serif" font-size="14" lengthAdjust="spacing" textLength="113.7158" x="267.52" y="1057.2448">arkivnavn: string</text><text fill="#000000" font-family="sans-serif" font-size="14" lengthAdjust="spacing" textLength="137.1426" x="267.52" y="1073.7331">filstoerrelse: integer</text><line style="stroke:#181818;stroke-width:0.5;" x1="248.52" x2="579.6108" y1="1080.6863" y2="1080.6863"/></g><g id="elem_GMN4"><path d="M6,770.9 L6,796.2105 A0,0 0 0 0 6,796.2105 L124.22,796.2105 L286.96,908.31 L132.22,796.2105 L216.1284,796.2105 A0,0 0 0 0 216.1284,796.2105 L216.1284,780.9 L206.1284,770.9 L6,770.9 A0,0 0 0 0 6,770.9 " fill="#FEFFDD" style="stroke:#181818;stroke-width:0.5;"/><path d="M206.1284,770.9 L206.1284,780.9 L216.1284,780.9 L206.1284,770.9 " fill="#FEFFDD" style="stroke:#181818;stroke-width:0.5;"/><text fill="#000000" font-family="sans-serif" font-size="13" lengthAdjust="spacing" textLength="189.1284" x="12" y="788.4684">Hentet definisjon fra Fiks Plan</text></g><!--class Journalpost--><g id="elem_Journalpost"><rect codeLine="2" fill="#F1F1F1" height="295.3242" id="Journalpost" rx="2.5" ry="2.5" style="stroke:#181818;stroke-width:0.5;" width="321.2646" x="1279.43" y="363.01"/><ellipse cx="1397.0013" cy="379.01" fill="#ADD1B2" rx="11" ry="11" style="stroke:#181818;stroke-width:1;"/><path d="M1399.4744,385.1531 Q1398.8934,385.4519 1398.2542,385.6013 Q1397.6151,385.7507 1396.9095,385.7507 Q1394.4027,385.7507 1393.0828,384.0989 Q1391.763,382.447 1391.763,379.3259 Q1391.763,376.1965 1393.0828,374.5447 Q1394.4027,372.8928 1396.9095,372.8928 Q1397.6151,372.8928 1398.2625,373.0422 Q1398.91,373.1916 1399.4744,373.4905 L1399.4744,376.2131 Q1398.8436,375.6321 1398.2501,375.3623 Q1397.6566,375.0925 1397.0257,375.0925 Q1395.681,375.0925 1394.9962,376.1592 Q1394.3113,377.2258 1394.3113,379.3259 Q1394.3113,381.4177 1394.9962,382.4844 Q1395.681,383.551 1397.0257,383.551 Q1397.6566,383.551 1398.2501,383.2812 Q1398.8436,383.0115 1399.4744,382.4304 Z " fill="#000000"/><text fill="#000000" font-family="sans-serif" font-size="14" lengthAdjust="spacing" textLength="77.6221" x="1417.5013" y="384.301">Journalpost</text><line style="stroke:#181818;stroke-width:0.5;" x1="1280.43" x2="1599.6946" y1="395.01" y2="395.01"/><text fill="#000000" font-family="sans-serif" font-size="14" lengthAdjust="spacing" textLength="108.9648" x="1285.43" y="412.5452">systemId: string</text><text fill="#000000" font-family="sans-serif" font-size="14" lengthAdjust="spacing" textLength="144.5459" x="1285.43" y="429.0334">skjerming: Skjerming</text><text fill="#000000" font-family="sans-serif" font-size="14" lengthAdjust="spacing" textLength="142.2354" x="1285.43" y="445.5217">gradering: Gradering</text><text fill="#000000" font-family="sans-serif" font-size="14" lengthAdjust="spacing" textLength="309.2646" x="1285.43" y="462.01">dokumentbeskrivelse: Dokumentbeskrivelse[]</text><text fill="#000000" font-family="sans-serif" font-size="14" lengthAdjust="spacing" textLength="147.8066" x="1285.43" y="478.4983">registreringsId: string</text><text fill="#000000" font-family="sans-serif" font-size="14" lengthAdjust="spacing" textLength="80.0283" x="1285.43" y="494.9866">tittel: string</text><text fill="#000000" font-family="sans-serif" font-size="14" lengthAdjust="spacing" textLength="141.0869" x="1285.43" y="511.4748">offentligTittel: string</text><text fill="#000000" font-family="sans-serif" font-size="14" lengthAdjust="spacing" textLength="283.7188" x="1285.43" y="527.9631">korrespondansepart: Korrespondansepart</text><text fill="#000000" font-family="sans-serif" font-size="14" lengthAdjust="spacing" textLength="125.8223" x="1285.43" y="544.4514">journalaar: integer</text><text fill="#000000" font-family="sans-serif" font-size="14" lengthAdjust="spacing" textLength="215.667" x="1285.43" y="560.9397">journalsekvensnummer: integer</text><text fill="#000000" font-family="sans-serif" font-size="14" lengthAdjust="spacing" textLength="191.4609" x="1285.43" y="577.428">journalpostnummer: integer</text><text fill="#000000" font-family="sans-serif" font-size="14" lengthAdjust="spacing" textLength="222.332" x="1285.43" y="593.9163">journalposttype: Journalposttype</text><text fill="#000000" font-family="sans-serif" font-size="14" lengthAdjust="spacing" textLength="186.7715" x="1285.43" y="610.4045">journalstatus: Journalstatus</text><text fill="#000000" font-family="sans-serif" font-size="14" lengthAdjust="spacing" textLength="116.5596" x="1285.43" y="626.8928">journaldato: date</text><text fill="#000000" font-family="sans-serif" font-size="14" lengthAdjust="spacing" textLength="159.7422" x="1285.43" y="643.3811">dokumentetsDato: date</text><line style="stroke:#181818;stroke-width:0.5;" x1="1280.43" x2="1599.6946" y1="650.3342" y2="650.3342"/></g><!--class Journalposttype--><g id="elem_Journalposttype"><rect codeLine="23" fill="#F1F1F1" height="89.5977" id="Journalposttype" rx="2.5" ry="2.5" style="stroke:#181818;stroke-width:0.5;" width="183.5547" x="1710.29" y="738.76"/><ellipse cx="1745.4367" cy="759.0705" fill="#ADD1B2" rx="11" ry="11" style="stroke:#181818;stroke-width:1;"/><path d="M1747.9099,765.2136 Q1747.3288,765.5124 1746.6897,765.6619 Q1746.0505,765.8113 1745.3449,765.8113 Q1742.8381,765.8113 1741.5183,764.1594 Q1740.1984,762.5076 1740.1984,759.3865 Q1740.1984,756.2571 1741.5183,754.6052 Q1742.8381,752.9534 1745.3449,752.9534 Q1746.0505,752.9534 1746.698,753.1028 Q1747.3454,753.2522 1747.9099,753.551 L1747.9099,756.2737 Q1747.279,755.6926 1746.6855,755.4228 Q1746.092,755.1531 1745.4611,755.1531 Q1744.1164,755.1531 1743.4316,756.2197 Q1742.7468,757.2864 1742.7468,759.3865 Q1742.7468,761.4783 1743.4316,762.5449 Q1744.1164,763.6116 1745.4611,763.6116 Q1746.092,763.6116 1746.6855,763.3418 Q1747.279,763.072 1747.9099,762.491 Z " fill="#000000"/><text fill="#000000" font-family="sans-serif" font-size="12" font-style="italic" lengthAdjust="spacing" textLength="42.0176" x="1796.2971" y="755.3616">&#171;Kode&#187;</text><text fill="#000000" font-family="sans-serif" font-size="14" lengthAdjust="spacing" textLength="106.7842" x="1763.9138" y="771.428">Journalposttype</text><line style="stroke:#181818;stroke-width:0.5;" x1="1711.29" x2="1892.8447" y1="779.3811" y2="779.3811"/><ellipse cx="1721.29" cy="793.1252" fill="#000000" rx="3" ry="3" style="stroke:#000000;stroke-width:1;"/><text fill="#000000" font-family="sans-serif" font-size="14" lengthAdjust="spacing" textLength="115.4521" x="1730.29" y="796.9163">kodeverdi: string</text><text fill="#000000" font-family="sans-serif" font-size="14" lengthAdjust="spacing" textLength="157.5547" x="1730.29" y="813.4045">kodebeskrivelse: string</text><line style="stroke:#181818;stroke-width:0.5;" x1="1711.29" x2="1892.8447" y1="820.3577" y2="820.3577"/></g><!--class Journalstatus--><g id="elem_Journalstatus"><rect codeLine="28" fill="#F1F1F1" height="89.5977" id="Journalstatus" rx="2.5" ry="2.5" style="stroke:#181818;stroke-width:0.5;" width="183.5547" x="1929.29" y="738.76"/><ellipse cx="1972.4379" cy="759.0705" fill="#ADD1B2" rx="11" ry="11" style="stroke:#181818;stroke-width:1;"/><path d="M1974.911,765.2136 Q1974.3299,765.5124 1973.6908,765.6619 Q1973.0516,765.8113 1972.3461,765.8113 Q1969.8392,765.8113 1968.5194,764.1594 Q1967.1996,762.5076 1967.1996,759.3865 Q1967.1996,756.2571 1968.5194,754.6052 Q1969.8392,752.9534 1972.3461,752.9534 Q1973.0516,752.9534 1973.6991,753.1028 Q1974.3465,753.2522 1974.911,753.551 L1974.911,756.2737 Q1974.2801,755.6926 1973.6866,755.4228 Q1973.0931,755.1531 1972.4623,755.1531 Q1971.1175,755.1531 1970.4327,756.2197 Q1969.7479,757.2864 1969.7479,759.3865 Q1969.7479,761.4783 1970.4327,762.5449 Q1971.1175,763.6116 1972.4623,763.6116 Q1973.0931,763.6116 1973.6866,763.3418 Q1974.2801,763.072 1974.911,762.491 Z " fill="#000000"/><text fill="#000000" font-family="sans-serif" font-size="12" font-style="italic" lengthAdjust="spacing" textLength="42.0176" x="2016.1861" y="755.3616">&#171;Kode&#187;</text><text fill="#000000" font-family="sans-serif" font-size="14" lengthAdjust="spacing" textLength="89.0039" x="1992.6929" y="771.428">Journalstatus</text><line style="stroke:#181818;stroke-width:0.5;" x1="1930.29" x2="2111.8447" y1="779.3811" y2="779.3811"/><ellipse cx="1940.29" cy="793.1252" fill="#000000" rx="3" ry="3" style="stroke:#000000;stroke-width:1;"/><text fill="#000000" font-family="sans-serif" font-size="14" lengthAdjust="spacing" textLength="115.4521" x="1949.29" y="796.9163">kodeverdi: string</text><text fill="#000000" font-family="sans-serif" font-size="14" lengthAdjust="spacing" textLength="157.5547" x="1949.29" y="813.4045">kodebeskrivelse: string</text><line style="stroke:#181818;stroke-width:0.5;" x1="1930.29" x2="2111.8447" y1="820.3577" y2="820.3577"/></g><!--class Skjerming--><g id="elem_Skjerming"><rect codeLine="2" fill="#F1F1F1" height="113.9531" id="Skjerming" rx="2.5" ry="2.5" style="stroke:#181818;stroke-width:0.5;" width="292.2529" x="1154.94" y="726.58"/><ellipse cx="1262.794" cy="742.58" fill="#ADD1B2" rx="11" ry="11" style="stroke:#181818;stroke-width:1;"/><path d="M1265.2671,748.7231 Q1264.6861,749.0219 1264.0469,749.1713 Q1263.4078,749.3207 1262.7022,749.3207 Q1260.1954,749.3207 1258.8755,747.6689 Q1257.5557,746.017 1257.5557,742.8959 Q1257.5557,739.7665 1258.8755,738.1147 Q1260.1954,736.4628 1262.7022,736.4628 Q1263.4078,736.4628 1264.0552,736.6122 Q1264.7027,736.7616 1265.2671,737.0605 L1265.2671,739.7831 Q1264.6363,739.2021 1264.0428,738.9323 Q1263.4493,738.6625 1262.8184,738.6625 Q1261.4737,738.6625 1260.7889,739.7292 Q1260.1041,740.7958 1260.1041,742.8959 Q1260.1041,744.9877 1260.7889,746.0544 Q1261.4737,747.121 1262.8184,747.121 Q1263.4493,747.121 1264.0428,746.8512 Q1264.6363,746.5815 1265.2671,746.0004 Z " fill="#000000"/><text fill="#000000" font-family="sans-serif" font-size="14" lengthAdjust="spacing" textLength="68.0449" x="1283.294" y="747.871">Skjerming</text><line style="stroke:#181818;stroke-width:0.5;" x1="1155.94" x2="1446.1929" y1="758.58" y2="758.58"/><ellipse cx="1165.94" cy="772.3241" fill="#000000" rx="3" ry="3" style="stroke:#000000;stroke-width:1;"/><text fill="#000000" font-family="sans-serif" font-size="14" lengthAdjust="spacing" textLength="266.2529" x="1174.94" y="776.1152">tilgangsrestriksjon: Tilgangsrestriksjon</text><ellipse cx="1165.94" cy="788.8124" fill="#000000" rx="3" ry="3" style="stroke:#000000;stroke-width:1;"/><text fill="#000000" font-family="sans-serif" font-size="14" lengthAdjust="spacing" textLength="181.9385" x="1174.94" y="792.6034">skjermingshjemmel: string</text><text fill="#000000" font-family="sans-serif" font-size="14" lengthAdjust="spacing" textLength="210.9775" x="1174.94" y="809.0917">skjermingOpphoererDato: date</text><text fill="#000000" font-family="sans-serif" font-size="14" lengthAdjust="spacing" textLength="225.4492" x="1174.94" y="825.58">skjermingOpphoererAksjon: date</text><line style="stroke:#181818;stroke-width:0.5;" x1="1155.94" x2="1446.1929" y1="832.5331" y2="832.5331"/></g><!--class Tilgangsrestriksjon--><g id="elem_Tilgangsrestriksjon"><rect codeLine="11" fill="#F1F1F1" height="89.5977" id="Tilgangsrestriksjon" rx="2.5" ry="2.5" style="stroke:#181818;stroke-width:0.5;" width="183.5547" x="1209.29" y="953.93"/><ellipse cx="1233.7624" cy="974.2405" fill="#ADD1B2" rx="11" ry="11" style="stroke:#181818;stroke-width:1;"/><path d="M1236.2356,980.3836 Q1235.6545,980.6824 1235.0153,980.8319 Q1234.3762,980.9813 1233.6706,980.9813 Q1231.1638,980.9813 1229.844,979.3294 Q1228.5241,977.6776 1228.5241,974.5565 Q1228.5241,971.4271 1229.844,969.7752 Q1231.1638,968.1234 1233.6706,968.1234 Q1234.3762,968.1234 1235.0236,968.2728 Q1235.6711,968.4222 1236.2356,968.721 L1236.2356,971.4437 Q1235.6047,970.8626 1235.0112,970.5928 Q1234.4177,970.3231 1233.7868,970.3231 Q1232.4421,970.3231 1231.7573,971.3897 Q1231.0725,972.4564 1231.0725,974.5565 Q1231.0725,976.6483 1231.7573,977.7149 Q1232.4421,978.7816 1233.7868,978.7816 Q1234.4177,978.7816 1235.0112,978.5118 Q1235.6047,978.242 1236.2356,977.661 Z " fill="#000000"/><text fill="#000000" font-family="sans-serif" font-size="12" font-style="italic" lengthAdjust="spacing" textLength="42.0176" x="1294.111" y="970.5316">&#171;Kode&#187;</text><text fill="#000000" font-family="sans-serif" font-size="14" lengthAdjust="spacing" textLength="130.5049" x="1249.8674" y="986.598">Tilgangsrestriksjon</text><line style="stroke:#181818;stroke-width:0.5;" x1="1210.29" x2="1391.8447" y1="994.5511" y2="994.5511"/><ellipse cx="1220.29" cy="1008.2952" fill="#000000" rx="3" ry="3" style="stroke:#000000;stroke-width:1;"/><text fill="#000000" font-family="sans-serif" font-size="14" lengthAdjust="spacing" textLength="115.4521" x="1229.29" y="1012.0863">kodeverdi: string</text><text fill="#000000" font-family="sans-serif" font-size="14" lengthAdjust="spacing" textLength="157.5547" x="1229.29" y="1028.5745">kodebeskrivelse: string</text><line style="stroke:#181818;stroke-width:0.5;" x1="1210.29" x2="1391.8447" y1="1035.5277" y2="1035.5277"/></g><!--class Gradering--><g id="elem_Gradering"><rect codeLine="2" fill="#F1F1F1" height="130.4414" id="Gradering" rx="2.5" ry="2.5" style="stroke:#181818;stroke-width:0.5;" width="193.248" x="1482.44" y="718.34"/><ellipse cx="1541.1231" cy="734.34" fill="#ADD1B2" rx="11" ry="11" style="stroke:#181818;stroke-width:1;"/><path d="M1543.5963,740.4831 Q1543.0152,740.7819 1542.376,740.9313 Q1541.7369,741.0807 1541.0313,741.0807 Q1538.5245,741.0807 1537.2046,739.4289 Q1535.8848,737.777 1535.8848,734.6559 Q1535.8848,731.5265 1537.2046,729.8747 Q1538.5245,728.2228 1541.0313,728.2228 Q1541.7369,728.2228 1542.3843,728.3722 Q1543.0318,728.5216 1543.5963,728.8205 L1543.5963,731.5431 Q1542.9654,730.9621 1542.3719,730.6923 Q1541.7784,730.4225 1541.1475,730.4225 Q1539.8028,730.4225 1539.118,731.4892 Q1538.4332,732.5558 1538.4332,734.6559 Q1538.4332,736.7477 1539.118,737.8144 Q1539.8028,738.881 1541.1475,738.881 Q1541.7784,738.881 1542.3719,738.6112 Q1542.9654,738.3415 1543.5963,737.7604 Z " fill="#000000"/><text fill="#000000" font-family="sans-serif" font-size="14" lengthAdjust="spacing" textLength="67.3818" x="1561.6231" y="739.631">Gradering</text><line style="stroke:#181818;stroke-width:0.5;" x1="1483.44" x2="1674.688" y1="750.34" y2="750.34"/><ellipse cx="1493.44" cy="764.0841" fill="#000000" rx="3" ry="3" style="stroke:#000000;stroke-width:1;"/><text fill="#000000" font-family="sans-serif" font-size="14" lengthAdjust="spacing" textLength="72.249" x="1502.44" y="767.8752">grad: Grad</text><ellipse cx="1493.44" cy="780.5724" fill="#000000" rx="3" ry="3" style="stroke:#000000;stroke-width:1;"/><text fill="#000000" font-family="sans-serif" font-size="14" lengthAdjust="spacing" textLength="141.9482" x="1502.44" y="784.3634">graderingsdato: date</text><ellipse cx="1493.44" cy="797.0607" fill="#000000" rx="3" ry="3" style="stroke:#000000;stroke-width:1;"/><text fill="#000000" font-family="sans-serif" font-size="14" lengthAdjust="spacing" textLength="115.0967" x="1502.44" y="800.8517">gradertAv: string</text><text fill="#000000" font-family="sans-serif" font-size="14" lengthAdjust="spacing" textLength="167.248" x="1502.44" y="817.34">nedgraderingsdato: date</text><text fill="#000000" font-family="sans-serif" font-size="14" lengthAdjust="spacing" textLength="140.3965" x="1502.44" y="833.8283">nedgradertAv: string</text><line style="stroke:#181818;stroke-width:0.5;" x1="1483.44" x2="1674.688" y1="840.7814" y2="840.7814"/></g><!--class Grad--><g id="elem_Grad"><rect codeLine="12" fill="#F1F1F1" height="89.5977" id="Grad" rx="2.5" ry="2.5" style="stroke:#181818;stroke-width:0.5;" width="183.5547" x="1487.29" y="953.93"/><ellipse cx="1555.8086" cy="974.2405" fill="#ADD1B2" rx="11" ry="11" style="stroke:#181818;stroke-width:1;"/><path d="M1558.2817,980.3836 Q1557.7006,980.6824 1557.0615,980.8319 Q1556.4223,980.9813 1555.7168,980.9813 Q1553.2099,980.9813 1551.8901,979.3294 Q1550.5703,977.6776 1550.5703,974.5565 Q1550.5703,971.4271 1551.8901,969.7752 Q1553.2099,968.1234 1555.7168,968.1234 Q1556.4223,968.1234 1557.0698,968.2728 Q1557.7172,968.4222 1558.2817,968.721 L1558.2817,971.4437 Q1557.6508,970.8626 1557.0573,970.5928 Q1556.4638,970.3231 1555.833,970.3231 Q1554.4882,970.3231 1553.8034,971.3897 Q1553.1186,972.4564 1553.1186,974.5565 Q1553.1186,976.6483 1553.8034,977.7149 Q1554.4882,978.7816 1555.833,978.7816 Q1556.4638,978.7816 1557.0573,978.5118 Q1557.6508,978.242 1558.2817,977.661 Z " fill="#000000"/><text fill="#000000" font-family="sans-serif" font-size="12" font-style="italic" lengthAdjust="spacing" textLength="42.0176" x="1574.3086" y="970.5316">&#171;Kode&#187;</text><text fill="#000000" font-family="sans-serif" font-size="14" lengthAdjust="spacing" textLength="32.3887" x="1579.123" y="986.598">Grad</text><line style="stroke:#181818;stroke-width:0.5;" x1="1488.29" x2="1669.8447" y1="994.5511" y2="994.5511"/><ellipse cx="1498.29" cy="1008.2952" fill="#000000" rx="3" ry="3" style="stroke:#000000;stroke-width:1;"/><text fill="#000000" font-family="sans-serif" font-size="14" lengthAdjust="spacing" textLength="115.4521" x="1507.29" y="1012.0863">kodeverdi: string</text><text fill="#000000" font-family="sans-serif" font-size="14" lengthAdjust="spacing" textLength="157.5547" x="1507.29" y="1028.5745">kodebeskrivelse: string</text><line style="stroke:#181818;stroke-width:0.5;" x1="1488.29" x2="1669.8447" y1="1035.5277" y2="1035.5277"/></g><!--class Dokumentbeskrivelse--><g id="elem_Dokumentbeskrivelse"><rect codeLine="3" fill="#F1F1F1" height="113.9531" id="Dokumentbeskrivelse" rx="2.5" ry="2.5" style="stroke:#181818;stroke-width:0.5;" width="219.0127" x="900.56" y="726.58"/><ellipse cx="933.7964" cy="742.58" fill="#ADD1B2" rx="11" ry="11" style="stroke:#181818;stroke-width:1;"/><path d="M936.2696,748.7231 Q935.6885,749.0219 935.0494,749.1713 Q934.4102,749.3207 933.7046,749.3207 Q931.1978,749.3207 929.878,747.6689 Q928.5581,746.017 928.5581,742.8959 Q928.5581,739.7665 929.878,738.1147 Q931.1978,736.4628 933.7046,736.4628 Q934.4102,736.4628 935.0577,736.6122 Q935.7051,736.7616 936.2696,737.0605 L936.2696,739.7831 Q935.6387,739.2021 935.0452,738.9323 Q934.4517,738.6625 933.8208,738.6625 Q932.4761,738.6625 931.7913,739.7292 Q931.1065,740.7958 931.1065,742.8959 Q931.1065,744.9877 931.7913,746.0544 Q932.4761,747.121 933.8208,747.121 Q934.4517,747.121 935.0452,746.8512 Q935.6387,746.5815 936.2696,746.0004 Z " fill="#000000"/><text fill="#000000" font-family="sans-serif" font-size="14" lengthAdjust="spacing" textLength="146.4873" x="951.849" y="747.871">Dokumentbeskrivelse</text><line style="stroke:#181818;stroke-width:0.5;" x1="901.56" x2="1118.5727" y1="758.58" y2="758.58"/><text fill="#000000" font-family="sans-serif" font-size="14" lengthAdjust="spacing" textLength="108.9648" x="906.56" y="776.1152">systemId: string</text><text fill="#000000" font-family="sans-serif" font-size="14" lengthAdjust="spacing" textLength="80.0283" x="906.56" y="792.6034">tittel: string</text><text fill="#000000" font-family="sans-serif" font-size="14" lengthAdjust="spacing" textLength="207.0127" x="906.56" y="809.0917">dokumenttype: Dokumenttype</text><text fill="#000000" font-family="sans-serif" font-size="14" lengthAdjust="spacing" textLength="191.5771" x="906.56" y="825.58">dokumentobjekt: Dokument</text><line style="stroke:#181818;stroke-width:0.5;" x1="901.56" x2="1118.5727" y1="832.5331" y2="832.5331"/></g><!--class Dokumenttype--><g id="elem_Dokumenttype"><rect codeLine="13" fill="#F1F1F1" height="89.5977" id="Dokumenttype" rx="2.5" ry="2.5" style="stroke:#181818;stroke-width:0.5;" width="183.5547" x="918.29" y="953.93"/><ellipse cx="956.5283" cy="974.2405" fill="#ADD1B2" rx="11" ry="11" style="stroke:#181818;stroke-width:1;"/><path d="M959.0014,980.3836 Q958.4204,980.6824 957.7812,980.8319 Q957.1421,980.9813 956.4365,980.9813 Q953.9296,980.9813 952.6098,979.3294 Q951.29,977.6776 951.29,974.5565 Q951.29,971.4271 952.6098,969.7752 Q953.9296,968.1234 956.4365,968.1234 Q957.1421,968.1234 957.7895,968.2728 Q958.437,968.4222 959.0014,968.721 L959.0014,971.4437 Q958.3706,970.8626 957.7771,970.5928 Q957.1836,970.3231 956.5527,970.3231 Q955.208,970.3231 954.5232,971.3897 Q953.8383,972.4564 953.8383,974.5565 Q953.8383,976.6483 954.5232,977.7149 Q955.208,978.7816 956.5527,978.7816 Q957.1836,978.7816 957.7771,978.5118 Q958.3706,978.242 959.0014,977.661 Z " fill="#000000"/><text fill="#000000" font-family="sans-serif" font-size="12" font-style="italic" lengthAdjust="spacing" textLength="42.0176" x="1004.6406" y="970.5316">&#171;Kode&#187;</text><text fill="#000000" font-family="sans-serif" font-size="14" lengthAdjust="spacing" textLength="99.9141" x="975.6923" y="986.598">Dokumenttype</text><line style="stroke:#181818;stroke-width:0.5;" x1="919.29" x2="1100.8447" y1="994.5511" y2="994.5511"/><ellipse cx="929.29" cy="1008.2952" fill="#000000" rx="3" ry="3" style="stroke:#000000;stroke-width:1;"/><text fill="#000000" font-family="sans-serif" font-size="14" lengthAdjust="spacing" textLength="115.4521" x="938.29" y="1012.0863">kodeverdi: string</text><text fill="#000000" font-family="sans-serif" font-size="14" lengthAdjust="spacing" textLength="157.5547" x="938.29" y="1028.5745">kodebeskrivelse: string</text><line style="stroke:#181818;stroke-width:0.5;" x1="919.29" x2="1100.8447" y1="1035.5277" y2="1035.5277"/></g><!--class Fase--><g id="elem_Fase"><rect codeLine="7" fill="#F1F1F1" height="196.3945" id="Fase" rx="2.5" ry="2.5" style="stroke:#181818;stroke-width:0.5;" width="199.1133" x="587.51" y="106.62"/><ellipse cx="667.7297" cy="122.62" fill="#ADD1B2" rx="11" ry="11" style="stroke:#181818;stroke-width:1;"/><path d="M670.2029,128.7631 Q669.6218,129.0619 668.9827,129.2113 Q668.3435,129.3607 667.6379,129.3607 Q665.1311,129.3607 663.8113,127.7089 Q662.4914,126.057 662.4914,122.9359 Q662.4914,119.8065 663.8113,118.1547 Q665.1311,116.5028 667.6379,116.5028 Q668.3435,116.5028 668.991,116.6522 Q669.6384,116.8016 670.2029,117.1005 L670.2029,119.8231 Q669.572,119.2421 668.9785,118.9723 Q668.385,118.7025 667.7541,118.7025 Q666.4094,118.7025 665.7246,119.7692 Q665.0398,120.8358 665.0398,122.9359 Q665.0398,125.0277 665.7246,126.0944 Q666.4094,127.161 667.7541,127.161 Q668.385,127.161 668.9785,126.8912 Q669.572,126.6215 670.2029,126.0404 Z " fill="#000000"/><text fill="#000000" font-family="sans-serif" font-size="14" lengthAdjust="spacing" textLength="30.1738" x="688.2297" y="127.911">Fase</text><line style="stroke:#181818;stroke-width:0.5;" x1="588.51" x2="785.6233" y1="138.62" y2="138.62"/><ellipse cx="598.51" cy="152.3641" fill="#000000" rx="3" ry="3" style="stroke:#000000;stroke-width:1;"/><text fill="#000000" font-family="sans-serif" font-size="14" lengthAdjust="spacing" textLength="89.0859" x="607.51" y="156.1552">faseId: string</text><ellipse cx="598.51" cy="168.8524" fill="#000000" rx="3" ry="3" style="stroke:#000000;stroke-width:1;"/><text fill="#000000" font-family="sans-serif" font-size="14" lengthAdjust="spacing" textLength="108.5957" x="607.51" y="172.6434">fasenavn: string</text><ellipse cx="598.51" cy="185.3407" fill="#000000" rx="3" ry="3" style="stroke:#000000;stroke-width:1;"/><text fill="#000000" font-family="sans-serif" font-size="14" lengthAdjust="spacing" textLength="151.1426" x="607.51" y="189.1317">kategori: Fasekategori</text><ellipse cx="598.51" cy="201.829" fill="#000000" rx="3" ry="3" style="stroke:#000000;stroke-width:1;"/><text fill="#000000" font-family="sans-serif" font-size="14" lengthAdjust="spacing" textLength="159.8037" x="607.51" y="205.62">status: FaseStatusEnum</text><text fill="#000000" font-family="sans-serif" font-size="14" lengthAdjust="spacing" textLength="101.5615" x="607.51" y="222.1083">startDato: date</text><text fill="#000000" font-family="sans-serif" font-size="14" lengthAdjust="spacing" textLength="100.8369" x="607.51" y="238.5966">sluttDato: date</text><text fill="#000000" font-family="sans-serif" font-size="14" lengthAdjust="spacing" textLength="129.7256" x="607.51" y="255.0848">milepeler: Milepel[]</text><text fill="#000000" font-family="sans-serif" font-size="14" lengthAdjust="spacing" textLength="100.7822" x="607.51" y="271.5731">vedtak: Vedtak</text><text fill="#000000" font-family="sans-serif" font-size="14" lengthAdjust="spacing" textLength="173.1133" x="607.51" y="288.0614">journalpost: Journalpost[]</text><line style="stroke:#181818;stroke-width:0.5;" x1="588.51" x2="785.6233" y1="295.0145" y2="295.0145"/></g><g id="elem_GMN28"><path d="M412.38,6 L412.38,46.6211 A0,0 0 0 0 412.38,46.6211 L683.06,46.6211 L687.06,106.49 L691.06,46.6211 L961.7462,46.6211 A0,0 0 0 0 961.7462,46.6211 L961.7462,16 L951.7462,6 L412.38,6 A0,0 0 0 0 412.38,6 " fill="#FEFFDD" style="stroke:#181818;stroke-width:0.5;"/><path d="M951.7462,6 L951.7462,16 L961.7462,16 L951.7462,6 " fill="#FEFFDD" style="stroke:#181818;stroke-width:0.5;"/><text fill="#000000" font-family="sans-serif" font-size="13" lengthAdjust="spacing" textLength="371.7822" x="418.38" y="23.5684">En fase er i hovedsak det som hender mellom to milepeler.</text><text fill="#000000" font-family="sans-serif" font-size="13" lengthAdjust="spacing" textLength="528.3662" x="418.38" y="38.8789">Interne faser sendes ikke ut ved denne protokollen. Vi kutter derfor ut Global flagg.</text></g><!--class Vedtak--><g id="elem_Vedtak"><rect codeLine="44" fill="#F1F1F1" height="89.5977" id="Vedtak" rx="2.5" ry="2.5" style="stroke:#181818;stroke-width:0.5;" width="183.5547" x="298.29" y="465.87"/><ellipse cx="362.3598" cy="486.1805" fill="#ADD1B2" rx="11" ry="11" style="stroke:#181818;stroke-width:1;"/><path d="M364.833,492.3236 Q364.2519,492.6224 363.6128,492.7719 Q362.9736,492.9213 362.268,492.9213 Q359.7612,492.9213 358.4414,491.2694 Q357.1215,489.6176 357.1215,486.4965 Q357.1215,483.3671 358.4414,481.7152 Q359.7612,480.0634 362.268,480.0634 Q362.9736,480.0634 363.6211,480.2128 Q364.2685,480.3622 364.833,480.661 L364.833,483.3837 Q364.2021,482.8026 363.6086,482.5328 Q363.0151,482.2631 362.3842,482.2631 Q361.0395,482.2631 360.3547,483.3297 Q359.6699,484.3964 359.6699,486.4965 Q359.6699,488.5883 360.3547,489.6549 Q361.0395,490.7216 362.3842,490.7216 Q363.0151,490.7216 363.6086,490.4518 Q364.2021,490.182 364.833,489.601 Z " fill="#000000"/><text fill="#000000" font-family="sans-serif" font-size="12" font-style="italic" lengthAdjust="spacing" textLength="42.0176" x="385.3086" y="482.4716">&#171;Kode&#187;</text><text fill="#000000" font-family="sans-serif" font-size="14" lengthAdjust="spacing" textLength="46.915" x="382.8598" y="498.538">Vedtak</text><line style="stroke:#181818;stroke-width:0.5;" x1="299.29" x2="480.8447" y1="506.4911" y2="506.4911"/><ellipse cx="309.29" cy="520.2352" fill="#000000" rx="3" ry="3" style="stroke:#000000;stroke-width:1;"/><text fill="#000000" font-family="sans-serif" font-size="14" lengthAdjust="spacing" textLength="115.4521" x="318.29" y="524.0263">kodeverdi: string</text><text fill="#000000" font-family="sans-serif" font-size="14" lengthAdjust="spacing" textLength="157.5547" x="318.29" y="540.5145">kodebeskrivelse: string</text><line style="stroke:#181818;stroke-width:0.5;" x1="299.29" x2="480.8447" y1="547.4677" y2="547.4677"/></g><!--class FaseStatusEnum--><g id="elem_FaseStatusEnum"><rect codeLine="36" fill="#F1F1F1" height="97.4648" id="FaseStatusEnum" rx="2.5" ry="2.5" style="stroke:#181818;stroke-width:0.5;" width="141.7783" x="517.18" y="461.94"/><ellipse cx="532.18" cy="477.94" fill="#EB937F" rx="11" ry="11" style="stroke:#181818;stroke-width:1;"/><path d="M535.7943,484.44 L528.0745,484.44 L528.0745,472.0469 L535.7943,472.0469 L535.7943,474.2051 L530.5233,474.2051 L530.5233,476.878 L535.2962,476.878 L535.2962,479.0362 L530.5233,479.0362 L530.5233,482.2818 L535.7943,482.2818 Z " fill="#000000"/><text fill="#000000" font-family="sans-serif" font-size="14" lengthAdjust="spacing" textLength="109.7783" x="546.18" y="483.231">FaseStatusEnum</text><line style="stroke:#181818;stroke-width:0.5;" x1="518.18" x2="657.9583" y1="493.94" y2="493.94"/><ellipse cx="528.18" cy="507.6841" fill="#FFFFFF" fill-opacity="0.00000" rx="3" ry="3" style="stroke:#038048;stroke-width:1;"/><text fill="#000000" font-family="sans-serif" font-size="14" lengthAdjust="spacing" textLength="53.9492" x="537.18" y="511.4752">Planlagt</text><ellipse cx="528.18" cy="524.1724" fill="#FFFFFF" fill-opacity="0.00000" rx="3" ry="3" style="stroke:#038048;stroke-width:1;"/><text fill="#000000" font-family="sans-serif" font-size="14" lengthAdjust="spacing" textLength="85.5859" x="537.18" y="527.9634">UnderArbeid</text><ellipse cx="528.18" cy="540.6607" fill="#FFFFFF" fill-opacity="0.00000" rx="3" ry="3" style="stroke:#038048;stroke-width:1;"/><text fill="#000000" font-family="sans-serif" font-size="14" lengthAdjust="spacing" textLength="47.4482" x="537.18" y="544.4517">Utfoert</text><line style="stroke:#181818;stroke-width:0.5;" x1="518.18" x2="657.9583" y1="551.4048" y2="551.4048"/></g><!--class Fasekategori--><g id="elem_Fasekategori"><rect codeLine="49" fill="#F1F1F1" height="89.5977" id="Fasekategori" rx="2.5" ry="2.5" style="stroke:#181818;stroke-width:0.5;" width="183.5547" x="694.29" y="465.87"/><ellipse cx="738.7031" cy="486.1805" fill="#ADD1B2" rx="11" ry="11" style="stroke:#181818;stroke-width:1;"/><path d="M741.1762,492.3236 Q740.5952,492.6224 739.956,492.7719 Q739.3169,492.9213 738.6113,492.9213 Q736.1045,492.9213 734.7846,491.2694 Q733.4648,489.6176 733.4648,486.4965 Q733.4648,483.3671 734.7846,481.7152 Q736.1045,480.0634 738.6113,480.0634 Q739.3169,480.0634 739.9643,480.2128 Q740.6118,480.3622 741.1762,480.661 L741.1762,483.3837 Q740.5454,482.8026 739.9519,482.5328 Q739.3584,482.2631 738.7275,482.2631 Q737.3828,482.2631 736.698,483.3297 Q736.0131,484.3964 736.0131,486.4965 Q736.0131,488.5883 736.698,489.6549 Q737.3828,490.7216 738.7275,490.7216 Q739.3584,490.7216 739.9519,490.4518 Q740.5454,490.182 741.1762,489.601 Z " fill="#000000"/><text fill="#000000" font-family="sans-serif" font-size="12" font-style="italic" lengthAdjust="spacing" textLength="42.0176" x="781.3086" y="482.4716">&#171;Kode&#187;</text><text fill="#000000" font-family="sans-serif" font-size="14" lengthAdjust="spacing" textLength="86.2285" x="759.2031" y="498.538">Fasekategori</text><line style="stroke:#181818;stroke-width:0.5;" x1="695.29" x2="876.8447" y1="506.4911" y2="506.4911"/><ellipse cx="705.29" cy="520.2352" fill="#000000" rx="3" ry="3" style="stroke:#000000;stroke-width:1;"/><text fill="#000000" font-family="sans-serif" font-size="14" lengthAdjust="spacing" textLength="115.4521" x="714.29" y="524.0263">kodeverdi: string</text><text fill="#000000" font-family="sans-serif" font-size="14" lengthAdjust="spacing" textLength="157.5547" x="714.29" y="540.5145">kodebeskrivelse: string</text><line style="stroke:#181818;stroke-width:0.5;" x1="695.29" x2="876.8447" y1="547.4677" y2="547.4677"/></g><g id="elem_GMN39"><path d="M331.36,161.54 L331.36,248.0927 A0,0 0 0 0 331.36,248.0927 L386.06,248.0927 L390.06,465.42 L394.06,248.0927 L448.7682,248.0927 A0,0 0 0 0 448.7682,248.0927 L448.7682,171.54 L438.7682,161.54 L331.36,161.54 A0,0 0 0 0 331.36,161.54 " fill="#FEFFDD" style="stroke:#181818;stroke-width:0.5;"/><path d="M438.7682,161.54 L438.7682,171.54 L448.7682,171.54 L438.7682,161.54 " fill="#FEFFDD" style="stroke:#181818;stroke-width:0.5;"/><text fill="#000000" font-family="sans-serif" font-size="13" lengthAdjust="spacing" textLength="69.2656" x="337.36" y="179.1084">Eksempler:</text><text fill="#000000" font-family="sans-serif" font-size="13" lengthAdjust="spacing" textLength="55.999" x="337.36" y="194.4189">godkjent</text><text fill="#000000" font-family="sans-serif" font-size="13" lengthAdjust="spacing" textLength="96.4082" x="337.36" y="209.7295">delvis godkjent</text><text fill="#000000" font-family="sans-serif" font-size="13" lengthAdjust="spacing" textLength="41.1963" x="337.36" y="225.04">avsl&#229;tt</text><text fill="#000000" font-family="sans-serif" font-size="13" lengthAdjust="spacing" textLength="35.8833" x="337.36" y="240.3505">avvist</text></g><g id="elem_GMN42"><path d="M250.76,724.97 L250.76,842.1438 L865.3674,842.1438 L865.3674,734.97 L855.3674,724.97 L250.76,724.97 " fill="#FEFFDD" style="stroke:#181818;stroke-width:0.5;"/><path d="M855.3674,724.97 L855.3674,734.97 L865.3674,734.97 L855.3674,724.97 " fill="#FEFFDD" style="stroke:#181818;stroke-width:1;"/><text fill="#000000" font-family="sans-serif" font-size="13" lengthAdjust="spacing" textLength="306.6616" x="256.76" y="742.5384">Se gjerne Byggesaksbehandling::Prosesskategori</text><text fill="#000000" font-family="sans-serif" font-size="13" lengthAdjust="spacing" textLength="45.1826" x="260.8733" y="757.8489">fra NPS</text><text fill="#000000" font-family="sans-serif" font-size="13" lengthAdjust="spacing" textLength="210.8501" x="256.76" y="773.1595">Vi m&#229; f&#229; avklart denne kodelisten</text><text fill="#000000" font-family="sans-serif" font-size="13" lengthAdjust="spacing" textLength="593.6074" x="256.76" y="788.47">Vi m&#229; ha en som er generell som betyr at det ikke er fastsatt hvis kategori skal v&#230;re required.</text><text fill="#000000" font-family="sans-serif" font-size="13" lengthAdjust="spacing" textLength="69.2656" x="256.76" y="803.7805">Eksempler:</text><text fill="#000000" font-family="sans-serif" font-size="13" lengthAdjust="spacing" textLength="34.7725" x="256.76" y="819.0911">Klage</text><text fill="#000000" font-family="sans-serif" font-size="13" lengthAdjust="spacing" textLength="42.7896" x="256.76" y="834.4016">H&#248;ring</text></g><!--link Dokument to ReferanseDokumentfil--><g id="link_Dokument_ReferanseDokumentfil"><path codeLine="16" d="M414.06,1088.98 C414.06,1109.91 414.06,1131.17 414.06,1148.61 " fill="#FFFFFF" fill-opacity="0.00000" id="Dokument-ReferanseDokumentfil" style="stroke:#181818;stroke-width:1;"/></g><!--link Journalpost to Journalposttype--><g id="link_Journalpost_Journalposttype"><path codeLine="20" d="M1600.95,632.06 C1651.56,669.93 1704.29,709.39 1743.05,738.4 " fill="#FFFFFF" fill-opacity="0.00000" id="Journalpost-Journalposttype" style="stroke:#181818;stroke-width:1;stroke-dasharray:7.0,7.0;"/></g><!--link Journalpost to Journalstatus--><g id="link_Journalpost_Journalstatus"><path codeLine="21" d="M1601.07,576.9 C1693.07,615.51 1809.91,666.83 1911.06,718.34 C1923.18,724.51 1935.83,731.42 1948.05,738.36 " fill="#FFFFFF" fill-opacity="0.00000" id="Journalpost-Journalstatus" style="stroke:#181818;stroke-width:1;stroke-dasharray:7.0,7.0;"/></g><!--link Skjerming to Tilgangsrestriksjon--><g id="link_Skjerming_Tilgangsrestriksjon"><path codeLine="9" d="M1301.06,840.84 C1301.06,876.12 1301.06,920.94 1301.06,953.63 " fill="#FFFFFF" fill-opacity="0.00000" id="Skjerming-Tilgangsrestriksjon" style="stroke:#181818;stroke-width:1;stroke-dasharray:7.0,7.0;"/></g><!--link Gradering to Grad--><g id="link_Gradering_Grad"><path codeLine="10" d="M1579.06,849.09 C1579.06,882.92 1579.06,923.47 1579.06,953.66 " fill="#FFFFFF" fill-opacity="0.00000" id="Gradering-Grad" style="stroke:#181818;stroke-width:1;stroke-dasharray:7.0,7.0;"/></g><!--link Dokumentbeskrivelse to Dokumenttype--><g id="link_Dokumentbeskrivelse_Dokumenttype"><path codeLine="10" d="M1010.06,840.84 C1010.06,876.12 1010.06,920.94 1010.06,953.63 " fill="#FFFFFF" fill-opacity="0.00000" id="Dokumentbeskrivelse-Dokumenttype" style="stroke:#181818;stroke-width:1;stroke-dasharray:7.0,7.0;"/></g><!--link Dokumentbeskrivelse to Dokument--><g id="link_Dokumentbeskrivelse_Dokument"><path codeLine="11" d="M901.48,840.88 C895.29,843.65 889.13,846.3 883.06,848.78 C784.9,888.88 671.67,925.11 581.06,951.8 " fill="#FFFFFF" fill-opacity="0.00000" id="Dokumentbeskrivelse-Dokument" style="stroke:#181818;stroke-width:1;stroke-dasharray:7.0,7.0;"/></g><!--link Fase to Journalpost--><g id="link_Fase_Journalpost"><path codeLine="19" d="M786.81,292.63 C792.51,296.33 798.28,299.83 804.06,303.01 C955.57,386.51 1146.16,442.82 1279.02,475.3 " fill="#FFFFFF" fill-opacity="0.00000" id="Fase-Journalpost" style="stroke:#181818;stroke-width:1;stroke-dasharray:7.0,7.0;"/></g><!--link Journalpost to Dokumentbeskrivelse--><g id="link_Journalpost_Dokumentbeskrivelse"><path codeLine="21" d="M1279.03,613.12 C1218.35,651.34 1151.54,693.43 1099.68,726.1 " fill="#FFFFFF" fill-opacity="0.00000" id="Journalpost-Dokumentbeskrivelse" style="stroke:#181818;stroke-width:1;stroke-dasharray:7.0,7.0;"/></g><!--link Journalpost to Gradering--><g id="link_Journalpost_Gradering"><path codeLine="22" d="M1515.46,658.61 C1526.12,679.38 1536.59,699.79 1545.87,717.86 " fill="#FFFFFF" fill-opacity="0.00000" id="Journalpost-Gradering" style="stroke:#181818;stroke-width:1;stroke-dasharray:7.0,7.0;"/></g><!--link Journalpost to Skjerming--><g id="link_Journalpost_Skjerming"><path codeLine="23" d="M1364.67,658.61 C1352.35,682.61 1340.28,706.13 1330.02,726.12 " fill="#FFFFFF" fill-opacity="0.00000" id="Journalpost-Skjerming" style="stroke:#181818;stroke-width:1;stroke-dasharray:7.0,7.0;"/></g><!--link Fase to Vedtak--><g id="link_Fase_Vedtak"><path codeLine="32" d="M587.21,282.6 C557.88,307.01 526.59,334.97 500.06,363.01 C469.77,395.04 440.06,435.34 419.17,465.58 " fill="#FFFFFF" fill-opacity="0.00000" id="Fase-Vedtak" style="stroke:#181818;stroke-width:1;stroke-dasharray:7.0,7.0;"/></g><!--link Fase to FaseStatusEnum--><g id="link_Fase_FaseStatusEnum"><path codeLine="33" d="M655.33,303.21 C638.08,356.16 617.51,419.29 603.7,461.68 " fill="#FFFFFF" fill-opacity="0.00000" id="Fase-FaseStatusEnum" style="stroke:#181818;stroke-width:1;stroke-dasharray:7.0,7.0;"/></g><!--link Fase to Fasekategori--><g id="link_Fase_Fasekategori"><path codeLine="34" d="M718.8,303.21 C736.56,357.72 757.83,423.02 771.63,465.38 " fill="#FFFFFF" fill-opacity="0.00000" id="Fase-Fasekategori" style="stroke:#181818;stroke-width:1;stroke-dasharray:7.0,7.0;"/></g><!--link Fasekategori to GMN42--><g id="link_Fasekategori_GMN42"><path d="M755.1,555.69 C733.73,585.37 704.21,625.03 676.06,658.34 C657.15,680.71 635.33,704.26 615.63,724.77 " fill="#FFFFFF" fill-opacity="0.00000" id="Fasekategori-GMN42" style="stroke:#181818;stroke-width:1;stroke-dasharray:7.0,7.0;"/></g><!--SRC=[fLDBRjim4Dth59DTsm0CkXM202toQHgq260acxeBAXp932dI9KS2WYB7IS_GlI_M8INPYhCgRC0sEP_7cNblZhHxi9r242T2d3WlJ1IrvfyeJQnbn23wZw96Qp4AvKtNegEJ1ojZL5esGRPYtHL7_uFowBlWf5txU21GD8yOMksQms0uIM4u66OQJeNH1DsZZVW6iCW6kEHK-5q0Vpuac6jLGgHKmixcPEzUMuqaR7pGPSwVReClagGk3fv5Fb-uhiq-TWKwb-HBK9mps6n7-xPMMroZnL32j-7uusTszAX8cXBkytyspIWiuUlkmXdFHP7R4sBkA8hP9VdEtqvhF-HgucNViPXuBmhd2O7y6dmzJBM42mTfVe01DAmyLyziWKA2w5jOeMDGQ9aplf7VjIsMxjeH1eSvFq1CeH6qCGWTfJ4mYcFtEdZonZFhJi2z1iF3v7Z6hNr8eLVMLz92RMNJYB78e9iLJMMMPNf2gppCoto4AdI6dvECYl0klnfbopFYOXKanJ6ZBORta5xPlAHM69Vzw0nQobLdmFEKmm5SK4hjDty2T-2qWO9RWbpEZgMHrkcwfw2vUIivXkdQlSXHpyUtLZhkcuRRNPhsfr1DlHxVKUqnK9B9dBkXYCIUYTYkamgNhl6AcNQqP13RwmWxW-oZtRnGFh67O5gj4UZqzCOhF3kRjipmhSUWzAkLIjQP0BU-v_cYJbqVZfaRhZmHAsyKmXQyX0L2yvZbz_cfQJ0HNk5AEcKvlInlWuyOuvImP9K72Tzl5ql74anqr_oLlR6yxgDGKosMfuDk6xIIIJ5f4rYn3Kijy2RaUuNq541INfKiFuvWJL6KHB1AyzzMosNOKLS1VtKweEBrcNDtmnh0fVko-PkwPth-0G00]--></g></svg>