<svg xmlns="http://www.w3.org/2000/svg" xmlns:xlink="http://www.w3.org/1999/xlink" contentStyleType="text/css" height="85px" preserveAspectRatio="none" style="width:156px;height:85px;background:#FFFFFF;" version="1.1" viewBox="0 0 156 85" width="156px" zoomAndPan="magnify"><defs/><g><!--class Fase--><g id="elem_Fase"><rect codeLine="1" fill="#F1F1F1" height="64.4883" id="Fase" rx="2.5" ry="2.5" style="stroke:#181818;stroke-width:0.5;" width="135" x="7" y="7"/><ellipse cx="54.75" cy="23" fill="#ADD1B2" rx="11" ry="11" style="stroke:#181818;stroke-width:1.0;"/><path d="M57.2231,29.1431 Q56.6421,29.4419 56.0029,29.5913 Q55.3638,29.7407 54.6582,29.7407 Q52.1514,29.7407 50.8315,28.0889 Q49.5117,26.437 49.5117,23.3159 Q49.5117,20.1865 50.8315,18.5347 Q52.1514,16.8828 54.6582,16.8828 Q55.3638,16.8828 56.0112,17.0322 Q56.6587,17.1816 57.2231,17.4805 L57.2231,20.2031 Q56.5923,19.6221 55.9988,19.3523 Q55.4053,19.0825 54.7744,19.0825 Q53.4297,19.0825 52.7449,20.1492 Q52.0601,21.2158 52.0601,23.3159 Q52.0601,25.4077 52.7449,26.4744 Q53.4297,27.541 54.7744,27.541 Q55.4053,27.541 55.9988,27.2712 Q56.5923,27.0015 57.2231,26.4204 Z " fill="#000000"/><text fill="#000000" font-family="sans-serif" font-size="14" lengthAdjust="spacing" textLength="31" x="75.25" y="28.291">Fase</text><line style="stroke:#181818;stroke-width:0.5;" x1="8" x2="141" y1="39" y2="39"/><ellipse cx="18" cy="52.7441" fill="none" rx="3" ry="3" style="stroke:#038048;stroke-width:1.0;"/><text fill="#000000" font-family="sans-serif" font-size="14" lengthAdjust="spacing" textLength="109" x="27" y="56.5352">fasenavn: string</text><line style="stroke:#181818;stroke-width:0.5;" x1="8" x2="141" y1="63.4883" y2="63.4883"/></g><!--SRC=[Iyv9B2vMS4iiJbMevb800kqq83iliIpFIg6uf2WpBvsh5W00]--></g></svg>