<svg xmlns="http://www.w3.org/2000/svg" xmlns:xlink="http://www.w3.org/1999/xlink" contentStyleType="text/css" data-diagram-type="CLASS" height="611px" preserveAspectRatio="none" style="width:1844px;height:611px;background:#FFFFFF;" version="1.1" viewBox="0 0 1844 611" width="1844px" zoomAndPan="magnify"><defs/><g><!--class ReferanseJournalpost--><g id="elem_ReferanseJournalpost"><rect codeLine="2" fill="#F1F1F1" height="130.4414" id="ReferanseJournalpost" rx="2.5" ry="2.5" style="stroke:#181818;stroke-width:0.5;" width="350.9736" x="1486.21" y="123.11"/><ellipse cx="1585.2935" cy="139.11" fill="#ADD1B2" rx="11" ry="11" style="stroke:#181818;stroke-width:1;"/><path d="M1587.7666,145.2531 Q1587.1856,145.5519 1586.5464,145.7013 Q1585.9073,145.8507 1585.2017,145.8507 Q1582.6949,145.8507 1581.375,144.1989 Q1580.0552,142.547 1580.0552,139.4259 Q1580.0552,136.2965 1581.375,134.6447 Q1582.6949,132.9928 1585.2017,132.9928 Q1585.9073,132.9928 1586.5547,133.1422 Q1587.2022,133.2916 1587.7666,133.5905 L1587.7666,136.3131 Q1587.1358,135.7321 1586.5423,135.4623 Q1585.9488,135.1925 1585.3179,135.1925 Q1583.9732,135.1925 1583.2884,136.2592 Q1582.6036,137.3258 1582.6036,139.4259 Q1582.6036,141.5177 1583.2884,142.5844 Q1583.9732,143.651 1585.3179,143.651 Q1585.9488,143.651 1586.5423,143.3812 Q1587.1358,143.1115 1587.7666,142.5304 Z " fill="#000000"/><text fill="#000000" font-family="sans-serif" font-size="14" lengthAdjust="spacing" textLength="144.3066" x="1605.7935" y="144.401">ReferanseJournalpost</text><line style="stroke:#181818;stroke-width:0.5;" x1="1487.21" x2="1836.1836" y1="155.11" y2="155.11"/><text fill="#000000" font-family="sans-serif" font-size="14" lengthAdjust="spacing" textLength="108.9648" x="1492.21" y="172.6452">systemId: string</text><text fill="#000000" font-family="sans-serif" font-size="14" lengthAdjust="spacing" textLength="149.4814" x="1492.21" y="189.1334">registreringsID: string</text><text fill="#000000" font-family="sans-serif" font-size="14" lengthAdjust="spacing" textLength="218.5313" x="1492.21" y="205.6217">journalnummer: Journalnummer</text><text fill="#000000" font-family="sans-serif" font-size="14" lengthAdjust="spacing" textLength="338.9736" x="1492.21" y="222.11">saksJournalpostnummer: SaksJournalpostnummer</text><text fill="#000000" font-family="sans-serif" font-size="14" lengthAdjust="spacing" textLength="283.0488" x="1492.21" y="238.5983">referanseEksternNoekkel: EksternNoekkel</text><line style="stroke:#181818;stroke-width:0.5;" x1="1487.21" x2="1836.1836" y1="245.5514" y2="245.5514"/></g><g id="elem_GMN3"><path d="M6,168.02 L6,208.6411 L375.3848,208.6411 L375.3848,178.02 L365.3848,168.02 L6,168.02 " fill="#FEFFDD" style="stroke:#181818;stroke-width:0.5;"/><path d="M365.3848,168.02 L365.3848,178.02 L375.3848,178.02 L365.3848,168.02 " fill="#FEFFDD" style="stroke:#181818;stroke-width:1;"/><text fill="#000000" font-family="sans-serif" font-size="13" lengthAdjust="spacing" textLength="175.8936" x="12" y="185.5884">Ingen av feltene er p&#229;krevd,</text><text fill="#000000" font-family="sans-serif" font-size="13" lengthAdjust="spacing" textLength="344.2715" x="16.1133" y="200.8989">men man kan velge hvilken identifikator man vil bruke</text></g><!--class Fase--><g id="elem_Fase"><rect codeLine="5" fill="#F1F1F1" height="163.418" id="Fase" rx="2.5" ry="2.5" style="stroke:#181818;stroke-width:0.5;" width="329.4541" x="561.97" y="106.62"/><ellipse cx="707.3601" cy="122.62" fill="#ADD1B2" rx="11" ry="11" style="stroke:#181818;stroke-width:1;"/><path d="M709.8333,128.7631 Q709.2522,129.0619 708.6131,129.2113 Q707.9739,129.3607 707.2683,129.3607 Q704.7615,129.3607 703.4417,127.7089 Q702.1219,126.057 702.1219,122.9359 Q702.1219,119.8065 703.4417,118.1547 Q704.7615,116.5028 707.2683,116.5028 Q707.9739,116.5028 708.6214,116.6522 Q709.2688,116.8016 709.8333,117.1005 L709.8333,119.8231 Q709.2024,119.2421 708.6089,118.9723 Q708.0154,118.7025 707.3846,118.7025 Q706.0398,118.7025 705.355,119.7692 Q704.6702,120.8358 704.6702,122.9359 Q704.6702,125.0277 705.355,126.0944 Q706.0398,127.161 707.3846,127.161 Q708.0154,127.161 708.6089,126.8912 Q709.2024,126.6215 709.8333,126.0404 Z " fill="#000000"/><text fill="#000000" font-family="sans-serif" font-size="14" lengthAdjust="spacing" textLength="30.1738" x="727.8601" y="127.911">Fase</text><line style="stroke:#181818;stroke-width:0.5;" x1="562.97" x2="890.4241" y1="138.62" y2="138.62"/><ellipse cx="572.97" cy="152.3641" fill="#000000" rx="3" ry="3" style="stroke:#000000;stroke-width:1;"/><text fill="#000000" font-family="sans-serif" font-size="14" lengthAdjust="spacing" textLength="89.0996" x="581.97" y="156.1552">faseid: string</text><ellipse cx="572.97" cy="168.8524" fill="#000000" rx="3" ry="3" style="stroke:#000000;stroke-width:1;"/><text fill="#000000" font-family="sans-serif" font-size="14" lengthAdjust="spacing" textLength="108.5957" x="581.97" y="172.6434">fasenavn: string</text><ellipse cx="572.97" cy="185.3407" fill="#000000" rx="3" ry="3" style="stroke:#000000;stroke-width:1;"/><text fill="#000000" font-family="sans-serif" font-size="14" lengthAdjust="spacing" textLength="151.1426" x="581.97" y="189.1317">kategori: Fasekategori</text><ellipse cx="572.97" cy="201.829" fill="#000000" rx="3" ry="3" style="stroke:#000000;stroke-width:1;"/><text fill="#000000" font-family="sans-serif" font-size="14" lengthAdjust="spacing" textLength="159.8037" x="581.97" y="205.62">status: FaseStatusEnum</text><text fill="#000000" font-family="sans-serif" font-size="14" lengthAdjust="spacing" textLength="129.7256" x="581.97" y="222.1083">milepeler: Milepel[]</text><text fill="#000000" font-family="sans-serif" font-size="14" lengthAdjust="spacing" textLength="100.7822" x="581.97" y="238.5966">vedtak: Vedtak</text><text fill="#000000" font-family="sans-serif" font-size="14" lengthAdjust="spacing" textLength="303.4541" x="581.97" y="255.0848">referanseJournalpost: ReferanseJournalpost[]</text><line style="stroke:#181818;stroke-width:0.5;" x1="562.97" x2="890.4241" y1="262.038" y2="262.038"/></g><g id="elem_GMN8"><path d="M452.01,6 L452.01,46.6211 A0,0 0 0 0 452.01,46.6211 L722.69,46.6211 L726.69,106.47 L730.69,46.6211 L1001.3762,46.6211 A0,0 0 0 0 1001.3762,46.6211 L1001.3762,16 L991.3762,6 L452.01,6 A0,0 0 0 0 452.01,6 " fill="#FEFFDD" style="stroke:#181818;stroke-width:0.5;"/><path d="M991.3762,6 L991.3762,16 L1001.3762,16 L991.3762,6 " fill="#FEFFDD" style="stroke:#181818;stroke-width:0.5;"/><text fill="#000000" font-family="sans-serif" font-size="13" lengthAdjust="spacing" textLength="371.7822" x="458.01" y="23.5684">En fase er i hovedsak det som hender mellom to milepeler.</text><text fill="#000000" font-family="sans-serif" font-size="13" lengthAdjust="spacing" textLength="528.3662" x="458.01" y="38.8789">Interne faser sendes ikke ut ved denne protokollen. Vi kutter derfor ut Global flagg.</text></g><path d="M926.64,163.02 L926.64,179.3305 L671.0696,150.8641 L926.64,187.3305 L926.64,203.6411 A0,0 0 0 0 926.64,203.6411 L1450.7489,203.6411 A0,0 0 0 0 1450.7489,203.6411 L1450.7489,173.02 L1440.7489,163.02 L926.64,163.02 A0,0 0 0 0 926.64,163.02 " fill="#FEFFDD" style="stroke:#181818;stroke-width:0.5;"/><path d="M1440.7489,163.02 L1440.7489,173.02 L1450.7489,173.02 L1440.7489,163.02 " fill="#FEFFDD" style="stroke:#181818;stroke-width:0.5;"/><text fill="#000000" font-family="sans-serif" font-size="13" lengthAdjust="spacing" textLength="503.1089" x="932.64" y="180.5884">Faseid brukes alene (ikke sammen med saksnummer) for &#229; hente en enkelt fase</text><text fill="#000000" font-family="sans-serif" font-size="13" lengthAdjust="spacing" textLength="166.9688" x="932.64" y="195.8989">Den m&#229; dermed v&#230;re unik</text><!--class Vedtak--><g id="elem_Vedtak"><rect codeLine="36" fill="#F1F1F1" height="89.5977" id="Vedtak" rx="2.5" ry="2.5" style="stroke:#181818;stroke-width:0.5;" width="183.5547" x="406.92" y="333.97"/><ellipse cx="470.9898" cy="354.2805" fill="#ADD1B2" rx="11" ry="11" style="stroke:#181818;stroke-width:1;"/><path d="M473.463,360.4236 Q472.8819,360.7224 472.2428,360.8719 Q471.6036,361.0213 470.898,361.0213 Q468.3912,361.0213 467.0714,359.3694 Q465.7515,357.7176 465.7515,354.5965 Q465.7515,351.4671 467.0714,349.8152 Q468.3912,348.1634 470.898,348.1634 Q471.6036,348.1634 472.2511,348.3128 Q472.8985,348.4622 473.463,348.761 L473.463,351.4837 Q472.8321,350.9026 472.2386,350.6328 Q471.6451,350.3631 471.0142,350.3631 Q469.6695,350.3631 468.9847,351.4297 Q468.2999,352.4964 468.2999,354.5965 Q468.2999,356.6883 468.9847,357.7549 Q469.6695,358.8216 471.0142,358.8216 Q471.6451,358.8216 472.2386,358.5518 Q472.8321,358.282 473.463,357.701 Z " fill="#000000"/><text fill="#000000" font-family="sans-serif" font-size="12" font-style="italic" lengthAdjust="spacing" textLength="42.0176" x="493.9386" y="350.5716">&#171;Kode&#187;</text><text fill="#000000" font-family="sans-serif" font-size="14" lengthAdjust="spacing" textLength="46.915" x="491.4898" y="366.638">Vedtak</text><line style="stroke:#181818;stroke-width:0.5;" x1="407.92" x2="589.4747" y1="374.5911" y2="374.5911"/><ellipse cx="417.92" cy="388.3352" fill="#000000" rx="3" ry="3" style="stroke:#000000;stroke-width:1;"/><text fill="#000000" font-family="sans-serif" font-size="14" lengthAdjust="spacing" textLength="115.4521" x="426.92" y="392.1262">kodeverdi: string</text><text fill="#000000" font-family="sans-serif" font-size="14" lengthAdjust="spacing" textLength="157.5547" x="426.92" y="408.6145">kodebeskrivelse: string</text><line style="stroke:#181818;stroke-width:0.5;" x1="407.92" x2="589.4747" y1="415.5677" y2="415.5677"/></g><!--class FaseStatusEnum--><g id="elem_FaseStatusEnum"><rect codeLine="28" fill="#F1F1F1" height="97.4648" id="FaseStatusEnum" rx="2.5" ry="2.5" style="stroke:#181818;stroke-width:0.5;" width="141.7783" x="640.8" y="330.04"/><ellipse cx="655.8" cy="346.04" fill="#EB937F" rx="11" ry="11" style="stroke:#181818;stroke-width:1;"/><path d="M659.4143,352.54 L651.6945,352.54 L651.6945,340.1469 L659.4143,340.1469 L659.4143,342.3051 L654.1433,342.3051 L654.1433,344.978 L658.9162,344.978 L658.9162,347.1362 L654.1433,347.1362 L654.1433,350.3818 L659.4143,350.3818 Z " fill="#000000"/><text fill="#000000" font-family="sans-serif" font-size="14" lengthAdjust="spacing" textLength="109.7783" x="669.8" y="351.331">FaseStatusEnum</text><line style="stroke:#181818;stroke-width:0.5;" x1="641.8" x2="781.5783" y1="362.04" y2="362.04"/><ellipse cx="651.8" cy="375.7841" fill="#FFFFFF" fill-opacity="0.00000" rx="3" ry="3" style="stroke:#038048;stroke-width:1;"/><text fill="#000000" font-family="sans-serif" font-size="14" lengthAdjust="spacing" textLength="53.9492" x="660.8" y="379.5752">Planlagt</text><ellipse cx="651.8" cy="392.2724" fill="#FFFFFF" fill-opacity="0.00000" rx="3" ry="3" style="stroke:#038048;stroke-width:1;"/><text fill="#000000" font-family="sans-serif" font-size="14" lengthAdjust="spacing" textLength="85.5859" x="660.8" y="396.0634">UnderArbeid</text><ellipse cx="651.8" cy="408.7607" fill="#FFFFFF" fill-opacity="0.00000" rx="3" ry="3" style="stroke:#038048;stroke-width:1;"/><text fill="#000000" font-family="sans-serif" font-size="14" lengthAdjust="spacing" textLength="47.4482" x="660.8" y="412.5517">Utfoert</text><line style="stroke:#181818;stroke-width:0.5;" x1="641.8" x2="781.5783" y1="419.5048" y2="419.5048"/></g><!--class Fasekategori--><g id="elem_Fasekategori"><rect codeLine="41" fill="#F1F1F1" height="89.5977" id="Fasekategori" rx="2.5" ry="2.5" style="stroke:#181818;stroke-width:0.5;" width="183.5547" x="817.92" y="333.97"/><ellipse cx="862.3331" cy="354.2805" fill="#ADD1B2" rx="11" ry="11" style="stroke:#181818;stroke-width:1;"/><path d="M864.8062,360.4236 Q864.2252,360.7224 863.586,360.8719 Q862.9469,361.0213 862.2413,361.0213 Q859.7345,361.0213 858.4146,359.3694 Q857.0948,357.7176 857.0948,354.5965 Q857.0948,351.4671 858.4146,349.8152 Q859.7345,348.1634 862.2413,348.1634 Q862.9469,348.1634 863.5943,348.3128 Q864.2418,348.4622 864.8062,348.761 L864.8062,351.4837 Q864.1754,350.9026 863.5819,350.6328 Q862.9884,350.3631 862.3575,350.3631 Q861.0128,350.3631 860.328,351.4297 Q859.6431,352.4964 859.6431,354.5965 Q859.6431,356.6883 860.328,357.7549 Q861.0128,358.8216 862.3575,358.8216 Q862.9884,358.8216 863.5819,358.5518 Q864.1754,358.282 864.8062,357.701 Z " fill="#000000"/><text fill="#000000" font-family="sans-serif" font-size="12" font-style="italic" lengthAdjust="spacing" textLength="42.0176" x="904.9386" y="350.5716">&#171;Kode&#187;</text><text fill="#000000" font-family="sans-serif" font-size="14" lengthAdjust="spacing" textLength="86.2285" x="882.8331" y="366.638">Fasekategori</text><line style="stroke:#181818;stroke-width:0.5;" x1="818.92" x2="1000.4747" y1="374.5911" y2="374.5911"/><ellipse cx="828.92" cy="388.3352" fill="#000000" rx="3" ry="3" style="stroke:#000000;stroke-width:1;"/><text fill="#000000" font-family="sans-serif" font-size="14" lengthAdjust="spacing" textLength="115.4521" x="837.92" y="392.1262">kodeverdi: string</text><text fill="#000000" font-family="sans-serif" font-size="14" lengthAdjust="spacing" textLength="157.5547" x="837.92" y="408.6145">kodebeskrivelse: string</text><line style="stroke:#181818;stroke-width:0.5;" x1="818.92" x2="1000.4747" y1="415.5677" y2="415.5677"/></g><g id="elem_GMN19"><path d="M409.99,145.06 L409.99,231.6127 A0,0 0 0 0 409.99,231.6127 L471.5,231.6127 L491.65,333.55 L479.5,231.6127 L527.3982,231.6127 A0,0 0 0 0 527.3982,231.6127 L527.3982,155.06 L517.3982,145.06 L409.99,145.06 A0,0 0 0 0 409.99,145.06 " fill="#FEFFDD" style="stroke:#181818;stroke-width:0.5;"/><path d="M517.3982,145.06 L517.3982,155.06 L527.3982,155.06 L517.3982,145.06 " fill="#FEFFDD" style="stroke:#181818;stroke-width:0.5;"/><text fill="#000000" font-family="sans-serif" font-size="13" lengthAdjust="spacing" textLength="69.2656" x="415.99" y="162.6284">Eksempler:</text><text fill="#000000" font-family="sans-serif" font-size="13" lengthAdjust="spacing" textLength="55.999" x="415.99" y="177.9389">godkjent</text><text fill="#000000" font-family="sans-serif" font-size="13" lengthAdjust="spacing" textLength="96.4082" x="415.99" y="193.2495">delvis godkjent</text><text fill="#000000" font-family="sans-serif" font-size="13" lengthAdjust="spacing" textLength="41.1963" x="415.99" y="208.56">avsl&#229;tt</text><text fill="#000000" font-family="sans-serif" font-size="13" lengthAdjust="spacing" textLength="35.8833" x="415.99" y="223.8705">avvist</text></g><g id="elem_GMN22"><path d="M602.39,487.51 L602.39,604.6838 A0,0 0 0 0 602.39,604.6838 L1216.9974,604.6838 A0,0 0 0 0 1216.9974,604.6838 L1216.9974,497.51 L1206.9974,487.51 L913.69,487.51 L909.69,423.64 L905.69,487.51 L602.39,487.51 A0,0 0 0 0 602.39,487.51 " fill="#FEFFDD" style="stroke:#181818;stroke-width:0.5;"/><path d="M1206.9974,487.51 L1206.9974,497.51 L1216.9974,497.51 L1206.9974,487.51 " fill="#FEFFDD" style="stroke:#181818;stroke-width:0.5;"/><text fill="#000000" font-family="sans-serif" font-size="13" lengthAdjust="spacing" textLength="306.6616" x="608.39" y="505.0784">Se gjerne Byggesaksbehandling::Prosesskategori</text><text fill="#000000" font-family="sans-serif" font-size="13" lengthAdjust="spacing" textLength="45.1826" x="612.5033" y="520.3889">fra NPS</text><text fill="#000000" font-family="sans-serif" font-size="13" lengthAdjust="spacing" textLength="210.8501" x="608.39" y="535.6995">Vi m&#229; f&#229; avklart denne kodelisten</text><text fill="#000000" font-family="sans-serif" font-size="13" lengthAdjust="spacing" textLength="593.6074" x="608.39" y="551.01">Vi m&#229; ha en som er generell som betyr at det ikke er fastsatt hvis kategori skal v&#230;re required.</text><text fill="#000000" font-family="sans-serif" font-size="13" lengthAdjust="spacing" textLength="69.2656" x="608.39" y="566.3205">Eksempler:</text><text fill="#000000" font-family="sans-serif" font-size="13" lengthAdjust="spacing" textLength="34.7725" x="608.39" y="581.6311">Klage</text><text fill="#000000" font-family="sans-serif" font-size="13" lengthAdjust="spacing" textLength="42.7896" x="608.39" y="596.9416">H&#248;ring</text></g><!--link GMN3 to ReferanseJournalpost--><g id="link_GMN3_ReferanseJournalpost"><path d="M220.16,167.57 C260.71,140.39 337.01,94.17 410.19,76.62 C522.67,49.65 1338.95,48.69 1451.19,76.62 C1489.33,86.12 1528.15,103.95 1561.9,122.62 " fill="#FFFFFF" fill-opacity="0.00000" id="GMN3-ReferanseJournalpost" style="stroke:#181818;stroke-width:1;stroke-dasharray:7.0,7.0;"/></g><!--link Fase to ReferanseJournalpost--><g id="link_Fase_ReferanseJournalpost"><path codeLine="15" d="M851.08,106.14 C875.11,93.95 900.75,83.26 926.19,76.62 C1039.08,47.17 1337.98,48.44 1451.19,76.62 C1489.33,86.12 1517.6496,98.1413 1551.3996,116.8113 " fill="#FFFFFF" fill-opacity="0.00000" id="Fase-to-ReferanseJournalpost" style="stroke:#181818;stroke-width:1;"/><polygon fill="#181818" points="1561.9,122.62,1558.586,116.2155,1551.3996,116.8113,1554.7136,123.2158,1561.9,122.62" style="stroke:#181818;stroke-width:1;"/></g><!--link Fase to Vedtak--><g id="link_Fase_Vedtak"><path codeLine="24" d="M628.68,270.34 C602.37,292.09 574.89,314.79 552.02,333.7 " fill="#FFFFFF" fill-opacity="0.00000" id="Fase-Vedtak" style="stroke:#181818;stroke-width:1;"/></g><!--link Fase to FaseStatusEnum--><g id="link_Fase_FaseStatusEnum"><path codeLine="25" d="M720.24,270.34 C718.63,290.59 716.95,311.67 715.52,329.74 " fill="#FFFFFF" fill-opacity="0.00000" id="Fase-FaseStatusEnum" style="stroke:#181818;stroke-width:1;"/></g><!--link Fase to Fasekategori--><g id="link_Fase_Fasekategori"><path codeLine="26" d="M805.36,270.34 C826.48,292.09 848.53,314.79 866.89,333.7 " fill="#FFFFFF" fill-opacity="0.00000" id="Fase-Fasekategori" style="stroke:#181818;stroke-width:1;"/></g><!--SRC=[fLFDJjmm4BxdAQQt5aHGhn52QbNe3sg5Yk3IxS4XawonCzwE9v5GnUFGP-XzNwnZPxEx86wDj1jx_l9zCz-yidJhXmQXF2xBOmgbYsLhzIyQ5riJaSlnRTcYznXBnXRPKCIxC30PlmfHZc-zYR6nfcFJbwkXq2URu5opuNS1-XoaIhQf80fRwdOsCYCzjJeZs0MsLSwVRvClYf4XJfwhV3wZeS- -tdfSeKUkuEjq_F4pEqPinBWARl8xcxOqlkneLF3z1QlMU2YAJEJeuCM8eg0W219M4Dg9SWLd18aS88E5PL08sareK2267fP8ZNfwxQdU9EombmlwJ89CcFCPOWgDO9r362HnqIgaxXK72IxeLAY46mjk4CrJ9xU1K-X77shZeVMcwyeDIBRTKcQOLJND97VaF1-Xvi7fvunMHNYTlnfDtoCfs0QI8hJTFV8RI5zPFoOgMbVzI0wzPDIvu8UKem4AAAMEwp-i3CWwA9GIP3XpOu_csSpNP-FTDs_re6M6_bdaHco7bzwGyfRfTfsw_OxhcUlXjRG1MT9azsStWKZJSn7xLPBIWhhGk3ibkT0YVhGHTWOpHhz-b7nIZy2i-qsXavEBqE3fwRm2JcyZScEVw3rPQuoExOXUfpBx7lQtQ6Rz_pKpuJg8gF8sGjWMh-0AeRlBydj_ttMO1bxZqb3ZDRsgBZb4Z75EMAZAsS2towi5gGJJk5lzcT5vmx8HQiBYjJj8sw2bIOf9cw2AxLHgh9kGxpNAFOEHl2fPVXgXcf9eH62P-hz5gp3yHbUClmRBsEZwxC_kGZM02_gq_flOwtZ-0G00]--></g></svg>