<svg xmlns="http://www.w3.org/2000/svg" xmlns:xlink="http://www.w3.org/1999/xlink" contentStyleType="text/css" height="644px" preserveAspectRatio="none" style="width:1450px;height:644px;background:#FFFFFF;" version="1.1" viewBox="0 0 1450 644" width="1450px" zoomAndPan="magnify"><defs/><g><!--class ReferanseJournalpost--><g id="elem_ReferanseJournalpost"><rect codeLine="2" fill="#F1F1F1" height="130.4414" id="ReferanseJournalpost" rx="2.5" ry="2.5" style="stroke:#181818;stroke-width:0.5;" width="355" x="1088.5" y="139.59"/><ellipse cx="1188.25" cy="155.59" fill="#ADD1B2" rx="11" ry="11" style="stroke:#181818;stroke-width:1.0;"/><path d="M1190.7231,161.7331 Q1190.1421,162.0319 1189.5029,162.1813 Q1188.8638,162.3307 1188.1582,162.3307 Q1185.6514,162.3307 1184.3315,160.6789 Q1183.0117,159.027 1183.0117,155.9059 Q1183.0117,152.7765 1184.3315,151.1247 Q1185.6514,149.4728 1188.1582,149.4728 Q1188.8638,149.4728 1189.5112,149.6222 Q1190.1587,149.7716 1190.7231,150.0705 L1190.7231,152.7931 Q1190.0923,152.2121 1189.4988,151.9423 Q1188.9053,151.6725 1188.2744,151.6725 Q1186.9297,151.6725 1186.2449,152.7392 Q1185.5601,153.8058 1185.5601,155.9059 Q1185.5601,157.9977 1186.2449,159.0644 Q1186.9297,160.131 1188.2744,160.131 Q1188.9053,160.131 1189.4988,159.8612 Q1190.0923,159.5915 1190.7231,159.0104 Z " fill="#000000"/><text fill="#000000" font-family="sans-serif" font-size="14" lengthAdjust="spacing" textLength="147" x="1208.75" y="160.881">ReferanseJournalpost</text><line style="stroke:#181818;stroke-width:0.5;" x1="1089.5" x2="1442.5" y1="171.59" y2="171.59"/><text fill="#000000" font-family="sans-serif" font-size="14" lengthAdjust="spacing" textLength="108" x="1094.5" y="189.1252">systemId: string</text><text fill="#000000" font-family="sans-serif" font-size="14" lengthAdjust="spacing" textLength="150" x="1094.5" y="205.6134">registreringsID: string</text><text fill="#000000" font-family="sans-serif" font-size="14" lengthAdjust="spacing" textLength="222" x="1094.5" y="222.1017">journalnummer: Journalnummer</text><text fill="#000000" font-family="sans-serif" font-size="14" lengthAdjust="spacing" textLength="343" x="1094.5" y="238.59">saksJournalpostnummer: SaksJournalpostnummer</text><text fill="#000000" font-family="sans-serif" font-size="14" lengthAdjust="spacing" textLength="285" x="1094.5" y="255.0783">referanseEksternNoekkel: EksternNoekkel</text><line style="stroke:#181818;stroke-width:0.5;" x1="1089.5" x2="1442.5" y1="262.0314" y2="262.0314"/></g><!--class Fase--><g id="elem_Fase"><rect codeLine="3" fill="#F1F1F1" height="196.3945" id="Fase" rx="2.5" ry="2.5" style="stroke:#181818;stroke-width:0.5;" width="335" x="162.5" y="106.62"/><ellipse cx="310.25" cy="122.62" fill="#ADD1B2" rx="11" ry="11" style="stroke:#181818;stroke-width:1.0;"/><path d="M312.7231,128.7631 Q312.1421,129.0619 311.5029,129.2113 Q310.8638,129.3607 310.1582,129.3607 Q307.6514,129.3607 306.3315,127.7089 Q305.0117,126.057 305.0117,122.9359 Q305.0117,119.8065 306.3315,118.1547 Q307.6514,116.5028 310.1582,116.5028 Q310.8638,116.5028 311.5112,116.6522 Q312.1587,116.8016 312.7231,117.1005 L312.7231,119.8231 Q312.0923,119.2421 311.4988,118.9723 Q310.9053,118.7025 310.2744,118.7025 Q308.9297,118.7025 308.2449,119.7692 Q307.5601,120.8358 307.5601,122.9359 Q307.5601,125.0277 308.2449,126.0944 Q308.9297,127.161 310.2744,127.161 Q310.9053,127.161 311.4988,126.8912 Q312.0923,126.6215 312.7231,126.0404 Z " fill="#000000"/><text fill="#000000" font-family="sans-serif" font-size="14" lengthAdjust="spacing" textLength="31" x="330.75" y="127.911">Fase</text><line style="stroke:#181818;stroke-width:0.5;" x1="163.5" x2="496.5" y1="138.62" y2="138.62"/><ellipse cx="173.5" cy="152.3641" fill="#000000" rx="3" ry="3" style="stroke:#000000;stroke-width:1.0;"/><text fill="#000000" font-family="sans-serif" font-size="14" lengthAdjust="spacing" textLength="89" x="182.5" y="156.1552">faseid: string</text><ellipse cx="173.5" cy="168.8524" fill="#000000" rx="3" ry="3" style="stroke:#000000;stroke-width:1.0;"/><text fill="#000000" font-family="sans-serif" font-size="14" lengthAdjust="spacing" textLength="109" x="182.5" y="172.6434">fasenavn: string</text><ellipse cx="173.5" cy="185.3407" fill="#000000" rx="3" ry="3" style="stroke:#000000;stroke-width:1.0;"/><text fill="#000000" font-family="sans-serif" font-size="14" lengthAdjust="spacing" textLength="153" x="182.5" y="189.1317">kategori: Fasekategori</text><ellipse cx="173.5" cy="201.829" fill="#000000" rx="3" ry="3" style="stroke:#000000;stroke-width:1.0;"/><text fill="#000000" font-family="sans-serif" font-size="14" lengthAdjust="spacing" textLength="161" x="182.5" y="205.62">status: FaseStatusEnum</text><text fill="#000000" font-family="sans-serif" font-size="14" lengthAdjust="spacing" textLength="101" x="182.5" y="222.1083">startDato: date</text><text fill="#000000" font-family="sans-serif" font-size="14" lengthAdjust="spacing" textLength="100" x="182.5" y="238.5966">sluttDato: date</text><text fill="#000000" font-family="sans-serif" font-size="14" lengthAdjust="spacing" textLength="131" x="182.5" y="255.0848">milepeler: Milepel[]</text><text fill="#000000" font-family="sans-serif" font-size="14" lengthAdjust="spacing" textLength="100" x="182.5" y="271.5731">vedtak: Vedtak</text><text fill="#000000" font-family="sans-serif" font-size="14" lengthAdjust="spacing" textLength="309" x="182.5" y="288.0614">referanseJournalpost: ReferanseJournalpost[]</text><line style="stroke:#181818;stroke-width:0.5;" x1="163.5" x2="496.5" y1="295.0145" y2="295.0145"/></g><g id="elem_GMN5"><path d="M57,6 L57,46.6211 A0,0 0 0 0 57,46.6211 L326,46.6211 L330,106.49 L334,46.6211 L603,46.6211 A0,0 0 0 0 603,46.6211 L603,16 L593,6 L57,6 A0,0 0 0 0 57,6 " fill="#FEFFDD" style="stroke:#181818;stroke-width:0.5;"/><path d="M593,6 L593,16 L603,16 L593,6 " fill="#FEFFDD" style="stroke:#181818;stroke-width:0.5;"/><text fill="#000000" font-family="sans-serif" font-size="13" lengthAdjust="spacing" textLength="369" x="63" y="23.5684">En fase er i hovedsak det som hender mellom to milepeler.</text><text fill="#000000" font-family="sans-serif" font-size="13" lengthAdjust="spacing" textLength="525" x="63" y="38.8789">Interne faser sendes ikke ut ved denne protokollen. Vi kutter derfor ut Global flagg.</text></g><path d="M532.5,179.5 L532.5,195.8105 L271.5,150.8641 L532.5,203.8105 L532.5,220.1211 A0,0 0 0 0 532.5,220.1211 L1053.5,220.1211 A0,0 0 0 0 1053.5,220.1211 L1053.5,189.5 L1043.5,179.5 L532.5,179.5 A0,0 0 0 0 532.5,179.5 " fill="#FEFFDD" style="stroke:#181818;stroke-width:0.5;"/><path d="M1043.5,179.5 L1043.5,189.5 L1053.5,189.5 L1043.5,179.5 " fill="#FEFFDD" style="stroke:#181818;stroke-width:0.5;"/><text fill="#000000" font-family="sans-serif" font-size="13" lengthAdjust="spacing" textLength="500" x="538.5" y="197.0684">Faseid brukes alene (ikke sammen med saksnummer) for &#229; hente en enkelt fase</text><text fill="#000000" font-family="sans-serif" font-size="13" lengthAdjust="spacing" textLength="165" x="538.5" y="212.3789">Den m&#229; dermed v&#230;re unik</text><!--class Vedtak--><g id="elem_Vedtak"><rect codeLine="36" fill="#F1F1F1" height="89.5977" id="Vedtak" rx="2.5" ry="2.5" style="stroke:#181818;stroke-width:0.5;" width="184" x="7" y="366.94"/><ellipse cx="71.25" cy="387.2505" fill="#ADD1B2" rx="11" ry="11" style="stroke:#181818;stroke-width:1.0;"/><path d="M73.7231,393.3936 Q73.1421,393.6924 72.5029,393.8419 Q71.8638,393.9913 71.1582,393.9913 Q68.6514,393.9913 67.3315,392.3394 Q66.0117,390.6876 66.0117,387.5665 Q66.0117,384.4371 67.3315,382.7852 Q68.6514,381.1334 71.1582,381.1334 Q71.8638,381.1334 72.5112,381.2828 Q73.1587,381.4322 73.7231,381.731 L73.7231,384.4537 Q73.0923,383.8726 72.4988,383.6028 Q71.9053,383.3331 71.2744,383.3331 Q69.9297,383.3331 69.2449,384.3997 Q68.5601,385.4664 68.5601,387.5665 Q68.5601,389.6583 69.2449,390.7249 Q69.9297,391.7916 71.2744,391.7916 Q71.9053,391.7916 72.4988,391.5218 Q73.0923,391.252 73.7231,390.671 Z " fill="#000000"/><text fill="#000000" font-family="sans-serif" font-size="12" font-style="italic" lengthAdjust="spacing" textLength="42" x="94.25" y="383.5416">&#171;Kode&#187;</text><text fill="#000000" font-family="sans-serif" font-size="14" lengthAdjust="spacing" textLength="47" x="91.75" y="399.608">Vedtak</text><line style="stroke:#181818;stroke-width:0.5;" x1="8" x2="190" y1="407.5611" y2="407.5611"/><ellipse cx="18" cy="421.3052" fill="#000000" rx="3" ry="3" style="stroke:#000000;stroke-width:1.0;"/><text fill="#000000" font-family="sans-serif" font-size="14" lengthAdjust="spacing" textLength="116" x="27" y="425.0963">kodeverdi: string</text><text fill="#000000" font-family="sans-serif" font-size="14" lengthAdjust="spacing" textLength="158" x="27" y="441.5845">kodebeskrivelse: string</text><line style="stroke:#181818;stroke-width:0.5;" x1="8" x2="190" y1="448.5377" y2="448.5377"/></g><!--class FaseStatusEnum--><g id="elem_FaseStatusEnum"><rect codeLine="28" fill="#F1F1F1" height="97.4648" id="FaseStatusEnum" rx="2.5" ry="2.5" style="stroke:#181818;stroke-width:0.5;" width="144" x="242" y="363.01"/><ellipse cx="257" cy="379.01" fill="#EB937F" rx="11" ry="11" style="stroke:#181818;stroke-width:1.0;"/><path d="M260.6143,385.51 L252.8945,385.51 L252.8945,373.1169 L260.6143,373.1169 L260.6143,375.2751 L255.3433,375.2751 L255.3433,377.948 L260.1162,377.948 L260.1162,380.1062 L255.3433,380.1062 L255.3433,383.3518 L260.6143,383.3518 Z " fill="#000000"/><text fill="#000000" font-family="sans-serif" font-size="14" lengthAdjust="spacing" textLength="112" x="271" y="384.301">FaseStatusEnum</text><line style="stroke:#181818;stroke-width:0.5;" x1="243" x2="385" y1="395.01" y2="395.01"/><ellipse cx="253" cy="408.7541" fill="none" rx="3" ry="3" style="stroke:#038048;stroke-width:1.0;"/><text fill="#000000" font-family="sans-serif" font-size="14" lengthAdjust="spacing" textLength="55" x="262" y="412.5452">Planlagt</text><ellipse cx="253" cy="425.2424" fill="none" rx="3" ry="3" style="stroke:#038048;stroke-width:1.0;"/><text fill="#000000" font-family="sans-serif" font-size="14" lengthAdjust="spacing" textLength="88" x="262" y="429.0334">UnderArbeid</text><ellipse cx="253" cy="441.7307" fill="none" rx="3" ry="3" style="stroke:#038048;stroke-width:1.0;"/><text fill="#000000" font-family="sans-serif" font-size="14" lengthAdjust="spacing" textLength="48" x="262" y="445.5217">Utfoert</text><line style="stroke:#181818;stroke-width:0.5;" x1="243" x2="385" y1="452.4748" y2="452.4748"/></g><!--class Fasekategori--><g id="elem_Fasekategori"><rect codeLine="41" fill="#F1F1F1" height="89.5977" id="Fasekategori" rx="2.5" ry="2.5" style="stroke:#181818;stroke-width:0.5;" width="184" x="421" y="366.94"/><ellipse cx="464.8" cy="387.2505" fill="#ADD1B2" rx="11" ry="11" style="stroke:#181818;stroke-width:1.0;"/><path d="M467.2731,393.3936 Q466.6921,393.6924 466.0529,393.8419 Q465.4138,393.9913 464.7082,393.9913 Q462.2014,393.9913 460.8815,392.3394 Q459.5617,390.6876 459.5617,387.5665 Q459.5617,384.4371 460.8815,382.7852 Q462.2014,381.1334 464.7082,381.1334 Q465.4138,381.1334 466.0612,381.2828 Q466.7087,381.4322 467.2731,381.731 L467.2731,384.4537 Q466.6423,383.8726 466.0488,383.6028 Q465.4553,383.3331 464.8244,383.3331 Q463.4797,383.3331 462.7949,384.3997 Q462.1101,385.4664 462.1101,387.5665 Q462.1101,389.6583 462.7949,390.7249 Q463.4797,391.7916 464.8244,391.7916 Q465.4553,391.7916 466.0488,391.5218 Q466.6423,391.252 467.2731,390.671 Z " fill="#000000"/><text fill="#000000" font-family="sans-serif" font-size="12" font-style="italic" lengthAdjust="spacing" textLength="42" x="508.2" y="383.5416">&#171;Kode&#187;</text><text fill="#000000" font-family="sans-serif" font-size="14" lengthAdjust="spacing" textLength="88" x="485.2" y="399.608">Fasekategori</text><line style="stroke:#181818;stroke-width:0.5;" x1="422" x2="604" y1="407.5611" y2="407.5611"/><ellipse cx="432" cy="421.3052" fill="#000000" rx="3" ry="3" style="stroke:#000000;stroke-width:1.0;"/><text fill="#000000" font-family="sans-serif" font-size="14" lengthAdjust="spacing" textLength="116" x="441" y="425.0963">kodeverdi: string</text><text fill="#000000" font-family="sans-serif" font-size="14" lengthAdjust="spacing" textLength="158" x="441" y="441.5845">kodebeskrivelse: string</text><line style="stroke:#181818;stroke-width:0.5;" x1="422" x2="604" y1="448.5377" y2="448.5377"/></g><g id="elem_GMN16"><path d="M9,161.54 L9,248.0927 A0,0 0 0 0 9,248.0927 L70.42,248.0927 L92.32,366.57 L78.42,248.0927 L127,248.0927 A0,0 0 0 0 127,248.0927 L127,171.54 L117,161.54 L9,161.54 A0,0 0 0 0 9,161.54 " fill="#FEFFDD" style="stroke:#181818;stroke-width:0.5;"/><path d="M117,161.54 L117,171.54 L127,171.54 L117,161.54 " fill="#FEFFDD" style="stroke:#181818;stroke-width:0.5;"/><text fill="#000000" font-family="sans-serif" font-size="13" lengthAdjust="spacing" textLength="69" x="15" y="179.1084">Eksempler:</text><text fill="#000000" font-family="sans-serif" font-size="13" lengthAdjust="spacing" textLength="56" x="15" y="194.4189">godkjent</text><text fill="#000000" font-family="sans-serif" font-size="13" lengthAdjust="spacing" textLength="97" x="15" y="209.7295">delvis godkjent</text><text fill="#000000" font-family="sans-serif" font-size="13" lengthAdjust="spacing" textLength="42" x="15" y="225.04">avsl&#229;tt</text><text fill="#000000" font-family="sans-serif" font-size="13" lengthAdjust="spacing" textLength="37" x="15" y="240.3505">avvist</text></g><g id="elem_GMN19"><path d="M207.5,520.48 L207.5,637.6538 A0,0 0 0 0 207.5,637.6538 L818.5,637.6538 A0,0 0 0 0 818.5,637.6538 L818.5,530.48 L808.5,520.48 L517,520.48 L513,456.61 L509,520.48 L207.5,520.48 A0,0 0 0 0 207.5,520.48 " fill="#FEFFDD" style="stroke:#181818;stroke-width:0.5;"/><path d="M808.5,520.48 L808.5,530.48 L818.5,530.48 L808.5,520.48 " fill="#FEFFDD" style="stroke:#181818;stroke-width:0.5;"/><text fill="#000000" font-family="sans-serif" font-size="13" lengthAdjust="spacing" textLength="305" x="213.5" y="538.0484">Se gjerne Byggesaksbehandling::Prosesskategori</text><text fill="#000000" font-family="sans-serif" font-size="13" lengthAdjust="spacing" textLength="45" x="217.5" y="553.3589">fra NPS</text><text fill="#000000" font-family="sans-serif" font-size="13" lengthAdjust="spacing" textLength="210" x="213.5" y="568.6695">Vi m&#229; f&#229; avklart denne kodelisten</text><text fill="#000000" font-family="sans-serif" font-size="13" lengthAdjust="spacing" textLength="590" x="213.5" y="583.98">Vi m&#229; ha en som er generell som betyr at det ikke er fastsatt hvis kategori skal v&#230;re required.</text><text fill="#000000" font-family="sans-serif" font-size="13" lengthAdjust="spacing" textLength="69" x="213.5" y="599.2905">Eksempler:</text><text fill="#000000" font-family="sans-serif" font-size="13" lengthAdjust="spacing" textLength="34" x="213.5" y="614.6011">Klage</text><text fill="#000000" font-family="sans-serif" font-size="13" lengthAdjust="spacing" textLength="43" x="213.5" y="629.9116">H&#248;ring</text></g><!--link Fase to ReferanseJournalpost--><g id="link_Fase_ReferanseJournalpost"><path codeLine="15" d="M463.02,106.2 C485.26,94.04 508.82,83.48 532.5,76.62 C643.7,44.38 941.96,45.58 1053.5,76.62 C1098.85,89.24 1134.2071,107.7711 1171.2971,132.5111 " fill="none" id="Fase-to-ReferanseJournalpost" style="stroke:#181818;stroke-width:1.0;"/><polygon fill="#181818" points="1181.28,139.17,1178.5082,132.5129,1171.2971,132.5111,1174.0689,139.1682,1181.28,139.17" style="stroke:#181818;stroke-width:1.0;"/></g><!--link Fase to Vedtak--><g id="link_Fase_Vedtak"><path codeLine="24" d="M219.91,303.48 C195.04,325.54 169.84,347.9 148.93,366.45 " fill="none" id="Fase-Vedtak" style="stroke:#181818;stroke-width:1.0;"/></g><!--link Fase to FaseStatusEnum--><g id="link_Fase_FaseStatusEnum"><path codeLine="25" d="M322.37,303.48 C320.77,324.1 319.14,344.97 317.75,362.76 " fill="none" id="Fase-FaseStatusEnum" style="stroke:#181818;stroke-width:1.0;"/></g><!--link Fase to Fasekategori--><g id="link_Fase_Fasekategori"><path codeLine="26" d="M417.21,303.48 C436.91,325.54 456.88,347.9 473.45,366.45 " fill="none" id="Fase-Fasekategori" style="stroke:#181818;stroke-width:1.0;"/></g><!--SRC=[fLDBRjim4Dth5DDTco0okXM202sIz1Eq21eacxeBAXp9D2dI7Ou414MEavwXUryiGygo7IEx6h1Dpe_lpRnvO_ozwpL2EIlBcG-bZMLZv2Sg6niLaShXVTcWSnXBmWP9-OZBq9DNRXKYp-wTYb4RrPBgobLV5Da0bv8BVmgGpr6gOtG5aSduTcVpQl0lhLOnje5CbVEds-YBhBYFe-ScdozytsMVk8ZF5OSAjEICDjVpeQqp3bVea2huDXv__igE0JKhMy5T_i-cBTclEx8L_7Z5AZKUYo8JFZbwDQ8eV6043Yi8pTYQ2Yuyf2O04XXO184WFGUD335qi42lnTD9v-N6OOUzdFildf4yvdo2c48Z66iHUavSf8eNzue21njaThw4EmDMEYBnKhS9b48_kL0h1urJRLjkG99f5pp1hAfnThaZb_a8DVLMdbDI5U5jVZMghaClO3KatSXOEgHta5vPFoKgKbVyw2qwpgXpmVEK8m42AAKEwxya3BonK0Wbo72cnfvCivck1pBODszr8sNwxY1o8yhZQwUyyERnTfkw_O7gYUlnBJS1YTDazsStWaZJin6xLPBItBT1swMGd4iHDvW8EuCQebi_SJw9Xs7QZqsXqzEheF7iR5eLAxS1IPiNUv6iDKPBPa0dKvbyZ_lRDh7-_vgPS1sOHNaR8MoBLt23q2wp_3u-j2scWTUuK5uxIQ-gQmeHOvmIvg9oKl3z-cRkHO9ft8ryrM2TxEn6g0cBa-wWtmOjL59CsWHHR2jI8zc4VA-H7mWKvrN9yfC8qHH7nGoBrFyjMe7XDheY_DqRGYthip-xAz40pltdzR_4NiRp3000]--></g></svg>