<svg xmlns="http://www.w3.org/2000/svg" xmlns:xlink="http://www.w3.org/1999/xlink" contentStyleType="text/css" height="596px" preserveAspectRatio="none" style="width:960px;height:596px;background:#FFFFFF;" version="1.1" viewBox="0 0 960 596" width="960px" zoomAndPan="magnify"><defs/><g><!--class Fase--><g id="elem_Fase"><rect codeLine="2" fill="#F1F1F1" height="163.418" id="Fase" rx="2.5" ry="2.5" style="stroke:#181818;stroke-width:0.5;" width="199" x="198.5" y="106.62"/><ellipse cx="278.25" cy="122.62" fill="#ADD1B2" rx="11" ry="11" style="stroke:#181818;stroke-width:1.0;"/><path d="M280.7231,128.7631 Q280.1421,129.0619 279.5029,129.2113 Q278.8638,129.3607 278.1582,129.3607 Q275.6514,129.3607 274.3315,127.7089 Q273.0117,126.057 273.0117,122.9359 Q273.0117,119.8065 274.3315,118.1547 Q275.6514,116.5028 278.1582,116.5028 Q278.8638,116.5028 279.5112,116.6522 Q280.1587,116.8016 280.7231,117.1005 L280.7231,119.8231 Q280.0923,119.2421 279.4988,118.9723 Q278.9053,118.7025 278.2744,118.7025 Q276.9297,118.7025 276.2449,119.7692 Q275.5601,120.8358 275.5601,122.9359 Q275.5601,125.0277 276.2449,126.0944 Q276.9297,127.161 278.2744,127.161 Q278.9053,127.161 279.4988,126.8912 Q280.0923,126.6215 280.7231,126.0404 Z " fill="#000000"/><text fill="#000000" font-family="sans-serif" font-size="14" lengthAdjust="spacing" textLength="31" x="298.75" y="127.911">Fase</text><line style="stroke:#181818;stroke-width:0.5;" x1="199.5" x2="396.5" y1="138.62" y2="138.62"/><ellipse cx="209.5" cy="152.3641" fill="none" rx="3" ry="3" style="stroke:#038048;stroke-width:1.0;"/><text fill="#000000" font-family="sans-serif" font-size="14" lengthAdjust="spacing" textLength="109" x="218.5" y="156.1552">fasenavn: string</text><ellipse cx="209.5" cy="168.8524" fill="none" rx="3" ry="3" style="stroke:#038048;stroke-width:1.0;"/><text fill="#000000" font-family="sans-serif" font-size="14" lengthAdjust="spacing" textLength="89" x="218.5" y="172.6434">faseid: string</text><ellipse cx="209.5" cy="185.3407" fill="none" rx="3" ry="3" style="stroke:#038048;stroke-width:1.0;"/><text fill="#000000" font-family="sans-serif" font-size="14" lengthAdjust="spacing" textLength="153" x="218.5" y="189.1317">kategori: Fasekategori</text><ellipse cx="209.5" cy="201.829" fill="none" rx="3" ry="3" style="stroke:#038048;stroke-width:1.0;"/><text fill="#000000" font-family="sans-serif" font-size="14" lengthAdjust="spacing" textLength="131" x="218.5" y="205.62">milepeler: Milepel[]</text><ellipse cx="209.5" cy="218.3173" fill="none" rx="3" ry="3" style="stroke:#038048;stroke-width:1.0;"/><text fill="#000000" font-family="sans-serif" font-size="14" lengthAdjust="spacing" textLength="161" x="218.5" y="222.1083">status: FaseStatusEnum</text><ellipse cx="209.5" cy="234.8055" fill="none" rx="3" ry="3" style="stroke:#038048;stroke-width:1.0;"/><text fill="#000000" font-family="sans-serif" font-size="14" lengthAdjust="spacing" textLength="100" x="218.5" y="238.5966">vedtak: Vedtak</text><ellipse cx="209.5" cy="251.2938" fill="none" rx="3" ry="3" style="stroke:#038048;stroke-width:1.0;"/><text fill="#000000" font-family="sans-serif" font-size="14" lengthAdjust="spacing" textLength="173" x="218.5" y="255.0848">dokumenter: Dokument[]</text><line style="stroke:#181818;stroke-width:0.5;" x1="199.5" x2="396.5" y1="262.038" y2="262.038"/></g><g id="elem_GMN3"><path d="M25,6 L25,46.6211 A0,0 0 0 0 25,46.6211 L294,46.6211 L298,106.47 L302,46.6211 L571,46.6211 A0,0 0 0 0 571,46.6211 L571,16 L561,6 L25,6 A0,0 0 0 0 25,6 " fill="#FEFFDD" style="stroke:#181818;stroke-width:0.5;"/><path d="M561,6 L561,16 L571,16 L561,6 " fill="#FEFFDD" style="stroke:#181818;stroke-width:0.5;"/><text fill="#000000" font-family="sans-serif" font-size="13" lengthAdjust="spacing" textLength="369" x="31" y="23.5684">En fase er i hovedsak det som hender mellom to milepeler.</text><text fill="#000000" font-family="sans-serif" font-size="13" lengthAdjust="spacing" textLength="525" x="31" y="38.8789">Interne faser sendes ikke ut ved denne protokollen. Vi kutter derfor ut Global flagg.</text></g><path d="M432.5,163.02 L432.5,179.3305 L307.5,167.3524 L432.5,187.3305 L432.5,203.6411 A0,0 0 0 0 432.5,203.6411 L953.5,203.6411 A0,0 0 0 0 953.5,203.6411 L953.5,173.02 L943.5,163.02 L432.5,163.02 A0,0 0 0 0 432.5,163.02 " fill="#FEFFDD" style="stroke:#181818;stroke-width:0.5;"/><path d="M943.5,163.02 L943.5,173.02 L953.5,173.02 L943.5,163.02 " fill="#FEFFDD" style="stroke:#181818;stroke-width:0.5;"/><text fill="#000000" font-family="sans-serif" font-size="13" lengthAdjust="spacing" textLength="500" x="438.5" y="180.5884">Faseid brukes alene (ikke sammen med saksnummer) for &#229; hente en enkelt fase</text><text fill="#000000" font-family="sans-serif" font-size="13" lengthAdjust="spacing" textLength="165" x="438.5" y="195.8989">Den m&#229; dermed v&#230;re unik</text><!--class Vedtak--><g id="elem_Vedtak"><rect codeLine="31" fill="#F1F1F1" height="89.5977" id="Vedtak" rx="2.5" ry="2.5" style="stroke:#181818;stroke-width:0.5;" width="184" x="7" y="333.98"/><ellipse cx="71.25" cy="354.2905" fill="#ADD1B2" rx="11" ry="11" style="stroke:#181818;stroke-width:1.0;"/><path d="M73.7231,360.4336 Q73.1421,360.7324 72.5029,360.8819 Q71.8638,361.0313 71.1582,361.0313 Q68.6514,361.0313 67.3315,359.3794 Q66.0117,357.7276 66.0117,354.6065 Q66.0117,351.4771 67.3315,349.8252 Q68.6514,348.1734 71.1582,348.1734 Q71.8638,348.1734 72.5112,348.3228 Q73.1587,348.4722 73.7231,348.771 L73.7231,351.4937 Q73.0923,350.9126 72.4988,350.6428 Q71.9053,350.3731 71.2744,350.3731 Q69.9297,350.3731 69.2449,351.4397 Q68.5601,352.5064 68.5601,354.6065 Q68.5601,356.6983 69.2449,357.7649 Q69.9297,358.8316 71.2744,358.8316 Q71.9053,358.8316 72.4988,358.5618 Q73.0923,358.292 73.7231,357.711 Z " fill="#000000"/><text fill="#000000" font-family="sans-serif" font-size="12" font-style="italic" lengthAdjust="spacing" textLength="42" x="94.25" y="350.5816">&#171;Kode&#187;</text><text fill="#000000" font-family="sans-serif" font-size="14" lengthAdjust="spacing" textLength="47" x="91.75" y="366.648">Vedtak</text><line style="stroke:#181818;stroke-width:0.5;" x1="8" x2="190" y1="374.6011" y2="374.6011"/><ellipse cx="18" cy="388.3452" fill="none" rx="3" ry="3" style="stroke:#038048;stroke-width:1.0;"/><text fill="#000000" font-family="sans-serif" font-size="14" lengthAdjust="spacing" textLength="116" x="27" y="392.1363">kodeverdi: string</text><ellipse cx="18" cy="404.8335" fill="none" rx="3" ry="3" style="stroke:#038048;stroke-width:1.0;"/><text fill="#000000" font-family="sans-serif" font-size="14" lengthAdjust="spacing" textLength="158" x="27" y="408.6245">kodebeskrivelse: string</text><line style="stroke:#181818;stroke-width:0.5;" x1="8" x2="190" y1="415.5777" y2="415.5777"/></g><!--class FaseStatusEnum--><g id="elem_FaseStatusEnum"><rect codeLine="23" fill="#F1F1F1" height="97.4648" id="FaseStatusEnum" rx="2.5" ry="2.5" style="stroke:#181818;stroke-width:0.5;" width="144" x="226" y="330.04"/><ellipse cx="241" cy="346.04" fill="#EB937F" rx="11" ry="11" style="stroke:#181818;stroke-width:1.0;"/><path d="M244.6143,352.54 L236.8945,352.54 L236.8945,340.1469 L244.6143,340.1469 L244.6143,342.3051 L239.3433,342.3051 L239.3433,344.978 L244.1162,344.978 L244.1162,347.1362 L239.3433,347.1362 L239.3433,350.3818 L244.6143,350.3818 Z " fill="#000000"/><text fill="#000000" font-family="sans-serif" font-size="14" lengthAdjust="spacing" textLength="112" x="255" y="351.331">FaseStatusEnum</text><line style="stroke:#181818;stroke-width:0.5;" x1="227" x2="369" y1="362.04" y2="362.04"/><ellipse cx="237" cy="375.7841" fill="none" rx="3" ry="3" style="stroke:#038048;stroke-width:1.0;"/><text fill="#000000" font-family="sans-serif" font-size="14" lengthAdjust="spacing" textLength="55" x="246" y="379.5752">Planlagt</text><ellipse cx="237" cy="392.2724" fill="none" rx="3" ry="3" style="stroke:#038048;stroke-width:1.0;"/><text fill="#000000" font-family="sans-serif" font-size="14" lengthAdjust="spacing" textLength="88" x="246" y="396.0634">UnderArbeid</text><ellipse cx="237" cy="408.7607" fill="none" rx="3" ry="3" style="stroke:#038048;stroke-width:1.0;"/><text fill="#000000" font-family="sans-serif" font-size="14" lengthAdjust="spacing" textLength="48" x="246" y="412.5517">Utfoert</text><line style="stroke:#181818;stroke-width:0.5;" x1="227" x2="369" y1="419.5048" y2="419.5048"/></g><!--class Fasekategori--><g id="elem_Fasekategori"><rect codeLine="36" fill="#F1F1F1" height="89.5977" id="Fasekategori" rx="2.5" ry="2.5" style="stroke:#181818;stroke-width:0.5;" width="184" x="405" y="333.98"/><ellipse cx="448.8" cy="354.2905" fill="#ADD1B2" rx="11" ry="11" style="stroke:#181818;stroke-width:1.0;"/><path d="M451.2731,360.4336 Q450.6921,360.7324 450.0529,360.8819 Q449.4138,361.0313 448.7082,361.0313 Q446.2014,361.0313 444.8815,359.3794 Q443.5617,357.7276 443.5617,354.6065 Q443.5617,351.4771 444.8815,349.8252 Q446.2014,348.1734 448.7082,348.1734 Q449.4138,348.1734 450.0612,348.3228 Q450.7087,348.4722 451.2731,348.771 L451.2731,351.4937 Q450.6423,350.9126 450.0488,350.6428 Q449.4553,350.3731 448.8244,350.3731 Q447.4797,350.3731 446.7949,351.4397 Q446.1101,352.5064 446.1101,354.6065 Q446.1101,356.6983 446.7949,357.7649 Q447.4797,358.8316 448.8244,358.8316 Q449.4553,358.8316 450.0488,358.5618 Q450.6423,358.292 451.2731,357.711 Z " fill="#000000"/><text fill="#000000" font-family="sans-serif" font-size="12" font-style="italic" lengthAdjust="spacing" textLength="42" x="492.2" y="350.5816">&#171;Kode&#187;</text><text fill="#000000" font-family="sans-serif" font-size="14" lengthAdjust="spacing" textLength="88" x="469.2" y="366.648">Fasekategori</text><line style="stroke:#181818;stroke-width:0.5;" x1="406" x2="588" y1="374.6011" y2="374.6011"/><ellipse cx="416" cy="388.3452" fill="none" rx="3" ry="3" style="stroke:#038048;stroke-width:1.0;"/><text fill="#000000" font-family="sans-serif" font-size="14" lengthAdjust="spacing" textLength="116" x="425" y="392.1363">kodeverdi: string</text><ellipse cx="416" cy="404.8335" fill="none" rx="3" ry="3" style="stroke:#038048;stroke-width:1.0;"/><text fill="#000000" font-family="sans-serif" font-size="14" lengthAdjust="spacing" textLength="158" x="425" y="408.6245">kodebeskrivelse: string</text><line style="stroke:#181818;stroke-width:0.5;" x1="406" x2="588" y1="415.5777" y2="415.5777"/></g><g id="elem_GMN14"><path d="M40,145.06 L40,231.6127 A0,0 0 0 0 40,231.6127 L95,231.6127 L99,333.55 L103,231.6127 L158,231.6127 A0,0 0 0 0 158,231.6127 L158,155.06 L148,145.06 L40,145.06 A0,0 0 0 0 40,145.06 " fill="#FEFFDD" style="stroke:#181818;stroke-width:0.5;"/><path d="M148,145.06 L148,155.06 L158,155.06 L148,145.06 " fill="#FEFFDD" style="stroke:#181818;stroke-width:0.5;"/><text fill="#000000" font-family="sans-serif" font-size="13" lengthAdjust="spacing" textLength="69" x="46" y="162.6284">Eksempler:</text><text fill="#000000" font-family="sans-serif" font-size="13" lengthAdjust="spacing" textLength="56" x="46" y="177.9389">godkjent</text><text fill="#000000" font-family="sans-serif" font-size="13" lengthAdjust="spacing" textLength="97" x="46" y="193.2495">delvis godkjent</text><text fill="#000000" font-family="sans-serif" font-size="13" lengthAdjust="spacing" textLength="42" x="46" y="208.56">avsl&#229;tt</text><text fill="#000000" font-family="sans-serif" font-size="13" lengthAdjust="spacing" textLength="37" x="46" y="223.8705">avvist</text></g><g id="elem_GMN17"><path d="M334,487.51 L334,589.3733 A0,0 0 0 0 334,589.3733 L660,589.3733 A0,0 0 0 0 660,589.3733 L660,497.51 L650,487.51 L501,487.51 L497,423.69 L493,487.51 L334,487.51 A0,0 0 0 0 334,487.51 " fill="#FEFFDD" style="stroke:#181818;stroke-width:0.5;"/><path d="M650,487.51 L650,497.51 L660,497.51 L650,487.51 " fill="#FEFFDD" style="stroke:#181818;stroke-width:0.5;"/><text fill="#000000" font-family="sans-serif" font-size="13" lengthAdjust="spacing" textLength="305" x="340" y="505.0784">Se gjerne Byggesaksbehandling::Prosesskategori</text><text fill="#000000" font-family="sans-serif" font-size="13" lengthAdjust="spacing" textLength="45" x="344" y="520.3889">fra NPS</text><text fill="#000000" font-family="sans-serif" font-size="13" lengthAdjust="spacing" textLength="210" x="340" y="535.6995">Vi m&#229; f&#229; avklart denne kodelisten</text><text fill="#000000" font-family="sans-serif" font-size="13" lengthAdjust="spacing" textLength="69" x="340" y="551.01">Eksempler:</text><text fill="#000000" font-family="sans-serif" font-size="13" lengthAdjust="spacing" textLength="34" x="340" y="566.3205">Klage</text><text fill="#000000" font-family="sans-serif" font-size="13" lengthAdjust="spacing" textLength="43" x="340" y="581.6311">H&#248;ring</text></g><!--link Fase to Vedtak--><g id="link_Fase_Vedtak"><path codeLine="19" d="M212.45,270.34 C189.49,292.09 165.51,314.79 145.55,333.7 " fill="none" id="Fase-Vedtak" style="stroke:#181818;stroke-width:1.0;"/></g><!--link Fase to FaseStatusEnum--><g id="link_Fase_FaseStatusEnum"><path codeLine="20" d="M298,270.34 C298,290.59 298,311.67 298,329.74 " fill="none" id="Fase-FaseStatusEnum" style="stroke:#181818;stroke-width:1.0;"/></g><!--link Fase to Fasekategori--><g id="link_Fase_Fasekategori"><path codeLine="21" d="M383.55,270.34 C406.51,292.09 430.49,314.79 450.45,333.7 " fill="none" id="Fase-Fasekategori" style="stroke:#181818;stroke-width:1.0;"/></g><!--SRC=[hLB1Rjim3BtxAtZSK3GVO1G5DhJTXc93WA2zp3l85Useagb0eWqCGp-d-uRTysEZf2ZDSbu08nGfFhr7lYUdOeGx5H5-DI2_Yq5YKWkr43aO6j-oHl-RiufnzC6qkR-UIcqo3dVeCBJmjOJVVvHAPCLpB3sR7D_IF9NQWfgLRU4n_vUSzdQUa3X1tHnYmNff6lACm7u7VYWAMhWbI4m10nZOUi6Boe96XkWds29fgKped9pOmv7bggClwGd2t1yWfgiHZBK8CuC02Gf9UHSyU-kTGrh1em4xi_H9CGm-fAkVdE-LWy6fSLmTI0OpRhdIRDiop2plBeVGXzdASqfG4TxbLwEQHAgGrHBQA3EQCBo7zCh-DKaHNAaZMNISMMV0czGZ5uHGQbtsluCe86EX4KcGwJHD7jVbPHrqFPxjv3HzNA_0pDFPpUgTjLCakhcS7jAqFuI-QhruuC5ZuFFT5H9fUpRYj4kcwMZqsZwBo4v0t68Yl2NK4jt-bNCa5HOzJzd61w2hgtklyVgwih9oMZ1eSsPVIVSORJ0BEbbBBRvKk5FP_m4qI-uzitZlO8KZUWiRXF4v6_3Zpt74jF8Ujugqa_QsNGSVCSRQq8dFWu9lwqr7OiAqy44-jLYd0X-ichWucGzIHwUZlPSLOKUVztyIDPdUNm00]--></g></svg>