<svg xmlns="http://www.w3.org/2000/svg" xmlns:xlink="http://www.w3.org/1999/xlink" contentStyleType="text/css" height="611px" preserveAspectRatio="none" style="width:1450px;height:611px;background:#FFFFFF;" version="1.1" viewBox="0 0 1450 611" width="1450px" zoomAndPan="magnify"><defs/><g><!--class ReferanseJournalpost--><g id="elem_ReferanseJournalpost"><rect codeLine="2" fill="#F1F1F1" height="130.4414" id="ReferanseJournalpost" rx="2.5" ry="2.5" style="stroke:#181818;stroke-width:0.5;" width="355" x="1088.5" y="123.11"/><ellipse cx="1188.25" cy="139.11" fill="#ADD1B2" rx="11" ry="11" style="stroke:#181818;stroke-width:1.0;"/><path d="M1190.7231,145.2531 Q1190.1421,145.5519 1189.5029,145.7013 Q1188.8638,145.8507 1188.1582,145.8507 Q1185.6514,145.8507 1184.3315,144.1989 Q1183.0117,142.547 1183.0117,139.4259 Q1183.0117,136.2965 1184.3315,134.6447 Q1185.6514,132.9928 1188.1582,132.9928 Q1188.8638,132.9928 1189.5112,133.1422 Q1190.1587,133.2916 1190.7231,133.5905 L1190.7231,136.3131 Q1190.0923,135.7321 1189.4988,135.4623 Q1188.9053,135.1925 1188.2744,135.1925 Q1186.9297,135.1925 1186.2449,136.2592 Q1185.5601,137.3258 1185.5601,139.4259 Q1185.5601,141.5177 1186.2449,142.5844 Q1186.9297,143.651 1188.2744,143.651 Q1188.9053,143.651 1189.4988,143.3812 Q1190.0923,143.1115 1190.7231,142.5304 Z " fill="#000000"/><text fill="#000000" font-family="sans-serif" font-size="14" lengthAdjust="spacing" textLength="147" x="1208.75" y="144.401">ReferanseJournalpost</text><line style="stroke:#181818;stroke-width:0.5;" x1="1089.5" x2="1442.5" y1="155.11" y2="155.11"/><text fill="#000000" font-family="sans-serif" font-size="14" lengthAdjust="spacing" textLength="108" x="1094.5" y="172.6452">systemId: string</text><text fill="#000000" font-family="sans-serif" font-size="14" lengthAdjust="spacing" textLength="150" x="1094.5" y="189.1334">registreringsID: string</text><text fill="#000000" font-family="sans-serif" font-size="14" lengthAdjust="spacing" textLength="222" x="1094.5" y="205.6217">journalnummer: Journalnummer</text><text fill="#000000" font-family="sans-serif" font-size="14" lengthAdjust="spacing" textLength="343" x="1094.5" y="222.11">saksJournalpostnummer: SaksJournalpostnummer</text><text fill="#000000" font-family="sans-serif" font-size="14" lengthAdjust="spacing" textLength="285" x="1094.5" y="238.5983">referanseEksternNoekkel: EksternNoekkel</text><line style="stroke:#181818;stroke-width:0.5;" x1="1089.5" x2="1442.5" y1="245.5514" y2="245.5514"/></g><!--class Fase--><g id="elem_Fase"><rect codeLine="5" fill="#F1F1F1" height="163.418" id="Fase" rx="2.5" ry="2.5" style="stroke:#181818;stroke-width:0.5;" width="335" x="162.5" y="106.62"/><ellipse cx="310.25" cy="122.62" fill="#ADD1B2" rx="11" ry="11" style="stroke:#181818;stroke-width:1.0;"/><path d="M312.7231,128.7631 Q312.1421,129.0619 311.5029,129.2113 Q310.8638,129.3607 310.1582,129.3607 Q307.6514,129.3607 306.3315,127.7089 Q305.0117,126.057 305.0117,122.9359 Q305.0117,119.8065 306.3315,118.1547 Q307.6514,116.5028 310.1582,116.5028 Q310.8638,116.5028 311.5112,116.6522 Q312.1587,116.8016 312.7231,117.1005 L312.7231,119.8231 Q312.0923,119.2421 311.4988,118.9723 Q310.9053,118.7025 310.2744,118.7025 Q308.9297,118.7025 308.2449,119.7692 Q307.5601,120.8358 307.5601,122.9359 Q307.5601,125.0277 308.2449,126.0944 Q308.9297,127.161 310.2744,127.161 Q310.9053,127.161 311.4988,126.8912 Q312.0923,126.6215 312.7231,126.0404 Z " fill="#000000"/><text fill="#000000" font-family="sans-serif" font-size="14" lengthAdjust="spacing" textLength="31" x="330.75" y="127.911">Fase</text><line style="stroke:#181818;stroke-width:0.5;" x1="163.5" x2="496.5" y1="138.62" y2="138.62"/><ellipse cx="173.5" cy="152.3641" fill="#000000" rx="3" ry="3" style="stroke:#000000;stroke-width:1.0;"/><text fill="#000000" font-family="sans-serif" font-size="14" lengthAdjust="spacing" textLength="89" x="182.5" y="156.1552">faseid: string</text><ellipse cx="173.5" cy="168.8524" fill="#000000" rx="3" ry="3" style="stroke:#000000;stroke-width:1.0;"/><text fill="#000000" font-family="sans-serif" font-size="14" lengthAdjust="spacing" textLength="109" x="182.5" y="172.6434">fasenavn: string</text><ellipse cx="173.5" cy="185.3407" fill="#000000" rx="3" ry="3" style="stroke:#000000;stroke-width:1.0;"/><text fill="#000000" font-family="sans-serif" font-size="14" lengthAdjust="spacing" textLength="153" x="182.5" y="189.1317">kategori: Fasekategori</text><ellipse cx="173.5" cy="201.829" fill="#000000" rx="3" ry="3" style="stroke:#000000;stroke-width:1.0;"/><text fill="#000000" font-family="sans-serif" font-size="14" lengthAdjust="spacing" textLength="161" x="182.5" y="205.62">status: FaseStatusEnum</text><text fill="#000000" font-family="sans-serif" font-size="14" lengthAdjust="spacing" textLength="131" x="182.5" y="222.1083">milepeler: Milepel[]</text><text fill="#000000" font-family="sans-serif" font-size="14" lengthAdjust="spacing" textLength="100" x="182.5" y="238.5966">vedtak: Vedtak</text><text fill="#000000" font-family="sans-serif" font-size="14" lengthAdjust="spacing" textLength="309" x="182.5" y="255.0848">referanseJournalpost: ReferanseJournalpost[]</text><line style="stroke:#181818;stroke-width:0.5;" x1="163.5" x2="496.5" y1="262.038" y2="262.038"/></g><g id="elem_GMN5"><path d="M57,6 L57,46.6211 A0,0 0 0 0 57,46.6211 L326,46.6211 L330,106.47 L334,46.6211 L603,46.6211 A0,0 0 0 0 603,46.6211 L603,16 L593,6 L57,6 A0,0 0 0 0 57,6 " fill="#FEFFDD" style="stroke:#181818;stroke-width:0.5;"/><path d="M593,6 L593,16 L603,16 L593,6 " fill="#FEFFDD" style="stroke:#181818;stroke-width:0.5;"/><text fill="#000000" font-family="sans-serif" font-size="13" lengthAdjust="spacing" textLength="369" x="63" y="23.5684">En fase er i hovedsak det som hender mellom to milepeler.</text><text fill="#000000" font-family="sans-serif" font-size="13" lengthAdjust="spacing" textLength="525" x="63" y="38.8789">Interne faser sendes ikke ut ved denne protokollen. Vi kutter derfor ut Global flagg.</text></g><path d="M532.5,163.02 L532.5,179.3305 L271.5,150.8641 L532.5,187.3305 L532.5,203.6411 A0,0 0 0 0 532.5,203.6411 L1053.5,203.6411 A0,0 0 0 0 1053.5,203.6411 L1053.5,173.02 L1043.5,163.02 L532.5,163.02 A0,0 0 0 0 532.5,163.02 " fill="#FEFFDD" style="stroke:#181818;stroke-width:0.5;"/><path d="M1043.5,163.02 L1043.5,173.02 L1053.5,173.02 L1043.5,163.02 " fill="#FEFFDD" style="stroke:#181818;stroke-width:0.5;"/><text fill="#000000" font-family="sans-serif" font-size="13" lengthAdjust="spacing" textLength="500" x="538.5" y="180.5884">Faseid brukes alene (ikke sammen med saksnummer) for &#229; hente en enkelt fase</text><text fill="#000000" font-family="sans-serif" font-size="13" lengthAdjust="spacing" textLength="165" x="538.5" y="195.8989">Den m&#229; dermed v&#230;re unik</text><!--class Vedtak--><g id="elem_Vedtak"><rect codeLine="36" fill="#F1F1F1" height="89.5977" id="Vedtak" rx="2.5" ry="2.5" style="stroke:#181818;stroke-width:0.5;" width="184" x="7" y="333.97"/><ellipse cx="71.25" cy="354.2805" fill="#ADD1B2" rx="11" ry="11" style="stroke:#181818;stroke-width:1.0;"/><path d="M73.7231,360.4236 Q73.1421,360.7224 72.5029,360.8719 Q71.8638,361.0213 71.1582,361.0213 Q68.6514,361.0213 67.3315,359.3694 Q66.0117,357.7176 66.0117,354.5965 Q66.0117,351.4671 67.3315,349.8152 Q68.6514,348.1634 71.1582,348.1634 Q71.8638,348.1634 72.5112,348.3128 Q73.1587,348.4622 73.7231,348.761 L73.7231,351.4837 Q73.0923,350.9026 72.4988,350.6328 Q71.9053,350.3631 71.2744,350.3631 Q69.9297,350.3631 69.2449,351.4297 Q68.5601,352.4964 68.5601,354.5965 Q68.5601,356.6883 69.2449,357.7549 Q69.9297,358.8216 71.2744,358.8216 Q71.9053,358.8216 72.4988,358.5518 Q73.0923,358.282 73.7231,357.701 Z " fill="#000000"/><text fill="#000000" font-family="sans-serif" font-size="12" font-style="italic" lengthAdjust="spacing" textLength="42" x="94.25" y="350.5716">&#171;Kode&#187;</text><text fill="#000000" font-family="sans-serif" font-size="14" lengthAdjust="spacing" textLength="47" x="91.75" y="366.638">Vedtak</text><line style="stroke:#181818;stroke-width:0.5;" x1="8" x2="190" y1="374.5911" y2="374.5911"/><ellipse cx="18" cy="388.3352" fill="#000000" rx="3" ry="3" style="stroke:#000000;stroke-width:1.0;"/><text fill="#000000" font-family="sans-serif" font-size="14" lengthAdjust="spacing" textLength="116" x="27" y="392.1262">kodeverdi: string</text><text fill="#000000" font-family="sans-serif" font-size="14" lengthAdjust="spacing" textLength="158" x="27" y="408.6145">kodebeskrivelse: string</text><line style="stroke:#181818;stroke-width:0.5;" x1="8" x2="190" y1="415.5677" y2="415.5677"/></g><!--class FaseStatusEnum--><g id="elem_FaseStatusEnum"><rect codeLine="28" fill="#F1F1F1" height="97.4648" id="FaseStatusEnum" rx="2.5" ry="2.5" style="stroke:#181818;stroke-width:0.5;" width="144" x="242" y="330.04"/><ellipse cx="257" cy="346.04" fill="#EB937F" rx="11" ry="11" style="stroke:#181818;stroke-width:1.0;"/><path d="M260.6143,352.54 L252.8945,352.54 L252.8945,340.1469 L260.6143,340.1469 L260.6143,342.3051 L255.3433,342.3051 L255.3433,344.978 L260.1162,344.978 L260.1162,347.1362 L255.3433,347.1362 L255.3433,350.3818 L260.6143,350.3818 Z " fill="#000000"/><text fill="#000000" font-family="sans-serif" font-size="14" lengthAdjust="spacing" textLength="112" x="271" y="351.331">FaseStatusEnum</text><line style="stroke:#181818;stroke-width:0.5;" x1="243" x2="385" y1="362.04" y2="362.04"/><ellipse cx="253" cy="375.7841" fill="none" rx="3" ry="3" style="stroke:#038048;stroke-width:1.0;"/><text fill="#000000" font-family="sans-serif" font-size="14" lengthAdjust="spacing" textLength="55" x="262" y="379.5752">Planlagt</text><ellipse cx="253" cy="392.2724" fill="none" rx="3" ry="3" style="stroke:#038048;stroke-width:1.0;"/><text fill="#000000" font-family="sans-serif" font-size="14" lengthAdjust="spacing" textLength="88" x="262" y="396.0634">UnderArbeid</text><ellipse cx="253" cy="408.7607" fill="none" rx="3" ry="3" style="stroke:#038048;stroke-width:1.0;"/><text fill="#000000" font-family="sans-serif" font-size="14" lengthAdjust="spacing" textLength="48" x="262" y="412.5517">Utfoert</text><line style="stroke:#181818;stroke-width:0.5;" x1="243" x2="385" y1="419.5048" y2="419.5048"/></g><!--class Fasekategori--><g id="elem_Fasekategori"><rect codeLine="41" fill="#F1F1F1" height="89.5977" id="Fasekategori" rx="2.5" ry="2.5" style="stroke:#181818;stroke-width:0.5;" width="184" x="421" y="333.97"/><ellipse cx="464.8" cy="354.2805" fill="#ADD1B2" rx="11" ry="11" style="stroke:#181818;stroke-width:1.0;"/><path d="M467.2731,360.4236 Q466.6921,360.7224 466.0529,360.8719 Q465.4138,361.0213 464.7082,361.0213 Q462.2014,361.0213 460.8815,359.3694 Q459.5617,357.7176 459.5617,354.5965 Q459.5617,351.4671 460.8815,349.8152 Q462.2014,348.1634 464.7082,348.1634 Q465.4138,348.1634 466.0612,348.3128 Q466.7087,348.4622 467.2731,348.761 L467.2731,351.4837 Q466.6423,350.9026 466.0488,350.6328 Q465.4553,350.3631 464.8244,350.3631 Q463.4797,350.3631 462.7949,351.4297 Q462.1101,352.4964 462.1101,354.5965 Q462.1101,356.6883 462.7949,357.7549 Q463.4797,358.8216 464.8244,358.8216 Q465.4553,358.8216 466.0488,358.5518 Q466.6423,358.282 467.2731,357.701 Z " fill="#000000"/><text fill="#000000" font-family="sans-serif" font-size="12" font-style="italic" lengthAdjust="spacing" textLength="42" x="508.2" y="350.5716">&#171;Kode&#187;</text><text fill="#000000" font-family="sans-serif" font-size="14" lengthAdjust="spacing" textLength="88" x="485.2" y="366.638">Fasekategori</text><line style="stroke:#181818;stroke-width:0.5;" x1="422" x2="604" y1="374.5911" y2="374.5911"/><ellipse cx="432" cy="388.3352" fill="#000000" rx="3" ry="3" style="stroke:#000000;stroke-width:1.0;"/><text fill="#000000" font-family="sans-serif" font-size="14" lengthAdjust="spacing" textLength="116" x="441" y="392.1262">kodeverdi: string</text><text fill="#000000" font-family="sans-serif" font-size="14" lengthAdjust="spacing" textLength="158" x="441" y="408.6145">kodebeskrivelse: string</text><line style="stroke:#181818;stroke-width:0.5;" x1="422" x2="604" y1="415.5677" y2="415.5677"/></g><g id="elem_GMN16"><path d="M9,145.06 L9,231.6127 A0,0 0 0 0 9,231.6127 L71.03,231.6127 L91.72,333.55 L79.03,231.6127 L127,231.6127 A0,0 0 0 0 127,231.6127 L127,155.06 L117,145.06 L9,145.06 A0,0 0 0 0 9,145.06 " fill="#FEFFDD" style="stroke:#181818;stroke-width:0.5;"/><path d="M117,145.06 L117,155.06 L127,155.06 L117,145.06 " fill="#FEFFDD" style="stroke:#181818;stroke-width:0.5;"/><text fill="#000000" font-family="sans-serif" font-size="13" lengthAdjust="spacing" textLength="69" x="15" y="162.6284">Eksempler:</text><text fill="#000000" font-family="sans-serif" font-size="13" lengthAdjust="spacing" textLength="56" x="15" y="177.9389">godkjent</text><text fill="#000000" font-family="sans-serif" font-size="13" lengthAdjust="spacing" textLength="97" x="15" y="193.2495">delvis godkjent</text><text fill="#000000" font-family="sans-serif" font-size="13" lengthAdjust="spacing" textLength="42" x="15" y="208.56">avsl&#229;tt</text><text fill="#000000" font-family="sans-serif" font-size="13" lengthAdjust="spacing" textLength="37" x="15" y="223.8705">avvist</text></g><g id="elem_GMN19"><path d="M207.5,487.51 L207.5,604.6838 A0,0 0 0 0 207.5,604.6838 L818.5,604.6838 A0,0 0 0 0 818.5,604.6838 L818.5,497.51 L808.5,487.51 L517,487.51 L513,423.64 L509,487.51 L207.5,487.51 A0,0 0 0 0 207.5,487.51 " fill="#FEFFDD" style="stroke:#181818;stroke-width:0.5;"/><path d="M808.5,487.51 L808.5,497.51 L818.5,497.51 L808.5,487.51 " fill="#FEFFDD" style="stroke:#181818;stroke-width:0.5;"/><text fill="#000000" font-family="sans-serif" font-size="13" lengthAdjust="spacing" textLength="305" x="213.5" y="505.0784">Se gjerne Byggesaksbehandling::Prosesskategori</text><text fill="#000000" font-family="sans-serif" font-size="13" lengthAdjust="spacing" textLength="45" x="217.5" y="520.3889">fra NPS</text><text fill="#000000" font-family="sans-serif" font-size="13" lengthAdjust="spacing" textLength="210" x="213.5" y="535.6995">Vi m&#229; f&#229; avklart denne kodelisten</text><text fill="#000000" font-family="sans-serif" font-size="13" lengthAdjust="spacing" textLength="590" x="213.5" y="551.01">Vi m&#229; ha en som er generell som betyr at det ikke er fastsatt hvis kategori skal v&#230;re required.</text><text fill="#000000" font-family="sans-serif" font-size="13" lengthAdjust="spacing" textLength="69" x="213.5" y="566.3205">Eksempler:</text><text fill="#000000" font-family="sans-serif" font-size="13" lengthAdjust="spacing" textLength="34" x="213.5" y="581.6311">Klage</text><text fill="#000000" font-family="sans-serif" font-size="13" lengthAdjust="spacing" textLength="43" x="213.5" y="596.9416">H&#248;ring</text></g><!--link Fase to ReferanseJournalpost--><g id="link_Fase_ReferanseJournalpost"><path codeLine="15" d="M456.38,106.13 C480.75,93.94 506.74,83.26 532.5,76.62 C644.62,47.75 941.1,48.88 1053.5,76.62 C1091.94,86.11 1120.5978,98.1709 1154.6678,116.8509 " fill="none" id="Fase-to-ReferanseJournalpost" style="stroke:#181818;stroke-width:1.0;"/><polygon fill="#181818" points="1165.19,122.62,1161.8519,116.228,1154.6678,116.8509,1158.0058,123.2428,1165.19,122.62" style="stroke:#181818;stroke-width:1.0;"/></g><!--link Fase to Vedtak--><g id="link_Fase_Vedtak"><path codeLine="24" d="M230.69,270.34 C204.04,292.09 176.21,314.79 153.03,333.7 " fill="none" id="Fase-Vedtak" style="stroke:#181818;stroke-width:1.0;"/></g><!--link Fase to FaseStatusEnum--><g id="link_Fase_FaseStatusEnum"><path codeLine="25" d="M323.12,270.34 C321.4,290.59 319.61,311.67 318.08,329.74 " fill="none" id="Fase-FaseStatusEnum" style="stroke:#181818;stroke-width:1.0;"/></g><!--link Fase to Fasekategori--><g id="link_Fase_Fasekategori"><path codeLine="26" d="M408.67,270.34 C429.79,292.09 451.84,314.79 470.2,333.7 " fill="none" id="Fase-Fasekategori" style="stroke:#181818;stroke-width:1.0;"/></g><!--SRC=[fLFDJjmm4BxdAQQt5aHGhn52QbNe3sg5Yk3IxS4XawonCzwE9v5GnUFGP-XzNwnZPxEx86wDj1jx_l9zCz-yidJhXmQXF2xBOmgbYsLhzIyQ5riJaSlnRTcYznXBnXRPKCIxC30PlmfHZc-zYR6nfcFJbwkXq2URu5opuNS1-XoaIhQf80fRwdOsCYCzjJeZs0MsLSwVRvClYf4XJfwhV3wZeS- -tdfSeKUkuEjq_F4pEqPinBWARl8xcxOqlkneLF3z1QlMU2YAJEJeuCM8eg0W219M4Dg9SWLd18aS88E5PL08sareK2267fP8ZNfwxQdU9EombmlwJ89CcFCPOWgDO9r362HnqIgaxXK72IxeLAY46mjk4CrJ9xU1K-X77shZeVMcwyeDIBRTKcQOLJND97VaF1-Xvi7fvunMHNYTlnfDtoCfs0QI8hJTFV8RI5zPFoOgMbVzI0wzPDIvu8UKem4AAAMEwp-i3CWwA9GIP3XpOu_csSpNP-FTDs_re6M6_bdaHco7bzwGyfRfTfsw_OxhcUlXjRG1MT9azsStWKZJSn7xLPBIWhhGk3ibkT0YVhGHTWOpHhz-b7nIZy2i-qsXavEBqE3fwRm2JcyZScEVw3rPQuoExOXUfpBx7lQtQ6Rz_pKpuJg8gF8sGjWMh-0AeRlBydj_ttMO1bxZqb3ZDRsgBZb4Z75EMAZAsS2towi5gGJJk5lzcT5vmx8HQiBYjJj8sw2bIOf9cw2AxLHgh9kGxpNAFOEHl2fPVXgXcf9eH62P-hz5gp3yHbUClmRBsEZwxC_kGZM02_gq_flOwtZ-0G00]--></g></svg>