<svg xmlns="http://www.w3.org/2000/svg" xmlns:xlink="http://www.w3.org/1999/xlink" contentStyleType="text/css" height="864px" preserveAspectRatio="none" style="width:1568px;height:864px;background:#FFFFFF;" version="1.1" viewBox="0 0 1568 864" width="1568px" zoomAndPan="magnify"><defs/><g><!--class Fase--><g id="elem_Fase"><rect codeLine="2" fill="#F1F1F1" height="163.418" id="Fase" rx="2.5" ry="2.5" style="stroke:#181818;stroke-width:0.5;" width="199" x="971.5" y="7"/><ellipse cx="1051.25" cy="23" fill="#ADD1B2" rx="11" ry="11" style="stroke:#181818;stroke-width:1.0;"/><path d="M1053.7231,29.1431 Q1053.1421,29.4419 1052.5029,29.5913 Q1051.8638,29.7407 1051.1582,29.7407 Q1048.6514,29.7407 1047.3315,28.0889 Q1046.0117,26.437 1046.0117,23.3159 Q1046.0117,20.1865 1047.3315,18.5347 Q1048.6514,16.8828 1051.1582,16.8828 Q1051.8638,16.8828 1052.5112,17.0322 Q1053.1587,17.1816 1053.7231,17.4805 L1053.7231,20.2031 Q1053.0923,19.6221 1052.4988,19.3523 Q1051.9053,19.0825 1051.2744,19.0825 Q1049.9297,19.0825 1049.2449,20.1492 Q1048.5601,21.2158 1048.5601,23.3159 Q1048.5601,25.4077 1049.2449,26.4744 Q1049.9297,27.541 1051.2744,27.541 Q1051.9053,27.541 1052.4988,27.2712 Q1053.0923,27.0015 1053.7231,26.4204 Z " fill="#000000"/><text fill="#000000" font-family="sans-serif" font-size="14" lengthAdjust="spacing" textLength="31" x="1071.75" y="28.291">Fase</text><line style="stroke:#181818;stroke-width:0.5;" x1="972.5" x2="1169.5" y1="39" y2="39"/><ellipse cx="982.5" cy="52.7441" fill="none" rx="3" ry="3" style="stroke:#038048;stroke-width:1.0;"/><text fill="#000000" font-family="sans-serif" font-size="14" lengthAdjust="spacing" textLength="109" x="991.5" y="56.5352">fasenavn: string</text><ellipse cx="982.5" cy="69.2324" fill="none" rx="3" ry="3" style="stroke:#038048;stroke-width:1.0;"/><text fill="#000000" font-family="sans-serif" font-size="14" lengthAdjust="spacing" textLength="89" x="991.5" y="73.0234">faseid: string</text><ellipse cx="982.5" cy="85.7207" fill="none" rx="3" ry="3" style="stroke:#038048;stroke-width:1.0;"/><text fill="#000000" font-family="sans-serif" font-size="14" lengthAdjust="spacing" textLength="153" x="991.5" y="89.5117">kategori: Fasekategori</text><ellipse cx="982.5" cy="102.209" fill="none" rx="3" ry="3" style="stroke:#038048;stroke-width:1.0;"/><text fill="#000000" font-family="sans-serif" font-size="14" lengthAdjust="spacing" textLength="131" x="991.5" y="106">milepeler: Milepel[]</text><ellipse cx="982.5" cy="118.6973" fill="none" rx="3" ry="3" style="stroke:#038048;stroke-width:1.0;"/><text fill="#000000" font-family="sans-serif" font-size="14" lengthAdjust="spacing" textLength="161" x="991.5" y="122.4883">status: FaseStatusEnum</text><ellipse cx="982.5" cy="135.1855" fill="none" rx="3" ry="3" style="stroke:#038048;stroke-width:1.0;"/><text fill="#000000" font-family="sans-serif" font-size="14" lengthAdjust="spacing" textLength="100" x="991.5" y="138.9766">vedtak: Vedtak</text><ellipse cx="982.5" cy="151.6738" fill="none" rx="3" ry="3" style="stroke:#038048;stroke-width:1.0;"/><text fill="#000000" font-family="sans-serif" font-size="14" lengthAdjust="spacing" textLength="173" x="991.5" y="155.4648">dokumenter: Dokument[]</text><line style="stroke:#181818;stroke-width:0.5;" x1="972.5" x2="1169.5" y1="162.418" y2="162.418"/></g><!--class Dokument--><g id="elem_Dokument"><rect codeLine="91" fill="#F1F1F1" height="179.9063" id="Dokument" rx="2.5" ry="2.5" style="stroke:#181818;stroke-width:0.5;" width="335" x="608.5" y="279.88"/><ellipse cx="736.25" cy="295.88" fill="#ADD1B2" rx="11" ry="11" style="stroke:#181818;stroke-width:1.0;"/><path d="M738.7231,302.0231 Q738.1421,302.3219 737.5029,302.4713 Q736.8638,302.6207 736.1582,302.6207 Q733.6514,302.6207 732.3315,300.9689 Q731.0117,299.317 731.0117,296.1959 Q731.0117,293.0665 732.3315,291.4147 Q733.6514,289.7628 736.1582,289.7628 Q736.8638,289.7628 737.5112,289.9122 Q738.1587,290.0616 738.7231,290.3605 L738.7231,293.0831 Q738.0923,292.5021 737.4988,292.2323 Q736.9053,291.9625 736.2744,291.9625 Q734.9297,291.9625 734.2449,293.0292 Q733.5601,294.0958 733.5601,296.1959 Q733.5601,298.2877 734.2449,299.3544 Q734.9297,300.421 736.2744,300.421 Q736.9053,300.421 737.4988,300.1512 Q738.0923,299.8815 738.7231,299.3004 Z " fill="#000000"/><text fill="#000000" font-family="sans-serif" font-size="14" lengthAdjust="spacing" textLength="71" x="756.75" y="301.171">Dokument</text><line style="stroke:#181818;stroke-width:0.5;" x1="609.5" x2="942.5" y1="311.88" y2="311.88"/><ellipse cx="619.5" cy="325.6241" fill="none" rx="3" ry="3" style="stroke:#038048;stroke-width:1.0;"/><text fill="#000000" font-family="sans-serif" font-size="14" lengthAdjust="spacing" textLength="61" x="628.5" y="329.4152">id: string</text><ellipse cx="619.5" cy="342.1124" fill="none" rx="3" ry="3" style="stroke:#038048;stroke-width:1.0;"/><text fill="#000000" font-family="sans-serif" font-size="14" lengthAdjust="spacing" textLength="79" x="628.5" y="345.9034">tittel: string</text><ellipse cx="619.5" cy="358.6007" fill="none" rx="3" ry="3" style="stroke:#038048;stroke-width:1.0;"/><text fill="#000000" font-family="sans-serif" font-size="14" lengthAdjust="spacing" textLength="94" x="628.5" y="362.3917">filnavn: string</text><ellipse cx="619.5" cy="375.089" fill="none" rx="3" ry="3" style="stroke:#038048;stroke-width:1.0;"/><text fill="#000000" font-family="sans-serif" font-size="14" lengthAdjust="spacing" textLength="207" x="628.5" y="378.88">dokumenttype: Dokumenttype</text><ellipse cx="619.5" cy="391.5773" fill="none" rx="3" ry="3" style="stroke:#038048;stroke-width:1.0;"/><text fill="#000000" font-family="sans-serif" font-size="14" lengthAdjust="spacing" textLength="309" x="628.5" y="395.3683">referanseDokumentfil: ReferanseDokumentfil</text><ellipse cx="619.5" cy="408.0655" fill="none" rx="3" ry="3" style="stroke:#038048;stroke-width:1.0;"/><text fill="#000000" font-family="sans-serif" font-size="14" lengthAdjust="spacing" textLength="115" x="628.5" y="411.8566">mimetype: string</text><ellipse cx="619.5" cy="424.5538" fill="none" rx="3" ry="3" style="stroke:#038048;stroke-width:1.0;"/><text fill="#000000" font-family="sans-serif" font-size="14" lengthAdjust="spacing" textLength="146" x="628.5" y="428.3448">dokumentsdato: date</text><ellipse cx="619.5" cy="441.0421" fill="none" rx="3" ry="3" style="stroke:#038048;stroke-width:1.0;"/><text fill="#000000" font-family="sans-serif" font-size="14" lengthAdjust="spacing" textLength="114" x="628.5" y="444.8331">arkivnavn: string</text><line style="stroke:#181818;stroke-width:0.5;" x1="609.5" x2="942.5" y1="451.7863" y2="451.7863"/></g><!--class Milepel--><g id="elem_Milepel"><rect codeLine="36" fill="#F1F1F1" height="278.8359" id="Milepel" rx="2.5" ry="2.5" style="stroke:#181818;stroke-width:0.5;" width="325" x="248.5" y="230.42"/><ellipse cx="382.25" cy="246.42" fill="#ADD1B2" rx="11" ry="11" style="stroke:#181818;stroke-width:1.0;"/><path d="M384.7231,252.5631 Q384.1421,252.8619 383.5029,253.0113 Q382.8638,253.1607 382.1582,253.1607 Q379.6514,253.1607 378.3315,251.5089 Q377.0117,249.857 377.0117,246.7359 Q377.0117,243.6065 378.3315,241.9547 Q379.6514,240.3028 382.1582,240.3028 Q382.8638,240.3028 383.5112,240.4522 Q384.1587,240.6016 384.7231,240.9005 L384.7231,243.6231 Q384.0923,243.0421 383.4988,242.7723 Q382.9053,242.5025 382.2744,242.5025 Q380.9297,242.5025 380.2449,243.5692 Q379.5601,244.6358 379.5601,246.7359 Q379.5601,248.8277 380.2449,249.8944 Q380.9297,250.961 382.2744,250.961 Q382.9053,250.961 383.4988,250.6912 Q384.0923,250.4215 384.7231,249.8404 Z " fill="#000000"/><text fill="#000000" font-family="sans-serif" font-size="14" lengthAdjust="spacing" textLength="49" x="402.75" y="251.711">Milepel</text><line style="stroke:#181818;stroke-width:0.5;" x1="249.5" x2="572.5" y1="262.42" y2="262.42"/><ellipse cx="259.5" cy="276.1641" fill="none" rx="3" ry="3" style="stroke:#038048;stroke-width:1.0;"/><text fill="#000000" font-family="sans-serif" font-size="14" lengthAdjust="spacing" textLength="108" x="268.5" y="279.9552">systemId: string</text><ellipse cx="259.5" cy="292.6524" fill="none" rx="3" ry="3" style="stroke:#038048;stroke-width:1.0;"/><text fill="#000000" font-family="sans-serif" font-size="14" lengthAdjust="spacing" textLength="124" x="268.5" y="296.4434">beskrivelse: string</text><ellipse cx="259.5" cy="309.1407" fill="none" rx="3" ry="3" style="stroke:#038048;stroke-width:1.0;"/><text fill="#000000" font-family="sans-serif" font-size="14" lengthAdjust="spacing" textLength="143" x="268.5" y="312.9317">kategori: Milepeltype</text><ellipse cx="259.5" cy="325.629" fill="none" rx="3" ry="3" style="stroke:#038048;stroke-width:1.0;"/><text fill="#000000" font-family="sans-serif" font-size="14" lengthAdjust="spacing" textLength="96" x="268.5" y="329.42">fristdato: date</text><ellipse cx="259.5" cy="342.1173" fill="none" rx="3" ry="3" style="stroke:#038048;stroke-width:1.0;"/><text fill="#000000" font-family="sans-serif" font-size="14" lengthAdjust="spacing" textLength="116" x="268.5" y="345.9083">utfoertdato: date</text><ellipse cx="259.5" cy="358.6055" fill="none" rx="3" ry="3" style="stroke:#038048;stroke-width:1.0;"/><text fill="#000000" font-family="sans-serif" font-size="14" lengthAdjust="spacing" textLength="118" x="268.5" y="362.3966">journaldato: date</text><ellipse cx="259.5" cy="375.0938" fill="none" rx="3" ry="3" style="stroke:#038048;stroke-width:1.0;"/><text fill="#000000" font-family="sans-serif" font-size="14" lengthAdjust="spacing" textLength="105" x="268.5" y="378.8848">intern: boolean</text><ellipse cx="259.5" cy="391.5821" fill="none" rx="3" ry="3" style="stroke:#038048;stroke-width:1.0;"/><text fill="#000000" font-family="sans-serif" font-size="14" lengthAdjust="spacing" textLength="299" x="268.5" y="395.3731">referanseJournalpost: ReferanseJournalpost</text><ellipse cx="259.5" cy="408.0704" fill="none" rx="3" ry="3" style="stroke:#038048;stroke-width:1.0;"/><text fill="#000000" font-family="sans-serif" font-size="14" lengthAdjust="spacing" textLength="184" x="268.5" y="411.8614">referanseDokument: string</text><ellipse cx="259.5" cy="424.5587" fill="none" rx="3" ry="3" style="stroke:#038048;stroke-width:1.0;"/><text fill="#000000" font-family="sans-serif" font-size="14" lengthAdjust="spacing" textLength="110" x="268.5" y="428.3497">erStart: boolean</text><ellipse cx="259.5" cy="441.047" fill="none" rx="3" ry="3" style="stroke:#038048;stroke-width:1.0;"/><text fill="#000000" font-family="sans-serif" font-size="14" lengthAdjust="spacing" textLength="109" x="268.5" y="444.838">erSlutt: boolean</text><ellipse cx="259.5" cy="457.5352" fill="none" rx="3" ry="3" style="stroke:#038048;stroke-width:1.0;"/><text fill="#000000" font-family="sans-serif" font-size="14" lengthAdjust="spacing" textLength="179" x="268.5" y="461.3262">status: MilepelStatusEnum</text><ellipse cx="259.5" cy="474.0235" fill="none" rx="3" ry="3" style="stroke:#038048;stroke-width:1.0;"/><text fill="#000000" font-family="sans-serif" font-size="14" lengthAdjust="spacing" textLength="122" x="268.5" y="477.8145">erGlobal: boolean</text><ellipse cx="259.5" cy="490.5118" fill="none" rx="3" ry="3" style="stroke:#038048;stroke-width:1.0;"/><text fill="#000000" font-family="sans-serif" font-size="14" lengthAdjust="spacing" textLength="173" x="268.5" y="494.3028">dokumenter: Dokument[]</text><line style="stroke:#181818;stroke-width:0.5;" x1="249.5" x2="572.5" y1="501.2559" y2="501.2559"/></g><!--class Fasekategori--><g id="elem_Fasekategori"><rect codeLine="31" fill="#F1F1F1" height="89.5977" id="Fasekategori" rx="2.5" ry="2.5" style="stroke:#181818;stroke-width:0.5;" width="184" x="979" y="325.04"/><ellipse cx="1022.8" cy="345.3505" fill="#ADD1B2" rx="11" ry="11" style="stroke:#181818;stroke-width:1.0;"/><path d="M1025.2731,351.4936 Q1024.6921,351.7924 1024.0529,351.9419 Q1023.4138,352.0913 1022.7082,352.0913 Q1020.2014,352.0913 1018.8815,350.4394 Q1017.5617,348.7876 1017.5617,345.6665 Q1017.5617,342.5371 1018.8815,340.8852 Q1020.2014,339.2334 1022.7082,339.2334 Q1023.4138,339.2334 1024.0612,339.3828 Q1024.7087,339.5322 1025.2731,339.831 L1025.2731,342.5537 Q1024.6423,341.9726 1024.0488,341.7028 Q1023.4553,341.4331 1022.8244,341.4331 Q1021.4797,341.4331 1020.7949,342.4997 Q1020.1101,343.5664 1020.1101,345.6665 Q1020.1101,347.7583 1020.7949,348.8249 Q1021.4797,349.8916 1022.8244,349.8916 Q1023.4553,349.8916 1024.0488,349.6218 Q1024.6423,349.352 1025.2731,348.771 Z " fill="#000000"/><text fill="#000000" font-family="sans-serif" font-size="12" font-style="italic" lengthAdjust="spacing" textLength="42" x="1066.2" y="341.6416">&#171;Kode&#187;</text><text fill="#000000" font-family="sans-serif" font-size="14" lengthAdjust="spacing" textLength="88" x="1043.2" y="357.708">Fasekategori</text><line style="stroke:#181818;stroke-width:0.5;" x1="980" x2="1162" y1="365.6611" y2="365.6611"/><ellipse cx="990" cy="379.4052" fill="none" rx="3" ry="3" style="stroke:#038048;stroke-width:1.0;"/><text fill="#000000" font-family="sans-serif" font-size="14" lengthAdjust="spacing" textLength="116" x="999" y="383.1962">kodeverdi: string</text><ellipse cx="990" cy="395.8935" fill="none" rx="3" ry="3" style="stroke:#038048;stroke-width:1.0;"/><text fill="#000000" font-family="sans-serif" font-size="14" lengthAdjust="spacing" textLength="158" x="999" y="399.6845">kodebeskrivelse: string</text><line style="stroke:#181818;stroke-width:0.5;" x1="980" x2="1162" y1="406.6377" y2="406.6377"/></g><!--class Vedtak--><g id="elem_Vedtak"><rect codeLine="26" fill="#F1F1F1" height="89.5977" id="Vedtak" rx="2.5" ry="2.5" style="stroke:#181818;stroke-width:0.5;" width="184" x="1377" y="325.04"/><ellipse cx="1441.25" cy="345.3505" fill="#ADD1B2" rx="11" ry="11" style="stroke:#181818;stroke-width:1.0;"/><path d="M1443.7231,351.4936 Q1443.1421,351.7924 1442.5029,351.9419 Q1441.8638,352.0913 1441.1582,352.0913 Q1438.6514,352.0913 1437.3315,350.4394 Q1436.0117,348.7876 1436.0117,345.6665 Q1436.0117,342.5371 1437.3315,340.8852 Q1438.6514,339.2334 1441.1582,339.2334 Q1441.8638,339.2334 1442.5112,339.3828 Q1443.1587,339.5322 1443.7231,339.831 L1443.7231,342.5537 Q1443.0923,341.9726 1442.4988,341.7028 Q1441.9053,341.4331 1441.2744,341.4331 Q1439.9297,341.4331 1439.2449,342.4997 Q1438.5601,343.5664 1438.5601,345.6665 Q1438.5601,347.7583 1439.2449,348.8249 Q1439.9297,349.8916 1441.2744,349.8916 Q1441.9053,349.8916 1442.4988,349.6218 Q1443.0923,349.352 1443.7231,348.771 Z " fill="#000000"/><text fill="#000000" font-family="sans-serif" font-size="12" font-style="italic" lengthAdjust="spacing" textLength="42" x="1464.25" y="341.6416">&#171;Kode&#187;</text><text fill="#000000" font-family="sans-serif" font-size="14" lengthAdjust="spacing" textLength="47" x="1461.75" y="357.708">Vedtak</text><line style="stroke:#181818;stroke-width:0.5;" x1="1378" x2="1560" y1="365.6611" y2="365.6611"/><ellipse cx="1388" cy="379.4052" fill="none" rx="3" ry="3" style="stroke:#038048;stroke-width:1.0;"/><text fill="#000000" font-family="sans-serif" font-size="14" lengthAdjust="spacing" textLength="116" x="1397" y="383.1962">kodeverdi: string</text><ellipse cx="1388" cy="395.8935" fill="none" rx="3" ry="3" style="stroke:#038048;stroke-width:1.0;"/><text fill="#000000" font-family="sans-serif" font-size="14" lengthAdjust="spacing" textLength="158" x="1397" y="399.6845">kodebeskrivelse: string</text><line style="stroke:#181818;stroke-width:0.5;" x1="1378" x2="1560" y1="406.6377" y2="406.6377"/></g><!--class FaseStatusEnum--><g id="elem_FaseStatusEnum"><rect codeLine="18" fill="#F1F1F1" height="97.4648" id="FaseStatusEnum" rx="2.5" ry="2.5" style="stroke:#181818;stroke-width:0.5;" width="144" x="1198" y="321.1"/><ellipse cx="1213" cy="337.1" fill="#EB937F" rx="11" ry="11" style="stroke:#181818;stroke-width:1.0;"/><path d="M1216.6143,343.6 L1208.8945,343.6 L1208.8945,331.2069 L1216.6143,331.2069 L1216.6143,333.3651 L1211.3433,333.3651 L1211.3433,336.038 L1216.1162,336.038 L1216.1162,338.1962 L1211.3433,338.1962 L1211.3433,341.4418 L1216.6143,341.4418 Z " fill="#000000"/><text fill="#000000" font-family="sans-serif" font-size="14" lengthAdjust="spacing" textLength="112" x="1227" y="342.391">FaseStatusEnum</text><line style="stroke:#181818;stroke-width:0.5;" x1="1199" x2="1341" y1="353.1" y2="353.1"/><ellipse cx="1209" cy="366.8441" fill="none" rx="3" ry="3" style="stroke:#038048;stroke-width:1.0;"/><text fill="#000000" font-family="sans-serif" font-size="14" lengthAdjust="spacing" textLength="55" x="1218" y="370.6352">Planlagt</text><ellipse cx="1209" cy="383.3324" fill="none" rx="3" ry="3" style="stroke:#038048;stroke-width:1.0;"/><text fill="#000000" font-family="sans-serif" font-size="14" lengthAdjust="spacing" textLength="88" x="1218" y="387.1234">UnderArbeid</text><ellipse cx="1209" cy="399.8207" fill="none" rx="3" ry="3" style="stroke:#038048;stroke-width:1.0;"/><text fill="#000000" font-family="sans-serif" font-size="14" lengthAdjust="spacing" textLength="48" x="1218" y="403.6117">Utfoert</text><line style="stroke:#181818;stroke-width:0.5;" x1="1199" x2="1341" y1="410.5648" y2="410.5648"/></g><g id="elem_GMN13"><path d="M1410,45.43 L1410,131.9827 A0,0 0 0 0 1410,131.9827 L1465,131.9827 L1469,324.76 L1473,131.9827 L1528,131.9827 A0,0 0 0 0 1528,131.9827 L1528,55.43 L1518,45.43 L1410,45.43 A0,0 0 0 0 1410,45.43 " fill="#FEFFDD" style="stroke:#181818;stroke-width:0.5;"/><path d="M1518,45.43 L1518,55.43 L1528,55.43 L1518,45.43 " fill="#FEFFDD" style="stroke:#181818;stroke-width:0.5;"/><text fill="#000000" font-family="sans-serif" font-size="13" lengthAdjust="spacing" textLength="69" x="1416" y="62.9984">Eksempler:</text><text fill="#000000" font-family="sans-serif" font-size="13" lengthAdjust="spacing" textLength="56" x="1416" y="78.3089">godkjent</text><text fill="#000000" font-family="sans-serif" font-size="13" lengthAdjust="spacing" textLength="97" x="1416" y="93.6195">delvis godkjent</text><text fill="#000000" font-family="sans-serif" font-size="13" lengthAdjust="spacing" textLength="42" x="1416" y="108.93">avsl&#229;tt</text><text fill="#000000" font-family="sans-serif" font-size="13" lengthAdjust="spacing" textLength="37" x="1416" y="124.2405">avvist</text></g><!--class Milepeltype--><g id="elem_Milepeltype"><rect codeLine="56" fill="#F1F1F1" height="80.9766" id="Milepeltype" rx="2.5" ry="2.5" style="stroke:#181818;stroke-width:0.5;" width="184" x="7" y="593.99"/><ellipse cx="55.75" cy="609.99" fill="#ADD1B2" rx="11" ry="11" style="stroke:#181818;stroke-width:1.0;"/><path d="M58.2231,616.1331 Q57.6421,616.4319 57.0029,616.5813 Q56.3638,616.7307 55.6582,616.7307 Q53.1514,616.7307 51.8315,615.0789 Q50.5117,613.427 50.5117,610.3059 Q50.5117,607.1765 51.8315,605.5247 Q53.1514,603.8728 55.6582,603.8728 Q56.3638,603.8728 57.0112,604.0222 Q57.6587,604.1716 58.2231,604.4705 L58.2231,607.1931 Q57.5923,606.6121 56.9988,606.3423 Q56.4053,606.0725 55.7744,606.0725 Q54.4297,606.0725 53.7449,607.1392 Q53.0601,608.2058 53.0601,610.3059 Q53.0601,612.3977 53.7449,613.4644 Q54.4297,614.531 55.7744,614.531 Q56.4053,614.531 56.9988,614.2612 Q57.5923,613.9915 58.2231,613.4104 Z " fill="#000000"/><text fill="#000000" font-family="sans-serif" font-size="14" lengthAdjust="spacing" textLength="78" x="76.25" y="615.281">Milepeltype</text><line style="stroke:#181818;stroke-width:0.5;" x1="8" x2="190" y1="625.99" y2="625.99"/><ellipse cx="18" cy="639.7341" fill="none" rx="3" ry="3" style="stroke:#038048;stroke-width:1.0;"/><text fill="#000000" font-family="sans-serif" font-size="14" lengthAdjust="spacing" textLength="116" x="27" y="643.5252">kodeverdi: string</text><ellipse cx="18" cy="656.2224" fill="none" rx="3" ry="3" style="stroke:#038048;stroke-width:1.0;"/><text fill="#000000" font-family="sans-serif" font-size="14" lengthAdjust="spacing" textLength="158" x="27" y="660.0134">kodebeskrivelse: string</text><line style="stroke:#181818;stroke-width:0.5;" x1="8" x2="190" y1="666.9666" y2="666.9666"/></g><!--class ReferanseJournalpost--><g id="elem_ReferanseJournalpost"><rect codeLine="61" fill="#F1F1F1" height="130.4414" id="ReferanseJournalpost" rx="2.5" ry="2.5" style="stroke:#181818;stroke-width:0.5;" width="369" x="226.5" y="569.25"/><ellipse cx="333.25" cy="585.25" fill="#ADD1B2" rx="11" ry="11" style="stroke:#181818;stroke-width:1.0;"/><path d="M335.7231,591.3931 Q335.1421,591.6919 334.5029,591.8413 Q333.8638,591.9907 333.1582,591.9907 Q330.6514,591.9907 329.3315,590.3389 Q328.0117,588.687 328.0117,585.5659 Q328.0117,582.4365 329.3315,580.7847 Q330.6514,579.1328 333.1582,579.1328 Q333.8638,579.1328 334.5112,579.2822 Q335.1587,579.4316 335.7231,579.7305 L335.7231,582.4531 Q335.0923,581.8721 334.4988,581.6023 Q333.9053,581.3325 333.2744,581.3325 Q331.9297,581.3325 331.2449,582.3992 Q330.5601,583.4658 330.5601,585.5659 Q330.5601,587.6577 331.2449,588.7244 Q331.9297,589.791 333.2744,589.791 Q333.9053,589.791 334.4988,589.5212 Q335.0923,589.2515 335.7231,588.6704 Z " fill="#000000"/><text fill="#000000" font-family="sans-serif" font-size="14" lengthAdjust="spacing" textLength="147" x="353.75" y="590.541">ReferanseJournalpost</text><line style="stroke:#181818;stroke-width:0.5;" x1="227.5" x2="594.5" y1="601.25" y2="601.25"/><ellipse cx="237.5" cy="614.9941" fill="none" rx="3" ry="3" style="stroke:#038048;stroke-width:1.0;"/><text fill="#000000" font-family="sans-serif" font-size="14" lengthAdjust="spacing" textLength="108" x="246.5" y="618.7852">systemId: string</text><ellipse cx="237.5" cy="631.4824" fill="none" rx="3" ry="3" style="stroke:#038048;stroke-width:1.0;"/><text fill="#000000" font-family="sans-serif" font-size="14" lengthAdjust="spacing" textLength="150" x="246.5" y="635.2734">registreringsID: string</text><ellipse cx="237.5" cy="647.9707" fill="none" rx="3" ry="3" style="stroke:#038048;stroke-width:1.0;"/><text fill="#000000" font-family="sans-serif" font-size="14" lengthAdjust="spacing" textLength="222" x="246.5" y="651.7617">journalnummer: Journalnummer</text><ellipse cx="237.5" cy="664.459" fill="none" rx="3" ry="3" style="stroke:#038048;stroke-width:1.0;"/><text fill="#000000" font-family="sans-serif" font-size="14" lengthAdjust="spacing" textLength="343" x="246.5" y="668.25">saksJournalpostnummer: SaksJournalpostnummer</text><ellipse cx="237.5" cy="680.9473" fill="none" rx="3" ry="3" style="stroke:#038048;stroke-width:1.0;"/><text fill="#000000" font-family="sans-serif" font-size="14" lengthAdjust="spacing" textLength="285" x="246.5" y="684.7383">referanseEksternNoekkel: EksternNoekkel</text><line style="stroke:#181818;stroke-width:0.5;" x1="227.5" x2="594.5" y1="691.6914" y2="691.6914"/></g><!--class MilepelStatusEnum--><g id="elem_MilepelStatusEnum"><rect codeLine="102" fill="#F1F1F1" height="80.9766" id="MilepelStatusEnum" rx="2.5" ry="2.5" style="stroke:#181818;stroke-width:0.5;" width="162" x="631" y="593.99"/><ellipse cx="646" cy="609.99" fill="#EB937F" rx="11" ry="11" style="stroke:#181818;stroke-width:1.0;"/><path d="M649.6143,616.49 L641.8945,616.49 L641.8945,604.0969 L649.6143,604.0969 L649.6143,606.2551 L644.3433,606.2551 L644.3433,608.928 L649.1162,608.928 L649.1162,611.0862 L644.3433,611.0862 L644.3433,614.3318 L649.6143,614.3318 Z " fill="#000000"/><text fill="#000000" font-family="sans-serif" font-size="14" lengthAdjust="spacing" textLength="130" x="660" y="615.281">MilepelStatusEnum</text><line style="stroke:#181818;stroke-width:0.5;" x1="632" x2="792" y1="625.99" y2="625.99"/><ellipse cx="642" cy="639.7341" fill="none" rx="3" ry="3" style="stroke:#038048;stroke-width:1.0;"/><text fill="#000000" font-family="sans-serif" font-size="14" lengthAdjust="spacing" textLength="36" x="651" y="643.5252">N&#229;dd</text><ellipse cx="642" cy="656.2224" fill="none" rx="3" ry="3" style="stroke:#038048;stroke-width:1.0;"/><text fill="#000000" font-family="sans-serif" font-size="14" lengthAdjust="spacing" textLength="55" x="651" y="660.0134">Planlagt</text><line style="stroke:#181818;stroke-width:0.5;" x1="632" x2="792" y1="666.9666" y2="666.9666"/></g><!--class EksternNoekkel--><g id="elem_EksternNoekkel"><rect codeLine="86" fill="#F1F1F1" height="80.9766" id="EksternNoekkel" rx="2.5" ry="2.5" style="stroke:#181818;stroke-width:0.5;" width="143" x="118.5" y="767.94"/><ellipse cx="135.75" cy="783.94" fill="#ADD1B2" rx="11" ry="11" style="stroke:#181818;stroke-width:1.0;"/><path d="M138.2231,790.0831 Q137.6421,790.3819 137.0029,790.5313 Q136.3638,790.6807 135.6582,790.6807 Q133.1514,790.6807 131.8315,789.0289 Q130.5117,787.377 130.5117,784.2559 Q130.5117,781.1265 131.8315,779.4747 Q133.1514,777.8228 135.6582,777.8228 Q136.3638,777.8228 137.0112,777.9722 Q137.6587,778.1216 138.2231,778.4205 L138.2231,781.1431 Q137.5923,780.5621 136.9988,780.2923 Q136.4053,780.0225 135.7744,780.0225 Q134.4297,780.0225 133.7449,781.0892 Q133.0601,782.1558 133.0601,784.2559 Q133.0601,786.3477 133.7449,787.4144 Q134.4297,788.481 135.7744,788.481 Q136.4053,788.481 136.9988,788.2112 Q137.5923,787.9415 138.2231,787.3604 Z " fill="#000000"/><text fill="#000000" font-family="sans-serif" font-size="14" lengthAdjust="spacing" textLength="106" x="150.25" y="789.231">EksternNoekkel</text><line style="stroke:#181818;stroke-width:0.5;" x1="119.5" x2="260.5" y1="799.94" y2="799.94"/><ellipse cx="129.5" cy="813.6841" fill="none" rx="3" ry="3" style="stroke:#038048;stroke-width:1.0;"/><text fill="#000000" font-family="sans-serif" font-size="14" lengthAdjust="spacing" textLength="117" x="138.5" y="817.4752">fagsystem: string</text><ellipse cx="129.5" cy="830.1724" fill="none" rx="3" ry="3" style="stroke:#038048;stroke-width:1.0;"/><text fill="#000000" font-family="sans-serif" font-size="14" lengthAdjust="spacing" textLength="102" x="138.5" y="833.9634">noekkel: string</text><line style="stroke:#181818;stroke-width:0.5;" x1="119.5" x2="260.5" y1="840.9166" y2="840.9166"/></g><!--class SaksJournalpostnummer--><g id="elem_SaksJournalpostnummer"><rect codeLine="75" fill="#F1F1F1" height="97.4648" id="SaksJournalpostnummer" rx="2.5" ry="2.5" style="stroke:#181818;stroke-width:0.5;" width="230" x="296" y="759.7"/><ellipse cx="324.5" cy="775.7" fill="#ADD1B2" rx="11" ry="11" style="stroke:#181818;stroke-width:1.0;"/><path d="M326.9731,781.8431 Q326.3921,782.1419 325.7529,782.2913 Q325.1138,782.4407 324.4082,782.4407 Q321.9014,782.4407 320.5815,780.7889 Q319.2617,779.137 319.2617,776.0159 Q319.2617,772.8865 320.5815,771.2347 Q321.9014,769.5828 324.4082,769.5828 Q325.1138,769.5828 325.7612,769.7322 Q326.4087,769.8816 326.9731,770.1805 L326.9731,772.9031 Q326.3423,772.3221 325.7488,772.0523 Q325.1553,771.7825 324.5244,771.7825 Q323.1797,771.7825 322.4949,772.8492 Q321.8101,773.9158 321.8101,776.0159 Q321.8101,778.1077 322.4949,779.1744 Q323.1797,780.241 324.5244,780.241 Q325.1553,780.241 325.7488,779.9712 Q326.3423,779.7015 326.9731,779.1204 Z " fill="#000000"/><text fill="#000000" font-family="sans-serif" font-size="14" lengthAdjust="spacing" textLength="168" x="341.5" y="780.991">SaksJournalpostnummer</text><line style="stroke:#181818;stroke-width:0.5;" x1="297" x2="525" y1="791.7" y2="791.7"/><ellipse cx="307" cy="805.4441" fill="none" rx="3" ry="3" style="stroke:#038048;stroke-width:1.0;"/><text fill="#000000" font-family="sans-serif" font-size="14" lengthAdjust="spacing" textLength="114" x="316" y="809.2352">saksaar: number</text><ellipse cx="307" cy="821.9324" fill="none" rx="3" ry="3" style="stroke:#038048;stroke-width:1.0;"/><text fill="#000000" font-family="sans-serif" font-size="14" lengthAdjust="spacing" textLength="204" x="316" y="825.7234">sakssekvensnummer: number</text><ellipse cx="307" cy="838.4207" fill="none" rx="3" ry="3" style="stroke:#038048;stroke-width:1.0;"/><text fill="#000000" font-family="sans-serif" font-size="14" lengthAdjust="spacing" textLength="199" x="316" y="842.2117">journalpostnummer: number</text><line style="stroke:#181818;stroke-width:0.5;" x1="297" x2="525" y1="849.1648" y2="849.1648"/></g><!--class Journalnummer--><g id="elem_Journalnummer"><rect codeLine="81" fill="#F1F1F1" height="80.9766" id="Journalnummer" rx="2.5" ry="2.5" style="stroke:#181818;stroke-width:0.5;" width="249" x="560.5" y="767.94"/><ellipse cx="627.25" cy="783.94" fill="#ADD1B2" rx="11" ry="11" style="stroke:#181818;stroke-width:1.0;"/><path d="M629.7231,790.0831 Q629.1421,790.3819 628.5029,790.5313 Q627.8638,790.6807 627.1582,790.6807 Q624.6514,790.6807 623.3315,789.0289 Q622.0117,787.377 622.0117,784.2559 Q622.0117,781.1265 623.3315,779.4747 Q624.6514,777.8228 627.1582,777.8228 Q627.8638,777.8228 628.5112,777.9722 Q629.1587,778.1216 629.7231,778.4205 L629.7231,781.1431 Q629.0923,780.5621 628.4988,780.2923 Q627.9053,780.0225 627.2744,780.0225 Q625.9297,780.0225 625.2449,781.0892 Q624.5601,782.1558 624.5601,784.2559 Q624.5601,786.3477 625.2449,787.4144 Q625.9297,788.481 627.2744,788.481 Q627.9053,788.481 628.4988,788.2112 Q629.0923,787.9415 629.7231,787.3604 Z " fill="#000000"/><text fill="#000000" font-family="sans-serif" font-size="14" lengthAdjust="spacing" textLength="107" x="647.75" y="789.231">Journalnummer</text><line style="stroke:#181818;stroke-width:0.5;" x1="561.5" x2="808.5" y1="799.94" y2="799.94"/><ellipse cx="571.5" cy="813.6841" fill="none" rx="3" ry="3" style="stroke:#038048;stroke-width:1.0;"/><text fill="#000000" font-family="sans-serif" font-size="14" lengthAdjust="spacing" textLength="133" x="580.5" y="817.4752">journalaar: number</text><ellipse cx="571.5" cy="830.1724" fill="none" rx="3" ry="3" style="stroke:#038048;stroke-width:1.0;"/><text fill="#000000" font-family="sans-serif" font-size="14" lengthAdjust="spacing" textLength="223" x="580.5" y="833.9634">journalsekvensnummer: number</text><line style="stroke:#181818;stroke-width:0.5;" x1="561.5" x2="808.5" y1="840.9166" y2="840.9166"/></g><!--link Fase to Dokument--><g id="link_Fase_Dokument"><path codeLine="12" d="M985.28,170.82 C949.3,204.86 916.0462,236.3221 879.1862,271.2021 " fill="none" id="Fase-to-Dokument" style="stroke:#181818;stroke-width:1.0;"/><polygon fill="#181818" points="870.47,279.45,877.5774,278.2314,879.1862,271.2021,872.0788,272.4206,870.47,279.45" style="stroke:#181818;stroke-width:1.0;"/></g><!--link Fase to Milepel--><g id="link_Fase_Milepel"><path codeLine="13" d="M971.38,107.66 C871.39,128.23 714.86,167.45 591,230.42 C585.29,233.32 579.58,236.41 573.89,239.66 " fill="none" id="Fase-Milepel" style="stroke:#181818;stroke-width:1.0;"/></g><!--link Fase to Fasekategori--><g id="link_Fase_Fasekategori"><path codeLine="14" d="M1071,170.82 C1071,221.04 1071,283.58 1071,324.79 " fill="none" id="Fase-Fasekategori" style="stroke:#181818;stroke-width:1.0;"/></g><!--link Fase to Vedtak--><g id="link_Fase_Vedtak"><path codeLine="15" d="M1170.73,125.19 C1229.59,149.18 1303.41,184.8 1360,230.42 C1392.86,256.91 1421.97,295.06 1441.82,324.61 " fill="none" id="Fase-Vedtak" style="stroke:#181818;stroke-width:1.0;"/></g><!--link Fase to FaseStatusEnum--><g id="link_Fase_FaseStatusEnum"><path codeLine="16" d="M1136.28,170.59 C1151.32,189.93 1167,210.7 1181,230.42 C1201.84,259.77 1223.73,293.76 1240.58,320.71 " fill="none" id="Fase-FaseStatusEnum" style="stroke:#181818;stroke-width:1.0;"/></g><!--link Milepel to Milepeltype--><g id="link_Milepel_Milepeltype"><path codeLine="53" d="M248.15,507.92 C210.76,539.39 173.91,570.42 146.19,593.75 " fill="none" id="Milepel-Milepeltype" style="stroke:#181818;stroke-width:1.0;"/></g><!--link Milepel to ReferanseJournalpost--><g id="link_Milepel_ReferanseJournalpost"><path codeLine="54" d="M411,509.46 C411,530.18 411,550.65 411,568.81 " fill="none" id="Milepel-ReferanseJournalpost" style="stroke:#181818;stroke-width:1.0;"/></g><!--link Milepel to MilepelStatusEnum--><g id="link_Milepel_MilepelStatusEnum"><path codeLine="69" d="M569.87,509.46 C605.2,540.29 639.92,570.58 666.19,593.51 " fill="none" id="Milepel-MilepelStatusEnum" style="stroke:#181818;stroke-width:1.0;"/></g><!--link Milepel to Dokument--><g id="link_Milepel_Dokument"><path codeLine="70" d="M573.9,369.84 C585.34,369.84 584.79,369.84 596.24,369.84 " fill="none" id="Milepel-to-Dokument" style="stroke:#181818;stroke-width:1.0;"/><polygon fill="#181818" points="608.24,369.84,602.24,365.84,596.24,369.84,602.24,373.84,608.24,369.84" style="stroke:#181818;stroke-width:1.0;"/></g><!--link ReferanseJournalpost to EksternNoekkel--><g id="link_ReferanseJournalpost_EksternNoekkel"><path codeLine="71" d="M328.08,699.99 C298.93,722.67 267.04,747.48 241.26,767.54 " fill="none" id="ReferanseJournalpost-EksternNoekkel" style="stroke:#181818;stroke-width:1.0;"/></g><!--link ReferanseJournalpost to SaksJournalpostnummer--><g id="link_ReferanseJournalpost_SaksJournalpostnummer"><path codeLine="72" d="M411,699.99 C411,719.62 411,740.85 411,759.21 " fill="none" id="ReferanseJournalpost-SaksJournalpostnummer" style="stroke:#181818;stroke-width:1.0;"/></g><!--link ReferanseJournalpost to Journalnummer--><g id="link_ReferanseJournalpost_Journalnummer"><path codeLine="73" d="M513.81,699.99 C549.95,722.67 589.48,747.48 621.44,767.54 " fill="none" id="ReferanseJournalpost-Journalnummer" style="stroke:#181818;stroke-width:1.0;"/></g><!--SRC=[hLNDRjmW4BxxAJYtoWjOKQHAIQkaIXGrQYzD3smyQx5WMC7OKbJju-H9yc8T6x0nPdjfz-25RvWVlldXHN7ds6VkWFsk6Fq-xccj-Q1hvj0AtIweQDQOv0YjiQAUzEFEopgXu0WARCtk_VBdBoznoB5tNkTfMj_ellEo0HhaicO_fd-FDKRs7MWSJLs7DTawLTKKzSM76Gt0HVGuxrVXHJ3uICyauLH0tmoC33qghXLlqU- -wmRi9xiZUWA0UmCMnmYrGM1eZipiWpzMinlfe3kEr3phrZJoGA4_an4r2CSMW0zElR_Xj289igfwcP8L35rUVZKDN5t5g2Jj1h2Do994y0wSj680vM0MdgAvb9p_PZHa89fnhmwXkytgfsGXAwnW1r-F4EhG4XKDHrCp-WQmzupdyC7qLdELmsAi9IhldJ4AkFQWXJrOhXtSUQMZSLYpRmKqEn-BRtq3i5Gs5ZCdXAeUSpGsHBXhtXDWloYpuohJEjyMaVkb4IRw4hXuhNNcHfL_BOAIcxzNX8MMqcjXHDpjzLeOqad4TEEbxz9jCCgbItp5aqybE4iZDULO5Gy6f0GrDMcoBzEQP6eM9jEeU7tIpaoVErQE-jpfDHiX0KKJSmP8o3dHG_0kPP36mG3QHVPIyM5BRX3FILy54dq5lOsxW9SzpYRNX2tlLEkBQ5qbEcOmhyQObwYVlsOe41CzxqEexLCOEsziaQNtbX6r6Gra9Hab2HgVoWwyhP8NbuylRgKOLb6TmckrASjurOVtjwR9tgvJzGS0]--></g></svg>