<svg xmlns="http://www.w3.org/2000/svg" xmlns:xlink="http://www.w3.org/1999/xlink" contentStyleType="text/css" height="468px" preserveAspectRatio="none" style="width:1058px;height:468px;background:#FFFFFF;" version="1.1" viewBox="0 0 1058 468" width="1058px" zoomAndPan="magnify"><defs/><g><!--class HentProsessResultat--><g id="elem_HentProsessResultat"><rect codeLine="1" fill="#F1F1F1" height="80.9766" id="HentProsessResultat" rx="2.5" ry="2.5" style="stroke:#181818;stroke-width:0.5;" width="177" x="83" y="165.51"/><ellipse cx="100.7" cy="181.51" fill="#ADD1B2" rx="11" ry="11" style="stroke:#181818;stroke-width:1.0;"/><path d="M103.1731,187.6531 Q102.5921,187.9519 101.9529,188.1013 Q101.3138,188.2507 100.6082,188.2507 Q98.1014,188.2507 96.7815,186.5989 Q95.4617,184.947 95.4617,181.8259 Q95.4617,178.6965 96.7815,177.0447 Q98.1014,175.3928 100.6082,175.3928 Q101.3138,175.3928 101.9612,175.5422 Q102.6087,175.6916 103.1731,175.9905 L103.1731,178.7131 Q102.5423,178.1321 101.9488,177.8623 Q101.3553,177.5925 100.7244,177.5925 Q99.3797,177.5925 98.6949,178.6592 Q98.0101,179.7258 98.0101,181.8259 Q98.0101,183.9177 98.6949,184.9844 Q99.3797,186.051 100.7244,186.051 Q101.3553,186.051 101.9488,185.7812 Q102.5423,185.5115 103.1731,184.9304 Z " fill="#000000"/><text fill="#000000" font-family="sans-serif" font-size="14" lengthAdjust="spacing" textLength="139" x="115.3" y="186.801">HentProsessResultat</text><line style="stroke:#181818;stroke-width:0.5;" x1="84" x2="259" y1="197.51" y2="197.51"/><ellipse cx="94" cy="211.2541" fill="none" rx="3" ry="3" style="stroke:#038048;stroke-width:1.0;"/><text fill="#000000" font-family="sans-serif" font-size="14" lengthAdjust="spacing" textLength="151" x="103" y="215.0452">prosesser: Prosesser[]</text><ellipse cx="94" cy="227.7424" fill="none" rx="3" ry="3" style="stroke:#038048;stroke-width:1.0;"/><text fill="#000000" font-family="sans-serif" font-size="14" lengthAdjust="spacing" textLength="67" x="103" y="231.5334">fase: Fase</text><line style="stroke:#181818;stroke-width:0.5;" x1="84" x2="259" y1="238.4866" y2="238.4866"/></g><!--class Prosess--><g id="elem_Prosess"><rect codeLine="9" fill="#F1F1F1" height="229.3711" id="Prosess" rx="2.5" ry="2.5" style="stroke:#181818;stroke-width:0.5;" width="256" x="295.5" y="91.31"/><ellipse cx="393.25" cy="107.31" fill="#ADD1B2" rx="11" ry="11" style="stroke:#181818;stroke-width:1.0;"/><path d="M395.7231,113.4531 Q395.1421,113.7519 394.5029,113.9013 Q393.8638,114.0507 393.1582,114.0507 Q390.6514,114.0507 389.3315,112.3989 Q388.0117,110.747 388.0117,107.6259 Q388.0117,104.4965 389.3315,102.8447 Q390.6514,101.1928 393.1582,101.1928 Q393.8638,101.1928 394.5112,101.3422 Q395.1587,101.4916 395.7231,101.7905 L395.7231,104.5131 Q395.0923,103.9321 394.4988,103.6623 Q393.9053,103.3925 393.2744,103.3925 Q391.9297,103.3925 391.2449,104.4592 Q390.5601,105.5258 390.5601,107.6259 Q390.5601,109.7177 391.2449,110.7844 Q391.9297,111.851 393.2744,111.851 Q393.9053,111.851 394.4988,111.5812 Q395.0923,111.3115 395.7231,110.7304 Z " fill="#000000"/><text fill="#000000" font-family="sans-serif" font-size="14" lengthAdjust="spacing" textLength="52" x="413.75" y="112.601">Prosess</text><line style="stroke:#181818;stroke-width:0.5;" x1="296.5" x2="550.5" y1="123.31" y2="123.31"/><ellipse cx="306.5" cy="137.0541" fill="none" rx="3" ry="3" style="stroke:#038048;stroke-width:1.0;"/><text fill="#000000" font-family="sans-serif" font-size="14" lengthAdjust="spacing" textLength="108" x="315.5" y="140.8452">systemId: string</text><ellipse cx="306.5" cy="153.5424" fill="none" rx="3" ry="3" style="stroke:#038048;stroke-width:1.0;"/><text fill="#000000" font-family="sans-serif" font-size="14" lengthAdjust="spacing" textLength="185" x="315.5" y="157.3334">saksnummer: Saksnummer</text><ellipse cx="306.5" cy="170.0307" fill="none" rx="3" ry="3" style="stroke:#038048;stroke-width:1.0;"/><text fill="#000000" font-family="sans-serif" font-size="14" lengthAdjust="spacing" textLength="131" x="315.5" y="173.8217">milepeler: Milepel[]</text><ellipse cx="306.5" cy="186.519" fill="none" rx="3" ry="3" style="stroke:#038048;stroke-width:1.0;"/><text fill="#000000" font-family="sans-serif" font-size="14" lengthAdjust="spacing" textLength="100" x="315.5" y="190.31">kategori: Kode</text><ellipse cx="306.5" cy="203.0073" fill="none" rx="3" ry="3" style="stroke:#038048;stroke-width:1.0;"/><text fill="#000000" font-family="sans-serif" font-size="14" lengthAdjust="spacing" textLength="126" x="315.5" y="206.7983">antallUkerFrist: int</text><ellipse cx="306.5" cy="219.4955" fill="none" rx="3" ry="3" style="stroke:#038048;stroke-width:1.0;"/><text fill="#000000" font-family="sans-serif" font-size="14" lengthAdjust="spacing" textLength="185" x="315.5" y="223.2866">medDispensasjon: boolean</text><ellipse cx="306.5" cy="235.9838" fill="none" rx="3" ry="3" style="stroke:#038048;stroke-width:1.0;"/><text fill="#000000" font-family="sans-serif" font-size="14" lengthAdjust="spacing" textLength="230" x="315.5" y="239.7748">medReguleringsendring: boolean</text><ellipse cx="306.5" cy="252.4721" fill="none" rx="3" ry="3" style="stroke:#038048;stroke-width:1.0;"/><text fill="#000000" font-family="sans-serif" font-size="14" lengthAdjust="spacing" textLength="126" x="315.5" y="256.2631">prosesskoe: string</text><ellipse cx="306.5" cy="268.9604" fill="none" rx="3" ry="3" style="stroke:#038048;stroke-width:1.0;"/><text fill="#000000" font-family="sans-serif" font-size="14" lengthAdjust="spacing" textLength="135" x="315.5" y="272.7514">prosessteam: string</text><ellipse cx="306.5" cy="285.4487" fill="none" rx="3" ry="3" style="stroke:#038048;stroke-width:1.0;"/><text fill="#000000" font-family="sans-serif" font-size="14" lengthAdjust="spacing" textLength="163" x="315.5" y="289.2397">prosessansvarlig: string</text><ellipse cx="306.5" cy="301.937" fill="none" rx="3" ry="3" style="stroke:#038048;stroke-width:1.0;"/><text fill="#000000" font-family="sans-serif" font-size="14" lengthAdjust="spacing" textLength="211" x="315.5" y="305.728">gebyrunderlag: Gebyrunderlag</text><line style="stroke:#181818;stroke-width:0.5;" x1="296.5" x2="550.5" y1="312.6811" y2="312.6811"/></g><!--class Fase--><g id="elem_Fase"><rect fill="#F1F1F1" height="48" id="Fase" rx="2.5" ry="2.5" style="stroke:#181818;stroke-width:0.5;" width="63" x="505" y="397.17"/><ellipse cx="520" cy="413.17" fill="#ADD1B2" rx="11" ry="11" style="stroke:#181818;stroke-width:1.0;"/><path d="M522.4731,419.3131 Q521.8921,419.6119 521.2529,419.7613 Q520.6138,419.9107 519.9082,419.9107 Q517.4014,419.9107 516.0815,418.2589 Q514.7617,416.607 514.7617,413.4859 Q514.7617,410.3565 516.0815,408.7047 Q517.4014,407.0528 519.9082,407.0528 Q520.6138,407.0528 521.2612,407.2022 Q521.9087,407.3516 522.4731,407.6505 L522.4731,410.3731 Q521.8423,409.7921 521.2488,409.5223 Q520.6553,409.2525 520.0244,409.2525 Q518.6797,409.2525 517.9949,410.3192 Q517.3101,411.3858 517.3101,413.4859 Q517.3101,415.5777 517.9949,416.6444 Q518.6797,417.711 520.0244,417.711 Q520.6553,417.711 521.2488,417.4412 Q521.8423,417.1715 522.4731,416.5904 Z " fill="#000000"/><text fill="#000000" font-family="sans-serif" font-size="14" lengthAdjust="spacing" textLength="31" x="534" y="418.461">Fase</text><line style="stroke:#181818;stroke-width:0.5;" x1="506" x2="567" y1="429.17" y2="429.17"/><line style="stroke:#181818;stroke-width:0.5;" x1="506" x2="567" y1="437.17" y2="437.17"/></g><!--class Saksnummer--><g id="elem_Saksnummer"><rect codeLine="28" fill="#F1F1F1" height="80.9766" id="Saksnummer" rx="2.5" ry="2.5" style="stroke:#181818;stroke-width:0.5;" width="225" x="245" y="380.68"/><ellipse cx="308.75" cy="396.68" fill="#ADD1B2" rx="11" ry="11" style="stroke:#181818;stroke-width:1.0;"/><path d="M311.2231,402.8231 Q310.6421,403.1219 310.0029,403.2713 Q309.3638,403.4207 308.6582,403.4207 Q306.1514,403.4207 304.8315,401.7689 Q303.5117,400.117 303.5117,396.9959 Q303.5117,393.8665 304.8315,392.2147 Q306.1514,390.5628 308.6582,390.5628 Q309.3638,390.5628 310.0112,390.7122 Q310.6587,390.8616 311.2231,391.1605 L311.2231,393.8831 Q310.5923,393.3021 309.9988,393.0323 Q309.4053,392.7625 308.7744,392.7625 Q307.4297,392.7625 306.7449,393.8292 Q306.0601,394.8958 306.0601,396.9959 Q306.0601,399.0877 306.7449,400.1544 Q307.4297,401.221 308.7744,401.221 Q309.4053,401.221 309.9988,400.9512 Q310.5923,400.6815 311.2231,400.1004 Z " fill="#000000"/><text fill="#000000" font-family="sans-serif" font-size="14" lengthAdjust="spacing" textLength="89" x="329.25" y="401.971">Saksnummer</text><line style="stroke:#181818;stroke-width:0.5;" x1="246" x2="469" y1="412.68" y2="412.68"/><ellipse cx="256" cy="426.4241" fill="none" rx="3" ry="3" style="stroke:#038048;stroke-width:1.0;"/><text fill="#000000" font-family="sans-serif" font-size="14" lengthAdjust="spacing" textLength="109" x="265" y="430.2152">saksaar: integer</text><ellipse cx="256" cy="442.9124" fill="none" rx="3" ry="3" style="stroke:#038048;stroke-width:1.0;"/><text fill="#000000" font-family="sans-serif" font-size="14" lengthAdjust="spacing" textLength="199" x="265" y="446.7034">sakssekvensnummer: integer</text><line style="stroke:#181818;stroke-width:0.5;" x1="246" x2="469" y1="453.6566" y2="453.6566"/></g><!--class Milepel--><g id="elem_Milepel"><rect codeLine="33" fill="#F1F1F1" height="229.3711" id="Milepel" rx="2.5" ry="2.5" style="stroke:#181818;stroke-width:0.5;" width="218" x="586.5" y="91.31"/><ellipse cx="666.75" cy="107.31" fill="#ADD1B2" rx="11" ry="11" style="stroke:#181818;stroke-width:1.0;"/><path d="M669.2231,113.4531 Q668.6421,113.7519 668.0029,113.9013 Q667.3638,114.0507 666.6582,114.0507 Q664.1514,114.0507 662.8315,112.3989 Q661.5117,110.747 661.5117,107.6259 Q661.5117,104.4965 662.8315,102.8447 Q664.1514,101.1928 666.6582,101.1928 Q667.3638,101.1928 668.0112,101.3422 Q668.6587,101.4916 669.2231,101.7905 L669.2231,104.5131 Q668.5923,103.9321 667.9988,103.6623 Q667.4053,103.3925 666.7744,103.3925 Q665.4297,103.3925 664.7449,104.4592 Q664.0601,105.5258 664.0601,107.6259 Q664.0601,109.7177 664.7449,110.7844 Q665.4297,111.851 666.7744,111.851 Q667.4053,111.851 667.9988,111.5812 Q668.5923,111.3115 669.2231,110.7304 Z " fill="#000000"/><text fill="#000000" font-family="sans-serif" font-size="14" lengthAdjust="spacing" textLength="49" x="687.25" y="112.601">Milepel</text><line style="stroke:#181818;stroke-width:0.5;" x1="587.5" x2="803.5" y1="123.31" y2="123.31"/><ellipse cx="597.5" cy="137.0541" fill="none" rx="3" ry="3" style="stroke:#038048;stroke-width:1.0;"/><text fill="#000000" font-family="sans-serif" font-size="14" lengthAdjust="spacing" textLength="108" x="606.5" y="140.8452">systemId: string</text><ellipse cx="597.5" cy="153.5424" fill="none" rx="3" ry="3" style="stroke:#038048;stroke-width:1.0;"/><text fill="#000000" font-family="sans-serif" font-size="14" lengthAdjust="spacing" textLength="124" x="606.5" y="157.3334">beskrivelse: string</text><ellipse cx="597.5" cy="170.0307" fill="none" rx="3" ry="3" style="stroke:#038048;stroke-width:1.0;"/><text fill="#000000" font-family="sans-serif" font-size="14" lengthAdjust="spacing" textLength="100" x="606.5" y="173.8217">kategori: Kode</text><ellipse cx="597.5" cy="186.519" fill="none" rx="3" ry="3" style="stroke:#038048;stroke-width:1.0;"/><text fill="#000000" font-family="sans-serif" font-size="14" lengthAdjust="spacing" textLength="69" x="606.5" y="190.31">frist: date,</text><ellipse cx="597.5" cy="203.0073" fill="none" rx="3" ry="3" style="stroke:#038048;stroke-width:1.0;"/><text fill="#000000" font-family="sans-serif" font-size="14" lengthAdjust="spacing" textLength="85" x="606.5" y="206.7983">utfoert: date</text><ellipse cx="597.5" cy="219.4955" fill="none" rx="3" ry="3" style="stroke:#038048;stroke-width:1.0;"/><text fill="#000000" font-family="sans-serif" font-size="14" lengthAdjust="spacing" textLength="118" x="606.5" y="223.2866">journaldato: date</text><ellipse cx="597.5" cy="235.9838" fill="none" rx="3" ry="3" style="stroke:#038048;stroke-width:1.0;"/><text fill="#000000" font-family="sans-serif" font-size="14" lengthAdjust="spacing" textLength="105" x="606.5" y="239.7748">intern: boolean</text><ellipse cx="597.5" cy="252.4721" fill="none" rx="3" ry="3" style="stroke:#038048;stroke-width:1.0;"/><text fill="#000000" font-family="sans-serif" font-size="14" lengthAdjust="spacing" textLength="192" x="606.5" y="256.2631">referanseJournalpost: string</text><ellipse cx="597.5" cy="268.9604" fill="none" rx="3" ry="3" style="stroke:#038048;stroke-width:1.0;"/><text fill="#000000" font-family="sans-serif" font-size="14" lengthAdjust="spacing" textLength="184" x="606.5" y="272.7514">referanseDokument: string</text><ellipse cx="597.5" cy="285.4487" fill="none" rx="3" ry="3" style="stroke:#038048;stroke-width:1.0;"/><text fill="#000000" font-family="sans-serif" font-size="14" lengthAdjust="spacing" textLength="147" x="606.5" y="289.2397">faseFoerMilepel: Fase</text><ellipse cx="597.5" cy="301.937" fill="none" rx="3" ry="3" style="stroke:#038048;stroke-width:1.0;"/><text fill="#000000" font-family="sans-serif" font-size="14" lengthAdjust="spacing" textLength="148" x="606.5" y="305.728">faseEtterMilepel: Fase</text><line style="stroke:#181818;stroke-width:0.5;" x1="587.5" x2="803.5" y1="312.6811" y2="312.6811"/></g><!--class Gebyrunderlag--><g id="elem_Gebyrunderlag"><rect fill="#F1F1F1" height="48" id="Gebyrunderlag" rx="2.5" ry="2.5" style="stroke:#181818;stroke-width:0.5;" width="134" x="850.5" y="397.17"/><ellipse cx="865.5" cy="413.17" fill="#ADD1B2" rx="11" ry="11" style="stroke:#181818;stroke-width:1.0;"/><path d="M867.9731,419.3131 Q867.3921,419.6119 866.7529,419.7613 Q866.1138,419.9107 865.4082,419.9107 Q862.9014,419.9107 861.5815,418.2589 Q860.2617,416.607 860.2617,413.4859 Q860.2617,410.3565 861.5815,408.7047 Q862.9014,407.0528 865.4082,407.0528 Q866.1138,407.0528 866.7612,407.2022 Q867.4087,407.3516 867.9731,407.6505 L867.9731,410.3731 Q867.3423,409.7921 866.7488,409.5223 Q866.1553,409.2525 865.5244,409.2525 Q864.1797,409.2525 863.4949,410.3192 Q862.8101,411.3858 862.8101,413.4859 Q862.8101,415.5777 863.4949,416.6444 Q864.1797,417.711 865.5244,417.711 Q866.1553,417.711 866.7488,417.4412 Q867.3423,417.1715 867.9731,416.5904 Z " fill="#000000"/><text fill="#000000" font-family="sans-serif" font-size="14" lengthAdjust="spacing" textLength="102" x="879.5" y="418.461">Gebyrunderlag</text><line style="stroke:#181818;stroke-width:0.5;" x1="851.5" x2="983.5" y1="429.17" y2="429.17"/><line style="stroke:#181818;stroke-width:0.5;" x1="851.5" x2="983.5" y1="437.17" y2="437.17"/></g><!--class Kode--><g id="elem_Kode"><rect codeLine="50" fill="#F1F1F1" height="80.9766" id="Kode" rx="2.5" ry="2.5" style="stroke:#181818;stroke-width:0.5;" width="184" x="603.5" y="380.68"/><ellipse cx="673.75" cy="396.68" fill="#ADD1B2" rx="11" ry="11" style="stroke:#181818;stroke-width:1.0;"/><path d="M676.2231,402.8231 Q675.6421,403.1219 675.0029,403.2713 Q674.3638,403.4207 673.6582,403.4207 Q671.1514,403.4207 669.8315,401.7689 Q668.5117,400.117 668.5117,396.9959 Q668.5117,393.8665 669.8315,392.2147 Q671.1514,390.5628 673.6582,390.5628 Q674.3638,390.5628 675.0112,390.7122 Q675.6587,390.8616 676.2231,391.1605 L676.2231,393.8831 Q675.5923,393.3021 674.9988,393.0323 Q674.4053,392.7625 673.7744,392.7625 Q672.4297,392.7625 671.7449,393.8292 Q671.0601,394.8958 671.0601,396.9959 Q671.0601,399.0877 671.7449,400.1544 Q672.4297,401.221 673.7744,401.221 Q674.4053,401.221 674.9988,400.9512 Q675.5923,400.6815 676.2231,400.1004 Z " fill="#000000"/><text fill="#000000" font-family="sans-serif" font-size="14" lengthAdjust="spacing" textLength="35" x="694.25" y="401.971">Kode</text><line style="stroke:#181818;stroke-width:0.5;" x1="604.5" x2="786.5" y1="412.68" y2="412.68"/><ellipse cx="614.5" cy="426.4241" fill="none" rx="3" ry="3" style="stroke:#038048;stroke-width:1.0;"/><text fill="#000000" font-family="sans-serif" font-size="14" lengthAdjust="spacing" textLength="116" x="623.5" y="430.2152">kodeverdi: string</text><ellipse cx="614.5" cy="442.9124" fill="none" rx="3" ry="3" style="stroke:#038048;stroke-width:1.0;"/><text fill="#000000" font-family="sans-serif" font-size="14" lengthAdjust="spacing" textLength="158" x="623.5" y="446.7034">kodebeskrivelse: string</text><line style="stroke:#181818;stroke-width:0.5;" x1="604.5" x2="786.5" y1="453.6566" y2="453.6566"/></g><g id="elem_GMN17"><path d="M840,193.34 L840,218.6505 A0,0 0 0 0 840,218.6505 L939.91,218.6505 L920.56,396.86 L947.91,218.6505 L1051,218.6505 A0,0 0 0 0 1051,218.6505 L1051,203.34 L1041,193.34 L840,193.34 A0,0 0 0 0 840,193.34 " fill="#FEFFDD" style="stroke:#181818;stroke-width:0.5;"/><path d="M1041,193.34 L1041,203.34 L1051,203.34 L1041,193.34 " fill="#FEFFDD" style="stroke:#181818;stroke-width:0.5;"/><text fill="#000000" font-family="sans-serif" font-size="13" lengthAdjust="spacing" textLength="190" x="846" y="210.9084">Skal gebyrunderlag v&#230;re med?</text></g><g id="elem_GMN20"><path d="M6,6 L6,31.3105 A0,0 0 0 0 6,31.3105 L167.5,31.3105 L171.5,165.2 L175.5,31.3105 L337,31.3105 A0,0 0 0 0 337,31.3105 L337,16 L327,6 L6,6 A0,0 0 0 0 6,6 " fill="#FEFFDD" style="stroke:#181818;stroke-width:0.5;"/><path d="M327,6 L327,16 L337,16 L327,6 " fill="#FEFFDD" style="stroke:#181818;stroke-width:0.5;"/><text fill="#000000" font-family="sans-serif" font-size="13" lengthAdjust="spacing" textLength="310" x="12" y="23.5684">Fase med for &#229; vise hvilken fase man f&#229;r svar for?</text></g><!--link HentProsessResultat to Prosess--><g id="link_HentProsessResultat_Prosess"><path codeLine="6" d="M260.09,206 C271.8,206 271.5,206 283.2,206 " fill="none" id="HentProsessResultat-to-Prosess" style="stroke:#181818;stroke-width:1.0;"/><polygon fill="#181818" points="295.2,206,289.2,202,283.2,206,289.2,210,295.2,206" style="stroke:#181818;stroke-width:1.0;"/></g><!--link HentProsessResultat to Fase--><g id="link_HentProsessResultat_Fase"><path codeLine="7" d="M199.76,246.98 C219.06,271.54 246.66,301.8 277.5,320.68 C360.29,371.36 401.33,336.01 487.5,380.68 C495.84,385.01 504.11,390.88 511.41,396.78 " fill="none" id="HentProsessResultat-Fase" style="stroke:#181818;stroke-width:1.0;"/></g><!--link Prosess to Saksnummer--><g id="link_Prosess_Saksnummer"><path codeLine="23" d="M388.18,321.07 C381.56,342.46 375.07,363.43 369.77,380.54 " fill="none" id="Prosess-Saksnummer" style="stroke:#181818;stroke-width:1.0;"/></g><!--link Prosess to Milepel--><g id="link_Prosess_Milepel"><path codeLine="24" d="M551.8,206 C563.21,206 562.62,206 574.04,206 " fill="none" id="Prosess-to-Milepel" style="stroke:#181818;stroke-width:1.0;"/><polygon fill="#181818" points="586.04,206,580.04,202,574.04,206,580.04,210,586.04,206" style="stroke:#181818;stroke-width:1.0;"/></g><!--link Prosess to Gebyrunderlag--><g id="link_Prosess_Gebyrunderlag"><path codeLine="25" d="M551.77,311.77 C557.31,314.94 562.9,317.93 568.5,320.68 C666.03,368.57 701.49,349.25 805.5,380.68 C821.39,385.48 838.36,391.17 854.16,396.71 " fill="none" id="Prosess-Gebyrunderlag" style="stroke:#181818;stroke-width:1.0;"/></g><!--link Prosess to Kode--><g id="link_Prosess_Kode"><path codeLine="26" d="M551.98,307.73 C557.56,312.11 563.09,316.44 568.5,320.68 C593.52,340.29 621.32,362.07 644.51,380.24 " fill="none" id="Prosess-Kode" style="stroke:#181818;stroke-width:1.0;"/></g><!--link Milepel to Kode--><g id="link_Milepel_Kode"><path codeLine="47" d="M695.5,321.07 C695.5,342.46 695.5,363.43 695.5,380.54 " fill="none" id="Milepel-Kode" style="stroke:#181818;stroke-width:1.0;"/></g><!--link Milepel to Fase--><g id="link_Milepel_Fase"><path codeLine="48" d="M610.41,321.07 C588.85,349.98 567.85,378.15 553.77,397.02 " fill="none" id="Milepel-Fase" style="stroke:#181818;stroke-width:1.0;"/></g><!--SRC=[VLDBRjmm3Dtx55odcGjuaqqw_Q50a22h8WjDJBkAPCaWPGD1qUCa5vcBXHf9hcqOzSActgEevqVnsIfc-8ekt95dPBv77crG0VvK8C-d8S58DToLyDTJubh5MCDHtjNVgjehShWgk_RfGzfTFLzaPBeSpQySiF_MrC21jEiogWoxiU-ZeeSvJbolBGve8_KpXKMgKG4xJxg67xx1X2aNbBMF1kb8caCDseLS1vjRpGCwLlpYNGqdxoqgDxFts8roZ8XYT4tyRdAoRSRZMdt60wf-br2E9qLMTsksmzChZQv1iageByjbzBuuTpWiB9d1g-B68czJOq5S3CeT-LTjReeWIj75BEoAyH5bD9CuLdgJUOZoKh4iul_jFI4RqXDQtZYtry4szQqHwZeXOsWzKiOIzE97SieAu9Tmr4VRrXAsID83_9us3JxMNygOCswz6NkvqsiwZiHH5EH_pTCnKvz3s79YJp6ccBzOBySZSiKy8_64rEYDIGBlEIY7E1yGWX_0j-lUWyoHKHPMTmocypiXo5M_MUtSc-Bq8p4NMazmVeD9o_htfAr11-s5L1AStmZYzOvfDrLLVG00]--></g></svg>