<svg xmlns="http://www.w3.org/2000/svg" xmlns:xlink="http://www.w3.org/1999/xlink" contentStyleType="text/css" height="78px" preserveAspectRatio="none" style="width:310px;height:78px;background:#FFFFFF;" version="1.1" viewBox="0 0 310 78" width="310px" zoomAndPan="magnify"><defs/><g><!--class HentProsessResultat--><g id="elem_HentProsessResultat"><rect codeLine="1" fill="#F1F1F1" height="64.4883" id="HentProsessResultat" rx="2.5" ry="2.5" style="stroke:#181818;stroke-width:0.5;" width="177" x="7" y="7"/><ellipse cx="24.7" cy="23" fill="#ADD1B2" rx="11" ry="11" style="stroke:#181818;stroke-width:1.0;"/><path d="M27.1731,29.1431 Q26.5921,29.4419 25.9529,29.5913 Q25.3138,29.7407 24.6082,29.7407 Q22.1014,29.7407 20.7815,28.0889 Q19.4617,26.437 19.4617,23.3159 Q19.4617,20.1865 20.7815,18.5347 Q22.1014,16.8828 24.6082,16.8828 Q25.3138,16.8828 25.9612,17.0322 Q26.6087,17.1816 27.1731,17.4805 L27.1731,20.2031 Q26.5423,19.6221 25.9488,19.3523 Q25.3553,19.0825 24.7244,19.0825 Q23.3797,19.0825 22.6949,20.1492 Q22.0101,21.2158 22.0101,23.3159 Q22.0101,25.4077 22.6949,26.4744 Q23.3797,27.541 24.7244,27.541 Q25.3553,27.541 25.9488,27.2712 Q26.5423,27.0015 27.1731,26.4204 Z " fill="#000000"/><text fill="#000000" font-family="sans-serif" font-size="14" lengthAdjust="spacing" textLength="139" x="39.3" y="28.291">HentProsessResultat</text><line style="stroke:#181818;stroke-width:0.5;" x1="8" x2="183" y1="39" y2="39"/><ellipse cx="18" cy="52.7441" fill="none" rx="3" ry="3" style="stroke:#038048;stroke-width:1.0;"/><text fill="#000000" font-family="sans-serif" font-size="14" lengthAdjust="spacing" textLength="151" x="27" y="56.5352">prosesser: Prosesser[]</text><line style="stroke:#181818;stroke-width:0.5;" x1="8" x2="183" y1="63.4883" y2="63.4883"/></g><!--class Prosess--><g id="elem_Prosess"><rect fill="#F1F1F1" height="48" id="Prosess" rx="2.5" ry="2.5" style="stroke:#181818;stroke-width:0.5;" width="84" x="219.5" y="15.25"/><ellipse cx="234.5" cy="31.25" fill="#ADD1B2" rx="11" ry="11" style="stroke:#181818;stroke-width:1.0;"/><path d="M236.9731,37.3931 Q236.3921,37.6919 235.7529,37.8413 Q235.1138,37.9907 234.4082,37.9907 Q231.9014,37.9907 230.5815,36.3389 Q229.2617,34.687 229.2617,31.5659 Q229.2617,28.4365 230.5815,26.7847 Q231.9014,25.1328 234.4082,25.1328 Q235.1138,25.1328 235.7612,25.2822 Q236.4087,25.4316 236.9731,25.7305 L236.9731,28.4531 Q236.3423,27.8721 235.7488,27.6023 Q235.1553,27.3325 234.5244,27.3325 Q233.1797,27.3325 232.4949,28.3992 Q231.8101,29.4658 231.8101,31.5659 Q231.8101,33.6577 232.4949,34.7244 Q233.1797,35.791 234.5244,35.791 Q235.1553,35.791 235.7488,35.5212 Q236.3423,35.2515 236.9731,34.6704 Z " fill="#000000"/><text fill="#000000" font-family="sans-serif" font-size="14" lengthAdjust="spacing" textLength="52" x="248.5" y="36.541">Prosess</text><line style="stroke:#181818;stroke-width:0.5;" x1="220.5" x2="302.5" y1="47.25" y2="47.25"/><line style="stroke:#181818;stroke-width:0.5;" x1="220.5" x2="302.5" y1="55.25" y2="55.25"/></g><!--link HentProsessResultat to Prosess--><g id="link_HentProsessResultat_Prosess"><path codeLine="5" d="M184.34,39.25 C195.99,39.25 195.65,39.25 207.3,39.25 " fill="none" id="HentProsessResultat-to-Prosess" style="stroke:#181818;stroke-width:1.0;"/><polygon fill="#181818" points="219.3,39.25,213.3,35.25,207.3,39.25,213.3,43.25,219.3,39.25" style="stroke:#181818;stroke-width:1.0;"/></g><!--SRC=[Iyv9B2vMy4ZDAmaeoYzEBIuEIYqkpIb9B56evb800kq2Y71gaPL208mP7SjLoyM5JPEk5amL5m00]--></g></svg>