<svg xmlns="http://www.w3.org/2000/svg" xmlns:xlink="http://www.w3.org/1999/xlink" contentStyleType="text/css" data-diagram-type="CLASS" height="972px" preserveAspectRatio="none" style="width:2424px;height:972px;background:#FFFFFF;" version="1.1" viewBox="0 0 2424 972" width="2424px" zoomAndPan="magnify"><defs/><g><!--class ReferanseDokumentfil--><g id="elem_ReferanseDokumentfil"><rect codeLine="40" fill="#F1F1F1" height="80.9766" id="ReferanseDokumentfil" rx="2.5" ry="2.5" style="stroke:#181818;stroke-width:0.5;" width="182.6777" x="2092.96" y="701.99"/><ellipse cx="2107.96" cy="717.99" fill="#ADD1B2" rx="11" ry="11" style="stroke:#181818;stroke-width:1;"/><path d="M2110.4331,724.1331 Q2109.8521,724.4319 2109.2129,724.5813 Q2108.5738,724.7307 2107.8682,724.7307 Q2105.3614,724.7307 2104.0415,723.0789 Q2102.7217,721.427 2102.7217,718.3059 Q2102.7217,715.1765 2104.0415,713.5247 Q2105.3614,711.8728 2107.8682,711.8728 Q2108.5738,711.8728 2109.2212,712.0222 Q2109.8687,712.1716 2110.4331,712.4705 L2110.4331,715.1931 Q2109.8023,714.6121 2109.2088,714.3423 Q2108.6153,714.0725 2107.9844,714.0725 Q2106.6397,714.0725 2105.9549,715.1392 Q2105.2701,716.2058 2105.2701,718.3059 Q2105.2701,720.3977 2105.9549,721.4644 Q2106.6397,722.531 2107.9844,722.531 Q2108.6153,722.531 2109.2088,722.2612 Q2109.8023,721.9915 2110.4331,721.4104 Z " fill="#000000"/><text fill="#000000" font-family="sans-serif" font-size="14" lengthAdjust="spacing" textLength="150.6777" x="2121.96" y="723.281">ReferanseDokumentfil</text><line style="stroke:#181818;stroke-width:0.5;" x1="2093.96" x2="2274.6377" y1="733.99" y2="733.99"/><ellipse cx="2103.96" cy="747.7341" fill="#000000" rx="3" ry="3" style="stroke:#000000;stroke-width:1;"/><text fill="#000000" font-family="sans-serif" font-size="14" lengthAdjust="spacing" textLength="61.2842" x="2112.96" y="751.5252">id: string</text><ellipse cx="2103.96" cy="764.2224" fill="#000000" rx="3" ry="3" style="stroke:#000000;stroke-width:1;"/><text fill="#000000" font-family="sans-serif" font-size="14" lengthAdjust="spacing" textLength="66.8896" x="2112.96" y="768.0134">url: string</text><line style="stroke:#181818;stroke-width:0.5;" x1="2093.96" x2="2274.6377" y1="774.9666" y2="774.9666"/></g><!--class Dokument--><g id="elem_Dokument"><rect codeLine="3" fill="#F1F1F1" height="179.9063" id="Dokument" rx="2.5" ry="2.5" style="stroke:#181818;stroke-width:0.5;" width="333.0908" x="2013.76" y="131.49"/><ellipse cx="2140.6794" cy="147.49" fill="#ADD1B2" rx="11" ry="11" style="stroke:#181818;stroke-width:1;"/><path d="M2143.1526,153.6331 Q2142.5715,153.9319 2141.9324,154.0813 Q2141.2932,154.2307 2140.5876,154.2307 Q2138.0808,154.2307 2136.761,152.5789 Q2135.4412,150.927 2135.4412,147.8059 Q2135.4412,144.6765 2136.761,143.0247 Q2138.0808,141.3728 2140.5876,141.3728 Q2141.2932,141.3728 2141.9407,141.5222 Q2142.5881,141.6716 2143.1526,141.9705 L2143.1526,144.6931 Q2142.5217,144.1121 2141.9282,143.8423 Q2141.3347,143.5725 2140.7038,143.5725 Q2139.3591,143.5725 2138.6743,144.6392 Q2137.9895,145.7058 2137.9895,147.8059 Q2137.9895,149.8977 2138.6743,150.9644 Q2139.3591,152.031 2140.7038,152.031 Q2141.3347,152.031 2141.9282,151.7612 Q2142.5217,151.4915 2143.1526,150.9104 Z " fill="#000000"/><text fill="#000000" font-family="sans-serif" font-size="14" lengthAdjust="spacing" textLength="70.752" x="2161.1794" y="152.781">Dokument</text><line style="stroke:#181818;stroke-width:0.5;" x1="2014.76" x2="2345.8508" y1="163.49" y2="163.49"/><ellipse cx="2024.76" cy="177.2341" fill="#000000" rx="3" ry="3" style="stroke:#000000;stroke-width:1;"/><text fill="#000000" font-family="sans-serif" font-size="14" lengthAdjust="spacing" textLength="61.2842" x="2033.76" y="181.0252">id: string</text><text fill="#000000" font-family="sans-serif" font-size="14" lengthAdjust="spacing" textLength="80.0283" x="2033.76" y="197.5134">tittel: string</text><text fill="#000000" font-family="sans-serif" font-size="14" lengthAdjust="spacing" textLength="94.0215" x="2033.76" y="214.0017">filnavn: string</text><text fill="#000000" font-family="sans-serif" font-size="14" lengthAdjust="spacing" textLength="207.0127" x="2033.76" y="230.49">dokumenttype: Dokumenttype</text><text fill="#000000" font-family="sans-serif" font-size="14" lengthAdjust="spacing" textLength="307.0908" x="2033.76" y="246.9783">referanseDokumentfil: ReferanseDokumentfil</text><text fill="#000000" font-family="sans-serif" font-size="14" lengthAdjust="spacing" textLength="115.5752" x="2033.76" y="263.4666">mimetype: string</text><text fill="#000000" font-family="sans-serif" font-size="14" lengthAdjust="spacing" textLength="145.0313" x="2033.76" y="279.9548">dokumentsdato: date</text><text fill="#000000" font-family="sans-serif" font-size="14" lengthAdjust="spacing" textLength="113.7158" x="2033.76" y="296.4431">arkivnavn: string</text><line style="stroke:#181818;stroke-width:0.5;" x1="2014.76" x2="2345.8508" y1="303.3963" y2="303.3963"/></g><g id="elem_GMN4"><path d="M2075.24,26.59 L2075.24,51.9005 A0,0 0 0 0 2075.24,51.9005 L2176.3,51.9005 L2180.3,131.28 L2184.3,51.9005 L2285.3684,51.9005 A0,0 0 0 0 2285.3684,51.9005 L2285.3684,36.59 L2275.3684,26.59 L2075.24,26.59 A0,0 0 0 0 2075.24,26.59 " fill="#FEFFDD" style="stroke:#181818;stroke-width:0.5;"/><path d="M2275.3684,26.59 L2275.3684,36.59 L2285.3684,36.59 L2275.3684,26.59 " fill="#FEFFDD" style="stroke:#181818;stroke-width:0.5;"/><text fill="#000000" font-family="sans-serif" font-size="13" lengthAdjust="spacing" textLength="189.1284" x="2081.24" y="44.1584">Hentet definisjon fra Fiks Plan</text></g><!--class Dokumenttype--><g id="elem_Dokumenttype"><rect codeLine="19" fill="#F1F1F1" height="89.5977" id="Dokumenttype" rx="2.5" ry="2.5" style="stroke:#181818;stroke-width:0.5;" width="183.5547" x="2233.53" y="449.53"/><ellipse cx="2271.7683" cy="469.8405" fill="#ADD1B2" rx="11" ry="11" style="stroke:#181818;stroke-width:1;"/><path d="M2274.2414,475.9836 Q2273.6604,476.2824 2273.0212,476.4319 Q2272.3821,476.5813 2271.6765,476.5813 Q2269.1696,476.5813 2267.8498,474.9294 Q2266.53,473.2776 2266.53,470.1565 Q2266.53,467.0271 2267.8498,465.3752 Q2269.1696,463.7234 2271.6765,463.7234 Q2272.3821,463.7234 2273.0295,463.8728 Q2273.677,464.0222 2274.2414,464.321 L2274.2414,467.0437 Q2273.6106,466.4626 2273.0171,466.1928 Q2272.4236,465.9231 2271.7927,465.9231 Q2270.448,465.9231 2269.7632,466.9897 Q2269.0783,468.0564 2269.0783,470.1565 Q2269.0783,472.2483 2269.7632,473.3149 Q2270.448,474.3816 2271.7927,474.3816 Q2272.4236,474.3816 2273.0171,474.1118 Q2273.6106,473.842 2274.2414,473.261 Z " fill="#000000"/><text fill="#000000" font-family="sans-serif" font-size="12" font-style="italic" lengthAdjust="spacing" textLength="42.0176" x="2319.8806" y="466.1316">&#171;Kode&#187;</text><text fill="#000000" font-family="sans-serif" font-size="14" lengthAdjust="spacing" textLength="99.9141" x="2290.9323" y="482.198">Dokumenttype</text><line style="stroke:#181818;stroke-width:0.5;" x1="2234.53" x2="2416.0847" y1="490.1511" y2="490.1511"/><ellipse cx="2244.53" cy="503.8952" fill="#FFFFFF" fill-opacity="0.00000" rx="3" ry="3" style="stroke:#038048;stroke-width:1;"/><text fill="#000000" font-family="sans-serif" font-size="14" lengthAdjust="spacing" textLength="115.4521" x="2253.53" y="507.6863">kodeverdi: string</text><ellipse cx="2244.53" cy="520.3835" fill="#FFFFFF" fill-opacity="0.00000" rx="3" ry="3" style="stroke:#038048;stroke-width:1;"/><text fill="#000000" font-family="sans-serif" font-size="14" lengthAdjust="spacing" textLength="157.5547" x="2253.53" y="524.1745">kodebeskrivelse: string</text><line style="stroke:#181818;stroke-width:0.5;" x1="2234.53" x2="2416.0847" y1="531.1277" y2="531.1277"/></g><!--class ReferanseJournalpost--><g id="elem_ReferanseJournalpost"><rect codeLine="2" fill="#F1F1F1" height="130.4414" id="ReferanseJournalpost" rx="2.5" ry="2.5" style="stroke:#181818;stroke-width:0.5;" width="350.9736" x="1277.82" y="677.25"/><ellipse cx="1376.9035" cy="693.25" fill="#ADD1B2" rx="11" ry="11" style="stroke:#181818;stroke-width:1;"/><path d="M1379.3766,699.3931 Q1378.7956,699.6919 1378.1564,699.8413 Q1377.5173,699.9907 1376.8117,699.9907 Q1374.3049,699.9907 1372.985,698.3389 Q1371.6652,696.687 1371.6652,693.5659 Q1371.6652,690.4365 1372.985,688.7847 Q1374.3049,687.1328 1376.8117,687.1328 Q1377.5173,687.1328 1378.1647,687.2822 Q1378.8122,687.4316 1379.3766,687.7305 L1379.3766,690.4531 Q1378.7458,689.8721 1378.1523,689.6023 Q1377.5588,689.3325 1376.9279,689.3325 Q1375.5832,689.3325 1374.8984,690.3992 Q1374.2136,691.4658 1374.2136,693.5659 Q1374.2136,695.6577 1374.8984,696.7244 Q1375.5832,697.791 1376.9279,697.791 Q1377.5588,697.791 1378.1523,697.5212 Q1378.7458,697.2515 1379.3766,696.6704 Z " fill="#000000"/><text fill="#000000" font-family="sans-serif" font-size="14" lengthAdjust="spacing" textLength="144.3066" x="1397.4035" y="698.541">ReferanseJournalpost</text><line style="stroke:#181818;stroke-width:0.5;" x1="1278.82" x2="1627.7936" y1="709.25" y2="709.25"/><text fill="#000000" font-family="sans-serif" font-size="14" lengthAdjust="spacing" textLength="108.9648" x="1283.82" y="726.7852">systemId: string</text><text fill="#000000" font-family="sans-serif" font-size="14" lengthAdjust="spacing" textLength="149.4814" x="1283.82" y="743.2734">registreringsID: string</text><text fill="#000000" font-family="sans-serif" font-size="14" lengthAdjust="spacing" textLength="218.5313" x="1283.82" y="759.7617">journalnummer: Journalnummer</text><text fill="#000000" font-family="sans-serif" font-size="14" lengthAdjust="spacing" textLength="338.9736" x="1283.82" y="776.25">saksJournalpostnummer: SaksJournalpostnummer</text><text fill="#000000" font-family="sans-serif" font-size="14" lengthAdjust="spacing" textLength="283.0488" x="1283.82" y="792.7383">referanseEksternNoekkel: EksternNoekkel</text><line style="stroke:#181818;stroke-width:0.5;" x1="1278.82" x2="1627.7936" y1="799.6914" y2="799.6914"/></g><g id="elem_GMN11"><path d="M873.61,722.16 L873.61,762.7811 A0,0 0 0 0 873.61,762.7811 L1242.9948,762.7811 A0,0 0 0 0 1242.9948,762.7811 L1242.9948,746.47 L1277.48,742.47 L1242.9948,738.47 L1242.9948,732.16 L1232.9948,722.16 L873.61,722.16 A0,0 0 0 0 873.61,722.16 " fill="#FEFFDD" style="stroke:#181818;stroke-width:0.5;"/><path d="M1232.9948,722.16 L1232.9948,732.16 L1242.9948,732.16 L1232.9948,722.16 " fill="#FEFFDD" style="stroke:#181818;stroke-width:0.5;"/><text fill="#000000" font-family="sans-serif" font-size="13" lengthAdjust="spacing" textLength="175.8936" x="879.61" y="739.7284">Ingen av feltene er p&#229;krevd,</text><text fill="#000000" font-family="sans-serif" font-size="13" lengthAdjust="spacing" textLength="344.2715" x="883.7233" y="755.0389">men man kan velge hvilken identifikator man vil bruke</text></g><!--class Fase--><g id="elem_Fase"><rect codeLine="5" fill="#F1F1F1" height="163.418" id="Fase" rx="2.5" ry="2.5" style="stroke:#181818;stroke-width:0.5;" width="329.4541" x="598.58" y="139.73"/><ellipse cx="743.9701" cy="155.73" fill="#ADD1B2" rx="11" ry="11" style="stroke:#181818;stroke-width:1;"/><path d="M746.4433,161.8731 Q745.8622,162.1719 745.2231,162.3213 Q744.5839,162.4707 743.8783,162.4707 Q741.3715,162.4707 740.0517,160.8189 Q738.7319,159.167 738.7319,156.0459 Q738.7319,152.9165 740.0517,151.2647 Q741.3715,149.6128 743.8783,149.6128 Q744.5839,149.6128 745.2314,149.7622 Q745.8788,149.9116 746.4433,150.2105 L746.4433,152.9331 Q745.8124,152.3521 745.2189,152.0823 Q744.6254,151.8125 743.9946,151.8125 Q742.6498,151.8125 741.965,152.8792 Q741.2802,153.9458 741.2802,156.0459 Q741.2802,158.1377 741.965,159.2044 Q742.6498,160.271 743.9946,160.271 Q744.6254,160.271 745.2189,160.0012 Q745.8124,159.7315 746.4433,159.1504 Z " fill="#000000"/><text fill="#000000" font-family="sans-serif" font-size="14" lengthAdjust="spacing" textLength="30.1738" x="764.4701" y="161.021">Fase</text><line style="stroke:#181818;stroke-width:0.5;" x1="599.58" x2="927.0341" y1="171.73" y2="171.73"/><ellipse cx="609.58" cy="185.4741" fill="#000000" rx="3" ry="3" style="stroke:#000000;stroke-width:1;"/><text fill="#000000" font-family="sans-serif" font-size="14" lengthAdjust="spacing" textLength="89.0996" x="618.58" y="189.2652">faseid: string</text><ellipse cx="609.58" cy="201.9624" fill="#000000" rx="3" ry="3" style="stroke:#000000;stroke-width:1;"/><text fill="#000000" font-family="sans-serif" font-size="14" lengthAdjust="spacing" textLength="108.5957" x="618.58" y="205.7534">fasenavn: string</text><ellipse cx="609.58" cy="218.4507" fill="#000000" rx="3" ry="3" style="stroke:#000000;stroke-width:1;"/><text fill="#000000" font-family="sans-serif" font-size="14" lengthAdjust="spacing" textLength="151.1426" x="618.58" y="222.2417">kategori: Fasekategori</text><ellipse cx="609.58" cy="234.939" fill="#000000" rx="3" ry="3" style="stroke:#000000;stroke-width:1;"/><text fill="#000000" font-family="sans-serif" font-size="14" lengthAdjust="spacing" textLength="159.8037" x="618.58" y="238.73">status: FaseStatusEnum</text><text fill="#000000" font-family="sans-serif" font-size="14" lengthAdjust="spacing" textLength="129.7256" x="618.58" y="255.2183">milepeler: Milepel[]</text><text fill="#000000" font-family="sans-serif" font-size="14" lengthAdjust="spacing" textLength="100.7822" x="618.58" y="271.7066">vedtak: Vedtak</text><text fill="#000000" font-family="sans-serif" font-size="14" lengthAdjust="spacing" textLength="303.4541" x="618.58" y="288.1948">referanseJournalpost: ReferanseJournalpost[]</text><line style="stroke:#181818;stroke-width:0.5;" x1="599.58" x2="927.0341" y1="295.148" y2="295.148"/></g><g id="elem_GMN16"><path d="M687.62,18.93 L687.62,59.5511 A0,0 0 0 0 687.62,59.5511 L936.63,59.5511 L852.6,139.58 L944.63,59.5511 L1236.9862,59.5511 A0,0 0 0 0 1236.9862,59.5511 L1236.9862,28.93 L1226.9862,18.93 L687.62,18.93 A0,0 0 0 0 687.62,18.93 " fill="#FEFFDD" style="stroke:#181818;stroke-width:0.5;"/><path d="M1226.9862,18.93 L1226.9862,28.93 L1236.9862,28.93 L1226.9862,18.93 " fill="#FEFFDD" style="stroke:#181818;stroke-width:0.5;"/><text fill="#000000" font-family="sans-serif" font-size="13" lengthAdjust="spacing" textLength="371.7822" x="693.62" y="36.4984">En fase er i hovedsak det som hender mellom to milepeler.</text><text fill="#000000" font-family="sans-serif" font-size="13" lengthAdjust="spacing" textLength="528.3662" x="693.62" y="51.8089">Interne faser sendes ikke ut ved denne protokollen. Vi kutter derfor ut Global flagg.</text></g><path d="M963.25,196.13 L963.25,212.4405 L707.6796,183.9741 L963.25,220.4405 L963.25,236.7511 A0,0 0 0 0 963.25,236.7511 L1487.3589,236.7511 A0,0 0 0 0 1487.3589,236.7511 L1487.3589,206.13 L1477.3589,196.13 L963.25,196.13 A0,0 0 0 0 963.25,196.13 " fill="#FEFFDD" style="stroke:#181818;stroke-width:0.5;"/><path d="M1477.3589,196.13 L1477.3589,206.13 L1487.3589,206.13 L1477.3589,196.13 " fill="#FEFFDD" style="stroke:#181818;stroke-width:0.5;"/><text fill="#000000" font-family="sans-serif" font-size="13" lengthAdjust="spacing" textLength="503.1089" x="969.25" y="213.6984">Faseid brukes alene (ikke sammen med saksnummer) for &#229; hente en enkelt fase</text><text fill="#000000" font-family="sans-serif" font-size="13" lengthAdjust="spacing" textLength="166.9688" x="969.25" y="229.0089">Den m&#229; dermed v&#230;re unik</text><!--class Vedtak--><g id="elem_Vedtak"><rect codeLine="36" fill="#F1F1F1" height="89.5977" id="Vedtak" rx="2.5" ry="2.5" style="stroke:#181818;stroke-width:0.5;" width="183.5547" x="275.53" y="449.53"/><ellipse cx="339.5998" cy="469.8405" fill="#ADD1B2" rx="11" ry="11" style="stroke:#181818;stroke-width:1;"/><path d="M342.073,475.9836 Q341.4919,476.2824 340.8528,476.4319 Q340.2136,476.5813 339.508,476.5813 Q337.0012,476.5813 335.6814,474.9294 Q334.3615,473.2776 334.3615,470.1565 Q334.3615,467.0271 335.6814,465.3752 Q337.0012,463.7234 339.508,463.7234 Q340.2136,463.7234 340.8611,463.8728 Q341.5085,464.0222 342.073,464.321 L342.073,467.0437 Q341.4421,466.4626 340.8486,466.1928 Q340.2551,465.9231 339.6242,465.9231 Q338.2795,465.9231 337.5947,466.9897 Q336.9099,468.0564 336.9099,470.1565 Q336.9099,472.2483 337.5947,473.3149 Q338.2795,474.3816 339.6242,474.3816 Q340.2551,474.3816 340.8486,474.1118 Q341.4421,473.842 342.073,473.261 Z " fill="#000000"/><text fill="#000000" font-family="sans-serif" font-size="12" font-style="italic" lengthAdjust="spacing" textLength="42.0176" x="362.5486" y="466.1316">&#171;Kode&#187;</text><text fill="#000000" font-family="sans-serif" font-size="14" lengthAdjust="spacing" textLength="46.915" x="360.0998" y="482.198">Vedtak</text><line style="stroke:#181818;stroke-width:0.5;" x1="276.53" x2="458.0847" y1="490.1511" y2="490.1511"/><ellipse cx="286.53" cy="503.8952" fill="#000000" rx="3" ry="3" style="stroke:#000000;stroke-width:1;"/><text fill="#000000" font-family="sans-serif" font-size="14" lengthAdjust="spacing" textLength="115.4521" x="295.53" y="507.6863">kodeverdi: string</text><text fill="#000000" font-family="sans-serif" font-size="14" lengthAdjust="spacing" textLength="157.5547" x="295.53" y="524.1745">kodebeskrivelse: string</text><line style="stroke:#181818;stroke-width:0.5;" x1="276.53" x2="458.0847" y1="531.1277" y2="531.1277"/></g><!--class FaseStatusEnum--><g id="elem_FaseStatusEnum"><rect codeLine="28" fill="#F1F1F1" height="97.4648" id="FaseStatusEnum" rx="2.5" ry="2.5" style="stroke:#181818;stroke-width:0.5;" width="141.7783" x="494.41" y="445.59"/><ellipse cx="509.41" cy="461.59" fill="#EB937F" rx="11" ry="11" style="stroke:#181818;stroke-width:1;"/><path d="M513.0243,468.09 L505.3045,468.09 L505.3045,455.6969 L513.0243,455.6969 L513.0243,457.8551 L507.7533,457.8551 L507.7533,460.528 L512.5262,460.528 L512.5262,462.6862 L507.7533,462.6862 L507.7533,465.9318 L513.0243,465.9318 Z " fill="#000000"/><text fill="#000000" font-family="sans-serif" font-size="14" lengthAdjust="spacing" textLength="109.7783" x="523.41" y="466.881">FaseStatusEnum</text><line style="stroke:#181818;stroke-width:0.5;" x1="495.41" x2="635.1883" y1="477.59" y2="477.59"/><ellipse cx="505.41" cy="491.3341" fill="#FFFFFF" fill-opacity="0.00000" rx="3" ry="3" style="stroke:#038048;stroke-width:1;"/><text fill="#000000" font-family="sans-serif" font-size="14" lengthAdjust="spacing" textLength="53.9492" x="514.41" y="495.1252">Planlagt</text><ellipse cx="505.41" cy="507.8224" fill="#FFFFFF" fill-opacity="0.00000" rx="3" ry="3" style="stroke:#038048;stroke-width:1;"/><text fill="#000000" font-family="sans-serif" font-size="14" lengthAdjust="spacing" textLength="85.5859" x="514.41" y="511.6134">UnderArbeid</text><ellipse cx="505.41" cy="524.3107" fill="#FFFFFF" fill-opacity="0.00000" rx="3" ry="3" style="stroke:#038048;stroke-width:1;"/><text fill="#000000" font-family="sans-serif" font-size="14" lengthAdjust="spacing" textLength="47.4482" x="514.41" y="528.1017">Utfoert</text><line style="stroke:#181818;stroke-width:0.5;" x1="495.41" x2="635.1883" y1="535.0548" y2="535.0548"/></g><!--class Fasekategori--><g id="elem_Fasekategori"><rect codeLine="41" fill="#F1F1F1" height="89.5977" id="Fasekategori" rx="2.5" ry="2.5" style="stroke:#181818;stroke-width:0.5;" width="183.5547" x="671.53" y="449.53"/><ellipse cx="715.9431" cy="469.8405" fill="#ADD1B2" rx="11" ry="11" style="stroke:#181818;stroke-width:1;"/><path d="M718.4162,475.9836 Q717.8352,476.2824 717.196,476.4319 Q716.5569,476.5813 715.8513,476.5813 Q713.3445,476.5813 712.0246,474.9294 Q710.7048,473.2776 710.7048,470.1565 Q710.7048,467.0271 712.0246,465.3752 Q713.3445,463.7234 715.8513,463.7234 Q716.5569,463.7234 717.2043,463.8728 Q717.8518,464.0222 718.4162,464.321 L718.4162,467.0437 Q717.7854,466.4626 717.1919,466.1928 Q716.5984,465.9231 715.9675,465.9231 Q714.6228,465.9231 713.938,466.9897 Q713.2531,468.0564 713.2531,470.1565 Q713.2531,472.2483 713.938,473.3149 Q714.6228,474.3816 715.9675,474.3816 Q716.5984,474.3816 717.1919,474.1118 Q717.7854,473.842 718.4162,473.261 Z " fill="#000000"/><text fill="#000000" font-family="sans-serif" font-size="12" font-style="italic" lengthAdjust="spacing" textLength="42.0176" x="758.5486" y="466.1316">&#171;Kode&#187;</text><text fill="#000000" font-family="sans-serif" font-size="14" lengthAdjust="spacing" textLength="86.2285" x="736.4431" y="482.198">Fasekategori</text><line style="stroke:#181818;stroke-width:0.5;" x1="672.53" x2="854.0847" y1="490.1511" y2="490.1511"/><ellipse cx="682.53" cy="503.8952" fill="#000000" rx="3" ry="3" style="stroke:#000000;stroke-width:1;"/><text fill="#000000" font-family="sans-serif" font-size="14" lengthAdjust="spacing" textLength="115.4521" x="691.53" y="507.6863">kodeverdi: string</text><text fill="#000000" font-family="sans-serif" font-size="14" lengthAdjust="spacing" textLength="157.5547" x="691.53" y="524.1745">kodebeskrivelse: string</text><line style="stroke:#181818;stroke-width:0.5;" x1="672.53" x2="854.0847" y1="531.1277" y2="531.1277"/></g><g id="elem_GMN27"><path d="M308.6,178.16 L308.6,264.7127 A0,0 0 0 0 308.6,264.7127 L363.3,264.7127 L367.3,449.15 L371.3,264.7127 L426.0082,264.7127 A0,0 0 0 0 426.0082,264.7127 L426.0082,188.16 L416.0082,178.16 L308.6,178.16 A0,0 0 0 0 308.6,178.16 " fill="#FEFFDD" style="stroke:#181818;stroke-width:0.5;"/><path d="M416.0082,178.16 L416.0082,188.16 L426.0082,188.16 L416.0082,178.16 " fill="#FEFFDD" style="stroke:#181818;stroke-width:0.5;"/><text fill="#000000" font-family="sans-serif" font-size="13" lengthAdjust="spacing" textLength="69.2656" x="314.6" y="195.7284">Eksempler:</text><text fill="#000000" font-family="sans-serif" font-size="13" lengthAdjust="spacing" textLength="55.999" x="314.6" y="211.0389">godkjent</text><text fill="#000000" font-family="sans-serif" font-size="13" lengthAdjust="spacing" textLength="96.4082" x="314.6" y="226.3495">delvis godkjent</text><text fill="#000000" font-family="sans-serif" font-size="13" lengthAdjust="spacing" textLength="41.1963" x="314.6" y="241.66">avsl&#229;tt</text><text fill="#000000" font-family="sans-serif" font-size="13" lengthAdjust="spacing" textLength="35.8833" x="314.6" y="256.9705">avvist</text></g><g id="elem_GMN30"><path d="M6,683.89 L6,801.0638 L620.6074,801.0638 L620.6074,693.89 L610.6074,683.89 L6,683.89 " fill="#FEFFDD" style="stroke:#181818;stroke-width:0.5;"/><path d="M610.6074,683.89 L610.6074,693.89 L620.6074,693.89 L610.6074,683.89 " fill="#FEFFDD" style="stroke:#181818;stroke-width:1;"/><text fill="#000000" font-family="sans-serif" font-size="13" lengthAdjust="spacing" textLength="306.6616" x="12" y="701.4584">Se gjerne Byggesaksbehandling::Prosesskategori</text><text fill="#000000" font-family="sans-serif" font-size="13" lengthAdjust="spacing" textLength="45.1826" x="16.1133" y="716.7689">fra NPS</text><text fill="#000000" font-family="sans-serif" font-size="13" lengthAdjust="spacing" textLength="210.8501" x="12" y="732.0795">Vi m&#229; f&#229; avklart denne kodelisten</text><text fill="#000000" font-family="sans-serif" font-size="13" lengthAdjust="spacing" textLength="593.6074" x="12" y="747.39">Vi m&#229; ha en som er generell som betyr at det ikke er fastsatt hvis kategori skal v&#230;re required.</text><text fill="#000000" font-family="sans-serif" font-size="13" lengthAdjust="spacing" textLength="69.2656" x="12" y="762.7005">Eksempler:</text><text fill="#000000" font-family="sans-serif" font-size="13" lengthAdjust="spacing" textLength="34.7725" x="12" y="778.0111">Klage</text><text fill="#000000" font-family="sans-serif" font-size="13" lengthAdjust="spacing" textLength="42.7896" x="12" y="793.3216">H&#248;ring</text></g><!--class EksternNoekkel--><g id="elem_EksternNoekkel"><rect codeLine="2" fill="#F1F1F1" height="80.9766" id="EksternNoekkel" rx="2.5" ry="2.5" style="stroke:#181818;stroke-width:0.5;" width="143.7285" x="1153.44" y="875.94"/><ellipse cx="1171.3263" cy="891.94" fill="#ADD1B2" rx="11" ry="11" style="stroke:#181818;stroke-width:1;"/><path d="M1173.7995,898.0831 Q1173.2184,898.3819 1172.5793,898.5313 Q1171.9401,898.6807 1171.2345,898.6807 Q1168.7277,898.6807 1167.4079,897.0289 Q1166.088,895.377 1166.088,892.2559 Q1166.088,889.1265 1167.4079,887.4747 Q1168.7277,885.8228 1171.2345,885.8228 Q1171.9401,885.8228 1172.5876,885.9722 Q1173.235,886.1216 1173.7995,886.4205 L1173.7995,889.1431 Q1173.1686,888.5621 1172.5751,888.2923 Q1171.9816,888.0225 1171.3507,888.0225 Q1170.006,888.0225 1169.3212,889.0892 Q1168.6364,890.1558 1168.6364,892.2559 Q1168.6364,894.3477 1169.3212,895.4144 Q1170.006,896.481 1171.3507,896.481 Q1171.9816,896.481 1172.5751,896.2112 Q1173.1686,895.9415 1173.7995,895.3604 Z " fill="#000000"/><text fill="#000000" font-family="sans-serif" font-size="14" lengthAdjust="spacing" textLength="105.3145" x="1185.9677" y="897.231">EksternNoekkel</text><line style="stroke:#181818;stroke-width:0.5;" x1="1154.44" x2="1296.1685" y1="907.94" y2="907.94"/><ellipse cx="1164.44" cy="921.6841" fill="#000000" rx="3" ry="3" style="stroke:#000000;stroke-width:1;"/><text fill="#000000" font-family="sans-serif" font-size="14" lengthAdjust="spacing" textLength="117.7285" x="1173.44" y="925.4752">fagsystem: string</text><ellipse cx="1164.44" cy="938.1724" fill="#000000" rx="3" ry="3" style="stroke:#000000;stroke-width:1;"/><text fill="#000000" font-family="sans-serif" font-size="14" lengthAdjust="spacing" textLength="101.7256" x="1173.44" y="941.9634">noekkel: string</text><line style="stroke:#181818;stroke-width:0.5;" x1="1154.44" x2="1296.1685" y1="948.9166" y2="948.9166"/></g><!--class Journalnummer--><g id="elem_Journalnummer"><rect codeLine="2" fill="#F1F1F1" height="80.9766" id="Journalnummer" rx="2.5" ry="2.5" style="stroke:#181818;stroke-width:0.5;" width="241.667" x="1332.47" y="875.94"/><ellipse cx="1396.6116" cy="891.94" fill="#ADD1B2" rx="11" ry="11" style="stroke:#181818;stroke-width:1;"/><path d="M1399.0847,898.0831 Q1398.5037,898.3819 1397.8645,898.5313 Q1397.2254,898.6807 1396.5198,898.6807 Q1394.013,898.6807 1392.6931,897.0289 Q1391.3733,895.377 1391.3733,892.2559 Q1391.3733,889.1265 1392.6931,887.4747 Q1394.013,885.8228 1396.5198,885.8228 Q1397.2254,885.8228 1397.8728,885.9722 Q1398.5203,886.1216 1399.0847,886.4205 L1399.0847,889.1431 Q1398.4539,888.5621 1397.8604,888.2923 Q1397.2669,888.0225 1396.636,888.0225 Q1395.2913,888.0225 1394.6065,889.0892 Q1393.9217,890.1558 1393.9217,892.2559 Q1393.9217,894.3477 1394.6065,895.4144 Q1395.2913,896.481 1396.636,896.481 Q1397.2669,896.481 1397.8604,896.2112 Q1398.4539,895.9415 1399.0847,895.3604 Z " fill="#000000"/><text fill="#000000" font-family="sans-serif" font-size="14" lengthAdjust="spacing" textLength="104.8838" x="1417.1116" y="897.231">Journalnummer</text><line style="stroke:#181818;stroke-width:0.5;" x1="1333.47" x2="1573.137" y1="907.94" y2="907.94"/><ellipse cx="1343.47" cy="921.6841" fill="#000000" rx="3" ry="3" style="stroke:#000000;stroke-width:1;"/><text fill="#000000" font-family="sans-serif" font-size="14" lengthAdjust="spacing" textLength="161.6768" x="1352.47" y="925.4752">journalnummer: integer</text><ellipse cx="1343.47" cy="938.1724" fill="#000000" rx="3" ry="3" style="stroke:#000000;stroke-width:1;"/><text fill="#000000" font-family="sans-serif" font-size="14" lengthAdjust="spacing" textLength="215.667" x="1352.47" y="941.9634">journalsekvensnummer: integer</text><line style="stroke:#181818;stroke-width:0.5;" x1="1333.47" x2="1573.137" y1="948.9166" y2="948.9166"/></g><!--class SaksJournalpostnummer--><g id="elem_SaksJournalpostnummer"><rect codeLine="2" fill="#F1F1F1" height="97.4648" id="SaksJournalpostnummer" rx="2.5" ry="2.5" style="stroke:#181818;stroke-width:0.5;" width="224.1123" x="1609.25" y="867.7"/><ellipse cx="1636.3341" cy="883.7" fill="#ADD1B2" rx="11" ry="11" style="stroke:#181818;stroke-width:1;"/><path d="M1638.8072,889.8431 Q1638.2262,890.1419 1637.587,890.2913 Q1636.9479,890.4407 1636.2423,890.4407 Q1633.7354,890.4407 1632.4156,888.7889 Q1631.0958,887.137 1631.0958,884.0159 Q1631.0958,880.8865 1632.4156,879.2347 Q1633.7354,877.5828 1636.2423,877.5828 Q1636.9479,877.5828 1637.5953,877.7322 Q1638.2428,877.8816 1638.8072,878.1805 L1638.8072,880.9031 Q1638.1764,880.3221 1637.5829,880.0523 Q1636.9894,879.7825 1636.3585,879.7825 Q1635.0138,879.7825 1634.329,880.8492 Q1633.6441,881.9158 1633.6441,884.0159 Q1633.6441,886.1077 1634.329,887.1744 Q1635.0138,888.241 1636.3585,888.241 Q1636.9894,888.241 1637.5829,887.9712 Q1638.1764,887.7015 1638.8072,887.1204 Z " fill="#000000"/><text fill="#000000" font-family="sans-serif" font-size="14" lengthAdjust="spacing" textLength="165.2588" x="1653.0194" y="888.991">SaksJournalpostnummer</text><line style="stroke:#181818;stroke-width:0.5;" x1="1610.25" x2="1832.3623" y1="899.7" y2="899.7"/><ellipse cx="1620.25" cy="913.4441" fill="#000000" rx="3" ry="3" style="stroke:#000000;stroke-width:1;"/><text fill="#000000" font-family="sans-serif" font-size="14" lengthAdjust="spacing" textLength="108.2676" x="1629.25" y="917.2352">saksaar: integer</text><ellipse cx="1620.25" cy="929.9324" fill="#000000" rx="3" ry="3" style="stroke:#000000;stroke-width:1;"/><text fill="#000000" font-family="sans-serif" font-size="14" lengthAdjust="spacing" textLength="198.1123" x="1629.25" y="933.7234">sakssekvensnummer: integer</text><ellipse cx="1620.25" cy="946.4207" fill="#000000" rx="3" ry="3" style="stroke:#000000;stroke-width:1;"/><text fill="#000000" font-family="sans-serif" font-size="14" lengthAdjust="spacing" textLength="191.4609" x="1629.25" y="950.2117">journalpostnummer: integer</text><line style="stroke:#181818;stroke-width:0.5;" x1="1610.25" x2="1832.3623" y1="957.1648" y2="957.1648"/></g><!--class Milepel--><g id="elem_Milepel"><rect codeLine="8" fill="#F1F1F1" height="245.8594" id="Milepel" rx="2.5" ry="2.5" style="stroke:#181818;stroke-width:0.5;" width="320.3486" x="1584.13" y="371.39"/><ellipse cx="1715.7491" cy="387.39" fill="#ADD1B2" rx="11" ry="11" style="stroke:#181818;stroke-width:1;"/><path d="M1718.2223,393.5331 Q1717.6412,393.8319 1717.0021,393.9813 Q1716.3629,394.1307 1715.6573,394.1307 Q1713.1505,394.1307 1711.8307,392.4789 Q1710.5109,390.827 1710.5109,387.7059 Q1710.5109,384.5765 1711.8307,382.9247 Q1713.1505,381.2728 1715.6573,381.2728 Q1716.3629,381.2728 1717.0104,381.4222 Q1717.6578,381.5716 1718.2223,381.8705 L1718.2223,384.5931 Q1717.5914,384.0121 1716.9979,383.7423 Q1716.4044,383.4725 1715.7736,383.4725 Q1714.4288,383.4725 1713.744,384.5392 Q1713.0592,385.6058 1713.0592,387.7059 Q1713.0592,389.7977 1713.744,390.8644 Q1714.4288,391.931 1715.7736,391.931 Q1716.4044,391.931 1716.9979,391.6612 Q1717.5914,391.3915 1718.2223,390.8104 Z " fill="#000000"/><text fill="#000000" font-family="sans-serif" font-size="14" lengthAdjust="spacing" textLength="48.6104" x="1736.2491" y="392.681">Milepel</text><line style="stroke:#181818;stroke-width:0.5;" x1="1585.13" x2="1903.4786" y1="403.39" y2="403.39"/><ellipse cx="1595.13" cy="417.1341" fill="#000000" rx="3" ry="3" style="stroke:#000000;stroke-width:1;"/><text fill="#000000" font-family="sans-serif" font-size="14" lengthAdjust="spacing" textLength="110.8926" x="1604.13" y="420.9252">milepelId: string</text><ellipse cx="1595.13" cy="433.6224" fill="#000000" rx="3" ry="3" style="stroke:#000000;stroke-width:1;"/><text fill="#000000" font-family="sans-serif" font-size="14" lengthAdjust="spacing" textLength="124.1611" x="1604.13" y="437.4134">beskrivelse: string</text><text fill="#000000" font-family="sans-serif" font-size="14" lengthAdjust="spacing" textLength="165.416" x="1604.13" y="453.9017">milepeltype: Milepeltype</text><text fill="#000000" font-family="sans-serif" font-size="14" lengthAdjust="spacing" textLength="65.7344" x="1604.13" y="470.39">frist: date</text><text fill="#000000" font-family="sans-serif" font-size="14" lengthAdjust="spacing" textLength="84.875" x="1604.13" y="486.8783">utfoert: date</text><text fill="#000000" font-family="sans-serif" font-size="14" lengthAdjust="spacing" textLength="140.9092" x="1604.13" y="503.3666">planlagtUtfoert: date</text><ellipse cx="1595.13" cy="516.0638" fill="#000000" rx="3" ry="3" style="stroke:#000000;stroke-width:1;"/><text fill="#000000" font-family="sans-serif" font-size="14" lengthAdjust="spacing" textLength="103.3252" x="1604.13" y="519.8548">intern: boolean</text><text fill="#000000" font-family="sans-serif" font-size="14" lengthAdjust="spacing" textLength="294.3486" x="1604.13" y="536.3431">referanseJournalpost: ReferanseJournalpost</text><text fill="#000000" font-family="sans-serif" font-size="14" lengthAdjust="spacing" textLength="293.8496" x="1604.13" y="552.8314">referanseDokument: ReferanseDokumentfil</text><text fill="#000000" font-family="sans-serif" font-size="14" lengthAdjust="spacing" textLength="108.1377" x="1604.13" y="569.3197">erStart: boolean</text><text fill="#000000" font-family="sans-serif" font-size="14" lengthAdjust="spacing" textLength="107.4131" x="1604.13" y="585.808">erSlutt: boolean</text><ellipse cx="1595.13" cy="598.5052" fill="#000000" rx="3" ry="3" style="stroke:#000000;stroke-width:1;"/><text fill="#000000" font-family="sans-serif" font-size="14" lengthAdjust="spacing" textLength="178.2402" x="1604.13" y="602.2963">status: MilepelStatusEnum</text><line style="stroke:#181818;stroke-width:0.5;" x1="1585.13" x2="1903.4786" y1="609.2494" y2="609.2494"/></g><g id="elem_GMN37"><path d="M1522.71,201.13 L1522.71,241.7511 A0,0 0 0 0 1522.71,241.7511 L1743.09,241.7511 L1745.66,370.96 L1751.09,241.7511 L1971.8912,241.7511 A0,0 0 0 0 1971.8912,241.7511 L1971.8912,211.13 L1961.8912,201.13 L1522.71,201.13 A0,0 0 0 0 1522.71,201.13 " fill="#FEFFDD" style="stroke:#181818;stroke-width:0.5;"/><path d="M1961.8912,201.13 L1961.8912,211.13 L1971.8912,211.13 L1961.8912,201.13 " fill="#FEFFDD" style="stroke:#181818;stroke-width:0.5;"/><text fill="#000000" font-family="sans-serif" font-size="13" lengthAdjust="spacing" textLength="333.4741" x="1528.71" y="218.6984">planlagtUtfoert er hvis man har laget en milepel plan</text><text fill="#000000" font-family="sans-serif" font-size="13" lengthAdjust="spacing" textLength="428.1812" x="1528.71" y="234.0089">s&#229; kan man sette denne datoen for n&#229;r det er planlagt &#229; v&#230;re ferdig</text></g><!--class Milepeltype--><g id="elem_Milepeltype"><rect codeLine="32" fill="#F1F1F1" height="80.9766" id="Milepeltype" rx="2.5" ry="2.5" style="stroke:#181818;stroke-width:0.5;" width="183.5547" x="655.53" y="701.99"/><ellipse cx="704.1711" cy="717.99" fill="#ADD1B2" rx="11" ry="11" style="stroke:#181818;stroke-width:1;"/><path d="M706.6443,724.1331 Q706.0632,724.4319 705.424,724.5813 Q704.7849,724.7307 704.0793,724.7307 Q701.5725,724.7307 700.2527,723.0789 Q698.9328,721.427 698.9328,718.3059 Q698.9328,715.1765 700.2527,713.5247 Q701.5725,711.8728 704.0793,711.8728 Q704.7849,711.8728 705.4323,712.0222 Q706.0798,712.1716 706.6443,712.4705 L706.6443,715.1931 Q706.0134,714.6121 705.4199,714.3423 Q704.8264,714.0725 704.1955,714.0725 Q702.8508,714.0725 702.166,715.1392 Q701.4812,716.2058 701.4812,718.3059 Q701.4812,720.3977 702.166,721.4644 Q702.8508,722.531 704.1955,722.531 Q704.8264,722.531 705.4199,722.2612 Q706.0134,721.9915 706.6443,721.4104 Z " fill="#000000"/><text fill="#000000" font-family="sans-serif" font-size="14" lengthAdjust="spacing" textLength="77.7725" x="724.6711" y="723.281">Milepeltype</text><line style="stroke:#181818;stroke-width:0.5;" x1="656.53" x2="838.0847" y1="733.99" y2="733.99"/><ellipse cx="666.53" cy="747.7341" fill="#FFFFFF" fill-opacity="0.00000" rx="3" ry="3" style="stroke:#038048;stroke-width:1;"/><text fill="#000000" font-family="sans-serif" font-size="14" lengthAdjust="spacing" textLength="115.4521" x="675.53" y="751.5252">kodeverdi: string</text><ellipse cx="666.53" cy="764.2224" fill="#FFFFFF" fill-opacity="0.00000" rx="3" ry="3" style="stroke:#038048;stroke-width:1;"/><text fill="#000000" font-family="sans-serif" font-size="14" lengthAdjust="spacing" textLength="157.5547" x="675.53" y="768.0134">kodebeskrivelse: string</text><line style="stroke:#181818;stroke-width:0.5;" x1="656.53" x2="838.0847" y1="774.9666" y2="774.9666"/></g><g id="elem_GMN42"><path d="M889.89,458.7 L889.89,529.9422 A0,0 0 0 0 889.89,529.9422 L964.61,529.9422 L789,701.7 L972.61,529.9422 L1120.7181,529.9422 A0,0 0 0 0 1120.7181,529.9422 L1120.7181,468.7 L1110.7181,458.7 L889.89,458.7 A0,0 0 0 0 889.89,458.7 " fill="#FEFFDD" style="stroke:#181818;stroke-width:0.5;"/><path d="M1110.7181,458.7 L1110.7181,468.7 L1120.7181,468.7 L1110.7181,458.7 " fill="#FEFFDD" style="stroke:#181818;stroke-width:0.5;"/><text fill="#000000" font-family="sans-serif" font-size="13" lengthAdjust="spacing" textLength="69.2656" x="895.89" y="476.2684">Eksempler:</text><text fill="#000000" font-family="sans-serif" font-size="13" lengthAdjust="spacing" textLength="201.7476" x="895.89" y="491.5789">Bestilling av oppstartsm&#248;te (BO)</text><text fill="#000000" font-family="sans-serif" font-size="13" lengthAdjust="spacing" textLength="209.8281" x="895.89" y="506.8895">Gjennomf&#248;rt oppstartsm&#248;te (OM)</text><text fill="#000000" font-family="sans-serif" font-size="13" lengthAdjust="spacing" textLength="136.7603" x="895.89" y="522.2">Mottak av planforslag</text></g><g id="elem_GMN45"><path d="M1858.98,729.82 L1858.98,755.1305 A0,0 0 0 0 1858.98,755.1305 L2057.6192,755.1305 A0,0 0 0 0 2057.6192,755.1305 L2057.6192,739.82 L2047.6192,729.82 L1951.91,729.82 L1850.68,617.68 L1943.91,729.82 L1858.98,729.82 A0,0 0 0 0 1858.98,729.82 " fill="#FEFFDD" style="stroke:#181818;stroke-width:0.5;"/><path d="M2047.6192,729.82 L2047.6192,739.82 L2057.6192,739.82 L2047.6192,729.82 " fill="#FEFFDD" style="stroke:#181818;stroke-width:0.5;"/><text fill="#000000" font-family="sans-serif" font-size="13" lengthAdjust="spacing" textLength="177.6392" x="1864.98" y="747.3884">frist og utfoert ikke p&#229;krevd</text></g><!--class MilepelStatusEnum--><g id="elem_MilepelStatusEnum"><rect codeLine="48" fill="#F1F1F1" height="80.9766" id="MilepelStatusEnum" rx="2.5" ry="2.5" style="stroke:#181818;stroke-width:0.5;" width="160.2148" x="1664.2" y="701.99"/><ellipse cx="1679.2" cy="717.99" fill="#EB937F" rx="11" ry="11" style="stroke:#181818;stroke-width:1;"/><path d="M1682.8143,724.49 L1675.0945,724.49 L1675.0945,712.0969 L1682.8143,712.0969 L1682.8143,714.2551 L1677.5433,714.2551 L1677.5433,716.928 L1682.3162,716.928 L1682.3162,719.0862 L1677.5433,719.0862 L1677.5433,722.3318 L1682.8143,722.3318 Z " fill="#000000"/><text fill="#000000" font-family="sans-serif" font-size="14" lengthAdjust="spacing" textLength="128.2148" x="1693.2" y="723.281">MilepelStatusEnum</text><line style="stroke:#181818;stroke-width:0.5;" x1="1665.2" x2="1823.4148" y1="733.99" y2="733.99"/><ellipse cx="1675.2" cy="747.7341" fill="#FFFFFF" fill-opacity="0.00000" rx="3" ry="3" style="stroke:#038048;stroke-width:1;"/><text fill="#000000" font-family="sans-serif" font-size="14" lengthAdjust="spacing" textLength="35.6973" x="1684.2" y="751.5252">N&#229;dd</text><ellipse cx="1675.2" cy="764.2224" fill="#FFFFFF" fill-opacity="0.00000" rx="3" ry="3" style="stroke:#038048;stroke-width:1;"/><text fill="#000000" font-family="sans-serif" font-size="14" lengthAdjust="spacing" textLength="53.9492" x="1684.2" y="768.0134">Planlagt</text><line style="stroke:#181818;stroke-width:0.5;" x1="1665.2" x2="1823.4148" y1="774.9666" y2="774.9666"/></g><!--class HentSaksfaseResultat--><g id="elem_HentSaksfaseResultat"><rect codeLine="5" fill="#F1F1F1" height="64.4883" id="HentSaksfaseResultat" rx="2.5" ry="2.5" style="stroke:#181818;stroke-width:0.5;" width="177.1475" x="475.73" y="7"/><ellipse cx="490.73" cy="23" fill="#ADD1B2" rx="11" ry="11" style="stroke:#181818;stroke-width:1;"/><path d="M493.2031,29.1431 Q492.6221,29.4419 491.9829,29.5913 Q491.3438,29.7407 490.6382,29.7407 Q488.1314,29.7407 486.8115,28.0889 Q485.4917,26.437 485.4917,23.3159 Q485.4917,20.1865 486.8115,18.5347 Q488.1314,16.8828 490.6382,16.8828 Q491.3438,16.8828 491.9912,17.0322 Q492.6387,17.1816 493.2031,17.4805 L493.2031,20.2031 Q492.5723,19.6221 491.9788,19.3523 Q491.3853,19.0825 490.7544,19.0825 Q489.4097,19.0825 488.7249,20.1492 Q488.0401,21.2158 488.0401,23.3159 Q488.0401,25.4077 488.7249,26.4744 Q489.4097,27.541 490.7544,27.541 Q491.3853,27.541 491.9788,27.2712 Q492.5723,27.0015 493.2031,26.4204 Z " fill="#000000"/><text fill="#000000" font-family="sans-serif" font-size="14" lengthAdjust="spacing" textLength="145.1475" x="504.73" y="28.291">HentSaksfaseResultat</text><line style="stroke:#181818;stroke-width:0.5;" x1="476.73" x2="651.8775" y1="39" y2="39"/><ellipse cx="486.73" cy="52.7441" fill="#000000" rx="3" ry="3" style="stroke:#000000;stroke-width:1;"/><text fill="#000000" font-family="sans-serif" font-size="14" lengthAdjust="spacing" textLength="66.8486" x="495.73" y="56.5352">fase: Fase</text><line style="stroke:#181818;stroke-width:0.5;" x1="476.73" x2="651.8775" y1="63.4883" y2="63.4883"/></g><!--link Dokument to Dokumenttype--><g id="link_Dokument_Dokumenttype"><path codeLine="16" d="M2228.18,311.89 C2252.85,357.97 2281.83,412.1 2301.67,449.17 " fill="#FFFFFF" fill-opacity="0.00000" id="Dokument-Dokumenttype" style="stroke:#181818;stroke-width:1;"/></g><!--link Dokument to ReferanseDokumentfil--><g id="link_Dokument_ReferanseDokumentfil"><path codeLine="17" d="M2180.99,311.67 C2181.87,425.86 2183.36,618.83 2184,701.71 " fill="#FFFFFF" fill-opacity="0.00000" id="Dokument-ReferanseDokumentfil" style="stroke:#181818;stroke-width:1;"/></g><!--link Fase to ReferanseJournalpost--><g id="link_Fase_ReferanseJournalpost"><path codeLine="15" d="M925.98,303.44 C932.47,306.2 938.93,308.86 945.3,311.39 C1028.79,344.55 1063.34,321.9 1138.3,371.39 C1260.82,452.28 1355.878,584.0494 1408.328,666.6594 " fill="#FFFFFF" fill-opacity="0.00000" id="Fase-to-ReferanseJournalpost" style="stroke:#181818;stroke-width:1;"/><polygon fill="#181818" points="1414.76,676.79,1414.9209,669.5807,1408.328,666.6594,1408.1671,673.8687,1414.76,676.79" style="stroke:#181818;stroke-width:1;"/></g><!--link Fase to Vedtak--><g id="link_Fase_Vedtak"><path codeLine="24" d="M598.35,295.62 C557.04,317.31 514.06,342.96 477.3,371.39 C448.44,393.72 420.94,424.21 400.66,449.11 " fill="#FFFFFF" fill-opacity="0.00000" id="Fase-Vedtak" style="stroke:#181818;stroke-width:1;"/></g><!--link Fase to FaseStatusEnum--><g id="link_Fase_FaseStatusEnum"><path codeLine="25" d="M703.89,303.6 C687.79,325.6 670.38,349.4 654.3,371.39 C636.52,395.73 616.75,422.8 600.38,445.25 " fill="#FFFFFF" fill-opacity="0.00000" id="Fase-FaseStatusEnum" style="stroke:#181818;stroke-width:1;"/></g><!--link Fase to Fasekategori--><g id="link_Fase_Fasekategori"><path codeLine="26" d="M763.3,303.35 C763.3,351.21 763.3,409.98 763.3,449.36 " fill="#FFFFFF" fill-opacity="0.00000" id="Fase-Fasekategori" style="stroke:#181818;stroke-width:1;"/></g><!--link Fasekategori to GMN30--><g id="link_Fasekategori_GMN30"><path d="M732.15,539.5 C712.13,565.17 684.15,596.45 653.3,617.25 C613.58,644.05 567.36,665.91 522.03,683.39 " fill="#FFFFFF" fill-opacity="0.00000" id="Fasekategori-GMN30" style="stroke:#181818;stroke-width:1;stroke-dasharray:7.0,7.0;"/></g><!--link Milepel to Milepeltype--><g id="link_Milepel_Milepeltype"><path codeLine="25" d="M1583.74,527.52 C1332.55,578 873.34,670.7 856.3,677.25 C839.6,683.68 822.48,692.52 806.91,701.6 " fill="#FFFFFF" fill-opacity="0.00000" id="Milepel-Milepeltype" style="stroke:#181818;stroke-width:1;"/></g><!--link Milepel to ReferanseJournalpost--><g id="link_Milepel_ReferanseJournalpost"><path codeLine="37" d="M1599.66,617.68 C1575.41,638.19 1551.13,658.73 1529.51,677.01 " fill="#FFFFFF" fill-opacity="0.00000" id="Milepel-ReferanseJournalpost" style="stroke:#181818;stroke-width:1;"/></g><!--link Milepel to ReferanseDokumentfil--><g id="link_Milepel_ReferanseDokumentfil"><path codeLine="38" d="M1904.78,582.27 C1959.12,612.05 2020.03,645.79 2075.3,677.25 C2088.95,685.02 2103.48,693.46 2117.33,701.59 " fill="#FFFFFF" fill-opacity="0.00000" id="Milepel-ReferanseDokumentfil" style="stroke:#181818;stroke-width:1;"/></g><!--link Milepel to MilepelStatusEnum--><g id="link_Milepel_MilepelStatusEnum"><path codeLine="43" d="M1744.3,617.68 C1744.3,648.08 1744.3,678.55 1744.3,701.65 " fill="#FFFFFF" fill-opacity="0.00000" id="Milepel-MilepelStatusEnum" style="stroke:#181818;stroke-width:1;"/></g><!--link ReferanseJournalpost to EksternNoekkel--><g id="link_ReferanseJournalpost_EksternNoekkel"><path codeLine="44" d="M1367.76,807.99 C1337.68,830.67 1304.79,855.48 1278.19,875.54 " fill="#FFFFFF" fill-opacity="0.00000" id="ReferanseJournalpost-EksternNoekkel" style="stroke:#181818;stroke-width:1;"/></g><!--link ReferanseJournalpost to SaksJournalpostnummer--><g id="link_ReferanseJournalpost_SaksJournalpostnummer"><path codeLine="45" d="M1553.86,807.99 C1584.46,827.62 1617.54,848.85 1646.15,867.21 " fill="#FFFFFF" fill-opacity="0.00000" id="ReferanseJournalpost-SaksJournalpostnummer" style="stroke:#181818;stroke-width:1;"/></g><!--link ReferanseJournalpost to Journalnummer--><g id="link_ReferanseJournalpost_Journalnummer"><path codeLine="46" d="M1453.3,807.99 C1453.3,830.67 1453.3,855.48 1453.3,875.54 " fill="#FFFFFF" fill-opacity="0.00000" id="ReferanseJournalpost-Journalnummer" style="stroke:#181818;stroke-width:1;"/></g><!--link HentSaksfaseResultat to Fase--><g id="link_HentSaksfaseResultat_Fase"><path codeLine="9" d="M598.97,71.63 C619.79,90.49 647.33,115.42 673.89,139.48 " fill="#FFFFFF" fill-opacity="0.00000" id="HentSaksfaseResultat-Fase" style="stroke:#181818;stroke-width:1;"/></g><!--link Fase to Dokument--><g id="link_Fase_Dokument"><path codeLine="11" d="M876.33,139.26 C903.41,123.7 933.11,109.73 962.8,101.49 C1070.83,71.51 1863.49,72.55 1971.8,101.49 C1997.02,108.22 2011.6575,113.373 2035.5475,125.543 " fill="#FFFFFF" fill-opacity="0.00000" id="Fase-to-Dokument" style="stroke:#181818;stroke-width:1;"/><polygon fill="#181818" points="2046.24,130.99,2042.7094,124.7023,2035.5475,125.543,2039.0781,131.8307,2046.24,130.99" style="stroke:#181818;stroke-width:1;"/></g><!--link Fase to Milepel--><g id="link_Fase_Milepel"><path codeLine="12" d="M922.48,303.56 C930.12,306.4 937.75,309.03 945.3,311.39 C1113.94,364.13 1165.93,332.55 1338.3,371.39 C1420.15,389.84 1509.61,416.03 1583.68,439.42 " fill="#FFFFFF" fill-opacity="0.00000" id="Fase-Milepel" style="stroke:#181818;stroke-width:1;"/></g><!--SRC=[fOyn3i8m34Ltdy9TAyKLApD2B2nmWgXrK1IdhUg61N5t4feD5eI7B_dRVhORF_QI1aRgYBfneg3aV1QrGPrLNkY-8ySYh3HC8KKUrwuNgpfuUrjif3b1ymkbvFyHeXUUMJuWy3Rmb4-yrh4BQvBLhlW0pD4MRu_7hF04-Dffp5Q7ecXQFDItgs7mlEs75m00]--></g></svg>