<svg xmlns="http://www.w3.org/2000/svg" xmlns:xlink="http://www.w3.org/1999/xlink" contentStyleType="text/css" height="765px" preserveAspectRatio="none" style="width:493px;height:765px;background:#FFFFFF;" version="1.1" viewBox="0 0 493 765" width="493px" zoomAndPan="magnify"><defs/><g><!--class HentSaksfaseResultat--><g id="elem_HentSaksfaseResultat"><rect codeLine="2" fill="#F1F1F1" height="64.4883" id="HentSaksfaseResultat" rx="2.5" ry="2.5" style="stroke:#181818;stroke-width:0.5;" width="178" x="155" y="7"/><ellipse cx="170" cy="23" fill="#ADD1B2" rx="11" ry="11" style="stroke:#181818;stroke-width:1.0;"/><path d="M172.4731,29.1431 Q171.8921,29.4419 171.2529,29.5913 Q170.6138,29.7407 169.9082,29.7407 Q167.4014,29.7407 166.0815,28.0889 Q164.7617,26.437 164.7617,23.3159 Q164.7617,20.1865 166.0815,18.5347 Q167.4014,16.8828 169.9082,16.8828 Q170.6138,16.8828 171.2612,17.0322 Q171.9087,17.1816 172.4731,17.4805 L172.4731,20.2031 Q171.8423,19.6221 171.2488,19.3523 Q170.6553,19.0825 170.0244,19.0825 Q168.6797,19.0825 167.9949,20.1492 Q167.3101,21.2158 167.3101,23.3159 Q167.3101,25.4077 167.9949,26.4744 Q168.6797,27.541 170.0244,27.541 Q170.6553,27.541 171.2488,27.2712 Q171.8423,27.0015 172.4731,26.4204 Z " fill="#000000"/><text fill="#000000" font-family="sans-serif" font-size="14" lengthAdjust="spacing" textLength="146" x="184" y="28.291">HentSaksfaseResultat</text><line style="stroke:#181818;stroke-width:0.5;" x1="156" x2="332" y1="39" y2="39"/><ellipse cx="166" cy="52.7441" fill="none" rx="3" ry="3" style="stroke:#038048;stroke-width:1.0;"/><text fill="#000000" font-family="sans-serif" font-size="14" lengthAdjust="spacing" textLength="67" x="175" y="56.5352">fase: Fase</text><line style="stroke:#181818;stroke-width:0.5;" x1="156" x2="332" y1="63.4883" y2="63.4883"/></g><!--class Fase--><g id="elem_Fase"><rect codeLine="8" fill="#F1F1F1" height="146.9297" id="Fase" rx="2.5" ry="2.5" style="stroke:#181818;stroke-width:0.5;" width="199" x="144.5" y="131.49"/><ellipse cx="224.25" cy="147.49" fill="#ADD1B2" rx="11" ry="11" style="stroke:#181818;stroke-width:1.0;"/><path d="M226.7231,153.6331 Q226.1421,153.9319 225.5029,154.0813 Q224.8638,154.2307 224.1582,154.2307 Q221.6514,154.2307 220.3315,152.5789 Q219.0117,150.927 219.0117,147.8059 Q219.0117,144.6765 220.3315,143.0247 Q221.6514,141.3728 224.1582,141.3728 Q224.8638,141.3728 225.5112,141.5222 Q226.1587,141.6716 226.7231,141.9705 L226.7231,144.6931 Q226.0923,144.1121 225.4988,143.8423 Q224.9053,143.5725 224.2744,143.5725 Q222.9297,143.5725 222.2449,144.6392 Q221.5601,145.7058 221.5601,147.8059 Q221.5601,149.8977 222.2449,150.9644 Q222.9297,152.031 224.2744,152.031 Q224.9053,152.031 225.4988,151.7612 Q226.0923,151.4915 226.7231,150.9104 Z " fill="#000000"/><text fill="#000000" font-family="sans-serif" font-size="14" lengthAdjust="spacing" textLength="31" x="244.75" y="152.781">Fase</text><line style="stroke:#181818;stroke-width:0.5;" x1="145.5" x2="342.5" y1="163.49" y2="163.49"/><ellipse cx="155.5" cy="177.2341" fill="none" rx="3" ry="3" style="stroke:#038048;stroke-width:1.0;"/><text fill="#000000" font-family="sans-serif" font-size="14" lengthAdjust="spacing" textLength="109" x="164.5" y="181.0252">fasenavn: string</text><ellipse cx="155.5" cy="193.7224" fill="none" rx="3" ry="3" style="stroke:#038048;stroke-width:1.0;"/><text fill="#000000" font-family="sans-serif" font-size="14" lengthAdjust="spacing" textLength="89" x="164.5" y="197.5134">faseid: string</text><ellipse cx="155.5" cy="210.2107" fill="none" rx="3" ry="3" style="stroke:#038048;stroke-width:1.0;"/><text fill="#000000" font-family="sans-serif" font-size="14" lengthAdjust="spacing" textLength="131" x="164.5" y="214.0017">milepeler: Milepel[]</text><ellipse cx="155.5" cy="226.699" fill="none" rx="3" ry="3" style="stroke:#038048;stroke-width:1.0;"/><text fill="#000000" font-family="sans-serif" font-size="14" lengthAdjust="spacing" textLength="107" x="164.5" y="230.49">global: boolean</text><ellipse cx="155.5" cy="243.1873" fill="none" rx="3" ry="3" style="stroke:#038048;stroke-width:1.0;"/><text fill="#000000" font-family="sans-serif" font-size="14" lengthAdjust="spacing" textLength="161" x="164.5" y="246.9783">status: FaseStatusEnum</text><ellipse cx="155.5" cy="259.6755" fill="none" rx="3" ry="3" style="stroke:#038048;stroke-width:1.0;"/><text fill="#000000" font-family="sans-serif" font-size="14" lengthAdjust="spacing" textLength="173" x="164.5" y="263.4666">dokumenter: Dokument[]</text><line style="stroke:#181818;stroke-width:0.5;" x1="145.5" x2="342.5" y1="270.4197" y2="270.4197"/></g><!--class Dokument--><g id="elem_Dokument"><rect codeLine="19" fill="#F1F1F1" height="113.9531" id="Dokument" rx="2.5" ry="2.5" style="stroke:#181818;stroke-width:0.5;" width="226" x="260" y="420.86"/><ellipse cx="333.25" cy="436.86" fill="#ADD1B2" rx="11" ry="11" style="stroke:#181818;stroke-width:1.0;"/><path d="M335.7231,443.0031 Q335.1421,443.3019 334.5029,443.4513 Q333.8638,443.6007 333.1582,443.6007 Q330.6514,443.6007 329.3315,441.9489 Q328.0117,440.297 328.0117,437.1759 Q328.0117,434.0465 329.3315,432.3947 Q330.6514,430.7428 333.1582,430.7428 Q333.8638,430.7428 334.5112,430.8922 Q335.1587,431.0416 335.7231,431.3405 L335.7231,434.0631 Q335.0923,433.4821 334.4988,433.2123 Q333.9053,432.9425 333.2744,432.9425 Q331.9297,432.9425 331.2449,434.0092 Q330.5601,435.0758 330.5601,437.1759 Q330.5601,439.2677 331.2449,440.3344 Q331.9297,441.401 333.2744,441.401 Q333.9053,441.401 334.4988,441.1312 Q335.0923,440.8615 335.7231,440.2804 Z " fill="#000000"/><text fill="#000000" font-family="sans-serif" font-size="14" lengthAdjust="spacing" textLength="71" x="353.75" y="442.151">Dokument</text><line style="stroke:#181818;stroke-width:0.5;" x1="261" x2="485" y1="452.86" y2="452.86"/><ellipse cx="271" cy="466.6041" fill="none" rx="3" ry="3" style="stroke:#038048;stroke-width:1.0;"/><text fill="#000000" font-family="sans-serif" font-size="14" lengthAdjust="spacing" textLength="200" x="280" y="470.3952">referanseDokumentFil: string</text><ellipse cx="271" cy="483.0924" fill="none" rx="3" ry="3" style="stroke:#038048;stroke-width:1.0;"/><text fill="#000000" font-family="sans-serif" font-size="14" lengthAdjust="spacing" textLength="77" x="280" y="486.8834">type: string</text><ellipse cx="271" cy="499.5807" fill="none" rx="3" ry="3" style="stroke:#038048;stroke-width:1.0;"/><text fill="#000000" font-family="sans-serif" font-size="14" lengthAdjust="spacing" textLength="124" x="280" y="503.3717">beskrivelse: string</text><ellipse cx="271" cy="516.069" fill="none" rx="3" ry="3" style="stroke:#038048;stroke-width:1.0;"/><text fill="#000000" font-family="sans-serif" font-size="14" lengthAdjust="spacing" textLength="94" x="280" y="519.86">filnavn: string</text><line style="stroke:#181818;stroke-width:0.5;" x1="261" x2="485" y1="526.8131" y2="526.8131"/></g><!--class Milepel--><g id="elem_Milepel"><rect codeLine="28" fill="#F1F1F1" height="278.8359" id="Milepel" rx="2.5" ry="2.5" style="stroke:#181818;stroke-width:0.5;" width="218" x="7" y="338.42"/><ellipse cx="87.25" cy="354.42" fill="#ADD1B2" rx="11" ry="11" style="stroke:#181818;stroke-width:1.0;"/><path d="M89.7231,360.5631 Q89.1421,360.8619 88.5029,361.0113 Q87.8638,361.1607 87.1582,361.1607 Q84.6514,361.1607 83.3315,359.5089 Q82.0117,357.857 82.0117,354.7359 Q82.0117,351.6065 83.3315,349.9547 Q84.6514,348.3028 87.1582,348.3028 Q87.8638,348.3028 88.5112,348.4522 Q89.1587,348.6016 89.7231,348.9005 L89.7231,351.6231 Q89.0923,351.0421 88.4988,350.7723 Q87.9053,350.5025 87.2744,350.5025 Q85.9297,350.5025 85.2449,351.5692 Q84.5601,352.6358 84.5601,354.7359 Q84.5601,356.8277 85.2449,357.8944 Q85.9297,358.961 87.2744,358.961 Q87.9053,358.961 88.4988,358.6912 Q89.0923,358.4215 89.7231,357.8404 Z " fill="#000000"/><text fill="#000000" font-family="sans-serif" font-size="14" lengthAdjust="spacing" textLength="49" x="107.75" y="359.711">Milepel</text><line style="stroke:#181818;stroke-width:0.5;" x1="8" x2="224" y1="370.42" y2="370.42"/><ellipse cx="18" cy="384.1641" fill="none" rx="3" ry="3" style="stroke:#038048;stroke-width:1.0;"/><text fill="#000000" font-family="sans-serif" font-size="14" lengthAdjust="spacing" textLength="108" x="27" y="387.9552">systemId: string</text><ellipse cx="18" cy="400.6524" fill="none" rx="3" ry="3" style="stroke:#038048;stroke-width:1.0;"/><text fill="#000000" font-family="sans-serif" font-size="14" lengthAdjust="spacing" textLength="124" x="27" y="404.4434">beskrivelse: string</text><ellipse cx="18" cy="417.1407" fill="none" rx="3" ry="3" style="stroke:#038048;stroke-width:1.0;"/><text fill="#000000" font-family="sans-serif" font-size="14" lengthAdjust="spacing" textLength="100" x="27" y="420.9317">kategori: Kode</text><ellipse cx="18" cy="433.629" fill="none" rx="3" ry="3" style="stroke:#038048;stroke-width:1.0;"/><text fill="#000000" font-family="sans-serif" font-size="14" lengthAdjust="spacing" textLength="65" x="27" y="437.42">frist: date</text><ellipse cx="18" cy="450.1173" fill="none" rx="3" ry="3" style="stroke:#038048;stroke-width:1.0;"/><text fill="#000000" font-family="sans-serif" font-size="14" lengthAdjust="spacing" textLength="85" x="27" y="453.9083">utfoert: date</text><ellipse cx="18" cy="466.6055" fill="none" rx="3" ry="3" style="stroke:#038048;stroke-width:1.0;"/><text fill="#000000" font-family="sans-serif" font-size="14" lengthAdjust="spacing" textLength="118" x="27" y="470.3966">journaldato: date</text><ellipse cx="18" cy="483.0938" fill="none" rx="3" ry="3" style="stroke:#038048;stroke-width:1.0;"/><text fill="#000000" font-family="sans-serif" font-size="14" lengthAdjust="spacing" textLength="105" x="27" y="486.8848">intern: boolean</text><ellipse cx="18" cy="499.5821" fill="none" rx="3" ry="3" style="stroke:#038048;stroke-width:1.0;"/><text fill="#000000" font-family="sans-serif" font-size="14" lengthAdjust="spacing" textLength="192" x="27" y="503.3731">referanseJournalpost: string</text><ellipse cx="18" cy="516.0704" fill="none" rx="3" ry="3" style="stroke:#038048;stroke-width:1.0;"/><text fill="#000000" font-family="sans-serif" font-size="14" lengthAdjust="spacing" textLength="184" x="27" y="519.8614">referanseDokument: string</text><ellipse cx="18" cy="532.5587" fill="none" rx="3" ry="3" style="stroke:#038048;stroke-width:1.0;"/><text fill="#000000" font-family="sans-serif" font-size="14" lengthAdjust="spacing" textLength="110" x="27" y="536.3497">erStart: boolean</text><ellipse cx="18" cy="549.047" fill="none" rx="3" ry="3" style="stroke:#038048;stroke-width:1.0;"/><text fill="#000000" font-family="sans-serif" font-size="14" lengthAdjust="spacing" textLength="109" x="27" y="552.838">erSlutt: boolean</text><ellipse cx="18" cy="565.5352" fill="none" rx="3" ry="3" style="stroke:#038048;stroke-width:1.0;"/><text fill="#000000" font-family="sans-serif" font-size="14" lengthAdjust="spacing" textLength="179" x="27" y="569.3263">status: MilepelStatusEnum</text><ellipse cx="18" cy="582.0235" fill="none" rx="3" ry="3" style="stroke:#038048;stroke-width:1.0;"/><text fill="#000000" font-family="sans-serif" font-size="14" lengthAdjust="spacing" textLength="122" x="27" y="585.8145">erGlobal: boolean</text><ellipse cx="18" cy="598.5118" fill="none" rx="3" ry="3" style="stroke:#038048;stroke-width:1.0;"/><text fill="#000000" font-family="sans-serif" font-size="14" lengthAdjust="spacing" textLength="159" x="27" y="602.3028">dokument: Dokument[]</text><line style="stroke:#181818;stroke-width:0.5;" x1="8" x2="224" y1="609.2559" y2="609.2559"/></g><!--class MilepelStatusEnum--><g id="elem_MilepelStatusEnum"><rect codeLine="48" fill="#F1F1F1" height="80.9766" id="MilepelStatusEnum" rx="2.5" ry="2.5" style="stroke:#181818;stroke-width:0.5;" width="162" x="35" y="677.25"/><ellipse cx="50" cy="693.25" fill="#EB937F" rx="11" ry="11" style="stroke:#181818;stroke-width:1.0;"/><path d="M53.6143,699.75 L45.8945,699.75 L45.8945,687.3569 L53.6143,687.3569 L53.6143,689.5151 L48.3433,689.5151 L48.3433,692.188 L53.1162,692.188 L53.1162,694.3462 L48.3433,694.3462 L48.3433,697.5918 L53.6143,697.5918 Z " fill="#000000"/><text fill="#000000" font-family="sans-serif" font-size="14" lengthAdjust="spacing" textLength="130" x="64" y="698.541">MilepelStatusEnum</text><line style="stroke:#181818;stroke-width:0.5;" x1="36" x2="196" y1="709.25" y2="709.25"/><ellipse cx="46" cy="722.9941" fill="none" rx="3" ry="3" style="stroke:#038048;stroke-width:1.0;"/><text fill="#000000" font-family="sans-serif" font-size="14" lengthAdjust="spacing" textLength="36" x="55" y="726.7852">N&#229;dd</text><ellipse cx="46" cy="739.4824" fill="none" rx="3" ry="3" style="stroke:#038048;stroke-width:1.0;"/><text fill="#000000" font-family="sans-serif" font-size="14" lengthAdjust="spacing" textLength="55" x="55" y="743.2734">Planlagt</text><line style="stroke:#181818;stroke-width:0.5;" x1="36" x2="196" y1="750.2266" y2="750.2266"/></g><!--link HentSaksfaseResultat to Fase--><g id="link_HentSaksfaseResultat_Fase"><path codeLine="6" d="M244,71.81 C244,88.72 244,110.3 244,131.1 " fill="none" id="HentSaksfaseResultat-Fase" style="stroke:#181818;stroke-width:1.0;"/></g><!--link Fase to Dokument--><g id="link_Fase_Dokument"><path codeLine="17" d="M278.74,278.9 C299.93,323.4 321.4612,368.6055 341.0212,409.6855 " fill="none" id="Fase-to-Dokument" style="stroke:#181818;stroke-width:1.0;"/><polygon fill="#181818" points="346.18,420.52,347.2121,413.3831,341.0212,409.6855,339.9891,416.8223,346.18,420.52" style="stroke:#181818;stroke-width:1.0;"/></g><!--link Fase to Milepel--><g id="link_Fase_Milepel"><path codeLine="26" d="M209.53,278.9 C200.87,297.23 191.28,317.53 181.64,337.92 " fill="none" id="Fase-Milepel" style="stroke:#181818;stroke-width:1.0;"/></g><!--link Milepel to MilepelStatusEnum--><g id="link_Milepel_MilepelStatusEnum"><path codeLine="45" d="M116,617.57 C116,639.18 116,659.9 116,676.76 " fill="none" id="Milepel-MilepelStatusEnum" style="stroke:#181818;stroke-width:1.0;"/></g><!--link Milepel to Dokument--><g id="link_Milepel_Dokument"><path codeLine="46" d="M225.43,477.84 C236.86,477.84 236.29,477.84 247.73,477.84 " fill="none" id="Milepel-to-Dokument" style="stroke:#181818;stroke-width:1.0;"/><polygon fill="#181818" points="259.73,477.84,253.73,473.84,247.73,477.84,253.73,481.84,259.73,477.84" style="stroke:#181818;stroke-width:1.0;"/></g><!--SRC=[ZLBBRiCW4BpxApYtyWzmRjEN6bNDiUe1XxL5lGQBXKXHrS_fb_J7YernZ9DAzG4jCp0xdcMFWeZTWtOxqL8j25w1F3hXs6V1mdSzO9njmbfy5SN5asKP-M8_gWtryhOM1yqPEQjqSqALpB5E8VI0O3bxZkNRUsGQD9L0pYfZ48IE88N6dgAntLZVQjz5JfhMTy7ee7KprK4is1-jbLSpcYodVR9jeGOhD44YDWfpk-xOGuvKGArL1q1Q4RN2B8BPHvd-DDcOjia57Sb1zo3_sQSL3XfZ5MTFHiBKsofodCb0HS2xse3De0_ZhHOO0BE4rH2WNiK-1_COB_Lca5-wE8ikfy66QGtzCzc0edVkZnbFiQp73FRkqikGSzzyzYdSK-mBmPbSlWq8pFdPD9tjpxUKiNn1eL4qBhJv1G00]--></g></svg>