<svg xmlns="http://www.w3.org/2000/svg" xmlns:xlink="http://www.w3.org/1999/xlink" contentStyleType="text/css" height="972px" preserveAspectRatio="none" style="width:1636px;height:972px;background:#FFFFFF;" version="1.1" viewBox="0 0 1636 972" width="1636px" zoomAndPan="magnify"><defs/><g><!--class ReferanseDokumentfil--><g id="elem_ReferanseDokumentfil"><rect codeLine="38" fill="#F1F1F1" height="80.9766" id="ReferanseDokumentfil" rx="2.5" ry="2.5" style="stroke:#181818;stroke-width:0.5;" width="184" x="1204" y="701.99"/><ellipse cx="1219" cy="717.99" fill="#ADD1B2" rx="11" ry="11" style="stroke:#181818;stroke-width:1.0;"/><path d="M1221.4731,724.1331 Q1220.8921,724.4319 1220.2529,724.5813 Q1219.6138,724.7307 1218.9082,724.7307 Q1216.4014,724.7307 1215.0815,723.0789 Q1213.7617,721.427 1213.7617,718.3059 Q1213.7617,715.1765 1215.0815,713.5247 Q1216.4014,711.8728 1218.9082,711.8728 Q1219.6138,711.8728 1220.2612,712.0222 Q1220.9087,712.1716 1221.4731,712.4705 L1221.4731,715.1931 Q1220.8423,714.6121 1220.2488,714.3423 Q1219.6553,714.0725 1219.0244,714.0725 Q1217.6797,714.0725 1216.9949,715.1392 Q1216.3101,716.2058 1216.3101,718.3059 Q1216.3101,720.3977 1216.9949,721.4644 Q1217.6797,722.531 1219.0244,722.531 Q1219.6553,722.531 1220.2488,722.2612 Q1220.8423,721.9915 1221.4731,721.4104 Z " fill="#000000"/><text fill="#000000" font-family="sans-serif" font-size="14" lengthAdjust="spacing" textLength="152" x="1233" y="723.281">ReferanseDokumentfil</text><line style="stroke:#181818;stroke-width:0.5;" x1="1205" x2="1387" y1="733.99" y2="733.99"/><ellipse cx="1215" cy="747.7341" fill="none" rx="3" ry="3" style="stroke:#038048;stroke-width:1.0;"/><text fill="#000000" font-family="sans-serif" font-size="14" lengthAdjust="spacing" textLength="61" x="1224" y="751.5252">id: string</text><ellipse cx="1215" cy="764.2224" fill="none" rx="3" ry="3" style="stroke:#038048;stroke-width:1.0;"/><text fill="#000000" font-family="sans-serif" font-size="14" lengthAdjust="spacing" textLength="67" x="1224" y="768.0134">url: string</text><line style="stroke:#181818;stroke-width:0.5;" x1="1205" x2="1387" y1="774.9666" y2="774.9666"/></g><!--class Dokument--><g id="elem_Dokument"><rect codeLine="3" fill="#F1F1F1" height="179.9063" id="Dokument" rx="2.5" ry="2.5" style="stroke:#181818;stroke-width:0.5;" width="335" x="1068.5" y="131.49"/><ellipse cx="1196.25" cy="147.49" fill="#ADD1B2" rx="11" ry="11" style="stroke:#181818;stroke-width:1.0;"/><path d="M1198.7231,153.6331 Q1198.1421,153.9319 1197.5029,154.0813 Q1196.8638,154.2307 1196.1582,154.2307 Q1193.6514,154.2307 1192.3315,152.5789 Q1191.0117,150.927 1191.0117,147.8059 Q1191.0117,144.6765 1192.3315,143.0247 Q1193.6514,141.3728 1196.1582,141.3728 Q1196.8638,141.3728 1197.5112,141.5222 Q1198.1587,141.6716 1198.7231,141.9705 L1198.7231,144.6931 Q1198.0923,144.1121 1197.4988,143.8423 Q1196.9053,143.5725 1196.2744,143.5725 Q1194.9297,143.5725 1194.2449,144.6392 Q1193.5601,145.7058 1193.5601,147.8059 Q1193.5601,149.8977 1194.2449,150.9644 Q1194.9297,152.031 1196.2744,152.031 Q1196.9053,152.031 1197.4988,151.7612 Q1198.0923,151.4915 1198.7231,150.9104 Z " fill="#000000"/><text fill="#000000" font-family="sans-serif" font-size="14" lengthAdjust="spacing" textLength="71" x="1216.75" y="152.781">Dokument</text><line style="stroke:#181818;stroke-width:0.5;" x1="1069.5" x2="1402.5" y1="163.49" y2="163.49"/><ellipse cx="1079.5" cy="177.2341" fill="none" rx="3" ry="3" style="stroke:#038048;stroke-width:1.0;"/><text fill="#000000" font-family="sans-serif" font-size="14" lengthAdjust="spacing" textLength="61" x="1088.5" y="181.0252">id: string</text><ellipse cx="1079.5" cy="193.7224" fill="none" rx="3" ry="3" style="stroke:#038048;stroke-width:1.0;"/><text fill="#000000" font-family="sans-serif" font-size="14" lengthAdjust="spacing" textLength="79" x="1088.5" y="197.5134">tittel: string</text><ellipse cx="1079.5" cy="210.2107" fill="none" rx="3" ry="3" style="stroke:#038048;stroke-width:1.0;"/><text fill="#000000" font-family="sans-serif" font-size="14" lengthAdjust="spacing" textLength="94" x="1088.5" y="214.0017">filnavn: string</text><ellipse cx="1079.5" cy="226.699" fill="none" rx="3" ry="3" style="stroke:#038048;stroke-width:1.0;"/><text fill="#000000" font-family="sans-serif" font-size="14" lengthAdjust="spacing" textLength="207" x="1088.5" y="230.49">dokumenttype: Dokumenttype</text><ellipse cx="1079.5" cy="243.1873" fill="none" rx="3" ry="3" style="stroke:#038048;stroke-width:1.0;"/><text fill="#000000" font-family="sans-serif" font-size="14" lengthAdjust="spacing" textLength="309" x="1088.5" y="246.9783">referanseDokumentfil: ReferanseDokumentfil</text><ellipse cx="1079.5" cy="259.6755" fill="none" rx="3" ry="3" style="stroke:#038048;stroke-width:1.0;"/><text fill="#000000" font-family="sans-serif" font-size="14" lengthAdjust="spacing" textLength="115" x="1088.5" y="263.4666">mimetype: string</text><ellipse cx="1079.5" cy="276.1638" fill="none" rx="3" ry="3" style="stroke:#038048;stroke-width:1.0;"/><text fill="#000000" font-family="sans-serif" font-size="14" lengthAdjust="spacing" textLength="146" x="1088.5" y="279.9548">dokumentsdato: date</text><ellipse cx="1079.5" cy="292.6521" fill="none" rx="3" ry="3" style="stroke:#038048;stroke-width:1.0;"/><text fill="#000000" font-family="sans-serif" font-size="14" lengthAdjust="spacing" textLength="114" x="1088.5" y="296.4431">arkivnavn: string</text><line style="stroke:#181818;stroke-width:0.5;" x1="1069.5" x2="1402.5" y1="303.3963" y2="303.3963"/></g><g id="elem_GMN4"><path d="M1130.5,26.59 L1130.5,51.9005 A0,0 0 0 0 1130.5,51.9005 L1232,51.9005 L1236,131.28 L1240,51.9005 L1341.5,51.9005 A0,0 0 0 0 1341.5,51.9005 L1341.5,36.59 L1331.5,26.59 L1130.5,26.59 A0,0 0 0 0 1130.5,26.59 " fill="#FEFFDD" style="stroke:#181818;stroke-width:0.5;"/><path d="M1331.5,26.59 L1331.5,36.59 L1341.5,36.59 L1331.5,26.59 " fill="#FEFFDD" style="stroke:#181818;stroke-width:0.5;"/><text fill="#000000" font-family="sans-serif" font-size="13" lengthAdjust="spacing" textLength="190" x="1136.5" y="44.1584">Hentet definisjon fra Fiks Plan</text></g><!--class Dokumenttype--><g id="elem_Dokumenttype"><rect codeLine="19" fill="#F1F1F1" height="89.5977" id="Dokumenttype" rx="2.5" ry="2.5" style="stroke:#181818;stroke-width:0.5;" width="184" x="1059" y="449.53"/><ellipse cx="1097.4" cy="469.8405" fill="#ADD1B2" rx="11" ry="11" style="stroke:#181818;stroke-width:1.0;"/><path d="M1099.8731,475.9836 Q1099.2921,476.2824 1098.6529,476.4319 Q1098.0138,476.5813 1097.3082,476.5813 Q1094.8014,476.5813 1093.4815,474.9294 Q1092.1617,473.2776 1092.1617,470.1565 Q1092.1617,467.0271 1093.4815,465.3752 Q1094.8014,463.7234 1097.3082,463.7234 Q1098.0138,463.7234 1098.6612,463.8728 Q1099.3087,464.0222 1099.8731,464.321 L1099.8731,467.0437 Q1099.2423,466.4626 1098.6488,466.1928 Q1098.0553,465.9231 1097.4244,465.9231 Q1096.0797,465.9231 1095.3949,466.9897 Q1094.7101,468.0564 1094.7101,470.1565 Q1094.7101,472.2483 1095.3949,473.3149 Q1096.0797,474.3816 1097.4244,474.3816 Q1098.0553,474.3816 1098.6488,474.1118 Q1099.2423,473.842 1099.8731,473.261 Z " fill="#000000"/><text fill="#000000" font-family="sans-serif" font-size="12" font-style="italic" lengthAdjust="spacing" textLength="42" x="1145.6" y="466.1316">&#171;Kode&#187;</text><text fill="#000000" font-family="sans-serif" font-size="14" lengthAdjust="spacing" textLength="100" x="1116.6" y="482.198">Dokumenttype</text><line style="stroke:#181818;stroke-width:0.5;" x1="1060" x2="1242" y1="490.1511" y2="490.1511"/><ellipse cx="1070" cy="503.8952" fill="none" rx="3" ry="3" style="stroke:#038048;stroke-width:1.0;"/><text fill="#000000" font-family="sans-serif" font-size="14" lengthAdjust="spacing" textLength="116" x="1079" y="507.6863">kodeverdi: string</text><ellipse cx="1070" cy="520.3835" fill="none" rx="3" ry="3" style="stroke:#038048;stroke-width:1.0;"/><text fill="#000000" font-family="sans-serif" font-size="14" lengthAdjust="spacing" textLength="158" x="1079" y="524.1745">kodebeskrivelse: string</text><line style="stroke:#181818;stroke-width:0.5;" x1="1060" x2="1242" y1="531.1277" y2="531.1277"/></g><!--class Fase--><g id="elem_Fase"><rect codeLine="2" fill="#F1F1F1" height="163.418" id="Fase" rx="2.5" ry="2.5" style="stroke:#181818;stroke-width:0.5;" width="199" x="278.5" y="139.73"/><ellipse cx="358.25" cy="155.73" fill="#ADD1B2" rx="11" ry="11" style="stroke:#181818;stroke-width:1.0;"/><path d="M360.7231,161.8731 Q360.1421,162.1719 359.5029,162.3213 Q358.8638,162.4707 358.1582,162.4707 Q355.6514,162.4707 354.3315,160.8189 Q353.0117,159.167 353.0117,156.0459 Q353.0117,152.9165 354.3315,151.2647 Q355.6514,149.6128 358.1582,149.6128 Q358.8638,149.6128 359.5112,149.7622 Q360.1587,149.9116 360.7231,150.2105 L360.7231,152.9331 Q360.0923,152.3521 359.4988,152.0823 Q358.9053,151.8125 358.2744,151.8125 Q356.9297,151.8125 356.2449,152.8792 Q355.5601,153.9458 355.5601,156.0459 Q355.5601,158.1377 356.2449,159.2044 Q356.9297,160.271 358.2744,160.271 Q358.9053,160.271 359.4988,160.0012 Q360.0923,159.7315 360.7231,159.1504 Z " fill="#000000"/><text fill="#000000" font-family="sans-serif" font-size="14" lengthAdjust="spacing" textLength="31" x="378.75" y="161.021">Fase</text><line style="stroke:#181818;stroke-width:0.5;" x1="279.5" x2="476.5" y1="171.73" y2="171.73"/><ellipse cx="289.5" cy="185.4741" fill="none" rx="3" ry="3" style="stroke:#038048;stroke-width:1.0;"/><text fill="#000000" font-family="sans-serif" font-size="14" lengthAdjust="spacing" textLength="109" x="298.5" y="189.2652">fasenavn: string</text><ellipse cx="289.5" cy="201.9624" fill="none" rx="3" ry="3" style="stroke:#038048;stroke-width:1.0;"/><text fill="#000000" font-family="sans-serif" font-size="14" lengthAdjust="spacing" textLength="89" x="298.5" y="205.7534">faseid: string</text><ellipse cx="289.5" cy="218.4507" fill="none" rx="3" ry="3" style="stroke:#038048;stroke-width:1.0;"/><text fill="#000000" font-family="sans-serif" font-size="14" lengthAdjust="spacing" textLength="153" x="298.5" y="222.2417">kategori: Fasekategori</text><ellipse cx="289.5" cy="234.939" fill="none" rx="3" ry="3" style="stroke:#038048;stroke-width:1.0;"/><text fill="#000000" font-family="sans-serif" font-size="14" lengthAdjust="spacing" textLength="131" x="298.5" y="238.73">milepeler: Milepel[]</text><ellipse cx="289.5" cy="251.4273" fill="none" rx="3" ry="3" style="stroke:#038048;stroke-width:1.0;"/><text fill="#000000" font-family="sans-serif" font-size="14" lengthAdjust="spacing" textLength="161" x="298.5" y="255.2183">status: FaseStatusEnum</text><ellipse cx="289.5" cy="267.9155" fill="none" rx="3" ry="3" style="stroke:#038048;stroke-width:1.0;"/><text fill="#000000" font-family="sans-serif" font-size="14" lengthAdjust="spacing" textLength="100" x="298.5" y="271.7066">vedtak: Vedtak</text><ellipse cx="289.5" cy="284.4038" fill="none" rx="3" ry="3" style="stroke:#038048;stroke-width:1.0;"/><text fill="#000000" font-family="sans-serif" font-size="14" lengthAdjust="spacing" textLength="173" x="298.5" y="288.1948">dokumenter: Dokument[]</text><line style="stroke:#181818;stroke-width:0.5;" x1="279.5" x2="476.5" y1="295.148" y2="295.148"/></g><g id="elem_GMN11"><path d="M304,18.93 L304,59.5511 A0,0 0 0 0 304,59.5511 L551.32,59.5511 L467.3,139.58 L559.32,59.5511 L850,59.5511 A0,0 0 0 0 850,59.5511 L850,28.93 L840,18.93 L304,18.93 A0,0 0 0 0 304,18.93 " fill="#FEFFDD" style="stroke:#181818;stroke-width:0.5;"/><path d="M840,18.93 L840,28.93 L850,28.93 L840,18.93 " fill="#FEFFDD" style="stroke:#181818;stroke-width:0.5;"/><text fill="#000000" font-family="sans-serif" font-size="13" lengthAdjust="spacing" textLength="369" x="310" y="36.4984">En fase er i hovedsak det som hender mellom to milepeler.</text><text fill="#000000" font-family="sans-serif" font-size="13" lengthAdjust="spacing" textLength="525" x="310" y="51.8089">Interne faser sendes ikke ut ved denne protokollen. Vi kutter derfor ut Global flagg.</text></g><path d="M512.5,196.13 L512.5,212.4405 L387.5,200.4624 L512.5,220.4405 L512.5,236.7511 A0,0 0 0 0 512.5,236.7511 L1033.5,236.7511 A0,0 0 0 0 1033.5,236.7511 L1033.5,206.13 L1023.5,196.13 L512.5,196.13 A0,0 0 0 0 512.5,196.13 " fill="#FEFFDD" style="stroke:#181818;stroke-width:0.5;"/><path d="M1023.5,196.13 L1023.5,206.13 L1033.5,206.13 L1023.5,196.13 " fill="#FEFFDD" style="stroke:#181818;stroke-width:0.5;"/><text fill="#000000" font-family="sans-serif" font-size="13" lengthAdjust="spacing" textLength="500" x="518.5" y="213.6984">Faseid brukes alene (ikke sammen med saksnummer) for &#229; hente en enkelt fase</text><text fill="#000000" font-family="sans-serif" font-size="13" lengthAdjust="spacing" textLength="165" x="518.5" y="229.0089">Den m&#229; dermed v&#230;re unik</text><!--class Vedtak--><g id="elem_Vedtak"><rect codeLine="31" fill="#F1F1F1" height="89.5977" id="Vedtak" rx="2.5" ry="2.5" style="stroke:#181818;stroke-width:0.5;" width="184" x="7" y="449.53"/><ellipse cx="71.25" cy="469.8405" fill="#ADD1B2" rx="11" ry="11" style="stroke:#181818;stroke-width:1.0;"/><path d="M73.7231,475.9836 Q73.1421,476.2824 72.5029,476.4319 Q71.8638,476.5813 71.1582,476.5813 Q68.6514,476.5813 67.3315,474.9294 Q66.0117,473.2776 66.0117,470.1565 Q66.0117,467.0271 67.3315,465.3752 Q68.6514,463.7234 71.1582,463.7234 Q71.8638,463.7234 72.5112,463.8728 Q73.1587,464.0222 73.7231,464.321 L73.7231,467.0437 Q73.0923,466.4626 72.4988,466.1928 Q71.9053,465.9231 71.2744,465.9231 Q69.9297,465.9231 69.2449,466.9897 Q68.5601,468.0564 68.5601,470.1565 Q68.5601,472.2483 69.2449,473.3149 Q69.9297,474.3816 71.2744,474.3816 Q71.9053,474.3816 72.4988,474.1118 Q73.0923,473.842 73.7231,473.261 Z " fill="#000000"/><text fill="#000000" font-family="sans-serif" font-size="12" font-style="italic" lengthAdjust="spacing" textLength="42" x="94.25" y="466.1316">&#171;Kode&#187;</text><text fill="#000000" font-family="sans-serif" font-size="14" lengthAdjust="spacing" textLength="47" x="91.75" y="482.198">Vedtak</text><line style="stroke:#181818;stroke-width:0.5;" x1="8" x2="190" y1="490.1511" y2="490.1511"/><ellipse cx="18" cy="503.8952" fill="none" rx="3" ry="3" style="stroke:#038048;stroke-width:1.0;"/><text fill="#000000" font-family="sans-serif" font-size="14" lengthAdjust="spacing" textLength="116" x="27" y="507.6863">kodeverdi: string</text><ellipse cx="18" cy="520.3835" fill="none" rx="3" ry="3" style="stroke:#038048;stroke-width:1.0;"/><text fill="#000000" font-family="sans-serif" font-size="14" lengthAdjust="spacing" textLength="158" x="27" y="524.1745">kodebeskrivelse: string</text><line style="stroke:#181818;stroke-width:0.5;" x1="8" x2="190" y1="531.1277" y2="531.1277"/></g><!--class FaseStatusEnum--><g id="elem_FaseStatusEnum"><rect codeLine="23" fill="#F1F1F1" height="97.4648" id="FaseStatusEnum" rx="2.5" ry="2.5" style="stroke:#181818;stroke-width:0.5;" width="144" x="445" y="445.59"/><ellipse cx="460" cy="461.59" fill="#EB937F" rx="11" ry="11" style="stroke:#181818;stroke-width:1.0;"/><path d="M463.6143,468.09 L455.8945,468.09 L455.8945,455.6969 L463.6143,455.6969 L463.6143,457.8551 L458.3433,457.8551 L458.3433,460.528 L463.1162,460.528 L463.1162,462.6862 L458.3433,462.6862 L458.3433,465.9318 L463.6143,465.9318 Z " fill="#000000"/><text fill="#000000" font-family="sans-serif" font-size="14" lengthAdjust="spacing" textLength="112" x="474" y="466.881">FaseStatusEnum</text><line style="stroke:#181818;stroke-width:0.5;" x1="446" x2="588" y1="477.59" y2="477.59"/><ellipse cx="456" cy="491.3341" fill="none" rx="3" ry="3" style="stroke:#038048;stroke-width:1.0;"/><text fill="#000000" font-family="sans-serif" font-size="14" lengthAdjust="spacing" textLength="55" x="465" y="495.1252">Planlagt</text><ellipse cx="456" cy="507.8224" fill="none" rx="3" ry="3" style="stroke:#038048;stroke-width:1.0;"/><text fill="#000000" font-family="sans-serif" font-size="14" lengthAdjust="spacing" textLength="88" x="465" y="511.6134">UnderArbeid</text><ellipse cx="456" cy="524.3107" fill="none" rx="3" ry="3" style="stroke:#038048;stroke-width:1.0;"/><text fill="#000000" font-family="sans-serif" font-size="14" lengthAdjust="spacing" textLength="48" x="465" y="528.1017">Utfoert</text><line style="stroke:#181818;stroke-width:0.5;" x1="446" x2="588" y1="535.0548" y2="535.0548"/></g><!--class Fasekategori--><g id="elem_Fasekategori"><rect codeLine="36" fill="#F1F1F1" height="89.5977" id="Fasekategori" rx="2.5" ry="2.5" style="stroke:#181818;stroke-width:0.5;" width="184" x="226" y="449.53"/><ellipse cx="269.8" cy="469.8405" fill="#ADD1B2" rx="11" ry="11" style="stroke:#181818;stroke-width:1.0;"/><path d="M272.2731,475.9836 Q271.6921,476.2824 271.0529,476.4319 Q270.4138,476.5813 269.7082,476.5813 Q267.2014,476.5813 265.8815,474.9294 Q264.5617,473.2776 264.5617,470.1565 Q264.5617,467.0271 265.8815,465.3752 Q267.2014,463.7234 269.7082,463.7234 Q270.4138,463.7234 271.0612,463.8728 Q271.7087,464.0222 272.2731,464.321 L272.2731,467.0437 Q271.6423,466.4626 271.0488,466.1928 Q270.4553,465.9231 269.8244,465.9231 Q268.4797,465.9231 267.7949,466.9897 Q267.1101,468.0564 267.1101,470.1565 Q267.1101,472.2483 267.7949,473.3149 Q268.4797,474.3816 269.8244,474.3816 Q270.4553,474.3816 271.0488,474.1118 Q271.6423,473.842 272.2731,473.261 Z " fill="#000000"/><text fill="#000000" font-family="sans-serif" font-size="12" font-style="italic" lengthAdjust="spacing" textLength="42" x="313.2" y="466.1316">&#171;Kode&#187;</text><text fill="#000000" font-family="sans-serif" font-size="14" lengthAdjust="spacing" textLength="88" x="290.2" y="482.198">Fasekategori</text><line style="stroke:#181818;stroke-width:0.5;" x1="227" x2="409" y1="490.1511" y2="490.1511"/><ellipse cx="237" cy="503.8952" fill="none" rx="3" ry="3" style="stroke:#038048;stroke-width:1.0;"/><text fill="#000000" font-family="sans-serif" font-size="14" lengthAdjust="spacing" textLength="116" x="246" y="507.6863">kodeverdi: string</text><ellipse cx="237" cy="520.3835" fill="none" rx="3" ry="3" style="stroke:#038048;stroke-width:1.0;"/><text fill="#000000" font-family="sans-serif" font-size="14" lengthAdjust="spacing" textLength="158" x="246" y="524.1745">kodebeskrivelse: string</text><line style="stroke:#181818;stroke-width:0.5;" x1="227" x2="409" y1="531.1277" y2="531.1277"/></g><g id="elem_GMN22"><path d="M40,178.16 L40,264.7127 A0,0 0 0 0 40,264.7127 L95,264.7127 L99,449.15 L103,264.7127 L158,264.7127 A0,0 0 0 0 158,264.7127 L158,188.16 L148,178.16 L40,178.16 A0,0 0 0 0 40,178.16 " fill="#FEFFDD" style="stroke:#181818;stroke-width:0.5;"/><path d="M148,178.16 L148,188.16 L158,188.16 L148,178.16 " fill="#FEFFDD" style="stroke:#181818;stroke-width:0.5;"/><text fill="#000000" font-family="sans-serif" font-size="13" lengthAdjust="spacing" textLength="69" x="46" y="195.7284">Eksempler:</text><text fill="#000000" font-family="sans-serif" font-size="13" lengthAdjust="spacing" textLength="56" x="46" y="211.0389">godkjent</text><text fill="#000000" font-family="sans-serif" font-size="13" lengthAdjust="spacing" textLength="97" x="46" y="226.3495">delvis godkjent</text><text fill="#000000" font-family="sans-serif" font-size="13" lengthAdjust="spacing" textLength="42" x="46" y="241.66">avsl&#229;tt</text><text fill="#000000" font-family="sans-serif" font-size="13" lengthAdjust="spacing" textLength="37" x="46" y="256.9705">avvist</text></g><g id="elem_GMN25"><path d="M7,691.54 L7,793.4033 A0,0 0 0 0 7,793.4033 L333,793.4033 A0,0 0 0 0 333,793.4033 L333,701.54 L323,691.54 L204.24,691.54 L291.37,539.62 L196.24,691.54 L7,691.54 A0,0 0 0 0 7,691.54 " fill="#FEFFDD" style="stroke:#181818;stroke-width:0.5;"/><path d="M323,691.54 L323,701.54 L333,701.54 L323,691.54 " fill="#FEFFDD" style="stroke:#181818;stroke-width:0.5;"/><text fill="#000000" font-family="sans-serif" font-size="13" lengthAdjust="spacing" textLength="305" x="13" y="709.1084">Se gjerne Byggesaksbehandling::Prosesskategori</text><text fill="#000000" font-family="sans-serif" font-size="13" lengthAdjust="spacing" textLength="45" x="17" y="724.4189">fra NPS</text><text fill="#000000" font-family="sans-serif" font-size="13" lengthAdjust="spacing" textLength="210" x="13" y="739.7295">Vi m&#229; f&#229; avklart denne kodelisten</text><text fill="#000000" font-family="sans-serif" font-size="13" lengthAdjust="spacing" textLength="69" x="13" y="755.04">Eksempler:</text><text fill="#000000" font-family="sans-serif" font-size="13" lengthAdjust="spacing" textLength="34" x="13" y="770.3505">Klage</text><text fill="#000000" font-family="sans-serif" font-size="13" lengthAdjust="spacing" textLength="43" x="13" y="785.6611">H&#248;ring</text></g><!--class EksternNoekkel--><g id="elem_EksternNoekkel"><rect codeLine="2" fill="#F1F1F1" height="80.9766" id="EksternNoekkel" rx="2.5" ry="2.5" style="stroke:#181818;stroke-width:0.5;" width="143" x="447.5" y="875.94"/><ellipse cx="464.75" cy="891.94" fill="#ADD1B2" rx="11" ry="11" style="stroke:#181818;stroke-width:1.0;"/><path d="M467.2231,898.0831 Q466.6421,898.3819 466.0029,898.5313 Q465.3638,898.6807 464.6582,898.6807 Q462.1514,898.6807 460.8315,897.0289 Q459.5117,895.377 459.5117,892.2559 Q459.5117,889.1265 460.8315,887.4747 Q462.1514,885.8228 464.6582,885.8228 Q465.3638,885.8228 466.0112,885.9722 Q466.6587,886.1216 467.2231,886.4205 L467.2231,889.1431 Q466.5923,888.5621 465.9988,888.2923 Q465.4053,888.0225 464.7744,888.0225 Q463.4297,888.0225 462.7449,889.0892 Q462.0601,890.1558 462.0601,892.2559 Q462.0601,894.3477 462.7449,895.4144 Q463.4297,896.481 464.7744,896.481 Q465.4053,896.481 465.9988,896.2112 Q466.5923,895.9415 467.2231,895.3604 Z " fill="#000000"/><text fill="#000000" font-family="sans-serif" font-size="14" lengthAdjust="spacing" textLength="106" x="479.25" y="897.231">EksternNoekkel</text><line style="stroke:#181818;stroke-width:0.5;" x1="448.5" x2="589.5" y1="907.94" y2="907.94"/><ellipse cx="458.5" cy="921.6841" fill="none" rx="3" ry="3" style="stroke:#038048;stroke-width:1.0;"/><text fill="#000000" font-family="sans-serif" font-size="14" lengthAdjust="spacing" textLength="117" x="467.5" y="925.4752">fagsystem: string</text><ellipse cx="458.5" cy="938.1724" fill="none" rx="3" ry="3" style="stroke:#038048;stroke-width:1.0;"/><text fill="#000000" font-family="sans-serif" font-size="14" lengthAdjust="spacing" textLength="102" x="467.5" y="941.9634">noekkel: string</text><line style="stroke:#181818;stroke-width:0.5;" x1="448.5" x2="589.5" y1="948.9166" y2="948.9166"/></g><!--class Journalnummer--><g id="elem_Journalnummer"><rect codeLine="2" fill="#F1F1F1" height="80.9766" id="Journalnummer" rx="2.5" ry="2.5" style="stroke:#181818;stroke-width:0.5;" width="249" x="625.5" y="875.94"/><ellipse cx="692.25" cy="891.94" fill="#ADD1B2" rx="11" ry="11" style="stroke:#181818;stroke-width:1.0;"/><path d="M694.7231,898.0831 Q694.1421,898.3819 693.5029,898.5313 Q692.8638,898.6807 692.1582,898.6807 Q689.6514,898.6807 688.3315,897.0289 Q687.0117,895.377 687.0117,892.2559 Q687.0117,889.1265 688.3315,887.4747 Q689.6514,885.8228 692.1582,885.8228 Q692.8638,885.8228 693.5112,885.9722 Q694.1587,886.1216 694.7231,886.4205 L694.7231,889.1431 Q694.0923,888.5621 693.4988,888.2923 Q692.9053,888.0225 692.2744,888.0225 Q690.9297,888.0225 690.2449,889.0892 Q689.5601,890.1558 689.5601,892.2559 Q689.5601,894.3477 690.2449,895.4144 Q690.9297,896.481 692.2744,896.481 Q692.9053,896.481 693.4988,896.2112 Q694.0923,895.9415 694.7231,895.3604 Z " fill="#000000"/><text fill="#000000" font-family="sans-serif" font-size="14" lengthAdjust="spacing" textLength="107" x="712.75" y="897.231">Journalnummer</text><line style="stroke:#181818;stroke-width:0.5;" x1="626.5" x2="873.5" y1="907.94" y2="907.94"/><ellipse cx="636.5" cy="921.6841" fill="none" rx="3" ry="3" style="stroke:#038048;stroke-width:1.0;"/><text fill="#000000" font-family="sans-serif" font-size="14" lengthAdjust="spacing" textLength="169" x="645.5" y="925.4752">journalnummer: number</text><ellipse cx="636.5" cy="938.1724" fill="none" rx="3" ry="3" style="stroke:#038048;stroke-width:1.0;"/><text fill="#000000" font-family="sans-serif" font-size="14" lengthAdjust="spacing" textLength="223" x="645.5" y="941.9634">journalsekvensnummer: number</text><line style="stroke:#181818;stroke-width:0.5;" x1="626.5" x2="873.5" y1="948.9166" y2="948.9166"/></g><!--class ReferanseJournalpost--><g id="elem_ReferanseJournalpost"><rect codeLine="2" fill="#F1F1F1" height="130.4414" id="ReferanseJournalpost" rx="2.5" ry="2.5" style="stroke:#181818;stroke-width:0.5;" width="369" x="565.5" y="677.25"/><ellipse cx="672.25" cy="693.25" fill="#ADD1B2" rx="11" ry="11" style="stroke:#181818;stroke-width:1.0;"/><path d="M674.7231,699.3931 Q674.1421,699.6919 673.5029,699.8413 Q672.8638,699.9907 672.1582,699.9907 Q669.6514,699.9907 668.3315,698.3389 Q667.0117,696.687 667.0117,693.5659 Q667.0117,690.4365 668.3315,688.7847 Q669.6514,687.1328 672.1582,687.1328 Q672.8638,687.1328 673.5112,687.2822 Q674.1587,687.4316 674.7231,687.7305 L674.7231,690.4531 Q674.0923,689.8721 673.4988,689.6023 Q672.9053,689.3325 672.2744,689.3325 Q670.9297,689.3325 670.2449,690.3992 Q669.5601,691.4658 669.5601,693.5659 Q669.5601,695.6577 670.2449,696.7244 Q670.9297,697.791 672.2744,697.791 Q672.9053,697.791 673.4988,697.5212 Q674.0923,697.2515 674.7231,696.6704 Z " fill="#000000"/><text fill="#000000" font-family="sans-serif" font-size="14" lengthAdjust="spacing" textLength="147" x="692.75" y="698.541">ReferanseJournalpost</text><line style="stroke:#181818;stroke-width:0.5;" x1="566.5" x2="933.5" y1="709.25" y2="709.25"/><ellipse cx="576.5" cy="722.9941" fill="none" rx="3" ry="3" style="stroke:#038048;stroke-width:1.0;"/><text fill="#000000" font-family="sans-serif" font-size="14" lengthAdjust="spacing" textLength="108" x="585.5" y="726.7852">systemId: string</text><ellipse cx="576.5" cy="739.4824" fill="none" rx="3" ry="3" style="stroke:#038048;stroke-width:1.0;"/><text fill="#000000" font-family="sans-serif" font-size="14" lengthAdjust="spacing" textLength="150" x="585.5" y="743.2734">registreringsID: string</text><ellipse cx="576.5" cy="755.9707" fill="none" rx="3" ry="3" style="stroke:#038048;stroke-width:1.0;"/><text fill="#000000" font-family="sans-serif" font-size="14" lengthAdjust="spacing" textLength="222" x="585.5" y="759.7617">journalnummer: Journalnummer</text><ellipse cx="576.5" cy="772.459" fill="none" rx="3" ry="3" style="stroke:#038048;stroke-width:1.0;"/><text fill="#000000" font-family="sans-serif" font-size="14" lengthAdjust="spacing" textLength="343" x="585.5" y="776.25">saksJournalpostnummer: SaksJournalpostnummer</text><ellipse cx="576.5" cy="788.9473" fill="none" rx="3" ry="3" style="stroke:#038048;stroke-width:1.0;"/><text fill="#000000" font-family="sans-serif" font-size="14" lengthAdjust="spacing" textLength="285" x="585.5" y="792.7383">referanseEksternNoekkel: EksternNoekkel</text><line style="stroke:#181818;stroke-width:0.5;" x1="566.5" x2="933.5" y1="799.6914" y2="799.6914"/></g><!--class SaksJournalpostnummer--><g id="elem_SaksJournalpostnummer"><rect codeLine="2" fill="#F1F1F1" height="97.4648" id="SaksJournalpostnummer" rx="2.5" ry="2.5" style="stroke:#181818;stroke-width:0.5;" width="230" x="909" y="867.7"/><ellipse cx="937.5" cy="883.7" fill="#ADD1B2" rx="11" ry="11" style="stroke:#181818;stroke-width:1.0;"/><path d="M939.9731,889.8431 Q939.3921,890.1419 938.7529,890.2913 Q938.1138,890.4407 937.4082,890.4407 Q934.9014,890.4407 933.5815,888.7889 Q932.2617,887.137 932.2617,884.0159 Q932.2617,880.8865 933.5815,879.2347 Q934.9014,877.5828 937.4082,877.5828 Q938.1138,877.5828 938.7612,877.7322 Q939.4087,877.8816 939.9731,878.1805 L939.9731,880.9031 Q939.3423,880.3221 938.7488,880.0523 Q938.1553,879.7825 937.5244,879.7825 Q936.1797,879.7825 935.4949,880.8492 Q934.8101,881.9158 934.8101,884.0159 Q934.8101,886.1077 935.4949,887.1744 Q936.1797,888.241 937.5244,888.241 Q938.1553,888.241 938.7488,887.9712 Q939.3423,887.7015 939.9731,887.1204 Z " fill="#000000"/><text fill="#000000" font-family="sans-serif" font-size="14" lengthAdjust="spacing" textLength="168" x="954.5" y="888.991">SaksJournalpostnummer</text><line style="stroke:#181818;stroke-width:0.5;" x1="910" x2="1138" y1="899.7" y2="899.7"/><ellipse cx="920" cy="913.4441" fill="none" rx="3" ry="3" style="stroke:#038048;stroke-width:1.0;"/><text fill="#000000" font-family="sans-serif" font-size="14" lengthAdjust="spacing" textLength="114" x="929" y="917.2352">saksaar: number</text><ellipse cx="920" cy="929.9324" fill="none" rx="3" ry="3" style="stroke:#038048;stroke-width:1.0;"/><text fill="#000000" font-family="sans-serif" font-size="14" lengthAdjust="spacing" textLength="204" x="929" y="933.7234">sakssekvensnummer: number</text><ellipse cx="920" cy="946.4207" fill="none" rx="3" ry="3" style="stroke:#038048;stroke-width:1.0;"/><text fill="#000000" font-family="sans-serif" font-size="14" lengthAdjust="spacing" textLength="199" x="929" y="950.2117">journalpostnummer: number</text><line style="stroke:#181818;stroke-width:0.5;" x1="910" x2="1138" y1="957.1648" y2="957.1648"/></g><!--class Milepel--><g id="elem_Milepel"><rect codeLine="8" fill="#F1F1F1" height="245.8594" id="Milepel" rx="2.5" ry="2.5" style="stroke:#181818;stroke-width:0.5;" width="325" x="673.5" y="371.39"/><ellipse cx="807.25" cy="387.39" fill="#ADD1B2" rx="11" ry="11" style="stroke:#181818;stroke-width:1.0;"/><path d="M809.7231,393.5331 Q809.1421,393.8319 808.5029,393.9813 Q807.8638,394.1307 807.1582,394.1307 Q804.6514,394.1307 803.3315,392.4789 Q802.0117,390.827 802.0117,387.7059 Q802.0117,384.5765 803.3315,382.9247 Q804.6514,381.2728 807.1582,381.2728 Q807.8638,381.2728 808.5112,381.4222 Q809.1587,381.5716 809.7231,381.8705 L809.7231,384.5931 Q809.0923,384.0121 808.4988,383.7423 Q807.9053,383.4725 807.2744,383.4725 Q805.9297,383.4725 805.2449,384.5392 Q804.5601,385.6058 804.5601,387.7059 Q804.5601,389.7977 805.2449,390.8644 Q805.9297,391.931 807.2744,391.931 Q807.9053,391.931 808.4988,391.6612 Q809.0923,391.3915 809.7231,390.8104 Z " fill="#000000"/><text fill="#000000" font-family="sans-serif" font-size="14" lengthAdjust="spacing" textLength="49" x="827.75" y="392.681">Milepel</text><line style="stroke:#181818;stroke-width:0.5;" x1="674.5" x2="997.5" y1="403.39" y2="403.39"/><ellipse cx="684.5" cy="417.1341" fill="none" rx="3" ry="3" style="stroke:#038048;stroke-width:1.0;"/><text fill="#000000" font-family="sans-serif" font-size="14" lengthAdjust="spacing" textLength="108" x="693.5" y="420.9252">systemId: string</text><ellipse cx="684.5" cy="433.6224" fill="none" rx="3" ry="3" style="stroke:#038048;stroke-width:1.0;"/><text fill="#000000" font-family="sans-serif" font-size="14" lengthAdjust="spacing" textLength="124" x="693.5" y="437.4134">beskrivelse: string</text><ellipse cx="684.5" cy="450.1107" fill="none" rx="3" ry="3" style="stroke:#038048;stroke-width:1.0;"/><text fill="#000000" font-family="sans-serif" font-size="14" lengthAdjust="spacing" textLength="143" x="693.5" y="453.9017">kategori: Milepeltype</text><ellipse cx="684.5" cy="466.599" fill="none" rx="3" ry="3" style="stroke:#038048;stroke-width:1.0;"/><text fill="#000000" font-family="sans-serif" font-size="14" lengthAdjust="spacing" textLength="65" x="693.5" y="470.39">frist: date</text><ellipse cx="684.5" cy="483.0873" fill="none" rx="3" ry="3" style="stroke:#038048;stroke-width:1.0;"/><text fill="#000000" font-family="sans-serif" font-size="14" lengthAdjust="spacing" textLength="85" x="693.5" y="486.8783">utfoert: date</text><ellipse cx="684.5" cy="499.5755" fill="none" rx="3" ry="3" style="stroke:#038048;stroke-width:1.0;"/><text fill="#000000" font-family="sans-serif" font-size="14" lengthAdjust="spacing" textLength="111" x="693.5" y="503.3666">planlagtTil: date</text><ellipse cx="684.5" cy="516.0638" fill="none" rx="3" ry="3" style="stroke:#038048;stroke-width:1.0;"/><text fill="#000000" font-family="sans-serif" font-size="14" lengthAdjust="spacing" textLength="105" x="693.5" y="519.8548">intern: boolean</text><ellipse cx="684.5" cy="532.5521" fill="none" rx="3" ry="3" style="stroke:#038048;stroke-width:1.0;"/><text fill="#000000" font-family="sans-serif" font-size="14" lengthAdjust="spacing" textLength="299" x="693.5" y="536.3431">referanseJournalpost: ReferanseJournalpost</text><ellipse cx="684.5" cy="549.0404" fill="none" rx="3" ry="3" style="stroke:#038048;stroke-width:1.0;"/><text fill="#000000" font-family="sans-serif" font-size="14" lengthAdjust="spacing" textLength="296" x="693.5" y="552.8314">referanseDokument: ReferanseDokumentfil</text><ellipse cx="684.5" cy="565.5287" fill="none" rx="3" ry="3" style="stroke:#038048;stroke-width:1.0;"/><text fill="#000000" font-family="sans-serif" font-size="14" lengthAdjust="spacing" textLength="110" x="693.5" y="569.3197">erStart: boolean</text><ellipse cx="684.5" cy="582.017" fill="none" rx="3" ry="3" style="stroke:#038048;stroke-width:1.0;"/><text fill="#000000" font-family="sans-serif" font-size="14" lengthAdjust="spacing" textLength="109" x="693.5" y="585.808">erSlutt: boolean</text><ellipse cx="684.5" cy="598.5052" fill="none" rx="3" ry="3" style="stroke:#038048;stroke-width:1.0;"/><text fill="#000000" font-family="sans-serif" font-size="14" lengthAdjust="spacing" textLength="179" x="693.5" y="602.2963">status: MilepelStatusEnum</text><line style="stroke:#181818;stroke-width:0.5;" x1="674.5" x2="997.5" y1="609.2494" y2="609.2494"/></g><!--class Milepeltype--><g id="elem_Milepeltype"><rect codeLine="30" fill="#F1F1F1" height="80.9766" id="Milepeltype" rx="2.5" ry="2.5" style="stroke:#181818;stroke-width:0.5;" width="184" x="1423" y="701.99"/><ellipse cx="1471.75" cy="717.99" fill="#ADD1B2" rx="11" ry="11" style="stroke:#181818;stroke-width:1.0;"/><path d="M1474.2231,724.1331 Q1473.6421,724.4319 1473.0029,724.5813 Q1472.3638,724.7307 1471.6582,724.7307 Q1469.1514,724.7307 1467.8315,723.0789 Q1466.5117,721.427 1466.5117,718.3059 Q1466.5117,715.1765 1467.8315,713.5247 Q1469.1514,711.8728 1471.6582,711.8728 Q1472.3638,711.8728 1473.0112,712.0222 Q1473.6587,712.1716 1474.2231,712.4705 L1474.2231,715.1931 Q1473.5923,714.6121 1472.9988,714.3423 Q1472.4053,714.0725 1471.7744,714.0725 Q1470.4297,714.0725 1469.7449,715.1392 Q1469.0601,716.2058 1469.0601,718.3059 Q1469.0601,720.3977 1469.7449,721.4644 Q1470.4297,722.531 1471.7744,722.531 Q1472.4053,722.531 1472.9988,722.2612 Q1473.5923,721.9915 1474.2231,721.4104 Z " fill="#000000"/><text fill="#000000" font-family="sans-serif" font-size="14" lengthAdjust="spacing" textLength="78" x="1492.25" y="723.281">Milepeltype</text><line style="stroke:#181818;stroke-width:0.5;" x1="1424" x2="1606" y1="733.99" y2="733.99"/><ellipse cx="1434" cy="747.7341" fill="none" rx="3" ry="3" style="stroke:#038048;stroke-width:1.0;"/><text fill="#000000" font-family="sans-serif" font-size="14" lengthAdjust="spacing" textLength="116" x="1443" y="751.5252">kodeverdi: string</text><ellipse cx="1434" cy="764.2224" fill="none" rx="3" ry="3" style="stroke:#038048;stroke-width:1.0;"/><text fill="#000000" font-family="sans-serif" font-size="14" lengthAdjust="spacing" textLength="158" x="1443" y="768.0134">kodebeskrivelse: string</text><line style="stroke:#181818;stroke-width:0.5;" x1="1424" x2="1606" y1="774.9666" y2="774.9666"/></g><g id="elem_GMN35"><path d="M1400.5,458.7 L1400.5,529.9422 A0,0 0 0 0 1400.5,529.9422 L1511,529.9422 L1515,701.7 L1519,529.9422 L1629.5,529.9422 A0,0 0 0 0 1629.5,529.9422 L1629.5,468.7 L1619.5,458.7 L1400.5,458.7 A0,0 0 0 0 1400.5,458.7 " fill="#FEFFDD" style="stroke:#181818;stroke-width:0.5;"/><path d="M1619.5,458.7 L1619.5,468.7 L1629.5,468.7 L1619.5,458.7 " fill="#FEFFDD" style="stroke:#181818;stroke-width:0.5;"/><text fill="#000000" font-family="sans-serif" font-size="13" lengthAdjust="spacing" textLength="69" x="1406.5" y="476.2684">Eksempler:</text><text fill="#000000" font-family="sans-serif" font-size="13" lengthAdjust="spacing" textLength="201" x="1406.5" y="491.5789">Bestilling av oppstartsm&#248;te (BO)</text><text fill="#000000" font-family="sans-serif" font-size="13" lengthAdjust="spacing" textLength="208" x="1406.5" y="506.8895">Gjennomf&#248;rt oppstartsm&#248;te (OM)</text><text fill="#000000" font-family="sans-serif" font-size="13" lengthAdjust="spacing" textLength="137" x="1406.5" y="522.2">Mottak av planforslag</text></g><g id="elem_GMN38"><path d="M969.5,729.82 L969.5,755.1305 A0,0 0 0 0 969.5,755.1305 L1168.5,755.1305 A0,0 0 0 0 1168.5,755.1305 L1168.5,739.82 L1158.5,729.82 L1061.68,729.82 L951.82,617.68 L1053.68,729.82 L969.5,729.82 A0,0 0 0 0 969.5,729.82 " fill="#FEFFDD" style="stroke:#181818;stroke-width:0.5;"/><path d="M1158.5,729.82 L1158.5,739.82 L1168.5,739.82 L1158.5,729.82 " fill="#FEFFDD" style="stroke:#181818;stroke-width:0.5;"/><text fill="#000000" font-family="sans-serif" font-size="13" lengthAdjust="spacing" textLength="178" x="975.5" y="747.3884">frist og utfoert ikke p&#229;krevd</text></g><!--class MilepelStatusEnum--><g id="elem_MilepelStatusEnum"><rect codeLine="46" fill="#F1F1F1" height="80.9766" id="MilepelStatusEnum" rx="2.5" ry="2.5" style="stroke:#181818;stroke-width:0.5;" width="162" x="368" y="701.99"/><ellipse cx="383" cy="717.99" fill="#EB937F" rx="11" ry="11" style="stroke:#181818;stroke-width:1.0;"/><path d="M386.6143,724.49 L378.8945,724.49 L378.8945,712.0969 L386.6143,712.0969 L386.6143,714.2551 L381.3433,714.2551 L381.3433,716.928 L386.1162,716.928 L386.1162,719.0862 L381.3433,719.0862 L381.3433,722.3318 L386.6143,722.3318 Z " fill="#000000"/><text fill="#000000" font-family="sans-serif" font-size="14" lengthAdjust="spacing" textLength="130" x="397" y="723.281">MilepelStatusEnum</text><line style="stroke:#181818;stroke-width:0.5;" x1="369" x2="529" y1="733.99" y2="733.99"/><ellipse cx="379" cy="747.7341" fill="none" rx="3" ry="3" style="stroke:#038048;stroke-width:1.0;"/><text fill="#000000" font-family="sans-serif" font-size="14" lengthAdjust="spacing" textLength="36" x="388" y="751.5252">N&#229;dd</text><ellipse cx="379" cy="764.2224" fill="none" rx="3" ry="3" style="stroke:#038048;stroke-width:1.0;"/><text fill="#000000" font-family="sans-serif" font-size="14" lengthAdjust="spacing" textLength="55" x="388" y="768.0134">Planlagt</text><line style="stroke:#181818;stroke-width:0.5;" x1="369" x2="529" y1="774.9666" y2="774.9666"/></g><!--class HentSaksfaseResultat--><g id="elem_HentSaksfaseResultat"><rect codeLine="5" fill="#F1F1F1" height="64.4883" id="HentSaksfaseResultat" rx="2.5" ry="2.5" style="stroke:#181818;stroke-width:0.5;" width="178" x="91" y="7"/><ellipse cx="106" cy="23" fill="#ADD1B2" rx="11" ry="11" style="stroke:#181818;stroke-width:1.0;"/><path d="M108.4731,29.1431 Q107.8921,29.4419 107.2529,29.5913 Q106.6138,29.7407 105.9082,29.7407 Q103.4014,29.7407 102.0815,28.0889 Q100.7617,26.437 100.7617,23.3159 Q100.7617,20.1865 102.0815,18.5347 Q103.4014,16.8828 105.9082,16.8828 Q106.6138,16.8828 107.2612,17.0322 Q107.9087,17.1816 108.4731,17.4805 L108.4731,20.2031 Q107.8423,19.6221 107.2488,19.3523 Q106.6553,19.0825 106.0244,19.0825 Q104.6797,19.0825 103.9949,20.1492 Q103.3101,21.2158 103.3101,23.3159 Q103.3101,25.4077 103.9949,26.4744 Q104.6797,27.541 106.0244,27.541 Q106.6553,27.541 107.2488,27.2712 Q107.8423,27.0015 108.4731,26.4204 Z " fill="#000000"/><text fill="#000000" font-family="sans-serif" font-size="14" lengthAdjust="spacing" textLength="146" x="120" y="28.291">HentSaksfaseResultat</text><line style="stroke:#181818;stroke-width:0.5;" x1="92" x2="268" y1="39" y2="39"/><ellipse cx="102" cy="52.7441" fill="none" rx="3" ry="3" style="stroke:#038048;stroke-width:1.0;"/><text fill="#000000" font-family="sans-serif" font-size="14" lengthAdjust="spacing" textLength="67" x="111" y="56.5352">fase: Fase</text><line style="stroke:#181818;stroke-width:0.5;" x1="92" x2="268" y1="63.4883" y2="63.4883"/></g><!--link Dokument to Dokumenttype--><g id="link_Dokument_Dokumenttype"><path codeLine="16" d="M1207.93,311.89 C1193.47,357.97 1176.49,412.1 1164.85,449.17 " fill="none" id="Dokument-Dokumenttype" style="stroke:#181818;stroke-width:1.0;"/></g><!--link Dokument to ReferanseDokumentfil--><g id="link_Dokument_ReferanseDokumentfil"><path codeLine="17" d="M1252.05,311.68 C1255.28,331.31 1258.46,352.02 1261,371.39 C1276.7,491.22 1288.16,633.75 1293.18,701.66 " fill="none" id="Dokument-ReferanseDokumentfil" style="stroke:#181818;stroke-width:1.0;"/></g><!--link Fase to Vedtak--><g id="link_Fase_Vedtak"><path codeLine="19" d="M281.29,303.57 C256.84,325.05 231.01,348.62 208,371.39 C182.98,396.17 156.63,425.55 136.1,449.26 " fill="none" id="Fase-Vedtak" style="stroke:#181818;stroke-width:1.0;"/></g><!--link Fase to FaseStatusEnum--><g id="link_Fase_FaseStatusEnum"><path codeLine="20" d="M419.52,303.35 C443.28,349.65 472.27,406.16 492.44,445.45 " fill="none" id="Fase-FaseStatusEnum" style="stroke:#181818;stroke-width:1.0;"/></g><!--link Fase to Fasekategori--><g id="link_Fase_Fasekategori"><path codeLine="21" d="M360.08,303.35 C349.48,351.21 336.46,409.98 327.74,449.36 " fill="none" id="Fase-Fasekategori" style="stroke:#181818;stroke-width:1.0;"/></g><!--link Milepel to Milepeltype--><g id="link_Milepel_Milepeltype"><path codeLine="23" d="M998.95,599.38 C1012.87,606.06 1027,612.15 1041,617.25 C1195.45,673.59 1251.44,621.24 1406,677.25 C1423.14,683.47 1440.62,692.4 1456.43,701.64 " fill="none" id="Milepel-Milepeltype" style="stroke:#181818;stroke-width:1.0;"/></g><!--link Milepel to ReferanseJournalpost--><g id="link_Milepel_ReferanseJournalpost"><path codeLine="35" d="M793.25,617.68 C786.09,638.19 778.91,658.73 772.52,677.01 " fill="none" id="Milepel-ReferanseJournalpost" style="stroke:#181818;stroke-width:1.0;"/></g><!--link Milepel to ReferanseDokumentfil--><g id="link_Milepel_ReferanseDokumentfil"><path codeLine="36" d="M998.75,594.97 C1012.9,602.76 1027.12,610.3 1041,617.25 C1103.36,648.49 1123.52,646.27 1186,677.25 C1200.86,684.62 1216.45,693.19 1231.07,701.61 " fill="none" id="Milepel-ReferanseDokumentfil" style="stroke:#181818;stroke-width:1.0;"/></g><!--link Milepel to MilepelStatusEnum--><g id="link_Milepel_MilepelStatusEnum"><path codeLine="41" d="M673.19,597.69 C632.26,623.56 588.47,651.35 548,677.25 C535.75,685.1 522.68,693.53 510.19,701.62 " fill="none" id="Milepel-MilepelStatusEnum" style="stroke:#181818;stroke-width:1.0;"/></g><!--link ReferanseJournalpost to EksternNoekkel--><g id="link_ReferanseJournalpost_EksternNoekkel"><path codeLine="42" d="M663.33,807.99 C632.86,830.67 599.53,855.48 572.58,875.54 " fill="none" id="ReferanseJournalpost-EksternNoekkel" style="stroke:#181818;stroke-width:1.0;"/></g><!--link ReferanseJournalpost to SaksJournalpostnummer--><g id="link_ReferanseJournalpost_SaksJournalpostnummer"><path codeLine="43" d="M852.81,807.99 C884.09,827.62 917.91,848.85 947.17,867.21 " fill="none" id="ReferanseJournalpost-SaksJournalpostnummer" style="stroke:#181818;stroke-width:1.0;"/></g><!--link ReferanseJournalpost to Journalnummer--><g id="link_ReferanseJournalpost_Journalnummer"><path codeLine="44" d="M750,807.99 C750,830.67 750,855.48 750,875.54 " fill="none" id="ReferanseJournalpost-Journalnummer" style="stroke:#181818;stroke-width:1.0;"/></g><!--link HentSaksfaseResultat to Fase--><g id="link_HentSaksfaseResultat_Fase"><path codeLine="9" d="M214.49,71.63 C235.21,90.49 262.6,115.42 289.04,139.48 " fill="none" id="HentSaksfaseResultat-Fase" style="stroke:#181818;stroke-width:1.0;"/></g><!--link Fase to Dokument--><g id="link_Fase_Dokument"><path codeLine="11" d="M451.02,139.49 C469.4,123.97 490.28,109.96 512.5,101.49 C620.69,60.25 921.84,70.9 1033.5,101.49 C1058.13,108.24 1072.1704,113.2712 1095.4004,125.4412 " fill="none" id="Fase-to-Dokument" style="stroke:#181818;stroke-width:1.0;"/><polygon fill="#181818" points="1106.03,131.01,1102.5714,124.6824,1095.4004,125.4412,1098.8589,131.7688,1106.03,131.01" style="stroke:#181818;stroke-width:1.0;"/></g><!--link Fase to Milepel--><g id="link_Fase_Milepel"><path codeLine="12" d="M477.77,299.93 C483.54,303.9 489.31,307.75 495,311.39 C497.31,312.88 586.55,360.48 673.15,406.62 " fill="none" id="Fase-Milepel" style="stroke:#181818;stroke-width:1.0;"/></g><!--SRC=[fOyz3i8m38Ltdy9TGN74oemG2mkS86fS5DNzKPsm8EvEGhF1Wl3m93_Rd-qcZAqapqYMo8uJzKfToAAkryufBtJVKSSYhEIdFWqyHjkAK_N1tHOtq9oW-OLIyly8Gn2UMJuWy3Rmb4-yrh4BQvBe8Zu0SsoBjyTZLdW2VEqqPgr3KJGRFDItgs7mlEw75m00]--></g></svg>