<svg xmlns="http://www.w3.org/2000/svg" xmlns:xlink="http://www.w3.org/1999/xlink" contentStyleType="text/css" height="790px" preserveAspectRatio="none" style="width:1118px;height:790px;background:#FFFFFF;" version="1.1" viewBox="0 0 1118 790" width="1118px" zoomAndPan="magnify"><defs/><g><!--class HentSaksfaseResultat--><g id="elem_HentSaksfaseResultat"><rect codeLine="2" fill="#F1F1F1" height="64.4883" id="HentSaksfaseResultat" rx="2.5" ry="2.5" style="stroke:#181818;stroke-width:0.5;" width="178" x="526.5" y="7"/><ellipse cx="541.5" cy="23" fill="#ADD1B2" rx="11" ry="11" style="stroke:#181818;stroke-width:1.0;"/><path d="M543.9731,29.1431 Q543.3921,29.4419 542.7529,29.5913 Q542.1138,29.7407 541.4082,29.7407 Q538.9014,29.7407 537.5815,28.0889 Q536.2617,26.437 536.2617,23.3159 Q536.2617,20.1865 537.5815,18.5347 Q538.9014,16.8828 541.4082,16.8828 Q542.1138,16.8828 542.7612,17.0322 Q543.4087,17.1816 543.9731,17.4805 L543.9731,20.2031 Q543.3423,19.6221 542.7488,19.3523 Q542.1553,19.0825 541.5244,19.0825 Q540.1797,19.0825 539.4949,20.1492 Q538.8101,21.2158 538.8101,23.3159 Q538.8101,25.4077 539.4949,26.4744 Q540.1797,27.541 541.5244,27.541 Q542.1553,27.541 542.7488,27.2712 Q543.3423,27.0015 543.9731,26.4204 Z " fill="#000000"/><text fill="#000000" font-family="sans-serif" font-size="14" lengthAdjust="spacing" textLength="146" x="555.5" y="28.291">HentSaksfaseResultat</text><line style="stroke:#181818;stroke-width:0.5;" x1="527.5" x2="703.5" y1="39" y2="39"/><ellipse cx="537.5" cy="52.7441" fill="none" rx="3" ry="3" style="stroke:#038048;stroke-width:1.0;"/><text fill="#000000" font-family="sans-serif" font-size="14" lengthAdjust="spacing" textLength="67" x="546.5" y="56.5352">fase: Fase</text><line style="stroke:#181818;stroke-width:0.5;" x1="527.5" x2="703.5" y1="63.4883" y2="63.4883"/></g><!--class Fase--><g id="elem_Fase"><rect codeLine="8" fill="#F1F1F1" height="163.418" id="Fase" rx="2.5" ry="2.5" style="stroke:#181818;stroke-width:0.5;" width="199" x="516" y="131.49"/><ellipse cx="595.75" cy="147.49" fill="#ADD1B2" rx="11" ry="11" style="stroke:#181818;stroke-width:1.0;"/><path d="M598.2231,153.6331 Q597.6421,153.9319 597.0029,154.0813 Q596.3638,154.2307 595.6582,154.2307 Q593.1514,154.2307 591.8315,152.5789 Q590.5117,150.927 590.5117,147.8059 Q590.5117,144.6765 591.8315,143.0247 Q593.1514,141.3728 595.6582,141.3728 Q596.3638,141.3728 597.0112,141.5222 Q597.6587,141.6716 598.2231,141.9705 L598.2231,144.6931 Q597.5923,144.1121 596.9988,143.8423 Q596.4053,143.5725 595.7744,143.5725 Q594.4297,143.5725 593.7449,144.6392 Q593.0601,145.7058 593.0601,147.8059 Q593.0601,149.8977 593.7449,150.9644 Q594.4297,152.031 595.7744,152.031 Q596.4053,152.031 596.9988,151.7612 Q597.5923,151.4915 598.2231,150.9104 Z " fill="#000000"/><text fill="#000000" font-family="sans-serif" font-size="14" lengthAdjust="spacing" textLength="31" x="616.25" y="152.781">Fase</text><line style="stroke:#181818;stroke-width:0.5;" x1="517" x2="714" y1="163.49" y2="163.49"/><ellipse cx="527" cy="177.2341" fill="none" rx="3" ry="3" style="stroke:#038048;stroke-width:1.0;"/><text fill="#000000" font-family="sans-serif" font-size="14" lengthAdjust="spacing" textLength="109" x="536" y="181.0252">fasenavn: string</text><ellipse cx="527" cy="193.7224" fill="none" rx="3" ry="3" style="stroke:#038048;stroke-width:1.0;"/><text fill="#000000" font-family="sans-serif" font-size="14" lengthAdjust="spacing" textLength="89" x="536" y="197.5134">faseid: string</text><ellipse cx="527" cy="210.2107" fill="none" rx="3" ry="3" style="stroke:#038048;stroke-width:1.0;"/><text fill="#000000" font-family="sans-serif" font-size="14" lengthAdjust="spacing" textLength="153" x="536" y="214.0017">kategori: Fasekategori</text><ellipse cx="527" cy="226.699" fill="none" rx="3" ry="3" style="stroke:#038048;stroke-width:1.0;"/><text fill="#000000" font-family="sans-serif" font-size="14" lengthAdjust="spacing" textLength="131" x="536" y="230.49">milepeler: Milepel[]</text><ellipse cx="527" cy="243.1873" fill="none" rx="3" ry="3" style="stroke:#038048;stroke-width:1.0;"/><text fill="#000000" font-family="sans-serif" font-size="14" lengthAdjust="spacing" textLength="107" x="536" y="246.9783">global: boolean</text><ellipse cx="527" cy="259.6755" fill="none" rx="3" ry="3" style="stroke:#038048;stroke-width:1.0;"/><text fill="#000000" font-family="sans-serif" font-size="14" lengthAdjust="spacing" textLength="161" x="536" y="263.4666">status: FaseStatusEnum</text><ellipse cx="527" cy="276.1638" fill="none" rx="3" ry="3" style="stroke:#038048;stroke-width:1.0;"/><text fill="#000000" font-family="sans-serif" font-size="14" lengthAdjust="spacing" textLength="173" x="536" y="279.9548">dokumenter: Dokument[]</text><line style="stroke:#181818;stroke-width:0.5;" x1="517" x2="714" y1="286.908" y2="286.908"/></g><!--class Dokument--><g id="elem_Dokument"><rect codeLine="65" fill="#F1F1F1" height="146.9297" id="Dokument" rx="2.5" ry="2.5" style="stroke:#181818;stroke-width:0.5;" width="335" x="743" y="420.86"/><ellipse cx="870.75" cy="436.86" fill="#ADD1B2" rx="11" ry="11" style="stroke:#181818;stroke-width:1.0;"/><path d="M873.2231,443.0031 Q872.6421,443.3019 872.0029,443.4513 Q871.3638,443.6007 870.6582,443.6007 Q868.1514,443.6007 866.8315,441.9489 Q865.5117,440.297 865.5117,437.1759 Q865.5117,434.0465 866.8315,432.3947 Q868.1514,430.7428 870.6582,430.7428 Q871.3638,430.7428 872.0112,430.8922 Q872.6587,431.0416 873.2231,431.3405 L873.2231,434.0631 Q872.5923,433.4821 871.9988,433.2123 Q871.4053,432.9425 870.7744,432.9425 Q869.4297,432.9425 868.7449,434.0092 Q868.0601,435.0758 868.0601,437.1759 Q868.0601,439.2677 868.7449,440.3344 Q869.4297,441.401 870.7744,441.401 Q871.4053,441.401 871.9988,441.1312 Q872.5923,440.8615 873.2231,440.2804 Z " fill="#000000"/><text fill="#000000" font-family="sans-serif" font-size="14" lengthAdjust="spacing" textLength="71" x="891.25" y="442.151">Dokument</text><line style="stroke:#181818;stroke-width:0.5;" x1="744" x2="1077" y1="452.86" y2="452.86"/><ellipse cx="754" cy="466.6041" fill="none" rx="3" ry="3" style="stroke:#038048;stroke-width:1.0;"/><text fill="#000000" font-family="sans-serif" font-size="14" lengthAdjust="spacing" textLength="79" x="763" y="470.3952">tittel: string</text><ellipse cx="754" cy="483.0924" fill="none" rx="3" ry="3" style="stroke:#038048;stroke-width:1.0;"/><text fill="#000000" font-family="sans-serif" font-size="14" lengthAdjust="spacing" textLength="207" x="763" y="486.8834">dokumenttype: Dokumenttype</text><ellipse cx="754" cy="499.5807" fill="none" rx="3" ry="3" style="stroke:#038048;stroke-width:1.0;"/><text fill="#000000" font-family="sans-serif" font-size="14" lengthAdjust="spacing" textLength="309" x="763" y="503.3717">referanseDokumentfil: ReferanseDokumentfil</text><ellipse cx="754" cy="516.069" fill="none" rx="3" ry="3" style="stroke:#038048;stroke-width:1.0;"/><text fill="#000000" font-family="sans-serif" font-size="14" lengthAdjust="spacing" textLength="115" x="763" y="519.86">mimetype: string</text><ellipse cx="754" cy="532.5573" fill="none" rx="3" ry="3" style="stroke:#038048;stroke-width:1.0;"/><text fill="#000000" font-family="sans-serif" font-size="14" lengthAdjust="spacing" textLength="146" x="763" y="536.3483">dokumentsdato: date</text><ellipse cx="754" cy="549.0455" fill="none" rx="3" ry="3" style="stroke:#038048;stroke-width:1.0;"/><text fill="#000000" font-family="sans-serif" font-size="14" lengthAdjust="spacing" textLength="114" x="763" y="552.8366">arkivnavn: string</text><line style="stroke:#181818;stroke-width:0.5;" x1="744" x2="1077" y1="559.7897" y2="559.7897"/></g><!--class Milepel--><g id="elem_Milepel"><rect codeLine="28" fill="#F1F1F1" height="278.8359" id="Milepel" rx="2.5" ry="2.5" style="stroke:#181818;stroke-width:0.5;" width="218" x="270.5" y="354.91"/><ellipse cx="350.75" cy="370.91" fill="#ADD1B2" rx="11" ry="11" style="stroke:#181818;stroke-width:1.0;"/><path d="M353.2231,377.0531 Q352.6421,377.3519 352.0029,377.5013 Q351.3638,377.6507 350.6582,377.6507 Q348.1514,377.6507 346.8315,375.9989 Q345.5117,374.347 345.5117,371.2259 Q345.5117,368.0965 346.8315,366.4447 Q348.1514,364.7928 350.6582,364.7928 Q351.3638,364.7928 352.0112,364.9422 Q352.6587,365.0916 353.2231,365.3905 L353.2231,368.1131 Q352.5923,367.5321 351.9988,367.2623 Q351.4053,366.9925 350.7744,366.9925 Q349.4297,366.9925 348.7449,368.0592 Q348.0601,369.1258 348.0601,371.2259 Q348.0601,373.3177 348.7449,374.3844 Q349.4297,375.451 350.7744,375.451 Q351.4053,375.451 351.9988,375.1812 Q352.5923,374.9115 353.2231,374.3304 Z " fill="#000000"/><text fill="#000000" font-family="sans-serif" font-size="14" lengthAdjust="spacing" textLength="49" x="371.25" y="376.201">Milepel</text><line style="stroke:#181818;stroke-width:0.5;" x1="271.5" x2="487.5" y1="386.91" y2="386.91"/><ellipse cx="281.5" cy="400.6541" fill="none" rx="3" ry="3" style="stroke:#038048;stroke-width:1.0;"/><text fill="#000000" font-family="sans-serif" font-size="14" lengthAdjust="spacing" textLength="108" x="290.5" y="404.4452">systemId: string</text><ellipse cx="281.5" cy="417.1424" fill="none" rx="3" ry="3" style="stroke:#038048;stroke-width:1.0;"/><text fill="#000000" font-family="sans-serif" font-size="14" lengthAdjust="spacing" textLength="124" x="290.5" y="420.9334">beskrivelse: string</text><ellipse cx="281.5" cy="433.6307" fill="none" rx="3" ry="3" style="stroke:#038048;stroke-width:1.0;"/><text fill="#000000" font-family="sans-serif" font-size="14" lengthAdjust="spacing" textLength="143" x="290.5" y="437.4217">kategori: Milepeltype</text><ellipse cx="281.5" cy="450.119" fill="none" rx="3" ry="3" style="stroke:#038048;stroke-width:1.0;"/><text fill="#000000" font-family="sans-serif" font-size="14" lengthAdjust="spacing" textLength="65" x="290.5" y="453.91">frist: date</text><ellipse cx="281.5" cy="466.6073" fill="none" rx="3" ry="3" style="stroke:#038048;stroke-width:1.0;"/><text fill="#000000" font-family="sans-serif" font-size="14" lengthAdjust="spacing" textLength="85" x="290.5" y="470.3983">utfoert: date</text><ellipse cx="281.5" cy="483.0955" fill="none" rx="3" ry="3" style="stroke:#038048;stroke-width:1.0;"/><text fill="#000000" font-family="sans-serif" font-size="14" lengthAdjust="spacing" textLength="118" x="290.5" y="486.8866">journaldato: date</text><ellipse cx="281.5" cy="499.5838" fill="none" rx="3" ry="3" style="stroke:#038048;stroke-width:1.0;"/><text fill="#000000" font-family="sans-serif" font-size="14" lengthAdjust="spacing" textLength="105" x="290.5" y="503.3748">intern: boolean</text><ellipse cx="281.5" cy="516.0721" fill="none" rx="3" ry="3" style="stroke:#038048;stroke-width:1.0;"/><text fill="#000000" font-family="sans-serif" font-size="14" lengthAdjust="spacing" textLength="192" x="290.5" y="519.8631">referanseJournalpost: string</text><ellipse cx="281.5" cy="532.5604" fill="none" rx="3" ry="3" style="stroke:#038048;stroke-width:1.0;"/><text fill="#000000" font-family="sans-serif" font-size="14" lengthAdjust="spacing" textLength="184" x="290.5" y="536.3514">referanseDokument: string</text><ellipse cx="281.5" cy="549.0487" fill="none" rx="3" ry="3" style="stroke:#038048;stroke-width:1.0;"/><text fill="#000000" font-family="sans-serif" font-size="14" lengthAdjust="spacing" textLength="110" x="290.5" y="552.8397">erStart: boolean</text><ellipse cx="281.5" cy="565.537" fill="none" rx="3" ry="3" style="stroke:#038048;stroke-width:1.0;"/><text fill="#000000" font-family="sans-serif" font-size="14" lengthAdjust="spacing" textLength="109" x="290.5" y="569.328">erSlutt: boolean</text><ellipse cx="281.5" cy="582.0252" fill="none" rx="3" ry="3" style="stroke:#038048;stroke-width:1.0;"/><text fill="#000000" font-family="sans-serif" font-size="14" lengthAdjust="spacing" textLength="179" x="290.5" y="585.8163">status: MilepelStatusEnum</text><ellipse cx="281.5" cy="598.5135" fill="none" rx="3" ry="3" style="stroke:#038048;stroke-width:1.0;"/><text fill="#000000" font-family="sans-serif" font-size="14" lengthAdjust="spacing" textLength="122" x="290.5" y="602.3045">erGlobal: boolean</text><ellipse cx="281.5" cy="615.0018" fill="none" rx="3" ry="3" style="stroke:#038048;stroke-width:1.0;"/><text fill="#000000" font-family="sans-serif" font-size="14" lengthAdjust="spacing" textLength="173" x="290.5" y="618.7928">dokumenter: Dokument[]</text><line style="stroke:#181818;stroke-width:0.5;" x1="271.5" x2="487.5" y1="625.7459" y2="625.7459"/></g><!--class Fasekategori--><g id="elem_Fasekategori"><rect codeLine="23" fill="#F1F1F1" height="89.5977" id="Fasekategori" rx="2.5" ry="2.5" style="stroke:#181818;stroke-width:0.5;" width="184" x="523.5" y="449.53"/><ellipse cx="567.3" cy="469.8405" fill="#ADD1B2" rx="11" ry="11" style="stroke:#181818;stroke-width:1.0;"/><path d="M569.7731,475.9836 Q569.1921,476.2824 568.5529,476.4319 Q567.9138,476.5813 567.2082,476.5813 Q564.7014,476.5813 563.3815,474.9294 Q562.0617,473.2776 562.0617,470.1565 Q562.0617,467.0271 563.3815,465.3752 Q564.7014,463.7234 567.2082,463.7234 Q567.9138,463.7234 568.5612,463.8728 Q569.2087,464.0222 569.7731,464.321 L569.7731,467.0437 Q569.1423,466.4626 568.5488,466.1928 Q567.9553,465.9231 567.3244,465.9231 Q565.9797,465.9231 565.2949,466.9897 Q564.6101,468.0564 564.6101,470.1565 Q564.6101,472.2483 565.2949,473.3149 Q565.9797,474.3816 567.3244,474.3816 Q567.9553,474.3816 568.5488,474.1118 Q569.1423,473.842 569.7731,473.261 Z " fill="#000000"/><text fill="#000000" font-family="sans-serif" font-size="12" font-style="italic" lengthAdjust="spacing" textLength="42" x="610.7" y="466.1316">&#171;Kode&#187;</text><text fill="#000000" font-family="sans-serif" font-size="14" lengthAdjust="spacing" textLength="88" x="587.7" y="482.198">Fasekategori</text><line style="stroke:#181818;stroke-width:0.5;" x1="524.5" x2="706.5" y1="490.1511" y2="490.1511"/><ellipse cx="534.5" cy="503.8952" fill="none" rx="3" ry="3" style="stroke:#038048;stroke-width:1.0;"/><text fill="#000000" font-family="sans-serif" font-size="14" lengthAdjust="spacing" textLength="116" x="543.5" y="507.6863">kodeverdi: string</text><ellipse cx="534.5" cy="520.3835" fill="none" rx="3" ry="3" style="stroke:#038048;stroke-width:1.0;"/><text fill="#000000" font-family="sans-serif" font-size="14" lengthAdjust="spacing" textLength="158" x="543.5" y="524.1745">kodebeskrivelse: string</text><line style="stroke:#181818;stroke-width:0.5;" x1="524.5" x2="706.5" y1="531.1277" y2="531.1277"/></g><!--class Milepeltype--><g id="elem_Milepeltype"><rect codeLine="49" fill="#F1F1F1" height="89.5977" id="Milepeltype" rx="2.5" ry="2.5" style="stroke:#181818;stroke-width:0.5;" width="184" x="54.5" y="693.74"/><ellipse cx="103.25" cy="714.0505" fill="#ADD1B2" rx="11" ry="11" style="stroke:#181818;stroke-width:1.0;"/><path d="M105.7231,720.1936 Q105.1421,720.4924 104.5029,720.6419 Q103.8638,720.7913 103.1582,720.7913 Q100.6514,720.7913 99.3315,719.1394 Q98.0117,717.4876 98.0117,714.3665 Q98.0117,711.2371 99.3315,709.5852 Q100.6514,707.9334 103.1582,707.9334 Q103.8638,707.9334 104.5112,708.0828 Q105.1587,708.2322 105.7231,708.531 L105.7231,711.2537 Q105.0923,710.6726 104.4988,710.4028 Q103.9053,710.1331 103.2744,710.1331 Q101.9297,710.1331 101.2449,711.1997 Q100.5601,712.2664 100.5601,714.3665 Q100.5601,716.4583 101.2449,717.5249 Q101.9297,718.5916 103.2744,718.5916 Q103.9053,718.5916 104.4988,718.3218 Q105.0923,718.052 105.7231,717.471 Z " fill="#000000"/><text fill="#000000" font-family="sans-serif" font-size="12" font-style="italic" lengthAdjust="spacing" textLength="42" x="141.75" y="710.3416">&#171;Kode&#187;</text><text fill="#000000" font-family="sans-serif" font-size="14" lengthAdjust="spacing" textLength="78" x="123.75" y="726.408">Milepeltype</text><line style="stroke:#181818;stroke-width:0.5;" x1="55.5" x2="237.5" y1="734.3611" y2="734.3611"/><ellipse cx="65.5" cy="748.1052" fill="none" rx="3" ry="3" style="stroke:#038048;stroke-width:1.0;"/><text fill="#000000" font-family="sans-serif" font-size="14" lengthAdjust="spacing" textLength="116" x="74.5" y="751.8963">kodeverdi: string</text><ellipse cx="65.5" cy="764.5935" fill="none" rx="3" ry="3" style="stroke:#038048;stroke-width:1.0;"/><text fill="#000000" font-family="sans-serif" font-size="14" lengthAdjust="spacing" textLength="158" x="74.5" y="768.3845">kodebeskrivelse: string</text><line style="stroke:#181818;stroke-width:0.5;" x1="55.5" x2="237.5" y1="775.3377" y2="775.3377"/></g><g id="elem_GMN13"><path d="M6,458.7 L6,529.9422 A0,0 0 0 0 6,529.9422 L120.25,529.9422 L141.78,693.56 L128.25,529.9422 L235,529.9422 A0,0 0 0 0 235,529.9422 L235,468.7 L225,458.7 L6,458.7 A0,0 0 0 0 6,458.7 " fill="#FEFFDD" style="stroke:#181818;stroke-width:0.5;"/><path d="M225,458.7 L225,468.7 L235,468.7 L225,458.7 " fill="#FEFFDD" style="stroke:#181818;stroke-width:0.5;"/><text fill="#000000" font-family="sans-serif" font-size="13" lengthAdjust="spacing" textLength="69" x="12" y="476.2684">Eksempler:</text><text fill="#000000" font-family="sans-serif" font-size="13" lengthAdjust="spacing" textLength="201" x="12" y="491.5789">Bestilling av oppstartsm&#248;te (BO)</text><text fill="#000000" font-family="sans-serif" font-size="13" lengthAdjust="spacing" textLength="208" x="12" y="506.8895">Gjennomf&#248;rt oppstartsm&#248;te (OM)</text><text fill="#000000" font-family="sans-serif" font-size="13" lengthAdjust="spacing" textLength="137" x="12" y="522.2">Mottak av planforslag</text></g><!--class MilepelStatusEnum--><g id="elem_MilepelStatusEnum"><rect codeLine="58" fill="#F1F1F1" height="80.9766" id="MilepelStatusEnum" rx="2.5" ry="2.5" style="stroke:#181818;stroke-width:0.5;" width="162" x="298.5" y="698.05"/><ellipse cx="313.5" cy="714.05" fill="#EB937F" rx="11" ry="11" style="stroke:#181818;stroke-width:1.0;"/><path d="M317.1143,720.55 L309.3945,720.55 L309.3945,708.1569 L317.1143,708.1569 L317.1143,710.3151 L311.8433,710.3151 L311.8433,712.988 L316.6162,712.988 L316.6162,715.1462 L311.8433,715.1462 L311.8433,718.3918 L317.1143,718.3918 Z " fill="#000000"/><text fill="#000000" font-family="sans-serif" font-size="14" lengthAdjust="spacing" textLength="130" x="327.5" y="719.341">MilepelStatusEnum</text><line style="stroke:#181818;stroke-width:0.5;" x1="299.5" x2="459.5" y1="730.05" y2="730.05"/><ellipse cx="309.5" cy="743.7941" fill="none" rx="3" ry="3" style="stroke:#038048;stroke-width:1.0;"/><text fill="#000000" font-family="sans-serif" font-size="14" lengthAdjust="spacing" textLength="36" x="318.5" y="747.5852">N&#229;dd</text><ellipse cx="309.5" cy="760.2824" fill="none" rx="3" ry="3" style="stroke:#038048;stroke-width:1.0;"/><text fill="#000000" font-family="sans-serif" font-size="14" lengthAdjust="spacing" textLength="55" x="318.5" y="764.0734">Planlagt</text><line style="stroke:#181818;stroke-width:0.5;" x1="299.5" x2="459.5" y1="771.0266" y2="771.0266"/></g><g id="elem_GMN19"><path d="M805,200.54 L805,225.8505 A0,0 0 0 0 805,225.8505 L906.5,225.8505 L910.5,420.67 L914.5,225.8505 L1016,225.8505 A0,0 0 0 0 1016,225.8505 L1016,210.54 L1006,200.54 L805,200.54 A0,0 0 0 0 805,200.54 " fill="#FEFFDD" style="stroke:#181818;stroke-width:0.5;"/><path d="M1006,200.54 L1006,210.54 L1016,210.54 L1006,200.54 " fill="#FEFFDD" style="stroke:#181818;stroke-width:0.5;"/><text fill="#000000" font-family="sans-serif" font-size="13" lengthAdjust="spacing" textLength="190" x="811" y="218.1084">Hentet definisjon fra Fiks Plan</text></g><!--class Dokumenttype--><g id="elem_Dokumenttype"><rect codeLine="77" fill="#F1F1F1" height="89.5977" id="Dokumenttype" rx="2.5" ry="2.5" style="stroke:#181818;stroke-width:0.5;" width="184" x="708.5" y="693.74"/><ellipse cx="746.9" cy="714.0505" fill="#ADD1B2" rx="11" ry="11" style="stroke:#181818;stroke-width:1.0;"/><path d="M749.3731,720.1936 Q748.7921,720.4924 748.1529,720.6419 Q747.5138,720.7913 746.8082,720.7913 Q744.3014,720.7913 742.9815,719.1394 Q741.6617,717.4876 741.6617,714.3665 Q741.6617,711.2371 742.9815,709.5852 Q744.3014,707.9334 746.8082,707.9334 Q747.5138,707.9334 748.1612,708.0828 Q748.8087,708.2322 749.3731,708.531 L749.3731,711.2537 Q748.7423,710.6726 748.1488,710.4028 Q747.5553,710.1331 746.9244,710.1331 Q745.5797,710.1331 744.8949,711.1997 Q744.2101,712.2664 744.2101,714.3665 Q744.2101,716.4583 744.8949,717.5249 Q745.5797,718.5916 746.9244,718.5916 Q747.5553,718.5916 748.1488,718.3218 Q748.7423,718.052 749.3731,717.471 Z " fill="#000000"/><text fill="#000000" font-family="sans-serif" font-size="12" font-style="italic" lengthAdjust="spacing" textLength="42" x="795.1" y="710.3416">&#171;Kode&#187;</text><text fill="#000000" font-family="sans-serif" font-size="14" lengthAdjust="spacing" textLength="100" x="766.1" y="726.408">Dokumenttype</text><line style="stroke:#181818;stroke-width:0.5;" x1="709.5" x2="891.5" y1="734.3611" y2="734.3611"/><ellipse cx="719.5" cy="748.1052" fill="none" rx="3" ry="3" style="stroke:#038048;stroke-width:1.0;"/><text fill="#000000" font-family="sans-serif" font-size="14" lengthAdjust="spacing" textLength="116" x="728.5" y="751.8963">kodeverdi: string</text><ellipse cx="719.5" cy="764.5935" fill="none" rx="3" ry="3" style="stroke:#038048;stroke-width:1.0;"/><text fill="#000000" font-family="sans-serif" font-size="14" lengthAdjust="spacing" textLength="158" x="728.5" y="768.3845">kodebeskrivelse: string</text><line style="stroke:#181818;stroke-width:0.5;" x1="709.5" x2="891.5" y1="775.3377" y2="775.3377"/></g><!--class ReferanseDokumentfil--><g id="elem_ReferanseDokumentfil"><rect codeLine="82" fill="#F1F1F1" height="80.9766" id="ReferanseDokumentfil" rx="2.5" ry="2.5" style="stroke:#181818;stroke-width:0.5;" width="184" x="927.5" y="698.05"/><ellipse cx="942.5" cy="714.05" fill="#ADD1B2" rx="11" ry="11" style="stroke:#181818;stroke-width:1.0;"/><path d="M944.9731,720.1931 Q944.3921,720.4919 943.7529,720.6413 Q943.1138,720.7907 942.4082,720.7907 Q939.9014,720.7907 938.5815,719.1389 Q937.2617,717.487 937.2617,714.3659 Q937.2617,711.2365 938.5815,709.5847 Q939.9014,707.9328 942.4082,707.9328 Q943.1138,707.9328 943.7612,708.0822 Q944.4087,708.2316 944.9731,708.5305 L944.9731,711.2531 Q944.3423,710.6721 943.7488,710.4023 Q943.1553,710.1325 942.5244,710.1325 Q941.1797,710.1325 940.4949,711.1992 Q939.8101,712.2658 939.8101,714.3659 Q939.8101,716.4577 940.4949,717.5244 Q941.1797,718.591 942.5244,718.591 Q943.1553,718.591 943.7488,718.3212 Q944.3423,718.0515 944.9731,717.4704 Z " fill="#000000"/><text fill="#000000" font-family="sans-serif" font-size="14" lengthAdjust="spacing" textLength="152" x="956.5" y="719.341">ReferanseDokumentfil</text><line style="stroke:#181818;stroke-width:0.5;" x1="928.5" x2="1110.5" y1="730.05" y2="730.05"/><ellipse cx="938.5" cy="743.7941" fill="none" rx="3" ry="3" style="stroke:#038048;stroke-width:1.0;"/><text fill="#000000" font-family="sans-serif" font-size="14" lengthAdjust="spacing" textLength="61" x="947.5" y="747.5852">id: string</text><ellipse cx="938.5" cy="760.2824" fill="none" rx="3" ry="3" style="stroke:#038048;stroke-width:1.0;"/><text fill="#000000" font-family="sans-serif" font-size="14" lengthAdjust="spacing" textLength="67" x="947.5" y="764.0734">url: string</text><line style="stroke:#181818;stroke-width:0.5;" x1="928.5" x2="1110.5" y1="771.0266" y2="771.0266"/></g><!--link HentSaksfaseResultat to Fase--><g id="link_HentSaksfaseResultat_Fase"><path codeLine="6" d="M615.5,71.78 C615.5,88.56 615.5,110.03 615.5,131.1 " fill="none" id="HentSaksfaseResultat-Fase" style="stroke:#181818;stroke-width:1.0;"/></g><!--link Fase to Dokument--><g id="link_Fase_Dokument"><path codeLine="18" d="M701.22,295.31 C743.07,334.9 784.3039,373.9119 824.9039,412.3319 " fill="none" id="Fase-to-Dokument" style="stroke:#181818;stroke-width:1.0;"/><polygon fill="#181818" points="833.62,420.58,832.0113,413.5506,824.9039,412.3319,826.5126,419.3613,833.62,420.58" style="stroke:#181818;stroke-width:1.0;"/></g><!--link Fase to Milepel--><g id="link_Fase_Milepel"><path codeLine="19" d="M546.92,295.31 C528.75,316.8 508.68,340.54 488.92,363.91 " fill="none" id="Fase-Milepel" style="stroke:#181818;stroke-width:1.0;"/></g><!--link Fase to Fasekategori--><g id="link_Fase_Fasekategori"><path codeLine="21" d="M615.5,295.31 C615.5,345.53 615.5,408.07 615.5,449.27 " fill="none" id="Fase-Fasekategori" style="stroke:#181818;stroke-width:1.0;"/></g><!--link Milepel to Milepeltype--><g id="link_Milepel_Milepeltype"><path codeLine="45" d="M270.1,615.36 C264.18,621.61 258.28,627.77 252.5,633.74 C233.24,653.64 211.47,675.13 192.68,693.36 " fill="none" id="Milepel-Milepeltype" style="stroke:#181818;stroke-width:1.0;"/></g><!--link Milepel to MilepelStatusEnum--><g id="link_Milepel_MilepelStatusEnum"><path codeLine="55" d="M379.5,634.12 C379.5,657.37 379.5,679.74 379.5,697.68 " fill="none" id="Milepel-MilepelStatusEnum" style="stroke:#181818;stroke-width:1.0;"/></g><!--link Milepel to Dokument--><g id="link_Milepel_Dokument"><path codeLine="56" d="M477.84,354.79 C491.65,342.83 506.74,332.44 523,324.91 C597.6,290.33 630.72,296.84 708,324.91 C761.21,344.23 801.7096,375.8699 838.1796,412.2099 " fill="none" id="Milepel-to-Dokument" style="stroke:#181818;stroke-width:1.0;"/><polygon fill="#181818" points="846.68,420.68,845.2532,413.6115,838.1796,412.2099,839.6064,419.2784,846.68,420.68" style="stroke:#181818;stroke-width:1.0;"/></g><!--link Dokument to Dokumenttype--><g id="link_Dokument_Dokumenttype"><path codeLine="74" d="M877.5,568 C858.95,608.83 836.42,658.45 820.53,693.43 " fill="none" id="Dokument-Dokumenttype" style="stroke:#181818;stroke-width:1.0;"/></g><!--link Dokument to ReferanseDokumentfil--><g id="link_Dokument_ReferanseDokumentfil"><path codeLine="75" d="M943.2,568 C962.33,610.5 985.74,662.53 1001.55,697.65 " fill="none" id="Dokument-ReferanseDokumentfil" style="stroke:#181818;stroke-width:1.0;"/></g><!--SRC=[hLHBRjmm3Dtx55hsWxc04MGHD4a_cAP8baqNcfWUQ2nBXaWR28eSftV8VYvMoh8yaiTPjLuOyYFvI3xIUj8IKNm6Gm-omLeYt0FscYI9tuNWvwF7Id73x-AbA5OzDvjWBvv6DdzEeuqSJ2cGd3Bx4wgg76iamTuw5NB5hs1hbOOEDBXIRCFnvwzWsMkxaxeKEsirI1D0vA9w34GFu_dQz6smLRRfMsx2StsQpap6hOrbRpxCw0HiOifY1h82awOZ9YukljaABY-Z2Wr_3U0gjMYPuHrWuzG0sgiy6LyYwPGvqk0p4hHV5iAjCImKdNZekODf04uXbQ9YZm3qL5jm6NImlJDICs1JM7djp49n1pKuQH2-Xg3EUlgqcDaZofkRmV6WVFwCbb7T4xqntgchvOJ1tQujnTk3ZogVHZqALHXB8CXsmjQfGPJYka5ekt4V7yqL82cjkHKX1s6x3dqds1vVEVpTrTtxHtDx06DiMnzV7Prvt6tPOsk9PEC9EYrDRHrgoTBaUp1c__VTMcauqN0s9dz20MmvzuqbV3_-gQfm_C7LS-NaywJwHIeMpryXGAA2MXc51sj4xQIuKGqA7nrtVuwOaf0Y0fqt6MVgXJbDzRJcPqjNAsQuNq7ZFTD2u5hBWijVGRf63TdjnbtFTREwMKMfORM4HUF_QTg1T2rXv5pUnBtJ2S5V]--></g></svg>