<svg xmlns="http://www.w3.org/2000/svg" xmlns:xlink="http://www.w3.org/1999/xlink" contentStyleType="text/css" height="955px" preserveAspectRatio="none" style="width:2249px;height:955px;background:#FFFFFF;" version="1.1" viewBox="0 0 2249 955" width="2249px" zoomAndPan="magnify"><defs/><g><!--class Dokument--><g id="elem_Dokument"><rect codeLine="3" fill="#F1F1F1" height="179.9063" id="Dokument" rx="2.5" ry="2.5" style="stroke:#181818;stroke-width:0.5;" width="335" x="1009" y="387.88"/><ellipse cx="1136.75" cy="403.88" fill="#ADD1B2" rx="11" ry="11" style="stroke:#181818;stroke-width:1.0;"/><path d="M1139.2231,410.0231 Q1138.6421,410.3219 1138.0029,410.4713 Q1137.3638,410.6207 1136.6582,410.6207 Q1134.1514,410.6207 1132.8315,408.9689 Q1131.5117,407.317 1131.5117,404.1959 Q1131.5117,401.0665 1132.8315,399.4147 Q1134.1514,397.7628 1136.6582,397.7628 Q1137.3638,397.7628 1138.0112,397.9122 Q1138.6587,398.0616 1139.2231,398.3605 L1139.2231,401.0831 Q1138.5923,400.5021 1137.9988,400.2323 Q1137.4053,399.9625 1136.7744,399.9625 Q1135.4297,399.9625 1134.7449,401.0292 Q1134.0601,402.0958 1134.0601,404.1959 Q1134.0601,406.2877 1134.7449,407.3544 Q1135.4297,408.421 1136.7744,408.421 Q1137.4053,408.421 1137.9988,408.1512 Q1138.5923,407.8815 1139.2231,407.3004 Z " fill="#000000"/><text fill="#000000" font-family="sans-serif" font-size="14" lengthAdjust="spacing" textLength="71" x="1157.25" y="409.171">Dokument</text><line style="stroke:#181818;stroke-width:0.5;" x1="1010" x2="1343" y1="419.88" y2="419.88"/><ellipse cx="1020" cy="433.6241" fill="none" rx="3" ry="3" style="stroke:#038048;stroke-width:1.0;"/><text fill="#000000" font-family="sans-serif" font-size="14" lengthAdjust="spacing" textLength="61" x="1029" y="437.4152">id: string</text><ellipse cx="1020" cy="450.1124" fill="none" rx="3" ry="3" style="stroke:#038048;stroke-width:1.0;"/><text fill="#000000" font-family="sans-serif" font-size="14" lengthAdjust="spacing" textLength="79" x="1029" y="453.9034">tittel: string</text><ellipse cx="1020" cy="466.6007" fill="none" rx="3" ry="3" style="stroke:#038048;stroke-width:1.0;"/><text fill="#000000" font-family="sans-serif" font-size="14" lengthAdjust="spacing" textLength="94" x="1029" y="470.3917">filnavn: string</text><ellipse cx="1020" cy="483.089" fill="none" rx="3" ry="3" style="stroke:#038048;stroke-width:1.0;"/><text fill="#000000" font-family="sans-serif" font-size="14" lengthAdjust="spacing" textLength="207" x="1029" y="486.88">dokumenttype: Dokumenttype</text><ellipse cx="1020" cy="499.5773" fill="none" rx="3" ry="3" style="stroke:#038048;stroke-width:1.0;"/><text fill="#000000" font-family="sans-serif" font-size="14" lengthAdjust="spacing" textLength="309" x="1029" y="503.3683">referanseDokumentfil: ReferanseDokumentfil</text><ellipse cx="1020" cy="516.0655" fill="none" rx="3" ry="3" style="stroke:#038048;stroke-width:1.0;"/><text fill="#000000" font-family="sans-serif" font-size="14" lengthAdjust="spacing" textLength="115" x="1029" y="519.8566">mimetype: string</text><ellipse cx="1020" cy="532.5538" fill="none" rx="3" ry="3" style="stroke:#038048;stroke-width:1.0;"/><text fill="#000000" font-family="sans-serif" font-size="14" lengthAdjust="spacing" textLength="146" x="1029" y="536.3448">dokumentsdato: date</text><ellipse cx="1020" cy="549.0421" fill="none" rx="3" ry="3" style="stroke:#038048;stroke-width:1.0;"/><text fill="#000000" font-family="sans-serif" font-size="14" lengthAdjust="spacing" textLength="114" x="1029" y="552.8331">arkivnavn: string</text><line style="stroke:#181818;stroke-width:0.5;" x1="1010" x2="1343" y1="559.7863" y2="559.7863"/></g><g id="elem_GMN3"><path d="M1071,200.54 L1071,225.8505 A0,0 0 0 0 1071,225.8505 L1172.5,225.8505 L1176.5,387.66 L1180.5,225.8505 L1282,225.8505 A0,0 0 0 0 1282,225.8505 L1282,210.54 L1272,200.54 L1071,200.54 A0,0 0 0 0 1071,200.54 " fill="#FEFFDD" style="stroke:#181818;stroke-width:0.5;"/><path d="M1272,200.54 L1272,210.54 L1282,210.54 L1272,200.54 " fill="#FEFFDD" style="stroke:#181818;stroke-width:0.5;"/><text fill="#000000" font-family="sans-serif" font-size="13" lengthAdjust="spacing" textLength="190" x="1077" y="218.1084">Hentet definisjon fra Fiks Plan</text></g><!--class Dokumenttype--><g id="elem_Dokumenttype"><rect codeLine="19" fill="#F1F1F1" height="89.5977" id="Dokumenttype" rx="2.5" ry="2.5" style="stroke:#181818;stroke-width:0.5;" width="184" x="1303.5" y="681.19"/><ellipse cx="1341.9" cy="701.5005" fill="#ADD1B2" rx="11" ry="11" style="stroke:#181818;stroke-width:1.0;"/><path d="M1344.3731,707.6436 Q1343.7921,707.9424 1343.1529,708.0919 Q1342.5138,708.2413 1341.8082,708.2413 Q1339.3014,708.2413 1337.9815,706.5894 Q1336.6617,704.9376 1336.6617,701.8165 Q1336.6617,698.6871 1337.9815,697.0352 Q1339.3014,695.3834 1341.8082,695.3834 Q1342.5138,695.3834 1343.1612,695.5328 Q1343.8087,695.6822 1344.3731,695.981 L1344.3731,698.7037 Q1343.7423,698.1226 1343.1488,697.8528 Q1342.5553,697.5831 1341.9244,697.5831 Q1340.5797,697.5831 1339.8949,698.6497 Q1339.2101,699.7164 1339.2101,701.8165 Q1339.2101,703.9083 1339.8949,704.9749 Q1340.5797,706.0416 1341.9244,706.0416 Q1342.5553,706.0416 1343.1488,705.7718 Q1343.7423,705.502 1344.3731,704.921 Z " fill="#000000"/><text fill="#000000" font-family="sans-serif" font-size="12" font-style="italic" lengthAdjust="spacing" textLength="42" x="1390.1" y="697.7916">&#171;Kode&#187;</text><text fill="#000000" font-family="sans-serif" font-size="14" lengthAdjust="spacing" textLength="100" x="1361.1" y="713.858">Dokumenttype</text><line style="stroke:#181818;stroke-width:0.5;" x1="1304.5" x2="1486.5" y1="721.8111" y2="721.8111"/><ellipse cx="1314.5" cy="735.5552" fill="none" rx="3" ry="3" style="stroke:#038048;stroke-width:1.0;"/><text fill="#000000" font-family="sans-serif" font-size="14" lengthAdjust="spacing" textLength="116" x="1323.5" y="739.3462">kodeverdi: string</text><ellipse cx="1314.5" cy="752.0435" fill="none" rx="3" ry="3" style="stroke:#038048;stroke-width:1.0;"/><text fill="#000000" font-family="sans-serif" font-size="14" lengthAdjust="spacing" textLength="158" x="1323.5" y="755.8345">kodebeskrivelse: string</text><line style="stroke:#181818;stroke-width:0.5;" x1="1304.5" x2="1486.5" y1="762.7877" y2="762.7877"/></g><!--class ReferanseDokumentfil--><g id="elem_ReferanseDokumentfil"><rect codeLine="24" fill="#F1F1F1" height="80.9766" id="ReferanseDokumentfil" rx="2.5" ry="2.5" style="stroke:#181818;stroke-width:0.5;" width="184" x="1084.5" y="685.5"/><ellipse cx="1099.5" cy="701.5" fill="#ADD1B2" rx="11" ry="11" style="stroke:#181818;stroke-width:1.0;"/><path d="M1101.9731,707.6431 Q1101.3921,707.9419 1100.7529,708.0913 Q1100.1138,708.2407 1099.4082,708.2407 Q1096.9014,708.2407 1095.5815,706.5889 Q1094.2617,704.937 1094.2617,701.8159 Q1094.2617,698.6865 1095.5815,697.0347 Q1096.9014,695.3828 1099.4082,695.3828 Q1100.1138,695.3828 1100.7612,695.5322 Q1101.4087,695.6816 1101.9731,695.9805 L1101.9731,698.7031 Q1101.3423,698.1221 1100.7488,697.8523 Q1100.1553,697.5825 1099.5244,697.5825 Q1098.1797,697.5825 1097.4949,698.6492 Q1096.8101,699.7158 1096.8101,701.8159 Q1096.8101,703.9077 1097.4949,704.9744 Q1098.1797,706.041 1099.5244,706.041 Q1100.1553,706.041 1100.7488,705.7712 Q1101.3423,705.5015 1101.9731,704.9204 Z " fill="#000000"/><text fill="#000000" font-family="sans-serif" font-size="14" lengthAdjust="spacing" textLength="152" x="1113.5" y="706.791">ReferanseDokumentfil</text><line style="stroke:#181818;stroke-width:0.5;" x1="1085.5" x2="1267.5" y1="717.5" y2="717.5"/><ellipse cx="1095.5" cy="731.2441" fill="none" rx="3" ry="3" style="stroke:#038048;stroke-width:1.0;"/><text fill="#000000" font-family="sans-serif" font-size="14" lengthAdjust="spacing" textLength="61" x="1104.5" y="735.0352">id: string</text><ellipse cx="1095.5" cy="747.7324" fill="none" rx="3" ry="3" style="stroke:#038048;stroke-width:1.0;"/><text fill="#000000" font-family="sans-serif" font-size="14" lengthAdjust="spacing" textLength="67" x="1104.5" y="751.5234">url: string</text><line style="stroke:#181818;stroke-width:0.5;" x1="1085.5" x2="1267.5" y1="758.4766" y2="758.4766"/></g><!--class Fase--><g id="elem_Fase"><rect codeLine="2" fill="#F1F1F1" height="163.418" id="Fase" rx="2.5" ry="2.5" style="stroke:#181818;stroke-width:0.5;" width="199" x="1334" y="131.49"/><ellipse cx="1413.75" cy="147.49" fill="#ADD1B2" rx="11" ry="11" style="stroke:#181818;stroke-width:1.0;"/><path d="M1416.2231,153.6331 Q1415.6421,153.9319 1415.0029,154.0813 Q1414.3638,154.2307 1413.6582,154.2307 Q1411.1514,154.2307 1409.8315,152.5789 Q1408.5117,150.927 1408.5117,147.8059 Q1408.5117,144.6765 1409.8315,143.0247 Q1411.1514,141.3728 1413.6582,141.3728 Q1414.3638,141.3728 1415.0112,141.5222 Q1415.6587,141.6716 1416.2231,141.9705 L1416.2231,144.6931 Q1415.5923,144.1121 1414.9988,143.8423 Q1414.4053,143.5725 1413.7744,143.5725 Q1412.4297,143.5725 1411.7449,144.6392 Q1411.0601,145.7058 1411.0601,147.8059 Q1411.0601,149.8977 1411.7449,150.9644 Q1412.4297,152.031 1413.7744,152.031 Q1414.4053,152.031 1414.9988,151.7612 Q1415.5923,151.4915 1416.2231,150.9104 Z " fill="#000000"/><text fill="#000000" font-family="sans-serif" font-size="14" lengthAdjust="spacing" textLength="31" x="1434.25" y="152.781">Fase</text><line style="stroke:#181818;stroke-width:0.5;" x1="1335" x2="1532" y1="163.49" y2="163.49"/><ellipse cx="1345" cy="177.2341" fill="none" rx="3" ry="3" style="stroke:#038048;stroke-width:1.0;"/><text fill="#000000" font-family="sans-serif" font-size="14" lengthAdjust="spacing" textLength="109" x="1354" y="181.0252">fasenavn: string</text><ellipse cx="1345" cy="193.7224" fill="none" rx="3" ry="3" style="stroke:#038048;stroke-width:1.0;"/><text fill="#000000" font-family="sans-serif" font-size="14" lengthAdjust="spacing" textLength="89" x="1354" y="197.5134">faseid: string</text><ellipse cx="1345" cy="210.2107" fill="none" rx="3" ry="3" style="stroke:#038048;stroke-width:1.0;"/><text fill="#000000" font-family="sans-serif" font-size="14" lengthAdjust="spacing" textLength="153" x="1354" y="214.0017">kategori: Fasekategori</text><ellipse cx="1345" cy="226.699" fill="none" rx="3" ry="3" style="stroke:#038048;stroke-width:1.0;"/><text fill="#000000" font-family="sans-serif" font-size="14" lengthAdjust="spacing" textLength="131" x="1354" y="230.49">milepeler: Milepel[]</text><ellipse cx="1345" cy="243.1873" fill="none" rx="3" ry="3" style="stroke:#038048;stroke-width:1.0;"/><text fill="#000000" font-family="sans-serif" font-size="14" lengthAdjust="spacing" textLength="161" x="1354" y="246.9783">status: FaseStatusEnum</text><ellipse cx="1345" cy="259.6755" fill="none" rx="3" ry="3" style="stroke:#038048;stroke-width:1.0;"/><text fill="#000000" font-family="sans-serif" font-size="14" lengthAdjust="spacing" textLength="100" x="1354" y="263.4666">vedtak: Vedtak</text><ellipse cx="1345" cy="276.1638" fill="none" rx="3" ry="3" style="stroke:#038048;stroke-width:1.0;"/><text fill="#000000" font-family="sans-serif" font-size="14" lengthAdjust="spacing" textLength="173" x="1354" y="279.9548">dokumenter: Dokument[]</text><line style="stroke:#181818;stroke-width:0.5;" x1="1335" x2="1532" y1="286.908" y2="286.908"/></g><g id="elem_GMN11"><path d="M961.5,18.93 L961.5,59.5511 A0,0 0 0 0 961.5,59.5511 L1253.33,59.5511 L1339.72,131.16 L1261.33,59.5511 L1507.5,59.5511 A0,0 0 0 0 1507.5,59.5511 L1507.5,28.93 L1497.5,18.93 L961.5,18.93 A0,0 0 0 0 961.5,18.93 " fill="#FEFFDD" style="stroke:#181818;stroke-width:0.5;"/><path d="M1497.5,18.93 L1497.5,28.93 L1507.5,28.93 L1497.5,18.93 " fill="#FEFFDD" style="stroke:#181818;stroke-width:0.5;"/><text fill="#000000" font-family="sans-serif" font-size="13" lengthAdjust="spacing" textLength="369" x="967.5" y="36.4984">En fase er i hovedsak det som hender mellom to milepeler.</text><text fill="#000000" font-family="sans-serif" font-size="13" lengthAdjust="spacing" textLength="525" x="967.5" y="51.8089">Interne faser sendes ikke ut ved denne protokollen. Vi kutter derfor ut Global flagg.</text></g><path d="M1568,187.88 L1568,204.1905 L1443,192.2224 L1568,212.1905 L1568,228.5011 A0,0 0 0 0 1568,228.5011 L2089,228.5011 A0,0 0 0 0 2089,228.5011 L2089,197.88 L2079,187.88 L1568,187.88 A0,0 0 0 0 1568,187.88 " fill="#FEFFDD" style="stroke:#181818;stroke-width:0.5;"/><path d="M2079,187.88 L2079,197.88 L2089,197.88 L2079,187.88 " fill="#FEFFDD" style="stroke:#181818;stroke-width:0.5;"/><text fill="#000000" font-family="sans-serif" font-size="13" lengthAdjust="spacing" textLength="500" x="1574" y="205.4484">Faseid brukes alene (ikke sammen med saksnummer) for &#229; hente en enkelt fase</text><text fill="#000000" font-family="sans-serif" font-size="13" lengthAdjust="spacing" textLength="165" x="1574" y="220.7589">Den m&#229; dermed v&#230;re unik</text><!--class Vedtak--><g id="elem_Vedtak"><rect codeLine="31" fill="#F1F1F1" height="89.5977" id="Vedtak" rx="2.5" ry="2.5" style="stroke:#181818;stroke-width:0.5;" width="184" x="1943.5" y="433.04"/><ellipse cx="2007.75" cy="453.3505" fill="#ADD1B2" rx="11" ry="11" style="stroke:#181818;stroke-width:1.0;"/><path d="M2010.2231,459.4936 Q2009.6421,459.7924 2009.0029,459.9419 Q2008.3638,460.0913 2007.6582,460.0913 Q2005.1514,460.0913 2003.8315,458.4394 Q2002.5117,456.7876 2002.5117,453.6665 Q2002.5117,450.5371 2003.8315,448.8852 Q2005.1514,447.2334 2007.6582,447.2334 Q2008.3638,447.2334 2009.0112,447.3828 Q2009.6587,447.5322 2010.2231,447.831 L2010.2231,450.5537 Q2009.5923,449.9726 2008.9988,449.7028 Q2008.4053,449.4331 2007.7744,449.4331 Q2006.4297,449.4331 2005.7449,450.4997 Q2005.0601,451.5664 2005.0601,453.6665 Q2005.0601,455.7583 2005.7449,456.8249 Q2006.4297,457.8916 2007.7744,457.8916 Q2008.4053,457.8916 2008.9988,457.6218 Q2009.5923,457.352 2010.2231,456.771 Z " fill="#000000"/><text fill="#000000" font-family="sans-serif" font-size="12" font-style="italic" lengthAdjust="spacing" textLength="42" x="2030.75" y="449.6416">&#171;Kode&#187;</text><text fill="#000000" font-family="sans-serif" font-size="14" lengthAdjust="spacing" textLength="47" x="2028.25" y="465.708">Vedtak</text><line style="stroke:#181818;stroke-width:0.5;" x1="1944.5" x2="2126.5" y1="473.6611" y2="473.6611"/><ellipse cx="1954.5" cy="487.4052" fill="none" rx="3" ry="3" style="stroke:#038048;stroke-width:1.0;"/><text fill="#000000" font-family="sans-serif" font-size="14" lengthAdjust="spacing" textLength="116" x="1963.5" y="491.1962">kodeverdi: string</text><ellipse cx="1954.5" cy="503.8935" fill="none" rx="3" ry="3" style="stroke:#038048;stroke-width:1.0;"/><text fill="#000000" font-family="sans-serif" font-size="14" lengthAdjust="spacing" textLength="158" x="1963.5" y="507.6845">kodebeskrivelse: string</text><line style="stroke:#181818;stroke-width:0.5;" x1="1944.5" x2="2126.5" y1="514.6377" y2="514.6377"/></g><!--class FaseStatusEnum--><g id="elem_FaseStatusEnum"><rect codeLine="23" fill="#F1F1F1" height="97.4648" id="FaseStatusEnum" rx="2.5" ry="2.5" style="stroke:#181818;stroke-width:0.5;" width="144" x="1379.5" y="429.1"/><ellipse cx="1394.5" cy="445.1" fill="#EB937F" rx="11" ry="11" style="stroke:#181818;stroke-width:1.0;"/><path d="M1398.1143,451.6 L1390.3945,451.6 L1390.3945,439.2069 L1398.1143,439.2069 L1398.1143,441.3651 L1392.8433,441.3651 L1392.8433,444.038 L1397.6162,444.038 L1397.6162,446.1962 L1392.8433,446.1962 L1392.8433,449.4418 L1398.1143,449.4418 Z " fill="#000000"/><text fill="#000000" font-family="sans-serif" font-size="14" lengthAdjust="spacing" textLength="112" x="1408.5" y="450.391">FaseStatusEnum</text><line style="stroke:#181818;stroke-width:0.5;" x1="1380.5" x2="1522.5" y1="461.1" y2="461.1"/><ellipse cx="1390.5" cy="474.8441" fill="none" rx="3" ry="3" style="stroke:#038048;stroke-width:1.0;"/><text fill="#000000" font-family="sans-serif" font-size="14" lengthAdjust="spacing" textLength="55" x="1399.5" y="478.6352">Planlagt</text><ellipse cx="1390.5" cy="491.3324" fill="none" rx="3" ry="3" style="stroke:#038048;stroke-width:1.0;"/><text fill="#000000" font-family="sans-serif" font-size="14" lengthAdjust="spacing" textLength="88" x="1399.5" y="495.1234">UnderArbeid</text><ellipse cx="1390.5" cy="507.8207" fill="none" rx="3" ry="3" style="stroke:#038048;stroke-width:1.0;"/><text fill="#000000" font-family="sans-serif" font-size="14" lengthAdjust="spacing" textLength="48" x="1399.5" y="511.6117">Utfoert</text><line style="stroke:#181818;stroke-width:0.5;" x1="1380.5" x2="1522.5" y1="518.5648" y2="518.5648"/></g><!--class Fasekategori--><g id="elem_Fasekategori"><rect codeLine="36" fill="#F1F1F1" height="89.5977" id="Fasekategori" rx="2.5" ry="2.5" style="stroke:#181818;stroke-width:0.5;" width="184" x="1576.5" y="433.04"/><ellipse cx="1620.3" cy="453.3505" fill="#ADD1B2" rx="11" ry="11" style="stroke:#181818;stroke-width:1.0;"/><path d="M1622.7731,459.4936 Q1622.1921,459.7924 1621.5529,459.9419 Q1620.9138,460.0913 1620.2082,460.0913 Q1617.7014,460.0913 1616.3815,458.4394 Q1615.0617,456.7876 1615.0617,453.6665 Q1615.0617,450.5371 1616.3815,448.8852 Q1617.7014,447.2334 1620.2082,447.2334 Q1620.9138,447.2334 1621.5612,447.3828 Q1622.2087,447.5322 1622.7731,447.831 L1622.7731,450.5537 Q1622.1423,449.9726 1621.5488,449.7028 Q1620.9553,449.4331 1620.3244,449.4331 Q1618.9797,449.4331 1618.2949,450.4997 Q1617.6101,451.5664 1617.6101,453.6665 Q1617.6101,455.7583 1618.2949,456.8249 Q1618.9797,457.8916 1620.3244,457.8916 Q1620.9553,457.8916 1621.5488,457.6218 Q1622.1423,457.352 1622.7731,456.771 Z " fill="#000000"/><text fill="#000000" font-family="sans-serif" font-size="12" font-style="italic" lengthAdjust="spacing" textLength="42" x="1663.7" y="449.6416">&#171;Kode&#187;</text><text fill="#000000" font-family="sans-serif" font-size="14" lengthAdjust="spacing" textLength="88" x="1640.7" y="465.708">Fasekategori</text><line style="stroke:#181818;stroke-width:0.5;" x1="1577.5" x2="1759.5" y1="473.6611" y2="473.6611"/><ellipse cx="1587.5" cy="487.4052" fill="none" rx="3" ry="3" style="stroke:#038048;stroke-width:1.0;"/><text fill="#000000" font-family="sans-serif" font-size="14" lengthAdjust="spacing" textLength="116" x="1596.5" y="491.1962">kodeverdi: string</text><ellipse cx="1587.5" cy="503.8935" fill="none" rx="3" ry="3" style="stroke:#038048;stroke-width:1.0;"/><text fill="#000000" font-family="sans-serif" font-size="14" lengthAdjust="spacing" textLength="158" x="1596.5" y="507.6845">kodebeskrivelse: string</text><line style="stroke:#181818;stroke-width:0.5;" x1="1577.5" x2="1759.5" y1="514.6377" y2="514.6377"/></g><g id="elem_GMN22"><path d="M2124.5,169.92 L2124.5,256.4727 A0,0 0 0 0 2124.5,256.4727 L2155.56,256.4727 L2060.4,432.65 L2163.56,256.4727 L2242.5,256.4727 A0,0 0 0 0 2242.5,256.4727 L2242.5,179.92 L2232.5,169.92 L2124.5,169.92 A0,0 0 0 0 2124.5,169.92 " fill="#FEFFDD" style="stroke:#181818;stroke-width:0.5;"/><path d="M2232.5,169.92 L2232.5,179.92 L2242.5,179.92 L2232.5,169.92 " fill="#FEFFDD" style="stroke:#181818;stroke-width:0.5;"/><text fill="#000000" font-family="sans-serif" font-size="13" lengthAdjust="spacing" textLength="69" x="2130.5" y="187.4884">Eksempler:</text><text fill="#000000" font-family="sans-serif" font-size="13" lengthAdjust="spacing" textLength="56" x="2130.5" y="202.7989">godkjent</text><text fill="#000000" font-family="sans-serif" font-size="13" lengthAdjust="spacing" textLength="97" x="2130.5" y="218.1095">delvis godkjent</text><text fill="#000000" font-family="sans-serif" font-size="13" lengthAdjust="spacing" textLength="42" x="2130.5" y="233.42">avsl&#229;tt</text><text fill="#000000" font-family="sans-serif" font-size="13" lengthAdjust="spacing" textLength="37" x="2130.5" y="248.7305">avvist</text></g><g id="elem_GMN25"><path d="M1522.5,675.05 L1522.5,776.9133 A0,0 0 0 0 1522.5,776.9133 L1848.5,776.9133 A0,0 0 0 0 1848.5,776.9133 L1848.5,685.05 L1838.5,675.05 L1686.03,675.05 L1671.56,523.13 L1678.03,675.05 L1522.5,675.05 A0,0 0 0 0 1522.5,675.05 " fill="#FEFFDD" style="stroke:#181818;stroke-width:0.5;"/><path d="M1838.5,675.05 L1838.5,685.05 L1848.5,685.05 L1838.5,675.05 " fill="#FEFFDD" style="stroke:#181818;stroke-width:0.5;"/><text fill="#000000" font-family="sans-serif" font-size="13" lengthAdjust="spacing" textLength="305" x="1528.5" y="692.6184">Se gjerne Byggesaksbehandling::Prosesskategori</text><text fill="#000000" font-family="sans-serif" font-size="13" lengthAdjust="spacing" textLength="45" x="1532.5" y="707.9289">fra NPS</text><text fill="#000000" font-family="sans-serif" font-size="13" lengthAdjust="spacing" textLength="210" x="1528.5" y="723.2395">Vi m&#229; f&#229; avklart denne kodelisten</text><text fill="#000000" font-family="sans-serif" font-size="13" lengthAdjust="spacing" textLength="69" x="1528.5" y="738.55">Eksempler:</text><text fill="#000000" font-family="sans-serif" font-size="13" lengthAdjust="spacing" textLength="34" x="1528.5" y="753.8605">Klage</text><text fill="#000000" font-family="sans-serif" font-size="13" lengthAdjust="spacing" textLength="43" x="1528.5" y="769.1711">H&#248;ring</text></g><!--class Milepel--><g id="elem_Milepel"><rect codeLine="2" fill="#F1F1F1" height="245.8594" id="Milepel" rx="2.5" ry="2.5" style="stroke:#181818;stroke-width:0.5;" width="325" x="610" y="354.9"/><ellipse cx="743.75" cy="370.9" fill="#ADD1B2" rx="11" ry="11" style="stroke:#181818;stroke-width:1.0;"/><path d="M746.2231,377.0431 Q745.6421,377.3419 745.0029,377.4913 Q744.3638,377.6407 743.6582,377.6407 Q741.1514,377.6407 739.8315,375.9889 Q738.5117,374.337 738.5117,371.2159 Q738.5117,368.0865 739.8315,366.4347 Q741.1514,364.7828 743.6582,364.7828 Q744.3638,364.7828 745.0112,364.9322 Q745.6587,365.0816 746.2231,365.3805 L746.2231,368.1031 Q745.5923,367.5221 744.9988,367.2523 Q744.4053,366.9825 743.7744,366.9825 Q742.4297,366.9825 741.7449,368.0492 Q741.0601,369.1158 741.0601,371.2159 Q741.0601,373.3077 741.7449,374.3744 Q742.4297,375.441 743.7744,375.441 Q744.4053,375.441 744.9988,375.1712 Q745.5923,374.9015 746.2231,374.3204 Z " fill="#000000"/><text fill="#000000" font-family="sans-serif" font-size="14" lengthAdjust="spacing" textLength="49" x="764.25" y="376.191">Milepel</text><line style="stroke:#181818;stroke-width:0.5;" x1="611" x2="934" y1="386.9" y2="386.9"/><ellipse cx="621" cy="400.6441" fill="none" rx="3" ry="3" style="stroke:#038048;stroke-width:1.0;"/><text fill="#000000" font-family="sans-serif" font-size="14" lengthAdjust="spacing" textLength="108" x="630" y="404.4352">systemId: string</text><ellipse cx="621" cy="417.1324" fill="none" rx="3" ry="3" style="stroke:#038048;stroke-width:1.0;"/><text fill="#000000" font-family="sans-serif" font-size="14" lengthAdjust="spacing" textLength="124" x="630" y="420.9234">beskrivelse: string</text><ellipse cx="621" cy="433.6207" fill="none" rx="3" ry="3" style="stroke:#038048;stroke-width:1.0;"/><text fill="#000000" font-family="sans-serif" font-size="14" lengthAdjust="spacing" textLength="143" x="630" y="437.4117">kategori: Milepeltype</text><ellipse cx="621" cy="450.109" fill="none" rx="3" ry="3" style="stroke:#038048;stroke-width:1.0;"/><text fill="#000000" font-family="sans-serif" font-size="14" lengthAdjust="spacing" textLength="65" x="630" y="453.9">frist: date</text><ellipse cx="621" cy="466.5973" fill="none" rx="3" ry="3" style="stroke:#038048;stroke-width:1.0;"/><text fill="#000000" font-family="sans-serif" font-size="14" lengthAdjust="spacing" textLength="85" x="630" y="470.3883">utfoert: date</text><ellipse cx="621" cy="483.0855" fill="none" rx="3" ry="3" style="stroke:#038048;stroke-width:1.0;"/><text fill="#000000" font-family="sans-serif" font-size="14" lengthAdjust="spacing" textLength="111" x="630" y="486.8766">planlagtTil: date</text><ellipse cx="621" cy="499.5738" fill="none" rx="3" ry="3" style="stroke:#038048;stroke-width:1.0;"/><text fill="#000000" font-family="sans-serif" font-size="14" lengthAdjust="spacing" textLength="105" x="630" y="503.3648">intern: boolean</text><ellipse cx="621" cy="516.0621" fill="none" rx="3" ry="3" style="stroke:#038048;stroke-width:1.0;"/><text fill="#000000" font-family="sans-serif" font-size="14" lengthAdjust="spacing" textLength="299" x="630" y="519.8531">referanseJournalpost: ReferanseJournalpost</text><ellipse cx="621" cy="532.5504" fill="none" rx="3" ry="3" style="stroke:#038048;stroke-width:1.0;"/><text fill="#000000" font-family="sans-serif" font-size="14" lengthAdjust="spacing" textLength="296" x="630" y="536.3414">referanseDokument: ReferanseDokumentfil</text><ellipse cx="621" cy="549.0387" fill="none" rx="3" ry="3" style="stroke:#038048;stroke-width:1.0;"/><text fill="#000000" font-family="sans-serif" font-size="14" lengthAdjust="spacing" textLength="110" x="630" y="552.8297">erStart: boolean</text><ellipse cx="621" cy="565.527" fill="none" rx="3" ry="3" style="stroke:#038048;stroke-width:1.0;"/><text fill="#000000" font-family="sans-serif" font-size="14" lengthAdjust="spacing" textLength="109" x="630" y="569.318">erSlutt: boolean</text><ellipse cx="621" cy="582.0152" fill="none" rx="3" ry="3" style="stroke:#038048;stroke-width:1.0;"/><text fill="#000000" font-family="sans-serif" font-size="14" lengthAdjust="spacing" textLength="179" x="630" y="585.8063">status: MilepelStatusEnum</text><line style="stroke:#181818;stroke-width:0.5;" x1="611" x2="934" y1="592.7594" y2="592.7594"/></g><!--class Milepeltype--><g id="elem_Milepeltype"><rect codeLine="24" fill="#F1F1F1" height="80.9766" id="Milepeltype" rx="2.5" ry="2.5" style="stroke:#181818;stroke-width:0.5;" width="184" x="28.5" y="685.5"/><ellipse cx="77.25" cy="701.5" fill="#ADD1B2" rx="11" ry="11" style="stroke:#181818;stroke-width:1.0;"/><path d="M79.7231,707.6431 Q79.1421,707.9419 78.5029,708.0913 Q77.8638,708.2407 77.1582,708.2407 Q74.6514,708.2407 73.3315,706.5889 Q72.0117,704.937 72.0117,701.8159 Q72.0117,698.6865 73.3315,697.0347 Q74.6514,695.3828 77.1582,695.3828 Q77.8638,695.3828 78.5112,695.5322 Q79.1587,695.6816 79.7231,695.9805 L79.7231,698.7031 Q79.0923,698.1221 78.4988,697.8523 Q77.9053,697.5825 77.2744,697.5825 Q75.9297,697.5825 75.2449,698.6492 Q74.5601,699.7158 74.5601,701.8159 Q74.5601,703.9077 75.2449,704.9744 Q75.9297,706.041 77.2744,706.041 Q77.9053,706.041 78.4988,705.7712 Q79.0923,705.5015 79.7231,704.9204 Z " fill="#000000"/><text fill="#000000" font-family="sans-serif" font-size="14" lengthAdjust="spacing" textLength="78" x="97.75" y="706.791">Milepeltype</text><line style="stroke:#181818;stroke-width:0.5;" x1="29.5" x2="211.5" y1="717.5" y2="717.5"/><ellipse cx="39.5" cy="731.2441" fill="none" rx="3" ry="3" style="stroke:#038048;stroke-width:1.0;"/><text fill="#000000" font-family="sans-serif" font-size="14" lengthAdjust="spacing" textLength="116" x="48.5" y="735.0352">kodeverdi: string</text><ellipse cx="39.5" cy="747.7324" fill="none" rx="3" ry="3" style="stroke:#038048;stroke-width:1.0;"/><text fill="#000000" font-family="sans-serif" font-size="14" lengthAdjust="spacing" textLength="158" x="48.5" y="751.5234">kodebeskrivelse: string</text><line style="stroke:#181818;stroke-width:0.5;" x1="29.5" x2="211.5" y1="758.4766" y2="758.4766"/></g><g id="elem_GMN31"><path d="M6,442.21 L6,513.4522 A0,0 0 0 0 6,513.4522 L116.5,513.4522 L120.5,685.21 L124.5,513.4522 L235,513.4522 A0,0 0 0 0 235,513.4522 L235,452.21 L225,442.21 L6,442.21 A0,0 0 0 0 6,442.21 " fill="#FEFFDD" style="stroke:#181818;stroke-width:0.5;"/><path d="M225,442.21 L225,452.21 L235,452.21 L225,442.21 " fill="#FEFFDD" style="stroke:#181818;stroke-width:0.5;"/><text fill="#000000" font-family="sans-serif" font-size="13" lengthAdjust="spacing" textLength="69" x="12" y="459.7784">Eksempler:</text><text fill="#000000" font-family="sans-serif" font-size="13" lengthAdjust="spacing" textLength="201" x="12" y="475.0889">Bestilling av oppstartsm&#248;te (BO)</text><text fill="#000000" font-family="sans-serif" font-size="13" lengthAdjust="spacing" textLength="208" x="12" y="490.3995">Gjennomf&#248;rt oppstartsm&#248;te (OM)</text><text fill="#000000" font-family="sans-serif" font-size="13" lengthAdjust="spacing" textLength="137" x="12" y="505.71">Mottak av planforslag</text></g><g id="elem_GMN34"><path d="M850,713.33 L850,738.6405 A0,0 0 0 0 850,738.6405 L1049,738.6405 A0,0 0 0 0 1049,738.6405 L1049,723.33 L1039,713.33 L944.9,713.33 L860.48,601.19 L936.9,713.33 L850,713.33 A0,0 0 0 0 850,713.33 " fill="#FEFFDD" style="stroke:#181818;stroke-width:0.5;"/><path d="M1039,713.33 L1039,723.33 L1049,723.33 L1039,713.33 " fill="#FEFFDD" style="stroke:#181818;stroke-width:0.5;"/><text fill="#000000" font-family="sans-serif" font-size="13" lengthAdjust="spacing" textLength="178" x="856" y="730.8984">frist og utfoert ikke p&#229;krevd</text></g><!--class ReferanseJournalpost--><g id="elem_ReferanseJournalpost"><rect codeLine="31" fill="#F1F1F1" height="130.4414" id="ReferanseJournalpost" rx="2.5" ry="2.5" style="stroke:#181818;stroke-width:0.5;" width="369" x="248" y="660.76"/><ellipse cx="354.75" cy="676.76" fill="#ADD1B2" rx="11" ry="11" style="stroke:#181818;stroke-width:1.0;"/><path d="M357.2231,682.9031 Q356.6421,683.2019 356.0029,683.3513 Q355.3638,683.5007 354.6582,683.5007 Q352.1514,683.5007 350.8315,681.8489 Q349.5117,680.197 349.5117,677.0759 Q349.5117,673.9465 350.8315,672.2947 Q352.1514,670.6428 354.6582,670.6428 Q355.3638,670.6428 356.0112,670.7922 Q356.6587,670.9416 357.2231,671.2405 L357.2231,673.9631 Q356.5923,673.3821 355.9988,673.1123 Q355.4053,672.8425 354.7744,672.8425 Q353.4297,672.8425 352.7449,673.9092 Q352.0601,674.9758 352.0601,677.0759 Q352.0601,679.1677 352.7449,680.2344 Q353.4297,681.301 354.7744,681.301 Q355.4053,681.301 355.9988,681.0312 Q356.5923,680.7615 357.2231,680.1804 Z " fill="#000000"/><text fill="#000000" font-family="sans-serif" font-size="14" lengthAdjust="spacing" textLength="147" x="375.25" y="682.051">ReferanseJournalpost</text><line style="stroke:#181818;stroke-width:0.5;" x1="249" x2="616" y1="692.76" y2="692.76"/><ellipse cx="259" cy="706.5041" fill="none" rx="3" ry="3" style="stroke:#038048;stroke-width:1.0;"/><text fill="#000000" font-family="sans-serif" font-size="14" lengthAdjust="spacing" textLength="108" x="268" y="710.2952">systemId: string</text><ellipse cx="259" cy="722.9924" fill="none" rx="3" ry="3" style="stroke:#038048;stroke-width:1.0;"/><text fill="#000000" font-family="sans-serif" font-size="14" lengthAdjust="spacing" textLength="150" x="268" y="726.7834">registreringsID: string</text><ellipse cx="259" cy="739.4807" fill="none" rx="3" ry="3" style="stroke:#038048;stroke-width:1.0;"/><text fill="#000000" font-family="sans-serif" font-size="14" lengthAdjust="spacing" textLength="222" x="268" y="743.2717">journalnummer: Journalnummer</text><ellipse cx="259" cy="755.969" fill="none" rx="3" ry="3" style="stroke:#038048;stroke-width:1.0;"/><text fill="#000000" font-family="sans-serif" font-size="14" lengthAdjust="spacing" textLength="343" x="268" y="759.76">saksJournalpostnummer: SaksJournalpostnummer</text><ellipse cx="259" cy="772.4573" fill="none" rx="3" ry="3" style="stroke:#038048;stroke-width:1.0;"/><text fill="#000000" font-family="sans-serif" font-size="14" lengthAdjust="spacing" textLength="285" x="268" y="776.2483">referanseEksternNoekkel: EksternNoekkel</text><line style="stroke:#181818;stroke-width:0.5;" x1="249" x2="616" y1="783.2014" y2="783.2014"/></g><!--class MilepelStatusEnum--><g id="elem_MilepelStatusEnum"><rect codeLine="60" fill="#F1F1F1" height="80.9766" id="MilepelStatusEnum" rx="2.5" ry="2.5" style="stroke:#181818;stroke-width:0.5;" width="162" x="652.5" y="685.5"/><ellipse cx="667.5" cy="701.5" fill="#EB937F" rx="11" ry="11" style="stroke:#181818;stroke-width:1.0;"/><path d="M671.1143,708 L663.3945,708 L663.3945,695.6069 L671.1143,695.6069 L671.1143,697.7651 L665.8433,697.7651 L665.8433,700.438 L670.6162,700.438 L670.6162,702.5962 L665.8433,702.5962 L665.8433,705.8418 L671.1143,705.8418 Z " fill="#000000"/><text fill="#000000" font-family="sans-serif" font-size="14" lengthAdjust="spacing" textLength="130" x="681.5" y="706.791">MilepelStatusEnum</text><line style="stroke:#181818;stroke-width:0.5;" x1="653.5" x2="813.5" y1="717.5" y2="717.5"/><ellipse cx="663.5" cy="731.2441" fill="none" rx="3" ry="3" style="stroke:#038048;stroke-width:1.0;"/><text fill="#000000" font-family="sans-serif" font-size="14" lengthAdjust="spacing" textLength="36" x="672.5" y="735.0352">N&#229;dd</text><ellipse cx="663.5" cy="747.7324" fill="none" rx="3" ry="3" style="stroke:#038048;stroke-width:1.0;"/><text fill="#000000" font-family="sans-serif" font-size="14" lengthAdjust="spacing" textLength="55" x="672.5" y="751.5234">Planlagt</text><line style="stroke:#181818;stroke-width:0.5;" x1="653.5" x2="813.5" y1="758.4766" y2="758.4766"/></g><!--class EksternNoekkel--><g id="elem_EksternNoekkel"><rect codeLine="55" fill="#F1F1F1" height="80.9766" id="EksternNoekkel" rx="2.5" ry="2.5" style="stroke:#181818;stroke-width:0.5;" width="143" x="140" y="859.45"/><ellipse cx="157.25" cy="875.45" fill="#ADD1B2" rx="11" ry="11" style="stroke:#181818;stroke-width:1.0;"/><path d="M159.7231,881.5931 Q159.1421,881.8919 158.5029,882.0413 Q157.8638,882.1907 157.1582,882.1907 Q154.6514,882.1907 153.3315,880.5389 Q152.0117,878.887 152.0117,875.7659 Q152.0117,872.6365 153.3315,870.9847 Q154.6514,869.3328 157.1582,869.3328 Q157.8638,869.3328 158.5112,869.4822 Q159.1587,869.6316 159.7231,869.9305 L159.7231,872.6531 Q159.0923,872.0721 158.4988,871.8023 Q157.9053,871.5325 157.2744,871.5325 Q155.9297,871.5325 155.2449,872.5992 Q154.5601,873.6658 154.5601,875.7659 Q154.5601,877.8577 155.2449,878.9244 Q155.9297,879.991 157.2744,879.991 Q157.9053,879.991 158.4988,879.7212 Q159.0923,879.4515 159.7231,878.8704 Z " fill="#000000"/><text fill="#000000" font-family="sans-serif" font-size="14" lengthAdjust="spacing" textLength="106" x="171.75" y="880.741">EksternNoekkel</text><line style="stroke:#181818;stroke-width:0.5;" x1="141" x2="282" y1="891.45" y2="891.45"/><ellipse cx="151" cy="905.1941" fill="none" rx="3" ry="3" style="stroke:#038048;stroke-width:1.0;"/><text fill="#000000" font-family="sans-serif" font-size="14" lengthAdjust="spacing" textLength="117" x="160" y="908.9852">fagsystem: string</text><ellipse cx="151" cy="921.6824" fill="none" rx="3" ry="3" style="stroke:#038048;stroke-width:1.0;"/><text fill="#000000" font-family="sans-serif" font-size="14" lengthAdjust="spacing" textLength="102" x="160" y="925.4734">noekkel: string</text><line style="stroke:#181818;stroke-width:0.5;" x1="141" x2="282" y1="932.4266" y2="932.4266"/></g><!--class SaksJournalpostnummer--><g id="elem_SaksJournalpostnummer"><rect codeLine="44" fill="#F1F1F1" height="97.4648" id="SaksJournalpostnummer" rx="2.5" ry="2.5" style="stroke:#181818;stroke-width:0.5;" width="230" x="317.5" y="851.21"/><ellipse cx="346" cy="867.21" fill="#ADD1B2" rx="11" ry="11" style="stroke:#181818;stroke-width:1.0;"/><path d="M348.4731,873.3531 Q347.8921,873.6519 347.2529,873.8013 Q346.6138,873.9507 345.9082,873.9507 Q343.4014,873.9507 342.0815,872.2989 Q340.7617,870.647 340.7617,867.5259 Q340.7617,864.3965 342.0815,862.7447 Q343.4014,861.0928 345.9082,861.0928 Q346.6138,861.0928 347.2612,861.2422 Q347.9087,861.3916 348.4731,861.6905 L348.4731,864.4131 Q347.8423,863.8321 347.2488,863.5623 Q346.6553,863.2925 346.0244,863.2925 Q344.6797,863.2925 343.9949,864.3592 Q343.3101,865.4258 343.3101,867.5259 Q343.3101,869.6177 343.9949,870.6844 Q344.6797,871.751 346.0244,871.751 Q346.6553,871.751 347.2488,871.4812 Q347.8423,871.2115 348.4731,870.6304 Z " fill="#000000"/><text fill="#000000" font-family="sans-serif" font-size="14" lengthAdjust="spacing" textLength="168" x="363" y="872.501">SaksJournalpostnummer</text><line style="stroke:#181818;stroke-width:0.5;" x1="318.5" x2="546.5" y1="883.21" y2="883.21"/><ellipse cx="328.5" cy="896.9541" fill="none" rx="3" ry="3" style="stroke:#038048;stroke-width:1.0;"/><text fill="#000000" font-family="sans-serif" font-size="14" lengthAdjust="spacing" textLength="114" x="337.5" y="900.7452">saksaar: number</text><ellipse cx="328.5" cy="913.4424" fill="none" rx="3" ry="3" style="stroke:#038048;stroke-width:1.0;"/><text fill="#000000" font-family="sans-serif" font-size="14" lengthAdjust="spacing" textLength="204" x="337.5" y="917.2334">sakssekvensnummer: number</text><ellipse cx="328.5" cy="929.9307" fill="none" rx="3" ry="3" style="stroke:#038048;stroke-width:1.0;"/><text fill="#000000" font-family="sans-serif" font-size="14" lengthAdjust="spacing" textLength="199" x="337.5" y="933.7217">journalpostnummer: number</text><line style="stroke:#181818;stroke-width:0.5;" x1="318.5" x2="546.5" y1="940.6748" y2="940.6748"/></g><!--class Journalnummer--><g id="elem_Journalnummer"><rect codeLine="50" fill="#F1F1F1" height="80.9766" id="Journalnummer" rx="2.5" ry="2.5" style="stroke:#181818;stroke-width:0.5;" width="249" x="582" y="859.45"/><ellipse cx="648.75" cy="875.45" fill="#ADD1B2" rx="11" ry="11" style="stroke:#181818;stroke-width:1.0;"/><path d="M651.2231,881.5931 Q650.6421,881.8919 650.0029,882.0413 Q649.3638,882.1907 648.6582,882.1907 Q646.1514,882.1907 644.8315,880.5389 Q643.5117,878.887 643.5117,875.7659 Q643.5117,872.6365 644.8315,870.9847 Q646.1514,869.3328 648.6582,869.3328 Q649.3638,869.3328 650.0112,869.4822 Q650.6587,869.6316 651.2231,869.9305 L651.2231,872.6531 Q650.5923,872.0721 649.9988,871.8023 Q649.4053,871.5325 648.7744,871.5325 Q647.4297,871.5325 646.7449,872.5992 Q646.0601,873.6658 646.0601,875.7659 Q646.0601,877.8577 646.7449,878.9244 Q647.4297,879.991 648.7744,879.991 Q649.4053,879.991 649.9988,879.7212 Q650.5923,879.4515 651.2231,878.8704 Z " fill="#000000"/><text fill="#000000" font-family="sans-serif" font-size="14" lengthAdjust="spacing" textLength="107" x="669.25" y="880.741">Journalnummer</text><line style="stroke:#181818;stroke-width:0.5;" x1="583" x2="830" y1="891.45" y2="891.45"/><ellipse cx="593" cy="905.1941" fill="none" rx="3" ry="3" style="stroke:#038048;stroke-width:1.0;"/><text fill="#000000" font-family="sans-serif" font-size="14" lengthAdjust="spacing" textLength="133" x="602" y="908.9852">journalaar: number</text><ellipse cx="593" cy="921.6824" fill="none" rx="3" ry="3" style="stroke:#038048;stroke-width:1.0;"/><text fill="#000000" font-family="sans-serif" font-size="14" lengthAdjust="spacing" textLength="223" x="602" y="925.4734">journalsekvensnummer: number</text><line style="stroke:#181818;stroke-width:0.5;" x1="583" x2="830" y1="932.4266" y2="932.4266"/></g><!--class HentSaksfaseResultat--><g id="elem_HentSaksfaseResultat"><rect codeLine="5" fill="#F1F1F1" height="64.4883" id="HentSaksfaseResultat" rx="2.5" ry="2.5" style="stroke:#181818;stroke-width:0.5;" width="178" x="1542.5" y="7"/><ellipse cx="1557.5" cy="23" fill="#ADD1B2" rx="11" ry="11" style="stroke:#181818;stroke-width:1.0;"/><path d="M1559.9731,29.1431 Q1559.3921,29.4419 1558.7529,29.5913 Q1558.1138,29.7407 1557.4082,29.7407 Q1554.9014,29.7407 1553.5815,28.0889 Q1552.2617,26.437 1552.2617,23.3159 Q1552.2617,20.1865 1553.5815,18.5347 Q1554.9014,16.8828 1557.4082,16.8828 Q1558.1138,16.8828 1558.7612,17.0322 Q1559.4087,17.1816 1559.9731,17.4805 L1559.9731,20.2031 Q1559.3423,19.6221 1558.7488,19.3523 Q1558.1553,19.0825 1557.5244,19.0825 Q1556.1797,19.0825 1555.4949,20.1492 Q1554.8101,21.2158 1554.8101,23.3159 Q1554.8101,25.4077 1555.4949,26.4744 Q1556.1797,27.541 1557.5244,27.541 Q1558.1553,27.541 1558.7488,27.2712 Q1559.3423,27.0015 1559.9731,26.4204 Z " fill="#000000"/><text fill="#000000" font-family="sans-serif" font-size="14" lengthAdjust="spacing" textLength="146" x="1571.5" y="28.291">HentSaksfaseResultat</text><line style="stroke:#181818;stroke-width:0.5;" x1="1543.5" x2="1719.5" y1="39" y2="39"/><ellipse cx="1553.5" cy="52.7441" fill="none" rx="3" ry="3" style="stroke:#038048;stroke-width:1.0;"/><text fill="#000000" font-family="sans-serif" font-size="14" lengthAdjust="spacing" textLength="67" x="1562.5" y="56.5352">fase: Fase</text><line style="stroke:#181818;stroke-width:0.5;" x1="1543.5" x2="1719.5" y1="63.4883" y2="63.4883"/></g><!--link Dokument to Dokumenttype--><g id="link_Dokument_Dokumenttype"><path codeLine="16" d="M1255.87,568.05 C1290.03,606.43 1328.42,649.59 1356.29,680.91 " fill="none" id="Dokument-Dokumenttype" style="stroke:#181818;stroke-width:1.0;"/></g><!--link Dokument to ReferanseDokumentfil--><g id="link_Dokument_ReferanseDokumentfil"><path codeLine="17" d="M1176.5,568.05 C1176.5,608.22 1176.5,653.62 1176.5,685.21 " fill="none" id="Dokument-ReferanseDokumentfil" style="stroke:#181818;stroke-width:1.0;"/></g><!--link Fase to Vedtak--><g id="link_Fase_Vedtak"><path codeLine="19" d="M1533.34,286.27 C1539.04,289.37 1544.78,292.28 1550.5,294.9 C1645.72,338.64 1680.07,318.96 1778.5,354.9 C1838.22,376.72 1902.88,407.43 1952.4,432.57 " fill="none" id="Fase-Vedtak" style="stroke:#181818;stroke-width:1.0;"/></g><!--link Fase to FaseStatusEnum--><g id="link_Fase_FaseStatusEnum"><path codeLine="20" d="M1439.05,295.14 C1442.04,338.85 1445.64,391.33 1448.2,428.63 " fill="none" id="Fase-FaseStatusEnum" style="stroke:#181818;stroke-width:1.0;"/></g><!--link Fase to Fasekategori--><g id="link_Fase_Fasekategori"><path codeLine="21" d="M1505.93,295.14 C1546.52,340.51 1595.57,395.33 1629.11,432.81 " fill="none" id="Fase-Fasekategori" style="stroke:#181818;stroke-width:1.0;"/></g><!--link Milepel to Milepeltype--><g id="link_Milepel_Milepeltype"><path codeLine="17" d="M609.7,523.96 C500.3,556.58 354.09,604.66 230.5,660.76 C215,667.8 198.87,676.42 183.89,685.02 " fill="none" id="Milepel-Milepeltype" style="stroke:#181818;stroke-width:1.0;"/></g><!--link Milepel to ReferanseJournalpost--><g id="link_Milepel_ReferanseJournalpost"><path codeLine="29" d="M609.97,596.5 C579.58,618.5 548.87,640.74 521.74,660.38 " fill="none" id="Milepel-ReferanseJournalpost" style="stroke:#181818;stroke-width:1.0;"/></g><!--link Milepel to MilepelStatusEnum--><g id="link_Milepel_MilepelStatusEnum"><path codeLine="39" d="M753.11,601.19 C748.3,631.59 743.47,662.06 739.81,685.16 " fill="none" id="Milepel-MilepelStatusEnum" style="stroke:#181818;stroke-width:1.0;"/></g><!--link ReferanseJournalpost to EksternNoekkel--><g id="link_ReferanseJournalpost_EksternNoekkel"><path codeLine="40" d="M349.58,791.5 C320.43,814.18 288.54,838.99 262.76,859.05 " fill="none" id="ReferanseJournalpost-EksternNoekkel" style="stroke:#181818;stroke-width:1.0;"/></g><!--link ReferanseJournalpost to SaksJournalpostnummer--><g id="link_ReferanseJournalpost_SaksJournalpostnummer"><path codeLine="41" d="M432.5,791.5 C432.5,811.13 432.5,832.36 432.5,850.72 " fill="none" id="ReferanseJournalpost-SaksJournalpostnummer" style="stroke:#181818;stroke-width:1.0;"/></g><!--link ReferanseJournalpost to Journalnummer--><g id="link_ReferanseJournalpost_Journalnummer"><path codeLine="42" d="M535.31,791.5 C571.45,814.18 610.98,838.99 642.94,859.05 " fill="none" id="ReferanseJournalpost-Journalnummer" style="stroke:#181818;stroke-width:1.0;"/></g><!--link HentSaksfaseResultat to Fase--><g id="link_HentSaksfaseResultat_Fase"><path codeLine="9" d="M1595.18,71.78 C1575.87,88.55 1551.15,110.02 1526.88,131.1 " fill="none" id="HentSaksfaseResultat-Fase" style="stroke:#181818;stroke-width:1.0;"/></g><!--link Fase to Dokument--><g id="link_Fase_Dokument"><path codeLine="11" d="M1354.29,295.14 C1325.68,324.38 1301.6231,348.9735 1272.3431,378.8935 " fill="none" id="Fase-to-Dokument" style="stroke:#181818;stroke-width:1.0;"/><polygon fill="#181818" points="1263.95,387.47,1271.0054,385.9794,1272.3431,378.8935,1265.2877,380.3841,1263.95,387.47" style="stroke:#181818;stroke-width:1.0;"/></g><!--link Fase to Milepel--><g id="link_Fase_Milepel"><path codeLine="12" d="M1333.71,279.36 C1322.44,285.18 1310.91,290.52 1299.5,294.9 C1169.34,344.98 1122.5,307.06 991.5,354.9 C972.9,361.7 954,369.93 935.48,378.87 " fill="none" id="Fase-Milepel" style="stroke:#181818;stroke-width:1.0;"/></g><!--link Milepel to Dokument--><g id="link_Milepel_Dokument"><path codeLine="13" d="M935.44,477.83 C959.92,477.83 972.41,477.83 996.89,477.83 " fill="none" id="Milepel-to-Dokument" style="stroke:#181818;stroke-width:1.0;"/><polygon fill="#181818" points="1008.89,477.83,1002.89,473.83,996.89,477.83,1002.89,481.83,1008.89,477.83" style="stroke:#181818;stroke-width:1.0;"/></g><!--SRC=[fK-x3i8m3Dpz5UuAYYjMPeHOMEWNHAsBehWFrGaBujz9Q1O42yB3MJwVptRbnbPYnqWrKJrEv9Lwbq2jrzugBtJRKSyYhDHDFWuyXheLgzevUrtiG7E4wXUNNF_dC3ZXcUN315u4djA9JHcxi4O9Dk0TCCKsStiy9eG7m5UbCMiVCgBPuA6yNGY3vtK_bFocUG80]--></g></svg>