<svg xmlns="http://www.w3.org/2000/svg" xmlns:xlink="http://www.w3.org/1999/xlink" contentStyleType="text/css" height="972px" preserveAspectRatio="none" style="width:1975px;height:972px;background:#FFFFFF;" version="1.1" viewBox="0 0 1975 972" width="1975px" zoomAndPan="magnify"><defs/><g><!--class ReferanseDokumentfil--><g id="elem_ReferanseDokumentfil"><rect codeLine="40" fill="#F1F1F1" height="80.9766" id="ReferanseDokumentfil" rx="2.5" ry="2.5" style="stroke:#181818;stroke-width:0.5;" width="184" x="1543" y="701.99"/><ellipse cx="1558" cy="717.99" fill="#ADD1B2" rx="11" ry="11" style="stroke:#181818;stroke-width:1.0;"/><path d="M1560.4731,724.1331 Q1559.8921,724.4319 1559.2529,724.5813 Q1558.6138,724.7307 1557.9082,724.7307 Q1555.4014,724.7307 1554.0815,723.0789 Q1552.7617,721.427 1552.7617,718.3059 Q1552.7617,715.1765 1554.0815,713.5247 Q1555.4014,711.8728 1557.9082,711.8728 Q1558.6138,711.8728 1559.2612,712.0222 Q1559.9087,712.1716 1560.4731,712.4705 L1560.4731,715.1931 Q1559.8423,714.6121 1559.2488,714.3423 Q1558.6553,714.0725 1558.0244,714.0725 Q1556.6797,714.0725 1555.9949,715.1392 Q1555.3101,716.2058 1555.3101,718.3059 Q1555.3101,720.3977 1555.9949,721.4644 Q1556.6797,722.531 1558.0244,722.531 Q1558.6553,722.531 1559.2488,722.2612 Q1559.8423,721.9915 1560.4731,721.4104 Z " fill="#000000"/><text fill="#000000" font-family="sans-serif" font-size="14" lengthAdjust="spacing" textLength="152" x="1572" y="723.281">ReferanseDokumentfil</text><line style="stroke:#181818;stroke-width:0.5;" x1="1544" x2="1726" y1="733.99" y2="733.99"/><ellipse cx="1554" cy="747.7341" fill="none" rx="3" ry="3" style="stroke:#038048;stroke-width:1.0;"/><text fill="#000000" font-family="sans-serif" font-size="14" lengthAdjust="spacing" textLength="61" x="1563" y="751.5252">id: string</text><ellipse cx="1554" cy="764.2224" fill="none" rx="3" ry="3" style="stroke:#038048;stroke-width:1.0;"/><text fill="#000000" font-family="sans-serif" font-size="14" lengthAdjust="spacing" textLength="67" x="1563" y="768.0134">url: string</text><line style="stroke:#181818;stroke-width:0.5;" x1="1544" x2="1726" y1="774.9666" y2="774.9666"/></g><!--class Dokument--><g id="elem_Dokument"><rect codeLine="3" fill="#F1F1F1" height="179.9063" id="Dokument" rx="2.5" ry="2.5" style="stroke:#181818;stroke-width:0.5;" width="335" x="1488.5" y="131.49"/><ellipse cx="1616.25" cy="147.49" fill="#ADD1B2" rx="11" ry="11" style="stroke:#181818;stroke-width:1.0;"/><path d="M1618.7231,153.6331 Q1618.1421,153.9319 1617.5029,154.0813 Q1616.8638,154.2307 1616.1582,154.2307 Q1613.6514,154.2307 1612.3315,152.5789 Q1611.0117,150.927 1611.0117,147.8059 Q1611.0117,144.6765 1612.3315,143.0247 Q1613.6514,141.3728 1616.1582,141.3728 Q1616.8638,141.3728 1617.5112,141.5222 Q1618.1587,141.6716 1618.7231,141.9705 L1618.7231,144.6931 Q1618.0923,144.1121 1617.4988,143.8423 Q1616.9053,143.5725 1616.2744,143.5725 Q1614.9297,143.5725 1614.2449,144.6392 Q1613.5601,145.7058 1613.5601,147.8059 Q1613.5601,149.8977 1614.2449,150.9644 Q1614.9297,152.031 1616.2744,152.031 Q1616.9053,152.031 1617.4988,151.7612 Q1618.0923,151.4915 1618.7231,150.9104 Z " fill="#000000"/><text fill="#000000" font-family="sans-serif" font-size="14" lengthAdjust="spacing" textLength="71" x="1636.75" y="152.781">Dokument</text><line style="stroke:#181818;stroke-width:0.5;" x1="1489.5" x2="1822.5" y1="163.49" y2="163.49"/><ellipse cx="1499.5" cy="177.2341" fill="none" rx="3" ry="3" style="stroke:#038048;stroke-width:1.0;"/><text fill="#000000" font-family="sans-serif" font-size="14" lengthAdjust="spacing" textLength="61" x="1508.5" y="181.0252">id: string</text><ellipse cx="1499.5" cy="193.7224" fill="none" rx="3" ry="3" style="stroke:#038048;stroke-width:1.0;"/><text fill="#000000" font-family="sans-serif" font-size="14" lengthAdjust="spacing" textLength="79" x="1508.5" y="197.5134">tittel: string</text><ellipse cx="1499.5" cy="210.2107" fill="none" rx="3" ry="3" style="stroke:#038048;stroke-width:1.0;"/><text fill="#000000" font-family="sans-serif" font-size="14" lengthAdjust="spacing" textLength="94" x="1508.5" y="214.0017">filnavn: string</text><ellipse cx="1499.5" cy="226.699" fill="none" rx="3" ry="3" style="stroke:#038048;stroke-width:1.0;"/><text fill="#000000" font-family="sans-serif" font-size="14" lengthAdjust="spacing" textLength="207" x="1508.5" y="230.49">dokumenttype: Dokumenttype</text><ellipse cx="1499.5" cy="243.1873" fill="none" rx="3" ry="3" style="stroke:#038048;stroke-width:1.0;"/><text fill="#000000" font-family="sans-serif" font-size="14" lengthAdjust="spacing" textLength="309" x="1508.5" y="246.9783">referanseDokumentfil: ReferanseDokumentfil</text><ellipse cx="1499.5" cy="259.6755" fill="none" rx="3" ry="3" style="stroke:#038048;stroke-width:1.0;"/><text fill="#000000" font-family="sans-serif" font-size="14" lengthAdjust="spacing" textLength="115" x="1508.5" y="263.4666">mimetype: string</text><ellipse cx="1499.5" cy="276.1638" fill="none" rx="3" ry="3" style="stroke:#038048;stroke-width:1.0;"/><text fill="#000000" font-family="sans-serif" font-size="14" lengthAdjust="spacing" textLength="146" x="1508.5" y="279.9548">dokumentsdato: date</text><ellipse cx="1499.5" cy="292.6521" fill="none" rx="3" ry="3" style="stroke:#038048;stroke-width:1.0;"/><text fill="#000000" font-family="sans-serif" font-size="14" lengthAdjust="spacing" textLength="114" x="1508.5" y="296.4431">arkivnavn: string</text><line style="stroke:#181818;stroke-width:0.5;" x1="1489.5" x2="1822.5" y1="303.3963" y2="303.3963"/></g><g id="elem_GMN4"><path d="M1550.5,26.59 L1550.5,51.9005 A0,0 0 0 0 1550.5,51.9005 L1652,51.9005 L1656,131.28 L1660,51.9005 L1761.5,51.9005 A0,0 0 0 0 1761.5,51.9005 L1761.5,36.59 L1751.5,26.59 L1550.5,26.59 A0,0 0 0 0 1550.5,26.59 " fill="#FEFFDD" style="stroke:#181818;stroke-width:0.5;"/><path d="M1751.5,26.59 L1751.5,36.59 L1761.5,36.59 L1751.5,26.59 " fill="#FEFFDD" style="stroke:#181818;stroke-width:0.5;"/><text fill="#000000" font-family="sans-serif" font-size="13" lengthAdjust="spacing" textLength="190" x="1556.5" y="44.1584">Hentet definisjon fra Fiks Plan</text></g><!--class Dokumenttype--><g id="elem_Dokumenttype"><rect codeLine="19" fill="#F1F1F1" height="89.5977" id="Dokumenttype" rx="2.5" ry="2.5" style="stroke:#181818;stroke-width:0.5;" width="184" x="1424" y="449.53"/><ellipse cx="1462.4" cy="469.8405" fill="#ADD1B2" rx="11" ry="11" style="stroke:#181818;stroke-width:1.0;"/><path d="M1464.8731,475.9836 Q1464.2921,476.2824 1463.6529,476.4319 Q1463.0138,476.5813 1462.3082,476.5813 Q1459.8014,476.5813 1458.4815,474.9294 Q1457.1617,473.2776 1457.1617,470.1565 Q1457.1617,467.0271 1458.4815,465.3752 Q1459.8014,463.7234 1462.3082,463.7234 Q1463.0138,463.7234 1463.6612,463.8728 Q1464.3087,464.0222 1464.8731,464.321 L1464.8731,467.0437 Q1464.2423,466.4626 1463.6488,466.1928 Q1463.0553,465.9231 1462.4244,465.9231 Q1461.0797,465.9231 1460.3949,466.9897 Q1459.7101,468.0564 1459.7101,470.1565 Q1459.7101,472.2483 1460.3949,473.3149 Q1461.0797,474.3816 1462.4244,474.3816 Q1463.0553,474.3816 1463.6488,474.1118 Q1464.2423,473.842 1464.8731,473.261 Z " fill="#000000"/><text fill="#000000" font-family="sans-serif" font-size="12" font-style="italic" lengthAdjust="spacing" textLength="42" x="1510.6" y="466.1316">&#171;Kode&#187;</text><text fill="#000000" font-family="sans-serif" font-size="14" lengthAdjust="spacing" textLength="100" x="1481.6" y="482.198">Dokumenttype</text><line style="stroke:#181818;stroke-width:0.5;" x1="1425" x2="1607" y1="490.1511" y2="490.1511"/><ellipse cx="1435" cy="503.8952" fill="none" rx="3" ry="3" style="stroke:#038048;stroke-width:1.0;"/><text fill="#000000" font-family="sans-serif" font-size="14" lengthAdjust="spacing" textLength="116" x="1444" y="507.6863">kodeverdi: string</text><ellipse cx="1435" cy="520.3835" fill="none" rx="3" ry="3" style="stroke:#038048;stroke-width:1.0;"/><text fill="#000000" font-family="sans-serif" font-size="14" lengthAdjust="spacing" textLength="158" x="1444" y="524.1745">kodebeskrivelse: string</text><line style="stroke:#181818;stroke-width:0.5;" x1="1425" x2="1607" y1="531.1277" y2="531.1277"/></g><!--class Fase--><g id="elem_Fase"><rect codeLine="2" fill="#F1F1F1" height="163.418" id="Fase" rx="2.5" ry="2.5" style="stroke:#181818;stroke-width:0.5;" width="199" x="218.5" y="139.73"/><ellipse cx="298.25" cy="155.73" fill="#ADD1B2" rx="11" ry="11" style="stroke:#181818;stroke-width:1.0;"/><path d="M300.7231,161.8731 Q300.1421,162.1719 299.5029,162.3213 Q298.8638,162.4707 298.1582,162.4707 Q295.6514,162.4707 294.3315,160.8189 Q293.0117,159.167 293.0117,156.0459 Q293.0117,152.9165 294.3315,151.2647 Q295.6514,149.6128 298.1582,149.6128 Q298.8638,149.6128 299.5112,149.7622 Q300.1587,149.9116 300.7231,150.2105 L300.7231,152.9331 Q300.0923,152.3521 299.4988,152.0823 Q298.9053,151.8125 298.2744,151.8125 Q296.9297,151.8125 296.2449,152.8792 Q295.5601,153.9458 295.5601,156.0459 Q295.5601,158.1377 296.2449,159.2044 Q296.9297,160.271 298.2744,160.271 Q298.9053,160.271 299.4988,160.0012 Q300.0923,159.7315 300.7231,159.1504 Z " fill="#000000"/><text fill="#000000" font-family="sans-serif" font-size="14" lengthAdjust="spacing" textLength="31" x="318.75" y="161.021">Fase</text><line style="stroke:#181818;stroke-width:0.5;" x1="219.5" x2="416.5" y1="171.73" y2="171.73"/><ellipse cx="229.5" cy="185.4741" fill="none" rx="3" ry="3" style="stroke:#038048;stroke-width:1.0;"/><text fill="#000000" font-family="sans-serif" font-size="14" lengthAdjust="spacing" textLength="109" x="238.5" y="189.2652">fasenavn: string</text><ellipse cx="229.5" cy="201.9624" fill="none" rx="3" ry="3" style="stroke:#038048;stroke-width:1.0;"/><text fill="#000000" font-family="sans-serif" font-size="14" lengthAdjust="spacing" textLength="89" x="238.5" y="205.7534">faseid: string</text><ellipse cx="229.5" cy="218.4507" fill="none" rx="3" ry="3" style="stroke:#038048;stroke-width:1.0;"/><text fill="#000000" font-family="sans-serif" font-size="14" lengthAdjust="spacing" textLength="153" x="238.5" y="222.2417">kategori: Fasekategori</text><ellipse cx="229.5" cy="234.939" fill="none" rx="3" ry="3" style="stroke:#038048;stroke-width:1.0;"/><text fill="#000000" font-family="sans-serif" font-size="14" lengthAdjust="spacing" textLength="131" x="238.5" y="238.73">milepeler: Milepel[]</text><ellipse cx="229.5" cy="251.4273" fill="none" rx="3" ry="3" style="stroke:#038048;stroke-width:1.0;"/><text fill="#000000" font-family="sans-serif" font-size="14" lengthAdjust="spacing" textLength="161" x="238.5" y="255.2183">status: FaseStatusEnum</text><ellipse cx="229.5" cy="267.9155" fill="none" rx="3" ry="3" style="stroke:#038048;stroke-width:1.0;"/><text fill="#000000" font-family="sans-serif" font-size="14" lengthAdjust="spacing" textLength="100" x="238.5" y="271.7066">vedtak: Vedtak</text><ellipse cx="229.5" cy="284.4038" fill="none" rx="3" ry="3" style="stroke:#038048;stroke-width:1.0;"/><text fill="#000000" font-family="sans-serif" font-size="14" lengthAdjust="spacing" textLength="173" x="238.5" y="288.1948">dokumenter: Dokument[]</text><line style="stroke:#181818;stroke-width:0.5;" x1="219.5" x2="416.5" y1="295.148" y2="295.148"/></g><g id="elem_GMN11"><path d="M244,18.93 L244,59.5511 A0,0 0 0 0 244,59.5511 L491.32,59.5511 L407.3,139.58 L499.32,59.5511 L790,59.5511 A0,0 0 0 0 790,59.5511 L790,28.93 L780,18.93 L244,18.93 A0,0 0 0 0 244,18.93 " fill="#FEFFDD" style="stroke:#181818;stroke-width:0.5;"/><path d="M780,18.93 L780,28.93 L790,28.93 L780,18.93 " fill="#FEFFDD" style="stroke:#181818;stroke-width:0.5;"/><text fill="#000000" font-family="sans-serif" font-size="13" lengthAdjust="spacing" textLength="369" x="250" y="36.4984">En fase er i hovedsak det som hender mellom to milepeler.</text><text fill="#000000" font-family="sans-serif" font-size="13" lengthAdjust="spacing" textLength="525" x="250" y="51.8089">Interne faser sendes ikke ut ved denne protokollen. Vi kutter derfor ut Global flagg.</text></g><path d="M452.5,196.13 L452.5,212.4405 L327.5,200.4624 L452.5,220.4405 L452.5,236.7511 A0,0 0 0 0 452.5,236.7511 L973.5,236.7511 A0,0 0 0 0 973.5,236.7511 L973.5,206.13 L963.5,196.13 L452.5,196.13 A0,0 0 0 0 452.5,196.13 " fill="#FEFFDD" style="stroke:#181818;stroke-width:0.5;"/><path d="M963.5,196.13 L963.5,206.13 L973.5,206.13 L963.5,196.13 " fill="#FEFFDD" style="stroke:#181818;stroke-width:0.5;"/><text fill="#000000" font-family="sans-serif" font-size="13" lengthAdjust="spacing" textLength="500" x="458.5" y="213.6984">Faseid brukes alene (ikke sammen med saksnummer) for &#229; hente en enkelt fase</text><text fill="#000000" font-family="sans-serif" font-size="13" lengthAdjust="spacing" textLength="165" x="458.5" y="229.0089">Den m&#229; dermed v&#230;re unik</text><!--class Vedtak--><g id="elem_Vedtak"><rect codeLine="31" fill="#F1F1F1" height="89.5977" id="Vedtak" rx="2.5" ry="2.5" style="stroke:#181818;stroke-width:0.5;" width="184" x="7" y="449.53"/><ellipse cx="71.25" cy="469.8405" fill="#ADD1B2" rx="11" ry="11" style="stroke:#181818;stroke-width:1.0;"/><path d="M73.7231,475.9836 Q73.1421,476.2824 72.5029,476.4319 Q71.8638,476.5813 71.1582,476.5813 Q68.6514,476.5813 67.3315,474.9294 Q66.0117,473.2776 66.0117,470.1565 Q66.0117,467.0271 67.3315,465.3752 Q68.6514,463.7234 71.1582,463.7234 Q71.8638,463.7234 72.5112,463.8728 Q73.1587,464.0222 73.7231,464.321 L73.7231,467.0437 Q73.0923,466.4626 72.4988,466.1928 Q71.9053,465.9231 71.2744,465.9231 Q69.9297,465.9231 69.2449,466.9897 Q68.5601,468.0564 68.5601,470.1565 Q68.5601,472.2483 69.2449,473.3149 Q69.9297,474.3816 71.2744,474.3816 Q71.9053,474.3816 72.4988,474.1118 Q73.0923,473.842 73.7231,473.261 Z " fill="#000000"/><text fill="#000000" font-family="sans-serif" font-size="12" font-style="italic" lengthAdjust="spacing" textLength="42" x="94.25" y="466.1316">&#171;Kode&#187;</text><text fill="#000000" font-family="sans-serif" font-size="14" lengthAdjust="spacing" textLength="47" x="91.75" y="482.198">Vedtak</text><line style="stroke:#181818;stroke-width:0.5;" x1="8" x2="190" y1="490.1511" y2="490.1511"/><ellipse cx="18" cy="503.8952" fill="none" rx="3" ry="3" style="stroke:#038048;stroke-width:1.0;"/><text fill="#000000" font-family="sans-serif" font-size="14" lengthAdjust="spacing" textLength="116" x="27" y="507.6863">kodeverdi: string</text><ellipse cx="18" cy="520.3835" fill="none" rx="3" ry="3" style="stroke:#038048;stroke-width:1.0;"/><text fill="#000000" font-family="sans-serif" font-size="14" lengthAdjust="spacing" textLength="158" x="27" y="524.1745">kodebeskrivelse: string</text><line style="stroke:#181818;stroke-width:0.5;" x1="8" x2="190" y1="531.1277" y2="531.1277"/></g><!--class FaseStatusEnum--><g id="elem_FaseStatusEnum"><rect codeLine="23" fill="#F1F1F1" height="97.4648" id="FaseStatusEnum" rx="2.5" ry="2.5" style="stroke:#181818;stroke-width:0.5;" width="144" x="445" y="445.59"/><ellipse cx="460" cy="461.59" fill="#EB937F" rx="11" ry="11" style="stroke:#181818;stroke-width:1.0;"/><path d="M463.6143,468.09 L455.8945,468.09 L455.8945,455.6969 L463.6143,455.6969 L463.6143,457.8551 L458.3433,457.8551 L458.3433,460.528 L463.1162,460.528 L463.1162,462.6862 L458.3433,462.6862 L458.3433,465.9318 L463.6143,465.9318 Z " fill="#000000"/><text fill="#000000" font-family="sans-serif" font-size="14" lengthAdjust="spacing" textLength="112" x="474" y="466.881">FaseStatusEnum</text><line style="stroke:#181818;stroke-width:0.5;" x1="446" x2="588" y1="477.59" y2="477.59"/><ellipse cx="456" cy="491.3341" fill="none" rx="3" ry="3" style="stroke:#038048;stroke-width:1.0;"/><text fill="#000000" font-family="sans-serif" font-size="14" lengthAdjust="spacing" textLength="55" x="465" y="495.1252">Planlagt</text><ellipse cx="456" cy="507.8224" fill="none" rx="3" ry="3" style="stroke:#038048;stroke-width:1.0;"/><text fill="#000000" font-family="sans-serif" font-size="14" lengthAdjust="spacing" textLength="88" x="465" y="511.6134">UnderArbeid</text><ellipse cx="456" cy="524.3107" fill="none" rx="3" ry="3" style="stroke:#038048;stroke-width:1.0;"/><text fill="#000000" font-family="sans-serif" font-size="14" lengthAdjust="spacing" textLength="48" x="465" y="528.1017">Utfoert</text><line style="stroke:#181818;stroke-width:0.5;" x1="446" x2="588" y1="535.0548" y2="535.0548"/></g><!--class Fasekategori--><g id="elem_Fasekategori"><rect codeLine="36" fill="#F1F1F1" height="89.5977" id="Fasekategori" rx="2.5" ry="2.5" style="stroke:#181818;stroke-width:0.5;" width="184" x="226" y="449.53"/><ellipse cx="269.8" cy="469.8405" fill="#ADD1B2" rx="11" ry="11" style="stroke:#181818;stroke-width:1.0;"/><path d="M272.2731,475.9836 Q271.6921,476.2824 271.0529,476.4319 Q270.4138,476.5813 269.7082,476.5813 Q267.2014,476.5813 265.8815,474.9294 Q264.5617,473.2776 264.5617,470.1565 Q264.5617,467.0271 265.8815,465.3752 Q267.2014,463.7234 269.7082,463.7234 Q270.4138,463.7234 271.0612,463.8728 Q271.7087,464.0222 272.2731,464.321 L272.2731,467.0437 Q271.6423,466.4626 271.0488,466.1928 Q270.4553,465.9231 269.8244,465.9231 Q268.4797,465.9231 267.7949,466.9897 Q267.1101,468.0564 267.1101,470.1565 Q267.1101,472.2483 267.7949,473.3149 Q268.4797,474.3816 269.8244,474.3816 Q270.4553,474.3816 271.0488,474.1118 Q271.6423,473.842 272.2731,473.261 Z " fill="#000000"/><text fill="#000000" font-family="sans-serif" font-size="12" font-style="italic" lengthAdjust="spacing" textLength="42" x="313.2" y="466.1316">&#171;Kode&#187;</text><text fill="#000000" font-family="sans-serif" font-size="14" lengthAdjust="spacing" textLength="88" x="290.2" y="482.198">Fasekategori</text><line style="stroke:#181818;stroke-width:0.5;" x1="227" x2="409" y1="490.1511" y2="490.1511"/><ellipse cx="237" cy="503.8952" fill="none" rx="3" ry="3" style="stroke:#038048;stroke-width:1.0;"/><text fill="#000000" font-family="sans-serif" font-size="14" lengthAdjust="spacing" textLength="116" x="246" y="507.6863">kodeverdi: string</text><ellipse cx="237" cy="520.3835" fill="none" rx="3" ry="3" style="stroke:#038048;stroke-width:1.0;"/><text fill="#000000" font-family="sans-serif" font-size="14" lengthAdjust="spacing" textLength="158" x="246" y="524.1745">kodebeskrivelse: string</text><line style="stroke:#181818;stroke-width:0.5;" x1="227" x2="409" y1="531.1277" y2="531.1277"/></g><g id="elem_GMN22"><path d="M40,178.16 L40,264.7127 A0,0 0 0 0 40,264.7127 L95,264.7127 L99,449.15 L103,264.7127 L158,264.7127 A0,0 0 0 0 158,264.7127 L158,188.16 L148,178.16 L40,178.16 A0,0 0 0 0 40,178.16 " fill="#FEFFDD" style="stroke:#181818;stroke-width:0.5;"/><path d="M148,178.16 L148,188.16 L158,188.16 L148,178.16 " fill="#FEFFDD" style="stroke:#181818;stroke-width:0.5;"/><text fill="#000000" font-family="sans-serif" font-size="13" lengthAdjust="spacing" textLength="69" x="46" y="195.7284">Eksempler:</text><text fill="#000000" font-family="sans-serif" font-size="13" lengthAdjust="spacing" textLength="56" x="46" y="211.0389">godkjent</text><text fill="#000000" font-family="sans-serif" font-size="13" lengthAdjust="spacing" textLength="97" x="46" y="226.3495">delvis godkjent</text><text fill="#000000" font-family="sans-serif" font-size="13" lengthAdjust="spacing" textLength="42" x="46" y="241.66">avsl&#229;tt</text><text fill="#000000" font-family="sans-serif" font-size="13" lengthAdjust="spacing" textLength="37" x="46" y="256.9705">avvist</text></g><g id="elem_GMN25"><path d="M155,691.54 L155,793.4033 A0,0 0 0 0 155,793.4033 L481,793.4033 A0,0 0 0 0 481,793.4033 L481,701.54 L471,691.54 L322,691.54 L318,539.62 L314,691.54 L155,691.54 A0,0 0 0 0 155,691.54 " fill="#FEFFDD" style="stroke:#181818;stroke-width:0.5;"/><path d="M471,691.54 L471,701.54 L481,701.54 L471,691.54 " fill="#FEFFDD" style="stroke:#181818;stroke-width:0.5;"/><text fill="#000000" font-family="sans-serif" font-size="13" lengthAdjust="spacing" textLength="305" x="161" y="709.1084">Se gjerne Byggesaksbehandling::Prosesskategori</text><text fill="#000000" font-family="sans-serif" font-size="13" lengthAdjust="spacing" textLength="45" x="165" y="724.4189">fra NPS</text><text fill="#000000" font-family="sans-serif" font-size="13" lengthAdjust="spacing" textLength="210" x="161" y="739.7295">Vi m&#229; f&#229; avklart denne kodelisten</text><text fill="#000000" font-family="sans-serif" font-size="13" lengthAdjust="spacing" textLength="69" x="161" y="755.04">Eksempler:</text><text fill="#000000" font-family="sans-serif" font-size="13" lengthAdjust="spacing" textLength="34" x="161" y="770.3505">Klage</text><text fill="#000000" font-family="sans-serif" font-size="13" lengthAdjust="spacing" textLength="43" x="161" y="785.6611">H&#248;ring</text></g><!--class EksternNoekkel--><g id="elem_EksternNoekkel"><rect codeLine="2" fill="#F1F1F1" height="80.9766" id="EksternNoekkel" rx="2.5" ry="2.5" style="stroke:#181818;stroke-width:0.5;" width="143" x="786.5" y="875.94"/><ellipse cx="803.75" cy="891.94" fill="#ADD1B2" rx="11" ry="11" style="stroke:#181818;stroke-width:1.0;"/><path d="M806.2231,898.0831 Q805.6421,898.3819 805.0029,898.5313 Q804.3638,898.6807 803.6582,898.6807 Q801.1514,898.6807 799.8315,897.0289 Q798.5117,895.377 798.5117,892.2559 Q798.5117,889.1265 799.8315,887.4747 Q801.1514,885.8228 803.6582,885.8228 Q804.3638,885.8228 805.0112,885.9722 Q805.6587,886.1216 806.2231,886.4205 L806.2231,889.1431 Q805.5923,888.5621 804.9988,888.2923 Q804.4053,888.0225 803.7744,888.0225 Q802.4297,888.0225 801.7449,889.0892 Q801.0601,890.1558 801.0601,892.2559 Q801.0601,894.3477 801.7449,895.4144 Q802.4297,896.481 803.7744,896.481 Q804.4053,896.481 804.9988,896.2112 Q805.5923,895.9415 806.2231,895.3604 Z " fill="#000000"/><text fill="#000000" font-family="sans-serif" font-size="14" lengthAdjust="spacing" textLength="106" x="818.25" y="897.231">EksternNoekkel</text><line style="stroke:#181818;stroke-width:0.5;" x1="787.5" x2="928.5" y1="907.94" y2="907.94"/><ellipse cx="797.5" cy="921.6841" fill="none" rx="3" ry="3" style="stroke:#038048;stroke-width:1.0;"/><text fill="#000000" font-family="sans-serif" font-size="14" lengthAdjust="spacing" textLength="117" x="806.5" y="925.4752">fagsystem: string</text><ellipse cx="797.5" cy="938.1724" fill="none" rx="3" ry="3" style="stroke:#038048;stroke-width:1.0;"/><text fill="#000000" font-family="sans-serif" font-size="14" lengthAdjust="spacing" textLength="102" x="806.5" y="941.9634">noekkel: string</text><line style="stroke:#181818;stroke-width:0.5;" x1="787.5" x2="928.5" y1="948.9166" y2="948.9166"/></g><!--class Journalnummer--><g id="elem_Journalnummer"><rect codeLine="2" fill="#F1F1F1" height="80.9766" id="Journalnummer" rx="2.5" ry="2.5" style="stroke:#181818;stroke-width:0.5;" width="249" x="964.5" y="875.94"/><ellipse cx="1031.25" cy="891.94" fill="#ADD1B2" rx="11" ry="11" style="stroke:#181818;stroke-width:1.0;"/><path d="M1033.7231,898.0831 Q1033.1421,898.3819 1032.5029,898.5313 Q1031.8638,898.6807 1031.1582,898.6807 Q1028.6514,898.6807 1027.3315,897.0289 Q1026.0117,895.377 1026.0117,892.2559 Q1026.0117,889.1265 1027.3315,887.4747 Q1028.6514,885.8228 1031.1582,885.8228 Q1031.8638,885.8228 1032.5112,885.9722 Q1033.1587,886.1216 1033.7231,886.4205 L1033.7231,889.1431 Q1033.0923,888.5621 1032.4988,888.2923 Q1031.9053,888.0225 1031.2744,888.0225 Q1029.9297,888.0225 1029.2449,889.0892 Q1028.5601,890.1558 1028.5601,892.2559 Q1028.5601,894.3477 1029.2449,895.4144 Q1029.9297,896.481 1031.2744,896.481 Q1031.9053,896.481 1032.4988,896.2112 Q1033.0923,895.9415 1033.7231,895.3604 Z " fill="#000000"/><text fill="#000000" font-family="sans-serif" font-size="14" lengthAdjust="spacing" textLength="107" x="1051.75" y="897.231">Journalnummer</text><line style="stroke:#181818;stroke-width:0.5;" x1="965.5" x2="1212.5" y1="907.94" y2="907.94"/><ellipse cx="975.5" cy="921.6841" fill="none" rx="3" ry="3" style="stroke:#038048;stroke-width:1.0;"/><text fill="#000000" font-family="sans-serif" font-size="14" lengthAdjust="spacing" textLength="169" x="984.5" y="925.4752">journalnummer: number</text><ellipse cx="975.5" cy="938.1724" fill="none" rx="3" ry="3" style="stroke:#038048;stroke-width:1.0;"/><text fill="#000000" font-family="sans-serif" font-size="14" lengthAdjust="spacing" textLength="223" x="984.5" y="941.9634">journalsekvensnummer: number</text><line style="stroke:#181818;stroke-width:0.5;" x1="965.5" x2="1212.5" y1="948.9166" y2="948.9166"/></g><!--class ReferanseJournalpost--><g id="elem_ReferanseJournalpost"><rect codeLine="2" fill="#F1F1F1" height="130.4414" id="ReferanseJournalpost" rx="2.5" ry="2.5" style="stroke:#181818;stroke-width:0.5;" width="369" x="904.5" y="677.25"/><ellipse cx="1011.25" cy="693.25" fill="#ADD1B2" rx="11" ry="11" style="stroke:#181818;stroke-width:1.0;"/><path d="M1013.7231,699.3931 Q1013.1421,699.6919 1012.5029,699.8413 Q1011.8638,699.9907 1011.1582,699.9907 Q1008.6514,699.9907 1007.3315,698.3389 Q1006.0117,696.687 1006.0117,693.5659 Q1006.0117,690.4365 1007.3315,688.7847 Q1008.6514,687.1328 1011.1582,687.1328 Q1011.8638,687.1328 1012.5112,687.2822 Q1013.1587,687.4316 1013.7231,687.7305 L1013.7231,690.4531 Q1013.0923,689.8721 1012.4988,689.6023 Q1011.9053,689.3325 1011.2744,689.3325 Q1009.9297,689.3325 1009.2449,690.3992 Q1008.5601,691.4658 1008.5601,693.5659 Q1008.5601,695.6577 1009.2449,696.7244 Q1009.9297,697.791 1011.2744,697.791 Q1011.9053,697.791 1012.4988,697.5212 Q1013.0923,697.2515 1013.7231,696.6704 Z " fill="#000000"/><text fill="#000000" font-family="sans-serif" font-size="14" lengthAdjust="spacing" textLength="147" x="1031.75" y="698.541">ReferanseJournalpost</text><line style="stroke:#181818;stroke-width:0.5;" x1="905.5" x2="1272.5" y1="709.25" y2="709.25"/><ellipse cx="915.5" cy="722.9941" fill="none" rx="3" ry="3" style="stroke:#038048;stroke-width:1.0;"/><text fill="#000000" font-family="sans-serif" font-size="14" lengthAdjust="spacing" textLength="108" x="924.5" y="726.7852">systemId: string</text><ellipse cx="915.5" cy="739.4824" fill="none" rx="3" ry="3" style="stroke:#038048;stroke-width:1.0;"/><text fill="#000000" font-family="sans-serif" font-size="14" lengthAdjust="spacing" textLength="150" x="924.5" y="743.2734">registreringsID: string</text><ellipse cx="915.5" cy="755.9707" fill="none" rx="3" ry="3" style="stroke:#038048;stroke-width:1.0;"/><text fill="#000000" font-family="sans-serif" font-size="14" lengthAdjust="spacing" textLength="222" x="924.5" y="759.7617">journalnummer: Journalnummer</text><ellipse cx="915.5" cy="772.459" fill="none" rx="3" ry="3" style="stroke:#038048;stroke-width:1.0;"/><text fill="#000000" font-family="sans-serif" font-size="14" lengthAdjust="spacing" textLength="343" x="924.5" y="776.25">saksJournalpostnummer: SaksJournalpostnummer</text><ellipse cx="915.5" cy="788.9473" fill="none" rx="3" ry="3" style="stroke:#038048;stroke-width:1.0;"/><text fill="#000000" font-family="sans-serif" font-size="14" lengthAdjust="spacing" textLength="285" x="924.5" y="792.7383">referanseEksternNoekkel: EksternNoekkel</text><line style="stroke:#181818;stroke-width:0.5;" x1="905.5" x2="1272.5" y1="799.6914" y2="799.6914"/></g><!--class SaksJournalpostnummer--><g id="elem_SaksJournalpostnummer"><rect codeLine="2" fill="#F1F1F1" height="97.4648" id="SaksJournalpostnummer" rx="2.5" ry="2.5" style="stroke:#181818;stroke-width:0.5;" width="230" x="1248" y="867.7"/><ellipse cx="1276.5" cy="883.7" fill="#ADD1B2" rx="11" ry="11" style="stroke:#181818;stroke-width:1.0;"/><path d="M1278.9731,889.8431 Q1278.3921,890.1419 1277.7529,890.2913 Q1277.1138,890.4407 1276.4082,890.4407 Q1273.9014,890.4407 1272.5815,888.7889 Q1271.2617,887.137 1271.2617,884.0159 Q1271.2617,880.8865 1272.5815,879.2347 Q1273.9014,877.5828 1276.4082,877.5828 Q1277.1138,877.5828 1277.7612,877.7322 Q1278.4087,877.8816 1278.9731,878.1805 L1278.9731,880.9031 Q1278.3423,880.3221 1277.7488,880.0523 Q1277.1553,879.7825 1276.5244,879.7825 Q1275.1797,879.7825 1274.4949,880.8492 Q1273.8101,881.9158 1273.8101,884.0159 Q1273.8101,886.1077 1274.4949,887.1744 Q1275.1797,888.241 1276.5244,888.241 Q1277.1553,888.241 1277.7488,887.9712 Q1278.3423,887.7015 1278.9731,887.1204 Z " fill="#000000"/><text fill="#000000" font-family="sans-serif" font-size="14" lengthAdjust="spacing" textLength="168" x="1293.5" y="888.991">SaksJournalpostnummer</text><line style="stroke:#181818;stroke-width:0.5;" x1="1249" x2="1477" y1="899.7" y2="899.7"/><ellipse cx="1259" cy="913.4441" fill="none" rx="3" ry="3" style="stroke:#038048;stroke-width:1.0;"/><text fill="#000000" font-family="sans-serif" font-size="14" lengthAdjust="spacing" textLength="114" x="1268" y="917.2352">saksaar: number</text><ellipse cx="1259" cy="929.9324" fill="none" rx="3" ry="3" style="stroke:#038048;stroke-width:1.0;"/><text fill="#000000" font-family="sans-serif" font-size="14" lengthAdjust="spacing" textLength="204" x="1268" y="933.7234">sakssekvensnummer: number</text><ellipse cx="1259" cy="946.4207" fill="none" rx="3" ry="3" style="stroke:#038048;stroke-width:1.0;"/><text fill="#000000" font-family="sans-serif" font-size="14" lengthAdjust="spacing" textLength="199" x="1268" y="950.2117">journalpostnummer: number</text><line style="stroke:#181818;stroke-width:0.5;" x1="1249" x2="1477" y1="957.1648" y2="957.1648"/></g><!--class Milepel--><g id="elem_Milepel"><rect codeLine="8" fill="#F1F1F1" height="245.8594" id="Milepel" rx="2.5" ry="2.5" style="stroke:#181818;stroke-width:0.5;" width="325" x="1063.5" y="371.39"/><ellipse cx="1197.25" cy="387.39" fill="#ADD1B2" rx="11" ry="11" style="stroke:#181818;stroke-width:1.0;"/><path d="M1199.7231,393.5331 Q1199.1421,393.8319 1198.5029,393.9813 Q1197.8638,394.1307 1197.1582,394.1307 Q1194.6514,394.1307 1193.3315,392.4789 Q1192.0117,390.827 1192.0117,387.7059 Q1192.0117,384.5765 1193.3315,382.9247 Q1194.6514,381.2728 1197.1582,381.2728 Q1197.8638,381.2728 1198.5112,381.4222 Q1199.1587,381.5716 1199.7231,381.8705 L1199.7231,384.5931 Q1199.0923,384.0121 1198.4988,383.7423 Q1197.9053,383.4725 1197.2744,383.4725 Q1195.9297,383.4725 1195.2449,384.5392 Q1194.5601,385.6058 1194.5601,387.7059 Q1194.5601,389.7977 1195.2449,390.8644 Q1195.9297,391.931 1197.2744,391.931 Q1197.9053,391.931 1198.4988,391.6612 Q1199.0923,391.3915 1199.7231,390.8104 Z " fill="#000000"/><text fill="#000000" font-family="sans-serif" font-size="14" lengthAdjust="spacing" textLength="49" x="1217.75" y="392.681">Milepel</text><line style="stroke:#181818;stroke-width:0.5;" x1="1064.5" x2="1387.5" y1="403.39" y2="403.39"/><ellipse cx="1074.5" cy="417.1341" fill="none" rx="3" ry="3" style="stroke:#038048;stroke-width:1.0;"/><text fill="#000000" font-family="sans-serif" font-size="14" lengthAdjust="spacing" textLength="108" x="1083.5" y="420.9252">systemId: string</text><ellipse cx="1074.5" cy="433.6224" fill="none" rx="3" ry="3" style="stroke:#038048;stroke-width:1.0;"/><text fill="#000000" font-family="sans-serif" font-size="14" lengthAdjust="spacing" textLength="124" x="1083.5" y="437.4134">beskrivelse: string</text><ellipse cx="1074.5" cy="450.1107" fill="none" rx="3" ry="3" style="stroke:#038048;stroke-width:1.0;"/><text fill="#000000" font-family="sans-serif" font-size="14" lengthAdjust="spacing" textLength="143" x="1083.5" y="453.9017">kategori: Milepeltype</text><ellipse cx="1074.5" cy="466.599" fill="none" rx="3" ry="3" style="stroke:#038048;stroke-width:1.0;"/><text fill="#000000" font-family="sans-serif" font-size="14" lengthAdjust="spacing" textLength="65" x="1083.5" y="470.39">frist: date</text><ellipse cx="1074.5" cy="483.0873" fill="none" rx="3" ry="3" style="stroke:#038048;stroke-width:1.0;"/><text fill="#000000" font-family="sans-serif" font-size="14" lengthAdjust="spacing" textLength="85" x="1083.5" y="486.8783">utfoert: date</text><ellipse cx="1074.5" cy="499.5755" fill="none" rx="3" ry="3" style="stroke:#038048;stroke-width:1.0;"/><text fill="#000000" font-family="sans-serif" font-size="14" lengthAdjust="spacing" textLength="142" x="1083.5" y="503.3666">planlagtUtfoert: date</text><ellipse cx="1074.5" cy="516.0638" fill="none" rx="3" ry="3" style="stroke:#038048;stroke-width:1.0;"/><text fill="#000000" font-family="sans-serif" font-size="14" lengthAdjust="spacing" textLength="105" x="1083.5" y="519.8548">intern: boolean</text><ellipse cx="1074.5" cy="532.5521" fill="none" rx="3" ry="3" style="stroke:#038048;stroke-width:1.0;"/><text fill="#000000" font-family="sans-serif" font-size="14" lengthAdjust="spacing" textLength="299" x="1083.5" y="536.3431">referanseJournalpost: ReferanseJournalpost</text><ellipse cx="1074.5" cy="549.0404" fill="none" rx="3" ry="3" style="stroke:#038048;stroke-width:1.0;"/><text fill="#000000" font-family="sans-serif" font-size="14" lengthAdjust="spacing" textLength="296" x="1083.5" y="552.8314">referanseDokument: ReferanseDokumentfil</text><ellipse cx="1074.5" cy="565.5287" fill="none" rx="3" ry="3" style="stroke:#038048;stroke-width:1.0;"/><text fill="#000000" font-family="sans-serif" font-size="14" lengthAdjust="spacing" textLength="110" x="1083.5" y="569.3197">erStart: boolean</text><ellipse cx="1074.5" cy="582.017" fill="none" rx="3" ry="3" style="stroke:#038048;stroke-width:1.0;"/><text fill="#000000" font-family="sans-serif" font-size="14" lengthAdjust="spacing" textLength="109" x="1083.5" y="585.808">erSlutt: boolean</text><ellipse cx="1074.5" cy="598.5052" fill="none" rx="3" ry="3" style="stroke:#038048;stroke-width:1.0;"/><text fill="#000000" font-family="sans-serif" font-size="14" lengthAdjust="spacing" textLength="179" x="1083.5" y="602.2963">status: MilepelStatusEnum</text><line style="stroke:#181818;stroke-width:0.5;" x1="1064.5" x2="1387.5" y1="609.2494" y2="609.2494"/></g><g id="elem_GMN33"><path d="M1009,201.13 L1009,241.7511 A0,0 0 0 0 1009,241.7511 L1226.64,241.7511 L1228.26,370.96 L1234.64,241.7511 L1453,241.7511 A0,0 0 0 0 1453,241.7511 L1453,211.13 L1443,201.13 L1009,201.13 A0,0 0 0 0 1009,201.13 " fill="#FEFFDD" style="stroke:#181818;stroke-width:0.5;"/><path d="M1443,201.13 L1443,211.13 L1453,211.13 L1443,201.13 " fill="#FEFFDD" style="stroke:#181818;stroke-width:0.5;"/><text fill="#000000" font-family="sans-serif" font-size="13" lengthAdjust="spacing" textLength="331" x="1015" y="218.6984">planlagtUtfoert er hvis man har laget en milepel plan</text><text fill="#000000" font-family="sans-serif" font-size="13" lengthAdjust="spacing" textLength="423" x="1015" y="234.0089">s&#229; kan man sette denne datoen for n&#229;r det er planlagt &#229; v&#230;re ferdig</text></g><!--class Milepeltype--><g id="elem_Milepeltype"><rect codeLine="32" fill="#F1F1F1" height="80.9766" id="Milepeltype" rx="2.5" ry="2.5" style="stroke:#181818;stroke-width:0.5;" width="184" x="1762" y="701.99"/><ellipse cx="1810.75" cy="717.99" fill="#ADD1B2" rx="11" ry="11" style="stroke:#181818;stroke-width:1.0;"/><path d="M1813.2231,724.1331 Q1812.6421,724.4319 1812.0029,724.5813 Q1811.3638,724.7307 1810.6582,724.7307 Q1808.1514,724.7307 1806.8315,723.0789 Q1805.5117,721.427 1805.5117,718.3059 Q1805.5117,715.1765 1806.8315,713.5247 Q1808.1514,711.8728 1810.6582,711.8728 Q1811.3638,711.8728 1812.0112,712.0222 Q1812.6587,712.1716 1813.2231,712.4705 L1813.2231,715.1931 Q1812.5923,714.6121 1811.9988,714.3423 Q1811.4053,714.0725 1810.7744,714.0725 Q1809.4297,714.0725 1808.7449,715.1392 Q1808.0601,716.2058 1808.0601,718.3059 Q1808.0601,720.3977 1808.7449,721.4644 Q1809.4297,722.531 1810.7744,722.531 Q1811.4053,722.531 1811.9988,722.2612 Q1812.5923,721.9915 1813.2231,721.4104 Z " fill="#000000"/><text fill="#000000" font-family="sans-serif" font-size="14" lengthAdjust="spacing" textLength="78" x="1831.25" y="723.281">Milepeltype</text><line style="stroke:#181818;stroke-width:0.5;" x1="1763" x2="1945" y1="733.99" y2="733.99"/><ellipse cx="1773" cy="747.7341" fill="none" rx="3" ry="3" style="stroke:#038048;stroke-width:1.0;"/><text fill="#000000" font-family="sans-serif" font-size="14" lengthAdjust="spacing" textLength="116" x="1782" y="751.5252">kodeverdi: string</text><ellipse cx="1773" cy="764.2224" fill="none" rx="3" ry="3" style="stroke:#038048;stroke-width:1.0;"/><text fill="#000000" font-family="sans-serif" font-size="14" lengthAdjust="spacing" textLength="158" x="1782" y="768.0134">kodebeskrivelse: string</text><line style="stroke:#181818;stroke-width:0.5;" x1="1763" x2="1945" y1="774.9666" y2="774.9666"/></g><g id="elem_GMN38"><path d="M1739.5,458.7 L1739.5,529.9422 A0,0 0 0 0 1739.5,529.9422 L1850,529.9422 L1854,701.7 L1858,529.9422 L1968.5,529.9422 A0,0 0 0 0 1968.5,529.9422 L1968.5,468.7 L1958.5,458.7 L1739.5,458.7 A0,0 0 0 0 1739.5,458.7 " fill="#FEFFDD" style="stroke:#181818;stroke-width:0.5;"/><path d="M1958.5,458.7 L1958.5,468.7 L1968.5,468.7 L1958.5,458.7 " fill="#FEFFDD" style="stroke:#181818;stroke-width:0.5;"/><text fill="#000000" font-family="sans-serif" font-size="13" lengthAdjust="spacing" textLength="69" x="1745.5" y="476.2684">Eksempler:</text><text fill="#000000" font-family="sans-serif" font-size="13" lengthAdjust="spacing" textLength="201" x="1745.5" y="491.5789">Bestilling av oppstartsm&#248;te (BO)</text><text fill="#000000" font-family="sans-serif" font-size="13" lengthAdjust="spacing" textLength="208" x="1745.5" y="506.8895">Gjennomf&#248;rt oppstartsm&#248;te (OM)</text><text fill="#000000" font-family="sans-serif" font-size="13" lengthAdjust="spacing" textLength="137" x="1745.5" y="522.2">Mottak av planforslag</text></g><g id="elem_GMN41"><path d="M1308.5,729.82 L1308.5,755.1305 A0,0 0 0 0 1308.5,755.1305 L1507.5,755.1305 A0,0 0 0 0 1507.5,755.1305 L1507.5,739.82 L1497.5,729.82 L1403.16,729.82 L1316.47,617.68 L1395.16,729.82 L1308.5,729.82 A0,0 0 0 0 1308.5,729.82 " fill="#FEFFDD" style="stroke:#181818;stroke-width:0.5;"/><path d="M1497.5,729.82 L1497.5,739.82 L1507.5,739.82 L1497.5,729.82 " fill="#FEFFDD" style="stroke:#181818;stroke-width:0.5;"/><text fill="#000000" font-family="sans-serif" font-size="13" lengthAdjust="spacing" textLength="178" x="1314.5" y="747.3884">frist og utfoert ikke p&#229;krevd</text></g><!--class MilepelStatusEnum--><g id="elem_MilepelStatusEnum"><rect codeLine="48" fill="#F1F1F1" height="80.9766" id="MilepelStatusEnum" rx="2.5" ry="2.5" style="stroke:#181818;stroke-width:0.5;" width="162" x="707" y="701.99"/><ellipse cx="722" cy="717.99" fill="#EB937F" rx="11" ry="11" style="stroke:#181818;stroke-width:1.0;"/><path d="M725.6143,724.49 L717.8945,724.49 L717.8945,712.0969 L725.6143,712.0969 L725.6143,714.2551 L720.3433,714.2551 L720.3433,716.928 L725.1162,716.928 L725.1162,719.0862 L720.3433,719.0862 L720.3433,722.3318 L725.6143,722.3318 Z " fill="#000000"/><text fill="#000000" font-family="sans-serif" font-size="14" lengthAdjust="spacing" textLength="130" x="736" y="723.281">MilepelStatusEnum</text><line style="stroke:#181818;stroke-width:0.5;" x1="708" x2="868" y1="733.99" y2="733.99"/><ellipse cx="718" cy="747.7341" fill="none" rx="3" ry="3" style="stroke:#038048;stroke-width:1.0;"/><text fill="#000000" font-family="sans-serif" font-size="14" lengthAdjust="spacing" textLength="36" x="727" y="751.5252">N&#229;dd</text><ellipse cx="718" cy="764.2224" fill="none" rx="3" ry="3" style="stroke:#038048;stroke-width:1.0;"/><text fill="#000000" font-family="sans-serif" font-size="14" lengthAdjust="spacing" textLength="55" x="727" y="768.0134">Planlagt</text><line style="stroke:#181818;stroke-width:0.5;" x1="708" x2="868" y1="774.9666" y2="774.9666"/></g><!--class HentSaksfaseResultat--><g id="elem_HentSaksfaseResultat"><rect codeLine="5" fill="#F1F1F1" height="64.4883" id="HentSaksfaseResultat" rx="2.5" ry="2.5" style="stroke:#181818;stroke-width:0.5;" width="178" x="31" y="7"/><ellipse cx="46" cy="23" fill="#ADD1B2" rx="11" ry="11" style="stroke:#181818;stroke-width:1.0;"/><path d="M48.4731,29.1431 Q47.8921,29.4419 47.2529,29.5913 Q46.6138,29.7407 45.9082,29.7407 Q43.4014,29.7407 42.0815,28.0889 Q40.7617,26.437 40.7617,23.3159 Q40.7617,20.1865 42.0815,18.5347 Q43.4014,16.8828 45.9082,16.8828 Q46.6138,16.8828 47.2612,17.0322 Q47.9087,17.1816 48.4731,17.4805 L48.4731,20.2031 Q47.8423,19.6221 47.2488,19.3523 Q46.6553,19.0825 46.0244,19.0825 Q44.6797,19.0825 43.9949,20.1492 Q43.3101,21.2158 43.3101,23.3159 Q43.3101,25.4077 43.9949,26.4744 Q44.6797,27.541 46.0244,27.541 Q46.6553,27.541 47.2488,27.2712 Q47.8423,27.0015 48.4731,26.4204 Z " fill="#000000"/><text fill="#000000" font-family="sans-serif" font-size="14" lengthAdjust="spacing" textLength="146" x="60" y="28.291">HentSaksfaseResultat</text><line style="stroke:#181818;stroke-width:0.5;" x1="32" x2="208" y1="39" y2="39"/><ellipse cx="42" cy="52.7441" fill="none" rx="3" ry="3" style="stroke:#038048;stroke-width:1.0;"/><text fill="#000000" font-family="sans-serif" font-size="14" lengthAdjust="spacing" textLength="67" x="51" y="56.5352">fase: Fase</text><line style="stroke:#181818;stroke-width:0.5;" x1="32" x2="208" y1="63.4883" y2="63.4883"/></g><!--link Dokument to Dokumenttype--><g id="link_Dokument_Dokumenttype"><path codeLine="16" d="M1609.77,311.89 C1585.96,357.97 1557.98,412.1 1538.82,449.17 " fill="none" id="Dokument-Dokumenttype" style="stroke:#181818;stroke-width:1.0;"/></g><!--link Dokument to ReferanseDokumentfil--><g id="link_Dokument_ReferanseDokumentfil"><path codeLine="17" d="M1652.39,311.67 C1647.77,425.86 1639.96,618.83 1636.61,701.71 " fill="none" id="Dokument-ReferanseDokumentfil" style="stroke:#181818;stroke-width:1.0;"/></g><!--link Fase to Vedtak--><g id="link_Fase_Vedtak"><path codeLine="19" d="M252.59,303.35 C213.9,351.21 166.38,409.98 134.54,449.36 " fill="none" id="Fase-Vedtak" style="stroke:#181818;stroke-width:1.0;"/></g><!--link Fase to FaseStatusEnum--><g id="link_Fase_FaseStatusEnum"><path codeLine="20" d="M378.03,303.55 C394.27,325.55 411.83,349.37 428,371.39 C445.84,395.69 465.61,422.76 481.98,445.21 " fill="none" id="Fase-FaseStatusEnum" style="stroke:#181818;stroke-width:1.0;"/></g><!--link Fase to Fasekategori--><g id="link_Fase_Fasekategori"><path codeLine="21" d="M318,303.35 C318,351.21 318,409.98 318,449.36 " fill="none" id="Fase-Fasekategori" style="stroke:#181818;stroke-width:1.0;"/></g><!--link Milepel to Milepeltype--><g id="link_Milepel_Milepeltype"><path codeLine="25" d="M1388.96,609.78 C1394.63,612.44 1400.32,614.95 1406,617.25 C1547.79,674.76 1601.47,624.24 1745,677.25 C1762,683.53 1779.36,692.43 1795.09,701.61 " fill="none" id="Milepel-Milepeltype" style="stroke:#181818;stroke-width:1.0;"/></g><!--link Milepel to ReferanseJournalpost--><g id="link_Milepel_ReferanseJournalpost"><path codeLine="37" d="M1157.9,617.68 C1146.49,638.19 1135.05,658.73 1124.88,677.01 " fill="none" id="Milepel-ReferanseJournalpost" style="stroke:#181818;stroke-width:1.0;"/></g><!--link Milepel to ReferanseDokumentfil--><g id="link_Milepel_ReferanseDokumentfil"><path codeLine="38" d="M1388.76,606.91 C1394.55,610.45 1400.3,613.91 1406,617.25 C1457.07,647.26 1472.96,648.98 1525,677.25 C1539.09,684.91 1554.02,693.38 1568.18,701.59 " fill="none" id="Milepel-ReferanseDokumentfil" style="stroke:#181818;stroke-width:1.0;"/></g><!--link Milepel to MilepelStatusEnum--><g id="link_Milepel_MilepelStatusEnum"><path codeLine="43" d="M1063.25,579.15 C1006.87,609.12 943.63,643.77 887,677.25 C874.13,684.87 860.54,693.36 847.71,701.61 " fill="none" id="Milepel-MilepelStatusEnum" style="stroke:#181818;stroke-width:1.0;"/></g><!--link ReferanseJournalpost to EksternNoekkel--><g id="link_ReferanseJournalpost_EksternNoekkel"><path codeLine="44" d="M1002.33,807.99 C971.86,830.67 938.53,855.48 911.58,875.54 " fill="none" id="ReferanseJournalpost-EksternNoekkel" style="stroke:#181818;stroke-width:1.0;"/></g><!--link ReferanseJournalpost to SaksJournalpostnummer--><g id="link_ReferanseJournalpost_SaksJournalpostnummer"><path codeLine="45" d="M1191.81,807.99 C1223.09,827.62 1256.91,848.85 1286.17,867.21 " fill="none" id="ReferanseJournalpost-SaksJournalpostnummer" style="stroke:#181818;stroke-width:1.0;"/></g><!--link ReferanseJournalpost to Journalnummer--><g id="link_ReferanseJournalpost_Journalnummer"><path codeLine="46" d="M1089,807.99 C1089,830.67 1089,855.48 1089,875.54 " fill="none" id="ReferanseJournalpost-Journalnummer" style="stroke:#181818;stroke-width:1.0;"/></g><!--link HentSaksfaseResultat to Fase--><g id="link_HentSaksfaseResultat_Fase"><path codeLine="9" d="M154.49,71.63 C175.21,90.49 202.6,115.42 229.04,139.48 " fill="none" id="HentSaksfaseResultat-Fase" style="stroke:#181818;stroke-width:1.0;"/></g><!--link Fase to Dokument--><g id="link_Fase_Dokument"><path codeLine="11" d="M391.02,139.49 C409.4,123.97 430.28,109.96 452.5,101.49 C556.43,61.88 1346.23,72.1 1453.5,101.49 C1478.13,108.24 1492.1704,113.2712 1515.4004,125.4412 " fill="none" id="Fase-to-Dokument" style="stroke:#181818;stroke-width:1.0;"/><polygon fill="#181818" points="1526.03,131.01,1522.5714,124.6824,1515.4004,125.4412,1518.8589,131.7688,1526.03,131.01" style="stroke:#181818;stroke-width:1.0;"/></g><!--link Fase to Milepel--><g id="link_Fase_Milepel"><path codeLine="12" d="M417.76,302.41 C423.46,305.66 429.22,308.69 435,311.39 C544.98,362.91 865.48,427.54 1063.14,464.26 " fill="none" id="Fase-Milepel" style="stroke:#181818;stroke-width:1.0;"/></g><!--SRC=[fOyz3i8m38Ltdy9TGN74oemG2mkS86fS5DNzKPsm8EvEGhF1Wl3m93_Rd-qcZAqapqYMo8uJzKfToAAkryufBtJVKSSYhEIdFWqyHjkAK_N1tHOtq9oW-OLIyly8Gn2UMJuWy3Rmb4-yrh4BQvBe8Zu0SsoBjyTZLdW2VEqqPgr3KJGRFDItgs7mlEw75m00]--></g></svg>