<svg xmlns="http://www.w3.org/2000/svg" xmlns:xlink="http://www.w3.org/1999/xlink" contentStyleType="text/css" height="790px" preserveAspectRatio="none" style="width:1337px;height:790px;background:#FFFFFF;" version="1.1" viewBox="0 0 1337 790" width="1337px" zoomAndPan="magnify"><defs/><g><!--class HentSaksfaseResultat--><g id="elem_HentSaksfaseResultat"><rect codeLine="2" fill="#F1F1F1" height="64.4883" id="HentSaksfaseResultat" rx="2.5" ry="2.5" style="stroke:#181818;stroke-width:0.5;" width="178" x="627.5" y="7"/><ellipse cx="642.5" cy="23" fill="#ADD1B2" rx="11" ry="11" style="stroke:#181818;stroke-width:1.0;"/><path d="M644.9731,29.1431 Q644.3921,29.4419 643.7529,29.5913 Q643.1138,29.7407 642.4082,29.7407 Q639.9014,29.7407 638.5815,28.0889 Q637.2617,26.437 637.2617,23.3159 Q637.2617,20.1865 638.5815,18.5347 Q639.9014,16.8828 642.4082,16.8828 Q643.1138,16.8828 643.7612,17.0322 Q644.4087,17.1816 644.9731,17.4805 L644.9731,20.2031 Q644.3423,19.6221 643.7488,19.3523 Q643.1553,19.0825 642.5244,19.0825 Q641.1797,19.0825 640.4949,20.1492 Q639.8101,21.2158 639.8101,23.3159 Q639.8101,25.4077 640.4949,26.4744 Q641.1797,27.541 642.5244,27.541 Q643.1553,27.541 643.7488,27.2712 Q644.3423,27.0015 644.9731,26.4204 Z " fill="#000000"/><text fill="#000000" font-family="sans-serif" font-size="14" lengthAdjust="spacing" textLength="146" x="656.5" y="28.291">HentSaksfaseResultat</text><line style="stroke:#181818;stroke-width:0.5;" x1="628.5" x2="804.5" y1="39" y2="39"/><ellipse cx="638.5" cy="52.7441" fill="none" rx="3" ry="3" style="stroke:#038048;stroke-width:1.0;"/><text fill="#000000" font-family="sans-serif" font-size="14" lengthAdjust="spacing" textLength="67" x="647.5" y="56.5352">fase: Fase</text><line style="stroke:#181818;stroke-width:0.5;" x1="628.5" x2="804.5" y1="63.4883" y2="63.4883"/></g><!--class Fase--><g id="elem_Fase"><rect codeLine="8" fill="#F1F1F1" height="163.418" id="Fase" rx="2.5" ry="2.5" style="stroke:#181818;stroke-width:0.5;" width="199" x="617" y="131.49"/><ellipse cx="696.75" cy="147.49" fill="#ADD1B2" rx="11" ry="11" style="stroke:#181818;stroke-width:1.0;"/><path d="M699.2231,153.6331 Q698.6421,153.9319 698.0029,154.0813 Q697.3638,154.2307 696.6582,154.2307 Q694.1514,154.2307 692.8315,152.5789 Q691.5117,150.927 691.5117,147.8059 Q691.5117,144.6765 692.8315,143.0247 Q694.1514,141.3728 696.6582,141.3728 Q697.3638,141.3728 698.0112,141.5222 Q698.6587,141.6716 699.2231,141.9705 L699.2231,144.6931 Q698.5923,144.1121 697.9988,143.8423 Q697.4053,143.5725 696.7744,143.5725 Q695.4297,143.5725 694.7449,144.6392 Q694.0601,145.7058 694.0601,147.8059 Q694.0601,149.8977 694.7449,150.9644 Q695.4297,152.031 696.7744,152.031 Q697.4053,152.031 697.9988,151.7612 Q698.5923,151.4915 699.2231,150.9104 Z " fill="#000000"/><text fill="#000000" font-family="sans-serif" font-size="14" lengthAdjust="spacing" textLength="31" x="717.25" y="152.781">Fase</text><line style="stroke:#181818;stroke-width:0.5;" x1="618" x2="815" y1="163.49" y2="163.49"/><ellipse cx="628" cy="177.2341" fill="none" rx="3" ry="3" style="stroke:#038048;stroke-width:1.0;"/><text fill="#000000" font-family="sans-serif" font-size="14" lengthAdjust="spacing" textLength="109" x="637" y="181.0252">fasenavn: string</text><ellipse cx="628" cy="193.7224" fill="none" rx="3" ry="3" style="stroke:#038048;stroke-width:1.0;"/><text fill="#000000" font-family="sans-serif" font-size="14" lengthAdjust="spacing" textLength="89" x="637" y="197.5134">faseid: string</text><ellipse cx="628" cy="210.2107" fill="none" rx="3" ry="3" style="stroke:#038048;stroke-width:1.0;"/><text fill="#000000" font-family="sans-serif" font-size="14" lengthAdjust="spacing" textLength="153" x="637" y="214.0017">kategori: Fasekategori</text><ellipse cx="628" cy="226.699" fill="none" rx="3" ry="3" style="stroke:#038048;stroke-width:1.0;"/><text fill="#000000" font-family="sans-serif" font-size="14" lengthAdjust="spacing" textLength="131" x="637" y="230.49">milepeler: Milepel[]</text><ellipse cx="628" cy="243.1873" fill="none" rx="3" ry="3" style="stroke:#038048;stroke-width:1.0;"/><text fill="#000000" font-family="sans-serif" font-size="14" lengthAdjust="spacing" textLength="161" x="637" y="246.9783">status: FaseStatusEnum</text><ellipse cx="628" cy="259.6755" fill="none" rx="3" ry="3" style="stroke:#038048;stroke-width:1.0;"/><text fill="#000000" font-family="sans-serif" font-size="14" lengthAdjust="spacing" textLength="100" x="637" y="263.4666">vedtak: Vedtak</text><ellipse cx="628" cy="276.1638" fill="none" rx="3" ry="3" style="stroke:#038048;stroke-width:1.0;"/><text fill="#000000" font-family="sans-serif" font-size="14" lengthAdjust="spacing" textLength="173" x="637" y="279.9548">dokumenter: Dokument[]</text><line style="stroke:#181818;stroke-width:0.5;" x1="618" x2="815" y1="286.908" y2="286.908"/></g><!--class Dokument--><g id="elem_Dokument"><rect codeLine="72" fill="#F1F1F1" height="179.9063" id="Dokument" rx="2.5" ry="2.5" style="stroke:#181818;stroke-width:0.5;" width="335" x="962" y="404.37"/><ellipse cx="1089.75" cy="420.37" fill="#ADD1B2" rx="11" ry="11" style="stroke:#181818;stroke-width:1.0;"/><path d="M1092.2231,426.5131 Q1091.6421,426.8119 1091.0029,426.9613 Q1090.3638,427.1107 1089.6582,427.1107 Q1087.1514,427.1107 1085.8315,425.4589 Q1084.5117,423.807 1084.5117,420.6859 Q1084.5117,417.5565 1085.8315,415.9047 Q1087.1514,414.2528 1089.6582,414.2528 Q1090.3638,414.2528 1091.0112,414.4022 Q1091.6587,414.5516 1092.2231,414.8505 L1092.2231,417.5731 Q1091.5923,416.9921 1090.9988,416.7223 Q1090.4053,416.4525 1089.7744,416.4525 Q1088.4297,416.4525 1087.7449,417.5192 Q1087.0601,418.5858 1087.0601,420.6859 Q1087.0601,422.7777 1087.7449,423.8444 Q1088.4297,424.911 1089.7744,424.911 Q1090.4053,424.911 1090.9988,424.6412 Q1091.5923,424.3715 1092.2231,423.7904 Z " fill="#000000"/><text fill="#000000" font-family="sans-serif" font-size="14" lengthAdjust="spacing" textLength="71" x="1110.25" y="425.661">Dokument</text><line style="stroke:#181818;stroke-width:0.5;" x1="963" x2="1296" y1="436.37" y2="436.37"/><ellipse cx="973" cy="450.1141" fill="none" rx="3" ry="3" style="stroke:#038048;stroke-width:1.0;"/><text fill="#000000" font-family="sans-serif" font-size="14" lengthAdjust="spacing" textLength="61" x="982" y="453.9052">id: string</text><ellipse cx="973" cy="466.6024" fill="none" rx="3" ry="3" style="stroke:#038048;stroke-width:1.0;"/><text fill="#000000" font-family="sans-serif" font-size="14" lengthAdjust="spacing" textLength="79" x="982" y="470.3934">tittel: string</text><ellipse cx="973" cy="483.0907" fill="none" rx="3" ry="3" style="stroke:#038048;stroke-width:1.0;"/><text fill="#000000" font-family="sans-serif" font-size="14" lengthAdjust="spacing" textLength="94" x="982" y="486.8817">filnavn: string</text><ellipse cx="973" cy="499.579" fill="none" rx="3" ry="3" style="stroke:#038048;stroke-width:1.0;"/><text fill="#000000" font-family="sans-serif" font-size="14" lengthAdjust="spacing" textLength="207" x="982" y="503.37">dokumenttype: Dokumenttype</text><ellipse cx="973" cy="516.0673" fill="none" rx="3" ry="3" style="stroke:#038048;stroke-width:1.0;"/><text fill="#000000" font-family="sans-serif" font-size="14" lengthAdjust="spacing" textLength="309" x="982" y="519.8583">referanseDokumentfil: ReferanseDokumentfil</text><ellipse cx="973" cy="532.5555" fill="none" rx="3" ry="3" style="stroke:#038048;stroke-width:1.0;"/><text fill="#000000" font-family="sans-serif" font-size="14" lengthAdjust="spacing" textLength="115" x="982" y="536.3466">mimetype: string</text><ellipse cx="973" cy="549.0438" fill="none" rx="3" ry="3" style="stroke:#038048;stroke-width:1.0;"/><text fill="#000000" font-family="sans-serif" font-size="14" lengthAdjust="spacing" textLength="146" x="982" y="552.8348">dokumentsdato: date</text><ellipse cx="973" cy="565.5321" fill="none" rx="3" ry="3" style="stroke:#038048;stroke-width:1.0;"/><text fill="#000000" font-family="sans-serif" font-size="14" lengthAdjust="spacing" textLength="114" x="982" y="569.3231">arkivnavn: string</text><line style="stroke:#181818;stroke-width:0.5;" x1="963" x2="1296" y1="576.2763" y2="576.2763"/></g><!--class Milepel--><g id="elem_Milepel"><rect codeLine="35" fill="#F1F1F1" height="278.8359" id="Milepel" rx="2.5" ry="2.5" style="stroke:#181818;stroke-width:0.5;" width="218" x="489.5" y="354.91"/><ellipse cx="569.75" cy="370.91" fill="#ADD1B2" rx="11" ry="11" style="stroke:#181818;stroke-width:1.0;"/><path d="M572.2231,377.0531 Q571.6421,377.3519 571.0029,377.5013 Q570.3638,377.6507 569.6582,377.6507 Q567.1514,377.6507 565.8315,375.9989 Q564.5117,374.347 564.5117,371.2259 Q564.5117,368.0965 565.8315,366.4447 Q567.1514,364.7928 569.6582,364.7928 Q570.3638,364.7928 571.0112,364.9422 Q571.6587,365.0916 572.2231,365.3905 L572.2231,368.1131 Q571.5923,367.5321 570.9988,367.2623 Q570.4053,366.9925 569.7744,366.9925 Q568.4297,366.9925 567.7449,368.0592 Q567.0601,369.1258 567.0601,371.2259 Q567.0601,373.3177 567.7449,374.3844 Q568.4297,375.451 569.7744,375.451 Q570.4053,375.451 570.9988,375.1812 Q571.5923,374.9115 572.2231,374.3304 Z " fill="#000000"/><text fill="#000000" font-family="sans-serif" font-size="14" lengthAdjust="spacing" textLength="49" x="590.25" y="376.201">Milepel</text><line style="stroke:#181818;stroke-width:0.5;" x1="490.5" x2="706.5" y1="386.91" y2="386.91"/><ellipse cx="500.5" cy="400.6541" fill="none" rx="3" ry="3" style="stroke:#038048;stroke-width:1.0;"/><text fill="#000000" font-family="sans-serif" font-size="14" lengthAdjust="spacing" textLength="108" x="509.5" y="404.4452">systemId: string</text><ellipse cx="500.5" cy="417.1424" fill="none" rx="3" ry="3" style="stroke:#038048;stroke-width:1.0;"/><text fill="#000000" font-family="sans-serif" font-size="14" lengthAdjust="spacing" textLength="124" x="509.5" y="420.9334">beskrivelse: string</text><ellipse cx="500.5" cy="433.6307" fill="none" rx="3" ry="3" style="stroke:#038048;stroke-width:1.0;"/><text fill="#000000" font-family="sans-serif" font-size="14" lengthAdjust="spacing" textLength="143" x="509.5" y="437.4217">kategori: Milepeltype</text><ellipse cx="500.5" cy="450.119" fill="none" rx="3" ry="3" style="stroke:#038048;stroke-width:1.0;"/><text fill="#000000" font-family="sans-serif" font-size="14" lengthAdjust="spacing" textLength="65" x="509.5" y="453.91">frist: date</text><ellipse cx="500.5" cy="466.6073" fill="none" rx="3" ry="3" style="stroke:#038048;stroke-width:1.0;"/><text fill="#000000" font-family="sans-serif" font-size="14" lengthAdjust="spacing" textLength="85" x="509.5" y="470.3983">utfoert: date</text><ellipse cx="500.5" cy="483.0955" fill="none" rx="3" ry="3" style="stroke:#038048;stroke-width:1.0;"/><text fill="#000000" font-family="sans-serif" font-size="14" lengthAdjust="spacing" textLength="118" x="509.5" y="486.8866">journaldato: date</text><ellipse cx="500.5" cy="499.5838" fill="none" rx="3" ry="3" style="stroke:#038048;stroke-width:1.0;"/><text fill="#000000" font-family="sans-serif" font-size="14" lengthAdjust="spacing" textLength="105" x="509.5" y="503.3748">intern: boolean</text><ellipse cx="500.5" cy="516.0721" fill="none" rx="3" ry="3" style="stroke:#038048;stroke-width:1.0;"/><text fill="#000000" font-family="sans-serif" font-size="14" lengthAdjust="spacing" textLength="192" x="509.5" y="519.8631">referanseJournalpost: string</text><ellipse cx="500.5" cy="532.5604" fill="none" rx="3" ry="3" style="stroke:#038048;stroke-width:1.0;"/><text fill="#000000" font-family="sans-serif" font-size="14" lengthAdjust="spacing" textLength="184" x="509.5" y="536.3514">referanseDokument: string</text><ellipse cx="500.5" cy="549.0487" fill="none" rx="3" ry="3" style="stroke:#038048;stroke-width:1.0;"/><text fill="#000000" font-family="sans-serif" font-size="14" lengthAdjust="spacing" textLength="110" x="509.5" y="552.8397">erStart: boolean</text><ellipse cx="500.5" cy="565.537" fill="none" rx="3" ry="3" style="stroke:#038048;stroke-width:1.0;"/><text fill="#000000" font-family="sans-serif" font-size="14" lengthAdjust="spacing" textLength="109" x="509.5" y="569.328">erSlutt: boolean</text><ellipse cx="500.5" cy="582.0252" fill="none" rx="3" ry="3" style="stroke:#038048;stroke-width:1.0;"/><text fill="#000000" font-family="sans-serif" font-size="14" lengthAdjust="spacing" textLength="179" x="509.5" y="585.8163">status: MilepelStatusEnum</text><ellipse cx="500.5" cy="598.5135" fill="none" rx="3" ry="3" style="stroke:#038048;stroke-width:1.0;"/><text fill="#000000" font-family="sans-serif" font-size="14" lengthAdjust="spacing" textLength="122" x="509.5" y="602.3045">erGlobal: boolean</text><ellipse cx="500.5" cy="615.0018" fill="none" rx="3" ry="3" style="stroke:#038048;stroke-width:1.0;"/><text fill="#000000" font-family="sans-serif" font-size="14" lengthAdjust="spacing" textLength="173" x="509.5" y="618.7928">dokumenter: Dokument[]</text><line style="stroke:#181818;stroke-width:0.5;" x1="490.5" x2="706.5" y1="625.7459" y2="625.7459"/></g><!--class Fasekategori--><g id="elem_Fasekategori"><rect codeLine="30" fill="#F1F1F1" height="89.5977" id="Fasekategori" rx="2.5" ry="2.5" style="stroke:#181818;stroke-width:0.5;" width="184" x="742.5" y="449.53"/><ellipse cx="786.3" cy="469.8405" fill="#ADD1B2" rx="11" ry="11" style="stroke:#181818;stroke-width:1.0;"/><path d="M788.7731,475.9836 Q788.1921,476.2824 787.5529,476.4319 Q786.9138,476.5813 786.2082,476.5813 Q783.7014,476.5813 782.3815,474.9294 Q781.0617,473.2776 781.0617,470.1565 Q781.0617,467.0271 782.3815,465.3752 Q783.7014,463.7234 786.2082,463.7234 Q786.9138,463.7234 787.5612,463.8728 Q788.2087,464.0222 788.7731,464.321 L788.7731,467.0437 Q788.1423,466.4626 787.5488,466.1928 Q786.9553,465.9231 786.3244,465.9231 Q784.9797,465.9231 784.2949,466.9897 Q783.6101,468.0564 783.6101,470.1565 Q783.6101,472.2483 784.2949,473.3149 Q784.9797,474.3816 786.3244,474.3816 Q786.9553,474.3816 787.5488,474.1118 Q788.1423,473.842 788.7731,473.261 Z " fill="#000000"/><text fill="#000000" font-family="sans-serif" font-size="12" font-style="italic" lengthAdjust="spacing" textLength="42" x="829.7" y="466.1316">&#171;Kode&#187;</text><text fill="#000000" font-family="sans-serif" font-size="14" lengthAdjust="spacing" textLength="88" x="806.7" y="482.198">Fasekategori</text><line style="stroke:#181818;stroke-width:0.5;" x1="743.5" x2="925.5" y1="490.1511" y2="490.1511"/><ellipse cx="753.5" cy="503.8952" fill="none" rx="3" ry="3" style="stroke:#038048;stroke-width:1.0;"/><text fill="#000000" font-family="sans-serif" font-size="14" lengthAdjust="spacing" textLength="116" x="762.5" y="507.6863">kodeverdi: string</text><ellipse cx="753.5" cy="520.3835" fill="none" rx="3" ry="3" style="stroke:#038048;stroke-width:1.0;"/><text fill="#000000" font-family="sans-serif" font-size="14" lengthAdjust="spacing" textLength="158" x="762.5" y="524.1745">kodebeskrivelse: string</text><line style="stroke:#181818;stroke-width:0.5;" x1="743.5" x2="925.5" y1="531.1277" y2="531.1277"/></g><!--class Vedtak--><g id="elem_Vedtak"><rect codeLine="25" fill="#F1F1F1" height="89.5977" id="Vedtak" rx="2.5" ry="2.5" style="stroke:#181818;stroke-width:0.5;" width="184" x="270.5" y="449.53"/><ellipse cx="334.75" cy="469.8405" fill="#ADD1B2" rx="11" ry="11" style="stroke:#181818;stroke-width:1.0;"/><path d="M337.2231,475.9836 Q336.6421,476.2824 336.0029,476.4319 Q335.3638,476.5813 334.6582,476.5813 Q332.1514,476.5813 330.8315,474.9294 Q329.5117,473.2776 329.5117,470.1565 Q329.5117,467.0271 330.8315,465.3752 Q332.1514,463.7234 334.6582,463.7234 Q335.3638,463.7234 336.0112,463.8728 Q336.6587,464.0222 337.2231,464.321 L337.2231,467.0437 Q336.5923,466.4626 335.9988,466.1928 Q335.4053,465.9231 334.7744,465.9231 Q333.4297,465.9231 332.7449,466.9897 Q332.0601,468.0564 332.0601,470.1565 Q332.0601,472.2483 332.7449,473.3149 Q333.4297,474.3816 334.7744,474.3816 Q335.4053,474.3816 335.9988,474.1118 Q336.5923,473.842 337.2231,473.261 Z " fill="#000000"/><text fill="#000000" font-family="sans-serif" font-size="12" font-style="italic" lengthAdjust="spacing" textLength="42" x="357.75" y="466.1316">&#171;Kode&#187;</text><text fill="#000000" font-family="sans-serif" font-size="14" lengthAdjust="spacing" textLength="47" x="355.25" y="482.198">Vedtak</text><line style="stroke:#181818;stroke-width:0.5;" x1="271.5" x2="453.5" y1="490.1511" y2="490.1511"/><ellipse cx="281.5" cy="503.8952" fill="none" rx="3" ry="3" style="stroke:#038048;stroke-width:1.0;"/><text fill="#000000" font-family="sans-serif" font-size="14" lengthAdjust="spacing" textLength="116" x="290.5" y="507.6863">kodeverdi: string</text><ellipse cx="281.5" cy="520.3835" fill="none" rx="3" ry="3" style="stroke:#038048;stroke-width:1.0;"/><text fill="#000000" font-family="sans-serif" font-size="14" lengthAdjust="spacing" textLength="158" x="290.5" y="524.1745">kodebeskrivelse: string</text><line style="stroke:#181818;stroke-width:0.5;" x1="271.5" x2="453.5" y1="531.1277" y2="531.1277"/></g><g id="elem_GMN13"><path d="M303.5,169.92 L303.5,256.4727 A0,0 0 0 0 303.5,256.4727 L358.5,256.4727 L362.5,449.25 L366.5,256.4727 L421.5,256.4727 A0,0 0 0 0 421.5,256.4727 L421.5,179.92 L411.5,169.92 L303.5,169.92 A0,0 0 0 0 303.5,169.92 " fill="#FEFFDD" style="stroke:#181818;stroke-width:0.5;"/><path d="M411.5,169.92 L411.5,179.92 L421.5,179.92 L411.5,169.92 " fill="#FEFFDD" style="stroke:#181818;stroke-width:0.5;"/><text fill="#000000" font-family="sans-serif" font-size="13" lengthAdjust="spacing" textLength="69" x="309.5" y="187.4884">Eksempler:</text><text fill="#000000" font-family="sans-serif" font-size="13" lengthAdjust="spacing" textLength="56" x="309.5" y="202.7989">godkjent</text><text fill="#000000" font-family="sans-serif" font-size="13" lengthAdjust="spacing" textLength="97" x="309.5" y="218.1095">delvis godkjent</text><text fill="#000000" font-family="sans-serif" font-size="13" lengthAdjust="spacing" textLength="42" x="309.5" y="233.42">avsl&#229;tt</text><text fill="#000000" font-family="sans-serif" font-size="13" lengthAdjust="spacing" textLength="37" x="309.5" y="248.7305">avvist</text></g><!--class Milepeltype--><g id="elem_Milepeltype"><rect codeLine="56" fill="#F1F1F1" height="89.5977" id="Milepeltype" rx="2.5" ry="2.5" style="stroke:#181818;stroke-width:0.5;" width="184" x="163.5" y="693.74"/><ellipse cx="212.25" cy="714.0505" fill="#ADD1B2" rx="11" ry="11" style="stroke:#181818;stroke-width:1.0;"/><path d="M214.7231,720.1936 Q214.1421,720.4924 213.5029,720.6419 Q212.8638,720.7913 212.1582,720.7913 Q209.6514,720.7913 208.3315,719.1394 Q207.0117,717.4876 207.0117,714.3665 Q207.0117,711.2371 208.3315,709.5852 Q209.6514,707.9334 212.1582,707.9334 Q212.8638,707.9334 213.5112,708.0828 Q214.1587,708.2322 214.7231,708.531 L214.7231,711.2537 Q214.0923,710.6726 213.4988,710.4028 Q212.9053,710.1331 212.2744,710.1331 Q210.9297,710.1331 210.2449,711.1997 Q209.5601,712.2664 209.5601,714.3665 Q209.5601,716.4583 210.2449,717.5249 Q210.9297,718.5916 212.2744,718.5916 Q212.9053,718.5916 213.4988,718.3218 Q214.0923,718.052 214.7231,717.471 Z " fill="#000000"/><text fill="#000000" font-family="sans-serif" font-size="12" font-style="italic" lengthAdjust="spacing" textLength="42" x="250.75" y="710.3416">&#171;Kode&#187;</text><text fill="#000000" font-family="sans-serif" font-size="14" lengthAdjust="spacing" textLength="78" x="232.75" y="726.408">Milepeltype</text><line style="stroke:#181818;stroke-width:0.5;" x1="164.5" x2="346.5" y1="734.3611" y2="734.3611"/><ellipse cx="174.5" cy="748.1052" fill="none" rx="3" ry="3" style="stroke:#038048;stroke-width:1.0;"/><text fill="#000000" font-family="sans-serif" font-size="14" lengthAdjust="spacing" textLength="116" x="183.5" y="751.8963">kodeverdi: string</text><ellipse cx="174.5" cy="764.5935" fill="none" rx="3" ry="3" style="stroke:#038048;stroke-width:1.0;"/><text fill="#000000" font-family="sans-serif" font-size="14" lengthAdjust="spacing" textLength="158" x="183.5" y="768.3845">kodebeskrivelse: string</text><line style="stroke:#181818;stroke-width:0.5;" x1="164.5" x2="346.5" y1="775.3377" y2="775.3377"/></g><g id="elem_GMN18"><path d="M6,458.7 L6,529.9422 A0,0 0 0 0 6,529.9422 L135.99,529.9422 L230.98,693.56 L143.99,529.9422 L235,529.9422 A0,0 0 0 0 235,529.9422 L235,468.7 L225,458.7 L6,458.7 A0,0 0 0 0 6,458.7 " fill="#FEFFDD" style="stroke:#181818;stroke-width:0.5;"/><path d="M225,458.7 L225,468.7 L235,468.7 L225,458.7 " fill="#FEFFDD" style="stroke:#181818;stroke-width:0.5;"/><text fill="#000000" font-family="sans-serif" font-size="13" lengthAdjust="spacing" textLength="69" x="12" y="476.2684">Eksempler:</text><text fill="#000000" font-family="sans-serif" font-size="13" lengthAdjust="spacing" textLength="201" x="12" y="491.5789">Bestilling av oppstartsm&#248;te (BO)</text><text fill="#000000" font-family="sans-serif" font-size="13" lengthAdjust="spacing" textLength="208" x="12" y="506.8895">Gjennomf&#248;rt oppstartsm&#248;te (OM)</text><text fill="#000000" font-family="sans-serif" font-size="13" lengthAdjust="spacing" textLength="137" x="12" y="522.2">Mottak av planforslag</text></g><!--class MilepelStatusEnum--><g id="elem_MilepelStatusEnum"><rect codeLine="65" fill="#F1F1F1" height="80.9766" id="MilepelStatusEnum" rx="2.5" ry="2.5" style="stroke:#181818;stroke-width:0.5;" width="162" x="517.5" y="698.05"/><ellipse cx="532.5" cy="714.05" fill="#EB937F" rx="11" ry="11" style="stroke:#181818;stroke-width:1.0;"/><path d="M536.1143,720.55 L528.3945,720.55 L528.3945,708.1569 L536.1143,708.1569 L536.1143,710.3151 L530.8433,710.3151 L530.8433,712.988 L535.6162,712.988 L535.6162,715.1462 L530.8433,715.1462 L530.8433,718.3918 L536.1143,718.3918 Z " fill="#000000"/><text fill="#000000" font-family="sans-serif" font-size="14" lengthAdjust="spacing" textLength="130" x="546.5" y="719.341">MilepelStatusEnum</text><line style="stroke:#181818;stroke-width:0.5;" x1="518.5" x2="678.5" y1="730.05" y2="730.05"/><ellipse cx="528.5" cy="743.7941" fill="none" rx="3" ry="3" style="stroke:#038048;stroke-width:1.0;"/><text fill="#000000" font-family="sans-serif" font-size="14" lengthAdjust="spacing" textLength="36" x="537.5" y="747.5852">N&#229;dd</text><ellipse cx="528.5" cy="760.2824" fill="none" rx="3" ry="3" style="stroke:#038048;stroke-width:1.0;"/><text fill="#000000" font-family="sans-serif" font-size="14" lengthAdjust="spacing" textLength="55" x="537.5" y="764.0734">Planlagt</text><line style="stroke:#181818;stroke-width:0.5;" x1="518.5" x2="678.5" y1="771.0266" y2="771.0266"/></g><g id="elem_GMN24"><path d="M1024,200.54 L1024,225.8505 A0,0 0 0 0 1024,225.8505 L1125.5,225.8505 L1129.5,403.95 L1133.5,225.8505 L1235,225.8505 A0,0 0 0 0 1235,225.8505 L1235,210.54 L1225,200.54 L1024,200.54 A0,0 0 0 0 1024,200.54 " fill="#FEFFDD" style="stroke:#181818;stroke-width:0.5;"/><path d="M1225,200.54 L1225,210.54 L1235,210.54 L1225,200.54 " fill="#FEFFDD" style="stroke:#181818;stroke-width:0.5;"/><text fill="#000000" font-family="sans-serif" font-size="13" lengthAdjust="spacing" textLength="190" x="1030" y="218.1084">Hentet definisjon fra Fiks Plan</text></g><!--class Dokumenttype--><g id="elem_Dokumenttype"><rect codeLine="86" fill="#F1F1F1" height="89.5977" id="Dokumenttype" rx="2.5" ry="2.5" style="stroke:#181818;stroke-width:0.5;" width="184" x="927.5" y="693.74"/><ellipse cx="965.9" cy="714.0505" fill="#ADD1B2" rx="11" ry="11" style="stroke:#181818;stroke-width:1.0;"/><path d="M968.3731,720.1936 Q967.7921,720.4924 967.1529,720.6419 Q966.5138,720.7913 965.8082,720.7913 Q963.3014,720.7913 961.9815,719.1394 Q960.6617,717.4876 960.6617,714.3665 Q960.6617,711.2371 961.9815,709.5852 Q963.3014,707.9334 965.8082,707.9334 Q966.5138,707.9334 967.1612,708.0828 Q967.8087,708.2322 968.3731,708.531 L968.3731,711.2537 Q967.7423,710.6726 967.1488,710.4028 Q966.5553,710.1331 965.9244,710.1331 Q964.5797,710.1331 963.8949,711.1997 Q963.2101,712.2664 963.2101,714.3665 Q963.2101,716.4583 963.8949,717.5249 Q964.5797,718.5916 965.9244,718.5916 Q966.5553,718.5916 967.1488,718.3218 Q967.7423,718.052 968.3731,717.471 Z " fill="#000000"/><text fill="#000000" font-family="sans-serif" font-size="12" font-style="italic" lengthAdjust="spacing" textLength="42" x="1014.1" y="710.3416">&#171;Kode&#187;</text><text fill="#000000" font-family="sans-serif" font-size="14" lengthAdjust="spacing" textLength="100" x="985.1" y="726.408">Dokumenttype</text><line style="stroke:#181818;stroke-width:0.5;" x1="928.5" x2="1110.5" y1="734.3611" y2="734.3611"/><ellipse cx="938.5" cy="748.1052" fill="none" rx="3" ry="3" style="stroke:#038048;stroke-width:1.0;"/><text fill="#000000" font-family="sans-serif" font-size="14" lengthAdjust="spacing" textLength="116" x="947.5" y="751.8963">kodeverdi: string</text><ellipse cx="938.5" cy="764.5935" fill="none" rx="3" ry="3" style="stroke:#038048;stroke-width:1.0;"/><text fill="#000000" font-family="sans-serif" font-size="14" lengthAdjust="spacing" textLength="158" x="947.5" y="768.3845">kodebeskrivelse: string</text><line style="stroke:#181818;stroke-width:0.5;" x1="928.5" x2="1110.5" y1="775.3377" y2="775.3377"/></g><!--class ReferanseDokumentfil--><g id="elem_ReferanseDokumentfil"><rect codeLine="91" fill="#F1F1F1" height="80.9766" id="ReferanseDokumentfil" rx="2.5" ry="2.5" style="stroke:#181818;stroke-width:0.5;" width="184" x="1146.5" y="698.05"/><ellipse cx="1161.5" cy="714.05" fill="#ADD1B2" rx="11" ry="11" style="stroke:#181818;stroke-width:1.0;"/><path d="M1163.9731,720.1931 Q1163.3921,720.4919 1162.7529,720.6413 Q1162.1138,720.7907 1161.4082,720.7907 Q1158.9014,720.7907 1157.5815,719.1389 Q1156.2617,717.487 1156.2617,714.3659 Q1156.2617,711.2365 1157.5815,709.5847 Q1158.9014,707.9328 1161.4082,707.9328 Q1162.1138,707.9328 1162.7612,708.0822 Q1163.4087,708.2316 1163.9731,708.5305 L1163.9731,711.2531 Q1163.3423,710.6721 1162.7488,710.4023 Q1162.1553,710.1325 1161.5244,710.1325 Q1160.1797,710.1325 1159.4949,711.1992 Q1158.8101,712.2658 1158.8101,714.3659 Q1158.8101,716.4577 1159.4949,717.5244 Q1160.1797,718.591 1161.5244,718.591 Q1162.1553,718.591 1162.7488,718.3212 Q1163.3423,718.0515 1163.9731,717.4704 Z " fill="#000000"/><text fill="#000000" font-family="sans-serif" font-size="14" lengthAdjust="spacing" textLength="152" x="1175.5" y="719.341">ReferanseDokumentfil</text><line style="stroke:#181818;stroke-width:0.5;" x1="1147.5" x2="1329.5" y1="730.05" y2="730.05"/><ellipse cx="1157.5" cy="743.7941" fill="none" rx="3" ry="3" style="stroke:#038048;stroke-width:1.0;"/><text fill="#000000" font-family="sans-serif" font-size="14" lengthAdjust="spacing" textLength="61" x="1166.5" y="747.5852">id: string</text><ellipse cx="1157.5" cy="760.2824" fill="none" rx="3" ry="3" style="stroke:#038048;stroke-width:1.0;"/><text fill="#000000" font-family="sans-serif" font-size="14" lengthAdjust="spacing" textLength="67" x="1166.5" y="764.0734">url: string</text><line style="stroke:#181818;stroke-width:0.5;" x1="1147.5" x2="1329.5" y1="771.0266" y2="771.0266"/></g><!--link HentSaksfaseResultat to Fase--><g id="link_HentSaksfaseResultat_Fase"><path codeLine="6" d="M716.5,71.78 C716.5,88.56 716.5,110.03 716.5,131.1 " fill="none" id="HentSaksfaseResultat-Fase" style="stroke:#181818;stroke-width:1.0;"/></g><!--link Fase to Dokument--><g id="link_Fase_Dokument"><path codeLine="18" d="M816.49,273.25 C856.78,297.72 903.36,326.9 944.5,354.91 C967.21,370.37 981.3671,380.341 1004.0471,397.091 " fill="none" id="Fase-to-Dokument" style="stroke:#181818;stroke-width:1.0;"/><polygon fill="#181818" points="1013.7,404.22,1011.2499,397.4379,1004.0471,397.091,1006.4972,403.8731,1013.7,404.22" style="stroke:#181818;stroke-width:1.0;"/></g><!--link Fase to Milepel--><g id="link_Fase_Milepel"><path codeLine="19" d="M682.21,295.31 C674.35,313.9 665.78,334.18 657.21,354.44 " fill="none" id="Fase-Milepel" style="stroke:#181818;stroke-width:1.0;"/></g><!--link Fase to Fasekategori--><g id="link_Fase_Fasekategori"><path codeLine="20" d="M750.79,295.31 C772.02,345.53 798.46,408.07 815.88,449.27 " fill="none" id="Fase-Fasekategori" style="stroke:#181818;stroke-width:1.0;"/></g><!--link Fase to Vedtak--><g id="link_Fase_Vedtak"><path codeLine="21" d="M616.66,260.42 C569.83,284.77 514.93,317.39 471.5,354.91 C439.79,382.3 410.8,420.02 390.71,449.16 " fill="none" id="Fase-Vedtak" style="stroke:#181818;stroke-width:1.0;"/></g><!--link Milepel to Milepeltype--><g id="link_Milepel_Milepeltype"><path codeLine="52" d="M489.13,620.49 C483.66,625.13 478.11,629.57 472.5,633.74 C434.71,661.83 388.12,685.32 347.8,702.8 " fill="none" id="Milepel-Milepeltype" style="stroke:#181818;stroke-width:1.0;"/></g><!--link Milepel to MilepelStatusEnum--><g id="link_Milepel_MilepelStatusEnum"><path codeLine="62" d="M598.5,634.12 C598.5,657.37 598.5,679.74 598.5,697.68 " fill="none" id="Milepel-MilepelStatusEnum" style="stroke:#181818;stroke-width:1.0;"/></g><!--link Milepel to Dokument--><g id="link_Milepel_Dokument"><path codeLine="63" d="M696.84,354.79 C710.65,342.83 725.74,332.44 742,324.91 C816.6,290.33 849.72,296.84 927,324.91 C972.24,341.33 1005.6083,364.6551 1039.6483,396.0451 " fill="none" id="Milepel-to-Dokument" style="stroke:#181818;stroke-width:1.0;"/><polygon fill="#181818" points="1048.47,404.18,1046.7708,397.172,1039.6483,396.0451,1041.3475,403.0531,1048.47,404.18" style="stroke:#181818;stroke-width:1.0;"/></g><!--link Dokument to Dokumenttype--><g id="link_Dokument_Dokumenttype"><path codeLine="83" d="M1089.01,584.49 C1072.16,621.58 1053.36,662.98 1039.56,693.36 " fill="none" id="Dokument-Dokumenttype" style="stroke:#181818;stroke-width:1.0;"/></g><!--link Dokument to ReferanseDokumentfil--><g id="link_Dokument_ReferanseDokumentfil"><path codeLine="84" d="M1169.62,584.49 C1187.11,623.33 1206.71,666.91 1220.52,697.59 " fill="none" id="Dokument-ReferanseDokumentfil" style="stroke:#181818;stroke-width:1.0;"/></g><!--SRC=[hLHBRjim4Dth55msBNm18SWYQ3vjuQH8W6xgBkXmPD2YI84p4X0KEKxkaBqlrg4eofAih1elPEeD-MRcpHEVZ4GKjs3fKPPOI8G7mCQG9F4t4_px4h1SNFCpUyconPshLOndJnrRM8zFMzdQN21vRNT7LAifLag2dVCwvaflCLPf0pKOyBbOn-NlFp62dB_1UEQnMr_Pfegn5XJ9CXU_kl-8ALSs5VSGgBxsQ-RYphggLvy7j0TMAUFmFYalWNsEp3e2GQuMhkWnaOkh4g6gG_aRktEgt3FznYemhKPn16IBvl1AtOeZ99AWFT7v-G-duE8YQLloMmjUwPcG36y1IwzRC65sVV1bF9_Km8UHzYeb6dn6WkhRRCPB3BFXzppqN4Fl5SzIv4BnZWWqL3Zm4sZl6c-bOS2DOHtcpDRREcT0sWXwAC1BY_0z7gfTe1yNC-n8LfY6mRFHGlu9BQEceJcQxDbtDNSe-1lZjjBCJhrlqgJoqPQTK1FRZG8JxucDlGGaRGot8cGhN5rZw0IhmniV_tHvVxQnD-n5wwhYyERfPCVzcdUi7GKtCa5jf2sSHoDPcgaFkkp_xws5XaSQ3i7HLvi1HqxtfXBk3gzAnULFhfuhfv1dh5-YOl72RGSa51JQQjmxAmelnRKkKOJJoVl3YJx9_6eZJGHcTWLgStelfi47zOwZFtuB9yvabbmyBA3ftgmWSYrbmVdt8dsfsqbLBCtG78zWKj4ui5Z2J9qFiaGaNKhudloDDoE2Vm00]--></g></svg>