<svg xmlns="http://www.w3.org/2000/svg" xmlns:xlink="http://www.w3.org/1999/xlink" contentStyleType="text/css" height="773px" preserveAspectRatio="none" style="width:694px;height:773px;background:#FFFFFF;" version="1.1" viewBox="0 0 694 773" width="694px" zoomAndPan="magnify"><defs/><g><!--class HentSaksfaseResultat--><g id="elem_HentSaksfaseResultat"><rect codeLine="2" fill="#F1F1F1" height="64.4883" id="HentSaksfaseResultat" rx="2.5" ry="2.5" style="stroke:#181818;stroke-width:0.5;" width="178" x="63" y="7"/><ellipse cx="78" cy="23" fill="#ADD1B2" rx="11" ry="11" style="stroke:#181818;stroke-width:1.0;"/><path d="M80.4731,29.1431 Q79.8921,29.4419 79.2529,29.5913 Q78.6138,29.7407 77.9082,29.7407 Q75.4014,29.7407 74.0815,28.0889 Q72.7617,26.437 72.7617,23.3159 Q72.7617,20.1865 74.0815,18.5347 Q75.4014,16.8828 77.9082,16.8828 Q78.6138,16.8828 79.2612,17.0322 Q79.9087,17.1816 80.4731,17.4805 L80.4731,20.2031 Q79.8423,19.6221 79.2488,19.3523 Q78.6553,19.0825 78.0244,19.0825 Q76.6797,19.0825 75.9949,20.1492 Q75.3101,21.2158 75.3101,23.3159 Q75.3101,25.4077 75.9949,26.4744 Q76.6797,27.541 78.0244,27.541 Q78.6553,27.541 79.2488,27.2712 Q79.8423,27.0015 80.4731,26.4204 Z " fill="#000000"/><text fill="#000000" font-family="sans-serif" font-size="14" lengthAdjust="spacing" textLength="146" x="92" y="28.291">HentSaksfaseResultat</text><line style="stroke:#181818;stroke-width:0.5;" x1="64" x2="240" y1="39" y2="39"/><ellipse cx="74" cy="52.7441" fill="none" rx="3" ry="3" style="stroke:#038048;stroke-width:1.0;"/><text fill="#000000" font-family="sans-serif" font-size="14" lengthAdjust="spacing" textLength="67" x="83" y="56.5352">fase: Fase</text><line style="stroke:#181818;stroke-width:0.5;" x1="64" x2="240" y1="63.4883" y2="63.4883"/></g><!--class Fase--><g id="elem_Fase"><rect codeLine="8" fill="#F1F1F1" height="146.9297" id="Fase" rx="2.5" ry="2.5" style="stroke:#181818;stroke-width:0.5;" width="199" x="52.5" y="131.49"/><ellipse cx="132.25" cy="147.49" fill="#ADD1B2" rx="11" ry="11" style="stroke:#181818;stroke-width:1.0;"/><path d="M134.7231,153.6331 Q134.1421,153.9319 133.5029,154.0813 Q132.8638,154.2307 132.1582,154.2307 Q129.6514,154.2307 128.3315,152.5789 Q127.0117,150.927 127.0117,147.8059 Q127.0117,144.6765 128.3315,143.0247 Q129.6514,141.3728 132.1582,141.3728 Q132.8638,141.3728 133.5112,141.5222 Q134.1587,141.6716 134.7231,141.9705 L134.7231,144.6931 Q134.0923,144.1121 133.4988,143.8423 Q132.9053,143.5725 132.2744,143.5725 Q130.9297,143.5725 130.2449,144.6392 Q129.5601,145.7058 129.5601,147.8059 Q129.5601,149.8977 130.2449,150.9644 Q130.9297,152.031 132.2744,152.031 Q132.9053,152.031 133.4988,151.7612 Q134.0923,151.4915 134.7231,150.9104 Z " fill="#000000"/><text fill="#000000" font-family="sans-serif" font-size="14" lengthAdjust="spacing" textLength="31" x="152.75" y="152.781">Fase</text><line style="stroke:#181818;stroke-width:0.5;" x1="53.5" x2="250.5" y1="163.49" y2="163.49"/><ellipse cx="63.5" cy="177.2341" fill="none" rx="3" ry="3" style="stroke:#038048;stroke-width:1.0;"/><text fill="#000000" font-family="sans-serif" font-size="14" lengthAdjust="spacing" textLength="109" x="72.5" y="181.0252">fasenavn: string</text><ellipse cx="63.5" cy="193.7224" fill="none" rx="3" ry="3" style="stroke:#038048;stroke-width:1.0;"/><text fill="#000000" font-family="sans-serif" font-size="14" lengthAdjust="spacing" textLength="89" x="72.5" y="197.5134">faseid: string</text><ellipse cx="63.5" cy="210.2107" fill="none" rx="3" ry="3" style="stroke:#038048;stroke-width:1.0;"/><text fill="#000000" font-family="sans-serif" font-size="14" lengthAdjust="spacing" textLength="131" x="72.5" y="214.0017">milepeler: Milepel[]</text><ellipse cx="63.5" cy="226.699" fill="none" rx="3" ry="3" style="stroke:#038048;stroke-width:1.0;"/><text fill="#000000" font-family="sans-serif" font-size="14" lengthAdjust="spacing" textLength="107" x="72.5" y="230.49">global: boolean</text><ellipse cx="63.5" cy="243.1873" fill="none" rx="3" ry="3" style="stroke:#038048;stroke-width:1.0;"/><text fill="#000000" font-family="sans-serif" font-size="14" lengthAdjust="spacing" textLength="161" x="72.5" y="246.9783">status: FaseStatusEnum</text><ellipse cx="63.5" cy="259.6755" fill="none" rx="3" ry="3" style="stroke:#038048;stroke-width:1.0;"/><text fill="#000000" font-family="sans-serif" font-size="14" lengthAdjust="spacing" textLength="173" x="72.5" y="263.4666">dokumenter: Dokument[]</text><line style="stroke:#181818;stroke-width:0.5;" x1="53.5" x2="250.5" y1="270.4197" y2="270.4197"/></g><!--class Dokument--><g id="elem_Dokument"><rect codeLine="47" fill="#F1F1F1" height="146.9297" id="Dokument" rx="2.5" ry="2.5" style="stroke:#181818;stroke-width:0.5;" width="335" x="260.5" y="404.37"/><ellipse cx="388.25" cy="420.37" fill="#ADD1B2" rx="11" ry="11" style="stroke:#181818;stroke-width:1.0;"/><path d="M390.7231,426.5131 Q390.1421,426.8119 389.5029,426.9613 Q388.8638,427.1107 388.1582,427.1107 Q385.6514,427.1107 384.3315,425.4589 Q383.0117,423.807 383.0117,420.6859 Q383.0117,417.5565 384.3315,415.9047 Q385.6514,414.2528 388.1582,414.2528 Q388.8638,414.2528 389.5112,414.4022 Q390.1587,414.5516 390.7231,414.8505 L390.7231,417.5731 Q390.0923,416.9921 389.4988,416.7223 Q388.9053,416.4525 388.2744,416.4525 Q386.9297,416.4525 386.2449,417.5192 Q385.5601,418.5858 385.5601,420.6859 Q385.5601,422.7777 386.2449,423.8444 Q386.9297,424.911 388.2744,424.911 Q388.9053,424.911 389.4988,424.6412 Q390.0923,424.3715 390.7231,423.7904 Z " fill="#000000"/><text fill="#000000" font-family="sans-serif" font-size="14" lengthAdjust="spacing" textLength="71" x="408.75" y="425.661">Dokument</text><line style="stroke:#181818;stroke-width:0.5;" x1="261.5" x2="594.5" y1="436.37" y2="436.37"/><ellipse cx="271.5" cy="450.1141" fill="none" rx="3" ry="3" style="stroke:#038048;stroke-width:1.0;"/><text fill="#000000" font-family="sans-serif" font-size="14" lengthAdjust="spacing" textLength="79" x="280.5" y="453.9052">tittel: string</text><ellipse cx="271.5" cy="466.6024" fill="none" rx="3" ry="3" style="stroke:#038048;stroke-width:1.0;"/><text fill="#000000" font-family="sans-serif" font-size="14" lengthAdjust="spacing" textLength="207" x="280.5" y="470.3934">dokumenttype: Dokumenttype</text><ellipse cx="271.5" cy="483.0907" fill="none" rx="3" ry="3" style="stroke:#038048;stroke-width:1.0;"/><text fill="#000000" font-family="sans-serif" font-size="14" lengthAdjust="spacing" textLength="309" x="280.5" y="486.8817">referanseDokumentfil: ReferanseDokumentfil</text><ellipse cx="271.5" cy="499.579" fill="none" rx="3" ry="3" style="stroke:#038048;stroke-width:1.0;"/><text fill="#000000" font-family="sans-serif" font-size="14" lengthAdjust="spacing" textLength="115" x="280.5" y="503.37">mimetype: string</text><ellipse cx="271.5" cy="516.0673" fill="none" rx="3" ry="3" style="stroke:#038048;stroke-width:1.0;"/><text fill="#000000" font-family="sans-serif" font-size="14" lengthAdjust="spacing" textLength="146" x="280.5" y="519.8583">dokumentsdato: date</text><ellipse cx="271.5" cy="532.5555" fill="none" rx="3" ry="3" style="stroke:#038048;stroke-width:1.0;"/><text fill="#000000" font-family="sans-serif" font-size="14" lengthAdjust="spacing" textLength="114" x="280.5" y="536.3466">arkivnavn: string</text><line style="stroke:#181818;stroke-width:0.5;" x1="261.5" x2="594.5" y1="543.2997" y2="543.2997"/></g><!--class Milepel--><g id="elem_Milepel"><rect codeLine="20" fill="#F1F1F1" height="278.8359" id="Milepel" rx="2.5" ry="2.5" style="stroke:#181818;stroke-width:0.5;" width="218" x="7" y="338.42"/><ellipse cx="87.25" cy="354.42" fill="#ADD1B2" rx="11" ry="11" style="stroke:#181818;stroke-width:1.0;"/><path d="M89.7231,360.5631 Q89.1421,360.8619 88.5029,361.0113 Q87.8638,361.1607 87.1582,361.1607 Q84.6514,361.1607 83.3315,359.5089 Q82.0117,357.857 82.0117,354.7359 Q82.0117,351.6065 83.3315,349.9547 Q84.6514,348.3028 87.1582,348.3028 Q87.8638,348.3028 88.5112,348.4522 Q89.1587,348.6016 89.7231,348.9005 L89.7231,351.6231 Q89.0923,351.0421 88.4988,350.7723 Q87.9053,350.5025 87.2744,350.5025 Q85.9297,350.5025 85.2449,351.5692 Q84.5601,352.6358 84.5601,354.7359 Q84.5601,356.8277 85.2449,357.8944 Q85.9297,358.961 87.2744,358.961 Q87.9053,358.961 88.4988,358.6912 Q89.0923,358.4215 89.7231,357.8404 Z " fill="#000000"/><text fill="#000000" font-family="sans-serif" font-size="14" lengthAdjust="spacing" textLength="49" x="107.75" y="359.711">Milepel</text><line style="stroke:#181818;stroke-width:0.5;" x1="8" x2="224" y1="370.42" y2="370.42"/><ellipse cx="18" cy="384.1641" fill="none" rx="3" ry="3" style="stroke:#038048;stroke-width:1.0;"/><text fill="#000000" font-family="sans-serif" font-size="14" lengthAdjust="spacing" textLength="108" x="27" y="387.9552">systemId: string</text><ellipse cx="18" cy="400.6524" fill="none" rx="3" ry="3" style="stroke:#038048;stroke-width:1.0;"/><text fill="#000000" font-family="sans-serif" font-size="14" lengthAdjust="spacing" textLength="124" x="27" y="404.4434">beskrivelse: string</text><ellipse cx="18" cy="417.1407" fill="none" rx="3" ry="3" style="stroke:#038048;stroke-width:1.0;"/><text fill="#000000" font-family="sans-serif" font-size="14" lengthAdjust="spacing" textLength="100" x="27" y="420.9317">kategori: Kode</text><ellipse cx="18" cy="433.629" fill="none" rx="3" ry="3" style="stroke:#038048;stroke-width:1.0;"/><text fill="#000000" font-family="sans-serif" font-size="14" lengthAdjust="spacing" textLength="65" x="27" y="437.42">frist: date</text><ellipse cx="18" cy="450.1173" fill="none" rx="3" ry="3" style="stroke:#038048;stroke-width:1.0;"/><text fill="#000000" font-family="sans-serif" font-size="14" lengthAdjust="spacing" textLength="85" x="27" y="453.9083">utfoert: date</text><ellipse cx="18" cy="466.6055" fill="none" rx="3" ry="3" style="stroke:#038048;stroke-width:1.0;"/><text fill="#000000" font-family="sans-serif" font-size="14" lengthAdjust="spacing" textLength="118" x="27" y="470.3966">journaldato: date</text><ellipse cx="18" cy="483.0938" fill="none" rx="3" ry="3" style="stroke:#038048;stroke-width:1.0;"/><text fill="#000000" font-family="sans-serif" font-size="14" lengthAdjust="spacing" textLength="105" x="27" y="486.8848">intern: boolean</text><ellipse cx="18" cy="499.5821" fill="none" rx="3" ry="3" style="stroke:#038048;stroke-width:1.0;"/><text fill="#000000" font-family="sans-serif" font-size="14" lengthAdjust="spacing" textLength="192" x="27" y="503.3731">referanseJournalpost: string</text><ellipse cx="18" cy="516.0704" fill="none" rx="3" ry="3" style="stroke:#038048;stroke-width:1.0;"/><text fill="#000000" font-family="sans-serif" font-size="14" lengthAdjust="spacing" textLength="184" x="27" y="519.8614">referanseDokument: string</text><ellipse cx="18" cy="532.5587" fill="none" rx="3" ry="3" style="stroke:#038048;stroke-width:1.0;"/><text fill="#000000" font-family="sans-serif" font-size="14" lengthAdjust="spacing" textLength="110" x="27" y="536.3497">erStart: boolean</text><ellipse cx="18" cy="549.047" fill="none" rx="3" ry="3" style="stroke:#038048;stroke-width:1.0;"/><text fill="#000000" font-family="sans-serif" font-size="14" lengthAdjust="spacing" textLength="109" x="27" y="552.838">erSlutt: boolean</text><ellipse cx="18" cy="565.5352" fill="none" rx="3" ry="3" style="stroke:#038048;stroke-width:1.0;"/><text fill="#000000" font-family="sans-serif" font-size="14" lengthAdjust="spacing" textLength="179" x="27" y="569.3263">status: MilepelStatusEnum</text><ellipse cx="18" cy="582.0235" fill="none" rx="3" ry="3" style="stroke:#038048;stroke-width:1.0;"/><text fill="#000000" font-family="sans-serif" font-size="14" lengthAdjust="spacing" textLength="122" x="27" y="585.8145">erGlobal: boolean</text><ellipse cx="18" cy="598.5118" fill="none" rx="3" ry="3" style="stroke:#038048;stroke-width:1.0;"/><text fill="#000000" font-family="sans-serif" font-size="14" lengthAdjust="spacing" textLength="173" x="27" y="602.3028">dokumenter: Dokument[]</text><line style="stroke:#181818;stroke-width:0.5;" x1="8" x2="224" y1="609.2559" y2="609.2559"/></g><!--class MilepelStatusEnum--><g id="elem_MilepelStatusEnum"><rect codeLine="40" fill="#F1F1F1" height="80.9766" id="MilepelStatusEnum" rx="2.5" ry="2.5" style="stroke:#181818;stroke-width:0.5;" width="162" x="35" y="681.56"/><ellipse cx="50" cy="697.56" fill="#EB937F" rx="11" ry="11" style="stroke:#181818;stroke-width:1.0;"/><path d="M53.6143,704.06 L45.8945,704.06 L45.8945,691.6669 L53.6143,691.6669 L53.6143,693.8251 L48.3433,693.8251 L48.3433,696.498 L53.1162,696.498 L53.1162,698.6562 L48.3433,698.6562 L48.3433,701.9018 L53.6143,701.9018 Z " fill="#000000"/><text fill="#000000" font-family="sans-serif" font-size="14" lengthAdjust="spacing" textLength="130" x="64" y="702.851">MilepelStatusEnum</text><line style="stroke:#181818;stroke-width:0.5;" x1="36" x2="196" y1="713.56" y2="713.56"/><ellipse cx="46" cy="727.3041" fill="none" rx="3" ry="3" style="stroke:#038048;stroke-width:1.0;"/><text fill="#000000" font-family="sans-serif" font-size="14" lengthAdjust="spacing" textLength="36" x="55" y="731.0952">N&#229;dd</text><ellipse cx="46" cy="743.7924" fill="none" rx="3" ry="3" style="stroke:#038048;stroke-width:1.0;"/><text fill="#000000" font-family="sans-serif" font-size="14" lengthAdjust="spacing" textLength="55" x="55" y="747.5834">Planlagt</text><line style="stroke:#181818;stroke-width:0.5;" x1="36" x2="196" y1="754.5366" y2="754.5366"/></g><g id="elem_GMN12"><path d="M322.5,192.3 L322.5,217.6105 A0,0 0 0 0 322.5,217.6105 L424,217.6105 L428,404.12 L432,217.6105 L533.5,217.6105 A0,0 0 0 0 533.5,217.6105 L533.5,202.3 L523.5,192.3 L322.5,192.3 A0,0 0 0 0 322.5,192.3 " fill="#FEFFDD" style="stroke:#181818;stroke-width:0.5;"/><path d="M523.5,192.3 L523.5,202.3 L533.5,202.3 L523.5,192.3 " fill="#FEFFDD" style="stroke:#181818;stroke-width:0.5;"/><text fill="#000000" font-family="sans-serif" font-size="13" lengthAdjust="spacing" textLength="190" x="328.5" y="209.8684">Hentet definisjon fra Fiks Plan</text></g><!--class Dokumenttype--><g id="elem_Dokumenttype"><rect codeLine="59" fill="#F1F1F1" height="89.5977" id="Dokumenttype" rx="2.5" ry="2.5" style="stroke:#181818;stroke-width:0.5;" width="184" x="503" y="677.25"/><ellipse cx="541.4" cy="697.5605" fill="#ADD1B2" rx="11" ry="11" style="stroke:#181818;stroke-width:1.0;"/><path d="M543.8731,703.7036 Q543.2921,704.0024 542.6529,704.1519 Q542.0138,704.3013 541.3082,704.3013 Q538.8014,704.3013 537.4815,702.6494 Q536.1617,700.9976 536.1617,697.8765 Q536.1617,694.7471 537.4815,693.0952 Q538.8014,691.4434 541.3082,691.4434 Q542.0138,691.4434 542.6612,691.5928 Q543.3087,691.7422 543.8731,692.041 L543.8731,694.7637 Q543.2423,694.1826 542.6488,693.9128 Q542.0553,693.6431 541.4244,693.6431 Q540.0797,693.6431 539.3949,694.7097 Q538.7101,695.7764 538.7101,697.8765 Q538.7101,699.9683 539.3949,701.0349 Q540.0797,702.1016 541.4244,702.1016 Q542.0553,702.1016 542.6488,701.8318 Q543.2423,701.562 543.8731,700.981 Z " fill="#000000"/><text fill="#000000" font-family="sans-serif" font-size="12" font-style="italic" lengthAdjust="spacing" textLength="42" x="589.6" y="693.8516">&#171;Kode&#187;</text><text fill="#000000" font-family="sans-serif" font-size="14" lengthAdjust="spacing" textLength="100" x="560.6" y="709.918">Dokumenttype</text><line style="stroke:#181818;stroke-width:0.5;" x1="504" x2="686" y1="717.8711" y2="717.8711"/><ellipse cx="514" cy="731.6152" fill="none" rx="3" ry="3" style="stroke:#038048;stroke-width:1.0;"/><text fill="#000000" font-family="sans-serif" font-size="14" lengthAdjust="spacing" textLength="116" x="523" y="735.4063">kodeverdi: string</text><ellipse cx="514" cy="748.1035" fill="none" rx="3" ry="3" style="stroke:#038048;stroke-width:1.0;"/><text fill="#000000" font-family="sans-serif" font-size="14" lengthAdjust="spacing" textLength="158" x="523" y="751.8945">kodebeskrivelse: string</text><line style="stroke:#181818;stroke-width:0.5;" x1="504" x2="686" y1="758.8477" y2="758.8477"/></g><!--class ReferanseDokumentfil--><g id="elem_ReferanseDokumentfil"><rect codeLine="64" fill="#F1F1F1" height="80.9766" id="ReferanseDokumentfil" rx="2.5" ry="2.5" style="stroke:#181818;stroke-width:0.5;" width="184" x="284" y="681.56"/><ellipse cx="299" cy="697.56" fill="#ADD1B2" rx="11" ry="11" style="stroke:#181818;stroke-width:1.0;"/><path d="M301.4731,703.7031 Q300.8921,704.0019 300.2529,704.1513 Q299.6138,704.3007 298.9082,704.3007 Q296.4014,704.3007 295.0815,702.6489 Q293.7617,700.997 293.7617,697.8759 Q293.7617,694.7465 295.0815,693.0947 Q296.4014,691.4428 298.9082,691.4428 Q299.6138,691.4428 300.2612,691.5922 Q300.9087,691.7416 301.4731,692.0405 L301.4731,694.7631 Q300.8423,694.1821 300.2488,693.9123 Q299.6553,693.6425 299.0244,693.6425 Q297.6797,693.6425 296.9949,694.7092 Q296.3101,695.7758 296.3101,697.8759 Q296.3101,699.9677 296.9949,701.0344 Q297.6797,702.101 299.0244,702.101 Q299.6553,702.101 300.2488,701.8312 Q300.8423,701.5615 301.4731,700.9804 Z " fill="#000000"/><text fill="#000000" font-family="sans-serif" font-size="14" lengthAdjust="spacing" textLength="152" x="313" y="702.851">ReferanseDokumentfil</text><line style="stroke:#181818;stroke-width:0.5;" x1="285" x2="467" y1="713.56" y2="713.56"/><ellipse cx="295" cy="727.3041" fill="none" rx="3" ry="3" style="stroke:#038048;stroke-width:1.0;"/><text fill="#000000" font-family="sans-serif" font-size="14" lengthAdjust="spacing" textLength="61" x="304" y="731.0952">id: string</text><ellipse cx="295" cy="743.7924" fill="none" rx="3" ry="3" style="stroke:#038048;stroke-width:1.0;"/><text fill="#000000" font-family="sans-serif" font-size="14" lengthAdjust="spacing" textLength="67" x="304" y="747.5834">url: string</text><line style="stroke:#181818;stroke-width:0.5;" x1="285" x2="467" y1="754.5366" y2="754.5366"/></g><!--link HentSaksfaseResultat to Fase--><g id="link_HentSaksfaseResultat_Fase"><path codeLine="6" d="M152,71.81 C152,88.72 152,110.3 152,131.1 " fill="none" id="HentSaksfaseResultat-Fase" style="stroke:#181818;stroke-width:1.0;"/></g><!--link Fase to Dokument--><g id="link_Fase_Dokument"><path codeLine="17" d="M226.33,278.9 C265.92,317.76 305.916,357.0141 345.456,395.8241 " fill="none" id="Fase-to-Dokument" style="stroke:#181818;stroke-width:1.0;"/><polygon fill="#181818" points="354.02,404.23,352.54,397.1724,345.456,395.8241,346.9361,402.8817,354.02,404.23" style="stroke:#181818;stroke-width:1.0;"/></g><!--link Fase to Milepel--><g id="link_Fase_Milepel"><path codeLine="18" d="M142.31,278.9 C139.87,297.23 137.17,317.52 134.46,337.92 " fill="none" id="Fase-Milepel" style="stroke:#181818;stroke-width:1.0;"/></g><!--link Milepel to MilepelStatusEnum--><g id="link_Milepel_MilepelStatusEnum"><path codeLine="37" d="M116,617.63 C116,640.88 116,663.25 116,681.19 " fill="none" id="Milepel-MilepelStatusEnum" style="stroke:#181818;stroke-width:1.0;"/></g><!--link Milepel to Dokument--><g id="link_Milepel_Dokument"><path codeLine="38" d="M225.38,477.83 C236.99,477.83 236.6,477.83 248.21,477.83 " fill="none" id="Milepel-to-Dokument" style="stroke:#181818;stroke-width:1.0;"/><polygon fill="#181818" points="260.21,477.83,254.21,473.83,248.21,477.83,254.21,481.83,260.21,477.83" style="stroke:#181818;stroke-width:1.0;"/></g><!--link Dokument to Dokumenttype--><g id="link_Dokument_Dokumenttype"><path codeLine="56" d="M478.11,551.51 C506.26,592.34 540.47,641.96 564.59,676.94 " fill="none" id="Dokument-Dokumenttype" style="stroke:#181818;stroke-width:1.0;"/></g><!--link Dokument to ReferanseDokumentfil--><g id="link_Dokument_ReferanseDokumentfil"><path codeLine="57" d="M412.4,551.51 C403.27,594.01 392.1,646.04 384.56,681.16 " fill="none" id="Dokument-ReferanseDokumentfil" style="stroke:#181818;stroke-width:1.0;"/></g><!--SRC=[TLJDRiCW3BxdANpUb1U8ffwsxa-RflOuxK0Rfw8X4869L4rzd3t9NcmGGagoj8VAVCQV_TacUy6CWIUKj6MrgPZ13HehY15yP-1-jnuhOEt-itEMBTxCy-3FzZsRjzDeoJfPW27DvU62ydAADLnWYm9r0M_1_FmAdeDGEoOAs2abaCa06fVOcb3OjhSVf6s2hrIrRLoXdkj-i1sPAxylBRyPqG78OyeeOJX65UPa29ldMSKxDBNc7GhVeDHHCyA3qho0LrNY85bpGmMKpXK0IvL2FO6Eoch9X0DK2dElHCxqQwnGCsdm9GIrojEdLOmtejYf6xLhcyy_eNMei4HNcZsqPTvlr8zB8xe-XjZUI-CJoj6PZ2b3v_b_Dyxd_VUdB8Fv8PWKx40-ZLI4GAe5LOrKKFJRZWGbLbnoSrGIAirWpMi3FZhkm1Wn925EX6BQn2YHJYrUHFhJbHbKt35i5j3u21eCN4jPp7mpcAvvDtbUJlLOj-lkfABKiLZ2JBWFWhixlyEhLUn2xKuTwfBFLjx1I-_X74cN4aRE-QV0Qf4G_040]--></g></svg>