<svg xmlns="http://www.w3.org/2000/svg" xmlns:xlink="http://www.w3.org/1999/xlink" contentStyleType="text/css" height="988px" preserveAspectRatio="none" style="width:1445px;height:988px;background:#FFFFFF;" version="1.1" viewBox="0 0 1445 988" width="1445px" zoomAndPan="magnify"><defs/><g><!--class HentSaksfaseResultat--><g id="elem_HentSaksfaseResultat"><rect codeLine="2" fill="#F1F1F1" height="64.4883" id="HentSaksfaseResultat" rx="2.5" ry="2.5" style="stroke:#181818;stroke-width:0.5;" width="178" x="708.5" y="7"/><ellipse cx="723.5" cy="23" fill="#ADD1B2" rx="11" ry="11" style="stroke:#181818;stroke-width:1.0;"/><path d="M725.9731,29.1431 Q725.3921,29.4419 724.7529,29.5913 Q724.1138,29.7407 723.4082,29.7407 Q720.9014,29.7407 719.5815,28.0889 Q718.2617,26.437 718.2617,23.3159 Q718.2617,20.1865 719.5815,18.5347 Q720.9014,16.8828 723.4082,16.8828 Q724.1138,16.8828 724.7612,17.0322 Q725.4087,17.1816 725.9731,17.4805 L725.9731,20.2031 Q725.3423,19.6221 724.7488,19.3523 Q724.1553,19.0825 723.5244,19.0825 Q722.1797,19.0825 721.4949,20.1492 Q720.8101,21.2158 720.8101,23.3159 Q720.8101,25.4077 721.4949,26.4744 Q722.1797,27.541 723.5244,27.541 Q724.1553,27.541 724.7488,27.2712 Q725.3423,27.0015 725.9731,26.4204 Z " fill="#000000"/><text fill="#000000" font-family="sans-serif" font-size="14" lengthAdjust="spacing" textLength="146" x="737.5" y="28.291">HentSaksfaseResultat</text><line style="stroke:#181818;stroke-width:0.5;" x1="709.5" x2="885.5" y1="39" y2="39"/><ellipse cx="719.5" cy="52.7441" fill="none" rx="3" ry="3" style="stroke:#038048;stroke-width:1.0;"/><text fill="#000000" font-family="sans-serif" font-size="14" lengthAdjust="spacing" textLength="67" x="728.5" y="56.5352">fase: Fase</text><line style="stroke:#181818;stroke-width:0.5;" x1="709.5" x2="885.5" y1="63.4883" y2="63.4883"/></g><!--class Fase--><g id="elem_Fase"><rect codeLine="8" fill="#F1F1F1" height="163.418" id="Fase" rx="2.5" ry="2.5" style="stroke:#181818;stroke-width:0.5;" width="199" x="698" y="131.49"/><ellipse cx="777.75" cy="147.49" fill="#ADD1B2" rx="11" ry="11" style="stroke:#181818;stroke-width:1.0;"/><path d="M780.2231,153.6331 Q779.6421,153.9319 779.0029,154.0813 Q778.3638,154.2307 777.6582,154.2307 Q775.1514,154.2307 773.8315,152.5789 Q772.5117,150.927 772.5117,147.8059 Q772.5117,144.6765 773.8315,143.0247 Q775.1514,141.3728 777.6582,141.3728 Q778.3638,141.3728 779.0112,141.5222 Q779.6587,141.6716 780.2231,141.9705 L780.2231,144.6931 Q779.5923,144.1121 778.9988,143.8423 Q778.4053,143.5725 777.7744,143.5725 Q776.4297,143.5725 775.7449,144.6392 Q775.0601,145.7058 775.0601,147.8059 Q775.0601,149.8977 775.7449,150.9644 Q776.4297,152.031 777.7744,152.031 Q778.4053,152.031 778.9988,151.7612 Q779.5923,151.4915 780.2231,150.9104 Z " fill="#000000"/><text fill="#000000" font-family="sans-serif" font-size="14" lengthAdjust="spacing" textLength="31" x="798.25" y="152.781">Fase</text><line style="stroke:#181818;stroke-width:0.5;" x1="699" x2="896" y1="163.49" y2="163.49"/><ellipse cx="709" cy="177.2341" fill="none" rx="3" ry="3" style="stroke:#038048;stroke-width:1.0;"/><text fill="#000000" font-family="sans-serif" font-size="14" lengthAdjust="spacing" textLength="109" x="718" y="181.0252">fasenavn: string</text><ellipse cx="709" cy="193.7224" fill="none" rx="3" ry="3" style="stroke:#038048;stroke-width:1.0;"/><text fill="#000000" font-family="sans-serif" font-size="14" lengthAdjust="spacing" textLength="89" x="718" y="197.5134">faseid: string</text><ellipse cx="709" cy="210.2107" fill="none" rx="3" ry="3" style="stroke:#038048;stroke-width:1.0;"/><text fill="#000000" font-family="sans-serif" font-size="14" lengthAdjust="spacing" textLength="153" x="718" y="214.0017">kategori: Fasekategori</text><ellipse cx="709" cy="226.699" fill="none" rx="3" ry="3" style="stroke:#038048;stroke-width:1.0;"/><text fill="#000000" font-family="sans-serif" font-size="14" lengthAdjust="spacing" textLength="131" x="718" y="230.49">milepeler: Milepel[]</text><ellipse cx="709" cy="243.1873" fill="none" rx="3" ry="3" style="stroke:#038048;stroke-width:1.0;"/><text fill="#000000" font-family="sans-serif" font-size="14" lengthAdjust="spacing" textLength="161" x="718" y="246.9783">status: FaseStatusEnum</text><ellipse cx="709" cy="259.6755" fill="none" rx="3" ry="3" style="stroke:#038048;stroke-width:1.0;"/><text fill="#000000" font-family="sans-serif" font-size="14" lengthAdjust="spacing" textLength="100" x="718" y="263.4666">vedtak: Vedtak</text><ellipse cx="709" cy="276.1638" fill="none" rx="3" ry="3" style="stroke:#038048;stroke-width:1.0;"/><text fill="#000000" font-family="sans-serif" font-size="14" lengthAdjust="spacing" textLength="173" x="718" y="279.9548">dokumenter: Dokument[]</text><line style="stroke:#181818;stroke-width:0.5;" x1="699" x2="896" y1="286.908" y2="286.908"/></g><!--class Dokument--><g id="elem_Dokument"><rect codeLine="101" fill="#F1F1F1" height="179.9063" id="Dokument" rx="2.5" ry="2.5" style="stroke:#181818;stroke-width:0.5;" width="335" x="1070" y="404.37"/><ellipse cx="1197.75" cy="420.37" fill="#ADD1B2" rx="11" ry="11" style="stroke:#181818;stroke-width:1.0;"/><path d="M1200.2231,426.5131 Q1199.6421,426.8119 1199.0029,426.9613 Q1198.3638,427.1107 1197.6582,427.1107 Q1195.1514,427.1107 1193.8315,425.4589 Q1192.5117,423.807 1192.5117,420.6859 Q1192.5117,417.5565 1193.8315,415.9047 Q1195.1514,414.2528 1197.6582,414.2528 Q1198.3638,414.2528 1199.0112,414.4022 Q1199.6587,414.5516 1200.2231,414.8505 L1200.2231,417.5731 Q1199.5923,416.9921 1198.9988,416.7223 Q1198.4053,416.4525 1197.7744,416.4525 Q1196.4297,416.4525 1195.7449,417.5192 Q1195.0601,418.5858 1195.0601,420.6859 Q1195.0601,422.7777 1195.7449,423.8444 Q1196.4297,424.911 1197.7744,424.911 Q1198.4053,424.911 1198.9988,424.6412 Q1199.5923,424.3715 1200.2231,423.7904 Z " fill="#000000"/><text fill="#000000" font-family="sans-serif" font-size="14" lengthAdjust="spacing" textLength="71" x="1218.25" y="425.661">Dokument</text><line style="stroke:#181818;stroke-width:0.5;" x1="1071" x2="1404" y1="436.37" y2="436.37"/><ellipse cx="1081" cy="450.1141" fill="none" rx="3" ry="3" style="stroke:#038048;stroke-width:1.0;"/><text fill="#000000" font-family="sans-serif" font-size="14" lengthAdjust="spacing" textLength="61" x="1090" y="453.9052">id: string</text><ellipse cx="1081" cy="466.6024" fill="none" rx="3" ry="3" style="stroke:#038048;stroke-width:1.0;"/><text fill="#000000" font-family="sans-serif" font-size="14" lengthAdjust="spacing" textLength="79" x="1090" y="470.3934">tittel: string</text><ellipse cx="1081" cy="483.0907" fill="none" rx="3" ry="3" style="stroke:#038048;stroke-width:1.0;"/><text fill="#000000" font-family="sans-serif" font-size="14" lengthAdjust="spacing" textLength="94" x="1090" y="486.8817">filnavn: string</text><ellipse cx="1081" cy="499.579" fill="none" rx="3" ry="3" style="stroke:#038048;stroke-width:1.0;"/><text fill="#000000" font-family="sans-serif" font-size="14" lengthAdjust="spacing" textLength="207" x="1090" y="503.37">dokumenttype: Dokumenttype</text><ellipse cx="1081" cy="516.0673" fill="none" rx="3" ry="3" style="stroke:#038048;stroke-width:1.0;"/><text fill="#000000" font-family="sans-serif" font-size="14" lengthAdjust="spacing" textLength="309" x="1090" y="519.8583">referanseDokumentfil: ReferanseDokumentfil</text><ellipse cx="1081" cy="532.5555" fill="none" rx="3" ry="3" style="stroke:#038048;stroke-width:1.0;"/><text fill="#000000" font-family="sans-serif" font-size="14" lengthAdjust="spacing" textLength="115" x="1090" y="536.3466">mimetype: string</text><ellipse cx="1081" cy="549.0438" fill="none" rx="3" ry="3" style="stroke:#038048;stroke-width:1.0;"/><text fill="#000000" font-family="sans-serif" font-size="14" lengthAdjust="spacing" textLength="146" x="1090" y="552.8348">dokumentsdato: date</text><ellipse cx="1081" cy="565.5321" fill="none" rx="3" ry="3" style="stroke:#038048;stroke-width:1.0;"/><text fill="#000000" font-family="sans-serif" font-size="14" lengthAdjust="spacing" textLength="114" x="1090" y="569.3231">arkivnavn: string</text><line style="stroke:#181818;stroke-width:0.5;" x1="1071" x2="1404" y1="576.2763" y2="576.2763"/></g><!--class Milepel--><g id="elem_Milepel"><rect codeLine="35" fill="#F1F1F1" height="278.8359" id="Milepel" rx="2.5" ry="2.5" style="stroke:#181818;stroke-width:0.5;" width="325" x="490" y="354.91"/><ellipse cx="623.75" cy="370.91" fill="#ADD1B2" rx="11" ry="11" style="stroke:#181818;stroke-width:1.0;"/><path d="M626.2231,377.0531 Q625.6421,377.3519 625.0029,377.5013 Q624.3638,377.6507 623.6582,377.6507 Q621.1514,377.6507 619.8315,375.9989 Q618.5117,374.347 618.5117,371.2259 Q618.5117,368.0965 619.8315,366.4447 Q621.1514,364.7928 623.6582,364.7928 Q624.3638,364.7928 625.0112,364.9422 Q625.6587,365.0916 626.2231,365.3905 L626.2231,368.1131 Q625.5923,367.5321 624.9988,367.2623 Q624.4053,366.9925 623.7744,366.9925 Q622.4297,366.9925 621.7449,368.0592 Q621.0601,369.1258 621.0601,371.2259 Q621.0601,373.3177 621.7449,374.3844 Q622.4297,375.451 623.7744,375.451 Q624.4053,375.451 624.9988,375.1812 Q625.5923,374.9115 626.2231,374.3304 Z " fill="#000000"/><text fill="#000000" font-family="sans-serif" font-size="14" lengthAdjust="spacing" textLength="49" x="644.25" y="376.201">Milepel</text><line style="stroke:#181818;stroke-width:0.5;" x1="491" x2="814" y1="386.91" y2="386.91"/><ellipse cx="501" cy="400.6541" fill="none" rx="3" ry="3" style="stroke:#038048;stroke-width:1.0;"/><text fill="#000000" font-family="sans-serif" font-size="14" lengthAdjust="spacing" textLength="108" x="510" y="404.4452">systemId: string</text><ellipse cx="501" cy="417.1424" fill="none" rx="3" ry="3" style="stroke:#038048;stroke-width:1.0;"/><text fill="#000000" font-family="sans-serif" font-size="14" lengthAdjust="spacing" textLength="124" x="510" y="420.9334">beskrivelse: string</text><ellipse cx="501" cy="433.6307" fill="none" rx="3" ry="3" style="stroke:#038048;stroke-width:1.0;"/><text fill="#000000" font-family="sans-serif" font-size="14" lengthAdjust="spacing" textLength="143" x="510" y="437.4217">kategori: Milepeltype</text><ellipse cx="501" cy="450.119" fill="none" rx="3" ry="3" style="stroke:#038048;stroke-width:1.0;"/><text fill="#000000" font-family="sans-serif" font-size="14" lengthAdjust="spacing" textLength="65" x="510" y="453.91">frist: date</text><ellipse cx="501" cy="466.6073" fill="none" rx="3" ry="3" style="stroke:#038048;stroke-width:1.0;"/><text fill="#000000" font-family="sans-serif" font-size="14" lengthAdjust="spacing" textLength="85" x="510" y="470.3983">utfoert: date</text><ellipse cx="501" cy="483.0955" fill="none" rx="3" ry="3" style="stroke:#038048;stroke-width:1.0;"/><text fill="#000000" font-family="sans-serif" font-size="14" lengthAdjust="spacing" textLength="118" x="510" y="486.8866">journaldato: date</text><ellipse cx="501" cy="499.5838" fill="none" rx="3" ry="3" style="stroke:#038048;stroke-width:1.0;"/><text fill="#000000" font-family="sans-serif" font-size="14" lengthAdjust="spacing" textLength="105" x="510" y="503.3748">intern: boolean</text><ellipse cx="501" cy="516.0721" fill="none" rx="3" ry="3" style="stroke:#038048;stroke-width:1.0;"/><text fill="#000000" font-family="sans-serif" font-size="14" lengthAdjust="spacing" textLength="299" x="510" y="519.8631">referanseJournalpost: ReferanseJournalpost</text><ellipse cx="501" cy="532.5604" fill="none" rx="3" ry="3" style="stroke:#038048;stroke-width:1.0;"/><text fill="#000000" font-family="sans-serif" font-size="14" lengthAdjust="spacing" textLength="184" x="510" y="536.3514">referanseDokument: string</text><ellipse cx="501" cy="549.0487" fill="none" rx="3" ry="3" style="stroke:#038048;stroke-width:1.0;"/><text fill="#000000" font-family="sans-serif" font-size="14" lengthAdjust="spacing" textLength="110" x="510" y="552.8397">erStart: boolean</text><ellipse cx="501" cy="565.537" fill="none" rx="3" ry="3" style="stroke:#038048;stroke-width:1.0;"/><text fill="#000000" font-family="sans-serif" font-size="14" lengthAdjust="spacing" textLength="109" x="510" y="569.328">erSlutt: boolean</text><ellipse cx="501" cy="582.0252" fill="none" rx="3" ry="3" style="stroke:#038048;stroke-width:1.0;"/><text fill="#000000" font-family="sans-serif" font-size="14" lengthAdjust="spacing" textLength="179" x="510" y="585.8163">status: MilepelStatusEnum</text><ellipse cx="501" cy="598.5135" fill="none" rx="3" ry="3" style="stroke:#038048;stroke-width:1.0;"/><text fill="#000000" font-family="sans-serif" font-size="14" lengthAdjust="spacing" textLength="122" x="510" y="602.3045">erGlobal: boolean</text><ellipse cx="501" cy="615.0018" fill="none" rx="3" ry="3" style="stroke:#038048;stroke-width:1.0;"/><text fill="#000000" font-family="sans-serif" font-size="14" lengthAdjust="spacing" textLength="173" x="510" y="618.7928">dokumenter: Dokument[]</text><line style="stroke:#181818;stroke-width:0.5;" x1="491" x2="814" y1="625.7459" y2="625.7459"/></g><!--class Fasekategori--><g id="elem_Fasekategori"><rect codeLine="30" fill="#F1F1F1" height="89.5977" id="Fasekategori" rx="2.5" ry="2.5" style="stroke:#181818;stroke-width:0.5;" width="184" x="850.5" y="449.53"/><ellipse cx="894.3" cy="469.8405" fill="#ADD1B2" rx="11" ry="11" style="stroke:#181818;stroke-width:1.0;"/><path d="M896.7731,475.9836 Q896.1921,476.2824 895.5529,476.4319 Q894.9138,476.5813 894.2082,476.5813 Q891.7014,476.5813 890.3815,474.9294 Q889.0617,473.2776 889.0617,470.1565 Q889.0617,467.0271 890.3815,465.3752 Q891.7014,463.7234 894.2082,463.7234 Q894.9138,463.7234 895.5612,463.8728 Q896.2087,464.0222 896.7731,464.321 L896.7731,467.0437 Q896.1423,466.4626 895.5488,466.1928 Q894.9553,465.9231 894.3244,465.9231 Q892.9797,465.9231 892.2949,466.9897 Q891.6101,468.0564 891.6101,470.1565 Q891.6101,472.2483 892.2949,473.3149 Q892.9797,474.3816 894.3244,474.3816 Q894.9553,474.3816 895.5488,474.1118 Q896.1423,473.842 896.7731,473.261 Z " fill="#000000"/><text fill="#000000" font-family="sans-serif" font-size="12" font-style="italic" lengthAdjust="spacing" textLength="42" x="937.7" y="466.1316">&#171;Kode&#187;</text><text fill="#000000" font-family="sans-serif" font-size="14" lengthAdjust="spacing" textLength="88" x="914.7" y="482.198">Fasekategori</text><line style="stroke:#181818;stroke-width:0.5;" x1="851.5" x2="1033.5" y1="490.1511" y2="490.1511"/><ellipse cx="861.5" cy="503.8952" fill="none" rx="3" ry="3" style="stroke:#038048;stroke-width:1.0;"/><text fill="#000000" font-family="sans-serif" font-size="14" lengthAdjust="spacing" textLength="116" x="870.5" y="507.6863">kodeverdi: string</text><ellipse cx="861.5" cy="520.3835" fill="none" rx="3" ry="3" style="stroke:#038048;stroke-width:1.0;"/><text fill="#000000" font-family="sans-serif" font-size="14" lengthAdjust="spacing" textLength="158" x="870.5" y="524.1745">kodebeskrivelse: string</text><line style="stroke:#181818;stroke-width:0.5;" x1="851.5" x2="1033.5" y1="531.1277" y2="531.1277"/></g><!--class Vedtak--><g id="elem_Vedtak"><rect codeLine="25" fill="#F1F1F1" height="89.5977" id="Vedtak" rx="2.5" ry="2.5" style="stroke:#181818;stroke-width:0.5;" width="184" x="270.5" y="449.53"/><ellipse cx="334.75" cy="469.8405" fill="#ADD1B2" rx="11" ry="11" style="stroke:#181818;stroke-width:1.0;"/><path d="M337.2231,475.9836 Q336.6421,476.2824 336.0029,476.4319 Q335.3638,476.5813 334.6582,476.5813 Q332.1514,476.5813 330.8315,474.9294 Q329.5117,473.2776 329.5117,470.1565 Q329.5117,467.0271 330.8315,465.3752 Q332.1514,463.7234 334.6582,463.7234 Q335.3638,463.7234 336.0112,463.8728 Q336.6587,464.0222 337.2231,464.321 L337.2231,467.0437 Q336.5923,466.4626 335.9988,466.1928 Q335.4053,465.9231 334.7744,465.9231 Q333.4297,465.9231 332.7449,466.9897 Q332.0601,468.0564 332.0601,470.1565 Q332.0601,472.2483 332.7449,473.3149 Q333.4297,474.3816 334.7744,474.3816 Q335.4053,474.3816 335.9988,474.1118 Q336.5923,473.842 337.2231,473.261 Z " fill="#000000"/><text fill="#000000" font-family="sans-serif" font-size="12" font-style="italic" lengthAdjust="spacing" textLength="42" x="357.75" y="466.1316">&#171;Kode&#187;</text><text fill="#000000" font-family="sans-serif" font-size="14" lengthAdjust="spacing" textLength="47" x="355.25" y="482.198">Vedtak</text><line style="stroke:#181818;stroke-width:0.5;" x1="271.5" x2="453.5" y1="490.1511" y2="490.1511"/><ellipse cx="281.5" cy="503.8952" fill="none" rx="3" ry="3" style="stroke:#038048;stroke-width:1.0;"/><text fill="#000000" font-family="sans-serif" font-size="14" lengthAdjust="spacing" textLength="116" x="290.5" y="507.6863">kodeverdi: string</text><ellipse cx="281.5" cy="520.3835" fill="none" rx="3" ry="3" style="stroke:#038048;stroke-width:1.0;"/><text fill="#000000" font-family="sans-serif" font-size="14" lengthAdjust="spacing" textLength="158" x="290.5" y="524.1745">kodebeskrivelse: string</text><line style="stroke:#181818;stroke-width:0.5;" x1="271.5" x2="453.5" y1="531.1277" y2="531.1277"/></g><g id="elem_GMN13"><path d="M303.5,169.92 L303.5,256.4727 A0,0 0 0 0 303.5,256.4727 L358.5,256.4727 L362.5,449.25 L366.5,256.4727 L421.5,256.4727 A0,0 0 0 0 421.5,256.4727 L421.5,179.92 L411.5,169.92 L303.5,169.92 A0,0 0 0 0 303.5,169.92 " fill="#FEFFDD" style="stroke:#181818;stroke-width:0.5;"/><path d="M411.5,169.92 L411.5,179.92 L421.5,179.92 L411.5,169.92 " fill="#FEFFDD" style="stroke:#181818;stroke-width:0.5;"/><text fill="#000000" font-family="sans-serif" font-size="13" lengthAdjust="spacing" textLength="69" x="309.5" y="187.4884">Eksempler:</text><text fill="#000000" font-family="sans-serif" font-size="13" lengthAdjust="spacing" textLength="56" x="309.5" y="202.7989">godkjent</text><text fill="#000000" font-family="sans-serif" font-size="13" lengthAdjust="spacing" textLength="97" x="309.5" y="218.1095">delvis godkjent</text><text fill="#000000" font-family="sans-serif" font-size="13" lengthAdjust="spacing" textLength="42" x="309.5" y="233.42">avsl&#229;tt</text><text fill="#000000" font-family="sans-serif" font-size="13" lengthAdjust="spacing" textLength="37" x="309.5" y="248.7305">avvist</text></g><!--class Milepeltype--><g id="elem_Milepeltype"><rect codeLine="57" fill="#F1F1F1" height="89.5977" id="Milepeltype" rx="2.5" ry="2.5" style="stroke:#181818;stroke-width:0.5;" width="184" x="67.5" y="714.17"/><ellipse cx="116.25" cy="734.4805" fill="#ADD1B2" rx="11" ry="11" style="stroke:#181818;stroke-width:1.0;"/><path d="M118.7231,740.6236 Q118.1421,740.9224 117.5029,741.0719 Q116.8638,741.2213 116.1582,741.2213 Q113.6514,741.2213 112.3315,739.5694 Q111.0117,737.9176 111.0117,734.7965 Q111.0117,731.6671 112.3315,730.0152 Q113.6514,728.3634 116.1582,728.3634 Q116.8638,728.3634 117.5112,728.5128 Q118.1587,728.6622 118.7231,728.961 L118.7231,731.6837 Q118.0923,731.1026 117.4988,730.8328 Q116.9053,730.5631 116.2744,730.5631 Q114.9297,730.5631 114.2449,731.6297 Q113.5601,732.6964 113.5601,734.7965 Q113.5601,736.8883 114.2449,737.9549 Q114.9297,739.0216 116.2744,739.0216 Q116.9053,739.0216 117.4988,738.7518 Q118.0923,738.482 118.7231,737.901 Z " fill="#000000"/><text fill="#000000" font-family="sans-serif" font-size="12" font-style="italic" lengthAdjust="spacing" textLength="42" x="154.75" y="730.7716">&#171;Kode&#187;</text><text fill="#000000" font-family="sans-serif" font-size="14" lengthAdjust="spacing" textLength="78" x="136.75" y="746.838">Milepeltype</text><line style="stroke:#181818;stroke-width:0.5;" x1="68.5" x2="250.5" y1="754.7911" y2="754.7911"/><ellipse cx="78.5" cy="768.5352" fill="none" rx="3" ry="3" style="stroke:#038048;stroke-width:1.0;"/><text fill="#000000" font-family="sans-serif" font-size="14" lengthAdjust="spacing" textLength="116" x="87.5" y="772.3263">kodeverdi: string</text><ellipse cx="78.5" cy="785.0235" fill="none" rx="3" ry="3" style="stroke:#038048;stroke-width:1.0;"/><text fill="#000000" font-family="sans-serif" font-size="14" lengthAdjust="spacing" textLength="158" x="87.5" y="788.8145">kodebeskrivelse: string</text><line style="stroke:#181818;stroke-width:0.5;" x1="68.5" x2="250.5" y1="795.7677" y2="795.7677"/></g><!--class ReferanseJournalpost--><g id="elem_ReferanseJournalpost"><rect codeLine="62" fill="#F1F1F1" height="130.4414" id="ReferanseJournalpost" rx="2.5" ry="2.5" style="stroke:#181818;stroke-width:0.5;" width="369" x="495" y="693.74"/><ellipse cx="601.75" cy="709.74" fill="#ADD1B2" rx="11" ry="11" style="stroke:#181818;stroke-width:1.0;"/><path d="M604.2231,715.8831 Q603.6421,716.1819 603.0029,716.3313 Q602.3638,716.4807 601.6582,716.4807 Q599.1514,716.4807 597.8315,714.8289 Q596.5117,713.177 596.5117,710.0559 Q596.5117,706.9265 597.8315,705.2747 Q599.1514,703.6228 601.6582,703.6228 Q602.3638,703.6228 603.0112,703.7722 Q603.6587,703.9216 604.2231,704.2205 L604.2231,706.9431 Q603.5923,706.3621 602.9988,706.0923 Q602.4053,705.8225 601.7744,705.8225 Q600.4297,705.8225 599.7449,706.8892 Q599.0601,707.9558 599.0601,710.0559 Q599.0601,712.1477 599.7449,713.2144 Q600.4297,714.281 601.7744,714.281 Q602.4053,714.281 602.9988,714.0112 Q603.5923,713.7415 604.2231,713.1604 Z " fill="#000000"/><text fill="#000000" font-family="sans-serif" font-size="14" lengthAdjust="spacing" textLength="147" x="622.25" y="715.031">ReferanseJournalpost</text><line style="stroke:#181818;stroke-width:0.5;" x1="496" x2="863" y1="725.74" y2="725.74"/><ellipse cx="506" cy="739.4841" fill="none" rx="3" ry="3" style="stroke:#038048;stroke-width:1.0;"/><text fill="#000000" font-family="sans-serif" font-size="14" lengthAdjust="spacing" textLength="108" x="515" y="743.2752">systemId: string</text><ellipse cx="506" cy="755.9724" fill="none" rx="3" ry="3" style="stroke:#038048;stroke-width:1.0;"/><text fill="#000000" font-family="sans-serif" font-size="14" lengthAdjust="spacing" textLength="150" x="515" y="759.7634">registreringsID: string</text><ellipse cx="506" cy="772.4607" fill="none" rx="3" ry="3" style="stroke:#038048;stroke-width:1.0;"/><text fill="#000000" font-family="sans-serif" font-size="14" lengthAdjust="spacing" textLength="222" x="515" y="776.2517">journalnummer: Journalnummer</text><ellipse cx="506" cy="788.949" fill="none" rx="3" ry="3" style="stroke:#038048;stroke-width:1.0;"/><text fill="#000000" font-family="sans-serif" font-size="14" lengthAdjust="spacing" textLength="343" x="515" y="792.74">saksJournalpostnummer: SaksJournalpostnummer</text><ellipse cx="506" cy="805.4373" fill="none" rx="3" ry="3" style="stroke:#038048;stroke-width:1.0;"/><text fill="#000000" font-family="sans-serif" font-size="14" lengthAdjust="spacing" textLength="285" x="515" y="809.2283">referanseEksternNoekkel: EksternNoekkel</text><line style="stroke:#181818;stroke-width:0.5;" x1="496" x2="863" y1="816.1814" y2="816.1814"/></g><g id="elem_GMN20"><path d="M6,458.7 L6,529.9422 A0,0 0 0 0 6,529.9422 L121.68,529.9422 L152.93,713.73 L129.68,529.9422 L235,529.9422 A0,0 0 0 0 235,529.9422 L235,468.7 L225,458.7 L6,458.7 A0,0 0 0 0 6,458.7 " fill="#FEFFDD" style="stroke:#181818;stroke-width:0.5;"/><path d="M225,458.7 L225,468.7 L235,468.7 L225,458.7 " fill="#FEFFDD" style="stroke:#181818;stroke-width:0.5;"/><text fill="#000000" font-family="sans-serif" font-size="13" lengthAdjust="spacing" textLength="69" x="12" y="476.2684">Eksempler:</text><text fill="#000000" font-family="sans-serif" font-size="13" lengthAdjust="spacing" textLength="201" x="12" y="491.5789">Bestilling av oppstartsm&#248;te (BO)</text><text fill="#000000" font-family="sans-serif" font-size="13" lengthAdjust="spacing" textLength="208" x="12" y="506.8895">Gjennomf&#248;rt oppstartsm&#248;te (OM)</text><text fill="#000000" font-family="sans-serif" font-size="13" lengthAdjust="spacing" textLength="137" x="12" y="522.2">Mottak av planforslag</text></g><!--class EksternNoekkel--><g id="elem_EksternNoekkel"><rect codeLine="85" fill="#F1F1F1" height="80.9766" id="EksternNoekkel" rx="2.5" ry="2.5" style="stroke:#181818;stroke-width:0.5;" width="143" x="387" y="892.43"/><ellipse cx="404.25" cy="908.43" fill="#ADD1B2" rx="11" ry="11" style="stroke:#181818;stroke-width:1.0;"/><path d="M406.7231,914.5731 Q406.1421,914.8719 405.5029,915.0213 Q404.8638,915.1707 404.1582,915.1707 Q401.6514,915.1707 400.3315,913.5189 Q399.0117,911.867 399.0117,908.7459 Q399.0117,905.6165 400.3315,903.9647 Q401.6514,902.3128 404.1582,902.3128 Q404.8638,902.3128 405.5112,902.4622 Q406.1587,902.6116 406.7231,902.9105 L406.7231,905.6331 Q406.0923,905.0521 405.4988,904.7823 Q404.9053,904.5125 404.2744,904.5125 Q402.9297,904.5125 402.2449,905.5792 Q401.5601,906.6458 401.5601,908.7459 Q401.5601,910.8377 402.2449,911.9044 Q402.9297,912.971 404.2744,912.971 Q404.9053,912.971 405.4988,912.7012 Q406.0923,912.4315 406.7231,911.8504 Z " fill="#000000"/><text fill="#000000" font-family="sans-serif" font-size="14" lengthAdjust="spacing" textLength="106" x="418.75" y="913.721">EksternNoekkel</text><line style="stroke:#181818;stroke-width:0.5;" x1="388" x2="529" y1="924.43" y2="924.43"/><ellipse cx="398" cy="938.1741" fill="none" rx="3" ry="3" style="stroke:#038048;stroke-width:1.0;"/><text fill="#000000" font-family="sans-serif" font-size="14" lengthAdjust="spacing" textLength="117" x="407" y="941.9652">fagsystem: string</text><ellipse cx="398" cy="954.6624" fill="none" rx="3" ry="3" style="stroke:#038048;stroke-width:1.0;"/><text fill="#000000" font-family="sans-serif" font-size="14" lengthAdjust="spacing" textLength="102" x="407" y="958.4534">noekkel: string</text><line style="stroke:#181818;stroke-width:0.5;" x1="388" x2="529" y1="965.4066" y2="965.4066"/></g><!--class SaksJournalpostnummer--><g id="elem_SaksJournalpostnummer"><rect codeLine="74" fill="#F1F1F1" height="97.4648" id="SaksJournalpostnummer" rx="2.5" ry="2.5" style="stroke:#181818;stroke-width:0.5;" width="230" x="564.5" y="884.19"/><ellipse cx="593" cy="900.19" fill="#ADD1B2" rx="11" ry="11" style="stroke:#181818;stroke-width:1.0;"/><path d="M595.4731,906.3331 Q594.8921,906.6319 594.2529,906.7813 Q593.6138,906.9307 592.9082,906.9307 Q590.4014,906.9307 589.0815,905.2789 Q587.7617,903.627 587.7617,900.5059 Q587.7617,897.3765 589.0815,895.7247 Q590.4014,894.0728 592.9082,894.0728 Q593.6138,894.0728 594.2612,894.2222 Q594.9087,894.3716 595.4731,894.6705 L595.4731,897.3931 Q594.8423,896.8121 594.2488,896.5423 Q593.6553,896.2725 593.0244,896.2725 Q591.6797,896.2725 590.9949,897.3392 Q590.3101,898.4058 590.3101,900.5059 Q590.3101,902.5977 590.9949,903.6644 Q591.6797,904.731 593.0244,904.731 Q593.6553,904.731 594.2488,904.4612 Q594.8423,904.1915 595.4731,903.6104 Z " fill="#000000"/><text fill="#000000" font-family="sans-serif" font-size="14" lengthAdjust="spacing" textLength="168" x="610" y="905.481">SaksJournalpostnummer</text><line style="stroke:#181818;stroke-width:0.5;" x1="565.5" x2="793.5" y1="916.19" y2="916.19"/><ellipse cx="575.5" cy="929.9341" fill="none" rx="3" ry="3" style="stroke:#038048;stroke-width:1.0;"/><text fill="#000000" font-family="sans-serif" font-size="14" lengthAdjust="spacing" textLength="114" x="584.5" y="933.7252">saksaar: number</text><ellipse cx="575.5" cy="946.4224" fill="none" rx="3" ry="3" style="stroke:#038048;stroke-width:1.0;"/><text fill="#000000" font-family="sans-serif" font-size="14" lengthAdjust="spacing" textLength="204" x="584.5" y="950.2134">sakssekvensnummer: number</text><ellipse cx="575.5" cy="962.9107" fill="none" rx="3" ry="3" style="stroke:#038048;stroke-width:1.0;"/><text fill="#000000" font-family="sans-serif" font-size="14" lengthAdjust="spacing" textLength="199" x="584.5" y="966.7017">journalpostnummer: number</text><line style="stroke:#181818;stroke-width:0.5;" x1="565.5" x2="793.5" y1="973.6548" y2="973.6548"/></g><!--class Journalnummer--><g id="elem_Journalnummer"><rect codeLine="80" fill="#F1F1F1" height="80.9766" id="Journalnummer" rx="2.5" ry="2.5" style="stroke:#181818;stroke-width:0.5;" width="249" x="829" y="892.43"/><ellipse cx="895.75" cy="908.43" fill="#ADD1B2" rx="11" ry="11" style="stroke:#181818;stroke-width:1.0;"/><path d="M898.2231,914.5731 Q897.6421,914.8719 897.0029,915.0213 Q896.3638,915.1707 895.6582,915.1707 Q893.1514,915.1707 891.8315,913.5189 Q890.5117,911.867 890.5117,908.7459 Q890.5117,905.6165 891.8315,903.9647 Q893.1514,902.3128 895.6582,902.3128 Q896.3638,902.3128 897.0112,902.4622 Q897.6587,902.6116 898.2231,902.9105 L898.2231,905.6331 Q897.5923,905.0521 896.9988,904.7823 Q896.4053,904.5125 895.7744,904.5125 Q894.4297,904.5125 893.7449,905.5792 Q893.0601,906.6458 893.0601,908.7459 Q893.0601,910.8377 893.7449,911.9044 Q894.4297,912.971 895.7744,912.971 Q896.4053,912.971 896.9988,912.7012 Q897.5923,912.4315 898.2231,911.8504 Z " fill="#000000"/><text fill="#000000" font-family="sans-serif" font-size="14" lengthAdjust="spacing" textLength="107" x="916.25" y="913.721">Journalnummer</text><line style="stroke:#181818;stroke-width:0.5;" x1="830" x2="1077" y1="924.43" y2="924.43"/><ellipse cx="840" cy="938.1741" fill="none" rx="3" ry="3" style="stroke:#038048;stroke-width:1.0;"/><text fill="#000000" font-family="sans-serif" font-size="14" lengthAdjust="spacing" textLength="133" x="849" y="941.9652">journalaar: number</text><ellipse cx="840" cy="954.6624" fill="none" rx="3" ry="3" style="stroke:#038048;stroke-width:1.0;"/><text fill="#000000" font-family="sans-serif" font-size="14" lengthAdjust="spacing" textLength="223" x="849" y="958.4534">journalsekvensnummer: number</text><line style="stroke:#181818;stroke-width:0.5;" x1="830" x2="1077" y1="965.4066" y2="965.4066"/></g><!--class MilepelStatusEnum--><g id="elem_MilepelStatusEnum"><rect codeLine="94" fill="#F1F1F1" height="80.9766" id="MilepelStatusEnum" rx="2.5" ry="2.5" style="stroke:#181818;stroke-width:0.5;" width="162" x="297.5" y="718.48"/><ellipse cx="312.5" cy="734.48" fill="#EB937F" rx="11" ry="11" style="stroke:#181818;stroke-width:1.0;"/><path d="M316.1143,740.98 L308.3945,740.98 L308.3945,728.5869 L316.1143,728.5869 L316.1143,730.7451 L310.8433,730.7451 L310.8433,733.418 L315.6162,733.418 L315.6162,735.5762 L310.8433,735.5762 L310.8433,738.8218 L316.1143,738.8218 Z " fill="#000000"/><text fill="#000000" font-family="sans-serif" font-size="14" lengthAdjust="spacing" textLength="130" x="326.5" y="739.771">MilepelStatusEnum</text><line style="stroke:#181818;stroke-width:0.5;" x1="298.5" x2="458.5" y1="750.48" y2="750.48"/><ellipse cx="308.5" cy="764.2241" fill="none" rx="3" ry="3" style="stroke:#038048;stroke-width:1.0;"/><text fill="#000000" font-family="sans-serif" font-size="14" lengthAdjust="spacing" textLength="36" x="317.5" y="768.0152">N&#229;dd</text><ellipse cx="308.5" cy="780.7124" fill="none" rx="3" ry="3" style="stroke:#038048;stroke-width:1.0;"/><text fill="#000000" font-family="sans-serif" font-size="14" lengthAdjust="spacing" textLength="55" x="317.5" y="784.5034">Planlagt</text><line style="stroke:#181818;stroke-width:0.5;" x1="298.5" x2="458.5" y1="791.4566" y2="791.4566"/></g><g id="elem_GMN32"><path d="M1132,200.54 L1132,225.8505 A0,0 0 0 0 1132,225.8505 L1233.5,225.8505 L1237.5,403.95 L1241.5,225.8505 L1343,225.8505 A0,0 0 0 0 1343,225.8505 L1343,210.54 L1333,200.54 L1132,200.54 A0,0 0 0 0 1132,200.54 " fill="#FEFFDD" style="stroke:#181818;stroke-width:0.5;"/><path d="M1333,200.54 L1333,210.54 L1343,210.54 L1333,200.54 " fill="#FEFFDD" style="stroke:#181818;stroke-width:0.5;"/><text fill="#000000" font-family="sans-serif" font-size="13" lengthAdjust="spacing" textLength="190" x="1138" y="218.1084">Hentet definisjon fra Fiks Plan</text></g><!--class Dokumenttype--><g id="elem_Dokumenttype"><rect codeLine="115" fill="#F1F1F1" height="89.5977" id="Dokumenttype" rx="2.5" ry="2.5" style="stroke:#181818;stroke-width:0.5;" width="184" x="1254.5" y="714.17"/><ellipse cx="1292.9" cy="734.4805" fill="#ADD1B2" rx="11" ry="11" style="stroke:#181818;stroke-width:1.0;"/><path d="M1295.3731,740.6236 Q1294.7921,740.9224 1294.1529,741.0719 Q1293.5138,741.2213 1292.8082,741.2213 Q1290.3014,741.2213 1288.9815,739.5694 Q1287.6617,737.9176 1287.6617,734.7965 Q1287.6617,731.6671 1288.9815,730.0152 Q1290.3014,728.3634 1292.8082,728.3634 Q1293.5138,728.3634 1294.1612,728.5128 Q1294.8087,728.6622 1295.3731,728.961 L1295.3731,731.6837 Q1294.7423,731.1026 1294.1488,730.8328 Q1293.5553,730.5631 1292.9244,730.5631 Q1291.5797,730.5631 1290.8949,731.6297 Q1290.2101,732.6964 1290.2101,734.7965 Q1290.2101,736.8883 1290.8949,737.9549 Q1291.5797,739.0216 1292.9244,739.0216 Q1293.5553,739.0216 1294.1488,738.7518 Q1294.7423,738.482 1295.3731,737.901 Z " fill="#000000"/><text fill="#000000" font-family="sans-serif" font-size="12" font-style="italic" lengthAdjust="spacing" textLength="42" x="1341.1" y="730.7716">&#171;Kode&#187;</text><text fill="#000000" font-family="sans-serif" font-size="14" lengthAdjust="spacing" textLength="100" x="1312.1" y="746.838">Dokumenttype</text><line style="stroke:#181818;stroke-width:0.5;" x1="1255.5" x2="1437.5" y1="754.7911" y2="754.7911"/><ellipse cx="1265.5" cy="768.5352" fill="none" rx="3" ry="3" style="stroke:#038048;stroke-width:1.0;"/><text fill="#000000" font-family="sans-serif" font-size="14" lengthAdjust="spacing" textLength="116" x="1274.5" y="772.3263">kodeverdi: string</text><ellipse cx="1265.5" cy="785.0235" fill="none" rx="3" ry="3" style="stroke:#038048;stroke-width:1.0;"/><text fill="#000000" font-family="sans-serif" font-size="14" lengthAdjust="spacing" textLength="158" x="1274.5" y="788.8145">kodebeskrivelse: string</text><line style="stroke:#181818;stroke-width:0.5;" x1="1255.5" x2="1437.5" y1="795.7677" y2="795.7677"/></g><!--class ReferanseDokumentfil--><g id="elem_ReferanseDokumentfil"><rect codeLine="120" fill="#F1F1F1" height="80.9766" id="ReferanseDokumentfil" rx="2.5" ry="2.5" style="stroke:#181818;stroke-width:0.5;" width="184" x="1035.5" y="718.48"/><ellipse cx="1050.5" cy="734.48" fill="#ADD1B2" rx="11" ry="11" style="stroke:#181818;stroke-width:1.0;"/><path d="M1052.9731,740.6231 Q1052.3921,740.9219 1051.7529,741.0713 Q1051.1138,741.2207 1050.4082,741.2207 Q1047.9014,741.2207 1046.5815,739.5689 Q1045.2617,737.917 1045.2617,734.7959 Q1045.2617,731.6665 1046.5815,730.0147 Q1047.9014,728.3628 1050.4082,728.3628 Q1051.1138,728.3628 1051.7612,728.5122 Q1052.4087,728.6616 1052.9731,728.9605 L1052.9731,731.6831 Q1052.3423,731.1021 1051.7488,730.8323 Q1051.1553,730.5625 1050.5244,730.5625 Q1049.1797,730.5625 1048.4949,731.6292 Q1047.8101,732.6958 1047.8101,734.7959 Q1047.8101,736.8877 1048.4949,737.9544 Q1049.1797,739.021 1050.5244,739.021 Q1051.1553,739.021 1051.7488,738.7512 Q1052.3423,738.4815 1052.9731,737.9004 Z " fill="#000000"/><text fill="#000000" font-family="sans-serif" font-size="14" lengthAdjust="spacing" textLength="152" x="1064.5" y="739.771">ReferanseDokumentfil</text><line style="stroke:#181818;stroke-width:0.5;" x1="1036.5" x2="1218.5" y1="750.48" y2="750.48"/><ellipse cx="1046.5" cy="764.2241" fill="none" rx="3" ry="3" style="stroke:#038048;stroke-width:1.0;"/><text fill="#000000" font-family="sans-serif" font-size="14" lengthAdjust="spacing" textLength="61" x="1055.5" y="768.0152">id: string</text><ellipse cx="1046.5" cy="780.7124" fill="none" rx="3" ry="3" style="stroke:#038048;stroke-width:1.0;"/><text fill="#000000" font-family="sans-serif" font-size="14" lengthAdjust="spacing" textLength="67" x="1055.5" y="784.5034">url: string</text><line style="stroke:#181818;stroke-width:0.5;" x1="1036.5" x2="1218.5" y1="791.4566" y2="791.4566"/></g><!--link HentSaksfaseResultat to Fase--><g id="link_HentSaksfaseResultat_Fase"><path codeLine="6" d="M797.5,71.78 C797.5,88.56 797.5,110.03 797.5,131.1 " fill="none" id="HentSaksfaseResultat-Fase" style="stroke:#181818;stroke-width:1.0;"/></g><!--link Fase to Dokument--><g id="link_Fase_Dokument"><path codeLine="18" d="M897.44,265.22 C945.26,290.67 1002.8,322.82 1052.5,354.91 C1075.92,370.03 1090.5874,380.0378 1113.6174,396.9478 " fill="none" id="Fase-to-Dokument" style="stroke:#181818;stroke-width:1.0;"/><polygon fill="#181818" points="1123.29,404.05,1120.8211,397.2747,1113.6174,396.9478,1116.0863,403.7231,1123.29,404.05" style="stroke:#181818;stroke-width:1.0;"/></g><!--link Fase to Milepel--><g id="link_Fase_Milepel"><path codeLine="19" d="M755.37,295.31 C745.71,313.9 735.17,334.18 724.65,354.44 " fill="none" id="Fase-Milepel" style="stroke:#181818;stroke-width:1.0;"/></g><!--link Fase to Fasekategori--><g id="link_Fase_Fasekategori"><path codeLine="20" d="M839.63,295.31 C865.72,345.53 898.21,408.07 919.62,449.28 " fill="none" id="Fase-Fasekategori" style="stroke:#181818;stroke-width:1.0;"/></g><!--link Fase to Vedtak--><g id="link_Fase_Vedtak"><path codeLine="21" d="M697.67,243.18 C629.67,266.17 540.09,303.11 472.5,354.91 C438.64,380.86 409.12,419.44 389.21,449.28 " fill="none" id="Fase-Vedtak" style="stroke:#181818;stroke-width:1.0;"/></g><!--link Milepel to Milepeltype--><g id="link_Milepel_Milepeltype"><path codeLine="52" d="M489.55,624.38 C483.88,627.66 478.19,630.79 472.5,633.74 C392.76,675.1 362.36,659.06 279.5,693.74 C265.44,699.63 250.85,706.62 236.88,713.8 " fill="none" id="Milepel-Milepeltype" style="stroke:#181818;stroke-width:1.0;"/></g><!--link Milepel to ReferanseJournalpost--><g id="link_Milepel_ReferanseJournalpost"><path codeLine="53" d="M666.75,633.95 C668.88,654.67 670.99,675.14 672.85,693.3 " fill="none" id="Milepel-ReferanseJournalpost" style="stroke:#181818;stroke-width:1.0;"/></g><!--link ReferanseJournalpost to EksternNoekkel--><g id="link_ReferanseJournalpost_EksternNoekkel"><path codeLine="70" d="M596.58,824.48 C567.43,847.16 535.54,871.97 509.76,892.03 " fill="none" id="ReferanseJournalpost-EksternNoekkel" style="stroke:#181818;stroke-width:1.0;"/></g><!--link ReferanseJournalpost to SaksJournalpostnummer--><g id="link_ReferanseJournalpost_SaksJournalpostnummer"><path codeLine="71" d="M679.5,824.48 C679.5,844.11 679.5,865.34 679.5,883.7 " fill="none" id="ReferanseJournalpost-SaksJournalpostnummer" style="stroke:#181818;stroke-width:1.0;"/></g><!--link ReferanseJournalpost to Journalnummer--><g id="link_ReferanseJournalpost_Journalnummer"><path codeLine="72" d="M782.31,824.48 C818.45,847.16 857.98,871.97 889.94,892.03 " fill="none" id="ReferanseJournalpost-Journalnummer" style="stroke:#181818;stroke-width:1.0;"/></g><!--link Milepel to MilepelStatusEnum--><g id="link_Milepel_MilepelStatusEnum"><path codeLine="91" d="M507.88,633.95 C475.72,664.78 444.12,695.07 420.2,718 " fill="none" id="Milepel-MilepelStatusEnum" style="stroke:#181818;stroke-width:1.0;"/></g><!--link Milepel to Dokument--><g id="link_Milepel_Dokument"><path codeLine="92" d="M792.95,354.49 C811.04,342.54 830.19,332.24 850,324.91 C927.11,296.37 957.72,296.84 1035,324.91 C1080.24,341.34 1113.6083,364.6551 1147.6483,396.0451 " fill="none" id="Milepel-to-Dokument" style="stroke:#181818;stroke-width:1.0;"/><polygon fill="#181818" points="1156.47,404.18,1154.7708,397.172,1147.6483,396.0451,1149.3475,403.0531,1156.47,404.18" style="stroke:#181818;stroke-width:1.0;"/></g><!--link Dokument to Dokumenttype--><g id="link_Dokument_Dokumenttype"><path codeLine="112" d="M1274.55,584.61 C1292.64,628.18 1313.59,678.66 1328.2,713.86 " fill="none" id="Dokument-Dokumenttype" style="stroke:#181818;stroke-width:1.0;"/></g><!--link Dokument to ReferanseDokumentfil--><g id="link_Dokument_ReferanseDokumentfil"><path codeLine="113" d="M1200.11,584.61 C1181.11,629.97 1158.98,682.8 1144.19,718.11 " fill="none" id="Dokument-ReferanseDokumentfil" style="stroke:#181818;stroke-width:1.0;"/></g><!--SRC=[jLLBRjim4Dth55ps0r_02B88ycbIE2aIe9kw2peQ6RGeKY0f0K6Hu-GEsVjY7OgaH4fqLsaM3lLcE9ytZ-GpfrgJRo3C4wrrHJKyWkwueORyAGZ-VRNOcbpZR_5Q55dFrShPY-SXcbt7kmNjnPfeevZOJoWhKwoc1lPICPShV3bRmpYqm46joSOjV_rs5etvE-tsF0thAz4rpjP3QMYz9Z-7_muhPTqrs8CDTUdN60ix6wfUVHbH3wn2nl4xAI-0FaSXf05YP4javJ6o9bUrXgQrvM_5NfRr0SDlHGcyPvfC0EqrFxwPOOKMGmAXFj3PsNTPmlbvuBR6hnvKoMP48hm3NIlM0xUpyyRNU3wXWGyBwbaAOVIBDj3SpcQSYp0RlezZNbhmMb58nPgKwE60pbGIL08TPAS4vGZ866PspYYzdPGSg72WWWeK5HhktAPMsl2F6NJc7uIHLWuAPMUhIP8WoZipHuDOVOzplOAwuN97-MpNQSa6pYUH3hH5SBQjHAJHnaIfP2ikG1l6ERPAQ4zasshRgMwExxZzqyN3vwsuGUKAsLJ7TsKM7WyRzDX8OxMB0LfEHIMLvXIfIrKpPFye9UPw_hSi5UnHOmeiecylKwFN5awfiRJSnPy-ADw7KQxW-PI3Pvf2lgr4xoNKDV21_-ZRzfJj1YSxyppbbY_Yb7VQdESp6s8a58sKOhS8xs92y8hfGUX0Hcm-BBdovd66II4Xbz-tIEVnVCOnP4hOz3xjdIRIeOima4bScTCM7U3H63qW1Q1bwHjItn_Voj8jV-3Hm6DXR9xuS8PGU3Bjmmk6b50nmVH12b8fIgvPhOdT7ReST_WayrVMC6EYlXm7Z2-Vw73hsACvtJlJjRou5Z5AT8r6Q7Z26t2nSbdq_EgcgcPzKXLICpQ78qWgYWtP4cRi_9_x9afuYlvEnPhw2m00]--></g></svg>