<svg xmlns="http://www.w3.org/2000/svg" xmlns:xlink="http://www.w3.org/1999/xlink" contentStyleType="text/css" height="955px" preserveAspectRatio="none" style="width:1412px;height:955px;background:#FFFFFF;" version="1.1" viewBox="0 0 1412 955" width="1412px" zoomAndPan="magnify"><defs/><g><!--class HentSaksfaseResultat--><g id="elem_HentSaksfaseResultat"><rect codeLine="2" fill="#F1F1F1" height="64.4883" id="HentSaksfaseResultat" rx="2.5" ry="2.5" style="stroke:#181818;stroke-width:0.5;" width="178" x="708.5" y="7"/><ellipse cx="723.5" cy="23" fill="#ADD1B2" rx="11" ry="11" style="stroke:#181818;stroke-width:1.0;"/><path d="M725.9731,29.1431 Q725.3921,29.4419 724.7529,29.5913 Q724.1138,29.7407 723.4082,29.7407 Q720.9014,29.7407 719.5815,28.0889 Q718.2617,26.437 718.2617,23.3159 Q718.2617,20.1865 719.5815,18.5347 Q720.9014,16.8828 723.4082,16.8828 Q724.1138,16.8828 724.7612,17.0322 Q725.4087,17.1816 725.9731,17.4805 L725.9731,20.2031 Q725.3423,19.6221 724.7488,19.3523 Q724.1553,19.0825 723.5244,19.0825 Q722.1797,19.0825 721.4949,20.1492 Q720.8101,21.2158 720.8101,23.3159 Q720.8101,25.4077 721.4949,26.4744 Q722.1797,27.541 723.5244,27.541 Q724.1553,27.541 724.7488,27.2712 Q725.3423,27.0015 725.9731,26.4204 Z " fill="#000000"/><text fill="#000000" font-family="sans-serif" font-size="14" lengthAdjust="spacing" textLength="146" x="737.5" y="28.291">HentSaksfaseResultat</text><line style="stroke:#181818;stroke-width:0.5;" x1="709.5" x2="885.5" y1="39" y2="39"/><ellipse cx="719.5" cy="52.7441" fill="none" rx="3" ry="3" style="stroke:#038048;stroke-width:1.0;"/><text fill="#000000" font-family="sans-serif" font-size="14" lengthAdjust="spacing" textLength="67" x="728.5" y="56.5352">fase: Fase</text><line style="stroke:#181818;stroke-width:0.5;" x1="709.5" x2="885.5" y1="63.4883" y2="63.4883"/></g><!--class Fase--><g id="elem_Fase"><rect codeLine="8" fill="#F1F1F1" height="163.418" id="Fase" rx="2.5" ry="2.5" style="stroke:#181818;stroke-width:0.5;" width="199" x="698" y="131.49"/><ellipse cx="777.75" cy="147.49" fill="#ADD1B2" rx="11" ry="11" style="stroke:#181818;stroke-width:1.0;"/><path d="M780.2231,153.6331 Q779.6421,153.9319 779.0029,154.0813 Q778.3638,154.2307 777.6582,154.2307 Q775.1514,154.2307 773.8315,152.5789 Q772.5117,150.927 772.5117,147.8059 Q772.5117,144.6765 773.8315,143.0247 Q775.1514,141.3728 777.6582,141.3728 Q778.3638,141.3728 779.0112,141.5222 Q779.6587,141.6716 780.2231,141.9705 L780.2231,144.6931 Q779.5923,144.1121 778.9988,143.8423 Q778.4053,143.5725 777.7744,143.5725 Q776.4297,143.5725 775.7449,144.6392 Q775.0601,145.7058 775.0601,147.8059 Q775.0601,149.8977 775.7449,150.9644 Q776.4297,152.031 777.7744,152.031 Q778.4053,152.031 778.9988,151.7612 Q779.5923,151.4915 780.2231,150.9104 Z " fill="#000000"/><text fill="#000000" font-family="sans-serif" font-size="14" lengthAdjust="spacing" textLength="31" x="798.25" y="152.781">Fase</text><line style="stroke:#181818;stroke-width:0.5;" x1="699" x2="896" y1="163.49" y2="163.49"/><ellipse cx="709" cy="177.2341" fill="none" rx="3" ry="3" style="stroke:#038048;stroke-width:1.0;"/><text fill="#000000" font-family="sans-serif" font-size="14" lengthAdjust="spacing" textLength="109" x="718" y="181.0252">fasenavn: string</text><ellipse cx="709" cy="193.7224" fill="none" rx="3" ry="3" style="stroke:#038048;stroke-width:1.0;"/><text fill="#000000" font-family="sans-serif" font-size="14" lengthAdjust="spacing" textLength="89" x="718" y="197.5134">faseid: string</text><ellipse cx="709" cy="210.2107" fill="none" rx="3" ry="3" style="stroke:#038048;stroke-width:1.0;"/><text fill="#000000" font-family="sans-serif" font-size="14" lengthAdjust="spacing" textLength="153" x="718" y="214.0017">kategori: Fasekategori</text><ellipse cx="709" cy="226.699" fill="none" rx="3" ry="3" style="stroke:#038048;stroke-width:1.0;"/><text fill="#000000" font-family="sans-serif" font-size="14" lengthAdjust="spacing" textLength="131" x="718" y="230.49">milepeler: Milepel[]</text><ellipse cx="709" cy="243.1873" fill="none" rx="3" ry="3" style="stroke:#038048;stroke-width:1.0;"/><text fill="#000000" font-family="sans-serif" font-size="14" lengthAdjust="spacing" textLength="161" x="718" y="246.9783">status: FaseStatusEnum</text><ellipse cx="709" cy="259.6755" fill="none" rx="3" ry="3" style="stroke:#038048;stroke-width:1.0;"/><text fill="#000000" font-family="sans-serif" font-size="14" lengthAdjust="spacing" textLength="100" x="718" y="263.4666">vedtak: Vedtak</text><ellipse cx="709" cy="276.1638" fill="none" rx="3" ry="3" style="stroke:#038048;stroke-width:1.0;"/><text fill="#000000" font-family="sans-serif" font-size="14" lengthAdjust="spacing" textLength="173" x="718" y="279.9548">dokumenter: Dokument[]</text><line style="stroke:#181818;stroke-width:0.5;" x1="699" x2="896" y1="286.908" y2="286.908"/></g><!--class Dokument--><g id="elem_Dokument"><rect codeLine="100" fill="#F1F1F1" height="179.9063" id="Dokument" rx="2.5" ry="2.5" style="stroke:#181818;stroke-width:0.5;" width="335" x="1070" y="387.88"/><ellipse cx="1197.75" cy="403.88" fill="#ADD1B2" rx="11" ry="11" style="stroke:#181818;stroke-width:1.0;"/><path d="M1200.2231,410.0231 Q1199.6421,410.3219 1199.0029,410.4713 Q1198.3638,410.6207 1197.6582,410.6207 Q1195.1514,410.6207 1193.8315,408.9689 Q1192.5117,407.317 1192.5117,404.1959 Q1192.5117,401.0665 1193.8315,399.4147 Q1195.1514,397.7628 1197.6582,397.7628 Q1198.3638,397.7628 1199.0112,397.9122 Q1199.6587,398.0616 1200.2231,398.3605 L1200.2231,401.0831 Q1199.5923,400.5021 1198.9988,400.2323 Q1198.4053,399.9625 1197.7744,399.9625 Q1196.4297,399.9625 1195.7449,401.0292 Q1195.0601,402.0958 1195.0601,404.1959 Q1195.0601,406.2877 1195.7449,407.3544 Q1196.4297,408.421 1197.7744,408.421 Q1198.4053,408.421 1198.9988,408.1512 Q1199.5923,407.8815 1200.2231,407.3004 Z " fill="#000000"/><text fill="#000000" font-family="sans-serif" font-size="14" lengthAdjust="spacing" textLength="71" x="1218.25" y="409.171">Dokument</text><line style="stroke:#181818;stroke-width:0.5;" x1="1071" x2="1404" y1="419.88" y2="419.88"/><ellipse cx="1081" cy="433.6241" fill="none" rx="3" ry="3" style="stroke:#038048;stroke-width:1.0;"/><text fill="#000000" font-family="sans-serif" font-size="14" lengthAdjust="spacing" textLength="61" x="1090" y="437.4152">id: string</text><ellipse cx="1081" cy="450.1124" fill="none" rx="3" ry="3" style="stroke:#038048;stroke-width:1.0;"/><text fill="#000000" font-family="sans-serif" font-size="14" lengthAdjust="spacing" textLength="79" x="1090" y="453.9034">tittel: string</text><ellipse cx="1081" cy="466.6007" fill="none" rx="3" ry="3" style="stroke:#038048;stroke-width:1.0;"/><text fill="#000000" font-family="sans-serif" font-size="14" lengthAdjust="spacing" textLength="94" x="1090" y="470.3917">filnavn: string</text><ellipse cx="1081" cy="483.089" fill="none" rx="3" ry="3" style="stroke:#038048;stroke-width:1.0;"/><text fill="#000000" font-family="sans-serif" font-size="14" lengthAdjust="spacing" textLength="207" x="1090" y="486.88">dokumenttype: Dokumenttype</text><ellipse cx="1081" cy="499.5773" fill="none" rx="3" ry="3" style="stroke:#038048;stroke-width:1.0;"/><text fill="#000000" font-family="sans-serif" font-size="14" lengthAdjust="spacing" textLength="309" x="1090" y="503.3683">referanseDokumentfil: ReferanseDokumentfil</text><ellipse cx="1081" cy="516.0655" fill="none" rx="3" ry="3" style="stroke:#038048;stroke-width:1.0;"/><text fill="#000000" font-family="sans-serif" font-size="14" lengthAdjust="spacing" textLength="115" x="1090" y="519.8566">mimetype: string</text><ellipse cx="1081" cy="532.5538" fill="none" rx="3" ry="3" style="stroke:#038048;stroke-width:1.0;"/><text fill="#000000" font-family="sans-serif" font-size="14" lengthAdjust="spacing" textLength="146" x="1090" y="536.3448">dokumentsdato: date</text><ellipse cx="1081" cy="549.0421" fill="none" rx="3" ry="3" style="stroke:#038048;stroke-width:1.0;"/><text fill="#000000" font-family="sans-serif" font-size="14" lengthAdjust="spacing" textLength="114" x="1090" y="552.8331">arkivnavn: string</text><line style="stroke:#181818;stroke-width:0.5;" x1="1071" x2="1404" y1="559.7863" y2="559.7863"/></g><!--class Milepel--><g id="elem_Milepel"><rect codeLine="35" fill="#F1F1F1" height="245.8594" id="Milepel" rx="2.5" ry="2.5" style="stroke:#181818;stroke-width:0.5;" width="325" x="490" y="354.9"/><ellipse cx="623.75" cy="370.9" fill="#ADD1B2" rx="11" ry="11" style="stroke:#181818;stroke-width:1.0;"/><path d="M626.2231,377.0431 Q625.6421,377.3419 625.0029,377.4913 Q624.3638,377.6407 623.6582,377.6407 Q621.1514,377.6407 619.8315,375.9889 Q618.5117,374.337 618.5117,371.2159 Q618.5117,368.0865 619.8315,366.4347 Q621.1514,364.7828 623.6582,364.7828 Q624.3638,364.7828 625.0112,364.9322 Q625.6587,365.0816 626.2231,365.3805 L626.2231,368.1031 Q625.5923,367.5221 624.9988,367.2523 Q624.4053,366.9825 623.7744,366.9825 Q622.4297,366.9825 621.7449,368.0492 Q621.0601,369.1158 621.0601,371.2159 Q621.0601,373.3077 621.7449,374.3744 Q622.4297,375.441 623.7744,375.441 Q624.4053,375.441 624.9988,375.1712 Q625.5923,374.9015 626.2231,374.3204 Z " fill="#000000"/><text fill="#000000" font-family="sans-serif" font-size="14" lengthAdjust="spacing" textLength="49" x="644.25" y="376.191">Milepel</text><line style="stroke:#181818;stroke-width:0.5;" x1="491" x2="814" y1="386.9" y2="386.9"/><ellipse cx="501" cy="400.6441" fill="none" rx="3" ry="3" style="stroke:#038048;stroke-width:1.0;"/><text fill="#000000" font-family="sans-serif" font-size="14" lengthAdjust="spacing" textLength="108" x="510" y="404.4352">systemId: string</text><ellipse cx="501" cy="417.1324" fill="none" rx="3" ry="3" style="stroke:#038048;stroke-width:1.0;"/><text fill="#000000" font-family="sans-serif" font-size="14" lengthAdjust="spacing" textLength="124" x="510" y="420.9234">beskrivelse: string</text><ellipse cx="501" cy="433.6207" fill="none" rx="3" ry="3" style="stroke:#038048;stroke-width:1.0;"/><text fill="#000000" font-family="sans-serif" font-size="14" lengthAdjust="spacing" textLength="143" x="510" y="437.4117">kategori: Milepeltype</text><ellipse cx="501" cy="450.109" fill="none" rx="3" ry="3" style="stroke:#038048;stroke-width:1.0;"/><text fill="#000000" font-family="sans-serif" font-size="14" lengthAdjust="spacing" textLength="65" x="510" y="453.9">frist: date</text><ellipse cx="501" cy="466.5973" fill="none" rx="3" ry="3" style="stroke:#038048;stroke-width:1.0;"/><text fill="#000000" font-family="sans-serif" font-size="14" lengthAdjust="spacing" textLength="85" x="510" y="470.3883">utfoert: date</text><ellipse cx="501" cy="483.0855" fill="none" rx="3" ry="3" style="stroke:#038048;stroke-width:1.0;"/><text fill="#000000" font-family="sans-serif" font-size="14" lengthAdjust="spacing" textLength="111" x="510" y="486.8766">planlagtTil: date</text><ellipse cx="501" cy="499.5738" fill="none" rx="3" ry="3" style="stroke:#038048;stroke-width:1.0;"/><text fill="#000000" font-family="sans-serif" font-size="14" lengthAdjust="spacing" textLength="105" x="510" y="503.3648">intern: boolean</text><ellipse cx="501" cy="516.0621" fill="none" rx="3" ry="3" style="stroke:#038048;stroke-width:1.0;"/><text fill="#000000" font-family="sans-serif" font-size="14" lengthAdjust="spacing" textLength="299" x="510" y="519.8531">referanseJournalpost: ReferanseJournalpost</text><ellipse cx="501" cy="532.5504" fill="none" rx="3" ry="3" style="stroke:#038048;stroke-width:1.0;"/><text fill="#000000" font-family="sans-serif" font-size="14" lengthAdjust="spacing" textLength="296" x="510" y="536.3414">referanseDokument: ReferanseDokumentfil</text><ellipse cx="501" cy="549.0387" fill="none" rx="3" ry="3" style="stroke:#038048;stroke-width:1.0;"/><text fill="#000000" font-family="sans-serif" font-size="14" lengthAdjust="spacing" textLength="110" x="510" y="552.8297">erStart: boolean</text><ellipse cx="501" cy="565.527" fill="none" rx="3" ry="3" style="stroke:#038048;stroke-width:1.0;"/><text fill="#000000" font-family="sans-serif" font-size="14" lengthAdjust="spacing" textLength="109" x="510" y="569.318">erSlutt: boolean</text><ellipse cx="501" cy="582.0152" fill="none" rx="3" ry="3" style="stroke:#038048;stroke-width:1.0;"/><text fill="#000000" font-family="sans-serif" font-size="14" lengthAdjust="spacing" textLength="179" x="510" y="585.8063">status: MilepelStatusEnum</text><line style="stroke:#181818;stroke-width:0.5;" x1="491" x2="814" y1="592.7594" y2="592.7594"/></g><!--class Fasekategori--><g id="elem_Fasekategori"><rect codeLine="30" fill="#F1F1F1" height="89.5977" id="Fasekategori" rx="2.5" ry="2.5" style="stroke:#181818;stroke-width:0.5;" width="184" x="850.5" y="433.04"/><ellipse cx="894.3" cy="453.3505" fill="#ADD1B2" rx="11" ry="11" style="stroke:#181818;stroke-width:1.0;"/><path d="M896.7731,459.4936 Q896.1921,459.7924 895.5529,459.9419 Q894.9138,460.0913 894.2082,460.0913 Q891.7014,460.0913 890.3815,458.4394 Q889.0617,456.7876 889.0617,453.6665 Q889.0617,450.5371 890.3815,448.8852 Q891.7014,447.2334 894.2082,447.2334 Q894.9138,447.2334 895.5612,447.3828 Q896.2087,447.5322 896.7731,447.831 L896.7731,450.5537 Q896.1423,449.9726 895.5488,449.7028 Q894.9553,449.4331 894.3244,449.4331 Q892.9797,449.4331 892.2949,450.4997 Q891.6101,451.5664 891.6101,453.6665 Q891.6101,455.7583 892.2949,456.8249 Q892.9797,457.8916 894.3244,457.8916 Q894.9553,457.8916 895.5488,457.6218 Q896.1423,457.352 896.7731,456.771 Z " fill="#000000"/><text fill="#000000" font-family="sans-serif" font-size="12" font-style="italic" lengthAdjust="spacing" textLength="42" x="937.7" y="449.6416">&#171;Kode&#187;</text><text fill="#000000" font-family="sans-serif" font-size="14" lengthAdjust="spacing" textLength="88" x="914.7" y="465.708">Fasekategori</text><line style="stroke:#181818;stroke-width:0.5;" x1="851.5" x2="1033.5" y1="473.6611" y2="473.6611"/><ellipse cx="861.5" cy="487.4052" fill="none" rx="3" ry="3" style="stroke:#038048;stroke-width:1.0;"/><text fill="#000000" font-family="sans-serif" font-size="14" lengthAdjust="spacing" textLength="116" x="870.5" y="491.1962">kodeverdi: string</text><ellipse cx="861.5" cy="503.8935" fill="none" rx="3" ry="3" style="stroke:#038048;stroke-width:1.0;"/><text fill="#000000" font-family="sans-serif" font-size="14" lengthAdjust="spacing" textLength="158" x="870.5" y="507.6845">kodebeskrivelse: string</text><line style="stroke:#181818;stroke-width:0.5;" x1="851.5" x2="1033.5" y1="514.6377" y2="514.6377"/></g><!--class Vedtak--><g id="elem_Vedtak"><rect codeLine="25" fill="#F1F1F1" height="89.5977" id="Vedtak" rx="2.5" ry="2.5" style="stroke:#181818;stroke-width:0.5;" width="184" x="270.5" y="433.04"/><ellipse cx="334.75" cy="453.3505" fill="#ADD1B2" rx="11" ry="11" style="stroke:#181818;stroke-width:1.0;"/><path d="M337.2231,459.4936 Q336.6421,459.7924 336.0029,459.9419 Q335.3638,460.0913 334.6582,460.0913 Q332.1514,460.0913 330.8315,458.4394 Q329.5117,456.7876 329.5117,453.6665 Q329.5117,450.5371 330.8315,448.8852 Q332.1514,447.2334 334.6582,447.2334 Q335.3638,447.2334 336.0112,447.3828 Q336.6587,447.5322 337.2231,447.831 L337.2231,450.5537 Q336.5923,449.9726 335.9988,449.7028 Q335.4053,449.4331 334.7744,449.4331 Q333.4297,449.4331 332.7449,450.4997 Q332.0601,451.5664 332.0601,453.6665 Q332.0601,455.7583 332.7449,456.8249 Q333.4297,457.8916 334.7744,457.8916 Q335.4053,457.8916 335.9988,457.6218 Q336.5923,457.352 337.2231,456.771 Z " fill="#000000"/><text fill="#000000" font-family="sans-serif" font-size="12" font-style="italic" lengthAdjust="spacing" textLength="42" x="357.75" y="449.6416">&#171;Kode&#187;</text><text fill="#000000" font-family="sans-serif" font-size="14" lengthAdjust="spacing" textLength="47" x="355.25" y="465.708">Vedtak</text><line style="stroke:#181818;stroke-width:0.5;" x1="271.5" x2="453.5" y1="473.6611" y2="473.6611"/><ellipse cx="281.5" cy="487.4052" fill="none" rx="3" ry="3" style="stroke:#038048;stroke-width:1.0;"/><text fill="#000000" font-family="sans-serif" font-size="14" lengthAdjust="spacing" textLength="116" x="290.5" y="491.1962">kodeverdi: string</text><ellipse cx="281.5" cy="503.8935" fill="none" rx="3" ry="3" style="stroke:#038048;stroke-width:1.0;"/><text fill="#000000" font-family="sans-serif" font-size="14" lengthAdjust="spacing" textLength="158" x="290.5" y="507.6845">kodebeskrivelse: string</text><line style="stroke:#181818;stroke-width:0.5;" x1="271.5" x2="453.5" y1="514.6377" y2="514.6377"/></g><g id="elem_GMN13"><path d="M303.5,169.92 L303.5,256.4727 A0,0 0 0 0 303.5,256.4727 L358.5,256.4727 L362.5,432.65 L366.5,256.4727 L421.5,256.4727 A0,0 0 0 0 421.5,256.4727 L421.5,179.92 L411.5,169.92 L303.5,169.92 A0,0 0 0 0 303.5,169.92 " fill="#FEFFDD" style="stroke:#181818;stroke-width:0.5;"/><path d="M411.5,169.92 L411.5,179.92 L421.5,179.92 L411.5,169.92 " fill="#FEFFDD" style="stroke:#181818;stroke-width:0.5;"/><text fill="#000000" font-family="sans-serif" font-size="13" lengthAdjust="spacing" textLength="69" x="309.5" y="187.4884">Eksempler:</text><text fill="#000000" font-family="sans-serif" font-size="13" lengthAdjust="spacing" textLength="56" x="309.5" y="202.7989">godkjent</text><text fill="#000000" font-family="sans-serif" font-size="13" lengthAdjust="spacing" textLength="97" x="309.5" y="218.1095">delvis godkjent</text><text fill="#000000" font-family="sans-serif" font-size="13" lengthAdjust="spacing" textLength="42" x="309.5" y="233.42">avsl&#229;tt</text><text fill="#000000" font-family="sans-serif" font-size="13" lengthAdjust="spacing" textLength="37" x="309.5" y="248.7305">avvist</text></g><!--class Milepeltype--><g id="elem_Milepeltype"><rect codeLine="56" fill="#F1F1F1" height="89.5977" id="Milepeltype" rx="2.5" ry="2.5" style="stroke:#181818;stroke-width:0.5;" width="184" x="53.5" y="681.19"/><ellipse cx="102.25" cy="701.5005" fill="#ADD1B2" rx="11" ry="11" style="stroke:#181818;stroke-width:1.0;"/><path d="M104.7231,707.6436 Q104.1421,707.9424 103.5029,708.0919 Q102.8638,708.2413 102.1582,708.2413 Q99.6514,708.2413 98.3315,706.5894 Q97.0117,704.9376 97.0117,701.8165 Q97.0117,698.6871 98.3315,697.0352 Q99.6514,695.3834 102.1582,695.3834 Q102.8638,695.3834 103.5112,695.5328 Q104.1587,695.6822 104.7231,695.981 L104.7231,698.7037 Q104.0923,698.1226 103.4988,697.8528 Q102.9053,697.5831 102.2744,697.5831 Q100.9297,697.5831 100.2449,698.6497 Q99.5601,699.7164 99.5601,701.8165 Q99.5601,703.9083 100.2449,704.9749 Q100.9297,706.0416 102.2744,706.0416 Q102.9053,706.0416 103.4988,705.7718 Q104.0923,705.502 104.7231,704.921 Z " fill="#000000"/><text fill="#000000" font-family="sans-serif" font-size="12" font-style="italic" lengthAdjust="spacing" textLength="42" x="140.75" y="697.7916">&#171;Kode&#187;</text><text fill="#000000" font-family="sans-serif" font-size="14" lengthAdjust="spacing" textLength="78" x="122.75" y="713.858">Milepeltype</text><line style="stroke:#181818;stroke-width:0.5;" x1="54.5" x2="236.5" y1="721.8111" y2="721.8111"/><ellipse cx="64.5" cy="735.5552" fill="none" rx="3" ry="3" style="stroke:#038048;stroke-width:1.0;"/><text fill="#000000" font-family="sans-serif" font-size="14" lengthAdjust="spacing" textLength="116" x="73.5" y="739.3462">kodeverdi: string</text><ellipse cx="64.5" cy="752.0435" fill="none" rx="3" ry="3" style="stroke:#038048;stroke-width:1.0;"/><text fill="#000000" font-family="sans-serif" font-size="14" lengthAdjust="spacing" textLength="158" x="73.5" y="755.8345">kodebeskrivelse: string</text><line style="stroke:#181818;stroke-width:0.5;" x1="54.5" x2="236.5" y1="762.7877" y2="762.7877"/></g><!--class ReferanseJournalpost--><g id="elem_ReferanseJournalpost"><rect codeLine="61" fill="#F1F1F1" height="130.4414" id="ReferanseJournalpost" rx="2.5" ry="2.5" style="stroke:#181818;stroke-width:0.5;" width="369" x="481" y="660.76"/><ellipse cx="587.75" cy="676.76" fill="#ADD1B2" rx="11" ry="11" style="stroke:#181818;stroke-width:1.0;"/><path d="M590.2231,682.9031 Q589.6421,683.2019 589.0029,683.3513 Q588.3638,683.5007 587.6582,683.5007 Q585.1514,683.5007 583.8315,681.8489 Q582.5117,680.197 582.5117,677.0759 Q582.5117,673.9465 583.8315,672.2947 Q585.1514,670.6428 587.6582,670.6428 Q588.3638,670.6428 589.0112,670.7922 Q589.6587,670.9416 590.2231,671.2405 L590.2231,673.9631 Q589.5923,673.3821 588.9988,673.1123 Q588.4053,672.8425 587.7744,672.8425 Q586.4297,672.8425 585.7449,673.9092 Q585.0601,674.9758 585.0601,677.0759 Q585.0601,679.1677 585.7449,680.2344 Q586.4297,681.301 587.7744,681.301 Q588.4053,681.301 588.9988,681.0312 Q589.5923,680.7615 590.2231,680.1804 Z " fill="#000000"/><text fill="#000000" font-family="sans-serif" font-size="14" lengthAdjust="spacing" textLength="147" x="608.25" y="682.051">ReferanseJournalpost</text><line style="stroke:#181818;stroke-width:0.5;" x1="482" x2="849" y1="692.76" y2="692.76"/><ellipse cx="492" cy="706.5041" fill="none" rx="3" ry="3" style="stroke:#038048;stroke-width:1.0;"/><text fill="#000000" font-family="sans-serif" font-size="14" lengthAdjust="spacing" textLength="108" x="501" y="710.2952">systemId: string</text><ellipse cx="492" cy="722.9924" fill="none" rx="3" ry="3" style="stroke:#038048;stroke-width:1.0;"/><text fill="#000000" font-family="sans-serif" font-size="14" lengthAdjust="spacing" textLength="150" x="501" y="726.7834">registreringsID: string</text><ellipse cx="492" cy="739.4807" fill="none" rx="3" ry="3" style="stroke:#038048;stroke-width:1.0;"/><text fill="#000000" font-family="sans-serif" font-size="14" lengthAdjust="spacing" textLength="222" x="501" y="743.2717">journalnummer: Journalnummer</text><ellipse cx="492" cy="755.969" fill="none" rx="3" ry="3" style="stroke:#038048;stroke-width:1.0;"/><text fill="#000000" font-family="sans-serif" font-size="14" lengthAdjust="spacing" textLength="343" x="501" y="759.76">saksJournalpostnummer: SaksJournalpostnummer</text><ellipse cx="492" cy="772.4573" fill="none" rx="3" ry="3" style="stroke:#038048;stroke-width:1.0;"/><text fill="#000000" font-family="sans-serif" font-size="14" lengthAdjust="spacing" textLength="285" x="501" y="776.2483">referanseEksternNoekkel: EksternNoekkel</text><line style="stroke:#181818;stroke-width:0.5;" x1="482" x2="849" y1="783.2014" y2="783.2014"/></g><!--class ReferanseDokumentfil--><g id="elem_ReferanseDokumentfil"><rect codeLine="119" fill="#F1F1F1" height="80.9766" id="ReferanseDokumentfil" rx="2.5" ry="2.5" style="stroke:#181818;stroke-width:0.5;" width="184" x="899.5" y="685.5"/><ellipse cx="914.5" cy="701.5" fill="#ADD1B2" rx="11" ry="11" style="stroke:#181818;stroke-width:1.0;"/><path d="M916.9731,707.6431 Q916.3921,707.9419 915.7529,708.0913 Q915.1138,708.2407 914.4082,708.2407 Q911.9014,708.2407 910.5815,706.5889 Q909.2617,704.937 909.2617,701.8159 Q909.2617,698.6865 910.5815,697.0347 Q911.9014,695.3828 914.4082,695.3828 Q915.1138,695.3828 915.7612,695.5322 Q916.4087,695.6816 916.9731,695.9805 L916.9731,698.7031 Q916.3423,698.1221 915.7488,697.8523 Q915.1553,697.5825 914.5244,697.5825 Q913.1797,697.5825 912.4949,698.6492 Q911.8101,699.7158 911.8101,701.8159 Q911.8101,703.9077 912.4949,704.9744 Q913.1797,706.041 914.5244,706.041 Q915.1553,706.041 915.7488,705.7712 Q916.3423,705.5015 916.9731,704.9204 Z " fill="#000000"/><text fill="#000000" font-family="sans-serif" font-size="14" lengthAdjust="spacing" textLength="152" x="928.5" y="706.791">ReferanseDokumentfil</text><line style="stroke:#181818;stroke-width:0.5;" x1="900.5" x2="1082.5" y1="717.5" y2="717.5"/><ellipse cx="910.5" cy="731.2441" fill="none" rx="3" ry="3" style="stroke:#038048;stroke-width:1.0;"/><text fill="#000000" font-family="sans-serif" font-size="14" lengthAdjust="spacing" textLength="61" x="919.5" y="735.0352">id: string</text><ellipse cx="910.5" cy="747.7324" fill="none" rx="3" ry="3" style="stroke:#038048;stroke-width:1.0;"/><text fill="#000000" font-family="sans-serif" font-size="14" lengthAdjust="spacing" textLength="67" x="919.5" y="751.5234">url: string</text><line style="stroke:#181818;stroke-width:0.5;" x1="900.5" x2="1082.5" y1="758.4766" y2="758.4766"/></g><g id="elem_GMN22"><path d="M6,442.21 L6,513.4522 A0,0 0 0 0 6,513.4522 L120.06,513.4522 L141.03,680.95 L128.06,513.4522 L235,513.4522 A0,0 0 0 0 235,513.4522 L235,452.21 L225,442.21 L6,442.21 A0,0 0 0 0 6,442.21 " fill="#FEFFDD" style="stroke:#181818;stroke-width:0.5;"/><path d="M225,442.21 L225,452.21 L235,452.21 L225,442.21 " fill="#FEFFDD" style="stroke:#181818;stroke-width:0.5;"/><text fill="#000000" font-family="sans-serif" font-size="13" lengthAdjust="spacing" textLength="69" x="12" y="459.7784">Eksempler:</text><text fill="#000000" font-family="sans-serif" font-size="13" lengthAdjust="spacing" textLength="201" x="12" y="475.0889">Bestilling av oppstartsm&#248;te (BO)</text><text fill="#000000" font-family="sans-serif" font-size="13" lengthAdjust="spacing" textLength="208" x="12" y="490.3995">Gjennomf&#248;rt oppstartsm&#248;te (OM)</text><text fill="#000000" font-family="sans-serif" font-size="13" lengthAdjust="spacing" textLength="137" x="12" y="505.71">Mottak av planforslag</text></g><!--class EksternNoekkel--><g id="elem_EksternNoekkel"><rect codeLine="84" fill="#F1F1F1" height="80.9766" id="EksternNoekkel" rx="2.5" ry="2.5" style="stroke:#181818;stroke-width:0.5;" width="143" x="373" y="859.45"/><ellipse cx="390.25" cy="875.45" fill="#ADD1B2" rx="11" ry="11" style="stroke:#181818;stroke-width:1.0;"/><path d="M392.7231,881.5931 Q392.1421,881.8919 391.5029,882.0413 Q390.8638,882.1907 390.1582,882.1907 Q387.6514,882.1907 386.3315,880.5389 Q385.0117,878.887 385.0117,875.7659 Q385.0117,872.6365 386.3315,870.9847 Q387.6514,869.3328 390.1582,869.3328 Q390.8638,869.3328 391.5112,869.4822 Q392.1587,869.6316 392.7231,869.9305 L392.7231,872.6531 Q392.0923,872.0721 391.4988,871.8023 Q390.9053,871.5325 390.2744,871.5325 Q388.9297,871.5325 388.2449,872.5992 Q387.5601,873.6658 387.5601,875.7659 Q387.5601,877.8577 388.2449,878.9244 Q388.9297,879.991 390.2744,879.991 Q390.9053,879.991 391.4988,879.7212 Q392.0923,879.4515 392.7231,878.8704 Z " fill="#000000"/><text fill="#000000" font-family="sans-serif" font-size="14" lengthAdjust="spacing" textLength="106" x="404.75" y="880.741">EksternNoekkel</text><line style="stroke:#181818;stroke-width:0.5;" x1="374" x2="515" y1="891.45" y2="891.45"/><ellipse cx="384" cy="905.1941" fill="none" rx="3" ry="3" style="stroke:#038048;stroke-width:1.0;"/><text fill="#000000" font-family="sans-serif" font-size="14" lengthAdjust="spacing" textLength="117" x="393" y="908.9852">fagsystem: string</text><ellipse cx="384" cy="921.6824" fill="none" rx="3" ry="3" style="stroke:#038048;stroke-width:1.0;"/><text fill="#000000" font-family="sans-serif" font-size="14" lengthAdjust="spacing" textLength="102" x="393" y="925.4734">noekkel: string</text><line style="stroke:#181818;stroke-width:0.5;" x1="374" x2="515" y1="932.4266" y2="932.4266"/></g><!--class SaksJournalpostnummer--><g id="elem_SaksJournalpostnummer"><rect codeLine="73" fill="#F1F1F1" height="97.4648" id="SaksJournalpostnummer" rx="2.5" ry="2.5" style="stroke:#181818;stroke-width:0.5;" width="230" x="550.5" y="851.21"/><ellipse cx="579" cy="867.21" fill="#ADD1B2" rx="11" ry="11" style="stroke:#181818;stroke-width:1.0;"/><path d="M581.4731,873.3531 Q580.8921,873.6519 580.2529,873.8013 Q579.6138,873.9507 578.9082,873.9507 Q576.4014,873.9507 575.0815,872.2989 Q573.7617,870.647 573.7617,867.5259 Q573.7617,864.3965 575.0815,862.7447 Q576.4014,861.0928 578.9082,861.0928 Q579.6138,861.0928 580.2612,861.2422 Q580.9087,861.3916 581.4731,861.6905 L581.4731,864.4131 Q580.8423,863.8321 580.2488,863.5623 Q579.6553,863.2925 579.0244,863.2925 Q577.6797,863.2925 576.9949,864.3592 Q576.3101,865.4258 576.3101,867.5259 Q576.3101,869.6177 576.9949,870.6844 Q577.6797,871.751 579.0244,871.751 Q579.6553,871.751 580.2488,871.4812 Q580.8423,871.2115 581.4731,870.6304 Z " fill="#000000"/><text fill="#000000" font-family="sans-serif" font-size="14" lengthAdjust="spacing" textLength="168" x="596" y="872.501">SaksJournalpostnummer</text><line style="stroke:#181818;stroke-width:0.5;" x1="551.5" x2="779.5" y1="883.21" y2="883.21"/><ellipse cx="561.5" cy="896.9541" fill="none" rx="3" ry="3" style="stroke:#038048;stroke-width:1.0;"/><text fill="#000000" font-family="sans-serif" font-size="14" lengthAdjust="spacing" textLength="114" x="570.5" y="900.7452">saksaar: number</text><ellipse cx="561.5" cy="913.4424" fill="none" rx="3" ry="3" style="stroke:#038048;stroke-width:1.0;"/><text fill="#000000" font-family="sans-serif" font-size="14" lengthAdjust="spacing" textLength="204" x="570.5" y="917.2334">sakssekvensnummer: number</text><ellipse cx="561.5" cy="929.9307" fill="none" rx="3" ry="3" style="stroke:#038048;stroke-width:1.0;"/><text fill="#000000" font-family="sans-serif" font-size="14" lengthAdjust="spacing" textLength="199" x="570.5" y="933.7217">journalpostnummer: number</text><line style="stroke:#181818;stroke-width:0.5;" x1="551.5" x2="779.5" y1="940.6748" y2="940.6748"/></g><!--class Journalnummer--><g id="elem_Journalnummer"><rect codeLine="79" fill="#F1F1F1" height="80.9766" id="Journalnummer" rx="2.5" ry="2.5" style="stroke:#181818;stroke-width:0.5;" width="249" x="815" y="859.45"/><ellipse cx="881.75" cy="875.45" fill="#ADD1B2" rx="11" ry="11" style="stroke:#181818;stroke-width:1.0;"/><path d="M884.2231,881.5931 Q883.6421,881.8919 883.0029,882.0413 Q882.3638,882.1907 881.6582,882.1907 Q879.1514,882.1907 877.8315,880.5389 Q876.5117,878.887 876.5117,875.7659 Q876.5117,872.6365 877.8315,870.9847 Q879.1514,869.3328 881.6582,869.3328 Q882.3638,869.3328 883.0112,869.4822 Q883.6587,869.6316 884.2231,869.9305 L884.2231,872.6531 Q883.5923,872.0721 882.9988,871.8023 Q882.4053,871.5325 881.7744,871.5325 Q880.4297,871.5325 879.7449,872.5992 Q879.0601,873.6658 879.0601,875.7659 Q879.0601,877.8577 879.7449,878.9244 Q880.4297,879.991 881.7744,879.991 Q882.4053,879.991 882.9988,879.7212 Q883.5923,879.4515 884.2231,878.8704 Z " fill="#000000"/><text fill="#000000" font-family="sans-serif" font-size="14" lengthAdjust="spacing" textLength="107" x="902.25" y="880.741">Journalnummer</text><line style="stroke:#181818;stroke-width:0.5;" x1="816" x2="1063" y1="891.45" y2="891.45"/><ellipse cx="826" cy="905.1941" fill="none" rx="3" ry="3" style="stroke:#038048;stroke-width:1.0;"/><text fill="#000000" font-family="sans-serif" font-size="14" lengthAdjust="spacing" textLength="133" x="835" y="908.9852">journalaar: number</text><ellipse cx="826" cy="921.6824" fill="none" rx="3" ry="3" style="stroke:#038048;stroke-width:1.0;"/><text fill="#000000" font-family="sans-serif" font-size="14" lengthAdjust="spacing" textLength="223" x="835" y="925.4734">journalsekvensnummer: number</text><line style="stroke:#181818;stroke-width:0.5;" x1="816" x2="1063" y1="932.4266" y2="932.4266"/></g><!--class MilepelStatusEnum--><g id="elem_MilepelStatusEnum"><rect codeLine="93" fill="#F1F1F1" height="80.9766" id="MilepelStatusEnum" rx="2.5" ry="2.5" style="stroke:#181818;stroke-width:0.5;" width="162" x="283.5" y="685.5"/><ellipse cx="298.5" cy="701.5" fill="#EB937F" rx="11" ry="11" style="stroke:#181818;stroke-width:1.0;"/><path d="M302.1143,708 L294.3945,708 L294.3945,695.6069 L302.1143,695.6069 L302.1143,697.7651 L296.8433,697.7651 L296.8433,700.438 L301.6162,700.438 L301.6162,702.5962 L296.8433,702.5962 L296.8433,705.8418 L302.1143,705.8418 Z " fill="#000000"/><text fill="#000000" font-family="sans-serif" font-size="14" lengthAdjust="spacing" textLength="130" x="312.5" y="706.791">MilepelStatusEnum</text><line style="stroke:#181818;stroke-width:0.5;" x1="284.5" x2="444.5" y1="717.5" y2="717.5"/><ellipse cx="294.5" cy="731.2441" fill="none" rx="3" ry="3" style="stroke:#038048;stroke-width:1.0;"/><text fill="#000000" font-family="sans-serif" font-size="14" lengthAdjust="spacing" textLength="36" x="303.5" y="735.0352">N&#229;dd</text><ellipse cx="294.5" cy="747.7324" fill="none" rx="3" ry="3" style="stroke:#038048;stroke-width:1.0;"/><text fill="#000000" font-family="sans-serif" font-size="14" lengthAdjust="spacing" textLength="55" x="303.5" y="751.5234">Planlagt</text><line style="stroke:#181818;stroke-width:0.5;" x1="284.5" x2="444.5" y1="758.4766" y2="758.4766"/></g><g id="elem_GMN34"><path d="M1132,200.54 L1132,225.8505 A0,0 0 0 0 1132,225.8505 L1233.5,225.8505 L1237.5,387.66 L1241.5,225.8505 L1343,225.8505 A0,0 0 0 0 1343,225.8505 L1343,210.54 L1333,200.54 L1132,200.54 A0,0 0 0 0 1132,200.54 " fill="#FEFFDD" style="stroke:#181818;stroke-width:0.5;"/><path d="M1333,200.54 L1333,210.54 L1343,210.54 L1333,200.54 " fill="#FEFFDD" style="stroke:#181818;stroke-width:0.5;"/><text fill="#000000" font-family="sans-serif" font-size="13" lengthAdjust="spacing" textLength="190" x="1138" y="218.1084">Hentet definisjon fra Fiks Plan</text></g><!--class Dokumenttype--><g id="elem_Dokumenttype"><rect codeLine="114" fill="#F1F1F1" height="89.5977" id="Dokumenttype" rx="2.5" ry="2.5" style="stroke:#181818;stroke-width:0.5;" width="184" x="1145.5" y="681.19"/><ellipse cx="1183.9" cy="701.5005" fill="#ADD1B2" rx="11" ry="11" style="stroke:#181818;stroke-width:1.0;"/><path d="M1186.3731,707.6436 Q1185.7921,707.9424 1185.1529,708.0919 Q1184.5138,708.2413 1183.8082,708.2413 Q1181.3014,708.2413 1179.9815,706.5894 Q1178.6617,704.9376 1178.6617,701.8165 Q1178.6617,698.6871 1179.9815,697.0352 Q1181.3014,695.3834 1183.8082,695.3834 Q1184.5138,695.3834 1185.1612,695.5328 Q1185.8087,695.6822 1186.3731,695.981 L1186.3731,698.7037 Q1185.7423,698.1226 1185.1488,697.8528 Q1184.5553,697.5831 1183.9244,697.5831 Q1182.5797,697.5831 1181.8949,698.6497 Q1181.2101,699.7164 1181.2101,701.8165 Q1181.2101,703.9083 1181.8949,704.9749 Q1182.5797,706.0416 1183.9244,706.0416 Q1184.5553,706.0416 1185.1488,705.7718 Q1185.7423,705.502 1186.3731,704.921 Z " fill="#000000"/><text fill="#000000" font-family="sans-serif" font-size="12" font-style="italic" lengthAdjust="spacing" textLength="42" x="1232.1" y="697.7916">&#171;Kode&#187;</text><text fill="#000000" font-family="sans-serif" font-size="14" lengthAdjust="spacing" textLength="100" x="1203.1" y="713.858">Dokumenttype</text><line style="stroke:#181818;stroke-width:0.5;" x1="1146.5" x2="1328.5" y1="721.8111" y2="721.8111"/><ellipse cx="1156.5" cy="735.5552" fill="none" rx="3" ry="3" style="stroke:#038048;stroke-width:1.0;"/><text fill="#000000" font-family="sans-serif" font-size="14" lengthAdjust="spacing" textLength="116" x="1165.5" y="739.3462">kodeverdi: string</text><ellipse cx="1156.5" cy="752.0435" fill="none" rx="3" ry="3" style="stroke:#038048;stroke-width:1.0;"/><text fill="#000000" font-family="sans-serif" font-size="14" lengthAdjust="spacing" textLength="158" x="1165.5" y="755.8345">kodebeskrivelse: string</text><line style="stroke:#181818;stroke-width:0.5;" x1="1146.5" x2="1328.5" y1="762.7877" y2="762.7877"/></g><!--link HentSaksfaseResultat to Fase--><g id="link_HentSaksfaseResultat_Fase"><path codeLine="6" d="M797.5,71.78 C797.5,88.55 797.5,110.02 797.5,131.1 " fill="none" id="HentSaksfaseResultat-Fase" style="stroke:#181818;stroke-width:1.0;"/></g><!--link Fase to Dokument--><g id="link_Fase_Dokument"><path codeLine="18" d="M897.22,266.87 C944.74,292.57 1002.08,324.44 1052.5,354.9 C1069.54,365.2 1077.1553,369.8218 1094.5653,381.0118 " fill="none" id="Fase-to-Dokument" style="stroke:#181818;stroke-width:1.0;"/><polygon fill="#181818" points="1104.66,387.5,1101.7754,380.891,1094.5653,381.0118,1097.4499,387.6208,1104.66,387.5" style="stroke:#181818;stroke-width:1.0;"/></g><!--link Fase to Milepel--><g id="link_Fase_Milepel"><path codeLine="19" d="M752.81,295.14 C742.41,313.98 731.11,334.45 719.97,354.63 " fill="none" id="Fase-Milepel" style="stroke:#181818;stroke-width:1.0;"/></g><!--link Fase to Fasekategori--><g id="link_Fase_Fasekategori"><path codeLine="20" d="M842.19,295.14 C867.23,340.51 897.5,395.33 918.19,432.81 " fill="none" id="Fase-Fasekategori" style="stroke:#181818;stroke-width:1.0;"/></g><!--link Fase to Vedtak--><g id="link_Fase_Vedtak"><path codeLine="21" d="M697.57,244.91 C630.16,268.53 541.3,305.51 472.5,354.9 C442.51,376.44 414.71,407.39 394.56,432.71 " fill="none" id="Fase-Vedtak" style="stroke:#181818;stroke-width:1.0;"/></g><!--link Milepel to Milepeltype--><g id="link_Milepel_Milepeltype"><path codeLine="50" d="M489.71,592.23 C483.97,595.22 478.22,598.08 472.5,600.76 C385.79,641.46 354.21,624.63 265.5,660.76 C251.28,666.56 236.54,673.55 222.47,680.76 " fill="none" id="Milepel-Milepeltype" style="stroke:#181818;stroke-width:1.0;"/></g><!--link Milepel to ReferanseJournalpost--><g id="link_Milepel_ReferanseJournalpost"><path codeLine="51" d="M658.96,601.19 C660.05,621.7 661.13,642.24 662.1,660.52 " fill="none" id="Milepel-ReferanseJournalpost" style="stroke:#181818;stroke-width:1.0;"/></g><!--link Milepel to ReferanseDokumentfil--><g id="link_Milepel_ReferanseDokumentfil"><path codeLine="52" d="M815.05,596.86 C858.89,628.7 903.35,660.98 936.68,685.18 " fill="none" id="Milepel-ReferanseDokumentfil" style="stroke:#181818;stroke-width:1.0;"/></g><!--link ReferanseJournalpost to EksternNoekkel--><g id="link_ReferanseJournalpost_EksternNoekkel"><path codeLine="69" d="M582.58,791.5 C553.43,814.18 521.54,838.99 495.76,859.05 " fill="none" id="ReferanseJournalpost-EksternNoekkel" style="stroke:#181818;stroke-width:1.0;"/></g><!--link ReferanseJournalpost to SaksJournalpostnummer--><g id="link_ReferanseJournalpost_SaksJournalpostnummer"><path codeLine="70" d="M665.5,791.5 C665.5,811.13 665.5,832.36 665.5,850.72 " fill="none" id="ReferanseJournalpost-SaksJournalpostnummer" style="stroke:#181818;stroke-width:1.0;"/></g><!--link ReferanseJournalpost to Journalnummer--><g id="link_ReferanseJournalpost_Journalnummer"><path codeLine="71" d="M768.31,791.5 C804.45,814.18 843.98,838.99 875.94,859.05 " fill="none" id="ReferanseJournalpost-Journalnummer" style="stroke:#181818;stroke-width:1.0;"/></g><!--link Milepel to MilepelStatusEnum--><g id="link_Milepel_MilepelStatusEnum"><path codeLine="90" d="M509.34,601.19 C473.77,631.59 438.12,662.06 411.1,685.16 " fill="none" id="Milepel-MilepelStatusEnum" style="stroke:#181818;stroke-width:1.0;"/></g><!--link Milepel to Dokument--><g id="link_Milepel_Dokument"><path codeLine="91" d="M789.35,354.46 C808.65,342.43 829.07,332.06 850,324.9 C927.8,298.3 957.04,298.77 1035,324.9 C1074.27,338.07 1102.5761,354.7509 1134.6061,380.0009 " fill="none" id="Milepel-to-Dokument" style="stroke:#181818;stroke-width:1.0;"/><polygon fill="#181818" points="1144.03,387.43,1141.7944,380.5742,1134.6061,380.0009,1136.8417,386.8568,1144.03,387.43" style="stroke:#181818;stroke-width:1.0;"/></g><!--link Dokument to Dokumenttype--><g id="link_Dokument_Dokumenttype"><path codeLine="111" d="M1237.5,568.05 C1237.5,606.43 1237.5,649.59 1237.5,680.91 " fill="none" id="Dokument-Dokumenttype" style="stroke:#181818;stroke-width:1.0;"/></g><!--link Dokument to ReferanseDokumentfil--><g id="link_Dokument_ReferanseDokumentfil"><path codeLine="112" d="M1148.34,568.05 C1108.19,608.22 1062.82,653.62 1031.25,685.21 " fill="none" id="Dokument-ReferanseDokumentfil" style="stroke:#181818;stroke-width:1.0;"/></g><!--SRC=[jLNDJkCm4BxdANpS7_K5AiG10Gki2Ykwsijs3owPL6uSExATI6Z5u_0EtFjYEuxjn4vTJYo7udmpdl5yytdynAdMv0Q4MTDQLrJ38-YE6sh8tuBWtrUBBSar_XOlHP7rN2oSlNWQejbrl5lGNYo9Deg9tOIoCiLgQc0d5NEvmfUpDOn32npKagpSylSVPz6OlzDkptfONuckSROUIaFh9Var_7TOAUkkmHfig4k_nbXOsN3gnPSHzS0YP1o_a-C5qESeX3H0Z6o9h3n6bkIgrj2qzlWRiPDblSVm6r42xvac4q1xpG-lPbYXnP10g0zqTlPTbd1-7hYjyQi7LR8PaGXlGTUAzS1jxxpn9UvFAE33WdgMGXZzh0qqjxCUvoBCck_ZcESMl5OKKh4a9Neue3EL19L0BQU2qvtvoNWCCzjdbDvMIWvKE5111OeA3NUoKuBoLjhmZnbqvX-44Ja7g6BSEOD24Tgp9IaHvPsPeq6wlk98lKXge7FIty1816TFdBF7Xqpq6GLEH4esuWAqOPnZVmZjYMnRRSlIpU4Djt-wUFYy4TzGj48srU5DcIEFXnLwhAIniiK0jZ-LL1fxL91KC4FsZn9XZfFt5QbWX_9IO15zUvaQzouAjgInjDp5dpueZi8eL_1Sv-2Pd91lgyvx2NKDVE0_-hOrPQl1piuyJxdb3t7AEotEyvaDCHAAHagnMeItCI4uNNeGEf0Hc_V7N7dpsCFa826NttUKpkFvZ6F8bB3fQTevJQHD5w4XaxWojp6whQCnUZiAGCknRqXzVtWjIxVyuKUNpHDVpX0ARwPzSy6G4YeccDvBGIf5oJMhDR6xGvNZ3fza_i0QPanKb-E0yUFNERoHzcfEh-GqaLLcihmt51lMW8kLow9nNijuQbDLipuv5L8p5eSjI4uK6_8ZBsNd_yoRAE4f-ZiLQ-eV]--></g></svg>