<svg xmlns="http://www.w3.org/2000/svg" xmlns:xlink="http://www.w3.org/1999/xlink" contentStyleType="text/css" height="972px" preserveAspectRatio="none" style="width:2249px;height:972px;background:#FFFFFF;" version="1.1" viewBox="0 0 2249 972" width="2249px" zoomAndPan="magnify"><defs/><g><!--class Dokument--><g id="elem_Dokument"><rect codeLine="3" fill="#F1F1F1" height="179.9063" id="Dokument" rx="2.5" ry="2.5" style="stroke:#181818;stroke-width:0.5;" width="335" x="1009" y="404.37"/><ellipse cx="1136.75" cy="420.37" fill="#ADD1B2" rx="11" ry="11" style="stroke:#181818;stroke-width:1.0;"/><path d="M1139.2231,426.5131 Q1138.6421,426.8119 1138.0029,426.9613 Q1137.3638,427.1107 1136.6582,427.1107 Q1134.1514,427.1107 1132.8315,425.4589 Q1131.5117,423.807 1131.5117,420.6859 Q1131.5117,417.5565 1132.8315,415.9047 Q1134.1514,414.2528 1136.6582,414.2528 Q1137.3638,414.2528 1138.0112,414.4022 Q1138.6587,414.5516 1139.2231,414.8505 L1139.2231,417.5731 Q1138.5923,416.9921 1137.9988,416.7223 Q1137.4053,416.4525 1136.7744,416.4525 Q1135.4297,416.4525 1134.7449,417.5192 Q1134.0601,418.5858 1134.0601,420.6859 Q1134.0601,422.7777 1134.7449,423.8444 Q1135.4297,424.911 1136.7744,424.911 Q1137.4053,424.911 1137.9988,424.6412 Q1138.5923,424.3715 1139.2231,423.7904 Z " fill="#000000"/><text fill="#000000" font-family="sans-serif" font-size="14" lengthAdjust="spacing" textLength="71" x="1157.25" y="425.661">Dokument</text><line style="stroke:#181818;stroke-width:0.5;" x1="1010" x2="1343" y1="436.37" y2="436.37"/><ellipse cx="1020" cy="450.1141" fill="none" rx="3" ry="3" style="stroke:#038048;stroke-width:1.0;"/><text fill="#000000" font-family="sans-serif" font-size="14" lengthAdjust="spacing" textLength="61" x="1029" y="453.9052">id: string</text><ellipse cx="1020" cy="466.6024" fill="none" rx="3" ry="3" style="stroke:#038048;stroke-width:1.0;"/><text fill="#000000" font-family="sans-serif" font-size="14" lengthAdjust="spacing" textLength="79" x="1029" y="470.3934">tittel: string</text><ellipse cx="1020" cy="483.0907" fill="none" rx="3" ry="3" style="stroke:#038048;stroke-width:1.0;"/><text fill="#000000" font-family="sans-serif" font-size="14" lengthAdjust="spacing" textLength="94" x="1029" y="486.8817">filnavn: string</text><ellipse cx="1020" cy="499.579" fill="none" rx="3" ry="3" style="stroke:#038048;stroke-width:1.0;"/><text fill="#000000" font-family="sans-serif" font-size="14" lengthAdjust="spacing" textLength="207" x="1029" y="503.37">dokumenttype: Dokumenttype</text><ellipse cx="1020" cy="516.0673" fill="none" rx="3" ry="3" style="stroke:#038048;stroke-width:1.0;"/><text fill="#000000" font-family="sans-serif" font-size="14" lengthAdjust="spacing" textLength="309" x="1029" y="519.8583">referanseDokumentfil: ReferanseDokumentfil</text><ellipse cx="1020" cy="532.5555" fill="none" rx="3" ry="3" style="stroke:#038048;stroke-width:1.0;"/><text fill="#000000" font-family="sans-serif" font-size="14" lengthAdjust="spacing" textLength="115" x="1029" y="536.3466">mimetype: string</text><ellipse cx="1020" cy="549.0438" fill="none" rx="3" ry="3" style="stroke:#038048;stroke-width:1.0;"/><text fill="#000000" font-family="sans-serif" font-size="14" lengthAdjust="spacing" textLength="146" x="1029" y="552.8348">dokumentsdato: date</text><ellipse cx="1020" cy="565.5321" fill="none" rx="3" ry="3" style="stroke:#038048;stroke-width:1.0;"/><text fill="#000000" font-family="sans-serif" font-size="14" lengthAdjust="spacing" textLength="114" x="1029" y="569.3231">arkivnavn: string</text><line style="stroke:#181818;stroke-width:0.5;" x1="1010" x2="1343" y1="576.2763" y2="576.2763"/></g><g id="elem_GMN3"><path d="M1071,217.03 L1071,242.3405 A0,0 0 0 0 1071,242.3405 L1172.5,242.3405 L1176.5,404.15 L1180.5,242.3405 L1282,242.3405 A0,0 0 0 0 1282,242.3405 L1282,227.03 L1272,217.03 L1071,217.03 A0,0 0 0 0 1071,217.03 " fill="#FEFFDD" style="stroke:#181818;stroke-width:0.5;"/><path d="M1272,217.03 L1272,227.03 L1282,227.03 L1272,217.03 " fill="#FEFFDD" style="stroke:#181818;stroke-width:0.5;"/><text fill="#000000" font-family="sans-serif" font-size="13" lengthAdjust="spacing" textLength="190" x="1077" y="234.5984">Hentet definisjon fra Fiks Plan</text></g><!--class Dokumenttype--><g id="elem_Dokumenttype"><rect codeLine="19" fill="#F1F1F1" height="89.5977" id="Dokumenttype" rx="2.5" ry="2.5" style="stroke:#181818;stroke-width:0.5;" width="184" x="1303.5" y="697.68"/><ellipse cx="1341.9" cy="717.9905" fill="#ADD1B2" rx="11" ry="11" style="stroke:#181818;stroke-width:1.0;"/><path d="M1344.3731,724.1336 Q1343.7921,724.4324 1343.1529,724.5819 Q1342.5138,724.7313 1341.8082,724.7313 Q1339.3014,724.7313 1337.9815,723.0794 Q1336.6617,721.4276 1336.6617,718.3065 Q1336.6617,715.1771 1337.9815,713.5252 Q1339.3014,711.8734 1341.8082,711.8734 Q1342.5138,711.8734 1343.1612,712.0228 Q1343.8087,712.1722 1344.3731,712.471 L1344.3731,715.1937 Q1343.7423,714.6126 1343.1488,714.3428 Q1342.5553,714.0731 1341.9244,714.0731 Q1340.5797,714.0731 1339.8949,715.1397 Q1339.2101,716.2064 1339.2101,718.3065 Q1339.2101,720.3983 1339.8949,721.4649 Q1340.5797,722.5316 1341.9244,722.5316 Q1342.5553,722.5316 1343.1488,722.2618 Q1343.7423,721.992 1344.3731,721.411 Z " fill="#000000"/><text fill="#000000" font-family="sans-serif" font-size="12" font-style="italic" lengthAdjust="spacing" textLength="42" x="1390.1" y="714.2816">&#171;Kode&#187;</text><text fill="#000000" font-family="sans-serif" font-size="14" lengthAdjust="spacing" textLength="100" x="1361.1" y="730.348">Dokumenttype</text><line style="stroke:#181818;stroke-width:0.5;" x1="1304.5" x2="1486.5" y1="738.3011" y2="738.3011"/><ellipse cx="1314.5" cy="752.0452" fill="none" rx="3" ry="3" style="stroke:#038048;stroke-width:1.0;"/><text fill="#000000" font-family="sans-serif" font-size="14" lengthAdjust="spacing" textLength="116" x="1323.5" y="755.8363">kodeverdi: string</text><ellipse cx="1314.5" cy="768.5335" fill="none" rx="3" ry="3" style="stroke:#038048;stroke-width:1.0;"/><text fill="#000000" font-family="sans-serif" font-size="14" lengthAdjust="spacing" textLength="158" x="1323.5" y="772.3245">kodebeskrivelse: string</text><line style="stroke:#181818;stroke-width:0.5;" x1="1304.5" x2="1486.5" y1="779.2777" y2="779.2777"/></g><!--class ReferanseDokumentfil--><g id="elem_ReferanseDokumentfil"><rect codeLine="24" fill="#F1F1F1" height="80.9766" id="ReferanseDokumentfil" rx="2.5" ry="2.5" style="stroke:#181818;stroke-width:0.5;" width="184" x="1084.5" y="701.99"/><ellipse cx="1099.5" cy="717.99" fill="#ADD1B2" rx="11" ry="11" style="stroke:#181818;stroke-width:1.0;"/><path d="M1101.9731,724.1331 Q1101.3921,724.4319 1100.7529,724.5813 Q1100.1138,724.7307 1099.4082,724.7307 Q1096.9014,724.7307 1095.5815,723.0789 Q1094.2617,721.427 1094.2617,718.3059 Q1094.2617,715.1765 1095.5815,713.5247 Q1096.9014,711.8728 1099.4082,711.8728 Q1100.1138,711.8728 1100.7612,712.0222 Q1101.4087,712.1716 1101.9731,712.4705 L1101.9731,715.1931 Q1101.3423,714.6121 1100.7488,714.3423 Q1100.1553,714.0725 1099.5244,714.0725 Q1098.1797,714.0725 1097.4949,715.1392 Q1096.8101,716.2058 1096.8101,718.3059 Q1096.8101,720.3977 1097.4949,721.4644 Q1098.1797,722.531 1099.5244,722.531 Q1100.1553,722.531 1100.7488,722.2612 Q1101.3423,721.9915 1101.9731,721.4104 Z " fill="#000000"/><text fill="#000000" font-family="sans-serif" font-size="14" lengthAdjust="spacing" textLength="152" x="1113.5" y="723.281">ReferanseDokumentfil</text><line style="stroke:#181818;stroke-width:0.5;" x1="1085.5" x2="1267.5" y1="733.99" y2="733.99"/><ellipse cx="1095.5" cy="747.7341" fill="none" rx="3" ry="3" style="stroke:#038048;stroke-width:1.0;"/><text fill="#000000" font-family="sans-serif" font-size="14" lengthAdjust="spacing" textLength="61" x="1104.5" y="751.5252">id: string</text><ellipse cx="1095.5" cy="764.2224" fill="none" rx="3" ry="3" style="stroke:#038048;stroke-width:1.0;"/><text fill="#000000" font-family="sans-serif" font-size="14" lengthAdjust="spacing" textLength="67" x="1104.5" y="768.0134">url: string</text><line style="stroke:#181818;stroke-width:0.5;" x1="1085.5" x2="1267.5" y1="774.9666" y2="774.9666"/></g><!--class Fase--><g id="elem_Fase"><rect codeLine="2" fill="#F1F1F1" height="163.418" id="Fase" rx="2.5" ry="2.5" style="stroke:#181818;stroke-width:0.5;" width="199" x="1334" y="147.98"/><ellipse cx="1413.75" cy="163.98" fill="#ADD1B2" rx="11" ry="11" style="stroke:#181818;stroke-width:1.0;"/><path d="M1416.2231,170.1231 Q1415.6421,170.4219 1415.0029,170.5713 Q1414.3638,170.7207 1413.6582,170.7207 Q1411.1514,170.7207 1409.8315,169.0689 Q1408.5117,167.417 1408.5117,164.2959 Q1408.5117,161.1665 1409.8315,159.5147 Q1411.1514,157.8628 1413.6582,157.8628 Q1414.3638,157.8628 1415.0112,158.0122 Q1415.6587,158.1616 1416.2231,158.4605 L1416.2231,161.1831 Q1415.5923,160.6021 1414.9988,160.3323 Q1414.4053,160.0625 1413.7744,160.0625 Q1412.4297,160.0625 1411.7449,161.1292 Q1411.0601,162.1958 1411.0601,164.2959 Q1411.0601,166.3877 1411.7449,167.4544 Q1412.4297,168.521 1413.7744,168.521 Q1414.4053,168.521 1414.9988,168.2512 Q1415.5923,167.9815 1416.2231,167.4004 Z " fill="#000000"/><text fill="#000000" font-family="sans-serif" font-size="14" lengthAdjust="spacing" textLength="31" x="1434.25" y="169.271">Fase</text><line style="stroke:#181818;stroke-width:0.5;" x1="1335" x2="1532" y1="179.98" y2="179.98"/><ellipse cx="1345" cy="193.7241" fill="none" rx="3" ry="3" style="stroke:#038048;stroke-width:1.0;"/><text fill="#000000" font-family="sans-serif" font-size="14" lengthAdjust="spacing" textLength="109" x="1354" y="197.5152">fasenavn: string</text><ellipse cx="1345" cy="210.2124" fill="none" rx="3" ry="3" style="stroke:#038048;stroke-width:1.0;"/><text fill="#000000" font-family="sans-serif" font-size="14" lengthAdjust="spacing" textLength="89" x="1354" y="214.0034">faseid: string</text><ellipse cx="1345" cy="226.7007" fill="none" rx="3" ry="3" style="stroke:#038048;stroke-width:1.0;"/><text fill="#000000" font-family="sans-serif" font-size="14" lengthAdjust="spacing" textLength="153" x="1354" y="230.4917">kategori: Fasekategori</text><ellipse cx="1345" cy="243.189" fill="none" rx="3" ry="3" style="stroke:#038048;stroke-width:1.0;"/><text fill="#000000" font-family="sans-serif" font-size="14" lengthAdjust="spacing" textLength="131" x="1354" y="246.98">milepeler: Milepel[]</text><ellipse cx="1345" cy="259.6773" fill="none" rx="3" ry="3" style="stroke:#038048;stroke-width:1.0;"/><text fill="#000000" font-family="sans-serif" font-size="14" lengthAdjust="spacing" textLength="161" x="1354" y="263.4683">status: FaseStatusEnum</text><ellipse cx="1345" cy="276.1655" fill="none" rx="3" ry="3" style="stroke:#038048;stroke-width:1.0;"/><text fill="#000000" font-family="sans-serif" font-size="14" lengthAdjust="spacing" textLength="100" x="1354" y="279.9566">vedtak: Vedtak</text><ellipse cx="1345" cy="292.6538" fill="none" rx="3" ry="3" style="stroke:#038048;stroke-width:1.0;"/><text fill="#000000" font-family="sans-serif" font-size="14" lengthAdjust="spacing" textLength="173" x="1354" y="296.4448">dokumenter: Dokument[]</text><line style="stroke:#181818;stroke-width:0.5;" x1="1335" x2="1532" y1="303.398" y2="303.398"/></g><g id="elem_GMN11"><path d="M961.5,27.18 L961.5,67.8011 A0,0 0 0 0 961.5,67.8011 L1252.18,67.8011 L1344.2,147.82 L1260.18,67.8011 L1507.5,67.8011 A0,0 0 0 0 1507.5,67.8011 L1507.5,37.18 L1497.5,27.18 L961.5,27.18 A0,0 0 0 0 961.5,27.18 " fill="#FEFFDD" style="stroke:#181818;stroke-width:0.5;"/><path d="M1497.5,27.18 L1497.5,37.18 L1507.5,37.18 L1497.5,27.18 " fill="#FEFFDD" style="stroke:#181818;stroke-width:0.5;"/><text fill="#000000" font-family="sans-serif" font-size="13" lengthAdjust="spacing" textLength="369" x="967.5" y="44.7484">En fase er i hovedsak det som hender mellom to milepeler.</text><text fill="#000000" font-family="sans-serif" font-size="13" lengthAdjust="spacing" textLength="525" x="967.5" y="60.0589">Interne faser sendes ikke ut ved denne protokollen. Vi kutter derfor ut Global flagg.</text></g><path d="M1568,204.37 L1568,220.6805 L1443,208.7124 L1568,228.6805 L1568,244.9911 A0,0 0 0 0 1568,244.9911 L2089,244.9911 A0,0 0 0 0 2089,244.9911 L2089,214.37 L2079,204.37 L1568,204.37 A0,0 0 0 0 1568,204.37 " fill="#FEFFDD" style="stroke:#181818;stroke-width:0.5;"/><path d="M2079,204.37 L2079,214.37 L2089,214.37 L2079,204.37 " fill="#FEFFDD" style="stroke:#181818;stroke-width:0.5;"/><text fill="#000000" font-family="sans-serif" font-size="13" lengthAdjust="spacing" textLength="500" x="1574" y="221.9384">Faseid brukes alene (ikke sammen med saksnummer) for &#229; hente en enkelt fase</text><text fill="#000000" font-family="sans-serif" font-size="13" lengthAdjust="spacing" textLength="165" x="1574" y="237.2489">Den m&#229; dermed v&#230;re unik</text><!--class Vedtak--><g id="elem_Vedtak"><rect codeLine="31" fill="#F1F1F1" height="89.5977" id="Vedtak" rx="2.5" ry="2.5" style="stroke:#181818;stroke-width:0.5;" width="184" x="1943.5" y="449.53"/><ellipse cx="2007.75" cy="469.8405" fill="#ADD1B2" rx="11" ry="11" style="stroke:#181818;stroke-width:1.0;"/><path d="M2010.2231,475.9836 Q2009.6421,476.2824 2009.0029,476.4319 Q2008.3638,476.5813 2007.6582,476.5813 Q2005.1514,476.5813 2003.8315,474.9294 Q2002.5117,473.2776 2002.5117,470.1565 Q2002.5117,467.0271 2003.8315,465.3752 Q2005.1514,463.7234 2007.6582,463.7234 Q2008.3638,463.7234 2009.0112,463.8728 Q2009.6587,464.0222 2010.2231,464.321 L2010.2231,467.0437 Q2009.5923,466.4626 2008.9988,466.1928 Q2008.4053,465.9231 2007.7744,465.9231 Q2006.4297,465.9231 2005.7449,466.9897 Q2005.0601,468.0564 2005.0601,470.1565 Q2005.0601,472.2483 2005.7449,473.3149 Q2006.4297,474.3816 2007.7744,474.3816 Q2008.4053,474.3816 2008.9988,474.1118 Q2009.5923,473.842 2010.2231,473.261 Z " fill="#000000"/><text fill="#000000" font-family="sans-serif" font-size="12" font-style="italic" lengthAdjust="spacing" textLength="42" x="2030.75" y="466.1316">&#171;Kode&#187;</text><text fill="#000000" font-family="sans-serif" font-size="14" lengthAdjust="spacing" textLength="47" x="2028.25" y="482.198">Vedtak</text><line style="stroke:#181818;stroke-width:0.5;" x1="1944.5" x2="2126.5" y1="490.1511" y2="490.1511"/><ellipse cx="1954.5" cy="503.8952" fill="none" rx="3" ry="3" style="stroke:#038048;stroke-width:1.0;"/><text fill="#000000" font-family="sans-serif" font-size="14" lengthAdjust="spacing" textLength="116" x="1963.5" y="507.6863">kodeverdi: string</text><ellipse cx="1954.5" cy="520.3835" fill="none" rx="3" ry="3" style="stroke:#038048;stroke-width:1.0;"/><text fill="#000000" font-family="sans-serif" font-size="14" lengthAdjust="spacing" textLength="158" x="1963.5" y="524.1745">kodebeskrivelse: string</text><line style="stroke:#181818;stroke-width:0.5;" x1="1944.5" x2="2126.5" y1="531.1277" y2="531.1277"/></g><!--class FaseStatusEnum--><g id="elem_FaseStatusEnum"><rect codeLine="23" fill="#F1F1F1" height="97.4648" id="FaseStatusEnum" rx="2.5" ry="2.5" style="stroke:#181818;stroke-width:0.5;" width="144" x="1379.5" y="445.59"/><ellipse cx="1394.5" cy="461.59" fill="#EB937F" rx="11" ry="11" style="stroke:#181818;stroke-width:1.0;"/><path d="M1398.1143,468.09 L1390.3945,468.09 L1390.3945,455.6969 L1398.1143,455.6969 L1398.1143,457.8551 L1392.8433,457.8551 L1392.8433,460.528 L1397.6162,460.528 L1397.6162,462.6862 L1392.8433,462.6862 L1392.8433,465.9318 L1398.1143,465.9318 Z " fill="#000000"/><text fill="#000000" font-family="sans-serif" font-size="14" lengthAdjust="spacing" textLength="112" x="1408.5" y="466.881">FaseStatusEnum</text><line style="stroke:#181818;stroke-width:0.5;" x1="1380.5" x2="1522.5" y1="477.59" y2="477.59"/><ellipse cx="1390.5" cy="491.3341" fill="none" rx="3" ry="3" style="stroke:#038048;stroke-width:1.0;"/><text fill="#000000" font-family="sans-serif" font-size="14" lengthAdjust="spacing" textLength="55" x="1399.5" y="495.1252">Planlagt</text><ellipse cx="1390.5" cy="507.8224" fill="none" rx="3" ry="3" style="stroke:#038048;stroke-width:1.0;"/><text fill="#000000" font-family="sans-serif" font-size="14" lengthAdjust="spacing" textLength="88" x="1399.5" y="511.6134">UnderArbeid</text><ellipse cx="1390.5" cy="524.3107" fill="none" rx="3" ry="3" style="stroke:#038048;stroke-width:1.0;"/><text fill="#000000" font-family="sans-serif" font-size="14" lengthAdjust="spacing" textLength="48" x="1399.5" y="528.1017">Utfoert</text><line style="stroke:#181818;stroke-width:0.5;" x1="1380.5" x2="1522.5" y1="535.0548" y2="535.0548"/></g><!--class Fasekategori--><g id="elem_Fasekategori"><rect codeLine="36" fill="#F1F1F1" height="89.5977" id="Fasekategori" rx="2.5" ry="2.5" style="stroke:#181818;stroke-width:0.5;" width="184" x="1576.5" y="449.53"/><ellipse cx="1620.3" cy="469.8405" fill="#ADD1B2" rx="11" ry="11" style="stroke:#181818;stroke-width:1.0;"/><path d="M1622.7731,475.9836 Q1622.1921,476.2824 1621.5529,476.4319 Q1620.9138,476.5813 1620.2082,476.5813 Q1617.7014,476.5813 1616.3815,474.9294 Q1615.0617,473.2776 1615.0617,470.1565 Q1615.0617,467.0271 1616.3815,465.3752 Q1617.7014,463.7234 1620.2082,463.7234 Q1620.9138,463.7234 1621.5612,463.8728 Q1622.2087,464.0222 1622.7731,464.321 L1622.7731,467.0437 Q1622.1423,466.4626 1621.5488,466.1928 Q1620.9553,465.9231 1620.3244,465.9231 Q1618.9797,465.9231 1618.2949,466.9897 Q1617.6101,468.0564 1617.6101,470.1565 Q1617.6101,472.2483 1618.2949,473.3149 Q1618.9797,474.3816 1620.3244,474.3816 Q1620.9553,474.3816 1621.5488,474.1118 Q1622.1423,473.842 1622.7731,473.261 Z " fill="#000000"/><text fill="#000000" font-family="sans-serif" font-size="12" font-style="italic" lengthAdjust="spacing" textLength="42" x="1663.7" y="466.1316">&#171;Kode&#187;</text><text fill="#000000" font-family="sans-serif" font-size="14" lengthAdjust="spacing" textLength="88" x="1640.7" y="482.198">Fasekategori</text><line style="stroke:#181818;stroke-width:0.5;" x1="1577.5" x2="1759.5" y1="490.1511" y2="490.1511"/><ellipse cx="1587.5" cy="503.8952" fill="none" rx="3" ry="3" style="stroke:#038048;stroke-width:1.0;"/><text fill="#000000" font-family="sans-serif" font-size="14" lengthAdjust="spacing" textLength="116" x="1596.5" y="507.6863">kodeverdi: string</text><ellipse cx="1587.5" cy="520.3835" fill="none" rx="3" ry="3" style="stroke:#038048;stroke-width:1.0;"/><text fill="#000000" font-family="sans-serif" font-size="14" lengthAdjust="spacing" textLength="158" x="1596.5" y="524.1745">kodebeskrivelse: string</text><line style="stroke:#181818;stroke-width:0.5;" x1="1577.5" x2="1759.5" y1="531.1277" y2="531.1277"/></g><g id="elem_GMN22"><path d="M2124.5,186.41 L2124.5,272.9627 A0,0 0 0 0 2124.5,272.9627 L2155.56,272.9627 L2060.4,449.14 L2163.56,272.9627 L2242.5,272.9627 A0,0 0 0 0 2242.5,272.9627 L2242.5,196.41 L2232.5,186.41 L2124.5,186.41 A0,0 0 0 0 2124.5,186.41 " fill="#FEFFDD" style="stroke:#181818;stroke-width:0.5;"/><path d="M2232.5,186.41 L2232.5,196.41 L2242.5,196.41 L2232.5,186.41 " fill="#FEFFDD" style="stroke:#181818;stroke-width:0.5;"/><text fill="#000000" font-family="sans-serif" font-size="13" lengthAdjust="spacing" textLength="69" x="2130.5" y="203.9784">Eksempler:</text><text fill="#000000" font-family="sans-serif" font-size="13" lengthAdjust="spacing" textLength="56" x="2130.5" y="219.2889">godkjent</text><text fill="#000000" font-family="sans-serif" font-size="13" lengthAdjust="spacing" textLength="97" x="2130.5" y="234.5995">delvis godkjent</text><text fill="#000000" font-family="sans-serif" font-size="13" lengthAdjust="spacing" textLength="42" x="2130.5" y="249.91">avsl&#229;tt</text><text fill="#000000" font-family="sans-serif" font-size="13" lengthAdjust="spacing" textLength="37" x="2130.5" y="265.2205">avvist</text></g><g id="elem_GMN25"><path d="M1522.5,691.54 L1522.5,793.4033 A0,0 0 0 0 1522.5,793.4033 L1848.5,793.4033 A0,0 0 0 0 1848.5,793.4033 L1848.5,701.54 L1838.5,691.54 L1686.03,691.54 L1671.56,539.62 L1678.03,691.54 L1522.5,691.54 A0,0 0 0 0 1522.5,691.54 " fill="#FEFFDD" style="stroke:#181818;stroke-width:0.5;"/><path d="M1838.5,691.54 L1838.5,701.54 L1848.5,701.54 L1838.5,691.54 " fill="#FEFFDD" style="stroke:#181818;stroke-width:0.5;"/><text fill="#000000" font-family="sans-serif" font-size="13" lengthAdjust="spacing" textLength="305" x="1528.5" y="709.1084">Se gjerne Byggesaksbehandling::Prosesskategori</text><text fill="#000000" font-family="sans-serif" font-size="13" lengthAdjust="spacing" textLength="45" x="1532.5" y="724.4189">fra NPS</text><text fill="#000000" font-family="sans-serif" font-size="13" lengthAdjust="spacing" textLength="210" x="1528.5" y="739.7295">Vi m&#229; f&#229; avklart denne kodelisten</text><text fill="#000000" font-family="sans-serif" font-size="13" lengthAdjust="spacing" textLength="69" x="1528.5" y="755.04">Eksempler:</text><text fill="#000000" font-family="sans-serif" font-size="13" lengthAdjust="spacing" textLength="34" x="1528.5" y="770.3505">Klage</text><text fill="#000000" font-family="sans-serif" font-size="13" lengthAdjust="spacing" textLength="43" x="1528.5" y="785.6611">H&#248;ring</text></g><!--class Milepel--><g id="elem_Milepel"><rect codeLine="2" fill="#F1F1F1" height="245.8594" id="Milepel" rx="2.5" ry="2.5" style="stroke:#181818;stroke-width:0.5;" width="325" x="610" y="371.39"/><ellipse cx="743.75" cy="387.39" fill="#ADD1B2" rx="11" ry="11" style="stroke:#181818;stroke-width:1.0;"/><path d="M746.2231,393.5331 Q745.6421,393.8319 745.0029,393.9813 Q744.3638,394.1307 743.6582,394.1307 Q741.1514,394.1307 739.8315,392.4789 Q738.5117,390.827 738.5117,387.7059 Q738.5117,384.5765 739.8315,382.9247 Q741.1514,381.2728 743.6582,381.2728 Q744.3638,381.2728 745.0112,381.4222 Q745.6587,381.5716 746.2231,381.8705 L746.2231,384.5931 Q745.5923,384.0121 744.9988,383.7423 Q744.4053,383.4725 743.7744,383.4725 Q742.4297,383.4725 741.7449,384.5392 Q741.0601,385.6058 741.0601,387.7059 Q741.0601,389.7977 741.7449,390.8644 Q742.4297,391.931 743.7744,391.931 Q744.4053,391.931 744.9988,391.6612 Q745.5923,391.3915 746.2231,390.8104 Z " fill="#000000"/><text fill="#000000" font-family="sans-serif" font-size="14" lengthAdjust="spacing" textLength="49" x="764.25" y="392.681">Milepel</text><line style="stroke:#181818;stroke-width:0.5;" x1="611" x2="934" y1="403.39" y2="403.39"/><ellipse cx="621" cy="417.1341" fill="none" rx="3" ry="3" style="stroke:#038048;stroke-width:1.0;"/><text fill="#000000" font-family="sans-serif" font-size="14" lengthAdjust="spacing" textLength="108" x="630" y="420.9252">systemId: string</text><ellipse cx="621" cy="433.6224" fill="none" rx="3" ry="3" style="stroke:#038048;stroke-width:1.0;"/><text fill="#000000" font-family="sans-serif" font-size="14" lengthAdjust="spacing" textLength="124" x="630" y="437.4134">beskrivelse: string</text><ellipse cx="621" cy="450.1107" fill="none" rx="3" ry="3" style="stroke:#038048;stroke-width:1.0;"/><text fill="#000000" font-family="sans-serif" font-size="14" lengthAdjust="spacing" textLength="143" x="630" y="453.9017">kategori: Milepeltype</text><ellipse cx="621" cy="466.599" fill="none" rx="3" ry="3" style="stroke:#038048;stroke-width:1.0;"/><text fill="#000000" font-family="sans-serif" font-size="14" lengthAdjust="spacing" textLength="65" x="630" y="470.39">frist: date</text><ellipse cx="621" cy="483.0873" fill="none" rx="3" ry="3" style="stroke:#038048;stroke-width:1.0;"/><text fill="#000000" font-family="sans-serif" font-size="14" lengthAdjust="spacing" textLength="85" x="630" y="486.8783">utfoert: date</text><ellipse cx="621" cy="499.5755" fill="none" rx="3" ry="3" style="stroke:#038048;stroke-width:1.0;"/><text fill="#000000" font-family="sans-serif" font-size="14" lengthAdjust="spacing" textLength="111" x="630" y="503.3666">planlagtTil: date</text><ellipse cx="621" cy="516.0638" fill="none" rx="3" ry="3" style="stroke:#038048;stroke-width:1.0;"/><text fill="#000000" font-family="sans-serif" font-size="14" lengthAdjust="spacing" textLength="105" x="630" y="519.8548">intern: boolean</text><ellipse cx="621" cy="532.5521" fill="none" rx="3" ry="3" style="stroke:#038048;stroke-width:1.0;"/><text fill="#000000" font-family="sans-serif" font-size="14" lengthAdjust="spacing" textLength="299" x="630" y="536.3431">referanseJournalpost: ReferanseJournalpost</text><ellipse cx="621" cy="549.0404" fill="none" rx="3" ry="3" style="stroke:#038048;stroke-width:1.0;"/><text fill="#000000" font-family="sans-serif" font-size="14" lengthAdjust="spacing" textLength="296" x="630" y="552.8314">referanseDokument: ReferanseDokumentfil</text><ellipse cx="621" cy="565.5287" fill="none" rx="3" ry="3" style="stroke:#038048;stroke-width:1.0;"/><text fill="#000000" font-family="sans-serif" font-size="14" lengthAdjust="spacing" textLength="110" x="630" y="569.3197">erStart: boolean</text><ellipse cx="621" cy="582.017" fill="none" rx="3" ry="3" style="stroke:#038048;stroke-width:1.0;"/><text fill="#000000" font-family="sans-serif" font-size="14" lengthAdjust="spacing" textLength="109" x="630" y="585.808">erSlutt: boolean</text><ellipse cx="621" cy="598.5052" fill="none" rx="3" ry="3" style="stroke:#038048;stroke-width:1.0;"/><text fill="#000000" font-family="sans-serif" font-size="14" lengthAdjust="spacing" textLength="179" x="630" y="602.2963">status: MilepelStatusEnum</text><line style="stroke:#181818;stroke-width:0.5;" x1="611" x2="934" y1="609.2494" y2="609.2494"/></g><!--class Milepeltype--><g id="elem_Milepeltype"><rect codeLine="24" fill="#F1F1F1" height="80.9766" id="Milepeltype" rx="2.5" ry="2.5" style="stroke:#181818;stroke-width:0.5;" width="184" x="28.5" y="701.99"/><ellipse cx="77.25" cy="717.99" fill="#ADD1B2" rx="11" ry="11" style="stroke:#181818;stroke-width:1.0;"/><path d="M79.7231,724.1331 Q79.1421,724.4319 78.5029,724.5813 Q77.8638,724.7307 77.1582,724.7307 Q74.6514,724.7307 73.3315,723.0789 Q72.0117,721.427 72.0117,718.3059 Q72.0117,715.1765 73.3315,713.5247 Q74.6514,711.8728 77.1582,711.8728 Q77.8638,711.8728 78.5112,712.0222 Q79.1587,712.1716 79.7231,712.4705 L79.7231,715.1931 Q79.0923,714.6121 78.4988,714.3423 Q77.9053,714.0725 77.2744,714.0725 Q75.9297,714.0725 75.2449,715.1392 Q74.5601,716.2058 74.5601,718.3059 Q74.5601,720.3977 75.2449,721.4644 Q75.9297,722.531 77.2744,722.531 Q77.9053,722.531 78.4988,722.2612 Q79.0923,721.9915 79.7231,721.4104 Z " fill="#000000"/><text fill="#000000" font-family="sans-serif" font-size="14" lengthAdjust="spacing" textLength="78" x="97.75" y="723.281">Milepeltype</text><line style="stroke:#181818;stroke-width:0.5;" x1="29.5" x2="211.5" y1="733.99" y2="733.99"/><ellipse cx="39.5" cy="747.7341" fill="none" rx="3" ry="3" style="stroke:#038048;stroke-width:1.0;"/><text fill="#000000" font-family="sans-serif" font-size="14" lengthAdjust="spacing" textLength="116" x="48.5" y="751.5252">kodeverdi: string</text><ellipse cx="39.5" cy="764.2224" fill="none" rx="3" ry="3" style="stroke:#038048;stroke-width:1.0;"/><text fill="#000000" font-family="sans-serif" font-size="14" lengthAdjust="spacing" textLength="158" x="48.5" y="768.0134">kodebeskrivelse: string</text><line style="stroke:#181818;stroke-width:0.5;" x1="29.5" x2="211.5" y1="774.9666" y2="774.9666"/></g><g id="elem_GMN31"><path d="M6,458.7 L6,529.9422 A0,0 0 0 0 6,529.9422 L116.5,529.9422 L120.5,701.7 L124.5,529.9422 L235,529.9422 A0,0 0 0 0 235,529.9422 L235,468.7 L225,458.7 L6,458.7 A0,0 0 0 0 6,458.7 " fill="#FEFFDD" style="stroke:#181818;stroke-width:0.5;"/><path d="M225,458.7 L225,468.7 L235,468.7 L225,458.7 " fill="#FEFFDD" style="stroke:#181818;stroke-width:0.5;"/><text fill="#000000" font-family="sans-serif" font-size="13" lengthAdjust="spacing" textLength="69" x="12" y="476.2684">Eksempler:</text><text fill="#000000" font-family="sans-serif" font-size="13" lengthAdjust="spacing" textLength="201" x="12" y="491.5789">Bestilling av oppstartsm&#248;te (BO)</text><text fill="#000000" font-family="sans-serif" font-size="13" lengthAdjust="spacing" textLength="208" x="12" y="506.8895">Gjennomf&#248;rt oppstartsm&#248;te (OM)</text><text fill="#000000" font-family="sans-serif" font-size="13" lengthAdjust="spacing" textLength="137" x="12" y="522.2">Mottak av planforslag</text></g><g id="elem_GMN34"><path d="M850,729.82 L850,755.1305 A0,0 0 0 0 850,755.1305 L1049,755.1305 A0,0 0 0 0 1049,755.1305 L1049,739.82 L1039,729.82 L944.9,729.82 L860.48,617.68 L936.9,729.82 L850,729.82 A0,0 0 0 0 850,729.82 " fill="#FEFFDD" style="stroke:#181818;stroke-width:0.5;"/><path d="M1039,729.82 L1039,739.82 L1049,739.82 L1039,729.82 " fill="#FEFFDD" style="stroke:#181818;stroke-width:0.5;"/><text fill="#000000" font-family="sans-serif" font-size="13" lengthAdjust="spacing" textLength="178" x="856" y="747.3884">frist og utfoert ikke p&#229;krevd</text></g><!--class ReferanseJournalpost--><g id="elem_ReferanseJournalpost"><rect codeLine="31" fill="#F1F1F1" height="130.4414" id="ReferanseJournalpost" rx="2.5" ry="2.5" style="stroke:#181818;stroke-width:0.5;" width="369" x="248" y="677.25"/><ellipse cx="354.75" cy="693.25" fill="#ADD1B2" rx="11" ry="11" style="stroke:#181818;stroke-width:1.0;"/><path d="M357.2231,699.3931 Q356.6421,699.6919 356.0029,699.8413 Q355.3638,699.9907 354.6582,699.9907 Q352.1514,699.9907 350.8315,698.3389 Q349.5117,696.687 349.5117,693.5659 Q349.5117,690.4365 350.8315,688.7847 Q352.1514,687.1328 354.6582,687.1328 Q355.3638,687.1328 356.0112,687.2822 Q356.6587,687.4316 357.2231,687.7305 L357.2231,690.4531 Q356.5923,689.8721 355.9988,689.6023 Q355.4053,689.3325 354.7744,689.3325 Q353.4297,689.3325 352.7449,690.3992 Q352.0601,691.4658 352.0601,693.5659 Q352.0601,695.6577 352.7449,696.7244 Q353.4297,697.791 354.7744,697.791 Q355.4053,697.791 355.9988,697.5212 Q356.5923,697.2515 357.2231,696.6704 Z " fill="#000000"/><text fill="#000000" font-family="sans-serif" font-size="14" lengthAdjust="spacing" textLength="147" x="375.25" y="698.541">ReferanseJournalpost</text><line style="stroke:#181818;stroke-width:0.5;" x1="249" x2="616" y1="709.25" y2="709.25"/><ellipse cx="259" cy="722.9941" fill="none" rx="3" ry="3" style="stroke:#038048;stroke-width:1.0;"/><text fill="#000000" font-family="sans-serif" font-size="14" lengthAdjust="spacing" textLength="108" x="268" y="726.7852">systemId: string</text><ellipse cx="259" cy="739.4824" fill="none" rx="3" ry="3" style="stroke:#038048;stroke-width:1.0;"/><text fill="#000000" font-family="sans-serif" font-size="14" lengthAdjust="spacing" textLength="150" x="268" y="743.2734">registreringsID: string</text><ellipse cx="259" cy="755.9707" fill="none" rx="3" ry="3" style="stroke:#038048;stroke-width:1.0;"/><text fill="#000000" font-family="sans-serif" font-size="14" lengthAdjust="spacing" textLength="222" x="268" y="759.7617">journalnummer: Journalnummer</text><ellipse cx="259" cy="772.459" fill="none" rx="3" ry="3" style="stroke:#038048;stroke-width:1.0;"/><text fill="#000000" font-family="sans-serif" font-size="14" lengthAdjust="spacing" textLength="343" x="268" y="776.25">saksJournalpostnummer: SaksJournalpostnummer</text><ellipse cx="259" cy="788.9473" fill="none" rx="3" ry="3" style="stroke:#038048;stroke-width:1.0;"/><text fill="#000000" font-family="sans-serif" font-size="14" lengthAdjust="spacing" textLength="285" x="268" y="792.7383">referanseEksternNoekkel: EksternNoekkel</text><line style="stroke:#181818;stroke-width:0.5;" x1="249" x2="616" y1="799.6914" y2="799.6914"/></g><!--class MilepelStatusEnum--><g id="elem_MilepelStatusEnum"><rect codeLine="60" fill="#F1F1F1" height="80.9766" id="MilepelStatusEnum" rx="2.5" ry="2.5" style="stroke:#181818;stroke-width:0.5;" width="162" x="652.5" y="701.99"/><ellipse cx="667.5" cy="717.99" fill="#EB937F" rx="11" ry="11" style="stroke:#181818;stroke-width:1.0;"/><path d="M671.1143,724.49 L663.3945,724.49 L663.3945,712.0969 L671.1143,712.0969 L671.1143,714.2551 L665.8433,714.2551 L665.8433,716.928 L670.6162,716.928 L670.6162,719.0862 L665.8433,719.0862 L665.8433,722.3318 L671.1143,722.3318 Z " fill="#000000"/><text fill="#000000" font-family="sans-serif" font-size="14" lengthAdjust="spacing" textLength="130" x="681.5" y="723.281">MilepelStatusEnum</text><line style="stroke:#181818;stroke-width:0.5;" x1="653.5" x2="813.5" y1="733.99" y2="733.99"/><ellipse cx="663.5" cy="747.7341" fill="none" rx="3" ry="3" style="stroke:#038048;stroke-width:1.0;"/><text fill="#000000" font-family="sans-serif" font-size="14" lengthAdjust="spacing" textLength="36" x="672.5" y="751.5252">N&#229;dd</text><ellipse cx="663.5" cy="764.2224" fill="none" rx="3" ry="3" style="stroke:#038048;stroke-width:1.0;"/><text fill="#000000" font-family="sans-serif" font-size="14" lengthAdjust="spacing" textLength="55" x="672.5" y="768.0134">Planlagt</text><line style="stroke:#181818;stroke-width:0.5;" x1="653.5" x2="813.5" y1="774.9666" y2="774.9666"/></g><!--class EksternNoekkel--><g id="elem_EksternNoekkel"><rect codeLine="55" fill="#F1F1F1" height="80.9766" id="EksternNoekkel" rx="2.5" ry="2.5" style="stroke:#181818;stroke-width:0.5;" width="143" x="140" y="875.94"/><ellipse cx="157.25" cy="891.94" fill="#ADD1B2" rx="11" ry="11" style="stroke:#181818;stroke-width:1.0;"/><path d="M159.7231,898.0831 Q159.1421,898.3819 158.5029,898.5313 Q157.8638,898.6807 157.1582,898.6807 Q154.6514,898.6807 153.3315,897.0289 Q152.0117,895.377 152.0117,892.2559 Q152.0117,889.1265 153.3315,887.4747 Q154.6514,885.8228 157.1582,885.8228 Q157.8638,885.8228 158.5112,885.9722 Q159.1587,886.1216 159.7231,886.4205 L159.7231,889.1431 Q159.0923,888.5621 158.4988,888.2923 Q157.9053,888.0225 157.2744,888.0225 Q155.9297,888.0225 155.2449,889.0892 Q154.5601,890.1558 154.5601,892.2559 Q154.5601,894.3477 155.2449,895.4144 Q155.9297,896.481 157.2744,896.481 Q157.9053,896.481 158.4988,896.2112 Q159.0923,895.9415 159.7231,895.3604 Z " fill="#000000"/><text fill="#000000" font-family="sans-serif" font-size="14" lengthAdjust="spacing" textLength="106" x="171.75" y="897.231">EksternNoekkel</text><line style="stroke:#181818;stroke-width:0.5;" x1="141" x2="282" y1="907.94" y2="907.94"/><ellipse cx="151" cy="921.6841" fill="none" rx="3" ry="3" style="stroke:#038048;stroke-width:1.0;"/><text fill="#000000" font-family="sans-serif" font-size="14" lengthAdjust="spacing" textLength="117" x="160" y="925.4752">fagsystem: string</text><ellipse cx="151" cy="938.1724" fill="none" rx="3" ry="3" style="stroke:#038048;stroke-width:1.0;"/><text fill="#000000" font-family="sans-serif" font-size="14" lengthAdjust="spacing" textLength="102" x="160" y="941.9634">noekkel: string</text><line style="stroke:#181818;stroke-width:0.5;" x1="141" x2="282" y1="948.9166" y2="948.9166"/></g><!--class SaksJournalpostnummer--><g id="elem_SaksJournalpostnummer"><rect codeLine="44" fill="#F1F1F1" height="97.4648" id="SaksJournalpostnummer" rx="2.5" ry="2.5" style="stroke:#181818;stroke-width:0.5;" width="230" x="317.5" y="867.7"/><ellipse cx="346" cy="883.7" fill="#ADD1B2" rx="11" ry="11" style="stroke:#181818;stroke-width:1.0;"/><path d="M348.4731,889.8431 Q347.8921,890.1419 347.2529,890.2913 Q346.6138,890.4407 345.9082,890.4407 Q343.4014,890.4407 342.0815,888.7889 Q340.7617,887.137 340.7617,884.0159 Q340.7617,880.8865 342.0815,879.2347 Q343.4014,877.5828 345.9082,877.5828 Q346.6138,877.5828 347.2612,877.7322 Q347.9087,877.8816 348.4731,878.1805 L348.4731,880.9031 Q347.8423,880.3221 347.2488,880.0523 Q346.6553,879.7825 346.0244,879.7825 Q344.6797,879.7825 343.9949,880.8492 Q343.3101,881.9158 343.3101,884.0159 Q343.3101,886.1077 343.9949,887.1744 Q344.6797,888.241 346.0244,888.241 Q346.6553,888.241 347.2488,887.9712 Q347.8423,887.7015 348.4731,887.1204 Z " fill="#000000"/><text fill="#000000" font-family="sans-serif" font-size="14" lengthAdjust="spacing" textLength="168" x="363" y="888.991">SaksJournalpostnummer</text><line style="stroke:#181818;stroke-width:0.5;" x1="318.5" x2="546.5" y1="899.7" y2="899.7"/><ellipse cx="328.5" cy="913.4441" fill="none" rx="3" ry="3" style="stroke:#038048;stroke-width:1.0;"/><text fill="#000000" font-family="sans-serif" font-size="14" lengthAdjust="spacing" textLength="114" x="337.5" y="917.2352">saksaar: number</text><ellipse cx="328.5" cy="929.9324" fill="none" rx="3" ry="3" style="stroke:#038048;stroke-width:1.0;"/><text fill="#000000" font-family="sans-serif" font-size="14" lengthAdjust="spacing" textLength="204" x="337.5" y="933.7234">sakssekvensnummer: number</text><ellipse cx="328.5" cy="946.4207" fill="none" rx="3" ry="3" style="stroke:#038048;stroke-width:1.0;"/><text fill="#000000" font-family="sans-serif" font-size="14" lengthAdjust="spacing" textLength="199" x="337.5" y="950.2117">journalpostnummer: number</text><line style="stroke:#181818;stroke-width:0.5;" x1="318.5" x2="546.5" y1="957.1648" y2="957.1648"/></g><!--class Journalnummer--><g id="elem_Journalnummer"><rect codeLine="50" fill="#F1F1F1" height="80.9766" id="Journalnummer" rx="2.5" ry="2.5" style="stroke:#181818;stroke-width:0.5;" width="249" x="582" y="875.94"/><ellipse cx="648.75" cy="891.94" fill="#ADD1B2" rx="11" ry="11" style="stroke:#181818;stroke-width:1.0;"/><path d="M651.2231,898.0831 Q650.6421,898.3819 650.0029,898.5313 Q649.3638,898.6807 648.6582,898.6807 Q646.1514,898.6807 644.8315,897.0289 Q643.5117,895.377 643.5117,892.2559 Q643.5117,889.1265 644.8315,887.4747 Q646.1514,885.8228 648.6582,885.8228 Q649.3638,885.8228 650.0112,885.9722 Q650.6587,886.1216 651.2231,886.4205 L651.2231,889.1431 Q650.5923,888.5621 649.9988,888.2923 Q649.4053,888.0225 648.7744,888.0225 Q647.4297,888.0225 646.7449,889.0892 Q646.0601,890.1558 646.0601,892.2559 Q646.0601,894.3477 646.7449,895.4144 Q647.4297,896.481 648.7744,896.481 Q649.4053,896.481 649.9988,896.2112 Q650.5923,895.9415 651.2231,895.3604 Z " fill="#000000"/><text fill="#000000" font-family="sans-serif" font-size="14" lengthAdjust="spacing" textLength="107" x="669.25" y="897.231">Journalnummer</text><line style="stroke:#181818;stroke-width:0.5;" x1="583" x2="830" y1="907.94" y2="907.94"/><ellipse cx="593" cy="921.6841" fill="none" rx="3" ry="3" style="stroke:#038048;stroke-width:1.0;"/><text fill="#000000" font-family="sans-serif" font-size="14" lengthAdjust="spacing" textLength="133" x="602" y="925.4752">journalaar: number</text><ellipse cx="593" cy="938.1724" fill="none" rx="3" ry="3" style="stroke:#038048;stroke-width:1.0;"/><text fill="#000000" font-family="sans-serif" font-size="14" lengthAdjust="spacing" textLength="223" x="602" y="941.9634">journalsekvensnummer: number</text><line style="stroke:#181818;stroke-width:0.5;" x1="583" x2="830" y1="948.9166" y2="948.9166"/></g><!--class Saksnummer--><g id="elem_Saksnummer"><rect codeLine="2" fill="#F1F1F1" height="80.9766" id="Saksnummer" rx="2.5" ry="2.5" style="stroke:#181818;stroke-width:0.5;" width="225" x="1755" y="7"/><ellipse cx="1818.75" cy="23" fill="#ADD1B2" rx="11" ry="11" style="stroke:#181818;stroke-width:1.0;"/><path d="M1821.2231,29.1431 Q1820.6421,29.4419 1820.0029,29.5913 Q1819.3638,29.7407 1818.6582,29.7407 Q1816.1514,29.7407 1814.8315,28.0889 Q1813.5117,26.437 1813.5117,23.3159 Q1813.5117,20.1865 1814.8315,18.5347 Q1816.1514,16.8828 1818.6582,16.8828 Q1819.3638,16.8828 1820.0112,17.0322 Q1820.6587,17.1816 1821.2231,17.4805 L1821.2231,20.2031 Q1820.5923,19.6221 1819.9988,19.3523 Q1819.4053,19.0825 1818.7744,19.0825 Q1817.4297,19.0825 1816.7449,20.1492 Q1816.0601,21.2158 1816.0601,23.3159 Q1816.0601,25.4077 1816.7449,26.4744 Q1817.4297,27.541 1818.7744,27.541 Q1819.4053,27.541 1819.9988,27.2712 Q1820.5923,27.0015 1821.2231,26.4204 Z " fill="#000000"/><text fill="#000000" font-family="sans-serif" font-size="14" lengthAdjust="spacing" textLength="89" x="1839.25" y="28.291">Saksnummer</text><line style="stroke:#181818;stroke-width:0.5;" x1="1756" x2="1979" y1="39" y2="39"/><ellipse cx="1766" cy="52.7441" fill="none" rx="3" ry="3" style="stroke:#038048;stroke-width:1.0;"/><text fill="#000000" font-family="sans-serif" font-size="14" lengthAdjust="spacing" textLength="109" x="1775" y="56.5352">saksaar: integer</text><ellipse cx="1766" cy="69.2324" fill="none" rx="3" ry="3" style="stroke:#038048;stroke-width:1.0;"/><text fill="#000000" font-family="sans-serif" font-size="14" lengthAdjust="spacing" textLength="199" x="1775" y="73.0234">sakssekvensnummer: integer</text><line style="stroke:#181818;stroke-width:0.5;" x1="1756" x2="1979" y1="79.9766" y2="79.9766"/></g><!--class HentSaksfaseResultat--><g id="elem_HentSaksfaseResultat"><rect codeLine="6" fill="#F1F1F1" height="64.4883" id="HentSaksfaseResultat" rx="2.5" ry="2.5" style="stroke:#181818;stroke-width:0.5;" width="178" x="1542.5" y="15.24"/><ellipse cx="1557.5" cy="31.24" fill="#ADD1B2" rx="11" ry="11" style="stroke:#181818;stroke-width:1.0;"/><path d="M1559.9731,37.3831 Q1559.3921,37.6819 1558.7529,37.8313 Q1558.1138,37.9807 1557.4082,37.9807 Q1554.9014,37.9807 1553.5815,36.3289 Q1552.2617,34.677 1552.2617,31.5559 Q1552.2617,28.4265 1553.5815,26.7747 Q1554.9014,25.1228 1557.4082,25.1228 Q1558.1138,25.1228 1558.7612,25.2722 Q1559.4087,25.4216 1559.9731,25.7205 L1559.9731,28.4431 Q1559.3423,27.8621 1558.7488,27.5923 Q1558.1553,27.3225 1557.5244,27.3225 Q1556.1797,27.3225 1555.4949,28.3892 Q1554.8101,29.4558 1554.8101,31.5559 Q1554.8101,33.6477 1555.4949,34.7144 Q1556.1797,35.781 1557.5244,35.781 Q1558.1553,35.781 1558.7488,35.5112 Q1559.3423,35.2415 1559.9731,34.6604 Z " fill="#000000"/><text fill="#000000" font-family="sans-serif" font-size="14" lengthAdjust="spacing" textLength="146" x="1571.5" y="36.531">HentSaksfaseResultat</text><line style="stroke:#181818;stroke-width:0.5;" x1="1543.5" x2="1719.5" y1="47.24" y2="47.24"/><ellipse cx="1553.5" cy="60.9841" fill="none" rx="3" ry="3" style="stroke:#038048;stroke-width:1.0;"/><text fill="#000000" font-family="sans-serif" font-size="14" lengthAdjust="spacing" textLength="67" x="1562.5" y="64.7752">fase: Fase</text><line style="stroke:#181818;stroke-width:0.5;" x1="1543.5" x2="1719.5" y1="71.7283" y2="71.7283"/></g><!--link Dokument to Dokumenttype--><g id="link_Dokument_Dokumenttype"><path codeLine="16" d="M1255.87,584.54 C1290.03,622.92 1328.42,666.08 1356.29,697.4 " fill="none" id="Dokument-Dokumenttype" style="stroke:#181818;stroke-width:1.0;"/></g><!--link Dokument to ReferanseDokumentfil--><g id="link_Dokument_ReferanseDokumentfil"><path codeLine="17" d="M1176.5,584.54 C1176.5,624.71 1176.5,670.11 1176.5,701.7 " fill="none" id="Dokument-ReferanseDokumentfil" style="stroke:#181818;stroke-width:1.0;"/></g><!--link Fase to Vedtak--><g id="link_Fase_Vedtak"><path codeLine="19" d="M1533.34,302.76 C1539.04,305.86 1544.78,308.77 1550.5,311.39 C1645.72,355.13 1680.07,335.45 1778.5,371.39 C1838.22,393.21 1902.88,423.92 1952.4,449.06 " fill="none" id="Fase-Vedtak" style="stroke:#181818;stroke-width:1.0;"/></g><!--link Fase to FaseStatusEnum--><g id="link_Fase_FaseStatusEnum"><path codeLine="20" d="M1439.05,311.63 C1442.04,355.34 1445.64,407.82 1448.2,445.12 " fill="none" id="Fase-FaseStatusEnum" style="stroke:#181818;stroke-width:1.0;"/></g><!--link Fase to Fasekategori--><g id="link_Fase_Fasekategori"><path codeLine="21" d="M1505.93,311.63 C1546.52,357 1595.57,411.82 1629.11,449.3 " fill="none" id="Fase-Fasekategori" style="stroke:#181818;stroke-width:1.0;"/></g><!--link Milepel to Milepeltype--><g id="link_Milepel_Milepeltype"><path codeLine="17" d="M609.7,540.45 C500.3,573.07 354.09,621.15 230.5,677.25 C215,684.29 198.87,692.91 183.89,701.51 " fill="none" id="Milepel-Milepeltype" style="stroke:#181818;stroke-width:1.0;"/></g><!--link Milepel to ReferanseJournalpost--><g id="link_Milepel_ReferanseJournalpost"><path codeLine="29" d="M609.97,612.99 C579.58,634.99 548.87,657.23 521.74,676.87 " fill="none" id="Milepel-ReferanseJournalpost" style="stroke:#181818;stroke-width:1.0;"/></g><!--link Milepel to MilepelStatusEnum--><g id="link_Milepel_MilepelStatusEnum"><path codeLine="39" d="M753.11,617.68 C748.3,648.08 743.47,678.55 739.81,701.65 " fill="none" id="Milepel-MilepelStatusEnum" style="stroke:#181818;stroke-width:1.0;"/></g><!--link ReferanseJournalpost to EksternNoekkel--><g id="link_ReferanseJournalpost_EksternNoekkel"><path codeLine="40" d="M349.58,807.99 C320.43,830.67 288.54,855.48 262.76,875.54 " fill="none" id="ReferanseJournalpost-EksternNoekkel" style="stroke:#181818;stroke-width:1.0;"/></g><!--link ReferanseJournalpost to SaksJournalpostnummer--><g id="link_ReferanseJournalpost_SaksJournalpostnummer"><path codeLine="41" d="M432.5,807.99 C432.5,827.62 432.5,848.85 432.5,867.21 " fill="none" id="ReferanseJournalpost-SaksJournalpostnummer" style="stroke:#181818;stroke-width:1.0;"/></g><!--link ReferanseJournalpost to Journalnummer--><g id="link_ReferanseJournalpost_Journalnummer"><path codeLine="42" d="M535.31,807.99 C571.45,830.67 610.98,855.48 642.94,875.54 " fill="none" id="ReferanseJournalpost-Journalnummer" style="stroke:#181818;stroke-width:1.0;"/></g><!--link HentSaksfaseResultat to Fase--><g id="link_HentSaksfaseResultat_Fase"><path codeLine="10" d="M1597.01,79.88 C1576.29,98.73 1548.9,123.67 1522.46,147.72 " fill="none" id="HentSaksfaseResultat-Fase" style="stroke:#181818;stroke-width:1.0;"/></g><!--link Fase to Dokument--><g id="link_Fase_Dokument"><path codeLine="12" d="M1354.29,311.63 C1325.68,340.87 1301.6231,365.4635 1272.3431,395.3835 " fill="none" id="Fase-to-Dokument" style="stroke:#181818;stroke-width:1.0;"/><polygon fill="#181818" points="1263.95,403.96,1271.0054,402.4694,1272.3431,395.3835,1265.2877,396.8741,1263.95,403.96" style="stroke:#181818;stroke-width:1.0;"/></g><!--link Fase to Milepel--><g id="link_Fase_Milepel"><path codeLine="13" d="M1333.71,295.85 C1322.44,301.67 1310.91,307.01 1299.5,311.39 C1169.34,361.47 1122.5,323.55 991.5,371.39 C972.9,378.19 954,386.42 935.48,395.36 " fill="none" id="Fase-Milepel" style="stroke:#181818;stroke-width:1.0;"/></g><!--link Milepel to Dokument--><g id="link_Milepel_Dokument"><path codeLine="14" d="M935.44,494.32 C959.92,494.32 972.41,494.32 996.89,494.32 " fill="none" id="Milepel-to-Dokument" style="stroke:#181818;stroke-width:1.0;"/><polygon fill="#181818" points="1008.89,494.32,1002.89,490.32,996.89,494.32,1002.89,498.32,1008.89,494.32" style="stroke:#181818;stroke-width:1.0;"/></g><!--SRC=[fL0n3i8m3Dpz2dS5nHKhCq8iBF22g7LHL2UjweO5yNSIcWN1WkhXB9_F9vqh5ng9BIFLH7KOg5VgN0ArlNPMUQBxZZeMOQLswAFdCDUDMDNMsTjaFOqHgdzSyhpEmJlXaMMTIUP2z9wdBnzu4tXAKQ_byi8QPROpFW1JRJEtnsD2U0ByL1gpx24ZcWqUoliAOV2yv83IFpGl]--></g></svg>