<svg xmlns="http://www.w3.org/2000/svg" xmlns:xlink="http://www.w3.org/1999/xlink" contentStyleType="text/css" height="972px" preserveAspectRatio="none" style="width:1907px;height:972px;background:#FFFFFF;" version="1.1" viewBox="0 0 1907 972" width="1907px" zoomAndPan="magnify"><defs/><g><!--class ReferanseDokumentfil--><g id="elem_ReferanseDokumentfil"><rect codeLine="40" fill="#F1F1F1" height="80.9766" id="ReferanseDokumentfil" rx="2.5" ry="2.5" style="stroke:#181818;stroke-width:0.5;" width="184" x="1051" y="701.99"/><ellipse cx="1066" cy="717.99" fill="#ADD1B2" rx="11" ry="11" style="stroke:#181818;stroke-width:1.0;"/><path d="M1068.4731,724.1331 Q1067.8921,724.4319 1067.2529,724.5813 Q1066.6138,724.7307 1065.9082,724.7307 Q1063.4014,724.7307 1062.0815,723.0789 Q1060.7617,721.427 1060.7617,718.3059 Q1060.7617,715.1765 1062.0815,713.5247 Q1063.4014,711.8728 1065.9082,711.8728 Q1066.6138,711.8728 1067.2612,712.0222 Q1067.9087,712.1716 1068.4731,712.4705 L1068.4731,715.1931 Q1067.8423,714.6121 1067.2488,714.3423 Q1066.6553,714.0725 1066.0244,714.0725 Q1064.6797,714.0725 1063.9949,715.1392 Q1063.3101,716.2058 1063.3101,718.3059 Q1063.3101,720.3977 1063.9949,721.4644 Q1064.6797,722.531 1066.0244,722.531 Q1066.6553,722.531 1067.2488,722.2612 Q1067.8423,721.9915 1068.4731,721.4104 Z " fill="#000000"/><text fill="#000000" font-family="sans-serif" font-size="14" lengthAdjust="spacing" textLength="152" x="1080" y="723.281">ReferanseDokumentfil</text><line style="stroke:#181818;stroke-width:0.5;" x1="1052" x2="1234" y1="733.99" y2="733.99"/><ellipse cx="1062" cy="747.7341" fill="#000000" rx="3" ry="3" style="stroke:#000000;stroke-width:1.0;"/><text fill="#000000" font-family="sans-serif" font-size="14" lengthAdjust="spacing" textLength="61" x="1071" y="751.5252">id: string</text><ellipse cx="1062" cy="764.2224" fill="#000000" rx="3" ry="3" style="stroke:#000000;stroke-width:1.0;"/><text fill="#000000" font-family="sans-serif" font-size="14" lengthAdjust="spacing" textLength="67" x="1071" y="768.0134">url: string</text><line style="stroke:#181818;stroke-width:0.5;" x1="1052" x2="1234" y1="774.9666" y2="774.9666"/></g><!--class Dokument--><g id="elem_Dokument"><rect codeLine="3" fill="#F1F1F1" height="179.9063" id="Dokument" rx="2.5" ry="2.5" style="stroke:#181818;stroke-width:0.5;" width="335" x="1565.5" y="131.49"/><ellipse cx="1693.25" cy="147.49" fill="#ADD1B2" rx="11" ry="11" style="stroke:#181818;stroke-width:1.0;"/><path d="M1695.7231,153.6331 Q1695.1421,153.9319 1694.5029,154.0813 Q1693.8638,154.2307 1693.1582,154.2307 Q1690.6514,154.2307 1689.3315,152.5789 Q1688.0117,150.927 1688.0117,147.8059 Q1688.0117,144.6765 1689.3315,143.0247 Q1690.6514,141.3728 1693.1582,141.3728 Q1693.8638,141.3728 1694.5112,141.5222 Q1695.1587,141.6716 1695.7231,141.9705 L1695.7231,144.6931 Q1695.0923,144.1121 1694.4988,143.8423 Q1693.9053,143.5725 1693.2744,143.5725 Q1691.9297,143.5725 1691.2449,144.6392 Q1690.5601,145.7058 1690.5601,147.8059 Q1690.5601,149.8977 1691.2449,150.9644 Q1691.9297,152.031 1693.2744,152.031 Q1693.9053,152.031 1694.4988,151.7612 Q1695.0923,151.4915 1695.7231,150.9104 Z " fill="#000000"/><text fill="#000000" font-family="sans-serif" font-size="14" lengthAdjust="spacing" textLength="71" x="1713.75" y="152.781">Dokument</text><line style="stroke:#181818;stroke-width:0.5;" x1="1566.5" x2="1899.5" y1="163.49" y2="163.49"/><ellipse cx="1576.5" cy="177.2341" fill="#000000" rx="3" ry="3" style="stroke:#000000;stroke-width:1.0;"/><text fill="#000000" font-family="sans-serif" font-size="14" lengthAdjust="spacing" textLength="61" x="1585.5" y="181.0252">id: string</text><text fill="#000000" font-family="sans-serif" font-size="14" lengthAdjust="spacing" textLength="79" x="1585.5" y="197.5134">tittel: string</text><text fill="#000000" font-family="sans-serif" font-size="14" lengthAdjust="spacing" textLength="94" x="1585.5" y="214.0017">filnavn: string</text><text fill="#000000" font-family="sans-serif" font-size="14" lengthAdjust="spacing" textLength="207" x="1585.5" y="230.49">dokumenttype: Dokumenttype</text><text fill="#000000" font-family="sans-serif" font-size="14" lengthAdjust="spacing" textLength="309" x="1585.5" y="246.9783">referanseDokumentfil: ReferanseDokumentfil</text><text fill="#000000" font-family="sans-serif" font-size="14" lengthAdjust="spacing" textLength="115" x="1585.5" y="263.4666">mimetype: string</text><text fill="#000000" font-family="sans-serif" font-size="14" lengthAdjust="spacing" textLength="146" x="1585.5" y="279.9548">dokumentsdato: date</text><text fill="#000000" font-family="sans-serif" font-size="14" lengthAdjust="spacing" textLength="114" x="1585.5" y="296.4431">arkivnavn: string</text><line style="stroke:#181818;stroke-width:0.5;" x1="1566.5" x2="1899.5" y1="303.3963" y2="303.3963"/></g><g id="elem_GMN4"><path d="M1627.5,26.59 L1627.5,51.9005 A0,0 0 0 0 1627.5,51.9005 L1729,51.9005 L1733,131.28 L1737,51.9005 L1838.5,51.9005 A0,0 0 0 0 1838.5,51.9005 L1838.5,36.59 L1828.5,26.59 L1627.5,26.59 A0,0 0 0 0 1627.5,26.59 " fill="#FEFFDD" style="stroke:#181818;stroke-width:0.5;"/><path d="M1828.5,26.59 L1828.5,36.59 L1838.5,36.59 L1828.5,26.59 " fill="#FEFFDD" style="stroke:#181818;stroke-width:0.5;"/><text fill="#000000" font-family="sans-serif" font-size="13" lengthAdjust="spacing" textLength="190" x="1633.5" y="44.1584">Hentet definisjon fra Fiks Plan</text></g><!--class Dokumenttype--><g id="elem_Dokumenttype"><rect codeLine="19" fill="#F1F1F1" height="89.5977" id="Dokumenttype" rx="2.5" ry="2.5" style="stroke:#181818;stroke-width:0.5;" width="184" x="1641" y="449.53"/><ellipse cx="1679.4" cy="469.8405" fill="#ADD1B2" rx="11" ry="11" style="stroke:#181818;stroke-width:1.0;"/><path d="M1681.8731,475.9836 Q1681.2921,476.2824 1680.6529,476.4319 Q1680.0138,476.5813 1679.3082,476.5813 Q1676.8014,476.5813 1675.4815,474.9294 Q1674.1617,473.2776 1674.1617,470.1565 Q1674.1617,467.0271 1675.4815,465.3752 Q1676.8014,463.7234 1679.3082,463.7234 Q1680.0138,463.7234 1680.6612,463.8728 Q1681.3087,464.0222 1681.8731,464.321 L1681.8731,467.0437 Q1681.2423,466.4626 1680.6488,466.1928 Q1680.0553,465.9231 1679.4244,465.9231 Q1678.0797,465.9231 1677.3949,466.9897 Q1676.7101,468.0564 1676.7101,470.1565 Q1676.7101,472.2483 1677.3949,473.3149 Q1678.0797,474.3816 1679.4244,474.3816 Q1680.0553,474.3816 1680.6488,474.1118 Q1681.2423,473.842 1681.8731,473.261 Z " fill="#000000"/><text fill="#000000" font-family="sans-serif" font-size="12" font-style="italic" lengthAdjust="spacing" textLength="42" x="1727.6" y="466.1316">&#171;Kode&#187;</text><text fill="#000000" font-family="sans-serif" font-size="14" lengthAdjust="spacing" textLength="100" x="1698.6" y="482.198">Dokumenttype</text><line style="stroke:#181818;stroke-width:0.5;" x1="1642" x2="1824" y1="490.1511" y2="490.1511"/><ellipse cx="1652" cy="503.8952" fill="none" rx="3" ry="3" style="stroke:#038048;stroke-width:1.0;"/><text fill="#000000" font-family="sans-serif" font-size="14" lengthAdjust="spacing" textLength="116" x="1661" y="507.6863">kodeverdi: string</text><ellipse cx="1652" cy="520.3835" fill="none" rx="3" ry="3" style="stroke:#038048;stroke-width:1.0;"/><text fill="#000000" font-family="sans-serif" font-size="14" lengthAdjust="spacing" textLength="158" x="1661" y="524.1745">kodebeskrivelse: string</text><line style="stroke:#181818;stroke-width:0.5;" x1="1642" x2="1824" y1="531.1277" y2="531.1277"/></g><!--class ReferanseJournalpost--><g id="elem_ReferanseJournalpost"><rect codeLine="2" fill="#F1F1F1" height="130.4414" id="ReferanseJournalpost" rx="2.5" ry="2.5" style="stroke:#181818;stroke-width:0.5;" width="355" x="660.5" y="677.25"/><ellipse cx="760.25" cy="693.25" fill="#ADD1B2" rx="11" ry="11" style="stroke:#181818;stroke-width:1.0;"/><path d="M762.7231,699.3931 Q762.1421,699.6919 761.5029,699.8413 Q760.8638,699.9907 760.1582,699.9907 Q757.6514,699.9907 756.3315,698.3389 Q755.0117,696.687 755.0117,693.5659 Q755.0117,690.4365 756.3315,688.7847 Q757.6514,687.1328 760.1582,687.1328 Q760.8638,687.1328 761.5112,687.2822 Q762.1587,687.4316 762.7231,687.7305 L762.7231,690.4531 Q762.0923,689.8721 761.4988,689.6023 Q760.9053,689.3325 760.2744,689.3325 Q758.9297,689.3325 758.2449,690.3992 Q757.5601,691.4658 757.5601,693.5659 Q757.5601,695.6577 758.2449,696.7244 Q758.9297,697.791 760.2744,697.791 Q760.9053,697.791 761.4988,697.5212 Q762.0923,697.2515 762.7231,696.6704 Z " fill="#000000"/><text fill="#000000" font-family="sans-serif" font-size="14" lengthAdjust="spacing" textLength="147" x="780.75" y="698.541">ReferanseJournalpost</text><line style="stroke:#181818;stroke-width:0.5;" x1="661.5" x2="1014.5" y1="709.25" y2="709.25"/><text fill="#000000" font-family="sans-serif" font-size="14" lengthAdjust="spacing" textLength="108" x="666.5" y="726.7852">systemId: string</text><text fill="#000000" font-family="sans-serif" font-size="14" lengthAdjust="spacing" textLength="150" x="666.5" y="743.2734">registreringsID: string</text><text fill="#000000" font-family="sans-serif" font-size="14" lengthAdjust="spacing" textLength="222" x="666.5" y="759.7617">journalnummer: Journalnummer</text><text fill="#000000" font-family="sans-serif" font-size="14" lengthAdjust="spacing" textLength="343" x="666.5" y="776.25">saksJournalpostnummer: SaksJournalpostnummer</text><text fill="#000000" font-family="sans-serif" font-size="14" lengthAdjust="spacing" textLength="285" x="666.5" y="792.7383">referanseEksternNoekkel: EksternNoekkel</text><line style="stroke:#181818;stroke-width:0.5;" x1="661.5" x2="1014.5" y1="799.6914" y2="799.6914"/></g><!--class Fase--><g id="elem_Fase"><rect codeLine="5" fill="#F1F1F1" height="163.418" id="Fase" rx="2.5" ry="2.5" style="stroke:#181818;stroke-width:0.5;" width="335" x="485.5" y="139.73"/><ellipse cx="633.25" cy="155.73" fill="#ADD1B2" rx="11" ry="11" style="stroke:#181818;stroke-width:1.0;"/><path d="M635.7231,161.8731 Q635.1421,162.1719 634.5029,162.3213 Q633.8638,162.4707 633.1582,162.4707 Q630.6514,162.4707 629.3315,160.8189 Q628.0117,159.167 628.0117,156.0459 Q628.0117,152.9165 629.3315,151.2647 Q630.6514,149.6128 633.1582,149.6128 Q633.8638,149.6128 634.5112,149.7622 Q635.1587,149.9116 635.7231,150.2105 L635.7231,152.9331 Q635.0923,152.3521 634.4988,152.0823 Q633.9053,151.8125 633.2744,151.8125 Q631.9297,151.8125 631.2449,152.8792 Q630.5601,153.9458 630.5601,156.0459 Q630.5601,158.1377 631.2449,159.2044 Q631.9297,160.271 633.2744,160.271 Q633.9053,160.271 634.4988,160.0012 Q635.0923,159.7315 635.7231,159.1504 Z " fill="#000000"/><text fill="#000000" font-family="sans-serif" font-size="14" lengthAdjust="spacing" textLength="31" x="653.75" y="161.021">Fase</text><line style="stroke:#181818;stroke-width:0.5;" x1="486.5" x2="819.5" y1="171.73" y2="171.73"/><ellipse cx="496.5" cy="185.4741" fill="#000000" rx="3" ry="3" style="stroke:#000000;stroke-width:1.0;"/><text fill="#000000" font-family="sans-serif" font-size="14" lengthAdjust="spacing" textLength="89" x="505.5" y="189.2652">faseid: string</text><ellipse cx="496.5" cy="201.9624" fill="#000000" rx="3" ry="3" style="stroke:#000000;stroke-width:1.0;"/><text fill="#000000" font-family="sans-serif" font-size="14" lengthAdjust="spacing" textLength="109" x="505.5" y="205.7534">fasenavn: string</text><ellipse cx="496.5" cy="218.4507" fill="#000000" rx="3" ry="3" style="stroke:#000000;stroke-width:1.0;"/><text fill="#000000" font-family="sans-serif" font-size="14" lengthAdjust="spacing" textLength="153" x="505.5" y="222.2417">kategori: Fasekategori</text><ellipse cx="496.5" cy="234.939" fill="#000000" rx="3" ry="3" style="stroke:#000000;stroke-width:1.0;"/><text fill="#000000" font-family="sans-serif" font-size="14" lengthAdjust="spacing" textLength="161" x="505.5" y="238.73">status: FaseStatusEnum</text><text fill="#000000" font-family="sans-serif" font-size="14" lengthAdjust="spacing" textLength="131" x="505.5" y="255.2183">milepeler: Milepel[]</text><text fill="#000000" font-family="sans-serif" font-size="14" lengthAdjust="spacing" textLength="100" x="505.5" y="271.7066">vedtak: Vedtak</text><text fill="#000000" font-family="sans-serif" font-size="14" lengthAdjust="spacing" textLength="309" x="505.5" y="288.1948">referanseJournalpost: ReferanseJournalpost[]</text><line style="stroke:#181818;stroke-width:0.5;" x1="486.5" x2="819.5" y1="295.148" y2="295.148"/></g><g id="elem_GMN13"><path d="M578,18.93 L578,59.5511 A0,0 0 0 0 578,59.5511 L825.43,59.5511 L741.85,139.58 L833.43,59.5511 L1124,59.5511 A0,0 0 0 0 1124,59.5511 L1124,28.93 L1114,18.93 L578,18.93 A0,0 0 0 0 578,18.93 " fill="#FEFFDD" style="stroke:#181818;stroke-width:0.5;"/><path d="M1114,18.93 L1114,28.93 L1124,28.93 L1114,18.93 " fill="#FEFFDD" style="stroke:#181818;stroke-width:0.5;"/><text fill="#000000" font-family="sans-serif" font-size="13" lengthAdjust="spacing" textLength="369" x="584" y="36.4984">En fase er i hovedsak det som hender mellom to milepeler.</text><text fill="#000000" font-family="sans-serif" font-size="13" lengthAdjust="spacing" textLength="525" x="584" y="51.8089">Interne faser sendes ikke ut ved denne protokollen. Vi kutter derfor ut Global flagg.</text></g><path d="M855.5,196.13 L855.5,212.4405 L594.5,183.9741 L855.5,220.4405 L855.5,236.7511 A0,0 0 0 0 855.5,236.7511 L1376.5,236.7511 A0,0 0 0 0 1376.5,236.7511 L1376.5,206.13 L1366.5,196.13 L855.5,196.13 A0,0 0 0 0 855.5,196.13 " fill="#FEFFDD" style="stroke:#181818;stroke-width:0.5;"/><path d="M1366.5,196.13 L1366.5,206.13 L1376.5,206.13 L1366.5,196.13 " fill="#FEFFDD" style="stroke:#181818;stroke-width:0.5;"/><text fill="#000000" font-family="sans-serif" font-size="13" lengthAdjust="spacing" textLength="500" x="861.5" y="213.6984">Faseid brukes alene (ikke sammen med saksnummer) for &#229; hente en enkelt fase</text><text fill="#000000" font-family="sans-serif" font-size="13" lengthAdjust="spacing" textLength="165" x="861.5" y="229.0089">Den m&#229; dermed v&#230;re unik</text><!--class Vedtak--><g id="elem_Vedtak"><rect codeLine="36" fill="#F1F1F1" height="89.5977" id="Vedtak" rx="2.5" ry="2.5" style="stroke:#181818;stroke-width:0.5;" width="184" x="1309" y="449.53"/><ellipse cx="1373.25" cy="469.8405" fill="#ADD1B2" rx="11" ry="11" style="stroke:#181818;stroke-width:1.0;"/><path d="M1375.7231,475.9836 Q1375.1421,476.2824 1374.5029,476.4319 Q1373.8638,476.5813 1373.1582,476.5813 Q1370.6514,476.5813 1369.3315,474.9294 Q1368.0117,473.2776 1368.0117,470.1565 Q1368.0117,467.0271 1369.3315,465.3752 Q1370.6514,463.7234 1373.1582,463.7234 Q1373.8638,463.7234 1374.5112,463.8728 Q1375.1587,464.0222 1375.7231,464.321 L1375.7231,467.0437 Q1375.0923,466.4626 1374.4988,466.1928 Q1373.9053,465.9231 1373.2744,465.9231 Q1371.9297,465.9231 1371.2449,466.9897 Q1370.5601,468.0564 1370.5601,470.1565 Q1370.5601,472.2483 1371.2449,473.3149 Q1371.9297,474.3816 1373.2744,474.3816 Q1373.9053,474.3816 1374.4988,474.1118 Q1375.0923,473.842 1375.7231,473.261 Z " fill="#000000"/><text fill="#000000" font-family="sans-serif" font-size="12" font-style="italic" lengthAdjust="spacing" textLength="42" x="1396.25" y="466.1316">&#171;Kode&#187;</text><text fill="#000000" font-family="sans-serif" font-size="14" lengthAdjust="spacing" textLength="47" x="1393.75" y="482.198">Vedtak</text><line style="stroke:#181818;stroke-width:0.5;" x1="1310" x2="1492" y1="490.1511" y2="490.1511"/><ellipse cx="1320" cy="503.8952" fill="#000000" rx="3" ry="3" style="stroke:#000000;stroke-width:1.0;"/><text fill="#000000" font-family="sans-serif" font-size="14" lengthAdjust="spacing" textLength="116" x="1329" y="507.6863">kodeverdi: string</text><text fill="#000000" font-family="sans-serif" font-size="14" lengthAdjust="spacing" textLength="158" x="1329" y="524.1745">kodebeskrivelse: string</text><line style="stroke:#181818;stroke-width:0.5;" x1="1310" x2="1492" y1="531.1277" y2="531.1277"/></g><!--class FaseStatusEnum--><g id="elem_FaseStatusEnum"><rect codeLine="28" fill="#F1F1F1" height="97.4648" id="FaseStatusEnum" rx="2.5" ry="2.5" style="stroke:#181818;stroke-width:0.5;" width="144" x="504" y="445.59"/><ellipse cx="519" cy="461.59" fill="#EB937F" rx="11" ry="11" style="stroke:#181818;stroke-width:1.0;"/><path d="M522.6143,468.09 L514.8945,468.09 L514.8945,455.6969 L522.6143,455.6969 L522.6143,457.8551 L517.3433,457.8551 L517.3433,460.528 L522.1162,460.528 L522.1162,462.6862 L517.3433,462.6862 L517.3433,465.9318 L522.6143,465.9318 Z " fill="#000000"/><text fill="#000000" font-family="sans-serif" font-size="14" lengthAdjust="spacing" textLength="112" x="533" y="466.881">FaseStatusEnum</text><line style="stroke:#181818;stroke-width:0.5;" x1="505" x2="647" y1="477.59" y2="477.59"/><ellipse cx="515" cy="491.3341" fill="none" rx="3" ry="3" style="stroke:#038048;stroke-width:1.0;"/><text fill="#000000" font-family="sans-serif" font-size="14" lengthAdjust="spacing" textLength="55" x="524" y="495.1252">Planlagt</text><ellipse cx="515" cy="507.8224" fill="none" rx="3" ry="3" style="stroke:#038048;stroke-width:1.0;"/><text fill="#000000" font-family="sans-serif" font-size="14" lengthAdjust="spacing" textLength="88" x="524" y="511.6134">UnderArbeid</text><ellipse cx="515" cy="524.3107" fill="none" rx="3" ry="3" style="stroke:#038048;stroke-width:1.0;"/><text fill="#000000" font-family="sans-serif" font-size="14" lengthAdjust="spacing" textLength="48" x="524" y="528.1017">Utfoert</text><line style="stroke:#181818;stroke-width:0.5;" x1="505" x2="647" y1="535.0548" y2="535.0548"/></g><!--class Fasekategori--><g id="elem_Fasekategori"><rect codeLine="41" fill="#F1F1F1" height="89.5977" id="Fasekategori" rx="2.5" ry="2.5" style="stroke:#181818;stroke-width:0.5;" width="184" x="1034" y="449.53"/><ellipse cx="1077.8" cy="469.8405" fill="#ADD1B2" rx="11" ry="11" style="stroke:#181818;stroke-width:1.0;"/><path d="M1080.2731,475.9836 Q1079.6921,476.2824 1079.0529,476.4319 Q1078.4138,476.5813 1077.7082,476.5813 Q1075.2014,476.5813 1073.8815,474.9294 Q1072.5617,473.2776 1072.5617,470.1565 Q1072.5617,467.0271 1073.8815,465.3752 Q1075.2014,463.7234 1077.7082,463.7234 Q1078.4138,463.7234 1079.0612,463.8728 Q1079.7087,464.0222 1080.2731,464.321 L1080.2731,467.0437 Q1079.6423,466.4626 1079.0488,466.1928 Q1078.4553,465.9231 1077.8244,465.9231 Q1076.4797,465.9231 1075.7949,466.9897 Q1075.1101,468.0564 1075.1101,470.1565 Q1075.1101,472.2483 1075.7949,473.3149 Q1076.4797,474.3816 1077.8244,474.3816 Q1078.4553,474.3816 1079.0488,474.1118 Q1079.6423,473.842 1080.2731,473.261 Z " fill="#000000"/><text fill="#000000" font-family="sans-serif" font-size="12" font-style="italic" lengthAdjust="spacing" textLength="42" x="1121.2" y="466.1316">&#171;Kode&#187;</text><text fill="#000000" font-family="sans-serif" font-size="14" lengthAdjust="spacing" textLength="88" x="1098.2" y="482.198">Fasekategori</text><line style="stroke:#181818;stroke-width:0.5;" x1="1035" x2="1217" y1="490.1511" y2="490.1511"/><ellipse cx="1045" cy="503.8952" fill="#000000" rx="3" ry="3" style="stroke:#000000;stroke-width:1.0;"/><text fill="#000000" font-family="sans-serif" font-size="14" lengthAdjust="spacing" textLength="116" x="1054" y="507.6863">kodeverdi: string</text><text fill="#000000" font-family="sans-serif" font-size="14" lengthAdjust="spacing" textLength="158" x="1054" y="524.1745">kodebeskrivelse: string</text><line style="stroke:#181818;stroke-width:0.5;" x1="1035" x2="1217" y1="531.1277" y2="531.1277"/></g><g id="elem_GMN24"><path d="M1412,178.16 L1412,264.7127 A0,0 0 0 0 1412,264.7127 L1455.99,264.7127 L1412.41,449.15 L1463.99,264.7127 L1530,264.7127 A0,0 0 0 0 1530,264.7127 L1530,188.16 L1520,178.16 L1412,178.16 A0,0 0 0 0 1412,178.16 " fill="#FEFFDD" style="stroke:#181818;stroke-width:0.5;"/><path d="M1520,178.16 L1520,188.16 L1530,188.16 L1520,178.16 " fill="#FEFFDD" style="stroke:#181818;stroke-width:0.5;"/><text fill="#000000" font-family="sans-serif" font-size="13" lengthAdjust="spacing" textLength="69" x="1418" y="195.7284">Eksempler:</text><text fill="#000000" font-family="sans-serif" font-size="13" lengthAdjust="spacing" textLength="56" x="1418" y="211.0389">godkjent</text><text fill="#000000" font-family="sans-serif" font-size="13" lengthAdjust="spacing" textLength="97" x="1418" y="226.3495">delvis godkjent</text><text fill="#000000" font-family="sans-serif" font-size="13" lengthAdjust="spacing" textLength="42" x="1418" y="241.66">avsl&#229;tt</text><text fill="#000000" font-family="sans-serif" font-size="13" lengthAdjust="spacing" textLength="37" x="1418" y="256.9705">avvist</text></g><g id="elem_GMN27"><path d="M1270.5,683.89 L1270.5,801.0638 L1881.5,801.0638 L1881.5,693.89 L1871.5,683.89 L1270.5,683.89 " fill="#FEFFDD" style="stroke:#181818;stroke-width:0.5;"/><path d="M1871.5,683.89 L1871.5,693.89 L1881.5,693.89 L1871.5,683.89 " fill="#FEFFDD" style="stroke:#181818;stroke-width:1.0;"/><text fill="#000000" font-family="sans-serif" font-size="13" lengthAdjust="spacing" textLength="305" x="1276.5" y="701.4584">Se gjerne Byggesaksbehandling::Prosesskategori</text><text fill="#000000" font-family="sans-serif" font-size="13" lengthAdjust="spacing" textLength="45" x="1280.5" y="716.7689">fra NPS</text><text fill="#000000" font-family="sans-serif" font-size="13" lengthAdjust="spacing" textLength="210" x="1276.5" y="732.0795">Vi m&#229; f&#229; avklart denne kodelisten</text><text fill="#000000" font-family="sans-serif" font-size="13" lengthAdjust="spacing" textLength="590" x="1276.5" y="747.39">Vi m&#229; ha en som er generell som betyr at det ikke er fastsatt hvis kategori skal v&#230;re required.</text><text fill="#000000" font-family="sans-serif" font-size="13" lengthAdjust="spacing" textLength="69" x="1276.5" y="762.7005">Eksempler:</text><text fill="#000000" font-family="sans-serif" font-size="13" lengthAdjust="spacing" textLength="34" x="1276.5" y="778.0111">Klage</text><text fill="#000000" font-family="sans-serif" font-size="13" lengthAdjust="spacing" textLength="43" x="1276.5" y="793.3216">H&#248;ring</text></g><!--class EksternNoekkel--><g id="elem_EksternNoekkel"><rect codeLine="2" fill="#F1F1F1" height="80.9766" id="EksternNoekkel" rx="2.5" ry="2.5" style="stroke:#181818;stroke-width:0.5;" width="143" x="535.5" y="875.94"/><ellipse cx="552.75" cy="891.94" fill="#ADD1B2" rx="11" ry="11" style="stroke:#181818;stroke-width:1.0;"/><path d="M555.2231,898.0831 Q554.6421,898.3819 554.0029,898.5313 Q553.3638,898.6807 552.6582,898.6807 Q550.1514,898.6807 548.8315,897.0289 Q547.5117,895.377 547.5117,892.2559 Q547.5117,889.1265 548.8315,887.4747 Q550.1514,885.8228 552.6582,885.8228 Q553.3638,885.8228 554.0112,885.9722 Q554.6587,886.1216 555.2231,886.4205 L555.2231,889.1431 Q554.5923,888.5621 553.9988,888.2923 Q553.4053,888.0225 552.7744,888.0225 Q551.4297,888.0225 550.7449,889.0892 Q550.0601,890.1558 550.0601,892.2559 Q550.0601,894.3477 550.7449,895.4144 Q551.4297,896.481 552.7744,896.481 Q553.4053,896.481 553.9988,896.2112 Q554.5923,895.9415 555.2231,895.3604 Z " fill="#000000"/><text fill="#000000" font-family="sans-serif" font-size="14" lengthAdjust="spacing" textLength="106" x="567.25" y="897.231">EksternNoekkel</text><line style="stroke:#181818;stroke-width:0.5;" x1="536.5" x2="677.5" y1="907.94" y2="907.94"/><ellipse cx="546.5" cy="921.6841" fill="#000000" rx="3" ry="3" style="stroke:#000000;stroke-width:1.0;"/><text fill="#000000" font-family="sans-serif" font-size="14" lengthAdjust="spacing" textLength="117" x="555.5" y="925.4752">fagsystem: string</text><ellipse cx="546.5" cy="938.1724" fill="#000000" rx="3" ry="3" style="stroke:#000000;stroke-width:1.0;"/><text fill="#000000" font-family="sans-serif" font-size="14" lengthAdjust="spacing" textLength="102" x="555.5" y="941.9634">noekkel: string</text><line style="stroke:#181818;stroke-width:0.5;" x1="536.5" x2="677.5" y1="948.9166" y2="948.9166"/></g><!--class Journalnummer--><g id="elem_Journalnummer"><rect codeLine="2" fill="#F1F1F1" height="80.9766" id="Journalnummer" rx="2.5" ry="2.5" style="stroke:#181818;stroke-width:0.5;" width="249" x="713.5" y="875.94"/><ellipse cx="780.25" cy="891.94" fill="#ADD1B2" rx="11" ry="11" style="stroke:#181818;stroke-width:1.0;"/><path d="M782.7231,898.0831 Q782.1421,898.3819 781.5029,898.5313 Q780.8638,898.6807 780.1582,898.6807 Q777.6514,898.6807 776.3315,897.0289 Q775.0117,895.377 775.0117,892.2559 Q775.0117,889.1265 776.3315,887.4747 Q777.6514,885.8228 780.1582,885.8228 Q780.8638,885.8228 781.5112,885.9722 Q782.1587,886.1216 782.7231,886.4205 L782.7231,889.1431 Q782.0923,888.5621 781.4988,888.2923 Q780.9053,888.0225 780.2744,888.0225 Q778.9297,888.0225 778.2449,889.0892 Q777.5601,890.1558 777.5601,892.2559 Q777.5601,894.3477 778.2449,895.4144 Q778.9297,896.481 780.2744,896.481 Q780.9053,896.481 781.4988,896.2112 Q782.0923,895.9415 782.7231,895.3604 Z " fill="#000000"/><text fill="#000000" font-family="sans-serif" font-size="14" lengthAdjust="spacing" textLength="107" x="800.75" y="897.231">Journalnummer</text><line style="stroke:#181818;stroke-width:0.5;" x1="714.5" x2="961.5" y1="907.94" y2="907.94"/><ellipse cx="724.5" cy="921.6841" fill="#000000" rx="3" ry="3" style="stroke:#000000;stroke-width:1.0;"/><text fill="#000000" font-family="sans-serif" font-size="14" lengthAdjust="spacing" textLength="169" x="733.5" y="925.4752">journalnummer: number</text><ellipse cx="724.5" cy="938.1724" fill="#000000" rx="3" ry="3" style="stroke:#000000;stroke-width:1.0;"/><text fill="#000000" font-family="sans-serif" font-size="14" lengthAdjust="spacing" textLength="223" x="733.5" y="941.9634">journalsekvensnummer: number</text><line style="stroke:#181818;stroke-width:0.5;" x1="714.5" x2="961.5" y1="948.9166" y2="948.9166"/></g><!--class SaksJournalpostnummer--><g id="elem_SaksJournalpostnummer"><rect codeLine="2" fill="#F1F1F1" height="97.4648" id="SaksJournalpostnummer" rx="2.5" ry="2.5" style="stroke:#181818;stroke-width:0.5;" width="230" x="997" y="867.7"/><ellipse cx="1025.5" cy="883.7" fill="#ADD1B2" rx="11" ry="11" style="stroke:#181818;stroke-width:1.0;"/><path d="M1027.9731,889.8431 Q1027.3921,890.1419 1026.7529,890.2913 Q1026.1138,890.4407 1025.4082,890.4407 Q1022.9014,890.4407 1021.5815,888.7889 Q1020.2617,887.137 1020.2617,884.0159 Q1020.2617,880.8865 1021.5815,879.2347 Q1022.9014,877.5828 1025.4082,877.5828 Q1026.1138,877.5828 1026.7612,877.7322 Q1027.4087,877.8816 1027.9731,878.1805 L1027.9731,880.9031 Q1027.3423,880.3221 1026.7488,880.0523 Q1026.1553,879.7825 1025.5244,879.7825 Q1024.1797,879.7825 1023.4949,880.8492 Q1022.8101,881.9158 1022.8101,884.0159 Q1022.8101,886.1077 1023.4949,887.1744 Q1024.1797,888.241 1025.5244,888.241 Q1026.1553,888.241 1026.7488,887.9712 Q1027.3423,887.7015 1027.9731,887.1204 Z " fill="#000000"/><text fill="#000000" font-family="sans-serif" font-size="14" lengthAdjust="spacing" textLength="168" x="1042.5" y="888.991">SaksJournalpostnummer</text><line style="stroke:#181818;stroke-width:0.5;" x1="998" x2="1226" y1="899.7" y2="899.7"/><ellipse cx="1008" cy="913.4441" fill="#000000" rx="3" ry="3" style="stroke:#000000;stroke-width:1.0;"/><text fill="#000000" font-family="sans-serif" font-size="14" lengthAdjust="spacing" textLength="114" x="1017" y="917.2352">saksaar: number</text><ellipse cx="1008" cy="929.9324" fill="#000000" rx="3" ry="3" style="stroke:#000000;stroke-width:1.0;"/><text fill="#000000" font-family="sans-serif" font-size="14" lengthAdjust="spacing" textLength="204" x="1017" y="933.7234">sakssekvensnummer: number</text><ellipse cx="1008" cy="946.4207" fill="#000000" rx="3" ry="3" style="stroke:#000000;stroke-width:1.0;"/><text fill="#000000" font-family="sans-serif" font-size="14" lengthAdjust="spacing" textLength="199" x="1017" y="950.2117">journalpostnummer: number</text><line style="stroke:#181818;stroke-width:0.5;" x1="998" x2="1226" y1="957.1648" y2="957.1648"/></g><!--class Milepel--><g id="elem_Milepel"><rect codeLine="8" fill="#F1F1F1" height="245.8594" id="Milepel" rx="2.5" ry="2.5" style="stroke:#181818;stroke-width:0.5;" width="325" x="143.5" y="371.39"/><ellipse cx="277.25" cy="387.39" fill="#ADD1B2" rx="11" ry="11" style="stroke:#181818;stroke-width:1.0;"/><path d="M279.7231,393.5331 Q279.1421,393.8319 278.5029,393.9813 Q277.8638,394.1307 277.1582,394.1307 Q274.6514,394.1307 273.3315,392.4789 Q272.0117,390.827 272.0117,387.7059 Q272.0117,384.5765 273.3315,382.9247 Q274.6514,381.2728 277.1582,381.2728 Q277.8638,381.2728 278.5112,381.4222 Q279.1587,381.5716 279.7231,381.8705 L279.7231,384.5931 Q279.0923,384.0121 278.4988,383.7423 Q277.9053,383.4725 277.2744,383.4725 Q275.9297,383.4725 275.2449,384.5392 Q274.5601,385.6058 274.5601,387.7059 Q274.5601,389.7977 275.2449,390.8644 Q275.9297,391.931 277.2744,391.931 Q277.9053,391.931 278.4988,391.6612 Q279.0923,391.3915 279.7231,390.8104 Z " fill="#000000"/><text fill="#000000" font-family="sans-serif" font-size="14" lengthAdjust="spacing" textLength="49" x="297.75" y="392.681">Milepel</text><line style="stroke:#181818;stroke-width:0.5;" x1="144.5" x2="467.5" y1="403.39" y2="403.39"/><ellipse cx="154.5" cy="417.1341" fill="#000000" rx="3" ry="3" style="stroke:#000000;stroke-width:1.0;"/><text fill="#000000" font-family="sans-serif" font-size="14" lengthAdjust="spacing" textLength="111" x="163.5" y="420.9252">milepelId: string</text><ellipse cx="154.5" cy="433.6224" fill="#000000" rx="3" ry="3" style="stroke:#000000;stroke-width:1.0;"/><text fill="#000000" font-family="sans-serif" font-size="14" lengthAdjust="spacing" textLength="124" x="163.5" y="437.4134">beskrivelse: string</text><text fill="#000000" font-family="sans-serif" font-size="14" lengthAdjust="spacing" textLength="165" x="163.5" y="453.9017">milepeltype: Milepeltype</text><text fill="#000000" font-family="sans-serif" font-size="14" lengthAdjust="spacing" textLength="65" x="163.5" y="470.39">frist: date</text><text fill="#000000" font-family="sans-serif" font-size="14" lengthAdjust="spacing" textLength="85" x="163.5" y="486.8783">utfoert: date</text><text fill="#000000" font-family="sans-serif" font-size="14" lengthAdjust="spacing" textLength="142" x="163.5" y="503.3666">planlagtUtfoert: date</text><ellipse cx="154.5" cy="516.0638" fill="#000000" rx="3" ry="3" style="stroke:#000000;stroke-width:1.0;"/><text fill="#000000" font-family="sans-serif" font-size="14" lengthAdjust="spacing" textLength="105" x="163.5" y="519.8548">intern: boolean</text><text fill="#000000" font-family="sans-serif" font-size="14" lengthAdjust="spacing" textLength="299" x="163.5" y="536.3431">referanseJournalpost: ReferanseJournalpost</text><text fill="#000000" font-family="sans-serif" font-size="14" lengthAdjust="spacing" textLength="296" x="163.5" y="552.8314">referanseDokument: ReferanseDokumentfil</text><text fill="#000000" font-family="sans-serif" font-size="14" lengthAdjust="spacing" textLength="110" x="163.5" y="569.3197">erStart: boolean</text><text fill="#000000" font-family="sans-serif" font-size="14" lengthAdjust="spacing" textLength="109" x="163.5" y="585.808">erSlutt: boolean</text><ellipse cx="154.5" cy="598.5052" fill="#000000" rx="3" ry="3" style="stroke:#000000;stroke-width:1.0;"/><text fill="#000000" font-family="sans-serif" font-size="14" lengthAdjust="spacing" textLength="179" x="163.5" y="602.2963">status: MilepelStatusEnum</text><line style="stroke:#181818;stroke-width:0.5;" x1="144.5" x2="467.5" y1="609.2494" y2="609.2494"/></g><g id="elem_GMN34"><path d="M6,201.13 L6,241.7511 A0,0 0 0 0 6,241.7511 L229.61,241.7511 L270.77,370.96 L237.61,241.7511 L450,241.7511 A0,0 0 0 0 450,241.7511 L450,211.13 L440,201.13 L6,201.13 A0,0 0 0 0 6,201.13 " fill="#FEFFDD" style="stroke:#181818;stroke-width:0.5;"/><path d="M440,201.13 L440,211.13 L450,211.13 L440,201.13 " fill="#FEFFDD" style="stroke:#181818;stroke-width:0.5;"/><text fill="#000000" font-family="sans-serif" font-size="13" lengthAdjust="spacing" textLength="331" x="12" y="218.6984">planlagtUtfoert er hvis man har laget en milepel plan</text><text fill="#000000" font-family="sans-serif" font-size="13" lengthAdjust="spacing" textLength="423" x="12" y="234.0089">s&#229; kan man sette denne datoen for n&#229;r det er planlagt &#229; v&#230;re ferdig</text></g><!--class Milepeltype--><g id="elem_Milepeltype"><rect codeLine="32" fill="#F1F1F1" height="80.9766" id="Milepeltype" rx="2.5" ry="2.5" style="stroke:#181818;stroke-width:0.5;" width="184" x="441" y="701.99"/><ellipse cx="489.75" cy="717.99" fill="#ADD1B2" rx="11" ry="11" style="stroke:#181818;stroke-width:1.0;"/><path d="M492.2231,724.1331 Q491.6421,724.4319 491.0029,724.5813 Q490.3638,724.7307 489.6582,724.7307 Q487.1514,724.7307 485.8315,723.0789 Q484.5117,721.427 484.5117,718.3059 Q484.5117,715.1765 485.8315,713.5247 Q487.1514,711.8728 489.6582,711.8728 Q490.3638,711.8728 491.0112,712.0222 Q491.6587,712.1716 492.2231,712.4705 L492.2231,715.1931 Q491.5923,714.6121 490.9988,714.3423 Q490.4053,714.0725 489.7744,714.0725 Q488.4297,714.0725 487.7449,715.1392 Q487.0601,716.2058 487.0601,718.3059 Q487.0601,720.3977 487.7449,721.4644 Q488.4297,722.531 489.7744,722.531 Q490.4053,722.531 490.9988,722.2612 Q491.5923,721.9915 492.2231,721.4104 Z " fill="#000000"/><text fill="#000000" font-family="sans-serif" font-size="14" lengthAdjust="spacing" textLength="78" x="510.25" y="723.281">Milepeltype</text><line style="stroke:#181818;stroke-width:0.5;" x1="442" x2="624" y1="733.99" y2="733.99"/><ellipse cx="452" cy="747.7341" fill="none" rx="3" ry="3" style="stroke:#038048;stroke-width:1.0;"/><text fill="#000000" font-family="sans-serif" font-size="14" lengthAdjust="spacing" textLength="116" x="461" y="751.5252">kodeverdi: string</text><ellipse cx="452" cy="764.2224" fill="none" rx="3" ry="3" style="stroke:#038048;stroke-width:1.0;"/><text fill="#000000" font-family="sans-serif" font-size="14" lengthAdjust="spacing" textLength="158" x="461" y="768.0134">kodebeskrivelse: string</text><line style="stroke:#181818;stroke-width:0.5;" x1="442" x2="624" y1="774.9666" y2="774.9666"/></g><g id="elem_GMN39"><path d="M683.5,458.7 L683.5,529.9422 A0,0 0 0 0 683.5,529.9422 L756.31,529.9422 L575.82,701.7 L764.31,529.9422 L912.5,529.9422 A0,0 0 0 0 912.5,529.9422 L912.5,468.7 L902.5,458.7 L683.5,458.7 A0,0 0 0 0 683.5,458.7 " fill="#FEFFDD" style="stroke:#181818;stroke-width:0.5;"/><path d="M902.5,458.7 L902.5,468.7 L912.5,468.7 L902.5,458.7 " fill="#FEFFDD" style="stroke:#181818;stroke-width:0.5;"/><text fill="#000000" font-family="sans-serif" font-size="13" lengthAdjust="spacing" textLength="69" x="689.5" y="476.2684">Eksempler:</text><text fill="#000000" font-family="sans-serif" font-size="13" lengthAdjust="spacing" textLength="201" x="689.5" y="491.5789">Bestilling av oppstartsm&#248;te (BO)</text><text fill="#000000" font-family="sans-serif" font-size="13" lengthAdjust="spacing" textLength="208" x="689.5" y="506.8895">Gjennomf&#248;rt oppstartsm&#248;te (OM)</text><text fill="#000000" font-family="sans-serif" font-size="13" lengthAdjust="spacing" textLength="137" x="689.5" y="522.2">Mottak av planforslag</text></g><g id="elem_GMN42"><path d="M206.5,729.82 L206.5,755.1305 A0,0 0 0 0 206.5,755.1305 L405.5,755.1305 A0,0 0 0 0 405.5,755.1305 L405.5,739.82 L395.5,729.82 L310,729.82 L306,617.68 L302,729.82 L206.5,729.82 A0,0 0 0 0 206.5,729.82 " fill="#FEFFDD" style="stroke:#181818;stroke-width:0.5;"/><path d="M395.5,729.82 L395.5,739.82 L405.5,739.82 L395.5,729.82 " fill="#FEFFDD" style="stroke:#181818;stroke-width:0.5;"/><text fill="#000000" font-family="sans-serif" font-size="13" lengthAdjust="spacing" textLength="178" x="212.5" y="747.3884">frist og utfoert ikke p&#229;krevd</text></g><!--class MilepelStatusEnum--><g id="elem_MilepelStatusEnum"><rect codeLine="48" fill="#F1F1F1" height="80.9766" id="MilepelStatusEnum" rx="2.5" ry="2.5" style="stroke:#181818;stroke-width:0.5;" width="162" x="9" y="701.99"/><ellipse cx="24" cy="717.99" fill="#EB937F" rx="11" ry="11" style="stroke:#181818;stroke-width:1.0;"/><path d="M27.6143,724.49 L19.8945,724.49 L19.8945,712.0969 L27.6143,712.0969 L27.6143,714.2551 L22.3433,714.2551 L22.3433,716.928 L27.1162,716.928 L27.1162,719.0862 L22.3433,719.0862 L22.3433,722.3318 L27.6143,722.3318 Z " fill="#000000"/><text fill="#000000" font-family="sans-serif" font-size="14" lengthAdjust="spacing" textLength="130" x="38" y="723.281">MilepelStatusEnum</text><line style="stroke:#181818;stroke-width:0.5;" x1="10" x2="170" y1="733.99" y2="733.99"/><ellipse cx="20" cy="747.7341" fill="none" rx="3" ry="3" style="stroke:#038048;stroke-width:1.0;"/><text fill="#000000" font-family="sans-serif" font-size="14" lengthAdjust="spacing" textLength="36" x="29" y="751.5252">N&#229;dd</text><ellipse cx="20" cy="764.2224" fill="none" rx="3" ry="3" style="stroke:#038048;stroke-width:1.0;"/><text fill="#000000" font-family="sans-serif" font-size="14" lengthAdjust="spacing" textLength="55" x="29" y="768.0134">Planlagt</text><line style="stroke:#181818;stroke-width:0.5;" x1="10" x2="170" y1="774.9666" y2="774.9666"/></g><!--class HentSaksfaseResultat--><g id="elem_HentSaksfaseResultat"><rect codeLine="5" fill="#F1F1F1" height="64.4883" id="HentSaksfaseResultat" rx="2.5" ry="2.5" style="stroke:#181818;stroke-width:0.5;" width="178" x="365" y="7"/><ellipse cx="380" cy="23" fill="#ADD1B2" rx="11" ry="11" style="stroke:#181818;stroke-width:1.0;"/><path d="M382.4731,29.1431 Q381.8921,29.4419 381.2529,29.5913 Q380.6138,29.7407 379.9082,29.7407 Q377.4014,29.7407 376.0815,28.0889 Q374.7617,26.437 374.7617,23.3159 Q374.7617,20.1865 376.0815,18.5347 Q377.4014,16.8828 379.9082,16.8828 Q380.6138,16.8828 381.2612,17.0322 Q381.9087,17.1816 382.4731,17.4805 L382.4731,20.2031 Q381.8423,19.6221 381.2488,19.3523 Q380.6553,19.0825 380.0244,19.0825 Q378.6797,19.0825 377.9949,20.1492 Q377.3101,21.2158 377.3101,23.3159 Q377.3101,25.4077 377.9949,26.4744 Q378.6797,27.541 380.0244,27.541 Q380.6553,27.541 381.2488,27.2712 Q381.8423,27.0015 382.4731,26.4204 Z " fill="#000000"/><text fill="#000000" font-family="sans-serif" font-size="14" lengthAdjust="spacing" textLength="146" x="394" y="28.291">HentSaksfaseResultat</text><line style="stroke:#181818;stroke-width:0.5;" x1="366" x2="542" y1="39" y2="39"/><ellipse cx="376" cy="52.7441" fill="#000000" rx="3" ry="3" style="stroke:#000000;stroke-width:1.0;"/><text fill="#000000" font-family="sans-serif" font-size="14" lengthAdjust="spacing" textLength="67" x="385" y="56.5352">fase: Fase</text><line style="stroke:#181818;stroke-width:0.5;" x1="366" x2="542" y1="63.4883" y2="63.4883"/></g><!--link Dokument to Dokumenttype--><g id="link_Dokument_Dokumenttype"><path codeLine="16" d="M1733,311.89 C1733,357.97 1733,412.1 1733,449.17 " fill="none" id="Dokument-Dokumenttype" style="stroke:#181818;stroke-width:1.0;"/></g><!--link Dokument to ReferanseDokumentfil--><g id="link_Dokument_ReferanseDokumentfil"><path codeLine="17" d="M1662.4,311.76 C1648.57,330.93 1634.74,351.44 1623,371.39 C1562.11,474.89 1603.92,541.2 1511,617.25 C1419.9,691.82 1362.4,633.75 1253,677.25 C1236.46,683.83 1219.44,692.62 1203.89,701.58 " fill="none" id="Dokument-ReferanseDokumentfil" style="stroke:#181818;stroke-width:1.0;"/></g><!--link Fase to ReferanseJournalpost--><g id="link_Fase_ReferanseJournalpost"><path codeLine="15" d="M819.98,303.54 C874.27,331.56 922.61,359.03 930,371.39 C986.06,465.19 964.24,513.49 930,617.25 C923.02,638.41 917.9861,649.2156 904.7861,667.2556 " fill="none" id="Fase-to-ReferanseJournalpost" style="stroke:#181818;stroke-width:1.0;"/><polygon fill="#181818" points="897.7,676.94,904.4712,674.4599,904.7861,667.2556,898.0149,669.7358,897.7,676.94" style="stroke:#181818;stroke-width:1.0;"/></g><!--link Fase to Vedtak--><g id="link_Fase_Vedtak"><path codeLine="24" d="M814.84,303.56 C822.59,306.4 830.34,309.03 838,311.39 C1008.96,364.07 1070.75,302.88 1236,371.39 C1280.09,389.67 1323.23,422.22 1354.34,449.1 " fill="none" id="Fase-Vedtak" style="stroke:#181818;stroke-width:1.0;"/></g><!--link Fase to FaseStatusEnum--><g id="link_Fase_FaseStatusEnum"><path codeLine="25" d="M630,303.35 C616.84,349.65 600.78,406.16 589.61,445.45 " fill="none" id="Fase-FaseStatusEnum" style="stroke:#181818;stroke-width:1.0;"/></g><!--link Fase to Fasekategori--><g id="link_Fase_Fasekategori"><path codeLine="26" d="M820.38,303.62 C826.31,306.27 832.2,308.87 838,311.39 C905.37,340.66 929.57,332.69 992,371.39 C1026.62,392.85 1060.5,423.8 1085.54,449.15 " fill="none" id="Fase-Fasekategori" style="stroke:#181818;stroke-width:1.0;"/></g><!--link Fasekategori to GMN27--><g id="link_Fasekategori_GMN27"><path d="M1179.26,539.48 C1210.59,564.21 1251.67,594.54 1291,617.25 C1333.3,641.68 1381.31,664.36 1425.71,683.48 " fill="none" id="Fasekategori-GMN27" style="stroke:#181818;stroke-width:1.0;stroke-dasharray:7.0,7.0;"/></g><!--link Milepel to Milepeltype--><g id="link_Milepel_Milepeltype"><path codeLine="25" d="M418.83,617.68 C446.88,648.08 474.97,678.55 496.27,701.65 " fill="none" id="Milepel-Milepeltype" style="stroke:#181818;stroke-width:1.0;"/></g><!--link Milepel to ReferanseJournalpost--><g id="link_Milepel_ReferanseJournalpost"><path codeLine="37" d="M468.9,607.72 C474.95,611.04 480.99,614.23 487,617.25 C519.33,633.53 590.56,659.35 660.45,683.23 " fill="none" id="Milepel-ReferanseJournalpost" style="stroke:#181818;stroke-width:1.0;"/></g><!--link Milepel to ReferanseDokumentfil--><g id="link_Milepel_ReferanseDokumentfil"><path codeLine="38" d="M468.9,609.92 C474.91,612.58 480.95,615.04 487,617.25 C716.23,701.22 801.18,600.7 1033,677.25 C1050.74,683.11 1068.76,692.1 1084.93,701.51 " fill="none" id="Milepel-ReferanseDokumentfil" style="stroke:#181818;stroke-width:1.0;"/></g><!--link Milepel to MilepelStatusEnum--><g id="link_Milepel_MilepelStatusEnum"><path codeLine="43" d="M198.63,617.68 C171.95,648.08 145.22,678.55 124.95,701.65 " fill="none" id="Milepel-MilepelStatusEnum" style="stroke:#181818;stroke-width:1.0;"/></g><!--link ReferanseJournalpost to EksternNoekkel--><g id="link_ReferanseJournalpost_EksternNoekkel"><path codeLine="44" d="M751.33,807.99 C720.86,830.67 687.53,855.48 660.58,875.54 " fill="none" id="ReferanseJournalpost-EksternNoekkel" style="stroke:#181818;stroke-width:1.0;"/></g><!--link ReferanseJournalpost to SaksJournalpostnummer--><g id="link_ReferanseJournalpost_SaksJournalpostnummer"><path codeLine="45" d="M940.81,807.99 C972.09,827.62 1005.91,848.85 1035.17,867.21 " fill="none" id="ReferanseJournalpost-SaksJournalpostnummer" style="stroke:#181818;stroke-width:1.0;"/></g><!--link ReferanseJournalpost to Journalnummer--><g id="link_ReferanseJournalpost_Journalnummer"><path codeLine="46" d="M838,807.99 C838,830.67 838,855.48 838,875.54 " fill="none" id="ReferanseJournalpost-Journalnummer" style="stroke:#181818;stroke-width:1.0;"/></g><!--link HentSaksfaseResultat to Fase--><g id="link_HentSaksfaseResultat_Fase"><path codeLine="9" d="M488.66,71.63 C509.49,90.49 537.02,115.42 563.59,139.48 " fill="none" id="HentSaksfaseResultat-Fase" style="stroke:#181818;stroke-width:1.0;"/></g><!--link Fase to Dokument--><g id="link_Fase_Dokument"><path codeLine="11" d="M767.86,139.25 C795.34,123.69 825.45,109.72 855.5,101.49 C1000.17,61.86 1385.83,61.86 1530.5,101.49 C1555.13,108.24 1569.1704,113.2712 1592.4004,125.4412 " fill="none" id="Fase-to-Dokument" style="stroke:#181818;stroke-width:1.0;"/><polygon fill="#181818" points="1603.03,131.01,1599.5714,124.6824,1592.4004,125.4412,1595.8589,131.7688,1603.03,131.01" style="stroke:#181818;stroke-width:1.0;"/></g><!--link Fase to Milepel--><g id="link_Fase_Milepel"><path codeLine="12" d="M549.36,303.35 C522.1,324.63 492.08,348.06 462.7,370.99 " fill="none" id="Fase-Milepel" style="stroke:#181818;stroke-width:1.0;"/></g><!--SRC=[fOyn3i8m34Ltdy9TAyKLApD2B2nmWgXrK1IdhUg61N5t4feD5eI7B_dRVhORF_QI1aRgYBfneg3aV1QrGPrLNkY-8ySYh3HC8KKUrwuNgpfuUrjif3b1ymkbvFyHeXUUMJuWy3Rmb4-yrh4BQvBLhlW0pD4MRu_7hF04-Dffp5Q7ecXQFDItgs7mlEs75m00]--></g></svg>