<svg xmlns="http://www.w3.org/2000/svg" xmlns:xlink="http://www.w3.org/1999/xlink" contentStyleType="text/css" height="988px" preserveAspectRatio="none" style="width:1907px;height:988px;background:#FFFFFF;" version="1.1" viewBox="0 0 1907 988" width="1907px" zoomAndPan="magnify"><defs/><g><!--class ReferanseDokumentfil--><g id="elem_ReferanseDokumentfil"><rect codeLine="40" fill="#F1F1F1" height="80.9766" id="ReferanseDokumentfil" rx="2.5" ry="2.5" style="stroke:#181818;stroke-width:0.5;" width="184" x="1051" y="718.48"/><ellipse cx="1066" cy="734.48" fill="#ADD1B2" rx="11" ry="11" style="stroke:#181818;stroke-width:1.0;"/><path d="M1068.4731,740.6231 Q1067.8921,740.9219 1067.2529,741.0713 Q1066.6138,741.2207 1065.9082,741.2207 Q1063.4014,741.2207 1062.0815,739.5689 Q1060.7617,737.917 1060.7617,734.7959 Q1060.7617,731.6665 1062.0815,730.0147 Q1063.4014,728.3628 1065.9082,728.3628 Q1066.6138,728.3628 1067.2612,728.5122 Q1067.9087,728.6616 1068.4731,728.9605 L1068.4731,731.6831 Q1067.8423,731.1021 1067.2488,730.8323 Q1066.6553,730.5625 1066.0244,730.5625 Q1064.6797,730.5625 1063.9949,731.6292 Q1063.3101,732.6958 1063.3101,734.7959 Q1063.3101,736.8877 1063.9949,737.9544 Q1064.6797,739.021 1066.0244,739.021 Q1066.6553,739.021 1067.2488,738.7512 Q1067.8423,738.4815 1068.4731,737.9004 Z " fill="#000000"/><text fill="#000000" font-family="sans-serif" font-size="14" lengthAdjust="spacing" textLength="152" x="1080" y="739.771">ReferanseDokumentfil</text><line style="stroke:#181818;stroke-width:0.5;" x1="1052" x2="1234" y1="750.48" y2="750.48"/><ellipse cx="1062" cy="764.2241" fill="#000000" rx="3" ry="3" style="stroke:#000000;stroke-width:1.0;"/><text fill="#000000" font-family="sans-serif" font-size="14" lengthAdjust="spacing" textLength="61" x="1071" y="768.0152">id: string</text><ellipse cx="1062" cy="780.7124" fill="#000000" rx="3" ry="3" style="stroke:#000000;stroke-width:1.0;"/><text fill="#000000" font-family="sans-serif" font-size="14" lengthAdjust="spacing" textLength="67" x="1071" y="784.5034">url: string</text><line style="stroke:#181818;stroke-width:0.5;" x1="1052" x2="1234" y1="791.4566" y2="791.4566"/></g><!--class Dokument--><g id="elem_Dokument"><rect codeLine="3" fill="#F1F1F1" height="179.9063" id="Dokument" rx="2.5" ry="2.5" style="stroke:#181818;stroke-width:0.5;" width="335" x="1565.5" y="139.73"/><ellipse cx="1693.25" cy="155.73" fill="#ADD1B2" rx="11" ry="11" style="stroke:#181818;stroke-width:1.0;"/><path d="M1695.7231,161.8731 Q1695.1421,162.1719 1694.5029,162.3213 Q1693.8638,162.4707 1693.1582,162.4707 Q1690.6514,162.4707 1689.3315,160.8189 Q1688.0117,159.167 1688.0117,156.0459 Q1688.0117,152.9165 1689.3315,151.2647 Q1690.6514,149.6128 1693.1582,149.6128 Q1693.8638,149.6128 1694.5112,149.7622 Q1695.1587,149.9116 1695.7231,150.2105 L1695.7231,152.9331 Q1695.0923,152.3521 1694.4988,152.0823 Q1693.9053,151.8125 1693.2744,151.8125 Q1691.9297,151.8125 1691.2449,152.8792 Q1690.5601,153.9458 1690.5601,156.0459 Q1690.5601,158.1377 1691.2449,159.2044 Q1691.9297,160.271 1693.2744,160.271 Q1693.9053,160.271 1694.4988,160.0012 Q1695.0923,159.7315 1695.7231,159.1504 Z " fill="#000000"/><text fill="#000000" font-family="sans-serif" font-size="14" lengthAdjust="spacing" textLength="71" x="1713.75" y="161.021">Dokument</text><line style="stroke:#181818;stroke-width:0.5;" x1="1566.5" x2="1899.5" y1="171.73" y2="171.73"/><ellipse cx="1576.5" cy="185.4741" fill="#000000" rx="3" ry="3" style="stroke:#000000;stroke-width:1.0;"/><text fill="#000000" font-family="sans-serif" font-size="14" lengthAdjust="spacing" textLength="61" x="1585.5" y="189.2652">id: string</text><text fill="#000000" font-family="sans-serif" font-size="14" lengthAdjust="spacing" textLength="79" x="1585.5" y="205.7534">tittel: string</text><text fill="#000000" font-family="sans-serif" font-size="14" lengthAdjust="spacing" textLength="94" x="1585.5" y="222.2417">filnavn: string</text><text fill="#000000" font-family="sans-serif" font-size="14" lengthAdjust="spacing" textLength="207" x="1585.5" y="238.73">dokumenttype: Dokumenttype</text><text fill="#000000" font-family="sans-serif" font-size="14" lengthAdjust="spacing" textLength="309" x="1585.5" y="255.2183">referanseDokumentfil: ReferanseDokumentfil</text><text fill="#000000" font-family="sans-serif" font-size="14" lengthAdjust="spacing" textLength="115" x="1585.5" y="271.7066">mimetype: string</text><text fill="#000000" font-family="sans-serif" font-size="14" lengthAdjust="spacing" textLength="146" x="1585.5" y="288.1948">dokumentsdato: date</text><text fill="#000000" font-family="sans-serif" font-size="14" lengthAdjust="spacing" textLength="114" x="1585.5" y="304.6831">arkivnavn: string</text><line style="stroke:#181818;stroke-width:0.5;" x1="1566.5" x2="1899.5" y1="311.6363" y2="311.6363"/></g><g id="elem_GMN4"><path d="M1627.5,26.59 L1627.5,51.9005 A0,0 0 0 0 1627.5,51.9005 L1729,51.9005 L1733,139.46 L1737,51.9005 L1838.5,51.9005 A0,0 0 0 0 1838.5,51.9005 L1838.5,36.59 L1828.5,26.59 L1627.5,26.59 A0,0 0 0 0 1627.5,26.59 " fill="#FEFFDD" style="stroke:#181818;stroke-width:0.5;"/><path d="M1828.5,26.59 L1828.5,36.59 L1838.5,36.59 L1828.5,26.59 " fill="#FEFFDD" style="stroke:#181818;stroke-width:0.5;"/><text fill="#000000" font-family="sans-serif" font-size="13" lengthAdjust="spacing" textLength="190" x="1633.5" y="44.1584">Hentet definisjon fra Fiks Plan</text></g><!--class Dokumenttype--><g id="elem_Dokumenttype"><rect codeLine="19" fill="#F1F1F1" height="89.5977" id="Dokumenttype" rx="2.5" ry="2.5" style="stroke:#181818;stroke-width:0.5;" width="184" x="1641" y="466.02"/><ellipse cx="1679.4" cy="486.3305" fill="#ADD1B2" rx="11" ry="11" style="stroke:#181818;stroke-width:1.0;"/><path d="M1681.8731,492.4736 Q1681.2921,492.7724 1680.6529,492.9219 Q1680.0138,493.0713 1679.3082,493.0713 Q1676.8014,493.0713 1675.4815,491.4194 Q1674.1617,489.7676 1674.1617,486.6465 Q1674.1617,483.5171 1675.4815,481.8652 Q1676.8014,480.2134 1679.3082,480.2134 Q1680.0138,480.2134 1680.6612,480.3628 Q1681.3087,480.5122 1681.8731,480.811 L1681.8731,483.5337 Q1681.2423,482.9526 1680.6488,482.6828 Q1680.0553,482.4131 1679.4244,482.4131 Q1678.0797,482.4131 1677.3949,483.4797 Q1676.7101,484.5464 1676.7101,486.6465 Q1676.7101,488.7383 1677.3949,489.8049 Q1678.0797,490.8716 1679.4244,490.8716 Q1680.0553,490.8716 1680.6488,490.6018 Q1681.2423,490.332 1681.8731,489.751 Z " fill="#000000"/><text fill="#000000" font-family="sans-serif" font-size="12" font-style="italic" lengthAdjust="spacing" textLength="42" x="1727.6" y="482.6216">&#171;Kode&#187;</text><text fill="#000000" font-family="sans-serif" font-size="14" lengthAdjust="spacing" textLength="100" x="1698.6" y="498.688">Dokumenttype</text><line style="stroke:#181818;stroke-width:0.5;" x1="1642" x2="1824" y1="506.6411" y2="506.6411"/><ellipse cx="1652" cy="520.3852" fill="none" rx="3" ry="3" style="stroke:#038048;stroke-width:1.0;"/><text fill="#000000" font-family="sans-serif" font-size="14" lengthAdjust="spacing" textLength="116" x="1661" y="524.1763">kodeverdi: string</text><ellipse cx="1652" cy="536.8735" fill="none" rx="3" ry="3" style="stroke:#038048;stroke-width:1.0;"/><text fill="#000000" font-family="sans-serif" font-size="14" lengthAdjust="spacing" textLength="158" x="1661" y="540.6645">kodebeskrivelse: string</text><line style="stroke:#181818;stroke-width:0.5;" x1="1642" x2="1824" y1="547.6177" y2="547.6177"/></g><!--class ReferanseJournalpost--><g id="elem_ReferanseJournalpost"><rect codeLine="2" fill="#F1F1F1" height="130.4414" id="ReferanseJournalpost" rx="2.5" ry="2.5" style="stroke:#181818;stroke-width:0.5;" width="355" x="660.5" y="693.74"/><ellipse cx="760.25" cy="709.74" fill="#ADD1B2" rx="11" ry="11" style="stroke:#181818;stroke-width:1.0;"/><path d="M762.7231,715.8831 Q762.1421,716.1819 761.5029,716.3313 Q760.8638,716.4807 760.1582,716.4807 Q757.6514,716.4807 756.3315,714.8289 Q755.0117,713.177 755.0117,710.0559 Q755.0117,706.9265 756.3315,705.2747 Q757.6514,703.6228 760.1582,703.6228 Q760.8638,703.6228 761.5112,703.7722 Q762.1587,703.9216 762.7231,704.2205 L762.7231,706.9431 Q762.0923,706.3621 761.4988,706.0923 Q760.9053,705.8225 760.2744,705.8225 Q758.9297,705.8225 758.2449,706.8892 Q757.5601,707.9558 757.5601,710.0559 Q757.5601,712.1477 758.2449,713.2144 Q758.9297,714.281 760.2744,714.281 Q760.9053,714.281 761.4988,714.0112 Q762.0923,713.7415 762.7231,713.1604 Z " fill="#000000"/><text fill="#000000" font-family="sans-serif" font-size="14" lengthAdjust="spacing" textLength="147" x="780.75" y="715.031">ReferanseJournalpost</text><line style="stroke:#181818;stroke-width:0.5;" x1="661.5" x2="1014.5" y1="725.74" y2="725.74"/><text fill="#000000" font-family="sans-serif" font-size="14" lengthAdjust="spacing" textLength="108" x="666.5" y="743.2752">systemId: string</text><text fill="#000000" font-family="sans-serif" font-size="14" lengthAdjust="spacing" textLength="150" x="666.5" y="759.7634">registreringsID: string</text><text fill="#000000" font-family="sans-serif" font-size="14" lengthAdjust="spacing" textLength="222" x="666.5" y="776.2517">journalnummer: Journalnummer</text><text fill="#000000" font-family="sans-serif" font-size="14" lengthAdjust="spacing" textLength="343" x="666.5" y="792.74">saksJournalpostnummer: SaksJournalpostnummer</text><text fill="#000000" font-family="sans-serif" font-size="14" lengthAdjust="spacing" textLength="285" x="666.5" y="809.2283">referanseEksternNoekkel: EksternNoekkel</text><line style="stroke:#181818;stroke-width:0.5;" x1="661.5" x2="1014.5" y1="816.1814" y2="816.1814"/></g><!--class Fase--><g id="elem_Fase"><rect codeLine="3" fill="#F1F1F1" height="196.3945" id="Fase" rx="2.5" ry="2.5" style="stroke:#181818;stroke-width:0.5;" width="335" x="485.5" y="131.49"/><ellipse cx="633.25" cy="147.49" fill="#ADD1B2" rx="11" ry="11" style="stroke:#181818;stroke-width:1.0;"/><path d="M635.7231,153.6331 Q635.1421,153.9319 634.5029,154.0813 Q633.8638,154.2307 633.1582,154.2307 Q630.6514,154.2307 629.3315,152.5789 Q628.0117,150.927 628.0117,147.8059 Q628.0117,144.6765 629.3315,143.0247 Q630.6514,141.3728 633.1582,141.3728 Q633.8638,141.3728 634.5112,141.5222 Q635.1587,141.6716 635.7231,141.9705 L635.7231,144.6931 Q635.0923,144.1121 634.4988,143.8423 Q633.9053,143.5725 633.2744,143.5725 Q631.9297,143.5725 631.2449,144.6392 Q630.5601,145.7058 630.5601,147.8059 Q630.5601,149.8977 631.2449,150.9644 Q631.9297,152.031 633.2744,152.031 Q633.9053,152.031 634.4988,151.7612 Q635.0923,151.4915 635.7231,150.9104 Z " fill="#000000"/><text fill="#000000" font-family="sans-serif" font-size="14" lengthAdjust="spacing" textLength="31" x="653.75" y="152.781">Fase</text><line style="stroke:#181818;stroke-width:0.5;" x1="486.5" x2="819.5" y1="163.49" y2="163.49"/><ellipse cx="496.5" cy="177.2341" fill="#000000" rx="3" ry="3" style="stroke:#000000;stroke-width:1.0;"/><text fill="#000000" font-family="sans-serif" font-size="14" lengthAdjust="spacing" textLength="89" x="505.5" y="181.0252">faseid: string</text><ellipse cx="496.5" cy="193.7224" fill="#000000" rx="3" ry="3" style="stroke:#000000;stroke-width:1.0;"/><text fill="#000000" font-family="sans-serif" font-size="14" lengthAdjust="spacing" textLength="109" x="505.5" y="197.5134">fasenavn: string</text><ellipse cx="496.5" cy="210.2107" fill="#000000" rx="3" ry="3" style="stroke:#000000;stroke-width:1.0;"/><text fill="#000000" font-family="sans-serif" font-size="14" lengthAdjust="spacing" textLength="153" x="505.5" y="214.0017">kategori: Fasekategori</text><ellipse cx="496.5" cy="226.699" fill="#000000" rx="3" ry="3" style="stroke:#000000;stroke-width:1.0;"/><text fill="#000000" font-family="sans-serif" font-size="14" lengthAdjust="spacing" textLength="161" x="505.5" y="230.49">status: FaseStatusEnum</text><text fill="#000000" font-family="sans-serif" font-size="14" lengthAdjust="spacing" textLength="101" x="505.5" y="246.9783">startDato: date</text><text fill="#000000" font-family="sans-serif" font-size="14" lengthAdjust="spacing" textLength="100" x="505.5" y="263.4666">sluttDato: date</text><text fill="#000000" font-family="sans-serif" font-size="14" lengthAdjust="spacing" textLength="131" x="505.5" y="279.9548">milepeler: Milepel[]</text><text fill="#000000" font-family="sans-serif" font-size="14" lengthAdjust="spacing" textLength="100" x="505.5" y="296.4431">vedtak: Vedtak</text><text fill="#000000" font-family="sans-serif" font-size="14" lengthAdjust="spacing" textLength="309" x="505.5" y="312.9314">referanseJournalpost: ReferanseJournalpost[]</text><line style="stroke:#181818;stroke-width:0.5;" x1="486.5" x2="819.5" y1="319.8845" y2="319.8845"/></g><g id="elem_GMN13"><path d="M578,18.94 L578,59.5611 A0,0 0 0 0 578,59.5611 L826.18,59.5611 L755.49,131.15 L834.18,59.5611 L1124,59.5611 A0,0 0 0 0 1124,59.5611 L1124,28.94 L1114,18.94 L578,18.94 A0,0 0 0 0 578,18.94 " fill="#FEFFDD" style="stroke:#181818;stroke-width:0.5;"/><path d="M1114,18.94 L1114,28.94 L1124,28.94 L1114,18.94 " fill="#FEFFDD" style="stroke:#181818;stroke-width:0.5;"/><text fill="#000000" font-family="sans-serif" font-size="13" lengthAdjust="spacing" textLength="369" x="584" y="36.5084">En fase er i hovedsak det som hender mellom to milepeler.</text><text fill="#000000" font-family="sans-serif" font-size="13" lengthAdjust="spacing" textLength="525" x="584" y="51.8189">Interne faser sendes ikke ut ved denne protokollen. Vi kutter derfor ut Global flagg.</text></g><path d="M855.5,204.38 L855.5,220.6905 L594.5,175.7341 L855.5,228.6905 L855.5,245.0011 A0,0 0 0 0 855.5,245.0011 L1376.5,245.0011 A0,0 0 0 0 1376.5,245.0011 L1376.5,214.38 L1366.5,204.38 L855.5,204.38 A0,0 0 0 0 855.5,204.38 " fill="#FEFFDD" style="stroke:#181818;stroke-width:0.5;"/><path d="M1366.5,204.38 L1366.5,214.38 L1376.5,214.38 L1366.5,204.38 " fill="#FEFFDD" style="stroke:#181818;stroke-width:0.5;"/><text fill="#000000" font-family="sans-serif" font-size="13" lengthAdjust="spacing" textLength="500" x="861.5" y="221.9484">Faseid brukes alene (ikke sammen med saksnummer) for &#229; hente en enkelt fase</text><text fill="#000000" font-family="sans-serif" font-size="13" lengthAdjust="spacing" textLength="165" x="861.5" y="237.2589">Den m&#229; dermed v&#230;re unik</text><!--class Vedtak--><g id="elem_Vedtak"><rect codeLine="36" fill="#F1F1F1" height="89.5977" id="Vedtak" rx="2.5" ry="2.5" style="stroke:#181818;stroke-width:0.5;" width="184" x="1309" y="466.02"/><ellipse cx="1373.25" cy="486.3305" fill="#ADD1B2" rx="11" ry="11" style="stroke:#181818;stroke-width:1.0;"/><path d="M1375.7231,492.4736 Q1375.1421,492.7724 1374.5029,492.9219 Q1373.8638,493.0713 1373.1582,493.0713 Q1370.6514,493.0713 1369.3315,491.4194 Q1368.0117,489.7676 1368.0117,486.6465 Q1368.0117,483.5171 1369.3315,481.8652 Q1370.6514,480.2134 1373.1582,480.2134 Q1373.8638,480.2134 1374.5112,480.3628 Q1375.1587,480.5122 1375.7231,480.811 L1375.7231,483.5337 Q1375.0923,482.9526 1374.4988,482.6828 Q1373.9053,482.4131 1373.2744,482.4131 Q1371.9297,482.4131 1371.2449,483.4797 Q1370.5601,484.5464 1370.5601,486.6465 Q1370.5601,488.7383 1371.2449,489.8049 Q1371.9297,490.8716 1373.2744,490.8716 Q1373.9053,490.8716 1374.4988,490.6018 Q1375.0923,490.332 1375.7231,489.751 Z " fill="#000000"/><text fill="#000000" font-family="sans-serif" font-size="12" font-style="italic" lengthAdjust="spacing" textLength="42" x="1396.25" y="482.6216">&#171;Kode&#187;</text><text fill="#000000" font-family="sans-serif" font-size="14" lengthAdjust="spacing" textLength="47" x="1393.75" y="498.688">Vedtak</text><line style="stroke:#181818;stroke-width:0.5;" x1="1310" x2="1492" y1="506.6411" y2="506.6411"/><ellipse cx="1320" cy="520.3852" fill="#000000" rx="3" ry="3" style="stroke:#000000;stroke-width:1.0;"/><text fill="#000000" font-family="sans-serif" font-size="14" lengthAdjust="spacing" textLength="116" x="1329" y="524.1763">kodeverdi: string</text><text fill="#000000" font-family="sans-serif" font-size="14" lengthAdjust="spacing" textLength="158" x="1329" y="540.6645">kodebeskrivelse: string</text><line style="stroke:#181818;stroke-width:0.5;" x1="1310" x2="1492" y1="547.6177" y2="547.6177"/></g><!--class FaseStatusEnum--><g id="elem_FaseStatusEnum"><rect codeLine="28" fill="#F1F1F1" height="97.4648" id="FaseStatusEnum" rx="2.5" ry="2.5" style="stroke:#181818;stroke-width:0.5;" width="144" x="504" y="462.08"/><ellipse cx="519" cy="478.08" fill="#EB937F" rx="11" ry="11" style="stroke:#181818;stroke-width:1.0;"/><path d="M522.6143,484.58 L514.8945,484.58 L514.8945,472.1869 L522.6143,472.1869 L522.6143,474.3451 L517.3433,474.3451 L517.3433,477.018 L522.1162,477.018 L522.1162,479.1762 L517.3433,479.1762 L517.3433,482.4218 L522.6143,482.4218 Z " fill="#000000"/><text fill="#000000" font-family="sans-serif" font-size="14" lengthAdjust="spacing" textLength="112" x="533" y="483.371">FaseStatusEnum</text><line style="stroke:#181818;stroke-width:0.5;" x1="505" x2="647" y1="494.08" y2="494.08"/><ellipse cx="515" cy="507.8241" fill="none" rx="3" ry="3" style="stroke:#038048;stroke-width:1.0;"/><text fill="#000000" font-family="sans-serif" font-size="14" lengthAdjust="spacing" textLength="55" x="524" y="511.6152">Planlagt</text><ellipse cx="515" cy="524.3124" fill="none" rx="3" ry="3" style="stroke:#038048;stroke-width:1.0;"/><text fill="#000000" font-family="sans-serif" font-size="14" lengthAdjust="spacing" textLength="88" x="524" y="528.1034">UnderArbeid</text><ellipse cx="515" cy="540.8007" fill="none" rx="3" ry="3" style="stroke:#038048;stroke-width:1.0;"/><text fill="#000000" font-family="sans-serif" font-size="14" lengthAdjust="spacing" textLength="48" x="524" y="544.5917">Utfoert</text><line style="stroke:#181818;stroke-width:0.5;" x1="505" x2="647" y1="551.5448" y2="551.5448"/></g><!--class Fasekategori--><g id="elem_Fasekategori"><rect codeLine="41" fill="#F1F1F1" height="89.5977" id="Fasekategori" rx="2.5" ry="2.5" style="stroke:#181818;stroke-width:0.5;" width="184" x="1034" y="466.02"/><ellipse cx="1077.8" cy="486.3305" fill="#ADD1B2" rx="11" ry="11" style="stroke:#181818;stroke-width:1.0;"/><path d="M1080.2731,492.4736 Q1079.6921,492.7724 1079.0529,492.9219 Q1078.4138,493.0713 1077.7082,493.0713 Q1075.2014,493.0713 1073.8815,491.4194 Q1072.5617,489.7676 1072.5617,486.6465 Q1072.5617,483.5171 1073.8815,481.8652 Q1075.2014,480.2134 1077.7082,480.2134 Q1078.4138,480.2134 1079.0612,480.3628 Q1079.7087,480.5122 1080.2731,480.811 L1080.2731,483.5337 Q1079.6423,482.9526 1079.0488,482.6828 Q1078.4553,482.4131 1077.8244,482.4131 Q1076.4797,482.4131 1075.7949,483.4797 Q1075.1101,484.5464 1075.1101,486.6465 Q1075.1101,488.7383 1075.7949,489.8049 Q1076.4797,490.8716 1077.8244,490.8716 Q1078.4553,490.8716 1079.0488,490.6018 Q1079.6423,490.332 1080.2731,489.751 Z " fill="#000000"/><text fill="#000000" font-family="sans-serif" font-size="12" font-style="italic" lengthAdjust="spacing" textLength="42" x="1121.2" y="482.6216">&#171;Kode&#187;</text><text fill="#000000" font-family="sans-serif" font-size="14" lengthAdjust="spacing" textLength="88" x="1098.2" y="498.688">Fasekategori</text><line style="stroke:#181818;stroke-width:0.5;" x1="1035" x2="1217" y1="506.6411" y2="506.6411"/><ellipse cx="1045" cy="520.3852" fill="#000000" rx="3" ry="3" style="stroke:#000000;stroke-width:1.0;"/><text fill="#000000" font-family="sans-serif" font-size="14" lengthAdjust="spacing" textLength="116" x="1054" y="524.1763">kodeverdi: string</text><text fill="#000000" font-family="sans-serif" font-size="14" lengthAdjust="spacing" textLength="158" x="1054" y="540.6645">kodebeskrivelse: string</text><line style="stroke:#181818;stroke-width:0.5;" x1="1035" x2="1217" y1="547.6177" y2="547.6177"/></g><g id="elem_GMN24"><path d="M1412,186.41 L1412,272.9627 A0,0 0 0 0 1412,272.9627 L1456.29,272.9627 L1412.05,465.74 L1464.29,272.9627 L1530,272.9627 A0,0 0 0 0 1530,272.9627 L1530,196.41 L1520,186.41 L1412,186.41 A0,0 0 0 0 1412,186.41 " fill="#FEFFDD" style="stroke:#181818;stroke-width:0.5;"/><path d="M1520,186.41 L1520,196.41 L1530,196.41 L1520,186.41 " fill="#FEFFDD" style="stroke:#181818;stroke-width:0.5;"/><text fill="#000000" font-family="sans-serif" font-size="13" lengthAdjust="spacing" textLength="69" x="1418" y="203.9784">Eksempler:</text><text fill="#000000" font-family="sans-serif" font-size="13" lengthAdjust="spacing" textLength="56" x="1418" y="219.2889">godkjent</text><text fill="#000000" font-family="sans-serif" font-size="13" lengthAdjust="spacing" textLength="97" x="1418" y="234.5995">delvis godkjent</text><text fill="#000000" font-family="sans-serif" font-size="13" lengthAdjust="spacing" textLength="42" x="1418" y="249.91">avsl&#229;tt</text><text fill="#000000" font-family="sans-serif" font-size="13" lengthAdjust="spacing" textLength="37" x="1418" y="265.2205">avvist</text></g><g id="elem_GMN27"><path d="M1270.5,700.38 L1270.5,817.5538 L1881.5,817.5538 L1881.5,710.38 L1871.5,700.38 L1270.5,700.38 " fill="#FEFFDD" style="stroke:#181818;stroke-width:0.5;"/><path d="M1871.5,700.38 L1871.5,710.38 L1881.5,710.38 L1871.5,700.38 " fill="#FEFFDD" style="stroke:#181818;stroke-width:1.0;"/><text fill="#000000" font-family="sans-serif" font-size="13" lengthAdjust="spacing" textLength="305" x="1276.5" y="717.9484">Se gjerne Byggesaksbehandling::Prosesskategori</text><text fill="#000000" font-family="sans-serif" font-size="13" lengthAdjust="spacing" textLength="45" x="1280.5" y="733.2589">fra NPS</text><text fill="#000000" font-family="sans-serif" font-size="13" lengthAdjust="spacing" textLength="210" x="1276.5" y="748.5695">Vi m&#229; f&#229; avklart denne kodelisten</text><text fill="#000000" font-family="sans-serif" font-size="13" lengthAdjust="spacing" textLength="590" x="1276.5" y="763.88">Vi m&#229; ha en som er generell som betyr at det ikke er fastsatt hvis kategori skal v&#230;re required.</text><text fill="#000000" font-family="sans-serif" font-size="13" lengthAdjust="spacing" textLength="69" x="1276.5" y="779.1905">Eksempler:</text><text fill="#000000" font-family="sans-serif" font-size="13" lengthAdjust="spacing" textLength="34" x="1276.5" y="794.5011">Klage</text><text fill="#000000" font-family="sans-serif" font-size="13" lengthAdjust="spacing" textLength="43" x="1276.5" y="809.8116">H&#248;ring</text></g><!--class EksternNoekkel--><g id="elem_EksternNoekkel"><rect codeLine="2" fill="#F1F1F1" height="80.9766" id="EksternNoekkel" rx="2.5" ry="2.5" style="stroke:#181818;stroke-width:0.5;" width="143" x="535.5" y="892.43"/><ellipse cx="552.75" cy="908.43" fill="#ADD1B2" rx="11" ry="11" style="stroke:#181818;stroke-width:1.0;"/><path d="M555.2231,914.5731 Q554.6421,914.8719 554.0029,915.0213 Q553.3638,915.1707 552.6582,915.1707 Q550.1514,915.1707 548.8315,913.5189 Q547.5117,911.867 547.5117,908.7459 Q547.5117,905.6165 548.8315,903.9647 Q550.1514,902.3128 552.6582,902.3128 Q553.3638,902.3128 554.0112,902.4622 Q554.6587,902.6116 555.2231,902.9105 L555.2231,905.6331 Q554.5923,905.0521 553.9988,904.7823 Q553.4053,904.5125 552.7744,904.5125 Q551.4297,904.5125 550.7449,905.5792 Q550.0601,906.6458 550.0601,908.7459 Q550.0601,910.8377 550.7449,911.9044 Q551.4297,912.971 552.7744,912.971 Q553.4053,912.971 553.9988,912.7012 Q554.5923,912.4315 555.2231,911.8504 Z " fill="#000000"/><text fill="#000000" font-family="sans-serif" font-size="14" lengthAdjust="spacing" textLength="106" x="567.25" y="913.721">EksternNoekkel</text><line style="stroke:#181818;stroke-width:0.5;" x1="536.5" x2="677.5" y1="924.43" y2="924.43"/><ellipse cx="546.5" cy="938.1741" fill="#000000" rx="3" ry="3" style="stroke:#000000;stroke-width:1.0;"/><text fill="#000000" font-family="sans-serif" font-size="14" lengthAdjust="spacing" textLength="117" x="555.5" y="941.9652">fagsystem: string</text><ellipse cx="546.5" cy="954.6624" fill="#000000" rx="3" ry="3" style="stroke:#000000;stroke-width:1.0;"/><text fill="#000000" font-family="sans-serif" font-size="14" lengthAdjust="spacing" textLength="102" x="555.5" y="958.4534">noekkel: string</text><line style="stroke:#181818;stroke-width:0.5;" x1="536.5" x2="677.5" y1="965.4066" y2="965.4066"/></g><!--class Journalnummer--><g id="elem_Journalnummer"><rect codeLine="2" fill="#F1F1F1" height="80.9766" id="Journalnummer" rx="2.5" ry="2.5" style="stroke:#181818;stroke-width:0.5;" width="249" x="713.5" y="892.43"/><ellipse cx="780.25" cy="908.43" fill="#ADD1B2" rx="11" ry="11" style="stroke:#181818;stroke-width:1.0;"/><path d="M782.7231,914.5731 Q782.1421,914.8719 781.5029,915.0213 Q780.8638,915.1707 780.1582,915.1707 Q777.6514,915.1707 776.3315,913.5189 Q775.0117,911.867 775.0117,908.7459 Q775.0117,905.6165 776.3315,903.9647 Q777.6514,902.3128 780.1582,902.3128 Q780.8638,902.3128 781.5112,902.4622 Q782.1587,902.6116 782.7231,902.9105 L782.7231,905.6331 Q782.0923,905.0521 781.4988,904.7823 Q780.9053,904.5125 780.2744,904.5125 Q778.9297,904.5125 778.2449,905.5792 Q777.5601,906.6458 777.5601,908.7459 Q777.5601,910.8377 778.2449,911.9044 Q778.9297,912.971 780.2744,912.971 Q780.9053,912.971 781.4988,912.7012 Q782.0923,912.4315 782.7231,911.8504 Z " fill="#000000"/><text fill="#000000" font-family="sans-serif" font-size="14" lengthAdjust="spacing" textLength="107" x="800.75" y="913.721">Journalnummer</text><line style="stroke:#181818;stroke-width:0.5;" x1="714.5" x2="961.5" y1="924.43" y2="924.43"/><ellipse cx="724.5" cy="938.1741" fill="#000000" rx="3" ry="3" style="stroke:#000000;stroke-width:1.0;"/><text fill="#000000" font-family="sans-serif" font-size="14" lengthAdjust="spacing" textLength="169" x="733.5" y="941.9652">journalnummer: number</text><ellipse cx="724.5" cy="954.6624" fill="#000000" rx="3" ry="3" style="stroke:#000000;stroke-width:1.0;"/><text fill="#000000" font-family="sans-serif" font-size="14" lengthAdjust="spacing" textLength="223" x="733.5" y="958.4534">journalsekvensnummer: number</text><line style="stroke:#181818;stroke-width:0.5;" x1="714.5" x2="961.5" y1="965.4066" y2="965.4066"/></g><!--class SaksJournalpostnummer--><g id="elem_SaksJournalpostnummer"><rect codeLine="2" fill="#F1F1F1" height="97.4648" id="SaksJournalpostnummer" rx="2.5" ry="2.5" style="stroke:#181818;stroke-width:0.5;" width="230" x="997" y="884.19"/><ellipse cx="1025.5" cy="900.19" fill="#ADD1B2" rx="11" ry="11" style="stroke:#181818;stroke-width:1.0;"/><path d="M1027.9731,906.3331 Q1027.3921,906.6319 1026.7529,906.7813 Q1026.1138,906.9307 1025.4082,906.9307 Q1022.9014,906.9307 1021.5815,905.2789 Q1020.2617,903.627 1020.2617,900.5059 Q1020.2617,897.3765 1021.5815,895.7247 Q1022.9014,894.0728 1025.4082,894.0728 Q1026.1138,894.0728 1026.7612,894.2222 Q1027.4087,894.3716 1027.9731,894.6705 L1027.9731,897.3931 Q1027.3423,896.8121 1026.7488,896.5423 Q1026.1553,896.2725 1025.5244,896.2725 Q1024.1797,896.2725 1023.4949,897.3392 Q1022.8101,898.4058 1022.8101,900.5059 Q1022.8101,902.5977 1023.4949,903.6644 Q1024.1797,904.731 1025.5244,904.731 Q1026.1553,904.731 1026.7488,904.4612 Q1027.3423,904.1915 1027.9731,903.6104 Z " fill="#000000"/><text fill="#000000" font-family="sans-serif" font-size="14" lengthAdjust="spacing" textLength="168" x="1042.5" y="905.481">SaksJournalpostnummer</text><line style="stroke:#181818;stroke-width:0.5;" x1="998" x2="1226" y1="916.19" y2="916.19"/><ellipse cx="1008" cy="929.9341" fill="#000000" rx="3" ry="3" style="stroke:#000000;stroke-width:1.0;"/><text fill="#000000" font-family="sans-serif" font-size="14" lengthAdjust="spacing" textLength="114" x="1017" y="933.7252">saksaar: number</text><ellipse cx="1008" cy="946.4224" fill="#000000" rx="3" ry="3" style="stroke:#000000;stroke-width:1.0;"/><text fill="#000000" font-family="sans-serif" font-size="14" lengthAdjust="spacing" textLength="204" x="1017" y="950.2134">sakssekvensnummer: number</text><ellipse cx="1008" cy="962.9107" fill="#000000" rx="3" ry="3" style="stroke:#000000;stroke-width:1.0;"/><text fill="#000000" font-family="sans-serif" font-size="14" lengthAdjust="spacing" textLength="199" x="1017" y="966.7017">journalpostnummer: number</text><line style="stroke:#181818;stroke-width:0.5;" x1="998" x2="1226" y1="973.6548" y2="973.6548"/></g><!--class Milepel--><g id="elem_Milepel"><rect codeLine="8" fill="#F1F1F1" height="245.8594" id="Milepel" rx="2.5" ry="2.5" style="stroke:#181818;stroke-width:0.5;" width="325" x="143.5" y="387.88"/><ellipse cx="277.25" cy="403.88" fill="#ADD1B2" rx="11" ry="11" style="stroke:#181818;stroke-width:1.0;"/><path d="M279.7231,410.0231 Q279.1421,410.3219 278.5029,410.4713 Q277.8638,410.6207 277.1582,410.6207 Q274.6514,410.6207 273.3315,408.9689 Q272.0117,407.317 272.0117,404.1959 Q272.0117,401.0665 273.3315,399.4147 Q274.6514,397.7628 277.1582,397.7628 Q277.8638,397.7628 278.5112,397.9122 Q279.1587,398.0616 279.7231,398.3605 L279.7231,401.0831 Q279.0923,400.5021 278.4988,400.2323 Q277.9053,399.9625 277.2744,399.9625 Q275.9297,399.9625 275.2449,401.0292 Q274.5601,402.0958 274.5601,404.1959 Q274.5601,406.2877 275.2449,407.3544 Q275.9297,408.421 277.2744,408.421 Q277.9053,408.421 278.4988,408.1512 Q279.0923,407.8815 279.7231,407.3004 Z " fill="#000000"/><text fill="#000000" font-family="sans-serif" font-size="14" lengthAdjust="spacing" textLength="49" x="297.75" y="409.171">Milepel</text><line style="stroke:#181818;stroke-width:0.5;" x1="144.5" x2="467.5" y1="419.88" y2="419.88"/><ellipse cx="154.5" cy="433.6241" fill="#000000" rx="3" ry="3" style="stroke:#000000;stroke-width:1.0;"/><text fill="#000000" font-family="sans-serif" font-size="14" lengthAdjust="spacing" textLength="111" x="163.5" y="437.4152">milepelId: string</text><ellipse cx="154.5" cy="450.1124" fill="#000000" rx="3" ry="3" style="stroke:#000000;stroke-width:1.0;"/><text fill="#000000" font-family="sans-serif" font-size="14" lengthAdjust="spacing" textLength="124" x="163.5" y="453.9034">beskrivelse: string</text><text fill="#000000" font-family="sans-serif" font-size="14" lengthAdjust="spacing" textLength="165" x="163.5" y="470.3917">milepeltype: Milepeltype</text><text fill="#000000" font-family="sans-serif" font-size="14" lengthAdjust="spacing" textLength="65" x="163.5" y="486.88">frist: date</text><text fill="#000000" font-family="sans-serif" font-size="14" lengthAdjust="spacing" textLength="85" x="163.5" y="503.3683">utfoert: date</text><text fill="#000000" font-family="sans-serif" font-size="14" lengthAdjust="spacing" textLength="142" x="163.5" y="519.8566">planlagtUtfoert: date</text><ellipse cx="154.5" cy="532.5538" fill="#000000" rx="3" ry="3" style="stroke:#000000;stroke-width:1.0;"/><text fill="#000000" font-family="sans-serif" font-size="14" lengthAdjust="spacing" textLength="105" x="163.5" y="536.3448">intern: boolean</text><text fill="#000000" font-family="sans-serif" font-size="14" lengthAdjust="spacing" textLength="299" x="163.5" y="552.8331">referanseJournalpost: ReferanseJournalpost</text><text fill="#000000" font-family="sans-serif" font-size="14" lengthAdjust="spacing" textLength="296" x="163.5" y="569.3214">referanseDokument: ReferanseDokumentfil</text><text fill="#000000" font-family="sans-serif" font-size="14" lengthAdjust="spacing" textLength="110" x="163.5" y="585.8097">erStart: boolean</text><text fill="#000000" font-family="sans-serif" font-size="14" lengthAdjust="spacing" textLength="109" x="163.5" y="602.298">erSlutt: boolean</text><ellipse cx="154.5" cy="614.9952" fill="#000000" rx="3" ry="3" style="stroke:#000000;stroke-width:1.0;"/><text fill="#000000" font-family="sans-serif" font-size="14" lengthAdjust="spacing" textLength="179" x="163.5" y="618.7863">status: MilepelStatusEnum</text><line style="stroke:#181818;stroke-width:0.5;" x1="144.5" x2="467.5" y1="625.7394" y2="625.7394"/></g><g id="elem_GMN34"><path d="M6,209.38 L6,250.0011 A0,0 0 0 0 6,250.0011 L229.48,250.0011 L271.88,387.7 L237.48,250.0011 L450,250.0011 A0,0 0 0 0 450,250.0011 L450,219.38 L440,209.38 L6,209.38 A0,0 0 0 0 6,209.38 " fill="#FEFFDD" style="stroke:#181818;stroke-width:0.5;"/><path d="M440,209.38 L440,219.38 L450,219.38 L440,209.38 " fill="#FEFFDD" style="stroke:#181818;stroke-width:0.5;"/><text fill="#000000" font-family="sans-serif" font-size="13" lengthAdjust="spacing" textLength="331" x="12" y="226.9484">planlagtUtfoert er hvis man har laget en milepel plan</text><text fill="#000000" font-family="sans-serif" font-size="13" lengthAdjust="spacing" textLength="423" x="12" y="242.2589">s&#229; kan man sette denne datoen for n&#229;r det er planlagt &#229; v&#230;re ferdig</text></g><!--class Milepeltype--><g id="elem_Milepeltype"><rect codeLine="32" fill="#F1F1F1" height="80.9766" id="Milepeltype" rx="2.5" ry="2.5" style="stroke:#181818;stroke-width:0.5;" width="184" x="441" y="718.48"/><ellipse cx="489.75" cy="734.48" fill="#ADD1B2" rx="11" ry="11" style="stroke:#181818;stroke-width:1.0;"/><path d="M492.2231,740.6231 Q491.6421,740.9219 491.0029,741.0713 Q490.3638,741.2207 489.6582,741.2207 Q487.1514,741.2207 485.8315,739.5689 Q484.5117,737.917 484.5117,734.7959 Q484.5117,731.6665 485.8315,730.0147 Q487.1514,728.3628 489.6582,728.3628 Q490.3638,728.3628 491.0112,728.5122 Q491.6587,728.6616 492.2231,728.9605 L492.2231,731.6831 Q491.5923,731.1021 490.9988,730.8323 Q490.4053,730.5625 489.7744,730.5625 Q488.4297,730.5625 487.7449,731.6292 Q487.0601,732.6958 487.0601,734.7959 Q487.0601,736.8877 487.7449,737.9544 Q488.4297,739.021 489.7744,739.021 Q490.4053,739.021 490.9988,738.7512 Q491.5923,738.4815 492.2231,737.9004 Z " fill="#000000"/><text fill="#000000" font-family="sans-serif" font-size="14" lengthAdjust="spacing" textLength="78" x="510.25" y="739.771">Milepeltype</text><line style="stroke:#181818;stroke-width:0.5;" x1="442" x2="624" y1="750.48" y2="750.48"/><ellipse cx="452" cy="764.2241" fill="none" rx="3" ry="3" style="stroke:#038048;stroke-width:1.0;"/><text fill="#000000" font-family="sans-serif" font-size="14" lengthAdjust="spacing" textLength="116" x="461" y="768.0152">kodeverdi: string</text><ellipse cx="452" cy="780.7124" fill="none" rx="3" ry="3" style="stroke:#038048;stroke-width:1.0;"/><text fill="#000000" font-family="sans-serif" font-size="14" lengthAdjust="spacing" textLength="158" x="461" y="784.5034">kodebeskrivelse: string</text><line style="stroke:#181818;stroke-width:0.5;" x1="442" x2="624" y1="791.4566" y2="791.4566"/></g><g id="elem_GMN39"><path d="M683.5,475.19 L683.5,546.4322 A0,0 0 0 0 683.5,546.4322 L756.31,546.4322 L575.82,718.19 L764.31,546.4322 L912.5,546.4322 A0,0 0 0 0 912.5,546.4322 L912.5,485.19 L902.5,475.19 L683.5,475.19 A0,0 0 0 0 683.5,475.19 " fill="#FEFFDD" style="stroke:#181818;stroke-width:0.5;"/><path d="M902.5,475.19 L902.5,485.19 L912.5,485.19 L902.5,475.19 " fill="#FEFFDD" style="stroke:#181818;stroke-width:0.5;"/><text fill="#000000" font-family="sans-serif" font-size="13" lengthAdjust="spacing" textLength="69" x="689.5" y="492.7584">Eksempler:</text><text fill="#000000" font-family="sans-serif" font-size="13" lengthAdjust="spacing" textLength="201" x="689.5" y="508.0689">Bestilling av oppstartsm&#248;te (BO)</text><text fill="#000000" font-family="sans-serif" font-size="13" lengthAdjust="spacing" textLength="208" x="689.5" y="523.3795">Gjennomf&#248;rt oppstartsm&#248;te (OM)</text><text fill="#000000" font-family="sans-serif" font-size="13" lengthAdjust="spacing" textLength="137" x="689.5" y="538.69">Mottak av planforslag</text></g><g id="elem_GMN42"><path d="M206.5,746.31 L206.5,771.6205 A0,0 0 0 0 206.5,771.6205 L405.5,771.6205 A0,0 0 0 0 405.5,771.6205 L405.5,756.31 L395.5,746.31 L310,746.31 L306,634.17 L302,746.31 L206.5,746.31 A0,0 0 0 0 206.5,746.31 " fill="#FEFFDD" style="stroke:#181818;stroke-width:0.5;"/><path d="M395.5,746.31 L395.5,756.31 L405.5,756.31 L395.5,746.31 " fill="#FEFFDD" style="stroke:#181818;stroke-width:0.5;"/><text fill="#000000" font-family="sans-serif" font-size="13" lengthAdjust="spacing" textLength="178" x="212.5" y="763.8784">frist og utfoert ikke p&#229;krevd</text></g><!--class MilepelStatusEnum--><g id="elem_MilepelStatusEnum"><rect codeLine="48" fill="#F1F1F1" height="80.9766" id="MilepelStatusEnum" rx="2.5" ry="2.5" style="stroke:#181818;stroke-width:0.5;" width="162" x="9" y="718.48"/><ellipse cx="24" cy="734.48" fill="#EB937F" rx="11" ry="11" style="stroke:#181818;stroke-width:1.0;"/><path d="M27.6143,740.98 L19.8945,740.98 L19.8945,728.5869 L27.6143,728.5869 L27.6143,730.7451 L22.3433,730.7451 L22.3433,733.418 L27.1162,733.418 L27.1162,735.5762 L22.3433,735.5762 L22.3433,738.8218 L27.6143,738.8218 Z " fill="#000000"/><text fill="#000000" font-family="sans-serif" font-size="14" lengthAdjust="spacing" textLength="130" x="38" y="739.771">MilepelStatusEnum</text><line style="stroke:#181818;stroke-width:0.5;" x1="10" x2="170" y1="750.48" y2="750.48"/><ellipse cx="20" cy="764.2241" fill="none" rx="3" ry="3" style="stroke:#038048;stroke-width:1.0;"/><text fill="#000000" font-family="sans-serif" font-size="14" lengthAdjust="spacing" textLength="36" x="29" y="768.0152">N&#229;dd</text><ellipse cx="20" cy="780.7124" fill="none" rx="3" ry="3" style="stroke:#038048;stroke-width:1.0;"/><text fill="#000000" font-family="sans-serif" font-size="14" lengthAdjust="spacing" textLength="55" x="29" y="784.5034">Planlagt</text><line style="stroke:#181818;stroke-width:0.5;" x1="10" x2="170" y1="791.4566" y2="791.4566"/></g><!--class HentSaksfaseResultat--><g id="elem_HentSaksfaseResultat"><rect codeLine="5" fill="#F1F1F1" height="64.4883" id="HentSaksfaseResultat" rx="2.5" ry="2.5" style="stroke:#181818;stroke-width:0.5;" width="178" x="365" y="7"/><ellipse cx="380" cy="23" fill="#ADD1B2" rx="11" ry="11" style="stroke:#181818;stroke-width:1.0;"/><path d="M382.4731,29.1431 Q381.8921,29.4419 381.2529,29.5913 Q380.6138,29.7407 379.9082,29.7407 Q377.4014,29.7407 376.0815,28.0889 Q374.7617,26.437 374.7617,23.3159 Q374.7617,20.1865 376.0815,18.5347 Q377.4014,16.8828 379.9082,16.8828 Q380.6138,16.8828 381.2612,17.0322 Q381.9087,17.1816 382.4731,17.4805 L382.4731,20.2031 Q381.8423,19.6221 381.2488,19.3523 Q380.6553,19.0825 380.0244,19.0825 Q378.6797,19.0825 377.9949,20.1492 Q377.3101,21.2158 377.3101,23.3159 Q377.3101,25.4077 377.9949,26.4744 Q378.6797,27.541 380.0244,27.541 Q380.6553,27.541 381.2488,27.2712 Q381.8423,27.0015 382.4731,26.4204 Z " fill="#000000"/><text fill="#000000" font-family="sans-serif" font-size="14" lengthAdjust="spacing" textLength="146" x="394" y="28.291">HentSaksfaseResultat</text><line style="stroke:#181818;stroke-width:0.5;" x1="366" x2="542" y1="39" y2="39"/><ellipse cx="376" cy="52.7441" fill="#000000" rx="3" ry="3" style="stroke:#000000;stroke-width:1.0;"/><text fill="#000000" font-family="sans-serif" font-size="14" lengthAdjust="spacing" textLength="67" x="385" y="56.5352">fase: Fase</text><line style="stroke:#181818;stroke-width:0.5;" x1="366" x2="542" y1="63.4883" y2="63.4883"/></g><!--link Dokument to Dokumenttype--><g id="link_Dokument_Dokumenttype"><path codeLine="16" d="M1733,319.77 C1733,368.43 1733,426.56 1733,465.6 " fill="none" id="Dokument-Dokumenttype" style="stroke:#181818;stroke-width:1.0;"/></g><!--link Dokument to ReferanseDokumentfil--><g id="link_Dokument_ReferanseDokumentfil"><path codeLine="17" d="M1666.39,319.86 C1651.33,341.62 1635.97,365.18 1623,387.88 C1563.44,492.15 1603.92,557.69 1511,633.74 C1419.9,708.31 1362.4,650.24 1253,693.74 C1236.46,700.32 1219.44,709.11 1203.89,718.07 " fill="none" id="Dokument-ReferanseDokumentfil" style="stroke:#181818;stroke-width:1.0;"/></g><!--link Fase to ReferanseJournalpost--><g id="link_Fase_ReferanseJournalpost"><path codeLine="15" d="M820.71,321.52 C876.82,352.72 926.26,381.46 930,387.88 C984.99,482.31 964.24,529.98 930,633.74 C923.02,654.9 917.9861,665.7056 904.7861,683.7456 " fill="none" id="Fase-to-ReferanseJournalpost" style="stroke:#181818;stroke-width:1.0;"/><polygon fill="#181818" points="897.7,693.43,904.4712,690.9499,904.7861,683.7456,898.0149,686.2258,897.7,693.43" style="stroke:#181818;stroke-width:1.0;"/></g><!--link Fase to Vedtak--><g id="link_Fase_Vedtak"><path codeLine="24" d="M820.86,321.83 C826.59,323.99 832.31,326.02 838,327.88 C1007.99,383.59 1070.75,319.37 1236,387.88 C1280.09,406.16 1323.23,438.71 1354.34,465.59 " fill="none" id="Fase-Vedtak" style="stroke:#181818;stroke-width:1.0;"/></g><!--link Fase to FaseStatusEnum--><g id="link_Fase_FaseStatusEnum"><path codeLine="25" d="M626.07,328.31 C613.62,373.43 599.4,425 589.3,461.61 " fill="none" id="Fase-FaseStatusEnum" style="stroke:#181818;stroke-width:1.0;"/></g><!--link Fase to Fasekategori--><g id="link_Fase_Fasekategori"><path codeLine="26" d="M820.99,319.97 C826.7,322.68 832.39,325.33 838,327.88 C904.84,358.35 929.57,349.18 992,387.88 C1026.62,409.34 1060.5,440.29 1085.54,465.64 " fill="none" id="Fase-Fasekategori" style="stroke:#181818;stroke-width:1.0;"/></g><!--link Fasekategori to GMN27--><g id="link_Fasekategori_GMN27"><path d="M1179.26,555.97 C1210.59,580.7 1251.67,611.03 1291,633.74 C1333.3,658.17 1381.31,680.85 1425.71,699.97 " fill="none" id="Fasekategori-GMN27" style="stroke:#181818;stroke-width:1.0;stroke-dasharray:7.0,7.0;"/></g><!--link Milepel to Milepeltype--><g id="link_Milepel_Milepeltype"><path codeLine="25" d="M418.83,634.17 C446.88,664.57 474.97,695.04 496.27,718.14 " fill="none" id="Milepel-Milepeltype" style="stroke:#181818;stroke-width:1.0;"/></g><!--link Milepel to ReferanseJournalpost--><g id="link_Milepel_ReferanseJournalpost"><path codeLine="37" d="M468.9,624.21 C474.95,627.53 480.99,630.72 487,633.74 C519.33,650.02 590.56,675.84 660.45,699.72 " fill="none" id="Milepel-ReferanseJournalpost" style="stroke:#181818;stroke-width:1.0;"/></g><!--link Milepel to ReferanseDokumentfil--><g id="link_Milepel_ReferanseDokumentfil"><path codeLine="38" d="M468.9,626.41 C474.91,629.07 480.95,631.53 487,633.74 C716.23,717.71 801.18,617.19 1033,693.74 C1050.74,699.6 1068.76,708.59 1084.93,718 " fill="none" id="Milepel-ReferanseDokumentfil" style="stroke:#181818;stroke-width:1.0;"/></g><!--link Milepel to MilepelStatusEnum--><g id="link_Milepel_MilepelStatusEnum"><path codeLine="43" d="M198.63,634.17 C171.95,664.57 145.22,695.04 124.95,718.14 " fill="none" id="Milepel-MilepelStatusEnum" style="stroke:#181818;stroke-width:1.0;"/></g><!--link ReferanseJournalpost to EksternNoekkel--><g id="link_ReferanseJournalpost_EksternNoekkel"><path codeLine="44" d="M751.33,824.48 C720.86,847.16 687.53,871.97 660.58,892.03 " fill="none" id="ReferanseJournalpost-EksternNoekkel" style="stroke:#181818;stroke-width:1.0;"/></g><!--link ReferanseJournalpost to SaksJournalpostnummer--><g id="link_ReferanseJournalpost_SaksJournalpostnummer"><path codeLine="45" d="M940.81,824.48 C972.09,844.11 1005.91,865.34 1035.17,883.7 " fill="none" id="ReferanseJournalpost-SaksJournalpostnummer" style="stroke:#181818;stroke-width:1.0;"/></g><!--link ReferanseJournalpost to Journalnummer--><g id="link_ReferanseJournalpost_Journalnummer"><path codeLine="46" d="M838,824.48 C838,847.16 838,871.97 838,892.03 " fill="none" id="ReferanseJournalpost-Journalnummer" style="stroke:#181818;stroke-width:1.0;"/></g><!--link HentSaksfaseResultat to Fase--><g id="link_HentSaksfaseResultat_Fase"><path codeLine="9" d="M487.31,71.79 C504.79,88.34 527.26,109.62 549.98,131.13 " fill="none" id="HentSaksfaseResultat-Fase" style="stroke:#181818;stroke-width:1.0;"/></g><!--link Fase to Dokument--><g id="link_Fase_Dokument"><path codeLine="11" d="M786.02,131.08 C808.26,118.91 831.82,108.35 855.5,101.49 C927.53,80.61 1458.47,80.61 1530.5,101.49 C1559.37,109.86 1577.7526,117.609 1604.0826,133.189 " fill="none" id="Fase-to-Dokument" style="stroke:#181818;stroke-width:1.0;"/><polygon fill="#181818" points="1614.41,139.3,1611.2833,132.802,1604.0826,133.189,1607.2093,139.687,1614.41,139.3" style="stroke:#181818;stroke-width:1.0;"/></g><!--link Fase to Milepel--><g id="link_Fase_Milepel"><path codeLine="12" d="M531.64,328.31 C507.89,347.41 482.71,367.67 458.11,387.46 " fill="none" id="Fase-Milepel" style="stroke:#181818;stroke-width:1.0;"/></g><!--SRC=[fOyn3i8m34Ltdy9TAyKLApD2B2nmWgXrK1IdhUg61N5t4feD5eI7B_dRVhORF_QI1aRgYBfneg3aV1QrGPrLNkY-8ySYh3HC8KKUrwuNgpfuUrjif3b1ymkbvFyHeXUUMJuWy3Rmb4-yrh4BQvBLhlW0pD4MRu_7hF04-Dffp5Q7ecXQFDItgs7mlEs75m00]--></g></svg>