<svg xmlns="http://www.w3.org/2000/svg" xmlns:xlink="http://www.w3.org/1999/xlink" contentStyleType="text/css" height="955px" preserveAspectRatio="none" style="width:1928px;height:955px;background:#FFFFFF;" version="1.1" viewBox="0 0 1928 955" width="1928px" zoomAndPan="magnify"><defs/><g><!--class ReferanseDokumentfil--><g id="elem_ReferanseDokumentfil"><rect codeLine="38" fill="#F1F1F1" height="80.9766" id="ReferanseDokumentfil" rx="2.5" ry="2.5" style="stroke:#181818;stroke-width:0.5;" width="184" x="1518" y="685.5"/><ellipse cx="1533" cy="701.5" fill="#ADD1B2" rx="11" ry="11" style="stroke:#181818;stroke-width:1.0;"/><path d="M1535.4731,707.6431 Q1534.8921,707.9419 1534.2529,708.0913 Q1533.6138,708.2407 1532.9082,708.2407 Q1530.4014,708.2407 1529.0815,706.5889 Q1527.7617,704.937 1527.7617,701.8159 Q1527.7617,698.6865 1529.0815,697.0347 Q1530.4014,695.3828 1532.9082,695.3828 Q1533.6138,695.3828 1534.2612,695.5322 Q1534.9087,695.6816 1535.4731,695.9805 L1535.4731,698.7031 Q1534.8423,698.1221 1534.2488,697.8523 Q1533.6553,697.5825 1533.0244,697.5825 Q1531.6797,697.5825 1530.9949,698.6492 Q1530.3101,699.7158 1530.3101,701.8159 Q1530.3101,703.9077 1530.9949,704.9744 Q1531.6797,706.041 1533.0244,706.041 Q1533.6553,706.041 1534.2488,705.7712 Q1534.8423,705.5015 1535.4731,704.9204 Z " fill="#000000"/><text fill="#000000" font-family="sans-serif" font-size="14" lengthAdjust="spacing" textLength="152" x="1547" y="706.791">ReferanseDokumentfil</text><line style="stroke:#181818;stroke-width:0.5;" x1="1519" x2="1701" y1="717.5" y2="717.5"/><ellipse cx="1529" cy="731.2441" fill="none" rx="3" ry="3" style="stroke:#038048;stroke-width:1.0;"/><text fill="#000000" font-family="sans-serif" font-size="14" lengthAdjust="spacing" textLength="61" x="1538" y="735.0352">id: string</text><ellipse cx="1529" cy="747.7324" fill="none" rx="3" ry="3" style="stroke:#038048;stroke-width:1.0;"/><text fill="#000000" font-family="sans-serif" font-size="14" lengthAdjust="spacing" textLength="67" x="1538" y="751.5234">url: string</text><line style="stroke:#181818;stroke-width:0.5;" x1="1519" x2="1701" y1="758.4766" y2="758.4766"/></g><!--class Dokument--><g id="elem_Dokument"><rect codeLine="3" fill="#F1F1F1" height="179.9063" id="Dokument" rx="2.5" ry="2.5" style="stroke:#181818;stroke-width:0.5;" width="335" x="1437.5" y="387.88"/><ellipse cx="1565.25" cy="403.88" fill="#ADD1B2" rx="11" ry="11" style="stroke:#181818;stroke-width:1.0;"/><path d="M1567.7231,410.0231 Q1567.1421,410.3219 1566.5029,410.4713 Q1565.8638,410.6207 1565.1582,410.6207 Q1562.6514,410.6207 1561.3315,408.9689 Q1560.0117,407.317 1560.0117,404.1959 Q1560.0117,401.0665 1561.3315,399.4147 Q1562.6514,397.7628 1565.1582,397.7628 Q1565.8638,397.7628 1566.5112,397.9122 Q1567.1587,398.0616 1567.7231,398.3605 L1567.7231,401.0831 Q1567.0923,400.5021 1566.4988,400.2323 Q1565.9053,399.9625 1565.2744,399.9625 Q1563.9297,399.9625 1563.2449,401.0292 Q1562.5601,402.0958 1562.5601,404.1959 Q1562.5601,406.2877 1563.2449,407.3544 Q1563.9297,408.421 1565.2744,408.421 Q1565.9053,408.421 1566.4988,408.1512 Q1567.0923,407.8815 1567.7231,407.3004 Z " fill="#000000"/><text fill="#000000" font-family="sans-serif" font-size="14" lengthAdjust="spacing" textLength="71" x="1585.75" y="409.171">Dokument</text><line style="stroke:#181818;stroke-width:0.5;" x1="1438.5" x2="1771.5" y1="419.88" y2="419.88"/><ellipse cx="1448.5" cy="433.6241" fill="none" rx="3" ry="3" style="stroke:#038048;stroke-width:1.0;"/><text fill="#000000" font-family="sans-serif" font-size="14" lengthAdjust="spacing" textLength="61" x="1457.5" y="437.4152">id: string</text><ellipse cx="1448.5" cy="450.1124" fill="none" rx="3" ry="3" style="stroke:#038048;stroke-width:1.0;"/><text fill="#000000" font-family="sans-serif" font-size="14" lengthAdjust="spacing" textLength="79" x="1457.5" y="453.9034">tittel: string</text><ellipse cx="1448.5" cy="466.6007" fill="none" rx="3" ry="3" style="stroke:#038048;stroke-width:1.0;"/><text fill="#000000" font-family="sans-serif" font-size="14" lengthAdjust="spacing" textLength="94" x="1457.5" y="470.3917">filnavn: string</text><ellipse cx="1448.5" cy="483.089" fill="none" rx="3" ry="3" style="stroke:#038048;stroke-width:1.0;"/><text fill="#000000" font-family="sans-serif" font-size="14" lengthAdjust="spacing" textLength="207" x="1457.5" y="486.88">dokumenttype: Dokumenttype</text><ellipse cx="1448.5" cy="499.5773" fill="none" rx="3" ry="3" style="stroke:#038048;stroke-width:1.0;"/><text fill="#000000" font-family="sans-serif" font-size="14" lengthAdjust="spacing" textLength="309" x="1457.5" y="503.3683">referanseDokumentfil: ReferanseDokumentfil</text><ellipse cx="1448.5" cy="516.0655" fill="none" rx="3" ry="3" style="stroke:#038048;stroke-width:1.0;"/><text fill="#000000" font-family="sans-serif" font-size="14" lengthAdjust="spacing" textLength="115" x="1457.5" y="519.8566">mimetype: string</text><ellipse cx="1448.5" cy="532.5538" fill="none" rx="3" ry="3" style="stroke:#038048;stroke-width:1.0;"/><text fill="#000000" font-family="sans-serif" font-size="14" lengthAdjust="spacing" textLength="146" x="1457.5" y="536.3448">dokumentsdato: date</text><ellipse cx="1448.5" cy="549.0421" fill="none" rx="3" ry="3" style="stroke:#038048;stroke-width:1.0;"/><text fill="#000000" font-family="sans-serif" font-size="14" lengthAdjust="spacing" textLength="114" x="1457.5" y="552.8331">arkivnavn: string</text><line style="stroke:#181818;stroke-width:0.5;" x1="1438.5" x2="1771.5" y1="559.7863" y2="559.7863"/></g><g id="elem_GMN4"><path d="M1499.5,200.54 L1499.5,225.8505 A0,0 0 0 0 1499.5,225.8505 L1601,225.8505 L1605,387.66 L1609,225.8505 L1710.5,225.8505 A0,0 0 0 0 1710.5,225.8505 L1710.5,210.54 L1700.5,200.54 L1499.5,200.54 A0,0 0 0 0 1499.5,200.54 " fill="#FEFFDD" style="stroke:#181818;stroke-width:0.5;"/><path d="M1700.5,200.54 L1700.5,210.54 L1710.5,210.54 L1700.5,200.54 " fill="#FEFFDD" style="stroke:#181818;stroke-width:0.5;"/><text fill="#000000" font-family="sans-serif" font-size="13" lengthAdjust="spacing" textLength="190" x="1505.5" y="218.1084">Hentet definisjon fra Fiks Plan</text></g><!--class Dokumenttype--><g id="elem_Dokumenttype"><rect codeLine="19" fill="#F1F1F1" height="89.5977" id="Dokumenttype" rx="2.5" ry="2.5" style="stroke:#181818;stroke-width:0.5;" width="184" x="1737" y="681.19"/><ellipse cx="1775.4" cy="701.5005" fill="#ADD1B2" rx="11" ry="11" style="stroke:#181818;stroke-width:1.0;"/><path d="M1777.8731,707.6436 Q1777.2921,707.9424 1776.6529,708.0919 Q1776.0138,708.2413 1775.3082,708.2413 Q1772.8014,708.2413 1771.4815,706.5894 Q1770.1617,704.9376 1770.1617,701.8165 Q1770.1617,698.6871 1771.4815,697.0352 Q1772.8014,695.3834 1775.3082,695.3834 Q1776.0138,695.3834 1776.6612,695.5328 Q1777.3087,695.6822 1777.8731,695.981 L1777.8731,698.7037 Q1777.2423,698.1226 1776.6488,697.8528 Q1776.0553,697.5831 1775.4244,697.5831 Q1774.0797,697.5831 1773.3949,698.6497 Q1772.7101,699.7164 1772.7101,701.8165 Q1772.7101,703.9083 1773.3949,704.9749 Q1774.0797,706.0416 1775.4244,706.0416 Q1776.0553,706.0416 1776.6488,705.7718 Q1777.2423,705.502 1777.8731,704.921 Z " fill="#000000"/><text fill="#000000" font-family="sans-serif" font-size="12" font-style="italic" lengthAdjust="spacing" textLength="42" x="1823.6" y="697.7916">&#171;Kode&#187;</text><text fill="#000000" font-family="sans-serif" font-size="14" lengthAdjust="spacing" textLength="100" x="1794.6" y="713.858">Dokumenttype</text><line style="stroke:#181818;stroke-width:0.5;" x1="1738" x2="1920" y1="721.8111" y2="721.8111"/><ellipse cx="1748" cy="735.5552" fill="none" rx="3" ry="3" style="stroke:#038048;stroke-width:1.0;"/><text fill="#000000" font-family="sans-serif" font-size="14" lengthAdjust="spacing" textLength="116" x="1757" y="739.3462">kodeverdi: string</text><ellipse cx="1748" cy="752.0435" fill="none" rx="3" ry="3" style="stroke:#038048;stroke-width:1.0;"/><text fill="#000000" font-family="sans-serif" font-size="14" lengthAdjust="spacing" textLength="158" x="1757" y="755.8345">kodebeskrivelse: string</text><line style="stroke:#181818;stroke-width:0.5;" x1="1738" x2="1920" y1="762.7877" y2="762.7877"/></g><!--class Fase--><g id="elem_Fase"><rect codeLine="2" fill="#F1F1F1" height="163.418" id="Fase" rx="2.5" ry="2.5" style="stroke:#181818;stroke-width:0.5;" width="199" x="691.5" y="131.49"/><ellipse cx="771.25" cy="147.49" fill="#ADD1B2" rx="11" ry="11" style="stroke:#181818;stroke-width:1.0;"/><path d="M773.7231,153.6331 Q773.1421,153.9319 772.5029,154.0813 Q771.8638,154.2307 771.1582,154.2307 Q768.6514,154.2307 767.3315,152.5789 Q766.0117,150.927 766.0117,147.8059 Q766.0117,144.6765 767.3315,143.0247 Q768.6514,141.3728 771.1582,141.3728 Q771.8638,141.3728 772.5112,141.5222 Q773.1587,141.6716 773.7231,141.9705 L773.7231,144.6931 Q773.0923,144.1121 772.4988,143.8423 Q771.9053,143.5725 771.2744,143.5725 Q769.9297,143.5725 769.2449,144.6392 Q768.5601,145.7058 768.5601,147.8059 Q768.5601,149.8977 769.2449,150.9644 Q769.9297,152.031 771.2744,152.031 Q771.9053,152.031 772.4988,151.7612 Q773.0923,151.4915 773.7231,150.9104 Z " fill="#000000"/><text fill="#000000" font-family="sans-serif" font-size="14" lengthAdjust="spacing" textLength="31" x="791.75" y="152.781">Fase</text><line style="stroke:#181818;stroke-width:0.5;" x1="692.5" x2="889.5" y1="163.49" y2="163.49"/><ellipse cx="702.5" cy="177.2341" fill="none" rx="3" ry="3" style="stroke:#038048;stroke-width:1.0;"/><text fill="#000000" font-family="sans-serif" font-size="14" lengthAdjust="spacing" textLength="109" x="711.5" y="181.0252">fasenavn: string</text><ellipse cx="702.5" cy="193.7224" fill="none" rx="3" ry="3" style="stroke:#038048;stroke-width:1.0;"/><text fill="#000000" font-family="sans-serif" font-size="14" lengthAdjust="spacing" textLength="89" x="711.5" y="197.5134">faseid: string</text><ellipse cx="702.5" cy="210.2107" fill="none" rx="3" ry="3" style="stroke:#038048;stroke-width:1.0;"/><text fill="#000000" font-family="sans-serif" font-size="14" lengthAdjust="spacing" textLength="153" x="711.5" y="214.0017">kategori: Fasekategori</text><ellipse cx="702.5" cy="226.699" fill="none" rx="3" ry="3" style="stroke:#038048;stroke-width:1.0;"/><text fill="#000000" font-family="sans-serif" font-size="14" lengthAdjust="spacing" textLength="131" x="711.5" y="230.49">milepeler: Milepel[]</text><ellipse cx="702.5" cy="243.1873" fill="none" rx="3" ry="3" style="stroke:#038048;stroke-width:1.0;"/><text fill="#000000" font-family="sans-serif" font-size="14" lengthAdjust="spacing" textLength="161" x="711.5" y="246.9783">status: FaseStatusEnum</text><ellipse cx="702.5" cy="259.6755" fill="none" rx="3" ry="3" style="stroke:#038048;stroke-width:1.0;"/><text fill="#000000" font-family="sans-serif" font-size="14" lengthAdjust="spacing" textLength="100" x="711.5" y="263.4666">vedtak: Vedtak</text><ellipse cx="702.5" cy="276.1638" fill="none" rx="3" ry="3" style="stroke:#038048;stroke-width:1.0;"/><text fill="#000000" font-family="sans-serif" font-size="14" lengthAdjust="spacing" textLength="173" x="711.5" y="279.9548">dokumenter: Dokument[]</text><line style="stroke:#181818;stroke-width:0.5;" x1="692.5" x2="889.5" y1="286.908" y2="286.908"/></g><g id="elem_GMN11"><path d="M320,18.93 L320,59.5511 A0,0 0 0 0 320,59.5511 L611.71,59.5511 L697.69,131.16 L619.71,59.5511 L866,59.5511 A0,0 0 0 0 866,59.5511 L866,28.93 L856,18.93 L320,18.93 A0,0 0 0 0 320,18.93 " fill="#FEFFDD" style="stroke:#181818;stroke-width:0.5;"/><path d="M856,18.93 L856,28.93 L866,28.93 L856,18.93 " fill="#FEFFDD" style="stroke:#181818;stroke-width:0.5;"/><text fill="#000000" font-family="sans-serif" font-size="13" lengthAdjust="spacing" textLength="369" x="326" y="36.4984">En fase er i hovedsak det som hender mellom to milepeler.</text><text fill="#000000" font-family="sans-serif" font-size="13" lengthAdjust="spacing" textLength="525" x="326" y="51.8089">Interne faser sendes ikke ut ved denne protokollen. Vi kutter derfor ut Global flagg.</text></g><path d="M925.5,187.88 L925.5,204.1905 L800.5,192.2224 L925.5,212.1905 L925.5,228.5011 A0,0 0 0 0 925.5,228.5011 L1446.5,228.5011 A0,0 0 0 0 1446.5,228.5011 L1446.5,197.88 L1436.5,187.88 L925.5,187.88 A0,0 0 0 0 925.5,187.88 " fill="#FEFFDD" style="stroke:#181818;stroke-width:0.5;"/><path d="M1436.5,187.88 L1436.5,197.88 L1446.5,197.88 L1436.5,187.88 " fill="#FEFFDD" style="stroke:#181818;stroke-width:0.5;"/><text fill="#000000" font-family="sans-serif" font-size="13" lengthAdjust="spacing" textLength="500" x="931.5" y="205.4484">Faseid brukes alene (ikke sammen med saksnummer) for &#229; hente en enkelt fase</text><text fill="#000000" font-family="sans-serif" font-size="13" lengthAdjust="spacing" textLength="165" x="931.5" y="220.7589">Den m&#229; dermed v&#230;re unik</text><!--class Vedtak--><g id="elem_Vedtak"><rect codeLine="31" fill="#F1F1F1" height="89.5977" id="Vedtak" rx="2.5" ry="2.5" style="stroke:#181818;stroke-width:0.5;" width="184" x="7" y="433.04"/><ellipse cx="71.25" cy="453.3505" fill="#ADD1B2" rx="11" ry="11" style="stroke:#181818;stroke-width:1.0;"/><path d="M73.7231,459.4936 Q73.1421,459.7924 72.5029,459.9419 Q71.8638,460.0913 71.1582,460.0913 Q68.6514,460.0913 67.3315,458.4394 Q66.0117,456.7876 66.0117,453.6665 Q66.0117,450.5371 67.3315,448.8852 Q68.6514,447.2334 71.1582,447.2334 Q71.8638,447.2334 72.5112,447.3828 Q73.1587,447.5322 73.7231,447.831 L73.7231,450.5537 Q73.0923,449.9726 72.4988,449.7028 Q71.9053,449.4331 71.2744,449.4331 Q69.9297,449.4331 69.2449,450.4997 Q68.5601,451.5664 68.5601,453.6665 Q68.5601,455.7583 69.2449,456.8249 Q69.9297,457.8916 71.2744,457.8916 Q71.9053,457.8916 72.4988,457.6218 Q73.0923,457.352 73.7231,456.771 Z " fill="#000000"/><text fill="#000000" font-family="sans-serif" font-size="12" font-style="italic" lengthAdjust="spacing" textLength="42" x="94.25" y="449.6416">&#171;Kode&#187;</text><text fill="#000000" font-family="sans-serif" font-size="14" lengthAdjust="spacing" textLength="47" x="91.75" y="465.708">Vedtak</text><line style="stroke:#181818;stroke-width:0.5;" x1="8" x2="190" y1="473.6611" y2="473.6611"/><ellipse cx="18" cy="487.4052" fill="none" rx="3" ry="3" style="stroke:#038048;stroke-width:1.0;"/><text fill="#000000" font-family="sans-serif" font-size="14" lengthAdjust="spacing" textLength="116" x="27" y="491.1962">kodeverdi: string</text><ellipse cx="18" cy="503.8935" fill="none" rx="3" ry="3" style="stroke:#038048;stroke-width:1.0;"/><text fill="#000000" font-family="sans-serif" font-size="14" lengthAdjust="spacing" textLength="158" x="27" y="507.6845">kodebeskrivelse: string</text><line style="stroke:#181818;stroke-width:0.5;" x1="8" x2="190" y1="514.6377" y2="514.6377"/></g><!--class FaseStatusEnum--><g id="elem_FaseStatusEnum"><rect codeLine="23" fill="#F1F1F1" height="97.4648" id="FaseStatusEnum" rx="2.5" ry="2.5" style="stroke:#181818;stroke-width:0.5;" width="144" x="719" y="429.1"/><ellipse cx="734" cy="445.1" fill="#EB937F" rx="11" ry="11" style="stroke:#181818;stroke-width:1.0;"/><path d="M737.6143,451.6 L729.8945,451.6 L729.8945,439.2069 L737.6143,439.2069 L737.6143,441.3651 L732.3433,441.3651 L732.3433,444.038 L737.1162,444.038 L737.1162,446.1962 L732.3433,446.1962 L732.3433,449.4418 L737.6143,449.4418 Z " fill="#000000"/><text fill="#000000" font-family="sans-serif" font-size="14" lengthAdjust="spacing" textLength="112" x="748" y="450.391">FaseStatusEnum</text><line style="stroke:#181818;stroke-width:0.5;" x1="720" x2="862" y1="461.1" y2="461.1"/><ellipse cx="730" cy="474.8441" fill="none" rx="3" ry="3" style="stroke:#038048;stroke-width:1.0;"/><text fill="#000000" font-family="sans-serif" font-size="14" lengthAdjust="spacing" textLength="55" x="739" y="478.6352">Planlagt</text><ellipse cx="730" cy="491.3324" fill="none" rx="3" ry="3" style="stroke:#038048;stroke-width:1.0;"/><text fill="#000000" font-family="sans-serif" font-size="14" lengthAdjust="spacing" textLength="88" x="739" y="495.1234">UnderArbeid</text><ellipse cx="730" cy="507.8207" fill="none" rx="3" ry="3" style="stroke:#038048;stroke-width:1.0;"/><text fill="#000000" font-family="sans-serif" font-size="14" lengthAdjust="spacing" textLength="48" x="739" y="511.6117">Utfoert</text><line style="stroke:#181818;stroke-width:0.5;" x1="720" x2="862" y1="518.5648" y2="518.5648"/></g><!--class Fasekategori--><g id="elem_Fasekategori"><rect codeLine="36" fill="#F1F1F1" height="89.5977" id="Fasekategori" rx="2.5" ry="2.5" style="stroke:#181818;stroke-width:0.5;" width="184" x="226" y="433.04"/><ellipse cx="269.8" cy="453.3505" fill="#ADD1B2" rx="11" ry="11" style="stroke:#181818;stroke-width:1.0;"/><path d="M272.2731,459.4936 Q271.6921,459.7924 271.0529,459.9419 Q270.4138,460.0913 269.7082,460.0913 Q267.2014,460.0913 265.8815,458.4394 Q264.5617,456.7876 264.5617,453.6665 Q264.5617,450.5371 265.8815,448.8852 Q267.2014,447.2334 269.7082,447.2334 Q270.4138,447.2334 271.0612,447.3828 Q271.7087,447.5322 272.2731,447.831 L272.2731,450.5537 Q271.6423,449.9726 271.0488,449.7028 Q270.4553,449.4331 269.8244,449.4331 Q268.4797,449.4331 267.7949,450.4997 Q267.1101,451.5664 267.1101,453.6665 Q267.1101,455.7583 267.7949,456.8249 Q268.4797,457.8916 269.8244,457.8916 Q270.4553,457.8916 271.0488,457.6218 Q271.6423,457.352 272.2731,456.771 Z " fill="#000000"/><text fill="#000000" font-family="sans-serif" font-size="12" font-style="italic" lengthAdjust="spacing" textLength="42" x="313.2" y="449.6416">&#171;Kode&#187;</text><text fill="#000000" font-family="sans-serif" font-size="14" lengthAdjust="spacing" textLength="88" x="290.2" y="465.708">Fasekategori</text><line style="stroke:#181818;stroke-width:0.5;" x1="227" x2="409" y1="473.6611" y2="473.6611"/><ellipse cx="237" cy="487.4052" fill="none" rx="3" ry="3" style="stroke:#038048;stroke-width:1.0;"/><text fill="#000000" font-family="sans-serif" font-size="14" lengthAdjust="spacing" textLength="116" x="246" y="491.1962">kodeverdi: string</text><ellipse cx="237" cy="503.8935" fill="none" rx="3" ry="3" style="stroke:#038048;stroke-width:1.0;"/><text fill="#000000" font-family="sans-serif" font-size="14" lengthAdjust="spacing" textLength="158" x="246" y="507.6845">kodebeskrivelse: string</text><line style="stroke:#181818;stroke-width:0.5;" x1="227" x2="409" y1="514.6377" y2="514.6377"/></g><g id="elem_GMN22"><path d="M40,169.92 L40,256.4727 A0,0 0 0 0 40,256.4727 L95,256.4727 L99,432.65 L103,256.4727 L158,256.4727 A0,0 0 0 0 158,256.4727 L158,179.92 L148,169.92 L40,169.92 A0,0 0 0 0 40,169.92 " fill="#FEFFDD" style="stroke:#181818;stroke-width:0.5;"/><path d="M148,169.92 L148,179.92 L158,179.92 L148,169.92 " fill="#FEFFDD" style="stroke:#181818;stroke-width:0.5;"/><text fill="#000000" font-family="sans-serif" font-size="13" lengthAdjust="spacing" textLength="69" x="46" y="187.4884">Eksempler:</text><text fill="#000000" font-family="sans-serif" font-size="13" lengthAdjust="spacing" textLength="56" x="46" y="202.7989">godkjent</text><text fill="#000000" font-family="sans-serif" font-size="13" lengthAdjust="spacing" textLength="97" x="46" y="218.1095">delvis godkjent</text><text fill="#000000" font-family="sans-serif" font-size="13" lengthAdjust="spacing" textLength="42" x="46" y="233.42">avsl&#229;tt</text><text fill="#000000" font-family="sans-serif" font-size="13" lengthAdjust="spacing" textLength="37" x="46" y="248.7305">avvist</text></g><g id="elem_GMN25"><path d="M102,675.05 L102,776.9133 A0,0 0 0 0 102,776.9133 L428,776.9133 A0,0 0 0 0 428,776.9133 L428,685.05 L418,675.05 L279.83,675.05 L308.46,523.13 L271.83,675.05 L102,675.05 A0,0 0 0 0 102,675.05 " fill="#FEFFDD" style="stroke:#181818;stroke-width:0.5;"/><path d="M418,675.05 L418,685.05 L428,685.05 L418,675.05 " fill="#FEFFDD" style="stroke:#181818;stroke-width:0.5;"/><text fill="#000000" font-family="sans-serif" font-size="13" lengthAdjust="spacing" textLength="305" x="108" y="692.6184">Se gjerne Byggesaksbehandling::Prosesskategori</text><text fill="#000000" font-family="sans-serif" font-size="13" lengthAdjust="spacing" textLength="45" x="112" y="707.9289">fra NPS</text><text fill="#000000" font-family="sans-serif" font-size="13" lengthAdjust="spacing" textLength="210" x="108" y="723.2395">Vi m&#229; f&#229; avklart denne kodelisten</text><text fill="#000000" font-family="sans-serif" font-size="13" lengthAdjust="spacing" textLength="69" x="108" y="738.55">Eksempler:</text><text fill="#000000" font-family="sans-serif" font-size="13" lengthAdjust="spacing" textLength="34" x="108" y="753.8605">Klage</text><text fill="#000000" font-family="sans-serif" font-size="13" lengthAdjust="spacing" textLength="43" x="108" y="769.1711">H&#248;ring</text></g><!--class EksternNoekkel--><g id="elem_EksternNoekkel"><rect codeLine="2" fill="#F1F1F1" height="80.9766" id="EksternNoekkel" rx="2.5" ry="2.5" style="stroke:#181818;stroke-width:0.5;" width="143" x="564.5" y="859.45"/><ellipse cx="581.75" cy="875.45" fill="#ADD1B2" rx="11" ry="11" style="stroke:#181818;stroke-width:1.0;"/><path d="M584.2231,881.5931 Q583.6421,881.8919 583.0029,882.0413 Q582.3638,882.1907 581.6582,882.1907 Q579.1514,882.1907 577.8315,880.5389 Q576.5117,878.887 576.5117,875.7659 Q576.5117,872.6365 577.8315,870.9847 Q579.1514,869.3328 581.6582,869.3328 Q582.3638,869.3328 583.0112,869.4822 Q583.6587,869.6316 584.2231,869.9305 L584.2231,872.6531 Q583.5923,872.0721 582.9988,871.8023 Q582.4053,871.5325 581.7744,871.5325 Q580.4297,871.5325 579.7449,872.5992 Q579.0601,873.6658 579.0601,875.7659 Q579.0601,877.8577 579.7449,878.9244 Q580.4297,879.991 581.7744,879.991 Q582.4053,879.991 582.9988,879.7212 Q583.5923,879.4515 584.2231,878.8704 Z " fill="#000000"/><text fill="#000000" font-family="sans-serif" font-size="14" lengthAdjust="spacing" textLength="106" x="596.25" y="880.741">EksternNoekkel</text><line style="stroke:#181818;stroke-width:0.5;" x1="565.5" x2="706.5" y1="891.45" y2="891.45"/><ellipse cx="575.5" cy="905.1941" fill="none" rx="3" ry="3" style="stroke:#038048;stroke-width:1.0;"/><text fill="#000000" font-family="sans-serif" font-size="14" lengthAdjust="spacing" textLength="117" x="584.5" y="908.9852">fagsystem: string</text><ellipse cx="575.5" cy="921.6824" fill="none" rx="3" ry="3" style="stroke:#038048;stroke-width:1.0;"/><text fill="#000000" font-family="sans-serif" font-size="14" lengthAdjust="spacing" textLength="102" x="584.5" y="925.4734">noekkel: string</text><line style="stroke:#181818;stroke-width:0.5;" x1="565.5" x2="706.5" y1="932.4266" y2="932.4266"/></g><!--class Journalnummer--><g id="elem_Journalnummer"><rect codeLine="2" fill="#F1F1F1" height="80.9766" id="Journalnummer" rx="2.5" ry="2.5" style="stroke:#181818;stroke-width:0.5;" width="249" x="742.5" y="859.45"/><ellipse cx="809.25" cy="875.45" fill="#ADD1B2" rx="11" ry="11" style="stroke:#181818;stroke-width:1.0;"/><path d="M811.7231,881.5931 Q811.1421,881.8919 810.5029,882.0413 Q809.8638,882.1907 809.1582,882.1907 Q806.6514,882.1907 805.3315,880.5389 Q804.0117,878.887 804.0117,875.7659 Q804.0117,872.6365 805.3315,870.9847 Q806.6514,869.3328 809.1582,869.3328 Q809.8638,869.3328 810.5112,869.4822 Q811.1587,869.6316 811.7231,869.9305 L811.7231,872.6531 Q811.0923,872.0721 810.4988,871.8023 Q809.9053,871.5325 809.2744,871.5325 Q807.9297,871.5325 807.2449,872.5992 Q806.5601,873.6658 806.5601,875.7659 Q806.5601,877.8577 807.2449,878.9244 Q807.9297,879.991 809.2744,879.991 Q809.9053,879.991 810.4988,879.7212 Q811.0923,879.4515 811.7231,878.8704 Z " fill="#000000"/><text fill="#000000" font-family="sans-serif" font-size="14" lengthAdjust="spacing" textLength="107" x="829.75" y="880.741">Journalnummer</text><line style="stroke:#181818;stroke-width:0.5;" x1="743.5" x2="990.5" y1="891.45" y2="891.45"/><ellipse cx="753.5" cy="905.1941" fill="none" rx="3" ry="3" style="stroke:#038048;stroke-width:1.0;"/><text fill="#000000" font-family="sans-serif" font-size="14" lengthAdjust="spacing" textLength="169" x="762.5" y="908.9852">journalnummer: number</text><ellipse cx="753.5" cy="921.6824" fill="none" rx="3" ry="3" style="stroke:#038048;stroke-width:1.0;"/><text fill="#000000" font-family="sans-serif" font-size="14" lengthAdjust="spacing" textLength="223" x="762.5" y="925.4734">journalsekvensnummer: number</text><line style="stroke:#181818;stroke-width:0.5;" x1="743.5" x2="990.5" y1="932.4266" y2="932.4266"/></g><!--class ReferanseJournalpost--><g id="elem_ReferanseJournalpost"><rect codeLine="2" fill="#F1F1F1" height="130.4414" id="ReferanseJournalpost" rx="2.5" ry="2.5" style="stroke:#181818;stroke-width:0.5;" width="369" x="682.5" y="660.76"/><ellipse cx="789.25" cy="676.76" fill="#ADD1B2" rx="11" ry="11" style="stroke:#181818;stroke-width:1.0;"/><path d="M791.7231,682.9031 Q791.1421,683.2019 790.5029,683.3513 Q789.8638,683.5007 789.1582,683.5007 Q786.6514,683.5007 785.3315,681.8489 Q784.0117,680.197 784.0117,677.0759 Q784.0117,673.9465 785.3315,672.2947 Q786.6514,670.6428 789.1582,670.6428 Q789.8638,670.6428 790.5112,670.7922 Q791.1587,670.9416 791.7231,671.2405 L791.7231,673.9631 Q791.0923,673.3821 790.4988,673.1123 Q789.9053,672.8425 789.2744,672.8425 Q787.9297,672.8425 787.2449,673.9092 Q786.5601,674.9758 786.5601,677.0759 Q786.5601,679.1677 787.2449,680.2344 Q787.9297,681.301 789.2744,681.301 Q789.9053,681.301 790.4988,681.0312 Q791.0923,680.7615 791.7231,680.1804 Z " fill="#000000"/><text fill="#000000" font-family="sans-serif" font-size="14" lengthAdjust="spacing" textLength="147" x="809.75" y="682.051">ReferanseJournalpost</text><line style="stroke:#181818;stroke-width:0.5;" x1="683.5" x2="1050.5" y1="692.76" y2="692.76"/><ellipse cx="693.5" cy="706.5041" fill="none" rx="3" ry="3" style="stroke:#038048;stroke-width:1.0;"/><text fill="#000000" font-family="sans-serif" font-size="14" lengthAdjust="spacing" textLength="108" x="702.5" y="710.2952">systemId: string</text><ellipse cx="693.5" cy="722.9924" fill="none" rx="3" ry="3" style="stroke:#038048;stroke-width:1.0;"/><text fill="#000000" font-family="sans-serif" font-size="14" lengthAdjust="spacing" textLength="150" x="702.5" y="726.7834">registreringsID: string</text><ellipse cx="693.5" cy="739.4807" fill="none" rx="3" ry="3" style="stroke:#038048;stroke-width:1.0;"/><text fill="#000000" font-family="sans-serif" font-size="14" lengthAdjust="spacing" textLength="222" x="702.5" y="743.2717">journalnummer: Journalnummer</text><ellipse cx="693.5" cy="755.969" fill="none" rx="3" ry="3" style="stroke:#038048;stroke-width:1.0;"/><text fill="#000000" font-family="sans-serif" font-size="14" lengthAdjust="spacing" textLength="343" x="702.5" y="759.76">saksJournalpostnummer: SaksJournalpostnummer</text><ellipse cx="693.5" cy="772.4573" fill="none" rx="3" ry="3" style="stroke:#038048;stroke-width:1.0;"/><text fill="#000000" font-family="sans-serif" font-size="14" lengthAdjust="spacing" textLength="285" x="702.5" y="776.2483">referanseEksternNoekkel: EksternNoekkel</text><line style="stroke:#181818;stroke-width:0.5;" x1="683.5" x2="1050.5" y1="783.2014" y2="783.2014"/></g><!--class SaksJournalpostnummer--><g id="elem_SaksJournalpostnummer"><rect codeLine="2" fill="#F1F1F1" height="97.4648" id="SaksJournalpostnummer" rx="2.5" ry="2.5" style="stroke:#181818;stroke-width:0.5;" width="230" x="1026" y="851.21"/><ellipse cx="1054.5" cy="867.21" fill="#ADD1B2" rx="11" ry="11" style="stroke:#181818;stroke-width:1.0;"/><path d="M1056.9731,873.3531 Q1056.3921,873.6519 1055.7529,873.8013 Q1055.1138,873.9507 1054.4082,873.9507 Q1051.9014,873.9507 1050.5815,872.2989 Q1049.2617,870.647 1049.2617,867.5259 Q1049.2617,864.3965 1050.5815,862.7447 Q1051.9014,861.0928 1054.4082,861.0928 Q1055.1138,861.0928 1055.7612,861.2422 Q1056.4087,861.3916 1056.9731,861.6905 L1056.9731,864.4131 Q1056.3423,863.8321 1055.7488,863.5623 Q1055.1553,863.2925 1054.5244,863.2925 Q1053.1797,863.2925 1052.4949,864.3592 Q1051.8101,865.4258 1051.8101,867.5259 Q1051.8101,869.6177 1052.4949,870.6844 Q1053.1797,871.751 1054.5244,871.751 Q1055.1553,871.751 1055.7488,871.4812 Q1056.3423,871.2115 1056.9731,870.6304 Z " fill="#000000"/><text fill="#000000" font-family="sans-serif" font-size="14" lengthAdjust="spacing" textLength="168" x="1071.5" y="872.501">SaksJournalpostnummer</text><line style="stroke:#181818;stroke-width:0.5;" x1="1027" x2="1255" y1="883.21" y2="883.21"/><ellipse cx="1037" cy="896.9541" fill="none" rx="3" ry="3" style="stroke:#038048;stroke-width:1.0;"/><text fill="#000000" font-family="sans-serif" font-size="14" lengthAdjust="spacing" textLength="114" x="1046" y="900.7452">saksaar: number</text><ellipse cx="1037" cy="913.4424" fill="none" rx="3" ry="3" style="stroke:#038048;stroke-width:1.0;"/><text fill="#000000" font-family="sans-serif" font-size="14" lengthAdjust="spacing" textLength="204" x="1046" y="917.2334">sakssekvensnummer: number</text><ellipse cx="1037" cy="929.9307" fill="none" rx="3" ry="3" style="stroke:#038048;stroke-width:1.0;"/><text fill="#000000" font-family="sans-serif" font-size="14" lengthAdjust="spacing" textLength="199" x="1046" y="933.7217">journalpostnummer: number</text><line style="stroke:#181818;stroke-width:0.5;" x1="1027" x2="1255" y1="940.6748" y2="940.6748"/></g><!--class Milepel--><g id="elem_Milepel"><rect codeLine="8" fill="#F1F1F1" height="245.8594" id="Milepel" rx="2.5" ry="2.5" style="stroke:#181818;stroke-width:0.5;" width="325" x="1023.5" y="354.9"/><ellipse cx="1157.25" cy="370.9" fill="#ADD1B2" rx="11" ry="11" style="stroke:#181818;stroke-width:1.0;"/><path d="M1159.7231,377.0431 Q1159.1421,377.3419 1158.5029,377.4913 Q1157.8638,377.6407 1157.1582,377.6407 Q1154.6514,377.6407 1153.3315,375.9889 Q1152.0117,374.337 1152.0117,371.2159 Q1152.0117,368.0865 1153.3315,366.4347 Q1154.6514,364.7828 1157.1582,364.7828 Q1157.8638,364.7828 1158.5112,364.9322 Q1159.1587,365.0816 1159.7231,365.3805 L1159.7231,368.1031 Q1159.0923,367.5221 1158.4988,367.2523 Q1157.9053,366.9825 1157.2744,366.9825 Q1155.9297,366.9825 1155.2449,368.0492 Q1154.5601,369.1158 1154.5601,371.2159 Q1154.5601,373.3077 1155.2449,374.3744 Q1155.9297,375.441 1157.2744,375.441 Q1157.9053,375.441 1158.4988,375.1712 Q1159.0923,374.9015 1159.7231,374.3204 Z " fill="#000000"/><text fill="#000000" font-family="sans-serif" font-size="14" lengthAdjust="spacing" textLength="49" x="1177.75" y="376.191">Milepel</text><line style="stroke:#181818;stroke-width:0.5;" x1="1024.5" x2="1347.5" y1="386.9" y2="386.9"/><ellipse cx="1034.5" cy="400.6441" fill="none" rx="3" ry="3" style="stroke:#038048;stroke-width:1.0;"/><text fill="#000000" font-family="sans-serif" font-size="14" lengthAdjust="spacing" textLength="108" x="1043.5" y="404.4352">systemId: string</text><ellipse cx="1034.5" cy="417.1324" fill="none" rx="3" ry="3" style="stroke:#038048;stroke-width:1.0;"/><text fill="#000000" font-family="sans-serif" font-size="14" lengthAdjust="spacing" textLength="124" x="1043.5" y="420.9234">beskrivelse: string</text><ellipse cx="1034.5" cy="433.6207" fill="none" rx="3" ry="3" style="stroke:#038048;stroke-width:1.0;"/><text fill="#000000" font-family="sans-serif" font-size="14" lengthAdjust="spacing" textLength="143" x="1043.5" y="437.4117">kategori: Milepeltype</text><ellipse cx="1034.5" cy="450.109" fill="none" rx="3" ry="3" style="stroke:#038048;stroke-width:1.0;"/><text fill="#000000" font-family="sans-serif" font-size="14" lengthAdjust="spacing" textLength="65" x="1043.5" y="453.9">frist: date</text><ellipse cx="1034.5" cy="466.5973" fill="none" rx="3" ry="3" style="stroke:#038048;stroke-width:1.0;"/><text fill="#000000" font-family="sans-serif" font-size="14" lengthAdjust="spacing" textLength="85" x="1043.5" y="470.3883">utfoert: date</text><ellipse cx="1034.5" cy="483.0855" fill="none" rx="3" ry="3" style="stroke:#038048;stroke-width:1.0;"/><text fill="#000000" font-family="sans-serif" font-size="14" lengthAdjust="spacing" textLength="111" x="1043.5" y="486.8766">planlagtTil: date</text><ellipse cx="1034.5" cy="499.5738" fill="none" rx="3" ry="3" style="stroke:#038048;stroke-width:1.0;"/><text fill="#000000" font-family="sans-serif" font-size="14" lengthAdjust="spacing" textLength="105" x="1043.5" y="503.3648">intern: boolean</text><ellipse cx="1034.5" cy="516.0621" fill="none" rx="3" ry="3" style="stroke:#038048;stroke-width:1.0;"/><text fill="#000000" font-family="sans-serif" font-size="14" lengthAdjust="spacing" textLength="299" x="1043.5" y="519.8531">referanseJournalpost: ReferanseJournalpost</text><ellipse cx="1034.5" cy="532.5504" fill="none" rx="3" ry="3" style="stroke:#038048;stroke-width:1.0;"/><text fill="#000000" font-family="sans-serif" font-size="14" lengthAdjust="spacing" textLength="296" x="1043.5" y="536.3414">referanseDokument: ReferanseDokumentfil</text><ellipse cx="1034.5" cy="549.0387" fill="none" rx="3" ry="3" style="stroke:#038048;stroke-width:1.0;"/><text fill="#000000" font-family="sans-serif" font-size="14" lengthAdjust="spacing" textLength="110" x="1043.5" y="552.8297">erStart: boolean</text><ellipse cx="1034.5" cy="565.527" fill="none" rx="3" ry="3" style="stroke:#038048;stroke-width:1.0;"/><text fill="#000000" font-family="sans-serif" font-size="14" lengthAdjust="spacing" textLength="109" x="1043.5" y="569.318">erSlutt: boolean</text><ellipse cx="1034.5" cy="582.0152" fill="none" rx="3" ry="3" style="stroke:#038048;stroke-width:1.0;"/><text fill="#000000" font-family="sans-serif" font-size="14" lengthAdjust="spacing" textLength="179" x="1043.5" y="585.8063">status: MilepelStatusEnum</text><line style="stroke:#181818;stroke-width:0.5;" x1="1024.5" x2="1347.5" y1="592.7594" y2="592.7594"/></g><!--class Milepeltype--><g id="elem_Milepeltype"><rect codeLine="30" fill="#F1F1F1" height="80.9766" id="Milepeltype" rx="2.5" ry="2.5" style="stroke:#181818;stroke-width:0.5;" width="184" x="463" y="685.5"/><ellipse cx="511.75" cy="701.5" fill="#ADD1B2" rx="11" ry="11" style="stroke:#181818;stroke-width:1.0;"/><path d="M514.2231,707.6431 Q513.6421,707.9419 513.0029,708.0913 Q512.3638,708.2407 511.6582,708.2407 Q509.1514,708.2407 507.8315,706.5889 Q506.5117,704.937 506.5117,701.8159 Q506.5117,698.6865 507.8315,697.0347 Q509.1514,695.3828 511.6582,695.3828 Q512.3638,695.3828 513.0112,695.5322 Q513.6587,695.6816 514.2231,695.9805 L514.2231,698.7031 Q513.5923,698.1221 512.9988,697.8523 Q512.4053,697.5825 511.7744,697.5825 Q510.4297,697.5825 509.7449,698.6492 Q509.0601,699.7158 509.0601,701.8159 Q509.0601,703.9077 509.7449,704.9744 Q510.4297,706.041 511.7744,706.041 Q512.4053,706.041 512.9988,705.7712 Q513.5923,705.5015 514.2231,704.9204 Z " fill="#000000"/><text fill="#000000" font-family="sans-serif" font-size="14" lengthAdjust="spacing" textLength="78" x="532.25" y="706.791">Milepeltype</text><line style="stroke:#181818;stroke-width:0.5;" x1="464" x2="646" y1="717.5" y2="717.5"/><ellipse cx="474" cy="731.2441" fill="none" rx="3" ry="3" style="stroke:#038048;stroke-width:1.0;"/><text fill="#000000" font-family="sans-serif" font-size="14" lengthAdjust="spacing" textLength="116" x="483" y="735.0352">kodeverdi: string</text><ellipse cx="474" cy="747.7324" fill="none" rx="3" ry="3" style="stroke:#038048;stroke-width:1.0;"/><text fill="#000000" font-family="sans-serif" font-size="14" lengthAdjust="spacing" textLength="158" x="483" y="751.5234">kodebeskrivelse: string</text><line style="stroke:#181818;stroke-width:0.5;" x1="464" x2="646" y1="758.4766" y2="758.4766"/></g><g id="elem_GMN35"><path d="M445.5,442.21 L445.5,513.4522 A0,0 0 0 0 445.5,513.4522 L555.29,513.4522 L555.81,685.21 L563.29,513.4522 L674.5,513.4522 A0,0 0 0 0 674.5,513.4522 L674.5,452.21 L664.5,442.21 L445.5,442.21 A0,0 0 0 0 445.5,442.21 " fill="#FEFFDD" style="stroke:#181818;stroke-width:0.5;"/><path d="M664.5,442.21 L664.5,452.21 L674.5,452.21 L664.5,442.21 " fill="#FEFFDD" style="stroke:#181818;stroke-width:0.5;"/><text fill="#000000" font-family="sans-serif" font-size="13" lengthAdjust="spacing" textLength="69" x="451.5" y="459.7784">Eksempler:</text><text fill="#000000" font-family="sans-serif" font-size="13" lengthAdjust="spacing" textLength="201" x="451.5" y="475.0889">Bestilling av oppstartsm&#248;te (BO)</text><text fill="#000000" font-family="sans-serif" font-size="13" lengthAdjust="spacing" textLength="208" x="451.5" y="490.3995">Gjennomf&#248;rt oppstartsm&#248;te (OM)</text><text fill="#000000" font-family="sans-serif" font-size="13" lengthAdjust="spacing" textLength="137" x="451.5" y="505.71">Mottak av planforslag</text></g><g id="elem_GMN38"><path d="M1086.5,713.33 L1086.5,738.6405 A0,0 0 0 0 1086.5,738.6405 L1285.5,738.6405 A0,0 0 0 0 1285.5,738.6405 L1285.5,723.33 L1275.5,713.33 L1190,713.33 L1186,601.19 L1182,713.33 L1086.5,713.33 A0,0 0 0 0 1086.5,713.33 " fill="#FEFFDD" style="stroke:#181818;stroke-width:0.5;"/><path d="M1275.5,713.33 L1275.5,723.33 L1285.5,723.33 L1275.5,713.33 " fill="#FEFFDD" style="stroke:#181818;stroke-width:0.5;"/><text fill="#000000" font-family="sans-serif" font-size="13" lengthAdjust="spacing" textLength="178" x="1092.5" y="730.8984">frist og utfoert ikke p&#229;krevd</text></g><!--class MilepelStatusEnum--><g id="elem_MilepelStatusEnum"><rect codeLine="46" fill="#F1F1F1" height="80.9766" id="MilepelStatusEnum" rx="2.5" ry="2.5" style="stroke:#181818;stroke-width:0.5;" width="162" x="1321" y="685.5"/><ellipse cx="1336" cy="701.5" fill="#EB937F" rx="11" ry="11" style="stroke:#181818;stroke-width:1.0;"/><path d="M1339.6143,708 L1331.8945,708 L1331.8945,695.6069 L1339.6143,695.6069 L1339.6143,697.7651 L1334.3433,697.7651 L1334.3433,700.438 L1339.1162,700.438 L1339.1162,702.5962 L1334.3433,702.5962 L1334.3433,705.8418 L1339.6143,705.8418 Z " fill="#000000"/><text fill="#000000" font-family="sans-serif" font-size="14" lengthAdjust="spacing" textLength="130" x="1350" y="706.791">MilepelStatusEnum</text><line style="stroke:#181818;stroke-width:0.5;" x1="1322" x2="1482" y1="717.5" y2="717.5"/><ellipse cx="1332" cy="731.2441" fill="none" rx="3" ry="3" style="stroke:#038048;stroke-width:1.0;"/><text fill="#000000" font-family="sans-serif" font-size="14" lengthAdjust="spacing" textLength="36" x="1341" y="735.0352">N&#229;dd</text><ellipse cx="1332" cy="747.7324" fill="none" rx="3" ry="3" style="stroke:#038048;stroke-width:1.0;"/><text fill="#000000" font-family="sans-serif" font-size="14" lengthAdjust="spacing" textLength="55" x="1341" y="751.5234">Planlagt</text><line style="stroke:#181818;stroke-width:0.5;" x1="1322" x2="1482" y1="758.4766" y2="758.4766"/></g><!--class HentSaksfaseResultat--><g id="elem_HentSaksfaseResultat"><rect codeLine="5" fill="#F1F1F1" height="64.4883" id="HentSaksfaseResultat" rx="2.5" ry="2.5" style="stroke:#181818;stroke-width:0.5;" width="178" x="901" y="7"/><ellipse cx="916" cy="23" fill="#ADD1B2" rx="11" ry="11" style="stroke:#181818;stroke-width:1.0;"/><path d="M918.4731,29.1431 Q917.8921,29.4419 917.2529,29.5913 Q916.6138,29.7407 915.9082,29.7407 Q913.4014,29.7407 912.0815,28.0889 Q910.7617,26.437 910.7617,23.3159 Q910.7617,20.1865 912.0815,18.5347 Q913.4014,16.8828 915.9082,16.8828 Q916.6138,16.8828 917.2612,17.0322 Q917.9087,17.1816 918.4731,17.4805 L918.4731,20.2031 Q917.8423,19.6221 917.2488,19.3523 Q916.6553,19.0825 916.0244,19.0825 Q914.6797,19.0825 913.9949,20.1492 Q913.3101,21.2158 913.3101,23.3159 Q913.3101,25.4077 913.9949,26.4744 Q914.6797,27.541 916.0244,27.541 Q916.6553,27.541 917.2488,27.2712 Q917.8423,27.0015 918.4731,26.4204 Z " fill="#000000"/><text fill="#000000" font-family="sans-serif" font-size="14" lengthAdjust="spacing" textLength="146" x="930" y="28.291">HentSaksfaseResultat</text><line style="stroke:#181818;stroke-width:0.5;" x1="902" x2="1078" y1="39" y2="39"/><ellipse cx="912" cy="52.7441" fill="none" rx="3" ry="3" style="stroke:#038048;stroke-width:1.0;"/><text fill="#000000" font-family="sans-serif" font-size="14" lengthAdjust="spacing" textLength="67" x="921" y="56.5352">fase: Fase</text><line style="stroke:#181818;stroke-width:0.5;" x1="902" x2="1078" y1="63.4883" y2="63.4883"/></g><!--link Dokument to Dokumenttype--><g id="link_Dokument_Dokumenttype"><path codeLine="16" d="M1686.19,568.05 C1721.12,606.43 1760.39,649.59 1788.89,680.91 " fill="none" id="Dokument-Dokumenttype" style="stroke:#181818;stroke-width:1.0;"/></g><!--link Dokument to ReferanseDokumentfil--><g id="link_Dokument_ReferanseDokumentfil"><path codeLine="17" d="M1606.81,568.05 C1607.63,608.22 1608.55,653.62 1609.19,685.21 " fill="none" id="Dokument-ReferanseDokumentfil" style="stroke:#181818;stroke-width:1.0;"/></g><!--link Fase to Vedtak--><g id="link_Fase_Vedtak"><path codeLine="19" d="M691.13,220.23 C569.29,231.47 360.69,263.57 208,354.9 C175.71,374.22 147.65,406.2 128.09,432.57 " fill="none" id="Fase-Vedtak" style="stroke:#181818;stroke-width:1.0;"/></g><!--link Fase to FaseStatusEnum--><g id="link_Fase_FaseStatusEnum"><path codeLine="20" d="M791,295.14 C791,338.85 791,391.33 791,428.63 " fill="none" id="Fase-FaseStatusEnum" style="stroke:#181818;stroke-width:1.0;"/></g><!--link Fase to Fasekategori--><g id="link_Fase_Fasekategori"><path codeLine="21" d="M691.36,239.14 C614.81,261.41 508.84,299.2 428,354.9 C397.48,375.93 369.59,407.05 349.53,432.58 " fill="none" id="Fase-Fasekategori" style="stroke:#181818;stroke-width:1.0;"/></g><!--link Milepel to Milepeltype--><g id="link_Milepel_Milepeltype"><path codeLine="23" d="M1023,547.81 C977.42,566.06 927.6,585.03 881,600.76 C786.6,632.64 756.78,621.99 665,660.76 C648.91,667.56 632.27,676.28 616.96,685.09 " fill="none" id="Milepel-Milepeltype" style="stroke:#181818;stroke-width:1.0;"/></g><!--link Milepel to ReferanseJournalpost--><g id="link_Milepel_ReferanseJournalpost"><path codeLine="35" d="M1027.43,601.19 C1000.85,621.7 974.23,642.24 950.54,660.52 " fill="none" id="Milepel-ReferanseJournalpost" style="stroke:#181818;stroke-width:1.0;"/></g><!--link Milepel to ReferanseDokumentfil--><g id="link_Milepel_ReferanseDokumentfil"><path codeLine="36" d="M1348.84,572.52 C1397.8,600.79 1451.63,631.96 1501,660.76 C1514.47,668.62 1528.85,677.06 1542.61,685.15 " fill="none" id="Milepel-ReferanseDokumentfil" style="stroke:#181818;stroke-width:1.0;"/></g><!--link Milepel to MilepelStatusEnum--><g id="link_Milepel_MilepelStatusEnum"><path codeLine="41" d="M1293.37,601.19 C1320.05,631.59 1346.78,662.06 1367.05,685.16 " fill="none" id="Milepel-MilepelStatusEnum" style="stroke:#181818;stroke-width:1.0;"/></g><!--link ReferanseJournalpost to EksternNoekkel--><g id="link_ReferanseJournalpost_EksternNoekkel"><path codeLine="42" d="M780.33,791.5 C749.86,814.18 716.53,838.99 689.58,859.05 " fill="none" id="ReferanseJournalpost-EksternNoekkel" style="stroke:#181818;stroke-width:1.0;"/></g><!--link ReferanseJournalpost to SaksJournalpostnummer--><g id="link_ReferanseJournalpost_SaksJournalpostnummer"><path codeLine="43" d="M969.81,791.5 C1001.09,811.13 1034.91,832.36 1064.17,850.72 " fill="none" id="ReferanseJournalpost-SaksJournalpostnummer" style="stroke:#181818;stroke-width:1.0;"/></g><!--link ReferanseJournalpost to Journalnummer--><g id="link_ReferanseJournalpost_Journalnummer"><path codeLine="44" d="M867,791.5 C867,814.18 867,838.99 867,859.05 " fill="none" id="ReferanseJournalpost-Journalnummer" style="stroke:#181818;stroke-width:1.0;"/></g><!--link HentSaksfaseResultat to Fase--><g id="link_HentSaksfaseResultat_Fase"><path codeLine="9" d="M953.5,71.78 C934.09,88.55 909.24,110.02 884.85,131.1 " fill="none" id="HentSaksfaseResultat-Fase" style="stroke:#181818;stroke-width:1.0;"/></g><!--link Fase to Dokument--><g id="link_Fase_Dokument"><path codeLine="11" d="M890.81,287.34 C896.49,290.14 902.24,292.69 908,294.9 C1099.62,368.58 1169.94,294.04 1366,354.9 C1393.47,363.43 1410.7175,369.8618 1437.5875,382.4118 " fill="none" id="Fase-to-Dokument" style="stroke:#181818;stroke-width:1.0;"/><polygon fill="#181818" points="1448.46,387.49,1444.7165,381.3267,1437.5875,382.4118,1441.331,388.5751,1448.46,387.49" style="stroke:#181818;stroke-width:1.0;"/></g><!--link Fase to Milepel--><g id="link_Fase_Milepel"><path codeLine="12" d="M890.78,283.26 C896.6,287.22 902.37,291.12 908,294.9 C945.1,319.84 985.22,346.35 1023.12,371.19 " fill="none" id="Fase-Milepel" style="stroke:#181818;stroke-width:1.0;"/></g><!--link Milepel to Dokument--><g id="link_Milepel_Dokument"><path codeLine="13" d="M1348.85,477.83 C1378.29,477.83 1395.72,477.83 1425.15,477.83 " fill="none" id="Milepel-to-Dokument" style="stroke:#181818;stroke-width:1.0;"/><polygon fill="#181818" points="1437.15,477.83,1431.15,473.83,1425.15,477.83,1431.15,481.83,1437.15,477.83" style="stroke:#181818;stroke-width:1.0;"/></g><!--SRC=[fK-x3i8m3Dpz5UuAYYjMPeHOMEWNHAsBehWFrGaBujz9Q1O42yB3MJwVptRbnbPYnqWrKJrEv9Lwbq2jrzugBtJRKSyYhDHDFWuyXheLgzevUrtiG7E4wXUNNF_dC3ZXcUN315u4djA9JHcxi4O9Dk0TCCKsStiy9eG7m5UbCMiVCgBPuA6yNGY3vtK_bFocUG80]--></g></svg>