<svg xmlns="http://www.w3.org/2000/svg" xmlns:xlink="http://www.w3.org/1999/xlink" contentStyleType="text/css" height="101px" preserveAspectRatio="none" style="width:246px;height:101px;background:#FFFFFF;" version="1.1" viewBox="0 0 246 101" width="246px" zoomAndPan="magnify"><defs/><g><!--class Saksnummer--><g id="elem_Saksnummer"><rect codeLine="2" fill="#F1F1F1" height="80.9766" id="Saksnummer" rx="2.5" ry="2.5" style="stroke:#181818;stroke-width:0.5;" width="225" x="7" y="7"/><ellipse cx="70.75" cy="23" fill="#ADD1B2" rx="11" ry="11" style="stroke:#181818;stroke-width:1.0;"/><path d="M73.2231,29.1431 Q72.6421,29.4419 72.0029,29.5913 Q71.3638,29.7407 70.6582,29.7407 Q68.1514,29.7407 66.8315,28.0889 Q65.5117,26.437 65.5117,23.3159 Q65.5117,20.1865 66.8315,18.5347 Q68.1514,16.8828 70.6582,16.8828 Q71.3638,16.8828 72.0112,17.0322 Q72.6587,17.1816 73.2231,17.4805 L73.2231,20.2031 Q72.5923,19.6221 71.9988,19.3523 Q71.4053,19.0825 70.7744,19.0825 Q69.4297,19.0825 68.7449,20.1492 Q68.0601,21.2158 68.0601,23.3159 Q68.0601,25.4077 68.7449,26.4744 Q69.4297,27.541 70.7744,27.541 Q71.4053,27.541 71.9988,27.2712 Q72.5923,27.0015 73.2231,26.4204 Z " fill="#000000"/><text fill="#000000" font-family="sans-serif" font-size="14" lengthAdjust="spacing" textLength="89" x="91.25" y="28.291">Saksnummer</text><line style="stroke:#181818;stroke-width:0.5;" x1="8" x2="231" y1="39" y2="39"/><ellipse cx="18" cy="52.7441" fill="none" rx="3" ry="3" style="stroke:#038048;stroke-width:1.0;"/><text fill="#000000" font-family="sans-serif" font-size="14" lengthAdjust="spacing" textLength="109" x="27" y="56.5352">saksaar: integer</text><ellipse cx="18" cy="69.2324" fill="none" rx="3" ry="3" style="stroke:#038048;stroke-width:1.0;"/><text fill="#000000" font-family="sans-serif" font-size="14" lengthAdjust="spacing" textLength="199" x="27" y="73.0234">sakssekvensnummer: integer</text><line style="stroke:#181818;stroke-width:0.5;" x1="8" x2="231" y1="79.9766" y2="79.9766"/></g><!--SRC=[Iyv9B2vM24xCBiuhpSrDBLAevb800krYe4XYOf6LGcPUIMfwQX52j3Wrkomr3weSBg_0LSi50000]--></g></svg>